<?xml version="1.0" encoding="UTF-8"?>
<svg width="24px" height="24px" viewBox="0 0 24 24" version="1.1" xmlns="http://www.w3.org/2000/svg" xmlns:xlink="http://www.w3.org/1999/xlink">
    <title>icon-adult-only</title>
    <g id="Icon" stroke="none" stroke-width="1" fill="none" fill-rule="evenodd">
        <g id="icon-adult-only">
            <polygon id="Path" points="0.0096 0 23.0496 0 23.0496 23.04 0.0096 23.04"></polygon>
            <path d="M13,7 L13,17 L11,17 L11,9 L10,9 L10,7 L13,7 Z M19,7 C20.1045695,7 21,7.8954305 21,9 L21,10.1810845 C21,10.7197399 20.7827222,11.2356228 20.397346,11.6119668 L20,12 L20.4299648,12.4397062 C20.7953888,12.8134094 21,13.3153164 21,13.8379911 L21,15.0113281 C21,16.1096413 20.1096413,17 19.0113281,17 L16.9955469,17 C15.8934368,17 15,16.1065632 15,15.0044531 L15,13.8320989 C15,13.3047645 15.2082657,12.7987694 15.5794761,12.4242239 L16,11.9999219 L15.6007124,11.608932 C15.2165207,11.2327242 15,10.7176616 15,10.1799483 L15,9 C15,7.8954305 15.8954305,7 17,7 L19,7 Z M19,13 L17,13 L17,15 L19,15 L19,13 Z M7,9 L7,11 L9,11 L9,13 L7,13 L7,15 L5,15 L5,13 L3,13 L3,11 L5,11 L5,9 L7,9 Z M19,9 L17,9 L17,11 L19,11 L19,9 Z" id="Combined-Shape" fill="#000000" fill-rule="nonzero"></path>
        </g>
    </g>
</svg>