<?xml version="1.0" encoding="UTF-8"?>
<svg width="24px" height="24px" viewBox="0 0 24 24" version="1.1" xmlns="http://www.w3.org/2000/svg" xmlns:xlink="http://www.w3.org/1999/xlink">
    <title>icon-assignment</title>
    <g id="Icon" stroke="none" stroke-width="1" fill="none" fill-rule="evenodd">
        <g id="icon-assignment">
            <path d="M18.922179,4.0077821 L14.766537,4.0077821 C14.3463035,2.84046693 13.2723735,2 11.9649805,2 C10.6575875,2 9.58365759,2.84046693 9.16342412,4.0077821 L5.0077821,4.0077821 C3.88715953,4.0077821 3,4.89494163 3,6.0155642 L3,19.9299611 C3,21.0505837 3.88715953,21.9377432 5.0077821,21.9377432 L18.922179,21.9377432 C20.0428016,21.9377432 20.9299611,21.0505837 20.9299611,19.9299611 L20.9299611,6.0155642 C20.9299611,4.89494163 20.0428016,4.0077821 18.922179,4.0077821 Z M11.9649805,4.0077821 C12.5252918,4.0077821 12.9455253,4.47470817 12.9455253,4.98832685 C12.9455253,5.54863813 12.5252918,6.0155642 11.9649805,6.0155642 C11.4046693,6.0155642 10.9844358,5.54863813 10.9844358,4.98832685 C10.9844358,4.47470817 11.4046693,4.0077821 11.9649805,4.0077821 Z M13.9727626,17.9688716 L6.9688716,17.9688716 L6.9688716,15.9610895 L13.9727626,15.9610895 L13.9727626,17.9688716 Z M16.9610895,13.9533074 L6.9688716,13.9533074 L6.9688716,11.9922179 L16.9610895,11.9922179 L16.9610895,13.9533074 Z M16.9610895,9.9844358 L6.9688716,9.9844358 L6.9688716,7.9766537 L16.9610895,7.9766537 L16.9610895,9.9844358 Z" id="Shape" fill="#000000" fill-rule="nonzero"></path>
            <polygon id="Bg-24" points="0 0 24 0 24 24 0 24"></polygon>
        </g>
    </g>
</svg>