<?xml version="1.0" encoding="UTF-8"?>
<svg width="24px" height="24px" viewBox="0 0 24 24" version="1.1" xmlns="http://www.w3.org/2000/svg" xmlns:xlink="http://www.w3.org/1999/xlink">
    <title>icon-balcony-terrace</title>
    <g id="Icon" stroke="none" stroke-width="1" fill="none" fill-rule="evenodd">
        <g id="icon-balcony-terrace">
            <polygon id="Path" points="0 0 24 0 24 24 0 24"></polygon>
            <path d="M6.77325511,9.43166342 L11.2263801,9.43166342 L11.2263801,12.9472884 L6.77325511,12.9472884 L6.77325511,9.43166342 Z M6.85138011,7.83010092 L11.2263801,7.83010092 L11.2263801,3.49416342 C8.99981761,3.84572592 7.24200511,5.60353842 6.85138011,7.83010092 Z M12.8670051,3.49416342 L12.8670051,7.83010092 L17.2420051,7.83010092 C16.8513801,5.60353842 15.0935676,3.84572592 12.8670051,3.49416342 Z M12.8670051,9.43166342 L17.3201301,9.43166342 L17.3201301,12.9472884 L12.8670051,12.9472884 L12.8670051,9.43166342 Z M21.2263801,14.5879134 L2.86700511,14.5879134 C2.39825511,14.5879134 2.04669261,14.9394759 2.04669261,15.4082259 C2.04669261,15.8379134 2.39825511,16.1894759 2.86700511,16.1894759 L3.14044261,16.1894759 L3.14044261,20.2519759 C3.14044261,20.7207259 3.49200511,21.0722884 3.92169261,21.0722884 L20.1716926,21.0722884 C20.6013801,21.0722884 20.9529426,20.7207259 20.9529426,20.2519759 L20.9529426,16.1894759 L21.2263801,16.1894759 C21.6951301,16.1894759 22.0466926,15.8379134 22.0466926,15.4082259 C22.0466926,14.9394759 21.6951301,14.5879134 21.2263801,14.5879134 Z M6.38263011,16.8144759 L6.38263011,19.4316634 L4.74200511,19.4316634 L4.74200511,16.1894759 L6.38263011,16.1894759 L6.38263011,16.8144759 Z M9.62481761,16.8144759 L9.62481761,19.4316634 L7.98419261,19.4316634 L7.98419261,16.1894759 L9.62481761,16.1894759 L9.62481761,16.8144759 Z M12.8670051,16.8144759 L12.8670051,19.4316634 L11.2263801,19.4316634 L11.2263801,16.1894759 L12.8670051,16.1894759 L12.8670051,16.8144759 Z M16.1091926,16.8144759 L16.1091926,19.4316634 L14.4685676,19.4316634 L14.4685676,16.1894759 L16.1091926,16.1894759 L16.1091926,16.8144759 Z M19.3513801,19.4316634 L17.7107551,19.4316634 L17.7107551,16.1894759 L19.3513801,16.1894759 L19.3513801,19.4316634 Z" id="Shape" fill="#000000" fill-rule="nonzero"></path>
        </g>
    </g>
</svg>