<?xml version="1.0" encoding="UTF-8"?>
<svg width="24px" height="24px" viewBox="0 0 24 24" version="1.1" xmlns="http://www.w3.org/2000/svg" xmlns:xlink="http://www.w3.org/1999/xlink">
    <title>icon-beauty-services</title>
    <g id="Icon" stroke="none" stroke-width="1" fill="none" fill-rule="evenodd">
        <g id="icon-beauty-services">
            <rect id="Rectangle" x="0" y="0" width="24" height="24"></rect>
            <path d="M8,21 L8,19 L11,19 L11,17 L4,17 L4,14 L20,14 L20,17 L13,17 L13,19 L16,19 L16,21 L8,21 Z M22,10 L22,13 L19,13 L19,10 L22,10 Z M5,10 L5,13 L2,13 L2,10 L5,10 Z M15,3 C16.1,3 17,3.9 17,5 L17,13 L7,13 L7,5 C7,3.9 7.9,3 9,3 L15,3 Z" id="Combined-Shape" fill="#000000" fill-rule="nonzero"></path>
        </g>
    </g>
</svg>