<?xml version="1.0" encoding="UTF-8"?>
<svg width="24px" height="24px" viewBox="0 0 24 24" version="1.1" xmlns="http://www.w3.org/2000/svg" xmlns:xlink="http://www.w3.org/1999/xlink">
    <title>icon-booster</title>
    <g id="Icon" stroke="none" stroke-width="1" fill="none" fill-rule="evenodd">
        <g id="icon-booster">
            <polygon id="Path" points="0 0 24 0 24 24 0 24"></polygon>
            <path d="M17.9912451,8.45294261 C18.4990576,7.59356761 18.7724951,6.61700511 18.7724951,5.60138011 C18.7724951,4.66388011 18.3818701,3.76544261 17.7178076,3.10138011 C17.0537451,2.39825511 16.1553076,2.04669261 15.2178076,2.04669261 L9.59280764,2.04669261 C8.65530764,2.04669261 7.75687014,2.39825511 7.09280764,3.10138011 C6.42874514,3.76544261 6.03812014,4.66388011 6.03812014,5.60138011 C6.03812014,6.61700511 6.31155764,7.59356761 6.81937014,8.45294261 C5.33499514,8.72638011 4.24124514,10.0545051 4.24124514,11.5779426 L4.24124514,11.9295051 C4.24124514,12.3591926 4.31937014,12.8279426 4.51468264,13.2185676 L6.15530764,16.8123176 C5.53030764,17.1248176 5.13968264,17.6716926 5.13968264,18.3357551 L5.13968264,19.1951301 C5.13968264,20.2888801 5.80374514,21.2654426 6.93655764,21.7732551 C7.36624514,21.9295051 7.83499514,22.0466926 8.34280764,22.0466926 L16.4678076,22.0466926 C16.9756201,22.0466926 17.4443701,21.9295051 17.8740576,21.7732551 C19.0068701,21.2654426 19.6709326,20.2888801 19.6709326,19.1951301 L19.6709326,18.3357551 C19.6709326,17.5545051 19.1240576,16.9295051 18.3818701,16.6951301 L20.2178076,13.3357551 C20.4521826,12.8670051 20.5693701,12.3201301 20.5693701,11.8123176 L20.5693701,11.5779426 C20.5693701,10.0545051 19.4756201,8.72638011 17.9912451,8.45294261 Z M10.3349951,16.8123176 C9.90530764,16.9295051 9.59280764,17.0076301 9.31937014,17.1248176 C8.38187014,15.1326301 7.87405764,12.9060676 7.87405764,10.6795051 C7.87405764,10.4060676 7.95218264,10.1716926 8.06937014,9.93731761 C8.49905764,11.4216926 9.51468264,14.3513801 10.5303076,16.8123176 C10.4521826,16.8123176 10.3740576,16.8123176 10.3349951,16.8123176 Z M12.8349951,16.5779426 L11.9756201,16.5779426 C11.3896826,14.0779426 10.8037451,10.9138801 10.5693701,9.31231761 L14.2412451,9.31231761 C14.0068701,10.9138801 13.4209326,14.0388801 12.8349951,16.5779426 Z M15.4912451,17.1248176 C15.2568701,17.0466926 14.9443701,16.9295051 14.6318701,16.8513801 C15.5303076,14.3904426 16.3896826,11.4607551 16.7412451,9.97638011 C16.8584326,10.2107551 16.9365576,10.4451301 16.9365576,10.6795051 C16.9365576,12.9060676 16.4287451,15.1326301 15.4912451,17.1248176 Z" id="Shape" fill="#000000" fill-rule="nonzero"></path>
        </g>
    </g>
</svg>