<?xml version="1.0" encoding="UTF-8"?>
<svg width="24px" height="24px" viewBox="0 0 24 24" version="1.1" xmlns="http://www.w3.org/2000/svg" xmlns:xlink="http://www.w3.org/1999/xlink">
    <title>icon-bowling</title>
    <g id="Icon" stroke="none" stroke-width="1" fill="none" fill-rule="evenodd">
        <g id="icon-bowling">
            <polygon id="Path" points="0 0 24 0 24 24 0 24"></polygon>
            <path d="M14.805414,12.3172279 C14.0635887,11.1068814 13.5950674,9.70131772 13.5169806,8.25671059 L10.5496795,8.25671059 C10.4715926,9.70131772 10.0030713,11.1068814 9.26124607,12.3172279 C7.85568238,14.5036603 6.99672679,17.6661786 8.67559453,20.1259151 L9.76881073,21.7266959 C9.88594104,21.8828697 10.0811582,22 10.2763754,22 L13.7902846,22 C13.9855018,22 14.180719,21.8828697 14.2978493,21.7266959 L15.3910655,20.1259151 C17.0699332,17.6661786 16.2109776,14.5036603 14.805414,12.3172279 Z M13.4779371,2.63445583 C12.7361119,1.81454368 11.3305482,1.81454368 10.5887229,2.63445583 C10.1982885,3.06393363 10.0421148,3.64958516 10.1202017,4.19619327 L10.3154188,5.71888726 C10.4325491,6.14836506 10.4715926,6.57784285 10.510636,7.00732064 L13.556024,7.00732064 C13.5950674,6.53879941 13.6731543,6.07027818 13.7512412,5.64080039 L13.9464584,4.19619327 C14.0245452,3.64958516 13.8683715,3.06393363 13.4779371,2.63445583 Z M19.5296697,2.55636896 C18.9049747,1.81454368 17.6555848,1.81454368 17.0308898,2.55636896 C16.6794989,2.94680332 16.5233251,3.45436798 16.601412,3.92288921 L16.7575857,5.25036603 C16.7966292,5.40653978 16.8356726,5.60175695 16.8747161,5.7579307 L19.6858434,5.7579307 C19.7248869,5.56271352 19.7639303,5.36749634 19.8029737,5.17227916 L19.9591475,3.92288921 C20.0372344,3.45436798 19.8810606,2.94680332 19.5296697,2.55636896 Z M7.03577023,2.55636896 C6.41107525,1.81454368 5.16168531,1.81454368 4.53699033,2.55636896 C4.18559941,2.94680332 4.0684691,3.45436798 4.10751254,3.92288921 L4.30272972,5.25036603 C4.34177315,5.40653978 4.34177315,5.60175695 4.38081659,5.7579307 L7.19194397,5.7579307 C7.23098741,5.56271352 7.27003084,5.36749634 7.30907428,5.17227916 L7.46524802,3.92288921 C7.54333489,3.45436798 7.38716115,2.94680332 7.03577023,2.55636896 Z M8.40229048,11.3020986 C8.32420361,11.2240117 8.28516017,11.1068814 8.24611674,11.0287945 C7.46524802,9.85749146 7.07481366,8.45192777 7.07481366,7.00732064 L4.4979469,7.00732064 C4.4979469,8.41288433 4.10751254,9.81844802 3.36568726,11.0287945 C2.15534075,12.9419229 1.37447203,15.7140068 2.85812259,17.8613958 L3.79516505,19.2669595 C3.91229536,19.4231332 4.0684691,19.5012201 4.26368628,19.5012201 L6.95768335,19.5012201 C5.94255402,16.807223 6.84055305,13.8008785 8.2070733,11.6534895 C8.24611674,11.5363592 8.32420361,11.4192289 8.40229048,11.3020986 Z M20.7009728,11.0287945 C19.9591475,9.85749146 19.5687131,8.45192777 19.5687131,7.00732064 L16.9918464,7.00732064 C16.9918464,8.41288433 16.601412,9.81844802 15.8205433,11.0287945 C15.7814999,11.1068814 15.7424564,11.2240117 15.703413,11.3020986 C15.7424564,11.4192289 15.8205433,11.5363592 15.8595867,11.6534895 L15.8595867,11.6534895 C17.226107,13.8008785 18.124106,16.807223 17.1089767,19.5012201 L19.8029737,19.5012201 C19.9981909,19.5012201 20.1543647,19.4231332 20.271495,19.2669595 L21.2085374,17.8613958 C22.692188,15.7140068 21.9113193,12.9419229 20.7009728,11.0287945 Z" id="Shape" fill="#000000" fill-rule="nonzero"></path>
        </g>
    </g>
</svg>