<?xml version="1.0" encoding="UTF-8"?>
<svg width="24px" height="24px" viewBox="0 0 24 24" version="1.1" xmlns="http://www.w3.org/2000/svg" xmlns:xlink="http://www.w3.org/1999/xlink">
    <title>icon-breakfast-options</title>
    <g id="Icon" stroke="none" stroke-width="1" fill="none" fill-rule="evenodd">
        <g id="icon-breakfast-options">
            <polygon id="Path" points="0 0 24 0 24 24 0 24"></polygon>
            <path d="M21.4031556,17.7401309 L16.4117812,13.795335 C18.142661,10.8971176 17.7803839,7.11333384 15.2846967,4.57739364 C12.3059733,1.63892326 7.55611705,1.63892326 4.57739364,4.57739364 C1.63892326,7.55611705 1.63892326,12.3059733 4.57739364,15.2846967 C7.07308082,17.7803839 10.8971176,18.142661 13.795335,16.4117812 L17.7401309,21.4031556 C18.2231671,21.9666978 18.9074684,22.328975 19.6320227,22.369228 C20.3968301,22.4094811 21.1213844,22.1679629 21.6446737,21.6446737 C22.1679629,21.1213844 22.4094811,20.3968301 22.369228,19.6320227 C22.328975,18.9074684 21.9666978,18.2231671 21.4031556,17.7401309 Z M11.9436961,14.6809014 C11.5411659,14.5601424 10.8971176,14.3991303 10.4945874,14.3991303 C8.88446668,14.4393833 8.5221895,16.3715282 6.95232176,14.1173591 C6.54979157,13.5135639 6.50953856,13.1110337 6.42903252,12.7085035 C6.22776742,11.8229371 5.50321308,11.2996478 5.30194799,11.1788888 C2.88676685,9.32724988 5.78498421,7.31459894 5.98624931,7.07308082 C6.99257478,6.10700837 6.79130969,6.02650233 7.55611705,5.42270704 C8.84421366,4.37612855 10.6153465,5.46296006 10.9776237,5.66422516 C12.4669854,6.46928554 12.5877444,5.62397214 13.875841,6.63029761 C15.3652027,7.79763516 15.2041907,9.16623781 14.4796363,10.4140814 C14.2381182,10.8166116 14.5601424,11.8631901 13.9563471,13.3122988 C13.3525518,14.7211544 12.5474914,14.8419135 11.9436961,14.6809014 Z M20.5175892,20.5175892 C20.074806,21.0006254 19.1892395,20.8396133 18.5854442,20.235818 C17.9413959,19.5917697 17.8206369,18.7062033 18.2634201,18.2634201 C18.7062033,17.8206369 19.5917697,17.9413959 20.235818,18.5854442 C20.8396133,19.1892395 21.0006254,20.074806 20.5175892,20.5175892 Z M7.35485195,7.35485195 C6.42903252,8.24041837 6.42903252,9.72978007 7.35485195,10.6555995 C8.24041837,11.5411659 9.72978007,11.5411659 10.6555995,10.6555995 C11.5411659,9.72978007 11.5411659,8.24041837 10.6555995,7.35485195 C9.72978007,6.42903252 8.24041837,6.42903252 7.35485195,7.35485195 Z" id="Shape" fill="#000000" fill-rule="nonzero"></path>
        </g>
    </g>
</svg>