<?xml version="1.0" encoding="UTF-8"?>
<svg width="24px" height="24px" viewBox="0 0 24 24" version="1.1" xmlns="http://www.w3.org/2000/svg" xmlns:xlink="http://www.w3.org/1999/xlink">
    <title>icon-business-friendly</title>
    <g id="Icon" stroke="none" stroke-width="1" fill="none" fill-rule="evenodd">
        <g id="icon-business-friendly">
            <polygon id="Path" points="0 0 24 0 24 24 0 24"></polygon>
            <path d="M10,16 L10,15 L3.01,15 L3,19 C3,20.11 3.89,21 5,21 L19,21 C20.11,21 21,20.11 21,19 L21,15 L14,15 L14,16 L10,16 Z M20,7 L15.99,7 L15.99,5 L13.99,3 L9.99,3 L7.99,5 L7.99,7 L4,7 C2.9,7 2,7.9 2,9 L2,12 C2,13.11 2.89,14 4,14 L10,14 L10,12 L14,12 L14,14 L20,14 C21.1,14 22,13.1 22,12 L22,9 C22,7.9 21.1,7 20,7 Z M14,7 L10,7 L10,5 L14,5 L14,7 Z" id="Shape" fill="#000000" fill-rule="nonzero"></path>
        </g>
    </g>
</svg>