<?xml version="1.0" encoding="UTF-8"?>
<svg width="24px" height="24px" viewBox="0 0 24 24" version="1.1" xmlns="http://www.w3.org/2000/svg" xmlns:xlink="http://www.w3.org/1999/xlink">
    <title>icon-calendar</title>
    <g id="Icon" stroke="none" stroke-width="1" fill="none" fill-rule="evenodd">
        <g id="icon-calendar">
            <polygon id="Path" points="0 0 24 0 24 24 0 24"></polygon>
            <path d="M7,1 L7,3 L17,3 L17,1 L19,1 L19,3 L20,3 C21.1,3 22,3.9 22,5 L22,5 L22,21 C22,22.1 21.1,23 20,23 L20,23 L4,23 C2.9,23 2,22.1 2,21 L2,21 L2,5 C2,3.9 2.9,3 4,3 L4,3 L5,3 L5,1 L7,1 Z M20,8 L4,8 L4,21 L20,21 L20,8 Z M9,15 L9,18 L6,18 L6,15 L9,15 Z M9,10 L9,13 L6,13 L6,10 L9,10 Z M14,10 L14,13 L11,13 L11,10 L14,10 Z" id="Combined-Shape" fill="#000000"></path>
        </g>
    </g>
</svg>