<?xml version="1.0" encoding="UTF-8"?>
<svg width="24px" height="24px" viewBox="0 0 24 24" version="1.1" xmlns="http://www.w3.org/2000/svg" xmlns:xlink="http://www.w3.org/1999/xlink">
    <title>icon-car</title>
    <g id="Icon" stroke="none" stroke-width="1" fill="none" fill-rule="evenodd">
        <g id="icon-car">
            <polygon id="Shape" points="0 0 24 0 24 24 0 24"></polygon>
            <path d="M18.5,5 C19.1128571,5 19.6394898,5.36214286 19.8717274,5.88626458 L19.92,6.01 L21.305,10 L24,10 C24,11.1045695 23.1045695,12 22,12 L22,12 L22,20 C22,20.5107143 21.6119898,20.9352041 21.116199,20.9932398 L21,21 L20,21 C19.4892857,21 19.0647959,20.6119898 19.0067602,20.116199 L19,20 L19,19 L5,19 L5,20 C5,20.5107143 4.6119898,20.9352041 4.11619898,20.9932398 L4,21 L3,21 C2.48928571,21 2.06479592,20.6119898 2.0067602,20.116199 L2,20 L2,12 L1.85073766,11.9945143 C0.867620784,11.9219826 0.0821352342,11.1387735 0.00604447146,10.1566505 L-2.22044605e-16,10 L2.694,10 L4.08,6.01 C4.275,5.46214286 4.76316327,5.06086735 5.36033892,5.00633746 L5.5,5 L18.5,5 Z M5,14 L3,14 L3,17 L8,17 L7.99490731,16.8237272 C7.90366088,15.24892 6.59768088,14 5,14 L5,14 Z M21,14 L19,14 C17.3431458,14 16,15.3431458 16,17 L16,17 L21,17 L21,14 Z M18.5,6.5 L5.5,6.5 L4,11 L20,11 L18.5,6.5 Z" id="Shape" fill="#000000" fill-rule="nonzero"></path>
        </g>
    </g>
</svg>