<?xml version="1.0" encoding="UTF-8"?>
<svg width="24px" height="24px" viewBox="0 0 24 24" version="1.1" xmlns="http://www.w3.org/2000/svg" xmlns:xlink="http://www.w3.org/1999/xlink">
    <title>icon-carpeted</title>
    <g id="Icon" stroke="none" stroke-width="1" fill="none" fill-rule="evenodd">
        <g id="icon-carpeted">
            <polygon id="Bg" points="0 0 24 0 24 24 0 24"></polygon>
            <path d="M21.6170051,6.22638011 L17.5935676,6.22638011 C17.6326301,5.83575511 17.5935676,5.44513011 17.5154426,5.09356761 C17.1638801,3.76544261 16.2263801,2.67169261 14.9373176,2.28106761 C14.5857551,2.20294261 13.9998176,2.04669261 13.4920051,2.04669261 C12.2029426,2.04669261 10.9529426,2.67169261 10.2498176,3.76544261 L3.10138011,13.9607551 C2.98419261,14.1170051 2.74981761,14.4685676 2.74981761,14.4685676 C2.32013011,15.2498176 2.04669261,16.1091926 2.04669261,17.0466926 C2.04669261,19.8201301 4.27325511,22.0466926 7.04669261,22.0466926 L12.4763801,22.0466926 C12.7107551,22.0466926 12.8670051,21.8513801 12.8670051,21.6170051 C12.8670051,21.3826301 12.7107551,21.2263801 12.4763801,21.2263801 L12.3591926,21.2263801 L13.3748176,19.5466926 L14.1170051,19.5466926 C14.3513801,19.5466926 14.5466926,19.3513801 14.5466926,19.1170051 C14.5466926,18.8826301 14.3513801,18.7263801 14.1170051,18.7263801 L13.8826301,18.7263801 L14.9373176,17.0466926 L15.7966926,17.0466926 C16.0310676,17.0466926 16.2263801,16.8513801 16.2263801,16.6170051 C16.2263801,16.3826301 16.0310676,16.2263801 15.7966926,16.2263801 L15.4451301,16.2263801 L16.4607551,14.5466926 L17.0466926,14.5466926 C17.2810676,14.5466926 17.4763801,14.3513801 17.4763801,14.1170051 C17.4763801,13.8826301 17.2810676,13.7263801 17.0466926,13.7263801 L16.9685676,13.7263801 L17.9841926,12.0466926 L18.7263801,12.0466926 C18.9607551,12.0466926 19.1170051,11.8513801 19.1170051,11.6170051 C19.1170051,11.3826301 18.9607551,11.2263801 18.7263801,11.2263801 L18.4920051,11.2263801 L19.5076301,9.54669261 L19.9763801,9.54669261 C20.2107551,9.54669261 20.3670051,9.35138011 20.3670051,9.11700511 C20.3670051,8.92169261 20.2107551,8.72638011 20.0154426,8.72638011 L21.0310676,7.04669261 L21.6170051,7.04669261 C21.8513801,7.04669261 22.0466926,6.85138011 22.0466926,6.61700511 C22.0466926,6.38263011 21.8513801,6.22638011 21.6170051,6.22638011 Z M11.3826301,21.2263801 L7.04669261,21.2263801 C4.74200511,21.2263801 2.86700511,19.3513801 2.86700511,17.0466926 C2.86700511,16.2263801 3.14044261,15.4451301 3.53106761,14.8201301 L3.68731761,14.5857551 C4.42950511,13.5701301 5.67950511,12.8670051 7.04669261,12.8670051 C8.88263011,12.8670051 10.3670051,14.3904426 10.3670051,16.2263801 C10.3670051,18.0623176 8.88263011,19.5466926 7.04669261,19.5466926 C5.67950511,19.5466926 4.54669261,18.4138801 4.54669261,17.0466926 C4.54669261,15.6795051 5.67950511,14.5466926 7.04669261,14.5466926 C7.12481761,14.5466926 7.24200511,14.5466926 7.32013011,14.5857551 L5.48419261,16.7732551 C5.40606761,16.8513801 5.36700511,16.9685676 5.36700511,17.0466926 C5.36700511,17.9841926 6.10919261,18.7263801 7.04669261,18.7263801 C8.41388011,18.7263801 9.54669261,17.5935676 9.54669261,16.2263801 C9.54669261,14.8201301 8.41388011,13.7263801 7.04669261,13.7263801 C5.21075511,13.7263801 3.72638011,15.2107551 3.72638011,17.0466926 C3.72638011,18.8826301 5.21075511,20.3670051 7.04669261,20.3670051 C8.64825511,20.3670051 10.0545051,19.4295051 10.7576301,18.1013801 L10.7576301,18.1013801 L17.0466926,8.10138011 C17.2420051,7.78888011 17.3591926,7.43731761 17.4763801,7.04669261 L20.0545051,7.04669261 L11.3826301,21.2263801 Z" id="Shape" fill="#000000" fill-rule="nonzero"></path>
        </g>
    </g>
</svg>