<?xml version="1.0" encoding="UTF-8"?>
<svg width="24px" height="24px" viewBox="0 0 24 24" version="1.1" xmlns="http://www.w3.org/2000/svg" xmlns:xlink="http://www.w3.org/1999/xlink">
    <title>icon-case-small</title>
    <g id="Icon" stroke="none" stroke-width="1" fill="none" fill-rule="evenodd">
        <g id="icon-case-small">
            <polygon id="Bg" points="0 0 24 0 24 24 0 24"></polygon>
            <path d="M14,7 C15.1045695,7 16,7.8954305 16,9 L16,11 L17,11 C18.1045695,11 19,11.8954305 19,13 L19,19 C19,20.1045695 18.1045695,21 17,21 L7,21 C5.8954305,21 5,20.1045695 5,19 L5,13 C5,11.8954305 5.8954305,11 7,11 L8,11 L8,9 C8,7.8954305 8.8954305,7 10,7 L14,7 Z M14,9 L10,9 L10,11 L14,11 L14,9 Z" id="Combined-Shape" fill="#000000" fill-rule="nonzero"></path>
        </g>
    </g>
</svg>