<?xml version="1.0" encoding="UTF-8"?>
<svg width="24px" height="24px" viewBox="0 0 24 24" version="1.1" xmlns="http://www.w3.org/2000/svg" xmlns:xlink="http://www.w3.org/1999/xlink">
    <title>icon-case</title>
    <g id="Icon" stroke="none" stroke-width="1" fill="none" fill-rule="evenodd">
        <g id="icon-case">
            <polygon id="Bg" points="0 0 24 0 24 24 0 24"></polygon>
            <path d="M14,1 C15.1045695,1 16,1.8954305 16,3 L16,5 L17,5 C18.1045695,5 19,5.8954305 19,7 L19,19 C19,20.1045695 18.1045695,21 17,21 L17,23 L15,23 L15,21 L9,21 L9,23 L7,23 L7,21 C5.8954305,21 5,20.1045695 5,19 L5,7 C5,5.8954305 5.8954305,5 7,5 L8,5 L8,3 C8,1.8954305 8.8954305,1 10,1 L14,1 Z M14,3 L10,3 L10,5 L14,5 L14,3 Z" id="Combined-Shape" fill="#000000" fill-rule="nonzero"></path>
        </g>
    </g>
</svg>