<?xml version="1.0" encoding="UTF-8"?>
<svg width="24px" height="24px" viewBox="0 0 24 24" version="1.1" xmlns="http://www.w3.org/2000/svg" xmlns:xlink="http://www.w3.org/1999/xlink">
    <title>icon-child-seat</title>
    <g id="Icon" stroke="none" stroke-width="1" fill="none" fill-rule="evenodd">
        <g id="icon-child-seat">
            <polygon id="Path" points="0 0 24 0 24 24 0 24"></polygon>
            <path d="M19.8537492,11.7671074 L16.2605197,11.2203116 C15.6746671,11.1421979 15.0888144,11.4155958 14.8154165,11.9623916 L14.4248481,12.6654147 C15.205985,12.4701305 15.9090081,12.35296 16.5339176,12.35296 C17.9790208,12.35296 18.9944987,13.0169263 19.1897829,14.5010863 L19.4631808,14.5401431 C20.2052608,14.6573137 20.9082839,14.1105179 21.0254544,13.329381 C21.142625,12.587301 20.634886,11.8842779 19.8537492,11.7671074 Z M9.11311759,8.64255998 C8.87877653,8.75973051 8.68349232,8.91595788 8.52726496,9.11124209 C8.99594706,10.0486063 9.34745864,11.3374821 9.62085654,12.35296 C9.7770839,12.7825853 10.0504818,13.1340968 10.4410502,13.3684379 C10.7144481,13.4856084 10.9487892,13.5637221 11.2221871,13.5637221 C11.4174713,13.5637221 11.5736986,13.5246653 11.729926,13.4856084 C12.5110629,13.2122105 13.214086,13.0169263 13.8780523,12.8216421 L12.5891765,10.4001179 L15.5574965,8.17387788 C16.182406,7.70519577 16.2995765,6.84594524 15.8308944,6.22103577 C15.4012692,5.59612629 14.5029618,5.47895577 13.8780523,5.94763787 L10.5582207,8.40821893 C10.0895386,8.33010524 9.58179969,8.40821893 9.11311759,8.64255998 Z M16.5339176,13.3684379 C15.3622123,13.3684379 13.721825,13.9152337 12.0814376,14.4620295 C11.8080397,14.5401431 11.5346418,14.5792 11.2221871,14.5792 C10.7925618,14.5792 10.3629365,14.4620295 9.97236812,14.2667453 C9.3084018,13.9152337 8.83971969,13.329381 8.64443548,12.6263579 C7.98046916,10.2829474 7.27744601,7.86142314 6.02762706,8.17387788 C3.95761442,8.68161682 2.98119337,11.6889937 3.76233021,14.9307116 C4.19195548,16.6101558 5.051206,18.0552589 6.02762706,18.9145095 C6.14479758,19.03168 6.26196811,19.1488505 6.37913864,19.2269642 C6.34008179,19.5394189 6.10574074,21.2969768 6.0666839,21.5703747 C6.02762706,21.8047158 6.22291127,22 6.41819548,22 L14.1905071,22 C14.4248481,22 14.5810755,21.8047158 14.5420186,21.5703747 C14.5420186,21.3750905 14.3076776,19.8518737 14.3076776,19.6565895 C16.9635429,18.4848842 18.6039302,16.3367579 18.1352481,14.3839158 C17.9399639,13.6418358 17.3541113,13.3684379 16.5339176,13.3684379 Z M7.39461653,7.50991156 C9.62085654,7.86142314 11.3784144,5.51801261 10.2848229,3.48705682 C9.58179969,2.12006734 7.90235548,1.61232839 6.535366,2.31535155 C5.16837653,3.05743155 4.66063758,4.73687577 5.40271758,6.0648084 C5.793286,6.84594524 6.57442285,7.39274103 7.39461653,7.50991156 Z" id="Shape" fill="#000000" fill-rule="nonzero"></path>
        </g>
    </g>
</svg>