<?xml version="1.0" encoding="UTF-8"?>
<svg width="24px" height="24px" viewBox="0 0 24 24" version="1.1" xmlns="http://www.w3.org/2000/svg" xmlns:xlink="http://www.w3.org/1999/xlink">
    <title>icon-compass</title>
    <g id="Icon" stroke="none" stroke-width="1" fill="none" fill-rule="evenodd">
        <g id="icon-compass">
            <polygon id="Path" points="0 0 24 0 24 24 0 24"></polygon>
            <path d="M12,10.9 C11.39,10.9 10.9,11.39 10.9,12 C10.9,12.61 11.39,13.1 12,13.1 C12.61,13.1 13.1,12.61 13.1,12 C13.1,11.39 12.61,10.9 12,10.9 Z M12,2 C6.48,2 2,6.48 2,12 C2,17.52 6.48,22 12,22 C17.52,22 22,17.52 22,12 C22,6.48 17.52,2 12,2 Z M14.19,14.19 L6,18 L9.81,9.81 L18,6 L14.19,14.19 Z" id="Shape" fill="#000000" fill-rule="nonzero"></path>
        </g>
    </g>
</svg>