<?xml version="1.0" encoding="UTF-8"?>
<svg width="24px" height="24px" viewBox="0 0 24 24" version="1.1" xmlns="http://www.w3.org/2000/svg" xmlns:xlink="http://www.w3.org/1999/xlink">
    <title>icon-concierge</title>
    <g id="Icon" stroke="none" stroke-width="1" fill="none" fill-rule="evenodd">
        <g id="icon-concierge">
            <polygon id="Path" points="0 0 24 0 24 24 0 24"></polygon>
            <path d="M11.145986,22 L12.5518854,20.5941006 L12.5518854,18.9148318 L15.7151591,15.7906109 C17.7849555,13.7208146 17.7849555,10.4013299 15.7151591,8.33153351 C13.6453627,6.26173715 10.325878,6.26173715 8.25608167,8.33153351 L5.13186076,11.4948072 L3.45259202,11.4948072 L2.04669261,12.9007066 L6.18628532,17.0402993 L5.2880718,17.9385128 C4.62417486,17.6260907 3.84311963,17.743249 3.29638097,18.2899877 C2.59343127,18.9538846 2.59343127,20.0864147 3.29638097,20.7503116 C3.96027792,21.4532613 5.092808,21.4532613 5.75670494,20.7503116 C6.3034436,20.203573 6.42060188,19.4225177 6.10817979,18.7586208 L7.00639331,17.8604073 L11.145986,22 Z M19.0346438,2.51267206 C18.9565383,2.59077758 17.199164,4.66057393 15.4417898,6.613212 C15.8323174,6.88658133 16.222845,7.15995066 16.5352671,7.51142552 C16.8867419,7.82384761 17.1601113,8.21437522 17.4334806,8.60490284 L21.5340206,5.01204879 C22.1979175,4.30909908 22.1979175,3.21562176 21.5340206,2.51267206 C20.8310708,1.84877511 19.7375935,1.80972235 19.0346438,2.51267206 Z" id="Shape" fill="#000000" fill-rule="nonzero"></path>
        </g>
    </g>
</svg>