<?xml version="1.0" encoding="UTF-8"?>
<svg width="24px" height="24px" viewBox="0 0 24 24" version="1.1" xmlns="http://www.w3.org/2000/svg" xmlns:xlink="http://www.w3.org/1999/xlink">
    <title>icon-couple-friendly</title>
    <g id="Icon" stroke="none" stroke-width="1" fill="none" fill-rule="evenodd">
        <g id="icon-couple-friendly">
            <polygon id="Path" points="0 0 24 0 24 24 0 24"></polygon>
            <path d="M18,11 C19.66,11 20.99,9.66 20.99,8 C20.99,6.34 19.66,5 18,5 C17.68,5 17.37,5.05 17.09,5.14 C17.66,5.95 17.99,6.93 17.99,8 C17.99,9.07 17.65,10.04 17.09,10.86 C17.37,10.95 17.68,11 18,11 Z M13,11 C14.66,11 15.99,9.66 15.99,8 C15.99,6.34 14.66,5 13,5 C11.34,5 10,6.34 10,8 C10,9.66 11.34,11 13,11 Z M19.62,13.16 C20.45,13.89 21,14.82 21,16 L21,18 L24,18 L24,16 C24,14.46 21.63,13.51 19.62,13.16 Z M13,13 C15,13 19,14 19,16 L19,16 L19,18 L7,18 L7,16 C7,14 11,13 13,13 Z M6,8 C7.104,8 8,8.896 8,10 C8,10.552 7.776,11.056 7.416,11.416 L4,14.832 L0.584,11.416 C0.224,11.048 0,10.552 0,10 C0,8.896 0.896,8 2,8 C2.552,8 3.056,8.224 3.416,8.592 L4,9.168 L4.584,8.584 C4.944,8.224 5.448,8 6,8 Z" id="Shape" fill="#000000" fill-rule="nonzero"></path>
        </g>
    </g>
</svg>