<?xml version="1.0" encoding="UTF-8"?>
<svg width="24px" height="24px" viewBox="0 0 24 24" version="1.1" xmlns="http://www.w3.org/2000/svg" xmlns:xlink="http://www.w3.org/1999/xlink">
    <title>icon-diving</title>
    <g id="Icon" stroke="none" stroke-width="1" fill="none" fill-rule="evenodd">
        <g id="icon-diving">
            <polygon id="Path" points="0 0 24 0 24 24 0 24"></polygon>
            <path d="M14.6785627,5.64044261 L10.1473127,5.64044261 C9.36606274,5.64044261 8.70200024,6.14825511 8.46762524,6.81231761 C8.50668774,6.81231761 8.54575024,6.81231761 8.58481274,6.81231761 L16.2020002,6.81231761 C16.2410627,6.81231761 16.2801252,6.81231761 16.3191877,6.81231761 C16.0848127,6.14825511 15.4207502,5.64044261 14.6785627,5.64044261 Z M18.2723127,17.3201301 L18.2723127,17.9451301 C18.2723127,18.9607551 17.4520002,19.7810676 16.4363752,19.7810676 L15.8113752,19.7810676 C15.8113752,19.7029426 15.8113752,19.6248176 15.8113752,19.5857551 L15.8113752,17.7498176 L15.2254377,17.7498176 C13.8973127,17.7498176 12.7645002,16.8513801 12.4129377,15.6404426 C12.1004377,16.6170051 11.2801252,17.3982551 10.2645002,17.6326301 L11.1238752,18.2185676 C11.5145002,18.4920051 11.9441877,18.6091926 12.4129377,18.6091926 C12.6473127,18.6091926 12.8816877,18.5701301 13.1160627,18.4920051 L13.1160627,19.5857551 C13.1160627,19.6638801 13.1551252,19.7810676 13.1551252,19.8591926 C12.7645002,20.0154426 12.4520002,20.4060676 12.4520002,20.8748176 C12.4129377,21.5388801 12.9207502,22.0466926 13.5848127,22.0466926 L16.4363752,22.0466926 C18.7020002,22.0466926 20.5379377,20.2107551 20.5379377,17.9451301 L20.5379377,15.6013801 C19.9520002,16.3826301 19.1707502,16.9685676 18.2723127,17.3201301 Z M20.5379377,2.90606761 C20.5379377,2.43731761 20.1473127,2.04669261 19.6785627,2.04669261 L19.0926252,2.04669261 C18.6238752,2.04669261 18.2723127,2.43731761 18.2723127,2.90606761 L18.2723127,3.68731761 L20.5379377,3.68731761 L20.5379377,2.90606761 Z M18.2723127,4.85919261 L18.2723127,7.20294261 C19.1707502,7.59356761 19.9520002,8.17950511 20.5379377,8.96075511 L20.5379377,4.85919261 L18.2723127,4.85919261 Z M16.2020002,7.98419261 L8.58481274,7.98419261 C6.20200024,7.98419261 4.28793774,9.89825511 4.28793774,12.2810676 C4.28793774,14.6248176 6.20200024,16.5779426 8.58481274,16.5779426 L9.56137524,16.5779426 C10.5379377,16.5779426 11.3582502,15.7576301 11.3582502,14.7420051 C11.3582502,14.3904426 11.6316877,14.1170051 11.9832502,14.1170051 L12.8035627,14.1170051 C13.1551252,14.1170051 13.4285627,14.3904426 13.4285627,14.7420051 C13.4285627,15.7576301 14.2488752,16.5779426 15.2254377,16.5779426 L16.2020002,16.5779426 C18.5848127,16.5779426 20.4988752,14.6248176 20.4988752,12.2810676 C20.4988752,9.89825511 18.5848127,7.98419261 16.2020002,7.98419261 Z" id="Shape" fill="#000000" fill-rule="nonzero"></path>
        </g>
    </g>
</svg>