<?xml version="1.0" encoding="UTF-8"?>
<svg width="24px" height="24px" viewBox="0 0 24 24" version="1.1" xmlns="http://www.w3.org/2000/svg" xmlns:xlink="http://www.w3.org/1999/xlink">
    <title>icon-door</title>
    <g id="Icon" stroke="none" stroke-width="1" fill="none" fill-rule="evenodd">
        <g id="icon-door">
            <polygon id="Path" points="0 0 24 0 24 24 0 24"></polygon>
            <path d="M20,4 L20,20 L4,20 L4,12 C4,7.581722 7.581722,4 12,4 L20,4 Z M18,14 L15,14 L15,14.5 C15,15.3284271 15.6715729,16 16.5,16 C17.3284271,16 18,15.3284271 18,14.5 L18,14.5 L18,14 Z M18,6 L12.0602051,6 C8.78931348,6 6.12365671,8.59131833 6.00418,11.8330097 L6.001,12 L18,12 L18,6 Z" id="Combined-Shape" fill="#000000"></path>
        </g>
    </g>
</svg>