<?xml version="1.0" encoding="UTF-8"?>
<svg width="24px" height="24px" viewBox="0 0 24 24" version="1.1" xmlns="http://www.w3.org/2000/svg" xmlns:xlink="http://www.w3.org/1999/xlink">
    <title>icon-entertainment</title>
    <g id="Icon" stroke="none" stroke-width="1" fill="none" fill-rule="evenodd">
        <g id="icon-entertainment">
            <polygon id="Path" points="0 0 24 0 24 24 0 24"></polygon>
            <path d="M4.34830565,15.3670051 L2.19986815,20.4060676 C2.00455565,20.8357551 2.08268065,21.3435676 2.39518065,21.6560676 C2.62955565,21.9295051 2.94205565,22.0466926 3.25455565,22.0466926 C3.37174315,22.0466926 3.52799315,22.0076301 3.64518065,21.9685676 L6.96549315,20.7966926 L4.34830565,15.3670051 Z M6.41861815,10.6013801 L4.97330565,13.9607551 L8.05924315,20.4060676 L10.6764306,19.4685676 L6.41861815,10.6013801 Z M20.9498681,5.95294261 C20.5983056,5.99200511 20.4029931,6.30450511 20.4420556,6.61700511 C20.4420556,6.73419261 20.4811181,6.85138011 20.4811181,6.96856761 C20.5983056,8.25763011 20.4420556,9.23419261 19.9733056,9.93731761 C19.4264306,10.7185676 18.4889306,11.1873176 17.5514306,11.0701301 C17.3170556,11.0701301 17.1217431,11.0310676 16.9264306,10.9138801 C16.9654931,10.8748176 17.0045556,10.7966926 17.0045556,10.7185676 C17.1998681,10.3670051 17.2779931,9.97638011 17.2389306,9.54669261 C17.1998681,9.23419261 17.1217431,8.92169261 17.0045556,8.64825511 C16.7311181,8.06231761 16.2623681,7.71075511 15.7154931,7.55450511 C15.1295556,7.39825511 14.4264306,7.82794261 14.2311181,8.45294261 C14.0748681,8.88263011 14.1139306,9.39044261 14.3483056,9.89825511 C14.5045556,10.3670051 14.7779931,10.7576301 15.0904931,11.0701301 C14.8170556,11.2263801 14.4654931,11.3435676 14.0748681,11.4216926 C13.7623681,11.4607551 13.5670556,11.7732551 13.6061181,12.0857551 C13.6451806,12.3591926 13.8795556,12.5935676 14.1920556,12.5935676 C14.1920556,12.5935676 14.2311181,12.5935676 14.2701806,12.5545051 C14.9733056,12.4763801 15.5983056,12.2029426 16.1061181,11.8513801 C16.4967431,12.0466926 16.9654931,12.2029426 17.4342431,12.2420051 C17.5514306,12.2810676 17.6686181,12.2810676 17.8248681,12.2810676 C19.0358056,12.2810676 20.2467431,11.6560676 20.9498681,10.6013801 C21.6529931,9.58575511 21.8483056,8.21856761 21.6139306,6.46075511 C21.5358056,6.14825511 21.2623681,5.91388011 20.9498681,5.95294261 Z M15.3248681,8.84356761 C15.3639306,8.76544261 15.4420556,8.72638011 15.4420556,8.68731761 C15.7154931,8.76544261 15.8717431,8.99981761 15.9498681,9.15606761 C16.1061181,9.50763011 16.1061181,9.93731761 15.9498681,10.2498176 C15.9498681,10.2498176 15.9498681,10.2498176 15.9498681,10.2888801 C15.7154931,10.0545051 15.5592431,9.78106761 15.4029931,9.46856761 C15.3248681,9.19513011 15.2858056,8.99981761 15.3248681,8.84356761 Z M17.7858056,14.5076301 C17.7858056,14.0779426 17.4733056,13.7654426 17.0826806,13.7654426 C16.6529931,13.7654426 16.3404931,14.0779426 16.3404931,14.5076301 C16.3404931,14.8982551 16.6529931,15.2498176 17.0826806,15.2498176 C17.4733056,15.2498176 17.7858056,14.8982551 17.7858056,14.5076301 Z M18.8795556,6.53888011 C18.8795556,6.14825511 18.5670556,5.79669261 18.1373681,5.79669261 C17.7467431,5.79669261 17.4342431,6.14825511 17.4342431,6.53888011 C17.4342431,6.96856761 17.7467431,7.28106761 18.1373681,7.28106761 C18.5670556,7.28106761 18.8795556,6.96856761 18.8795556,6.53888011 Z M20.3639306,5.36700511 C21.2623681,5.36700511 22.0045556,4.62481761 22.0045556,3.72638011 C22.0045556,2.78888011 21.2623681,2.04669261 20.3639306,2.04669261 C19.4264306,2.04669261 18.6842431,2.78888011 18.6842431,3.72638011 C18.6842431,4.62481761 19.4264306,5.36700511 20.3639306,5.36700511 Z M12.5904931,9.07794261 C12.5904931,8.64825511 12.2779931,8.33575511 11.8483056,8.33575511 C11.4576806,8.33575511 11.1451806,8.64825511 11.1451806,9.07794261 C11.1451806,9.46856761 11.4576806,9.82013011 11.8483056,9.82013011 C12.2779931,9.82013011 12.5904931,9.46856761 12.5904931,9.07794261 Z M16.3795556,3.60919261 C16.3795556,3.21856761 16.0670556,2.86700511 15.6764306,2.86700511 C15.2467431,2.86700511 14.9342431,3.21856761 14.9342431,3.60919261 C14.9342431,4.03888011 15.2467431,4.35138011 15.6764306,4.35138011 C16.0670556,4.35138011 16.3795556,4.03888011 16.3795556,3.60919261 Z M11.5748681,6.03106761 L11.8483056,6.03106761 L11.8483056,6.34356761 C11.8483056,6.65606761 12.1217431,6.92950511 12.4342431,6.92950511 C12.7858056,6.92950511 13.0201806,6.65606761 13.0201806,6.34356761 L13.0201806,6.03106761 L13.2936181,6.03106761 C13.6451806,6.03106761 13.8795556,5.79669261 13.8795556,5.44513011 C13.8795556,5.13263011 13.6451806,4.85919261 13.2936181,4.85919261 L13.0201806,4.85919261 L13.0201806,4.58575511 C13.0201806,4.27325511 12.7858056,3.99981761 12.4342431,3.99981761 C12.1217431,3.99981761 11.8483056,4.27325511 11.8483056,4.58575511 L11.8483056,4.85919261 L11.5748681,4.85919261 C11.2623681,4.85919261 10.9889306,5.13263011 10.9889306,5.44513011 C10.9889306,5.79669261 11.2623681,6.03106761 11.5748681,6.03106761 Z M7.94205565,7.43731761 C7.74674315,7.20294261 7.35611815,7.20294261 7.12174315,7.43731761 C6.88736815,7.63263011 6.88736815,8.02325511 7.08268065,8.25763011 L7.31705565,8.49200511 L7.04361815,9.19513011 L11.7701806,19.0779426 L15.7545556,17.6716926 L15.9108056,17.8670051 C16.0279931,17.9841926 16.1842431,18.0623176 16.3404931,18.0623176 C16.4967431,18.0623176 16.6139306,17.9841926 16.7311181,17.9060676 C16.9654931,17.6716926 17.0045556,17.3201301 16.7701806,17.0857551 L7.94205565,7.43731761 Z" id="Shape" fill="#000000" fill-rule="nonzero"></path>
        </g>
    </g>
</svg>