<?xml version="1.0" encoding="UTF-8"?>
<svg width="24px" height="24px" viewBox="0 0 24 24" version="1.1" xmlns="http://www.w3.org/2000/svg" xmlns:xlink="http://www.w3.org/1999/xlink">
    <title>icon-event-faciltiies</title>
    <g id="Icon" stroke="none" stroke-width="1" fill="none" fill-rule="evenodd">
        <g id="icon-event-faciltiies">
            <rect id="Rectangle" x="0" y="0" width="24" height="24"></rect>
            <g id="Group" transform="translate(1.000000, 3.000000)" fill="#000000" fill-rule="nonzero">
                <polygon id="Path" points="5 19 17 19 11 13"></polygon>
                <path d="M20,0 L2,0 C0.9,0 0,0.9 0,2 L0,14 C0,15.1 0.9,16 2,16 L6,16 L6,14 L2,14 L2,2 L20,2 L20,14 L16,14 L16,16 L20,16 C21.1,16 22,15.1 22,14 L22,2 C22,0.9 21.1,0 20,0 Z" id="Path"></path>
            </g>
        </g>
    </g>
</svg>