<?xml version="1.0" encoding="UTF-8"?>
<svg width="24px" height="24px" viewBox="0 0 24 24" version="1.1" xmlns="http://www.w3.org/2000/svg" xmlns:xlink="http://www.w3.org/1999/xlink">
    <title>icon-facebook</title>
    <g id="Icon" stroke="none" stroke-width="1" fill="none" fill-rule="evenodd">
        <g id="24" fill="#000000" fill-rule="nonzero">
            <g id="icon-facebook">
                <path d="M20.0068966,3 L3.99310345,3 C3.44462756,3 3,3.44462756 3,3.99310345 L3,20.0068966 C3,20.5553724 3.44462756,21 3.99310345,21 L12.6206897,21 L12.6206897,14.0389655 L10.2775862,14.0389655 L10.2775862,11.3141379 L12.6206897,11.3141379 L12.6206897,9.30931034 C12.6206897,6.98482759 14.042069,5.71862069 16.1151724,5.71862069 C16.8137815,5.71709716 17.5119873,5.75231822 18.2068966,5.82413793 L18.2068966,8.25413793 L16.7793103,8.25413793 C15.6496552,8.25413793 15.4293103,8.78793103 15.4293103,9.5762069 L15.4293103,11.3110345 L18.1293103,11.3110345 L17.7786207,14.0358621 L15.4137931,14.0358621 L15.4137931,21 L20.0068966,21 C20.5553724,21 21,20.5553724 21,20.0068966 L21,3.99310345 C21,3.44462756 20.5553724,3 20.0068966,3 Z" id="Shape"></path>
            </g>
        </g>
    </g>
</svg>