<?xml version="1.0" encoding="UTF-8"?>
<svg width="24px" height="24px" viewBox="0 0 24 24" version="1.1" xmlns="http://www.w3.org/2000/svg" xmlns:xlink="http://www.w3.org/1999/xlink">
    <title>icon-flat</title>
    <g id="Icon" stroke="none" stroke-width="1" fill="none" fill-rule="evenodd">
        <g id="icon-flat">
            <polygon id="Path" points="0 0 24 0 24 24 0 24"></polygon>
            <path d="M3.9921875,2 L20.0078125,2 C21.1015625,2 22,2.8984375 22,3.9921875 L22,20.0078125 C22,21.1015625 21.1015625,22 20.0078125,22 L3.9921875,22 C2.8984375,22 2,21.1015625 2,20.0078125 L2,3.9921875 C2,2.8984375 2.8984375,2 3.9921875,2 Z M14.6953125,17.7421875 L17.078125,17.7421875 L13.4453125,5.984375 L10.671875,5.984375 L7,17.7421875 L9.34375,17.7421875 L10.046875,15.0078125 L13.953125,15.0078125 L14.6953125,17.7421875 Z M10.515625,13.328125 L12,7.703125 L13.484375,13.328125 L10.515625,13.328125 Z" id="Shape" fill="#000000" fill-rule="nonzero"></path>
        </g>
    </g>
</svg>