<?xml version="1.0" encoding="UTF-8"?>
<svg width="24px" height="24px" viewBox="0 0 24 24" version="1.1" xmlns="http://www.w3.org/2000/svg" xmlns:xlink="http://www.w3.org/1999/xlink">
    <title>icon-gay-friendly</title>
    <g id="Icon" stroke="none" stroke-width="1" fill="none" fill-rule="evenodd">
        <g id="icon-gay-friendly">
            <polygon id="Path" points="0 0 24 0 24 24 0 24"></polygon>
            <path d="M6.95853599,13.3748176 L4.61478599,13.3748176 L4.61478599,22.0466926 L7.70072349,22.0466926 L7.70072349,13.4529426 C7.42728599,13.4138801 7.19291099,13.3748176 6.95853599,13.3748176 Z M11.5288485,7.32013011 C10.5132235,6.30450511 9.14603599,5.75763011 7.70072349,5.75763011 L4.61478599,5.75763011 L4.61478599,8.53106761 L7.27103599,8.53106761 C9.02884849,8.53106761 10.708536,9.19513011 11.958536,10.4451301 C12.974161,11.4998176 14.3413485,12.0466926 15.786661,12.0466926 L20.317911,12.0466926 L20.317911,9.27325511 L16.2163485,9.27325511 C14.458536,9.27325511 12.7788485,8.57013011 11.5288485,7.32013011 Z M13.4038485,3.99981761 C12.1538485,2.74981761 10.474161,2.04669261 8.71634849,2.04669261 L4.61478599,2.04669261 L4.61478599,4.58575511 L7.70072349,4.58575511 C9.45853599,4.58575511 11.099161,5.24981761 12.349161,6.49981761 C13.4038485,7.55450511 14.771036,8.10138011 16.2163485,8.10138011 L20.317911,8.10138011 L20.317911,5.56231761 L17.2319735,5.56231761 C15.786661,5.56231761 14.4194735,5.01544261 13.4038485,3.99981761 Z M6.95853599,12.2029426 C8.40384849,12.2029426 9.77103599,12.7888801 10.786661,13.8045051 C12.036661,15.0545051 13.7163485,15.7576301 15.474161,15.7576301 L20.317911,15.7576301 L20.317911,13.2185676 L15.786661,13.2185676 C14.0288485,13.2185676 12.349161,12.5154426 11.099161,11.2654426 C10.083536,10.2498176 8.71634849,9.70294261 7.27103599,9.70294261 L4.61478599,9.70294261 L4.61478599,12.2029426 L6.95853599,12.2029426 Z" id="Shape" fill="#000000" fill-rule="nonzero"></path>
        </g>
    </g>
</svg>