<?xml version="1.0" encoding="UTF-8"?>
<svg width="24px" height="24px" viewBox="0 0 24 24" version="1.1" xmlns="http://www.w3.org/2000/svg" xmlns:xlink="http://www.w3.org/1999/xlink">
    <title>icon-gear</title>
    <g id="Icon" stroke="none" stroke-width="1" fill="none" fill-rule="evenodd">
        <g id="icon-gear">
            <polygon id="Path" points="0 0 24 0 24 24 0 24"></polygon>
            <path d="M20,2 C21.1045695,2 22,2.8954305 22,4 L22,20 C22,21.1045695 21.1045695,22 20,22 L4,22 C2.8954305,22 2,21.1045695 2,20 L2,4 C2,2.8954305 2.8954305,2 4,2 L20,2 Z M9.91304348,6 L6.95652174,6 L6,18.0173913 L8.22608696,18.0173913 L8.52173913,13.0608696 C8.5913047,11.9478205 8.62608696,10.8637734 8.62608696,9.80869565 C8.62608696,9.41449078 8.61449287,8.83478643 8.59130435,8.06956522 L8.59130435,8.06956522 L10.9217391,16.7130435 L13.0956522,16.7130435 L15.2869565,8.08695652 L15.2869565,8.71304348 C15.2869565,9.76812122 15.3391299,11.1941939 15.4434783,12.9913043 L15.4434783,12.9913043 L15.7565217,18.0173913 L18,18.0173913 L17.0608696,6 L14.0695652,6 L12.0521739,14.4173913 L9.91304348,6 Z" id="Combined-Shape" fill="#000000"></path>
        </g>
    </g>
</svg>