<?xml version="1.0" encoding="UTF-8"?>
<svg width="24px" height="24px" viewBox="0 0 24 24" version="1.1" xmlns="http://www.w3.org/2000/svg" xmlns:xlink="http://www.w3.org/1999/xlink">
    <title>icon-golf</title>
    <g id="Icon" stroke="none" stroke-width="1" fill="none" fill-rule="evenodd">
        <g id="icon-golf">
            <polygon id="Path" points="0 0 24 0 24 24 0 24"></polygon>
            <path d="M9,2 L17,5.92 L11,8.98 L11,18.03 C13.84,18.19 16,19.01 16,20 C16,21.1 13.31,22 10,22 C6.69,22 4,21.1 4,20 C4,19.26 5.21,18.62 7,18.27 L7,18.27 L7,20 L9,20 L9,2 Z M19.5,18 C20.3284271,18 21,18.6715729 21,19.5 C21,20.3284271 20.3284271,21 19.5,21 C18.6715729,21 18,20.3284271 18,19.5 C18,18.6715729 18.6715729,18 19.5,18 Z" id="Combined-Shape" fill="#000000" fill-rule="nonzero"></path>
        </g>
    </g>
</svg>