<?xml version="1.0" encoding="UTF-8"?>
<svg width="24px" height="24px" viewBox="0 0 24 24" version="1.1" xmlns="http://www.w3.org/2000/svg" xmlns:xlink="http://www.w3.org/1999/xlink">
    <title>icon-hairdryer</title>
    <g id="Icon" stroke="none" stroke-width="1" fill="none" fill-rule="evenodd">
        <g id="icon-hairdryer">
            <rect id="Bg" x="0" y="0" width="24" height="24"></rect>
            <path d="M8.640625,19.8515625 C8.640625,21.0234375 9.578125,22 10.7890625,22 L11.84375,22 C13.015625,22 13.9921875,21.0234375 13.9921875,19.8515625 L13.9921875,16.375 C13.9921875,16.0625 14.2265625,15.7890625 14.578125,15.7890625 L15.828125,15.7890625 L15.828125,14.6171875 L14.578125,14.6171875 C13.6015625,14.6171875 12.8203125,15.3984375 12.8203125,16.375 L12.8203125,19.8515625 C12.8203125,20.3984375 12.3515625,20.828125 11.84375,20.828125 L10.7890625,20.828125 C10.2421875,20.828125 9.8125,20.3984375 9.8125,19.8515625 L9.8125,18.640625 L8.640625,18.640625 L8.640625,19.8515625 Z M9.3828125,13.5234375 C8.71875,13.71875 8.0546875,13.8359375 7.3515625,13.8359375 C6.9609375,13.8359375 6.5703125,13.796875 6.1796875,13.71875 L7.3515625,16.9609375 C7.46875,17.2734375 7.78125,17.46875 8.09375,17.46875 L10.203125,17.46875 C10.75,17.46875 11.1015625,16.921875 10.9453125,16.4140625 L9.8125,13.3671875 L9.3828125,13.5234375 Z M21.4140625,14.6171875 C21.7265625,14.6171875 22,14.34375 22,14.03125 C22,13.71875 21.7265625,13.4453125 21.4140625,13.4453125 L20.515625,13.4453125 L20.515625,14.6171875 L21.4140625,14.6171875 Z M21.4140625,16.9609375 C21.7265625,16.9609375 22,16.6875 22,16.375 C22,16.0625 21.7265625,15.7890625 21.4140625,15.7890625 L20.515625,15.7890625 L20.515625,16.9609375 L21.4140625,16.9609375 Z M17.1953125,9.7734375 L17.1953125,4.890625 L9.03125,2.2734375 C8.484375,2.078125 7.8984375,2 7.3515625,2 C4.578125,2 2.078125,4.2265625 2,7.1953125 C2,7.234375 2,7.2734375 2,7.3125 C2,7.390625 2,7.4296875 2,7.46875 C2.078125,10.4375 4.578125,12.6640625 7.3515625,12.6640625 C7.8984375,12.6640625 8.484375,12.5859375 9.03125,12.390625 L17.1953125,9.7734375 Z M7.546875,4.578125 C9.0703125,4.578125 10.28125,5.828125 10.28125,7.3125 C10.28125,8.8359375 9.0703125,10.046875 7.546875,10.046875 C6.0234375,10.046875 4.8125,8.8359375 4.8125,7.3125 C4.8125,5.828125 6.0234375,4.578125 7.546875,4.578125 Z M21.5703125,3.9921875 C21.53125,3.9921875 21.4921875,3.9921875 21.453125,4.03125 L18.3671875,4.9296875 L18.3671875,9.734375 L21.453125,10.6328125 C21.4921875,10.671875 21.53125,10.671875 21.5703125,10.671875 C21.8046875,10.671875 22,10.4765625 22,10.2421875 L22,4.421875 C22,4.1875 21.8046875,3.9921875 21.5703125,3.9921875 Z M9.109375,7.3125 C9.109375,8.2109375 8.40625,8.875 7.546875,8.875 C6.6875,8.875 5.984375,8.2109375 5.984375,7.3125 C5.984375,6.453125 6.6875,5.75 7.546875,5.75 C8.40625,5.75 9.109375,6.453125 9.109375,7.3125 Z M17,16.375 C17,16.8046875 17.3515625,17.15625 17.78125,17.15625 L19.34375,17.15625 L19.34375,13.25 L17.78125,13.25 C17.3515625,13.25 17,13.6015625 17,14.03125 L17,16.375 Z" id="Shape" fill="#000000" fill-rule="nonzero"></path>
        </g>
    </g>
</svg>