<?xml version="1.0" encoding="UTF-8"?>
<svg width="24px" height="24px" viewBox="0 0 24 24" version="1.1" xmlns="http://www.w3.org/2000/svg" xmlns:xlink="http://www.w3.org/1999/xlink">
    <title>icon-heating</title>
    <g id="Icon" stroke="none" stroke-width="1" fill="none" fill-rule="evenodd">
        <g id="icon-heating">
            <rect id="Bg" x="0" y="0" width="24" height="24"></rect>
            <path d="M12.7341014,22.0466926 C12.1481639,22.0466926 11.6012889,21.9295051 11.0544139,21.6951301 C10.5466014,21.4998176 10.0778514,21.1873176 9.68722641,20.7966926 C9.29660141,20.4060676 8.98410141,19.9373176 8.78878891,19.4295051 C8.55441391,18.9216926 8.43722641,18.3357551 8.43722641,17.7498176 C8.43722641,17.0857551 8.63253891,16.3826301 8.94503891,15.7966926 C9.17941391,15.2888801 9.57003891,14.8201301 10.0387889,14.4295051 L10.0387889,4.07794261 C10.0387889,2.94513011 10.9372264,2.04669261 12.0700389,2.04669261 L13.3981639,2.04669261 C14.4919139,2.04669261 15.4294139,2.94513011 15.4294139,4.07794261 L15.4294139,14.4295051 C15.8981639,14.8201301 16.2497264,15.2888801 16.5231639,15.7966926 C16.8356639,16.3826301 16.9919139,17.0857551 16.9919139,17.7498176 C16.9919139,18.3357551 16.9137889,18.9216926 16.6794139,19.4295051 C16.4450389,19.9373176 16.1325389,20.4060676 15.7419139,20.7966926 C15.3512889,21.1873176 14.9216014,21.4998176 14.4137889,21.6951301 C13.8669139,21.9295051 13.3200389,22.0466926 12.7341014,22.0466926 Z M12.0700389,2.90606761 C11.4059764,2.90606761 10.8591014,3.41388011 10.8591014,4.07794261 L10.8591014,14.6638801 C10.8591014,14.7810676 10.8200389,14.8982551 10.7028514,14.9763801 C9.80441391,15.6404426 9.29660141,16.6560676 9.29660141,17.7498176 C9.29660141,19.6638801 10.8200389,21.1873176 12.7341014,21.1873176 C14.6091014,21.1873176 16.1716014,19.6638801 16.1716014,17.7498176 C16.1716014,16.6560676 15.6247264,15.6404426 14.7653514,14.9763801 C14.6481639,14.8982551 14.5700389,14.7810676 14.5700389,14.6638801 L14.5700389,4.07794261 C14.5700389,3.41388011 14.0622264,2.90606761 13.3981639,2.90606761 L12.0700389,2.90606761 Z M13.6325389,15.3279426 L13.6325389,6.14825511 C13.6325389,5.79669261 13.3200389,5.48419261 12.9684764,5.48419261 L12.4997264,5.48419261 C12.1481639,5.48419261 11.8356639,5.79669261 11.8356639,6.14825511 L11.8356639,15.3279426 C10.8200389,15.6795051 10.1169139,16.6560676 10.1169139,17.7498176 C10.1169139,19.1951301 11.2887889,20.3670051 12.7341014,20.3670051 C14.1794139,20.3670051 15.3512889,19.1951301 15.3512889,17.7498176 C15.3512889,16.6560676 14.6091014,15.6795051 13.6325389,15.3279426 Z M12.1481639,16.9685676 C11.9528514,17.1248176 11.8356639,17.3591926 11.7966014,17.6326301 C11.7575389,17.7498176 11.7575389,17.8670051 11.7966014,18.0232551 C11.8356639,18.1795051 11.7184764,18.3748176 11.5231639,18.3748176 C11.5231639,18.4138801 11.4841014,18.4138801 11.4841014,18.4138801 C11.3278514,18.4138801 11.2106639,18.2966926 11.1716014,18.1404426 C11.1325389,17.9451301 11.1325389,17.7107551 11.1716014,17.5154426 C11.2106639,17.1248176 11.4450389,16.7341926 11.7184764,16.4998176 C11.8747264,16.3826301 12.0700389,16.3826301 12.1872264,16.4998176 C12.3044139,16.6560676 12.2653514,16.8513801 12.1481639,16.9685676 Z M8.43722641,5.13263011 C8.43722641,5.32794261 8.28097641,5.44513011 8.12472641,5.44513011 L7.38253891,5.44513011 C7.22628891,5.44513011 7.07003891,5.32794261 7.07003891,5.13263011 L7.07003891,4.74200511 C7.07003891,4.54669261 7.22628891,4.39044261 7.38253891,4.39044261 L8.12472641,4.39044261 C8.28097641,4.39044261 8.43722641,4.54669261 8.43722641,4.74200511 L8.43722641,5.13263011 Z M8.43722641,7.35919261 C8.43722641,7.55450511 8.28097641,7.71075511 8.12472641,7.71075511 L7.38253891,7.71075511 C7.22628891,7.71075511 7.07003891,7.55450511 7.07003891,7.35919261 L7.07003891,7.00763011 C7.07003891,6.81231761 7.22628891,6.65606761 7.38253891,6.65606761 L8.12472641,6.65606761 C8.28097641,6.65606761 8.43722641,6.81231761 8.43722641,7.00763011 L8.43722641,7.35919261 Z M8.43722641,9.62481761 C8.43722641,9.78106761 8.28097641,9.93731761 8.12472641,9.93731761 L7.38253891,9.93731761 C7.22628891,9.93731761 7.07003891,9.78106761 7.07003891,9.62481761 L7.07003891,9.23419261 C7.07003891,9.03888011 7.22628891,8.88263011 7.38253891,8.88263011 L8.12472641,8.88263011 C8.28097641,8.88263011 8.43722641,9.03888011 8.43722641,9.23419261 L8.43722641,9.62481761 Z M8.43722641,11.8513801 C8.43722641,12.0466926 8.28097641,12.2029426 8.12472641,12.2029426 L7.38253891,12.2029426 C7.22628891,12.2029426 7.07003891,12.0466926 7.07003891,11.8513801 L7.07003891,11.4607551 C7.07003891,11.3045051 7.22628891,11.1482551 7.38253891,11.1482551 L8.12472641,11.1482551 C8.28097641,11.1482551 8.43722641,11.3045051 8.43722641,11.4607551 L8.43722641,11.8513801 Z M8.43722641,14.1170051 C8.43722641,14.2732551 8.28097641,14.4295051 8.12472641,14.4295051 L7.38253891,14.4295051 C7.22628891,14.4295051 7.07003891,14.2732551 7.07003891,14.1170051 L7.07003891,13.7263801 C7.07003891,13.5310676 7.22628891,13.3748176 7.38253891,13.3748176 L8.12472641,13.3748176 C8.28097641,13.3748176 8.43722641,13.5310676 8.43722641,13.7263801 L8.43722641,14.1170051 Z" id="Shape" fill="#000000" fill-rule="nonzero"></path>
        </g>
    </g>
</svg>