<?xml version="1.0" encoding="UTF-8"?>
<svg width="24px" height="24px" viewBox="0 0 24 24" version="1.1" xmlns="http://www.w3.org/2000/svg" xmlns:xlink="http://www.w3.org/1999/xlink">
    <title>icon-horse-riding</title>
    <g id="Icon" stroke="none" stroke-width="1" fill="none" fill-rule="evenodd">
        <g id="icon-horse-riding">
            <rect id="Bg" x="0" y="0" width="24" height="24"></rect>
            <path d="M19.2890017,19.5857551 C17.7265017,19.0388801 16.2030642,18.3357551 14.7577517,17.4763801 C12.8046267,16.3045051 12.3749392,15.5623176 12.3749392,15.3670051 C12.3749392,13.7654426 13.1952517,3.88263011 13.1952517,3.76544261 C13.1952517,3.53106761 13.1171267,3.33575511 12.9608767,3.14044261 C12.8046267,2.98419261 12.6093142,2.86700511 12.3749392,2.86700511 L11.1249392,2.86700511 L11.1249392,4.54669261 C11.1249392,5.91388011 9.9921267,7.04669261 8.6249392,7.04669261 C7.2186892,7.04669261 6.1249392,5.91388011 6.1249392,4.54669261 L6.1249392,2.86700511 L4.8749392,2.86700511 C4.6405642,2.86700511 4.4061892,2.98419261 4.2499392,3.14044261 C4.0936892,3.33575511 4.0155642,3.57013011 4.0155642,3.80450511 C4.5624392,8.72638011 5.0311892,14.1951301 4.9140017,15.0935676 C4.3671267,16.2263801 4.0546267,17.4373176 4.0155642,18.7263801 L4.0155642,21.2263801 C4.0155642,21.6560676 4.4061892,22.0466926 4.8749392,22.0466926 L8.1952517,22.0466926 C8.5077517,22.0466926 8.7811892,21.8904426 8.9374392,21.6170051 L9.2499392,20.9920051 L10.1093142,21.8123176 C10.2655642,21.9685676 10.4999392,22.0466926 10.6952517,22.0466926 L19.0155642,22.0466926 C19.4843142,22.0466926 19.8749392,21.6560676 19.8749392,21.2263801 L19.8749392,20.3670051 C19.8749392,20.0154426 19.6405642,19.7029426 19.2890017,19.5857551 Z M8.6249392,6.22638011 C9.5233767,6.22638011 10.2655642,5.48419261 10.2655642,4.54669261 L10.2655642,2.47638011 C10.2655642,2.24200511 10.1093142,2.04669261 9.8749392,2.04669261 L7.3749392,2.04669261 C7.1405642,2.04669261 6.9452517,2.24200511 6.9452517,2.47638011 L6.9452517,4.54669261 C6.9452517,5.48419261 7.6874392,6.22638011 8.6249392,6.22638011 Z M8.6249392,3.72638011 C9.0546267,3.72638011 9.4452517,4.07794261 9.4452517,4.54669261 C9.4452517,5.01544261 9.0546267,5.36700511 8.6249392,5.36700511 C8.1561892,5.36700511 7.7655642,5.01544261 7.7655642,4.54669261 C7.7655642,4.07794261 8.1561892,3.72638011 8.6249392,3.72638011 Z" id="Shape" fill="#000000" fill-rule="nonzero"></path>
        </g>
    </g>
</svg>