<?xml version="1.0" encoding="UTF-8"?>
<svg width="24px" height="24px" viewBox="0 0 24 24" version="1.1" xmlns="http://www.w3.org/2000/svg" xmlns:xlink="http://www.w3.org/1999/xlink">
    <title>icon-kids-friendly</title>
    <g id="Icon" stroke="none" stroke-width="1" fill="none" fill-rule="evenodd">
        <g id="icon-kids-friendly">
            <rect id="Rectangle" x="0" y="0" width="24" height="24"></rect>
            <g id="Group" transform="translate(4.000000, 18.000000)" fill="#000000" fill-rule="nonzero">
                <circle id="Oval" cx="12" cy="2" r="2"></circle>
                <circle id="Oval" cx="2" cy="2" r="2"></circle>
            </g>
            <path d="M22,7 L22,6.48 C22,4.56 20.52,3 18.65,3 C16.99,3 16.11,4.27 15.47,5.03 L6.67,15.35 C6.12,16 6.58,17 7.43,17 L15,17 C16.1,17 17,16.1 17,15 L17,6.27 C17.58,5.59 17.97,5 18.65,5 C19.42,5 20,5.66 20,6.48 L20,7 L22,7 Z" id="Path" fill="#000000" fill-rule="nonzero"></path>
            <path d="M14.3,4.1 C13.03,3.4 11.56,3 10,3 C8.03,3 6.21,3.64 4.72,4.72 L9.61,9.61 L14.3,4.1 Z" id="Path" fill="#000000" fill-rule="nonzero"></path>
        </g>
    </g>
</svg>