<?xml version="1.0" encoding="UTF-8"?>
<svg width="24px" height="24px" viewBox="0 0 24 24" version="1.1" xmlns="http://www.w3.org/2000/svg" xmlns:xlink="http://www.w3.org/1999/xlink">
    <title>icon-kids-friendly-1</title>
    <g id="Icon" stroke="none" stroke-width="1" fill="none" fill-rule="evenodd">
        <g id="icon-kids-friendly-1">
            <polygon id="Path" points="0 0 24 0 24 24 0 24"></polygon>
            <path d="M16.7189165,11.7732551 C17.617354,10.7966926 18.164229,9.50763011 18.164229,8.10138011 C18.164229,7.39825511 18.0470415,6.73419261 17.773604,6.10919261 C18.554854,5.79669261 19.101729,5.05450511 19.101729,4.15606761 C19.101729,2.98419261 18.1251665,2.04669261 16.9532915,2.04669261 C16.132979,2.04669261 15.3907915,2.55450511 15.039229,3.25763011 C14.257979,2.86700511 13.3595415,2.67169261 12.4220415,2.67169261 C11.4845415,2.67169261 10.586104,2.86700511 9.804854,3.25763011 C9.4532915,2.55450511 8.711104,2.04669261 7.8907915,2.04669261 C6.7189165,2.04669261 5.742354,2.98419261 5.742354,4.15606761 C5.742354,5.05450511 6.289229,5.79669261 7.070479,6.10919261 C6.7970415,6.73419261 6.679854,7.39825511 6.679854,8.10138011 C6.679854,9.50763011 7.226729,10.7966926 8.1251665,11.7732551 C6.523604,13.2966926 3.945479,15.7185676 4.570479,18.1795051 C4.8439165,19.3123176 5.586104,19.7810676 6.367354,19.8201301 C6.4064165,18.3748176 7.5001665,17.2029426 8.789229,17.2029426 C10.117354,17.2029426 11.211104,18.4138801 11.211104,19.9373176 C11.211104,20.7966926 10.8595415,21.5388801 10.3126665,22.0466926 C11.2501665,22.0466926 12.304854,22.0466926 12.4220415,22.0466926 C12.6564165,22.0466926 13.632979,22.0466926 14.5314165,22.0466926 C13.9845415,21.5388801 13.632979,20.7966926 13.632979,19.9373176 C13.632979,18.4138801 14.726729,17.2029426 16.054854,17.2029426 C17.3439165,17.2029426 18.4376665,18.3748176 18.476729,19.8201301 C19.257979,19.7810676 20.0001665,19.3123176 20.273604,18.1795051 C20.898604,15.7185676 18.320479,13.2966926 16.7189165,11.7732551 Z M7.6564165,5.05450511 C7.2657915,4.93731761 6.9532915,4.58575511 6.9532915,4.15606761 C6.9532915,3.64825511 7.382979,3.25763011 7.8907915,3.25763011 C8.2814165,3.25763011 8.632979,3.53106761 8.7501665,3.92169261 C8.320479,4.23419261 7.9689165,4.62481761 7.6564165,5.05450511 Z M14.8439165,7.67169261 C15.0782915,7.67169261 15.3126665,7.86700511 15.3126665,8.10138011 C15.3126665,8.37481761 15.0782915,8.57013011 14.8439165,8.57013011 C14.6095415,8.57013011 14.3751665,8.37481761 14.3751665,8.10138011 C14.3751665,7.86700511 14.6095415,7.67169261 14.8439165,7.67169261 Z M10.0001665,7.67169261 C10.2345415,7.67169261 10.4689165,7.86700511 10.4689165,8.10138011 C10.4689165,8.37481761 10.2345415,8.57013011 10.0001665,8.57013011 C9.7657915,8.57013011 9.5314165,8.37481761 9.5314165,8.10138011 C9.5314165,7.86700511 9.7657915,7.67169261 10.0001665,7.67169261 Z M12.4220415,13.5701301 C10.429854,13.5701301 8.789229,12.4763801 8.789229,11.1482551 C8.789229,9.78106761 10.429854,8.72638011 12.4220415,8.72638011 C14.414229,8.72638011 16.054854,9.78106761 16.054854,11.1482551 C16.054854,12.4763801 14.414229,13.5701301 12.4220415,13.5701301 Z M16.0939165,3.92169261 C16.211104,3.53106761 16.5626665,3.25763011 16.9532915,3.25763011 C17.461104,3.25763011 17.8907915,3.64825511 17.8907915,4.15606761 C17.8907915,4.58575511 17.5782915,4.93731761 17.1876665,5.05450511 C16.8751665,4.62481761 16.523604,4.23419261 16.0939165,3.92169261 Z M9.804854,20.0935676 C9.804854,20.6795051 9.336104,21.1482551 8.7501665,21.1482551 C8.164229,21.1482551 7.695479,20.6795051 7.695479,20.0935676 C7.695479,19.5076301 8.164229,18.9998176 8.7501665,18.9998176 C9.336104,18.9998176 9.804854,19.5076301 9.804854,20.0935676 Z M17.148604,20.0935676 C17.148604,20.6795051 16.679854,21.1482551 16.0939165,21.1482551 C15.507979,21.1482551 15.039229,20.6795051 15.039229,20.0935676 C15.039229,19.5076301 15.507979,18.9998176 16.0939165,18.9998176 C16.679854,18.9998176 17.148604,19.5076301 17.148604,20.0935676 Z M12.4220415,9.93731761 C11.757979,9.93731761 11.211104,10.0154426 11.211104,10.5232551 C11.211104,11.0701301 11.757979,11.7341926 12.4220415,11.7341926 C13.086104,11.7341926 13.632979,11.0701301 13.632979,10.5232551 C13.632979,10.0154426 13.086104,9.93731761 12.4220415,9.93731761 Z" id="Shape" fill="#000000" fill-rule="nonzero"></path>
        </g>
    </g>
</svg>