<?xml version="1.0" encoding="UTF-8"?>
<svg width="24px" height="24px" viewBox="0 0 24 24" version="1.1" xmlns="http://www.w3.org/2000/svg" xmlns:xlink="http://www.w3.org/1999/xlink">
    <title>icon-kitchenette</title>
    <g id="Icon" stroke="none" stroke-width="1" fill="none" fill-rule="evenodd">
        <g id="icon-kitchenette">
            <rect id="Rectangle" x="0" y="0" width="24" height="24"></rect>
            <path d="M18,10 L18,7 C18,5.34 16.66,4 15,4 C13.34,4 12,5.34 12,7 L14,7 C14,6.45 14.45,6 15,6 C15.55,6 16,6.45 16,7 L16,10 L8,10 C9.1,10 10,9.1 10,8 L10,4 L4,4 L4,8 C4,9.1 4.9,10 6,10 L2,10 L2,12 L4,12 L4,20 L20,20 L20,12 L22,12 L22,10 L18,10 Z M13,18 L11,18 L11,12 L13,12 L13,18 Z" id="Shape" fill="#000000" fill-rule="nonzero"></path>
        </g>
    </g>
</svg>