<?xml version="1.0" encoding="UTF-8"?>
<svg width="24px" height="24px" viewBox="0 0 24 24" version="1.1" xmlns="http://www.w3.org/2000/svg" xmlns:xlink="http://www.w3.org/1999/xlink">
    <title>icon-laundry</title>
    <g id="Icon" stroke="none" stroke-width="1" fill="none" fill-rule="evenodd">
        <g id="icon-laundry">
            <rect id="Bg" x="0" y="0" width="24" height="24"></rect>
            <path d="M21.6,18.2 L13,11.75 L13,10.84 C14.65,10.35 15.8,8.67 15.43,6.79 C15.17,5.48 14.13,4.39 12.82,4.09 C10.54,3.57 8.5,5.3 8.5,7.5 L10.5,7.5 C10.5,6.67 11.17,6 12,6 C12.83,6 13.5,6.67 13.5,7.5 C13.5,8.34 12.81,9.02 11.97,9 C11.43,8.99 11,9.45 11,9.99 L11,11.75 L2.4,18.2 C1.63,18.78 2.04,20 3,20 L12,20 L21,20 C21.96,20 22.37,18.78 21.6,18.2 Z M6,18 L12,13.5 L18,18 L6,18 Z" id="Shape" fill="#000000" fill-rule="nonzero"></path>
        </g>
    </g>
</svg>