<?xml version="1.0" encoding="UTF-8"?>
<svg width="24px" height="24px" viewBox="0 0 24 24" version="1.1" xmlns="http://www.w3.org/2000/svg" xmlns:xlink="http://www.w3.org/1999/xlink">
    <title>icon-lift</title>
    <g id="Icon" stroke="none" stroke-width="1" fill="none" fill-rule="evenodd">
        <g id="icon-lift">
            <rect id="Bg" x="0" y="0" width="24" height="24"></rect>
            <path d="M19,3 L5,3 C3.9,3 3,3.9 3,5 L3,19 C3,20.1 3.9,21 5,21 L19,21 C20.1,21 21,20.1 21,19 L21,5 C21,3.9 20.1,3 19,3 Z M8.5,6 C9.19,6 9.75,6.56 9.75,7.25 C9.75,7.94 9.19,8.5 8.5,8.5 C7.81,8.5 7.25,7.94 7.25,7.25 C7.25,6.56 7.81,6 8.5,6 Z M11,14 L10,14 L10,18 L7,18 L7,14 L6,14 L6,11.5 C6,10.4 6.9,9.5 8,9.5 L9,9.5 C10.1,9.5 11,10.4 11,11.5 L11,14 Z M15.5,17 L13,13 L18,13 L15.5,17 Z M13,11 L15.5,7 L18,11 L13,11 Z" id="Shape" fill="#000000" fill-rule="nonzero"></path>
        </g>
    </g>
</svg>