<?xml version="1.0" encoding="UTF-8"?>
<svg width="24px" height="24px" viewBox="0 0 24 24" version="1.1" xmlns="http://www.w3.org/2000/svg" xmlns:xlink="http://www.w3.org/1999/xlink">
    <title>icon-linkedin</title>
    <g id="Icon" stroke="none" stroke-width="1" fill="none" fill-rule="evenodd">
        <g id="icon-linkedin">
            <rect id="Bg" x="0" y="0" width="24" height="24"></rect>
            <path d="M5.70520495,17.6788758 L8.3419237,17.6788758 L8.3419237,9.75730519 L5.70520495,9.75730519 L5.70520495,17.6788758 Z M8.5131392,7.31463068 C8.50552959,6.91893065 8.36855856,6.59172207 8.102222,6.33299513 C7.83588544,6.07426819 7.4820436,5.94490666 7.04068588,5.94490666 C6.59932815,5.94490666 6.23977919,6.07426819 5.96202821,6.33299513 C5.68427722,6.59172207 5.54540381,6.91893065 5.54540381,7.31463068 C5.54540381,7.7027211 5.68047247,8.0280273 5.95061384,8.29055905 C6.22075521,8.5530908 6.57269467,8.68435471 7.00644278,8.68435471 L7.01785714,8.68435471 C7.46682449,8.68435471 7.82827582,8.5530908 8.102222,8.29055905 C8.37616817,8.0280273 8.5131392,7.7027211 8.5131392,7.31463068 Z M12.428267,10.8740292 L12.428267,10.9101562 L12.4054383,10.9101562 C12.4130034,10.8980313 12.420613,10.885989 12.428267,10.8740292 L12.428267,10.8740292 Z M19,3 C20.1045695,3 21,3.8954305 21,5 L21,19 C21,20.1045695 20.1045695,21 19,21 L5,21 C3.8954305,21 3,20.1045695 3,19 L3,5 C3,3.8954305 3.8954305,3 5,3 L19,3 Z M14.791041,9.57467532 C13.7702271,9.57467532 12.9826435,10.007789 12.428267,10.8740292 L12.428267,9.75730519 L9.7915483,9.75730519 C9.80133209,9.97254862 9.80692283,10.5805341 9.80832051,11.581268 L9.80832051,12.7129181 C9.80692283,13.9754849 9.80133209,15.630802 9.7915483,17.6788758 L12.428267,17.6788758 L12.428267,13.2501015 C12.428267,12.9609361 12.4549003,12.74787 12.5081676,12.6108969 C12.6223119,12.3445604 12.7935256,12.1181777 13.0218141,11.9317421 C13.2501026,11.7453065 13.5316542,11.6520901 13.8664773,11.6520901 C14.7491927,11.6520901 15.1905438,12.249436 15.1905438,13.4441457 L15.1905438,17.6788758 L17.8272626,17.6788758 L17.8272626,13.1359578 C17.8272626,11.9640769 17.5495158,11.07757 16.9940138,10.4764103 C16.4385118,9.87525065 15.7041949,9.57467532 14.791041,9.57467532 Z" id="LinkedIn-Icon" fill="#000000"></path>
        </g>
    </g>
</svg>