<?xml version="1.0" encoding="UTF-8"?>
<svg width="24px" height="24px" viewBox="0 0 24 24" version="1.1" xmlns="http://www.w3.org/2000/svg" xmlns:xlink="http://www.w3.org/1999/xlink">
    <title>icon-menu</title>
    <g id="Icon" stroke="none" stroke-width="1" fill="none" fill-rule="evenodd">
        <g id="icon-menu">
            <rect id="Bg" x="0" y="0" width="24" height="24"></rect>
            <path d="M17.5,4.5 C18.67,4.5 19.89,4.65 21,5 C21.75,5.25 22.4,5.55 23,6 L23,6 L23,20.6 C23,20.85 22.75,21.1 22.5,21.1 C22.4,21.1 22.35,21.1 22.25,21.05 C20.85,20.3 19.15,20 17.5,20 C15.8,20 13.35,20.65 12,21.5 C10.55,20.4 8.45,20 6.5,20 C5.05,20 3.1,20.45 1.75,21.1 C1.65,21.1 1.6,21.15 1.5,21.15 C1.25,21.15 1,20.9 1,20.65 L1,20.65 L1,6 C2.45,4.9 4.55,4.5 6.5,4.5 C8.45,4.5 10.55,4.9 12,6 C13.45,4.9 15.55,4.5 17.5,4.5 Z M17.5,6.5 C15.8,6.5 13.35,7.15 12,8 L12,8 L12,19.5 C13.35,18.65 15.8,18 17.5,18 C18.7,18 19.9,18.15 21,18.5 L21,18.5 L21,7 C19.9,6.65 18.7,6.5 17.5,6.5 Z M17.5,14.33 C18.2166667,14.33 18.9263889,14.3855556 19.6002315,14.4966667 L20,14.57 L20,16.09 C19.23,15.92 18.38,15.83 17.5,15.83 C15.82,15.83 14.3403556,16.1348889 13.2318044,16.6958844 L13,16.82 L13,15.16 C14.26,14.62 15.8,14.33 17.5,14.33 Z M17.5,11.66 C18.2166667,11.66 18.9263889,11.7225 19.6002315,11.8301389 L20,11.9 L20,13.42 C19.23,13.25 18.38,13.16 17.5,13.16 C15.82,13.16 14.3403556,13.4648889 13.2318044,14.0258844 L13,14.15 L13,12.49 C14.26,11.96 15.8,11.66 17.5,11.66 Z M17.5,9 C18.2166667,9 18.9263889,9.0625 19.6002315,9.17013889 L20,9.24 L20,10.76 C19.23,10.59 18.38,10.5 17.5,10.5 C15.82,10.5 14.3403556,10.8048889 13.2318044,11.3658844 L13,11.49 L13,9.83 C14.26,9.29 15.8,9 17.5,9 Z" id="Combined-Shape" fill="#000000" fill-rule="nonzero"></path>
        </g>
    </g>
</svg>