<?xml version="1.0" encoding="UTF-8"?>
<svg width="24px" height="24px" viewBox="0 0 24 24" version="1.1" xmlns="http://www.w3.org/2000/svg" xmlns:xlink="http://www.w3.org/1999/xlink">
    <title>icon-minibar</title>
    <g id="Icon" stroke="none" stroke-width="1" fill="none" fill-rule="evenodd">
        <g id="icon-minibar">
            <rect id="Bg" x="0" y="0" width="24" height="24"></rect>
            <path d="M21.5591522,5.5998841 L20.1974501,5.5998841 L20.1974501,2.87647984 C20.1974501,1.85520325 19.3889395,1.04669261 18.3676629,1.04669261 L17.0059608,1.04669261 C16.7506416,1.04669261 16.5804288,1.25945856 16.5804288,1.51477771 L16.5804288,2.19562878 C16.2825565,2.0679692 15.9846842,1.94030963 15.6442586,1.94030963 L3.85702459,1.94030963 C2.83574799,1.94030963 2.02723735,2.74882027 2.02723735,3.77009686 L2.02723735,20.1105224 C2.02723735,21.131799 2.83574799,21.9403096 3.85702459,21.9403096 L15.6442586,21.9403096 C15.9846842,21.9403096 16.2825565,21.8126501 16.5804288,21.6849905 L16.5804288,22.3658415 C16.5804288,22.6211607 16.7506416,22.8339266 17.0059608,22.8339266 L18.3676629,22.8339266 C19.3889395,22.8339266 20.1974501,22.025416 20.1974501,21.0041394 L20.1974501,14.6637139 L21.5591522,14.6637139 C21.8144714,14.6637139 22.0272374,14.4509479 22.0272374,14.1956288 L22.0272374,6.02541601 C22.0272374,5.77009686 21.8144714,5.5998841 21.5591522,5.5998841 Z M14.7506416,19.2169054 L4.75064161,19.2169054 L4.75064161,4.66371388 L14.7506416,4.66371388 L14.7506416,19.2169054 Z M21.0910671,13.7700969 L20.1974501,13.7700969 L20.1974501,6.49350112 L21.0910671,6.49350112 L21.0910671,13.7700969 Z M6.11234374,18.2807352 L7.47404586,18.2807352 C7.72936501,18.2807352 7.94213097,18.1105224 7.94213097,17.8552032 L7.94213097,17.3871181 C7.94213097,16.7913735 8.11234374,16.3658415 8.2825565,16.025416 L8.2825565,16.025416 C8.36766289,15.8126501 8.41021608,15.6849905 8.41021608,15.4722245 C8.41021608,15.2594586 8.41021608,15.131799 8.2825565,14.8339266 C8.15489693,14.3232884 7.94213097,13.7275437 7.94213097,12.6211607 C7.94213097,11.4296713 8.49532246,10.4509479 8.83574799,9.81265005 L8.96340757,9.5998841 C9.00596076,9.51477771 9.04851395,9.38711814 9.00596076,9.25945856 C8.92085438,8.91903303 8.92085438,8.5786075 8.92085438,8.32328835 C8.92085438,8.23818197 8.92085438,8.0679692 8.96340757,7.98286282 C9.00596076,7.81265005 8.96340757,7.68499048 8.87830118,7.5573309 C8.7931948,7.47222452 8.66553523,7.38711814 8.53787565,7.38711814 L7.34638629,7.38711814 C7.17617352,7.38711814 7.04851395,7.47222452 6.96340757,7.64243729 L6.70808842,8.0679692 C6.66553523,8.15307559 6.66553523,8.28073516 6.66553523,8.36584154 C6.66553523,8.74882027 6.66553523,9.13179899 6.87830118,9.38711814 C6.7931948,9.64243729 6.62298203,9.94030963 6.45276927,10.2807352 C6.11234374,10.919033 5.68681182,11.6424373 5.68681182,12.6211607 C5.68681182,13.5998841 5.85702459,14.1105224 5.98468416,14.5786075 C6.06979055,14.8764798 6.15489693,15.131799 6.15489693,15.4722245 C6.15489693,15.8552032 6.06979055,16.1105224 5.94213097,16.4083947 C5.8144714,16.6637139 5.68681182,17.0041394 5.68681182,17.3871181 L5.68681182,17.8552032 C5.68681182,18.1105224 5.85702459,18.2807352 6.11234374,18.2807352 Z M8.83574799,12.6211607 C8.83574799,13.5573309 9.00596076,14.1105224 9.13362033,14.5360543 C9.21872672,14.8764798 9.3038331,15.0892458 9.3038331,15.4722245 C9.3038331,15.8552032 9.17617352,16.1530756 9.09106714,16.4083947 C8.96340757,16.7062671 8.83574799,17.0041394 8.83574799,17.3871181 L8.83574799,17.8552032 C8.83574799,18.1105224 9.04851395,18.2807352 9.3038331,18.2807352 L12.9208544,18.2807352 C13.1761735,18.2807352 13.3889395,18.1105224 13.3889395,17.8552032 L13.3889395,17.3871181 C13.3889395,17.0041394 13.2612799,16.7062671 13.1761735,16.4083947 C13.0485139,16.1530756 12.9634076,15.8552032 12.9634076,15.4722245 C12.9634076,15.0892458 13.0059608,14.8764798 13.1336203,14.5360543 C13.2187267,14.1105224 13.3889395,13.5573309 13.3889395,12.6211607 C13.3889395,11.6424373 13.0059608,10.919033 12.7080884,10.3232884 C12.5378757,9.98286282 12.3676629,9.64243729 12.3251097,9.38711814 C12.4953225,9.13179899 12.5378757,8.74882027 12.5378757,8.28073516 C12.5378757,8.23818197 12.4953225,8.15307559 12.4527693,8.0679692 L12.2400033,7.64243729 C12.1974501,7.51477771 12.0272374,7.38711814 11.8570246,7.38711814 L10.4102161,7.38711814 C10.1974501,7.38711814 10.0697905,7.51477771 9.98468416,7.64243729 L9.77191821,8.0679692 C9.72936501,8.15307559 9.72936501,8.28073516 9.72936501,8.32328835 C9.72936501,8.74882027 9.72936501,9.13179899 9.89957778,9.38711814 C9.85702459,9.64243729 9.68681182,9.98286282 9.51659906,10.3232884 C9.21872672,10.919033 8.83574799,11.6424373 8.83574799,12.6211607 Z" id="Shape" fill="#000000" fill-rule="nonzero"></path>
        </g>
    </g>
</svg>