<?xml version="1.0" encoding="UTF-8"?>
<svg width="24px" height="24px" viewBox="0 0 24 24" version="1.1" xmlns="http://www.w3.org/2000/svg" xmlns:xlink="http://www.w3.org/1999/xlink">
    <title>icon-moon</title>
    <g id="Icon" stroke="none" stroke-width="1" fill="none" fill-rule="evenodd">
        <g id="icon-moon">
            <polygon id="Path" points="0 0 24 0 24 24 0 24"></polygon>
            <path d="M12.0466926,2.04669261 C17.5545051,2.04669261 22.0466926,6.53888011 22.0466926,12.0466926 C22.0466926,17.5545051 17.5545051,22.0466926 12.0466926,22.0466926 C10.9920051,22.0466926 10.0154426,21.8904426 9.03888011,21.5779426 C13.1013801,20.3279426 16.0310676,16.5388801 16.0310676,12.0466926 C16.0310676,7.55450511 13.1013801,3.76544261 9.03888011,2.51544261 C10.0154426,2.20294261 10.9920051,2.04669261 12.0466926,2.04669261 Z M9.31231761,16.3045051 L8.06231761,19.0388801 L6.81231761,16.3045051 L4.03888011,15.0545051 L6.81231761,13.8045051 L8.06231761,11.0310676 L9.31231761,13.8045051 L12.0466926,15.0545051 L9.31231761,16.3045051 Z M5.99200511,8.99981761 L5.05450511,11.0310676 L4.11700511,8.99981761 L2.04669261,8.06231761 L4.11700511,7.12481761 L5.05450511,5.05450511 L5.99200511,7.12481761 L8.06231761,8.06231761 L5.99200511,8.99981761 Z" id="Shape" fill="#000000" fill-rule="nonzero"></path>
        </g>
    </g>
</svg>