<?xml version="1.0" encoding="UTF-8"?>
<svg width="24px" height="24px" viewBox="0 0 24 24" version="1.1" xmlns="http://www.w3.org/2000/svg" xmlns:xlink="http://www.w3.org/1999/xlink">
    <title>icon-nightclub</title>
    <g id="Icon" stroke="none" stroke-width="1" fill="none" fill-rule="evenodd">
        <g id="icon-nightclub">
            <polygon id="Bg" points="0 0 24 0 24 24 0 24"></polygon>
            <path d="M21.6780488,5.63902439 L20.2731707,4.93658537 L19.5707317,3.53170732 C19.3756098,3.14146341 18.7512195,3.14146341 18.5560976,3.53170732 L17.8536585,4.93658537 L16.4487805,5.63902439 C16.0195122,5.83414634 16.0195122,6.45853659 16.4487805,6.65365854 L17.8536585,7.35609756 L18.5560976,8.76097561 C18.7512195,9.1902439 19.3756098,9.1902439 19.5707317,8.76097561 L20.2731707,7.35609756 L21.6780488,6.65365854 C22.1073171,6.45853659 22.1073171,5.83414634 21.6780488,5.63902439 Z M7.55121951,4.3902439 L6.14634146,3.68780488 L5.44390244,2.32195122 C5.24878049,1.89268293 4.62439024,1.89268293 4.42926829,2.32195122 L3.72682927,3.68780488 L2.32195122,4.3902439 C1.89268293,4.58536585 1.89268293,5.2097561 2.32195122,5.44390244 L3.72682927,6.14634146 L4.42926829,7.51219512 C4.62439024,7.94146341 5.24878049,7.94146341 5.44390244,7.51219512 L6.14634146,6.14634146 L7.55121951,5.44390244 C7.9804878,5.2097561 7.9804878,4.58536585 7.55121951,4.3902439 Z M13.7560976,6.92682927 L13.7560976,6.14634146 C13.7560976,5.36585366 13.2487805,4.74146341 12.5853659,4.50731707 L12.5853659,2.59512195 C12.5853659,2.28292683 12.3121951,2.0097561 12,2.0097561 C11.6878049,2.0097561 11.4146341,2.28292683 11.4146341,2.59512195 L11.4146341,4.50731707 C10.7512195,4.74146341 10.2439024,5.36585366 10.2439024,6.14634146 L10.2439024,6.92682927 C6.84878049,7.74634146 4.3902439,10.7902439 4.3902439,14.3414634 C4.3902439,18.4780488 7.78536585,21.9902439 12,21.9902439 C16.2146341,21.9902439 19.6097561,18.4780488 19.6097561,14.3414634 C19.6097561,10.8292683 17.1512195,7.74634146 13.7560976,6.92682927 Z M5.6,13.7560976 C5.67804878,12.9365854 5.91219512,12.1170732 6.26341463,11.4146341 L8.21463415,11.4146341 C8.05853659,12.1560976 7.94146341,12.9365854 7.90243902,13.7560976 L5.6,13.7560976 Z M7.04390244,18.4390244 L8.52682927,18.4390244 C8.76097561,19.102439 9.03414634,19.7268293 9.34634146,20.195122 C8.44878049,19.804878 7.66829268,19.1804878 7.04390244,18.4390244 Z M11.4146341,17.2682927 L9.42439024,17.2682927 C9.26829268,16.5658537 9.15121951,15.7853659 9.11219512,14.9268293 L11.4146341,14.9268293 L11.4146341,17.2682927 Z M11.4146341,10.2439024 L9.77560976,10.2439024 C10.2439024,9.15121951 10.8292683,8.37073171 11.4146341,8.05853659 L11.4146341,10.2439024 Z M12.5853659,20.6243902 L12.5853659,18.4390244 L14.2243902,18.4390244 C13.7560976,19.5317073 13.1707317,20.3121951 12.5853659,20.6243902 Z M12.5853659,13.7560976 L12.5853659,11.4146341 L14.5756098,11.4146341 C14.7317073,12.1170732 14.8487805,12.897561 14.8878049,13.7560976 L12.5853659,13.7560976 Z M14.6536585,8.48780488 C15.5512195,8.87804878 16.3317073,9.50243902 16.9560976,10.2439024 L15.4731707,10.2439024 C15.2390244,9.5804878 14.9658537,8.95609756 14.6536585,8.48780488 Z M15.7853659,17.2682927 C15.9414634,16.5268293 16.0585366,15.7463415 16.097561,14.9268293 L18.4,14.9268293 C18.3219512,15.7463415 18.0878049,16.5658537 17.7365854,17.2682927 L15.7853659,17.2682927 Z" id="Shape" fill="#000000" fill-rule="nonzero"></path>
        </g>
    </g>
</svg>