<?xml version="1.0" encoding="UTF-8"?>
<svg width="24px" height="24px" viewBox="0 0 24 24" version="1.1" xmlns="http://www.w3.org/2000/svg" xmlns:xlink="http://www.w3.org/1999/xlink">
    <title>icon-no-bag</title>
    <g id="Icon" stroke="none" stroke-width="1" fill="none" fill-rule="evenodd">
        <g id="icon-no-bag">
            <polygon id="Bg" points="0 0 24 0 24 24 0 24"></polygon>
            <path d="M3.36986301,2 L22,20.630137 L20.6191781,22 L18.6896898,20.0704995 C18.3349803,20.6292079 17.7107917,21 17,21 L17,23 L15,23 L15,21 L9,21 L9,23 L7,23 L7,21 C5.8954305,21 5,20.1045695 5,19 L5,7 C5,6.80961403 5.02660208,6.62544132 5.07629199,6.45099611 L2,3.36986301 L3.36986301,2 Z M14,1 C15.1045695,1 16,1.8954305 16,3 L16,5 L17,5 C18.1045695,5 19,5.8954305 19,7 L19,15.75 L8,4.75 L8,3 C8,1.8954305 8.8954305,1 10,1 L14,1 Z M14,3 L10,3 L10,5 L14,5 L14,3 Z" id="Combined-Shape" fill="#000000" fill-rule="nonzero"></path>
        </g>
    </g>
</svg>