<?xml version="1.0" encoding="UTF-8"?>
<svg width="24px" height="24px" viewBox="0 0 24 24" version="1.1" xmlns="http://www.w3.org/2000/svg" xmlns:xlink="http://www.w3.org/1999/xlink">
    <title>icon-on-main-road</title>
    <g id="Icon" stroke="none" stroke-width="1" fill="none" fill-rule="evenodd">
        <g id="icon-on-main-road">
            <polygon id="Path" points="0 0 24 0 24 24 0 24"></polygon>
            <path d="M21.5704184,11.4151116 L15.4000641,9.50152073 C15.2829054,9.46246785 15.1657468,9.46246785 15.0485882,9.46246785 L12.0415168,10.3216311 C11.963411,10.4778426 11.8462524,10.6340541 11.7290938,10.7902656 C11.4947765,11.1807944 11.2214064,11.5713231 10.9480363,11.922799 L12.0805696,11.610376 L12.0805696,13.6020726 L8.6439166,14.5393417 L4.42620606,13.2505968 L4.85578768,11.2198472 L5.98832107,11.4932174 C5.83210957,11.2589001 5.67589807,11.0245829 5.51968657,10.7902656 C5.32442219,10.4778426 5.16821069,10.2044725 5.01199919,9.93110236 L4.50431181,9.81394373 C4.3481003,9.77489085 4.15283593,9.81394373 3.99662443,9.89204948 C3.84041292,10.0092081 3.76230717,10.1263667 3.7232543,10.3216311 L2.00492778,18.7179993 C1.9658749,19.0304223 2.16113928,19.3818982 2.51261516,19.460004 L8.8001281,20.8659075 C8.91728673,20.9049604 8.99539248,20.9049604 9.11255111,20.8659075 L13.9551077,19.460004 L20.7893609,21.2564362 C20.8284137,21.2564362 20.8674666,21.2564362 20.9455724,21.2564362 C21.062731,21.2564362 21.2189425,21.2173834 21.2970482,21.1392776 C21.4532597,21.022119 21.5704184,20.8659075 21.5704184,20.6706431 L22,12.0399576 C22,11.7665875 21.8437885,11.4932174 21.5704184,11.4151116 Z M12.0805696,18.6789465 L8.91728673,19.5771626 L3.41083129,18.3665235 L4.11378305,14.8517647 L8.40959935,16.1405096 C8.56581085,16.1795624 8.72202235,16.1795624 8.83918098,16.1405096 L12.0805696,15.2422934 L12.0805696,18.6789465 Z M20.3207264,19.8114798 L14.1113192,18.1712591 C14.0332134,18.1712591 13.9941605,18.1712591 13.9551077,18.1712591 C13.8770019,18.1712591 13.837949,18.1712591 13.7598433,18.1712591 L13.6817375,18.2103119 L13.6817375,14.8127118 L14.1113192,14.6955532 L20.5159907,16.1014567 L20.3207264,19.8114798 Z M20.5940965,14.5002888 L14.2675307,13.0943853 C14.150372,13.0553324 14.0332134,13.0553324 13.8770019,13.0943853 L13.6817375,13.1334381 L13.6817375,11.1807944 L15.2047997,10.7512127 L20.7112551,12.4695393 L20.5940965,14.5002888 Z M8.6439166,13.172491 C8.72202235,13.172491 8.83918098,13.1334381 8.87823385,13.0553324 C9.69834424,12.0790105 12.3929926,8.64235747 12.3929926,6.96308382 C12.3929926,4.89328143 10.713719,3.21400778 8.6439166,3.21400778 C6.5741142,3.21400778 4.89484056,4.89328143 4.89484056,6.96308382 C4.89484056,8.64235747 7.55043609,12.0790105 8.37054647,13.0553324 C8.44865222,13.1334381 8.52675798,13.172491 8.6439166,13.172491 Z M7.35517171,6.72876657 C7.35517171,6.02581481 7.94096484,5.44002168 8.6439166,5.44002168 C9.34686836,5.44002168 9.93266149,6.02581481 9.93266149,6.72876657 C9.93266149,7.43171833 9.34686836,8.01751146 8.6439166,8.01751146 C7.94096484,8.01751146 7.35517171,7.43171833 7.35517171,6.72876657 Z" id="Shape" fill="#000000" fill-rule="nonzero"></path>
        </g>
    </g>
</svg>