<?xml version="1.0" encoding="UTF-8"?>
<svg width="24px" height="24px" viewBox="0 0 24 24" version="1.1" xmlns="http://www.w3.org/2000/svg" xmlns:xlink="http://www.w3.org/1999/xlink">
    <title>icon-on-the-beach</title>
    <g id="Icon" stroke="none" stroke-width="1" fill="none" fill-rule="evenodd">
        <g id="icon-on-the-beach">
            <path d="M21.4607551,10.7854146 C20.8357551,10.7854146 20.2498176,10.5119771 19.7029426,10.0041646 C19.3904426,9.69166464 18.8435676,9.69166464 18.4920051,10.0041646 C17.9841926,10.5119771 17.3591926,10.7854146 16.7341926,10.7854146 C16.1482551,10.7854146 15.5232551,10.5119771 15.0154426,10.0041646 C14.6638801,9.69166464 14.1170051,9.69166464 13.8045051,10.0041646 C13.2576301,10.5119771 12.6716926,10.7854146 12.0466926,10.7854146 C11.4216926,10.7854146 10.8357551,10.5119771 10.2888801,10.0041646 C9.97638011,9.69166464 9.42950511,9.69166464 9.07794261,10.0041646 C8.57013011,10.5119771 7.94513011,10.7854146 7.35919261,10.7854146 C6.73419261,10.7854146 6.10919261,10.5119771 5.60138011,10.0041646 C5.24981761,9.69166464 4.70294261,9.69166464 4.39044261,10.0041646 C3.84356761,10.5119771 3.25763011,10.7854146 2.63263011,10.7854146 C2.32013011,10.7854146 2.04669261,11.0197896 2.04669261,11.3713521 L2.04669261,16.7229146 C2.04669261,16.9572896 2.16388011,17.1526021 2.32013011,17.2307271 L2.43731761,17.3088521 C3.57013011,17.9729146 4.74200511,18.4807271 5.95294261,18.9104146 L5.95294261,16.2932271 C5.95294261,15.3166646 6.53888011,14.4572896 7.39825511,14.1057271 L11.3435676,12.3869771 C11.5779426,12.2697896 11.8123176,12.2307271 12.0466926,12.2307271 C12.2810676,12.2307271 12.5154426,12.2697896 12.7498176,12.3869771 L16.6951301,14.1057271 C17.5545051,14.4572896 18.1404426,15.3166646 18.1404426,16.2932271 L18.1404426,18.9104146 C19.3904426,18.4807271 20.6013801,17.9338521 21.7732551,17.2307271 C21.9295051,17.1526021 22.0466926,16.9572896 22.0466926,16.7229146 L22.0466926,11.3713521 C22.0466926,11.0197896 21.7732551,10.7854146 21.4607551,10.7854146 Z M18.3748176,4.37916464 C18.3748176,5.16041464 17.7107551,5.82447714 16.9295051,5.82447714 C16.1091926,5.82447714 15.4841926,5.16041464 15.4841926,4.37916464 C15.4841926,3.55885214 16.1091926,2.93385214 16.9295051,2.93385214 C17.7107551,2.93385214 18.3748176,3.55885214 18.3748176,4.37916464 Z M7.20294261,15.9026021 L16.8513801,15.9026021 C16.8513801,15.9026021 16.8904426,15.9026021 16.8904426,15.9026021 C16.8123176,15.5901021 16.5388801,15.3166646 16.2263801,15.1604146 L12.2810676,13.4416646 C12.1248176,13.4026021 11.9685676,13.4026021 11.8123176,13.4416646 L7.86700511,15.1604146 C7.55450511,15.3166646 7.32013011,15.5901021 7.20294261,15.9026021 C7.20294261,15.9026021 7.20294261,15.9026021 7.20294261,15.9026021 Z M16.9685676,17.0744771 C16.9295051,17.0744771 16.8904426,17.0744771 16.8513801,17.0744771 L7.20294261,17.0744771 C7.20294261,17.0744771 7.16388011,17.0744771 7.12481761,17.0744771 L7.12481761,20.1994771 C7.12481761,20.9026021 7.67169261,21.4494771 8.37481761,21.4494771 L9.27325511,21.4494771 L9.27325511,18.2854146 L10.9138801,18.2854146 L10.9138801,21.4494771 L15.7185676,21.4494771 C16.4216926,21.4494771 16.9685676,20.9026021 16.9685676,20.1994771 L16.9685676,17.0744771 Z M15.1326301,19.7697896 L13.1795051,19.7697896 L13.1795051,18.2854146 L15.1326301,18.2854146 L15.1326301,19.7697896 Z M2.63263011,9.10572714 C3.49200511,9.10572714 4.27325511,8.79322714 4.97638011,8.20728964 C5.67950511,8.79322714 6.49981761,9.10572714 7.35919261,9.10572714 C8.17950511,9.10572714 8.99981761,8.79322714 9.70294261,8.20728964 C10.4060676,8.79322714 11.1873176,9.10572714 12.0466926,9.10572714 C12.9060676,9.10572714 13.6873176,8.79322714 14.3904426,8.20728964 C15.0935676,8.79322714 15.9138801,9.10572714 16.7341926,9.10572714 C17.5935676,9.10572714 18.4138801,8.79322714 19.1170051,8.20728964 C19.8201301,8.79322714 20.6013801,9.10572714 21.4607551,9.10572714 C21.7732551,9.10572714 22.0466926,8.87135214 22.0466926,8.51978964 C22.0466926,8.20728964 21.7732551,7.93385214 21.4607551,7.93385214 C20.8357551,7.93385214 20.2498176,7.69947714 19.7029426,7.19166464 C19.3904426,6.87916464 18.8435676,6.87916464 18.4920051,7.19166464 C17.9841926,7.69947714 17.3591926,7.93385214 16.7341926,7.93385214 C16.1482551,7.93385214 15.5232551,7.69947714 15.0154426,7.19166464 C14.6638801,6.87916464 14.1170051,6.87916464 13.8045051,7.19166464 C13.2576301,7.69947714 12.6716926,7.93385214 12.0466926,7.93385214 C11.4216926,7.93385214 10.8357551,7.69947714 10.2888801,7.19166464 C9.97638011,6.87916464 9.42950511,6.87916464 9.07794261,7.19166464 C8.57013011,7.69947714 7.94513011,7.93385214 7.35919261,7.93385214 C6.73419261,7.93385214 6.10919261,7.69947714 5.60138011,7.19166464 C5.24981761,6.87916464 4.70294261,6.87916464 4.39044261,7.19166464 C3.84356761,7.69947714 3.25763011,7.93385214 2.63263011,7.93385214 C2.32013011,7.93385214 2.04669261,8.20728964 2.04669261,8.51978964 C2.04669261,8.87135214 2.32013011,9.10572714 2.63263011,9.10572714 Z" id="Shape" fill="#000000" fill-rule="nonzero"></path>
            <polygon id="Path" points="0 0 24 0 24 24 0 24"></polygon>
        </g>
    </g>
</svg>