<?xml version="1.0" encoding="UTF-8"?>
<svg width="24px" height="24px" viewBox="0 0 24 24" version="1.1" xmlns="http://www.w3.org/2000/svg" xmlns:xlink="http://www.w3.org/1999/xlink">
    <title>icon-parking</title>
    <g id="Icon" stroke="none" stroke-width="1" fill="none" fill-rule="evenodd">
        <g id="icon-parking">
            <polygon id="Path" points="0 0 24 0 24 24 0 24"></polygon>
            <path d="M18.9960938,3 L5.00390625,3 C3.9140625,3 3,3.9140625 3,5.00390625 L3,18.9960938 C3,20.0859375 3.9140625,21 5.00390625,21 L18.9960938,21 C20.0859375,21 21,20.0859375 21,18.9960938 L21,5.00390625 C21,3.9140625 20.0859375,3 18.9960938,3 Z M9.78515625,13.40625 L9.78515625,16.9921875 L7.9921875,16.9921875 L7.9921875,7.0078125 L12.3164062,7.0078125 C13.7929688,7.0078125 14.4960938,7.2890625 15.09375,7.88671875 C15.796875,8.484375 16.0078125,9.29296875 16.0078125,10.2070312 C16.0078125,11.1914062 15.6914062,12 15.09375,12.4921875 C14.4960938,12.984375 13.7929688,13.3007812 12.3164062,13.3007812 L9.78515625,13.3007812 L9.78515625,13.40625 Z M9.78515625,12 L9.78515625,8.4140625 L12.1054688,8.4140625 C12.8085938,8.4140625 13.3007812,8.58984375 13.6171875,9.01171875 C13.8984375,9.3984375 14.109375,9.71484375 14.109375,10.2070312 C14.109375,10.8046875 13.8984375,11.0859375 13.6171875,11.5078125 C13.3007812,11.7890625 12.9140625,12 12.2109375,12 L9.78515625,12 Z" id="Shape" fill="#000000" fill-rule="nonzero"></path>
        </g>
    </g>
</svg>