<?xml version="1.0" encoding="UTF-8"?>
<svg width="24px" height="24px" viewBox="0 0 24 24" version="1.1" xmlns="http://www.w3.org/2000/svg" xmlns:xlink="http://www.w3.org/1999/xlink">
    <title>icon-private-beach</title>
    <g id="Icon" stroke="none" stroke-width="1" fill="none" fill-rule="evenodd">
        <g id="icon-private-beach">
            <polygon id="Path" points="0 0 24 0 24 24 0 24"></polygon>
            <path d="M7.46875,18.5912829 L8.484375,19.2944079 L22,19.2944079 L22,18.5912829 L7.46875,18.5912829 Z M14.578125,21.3256579 L18.6015625,21.3256579 L18.6015625,21.9897204 L14.578125,21.9897204 L14.578125,21.3256579 Z M13.2109375,19.9584704 L19.96875,19.9584704 L19.96875,20.6225329 L13.2109375,20.6225329 L13.2109375,19.9584704 Z M18.71875,12.4194079 C19.9296875,13.5912829 19.9296875,15.5444079 18.71875,16.7162829 C17.546875,17.8881579 15.59375,17.8881579 14.421875,16.7162829 C13.25,15.5444079 13.25,13.5912829 14.421875,12.4194079 C15.59375,11.2084704 17.546875,11.2084704 18.71875,12.4194079 Z M5.28125,18.1615954 C7.2734375,14.8412829 8.484375,11.1303454 8.796875,7.26315789 L12.4296875,10.9350329 C13.015625,9.80222039 12.78125,8.39597039 11.8828125,7.49753289 L11.5703125,7.18503289 C11.375,6.95065789 11.1015625,6.79440789 10.828125,6.63815789 L14.2265625,6.63815789 C13.8359375,5.42722039 12.703125,4.60690789 11.453125,4.60690789 L10.984375,4.60690789 C10.671875,4.60690789 10.3203125,4.64597039 10.0078125,4.76315789 L12.46875,2.34128289 C11.296875,1.75534539 9.9296875,1.98972039 9.03125,2.88815789 L8.71875,3.20065789 C8.484375,3.43503289 8.2890625,3.66940789 8.171875,3.94284539 C8.015625,3.66940789 7.859375,3.43503289 7.625,3.20065789 L7.3125,2.88815789 C6.4140625,1.95065789 5.046875,1.75534539 3.9140625,2.30222039 L6.296875,4.76315789 C5.984375,4.64597039 5.671875,4.60690789 5.359375,4.60690789 L4.890625,4.56784539 C3.6015625,4.56784539 2.46875,5.38815789 2.078125,6.59909539 L5.4765625,6.59909539 C5.203125,6.75534539 4.9296875,6.95065789 4.734375,7.14597039 L4.421875,7.45847039 C3.484375,8.35690789 3.25,9.76315789 3.8359375,10.8959704 L7.4296875,7.34128289 C7.1953125,11.0522204 5.828125,14.6069079 3.5625,17.5365954 C3.0546875,17.3803454 2.546875,17.2631579 2.0390625,17.1850329 L2,21.5990954 L9.7734375,21.6381579 L9.7734375,21.5990954 C8.5625,20.1537829 7.0390625,18.9428454 5.28125,18.1615954 Z M4.3828125,21.2865954 L3.6796875,21.2865954 L3.6796875,20.5834704 L4.3828125,20.5834704 L4.3828125,21.2865954 Z M6.4140625,20.6225329 L5.7109375,20.6225329 L5.7109375,19.9194079 L6.4140625,19.9194079 L6.4140625,20.6225329 Z" id="Shape" fill="#000000" fill-rule="nonzero"></path>
        </g>
    </g>
</svg>