<?xml version="1.0" encoding="UTF-8"?>
<svg width="24px" height="24px" viewBox="0 0 24 24" version="1.1" xmlns="http://www.w3.org/2000/svg" xmlns:xlink="http://www.w3.org/1999/xlink">
    <title>icon-pub</title>
    <g id="Icon" stroke="none" stroke-width="1" fill="none" fill-rule="evenodd">
        <g id="icon-pub">
            <rect id="Rectangle" x="0" y="0" width="24" height="24"></rect>
            <path d="M19,9 L17.44,9 C17.79,8.41 18,7.73 18,7 C18,4.79 16.21,3 14,3 C13.66,3 13.34,3.05 13.02,3.13 C12.2,2.45 11.16,2.02 10,2.02 C8.11,2.02 6.49,3.13 5.73,4.73 C4.15,5.26 3,6.74 3,8.5 C3,10.36 4.28,11.91 6,12.36 L6,21 L17,21 L17,19 L19,19 C20.1,19 21,18.1 21,17 L21,11 C21,9.9 20.1,9 19,9 Z M7,10.5 C5.9,10.5 5,9.6 5,8.5 C5,7.65 5.55,6.9 6.37,6.62 L7.17,6.35 L7.53,5.59 C8,4.62 8.94,4.02 10,4.02 C10.79,4.02 11.39,4.37 11.74,4.67 L12.52,5.32 C12.52,5.32 13.16,5 13.99,5 C15.09,5 15.99,5.9 15.99,7 C15.99,7 12.99,7 12.99,7 C9.67,7 9.15,10.5 7,10.5 Z M19,17 L17,17 L17,11 L19,11 L19,17 Z" id="Shape" fill="#000000" fill-rule="nonzero"></path>
        </g>
    </g>
</svg>