<?xml version="1.0" encoding="UTF-8"?>
<svg width="24px" height="24px" viewBox="0 0 24 24" version="1.1" xmlns="http://www.w3.org/2000/svg" xmlns:xlink="http://www.w3.org/1999/xlink">
    <title>icon-room-service</title>
    <g id="Icon" stroke="none" stroke-width="1" fill="none" fill-rule="evenodd">
        <g id="icon-room-service">
            <path d="M10.828125,2 L13.171875,2 L13.171875,3.171875 L10.828125,3.171875 L10.828125,2 Z M2,13.2109375 L4.34375,13.2109375 L4.34375,22 L2,22 L2,13.2109375 Z M18.40625,14.3046875 C18.6015625,14.1875 18.71875,13.9921875 18.71875,13.7578125 C18.6796875,13.4453125 18.4453125,13.2109375 18.1328125,13.2109375 C18.0546875,13.2109375 17.9765625,13.2109375 17.8984375,13.25 L17.8984375,13.25 L12.6640625,15.4375 C12.46875,15.515625 12.234375,15.5546875 12,15.5546875 L7.0390625,15.5546875 L7.0390625,14.3828125 L12,14.3828125 C12.3125,14.3828125 12.5859375,14.109375 12.5859375,13.796875 C12.5859375,13.484375 12.3125,13.2109375 12,13.2109375 L5.515625,13.2109375 L5.515625,18.484375 L10.7890625,18.484375 L18.40625,14.3046875 Z M22,9.6953125 L2,9.6953125 C2,10.984375 3.0546875,12.0390625 4.34375,12.0390625 L19.65625,12.0390625 C20.9453125,12.0390625 22,10.984375 22,9.6953125 Z M17.9765625,5.5546875 C17.5859375,4.8125 16.8046875,4.34375 15.9453125,4.34375 L8.0546875,4.34375 C7.1953125,4.34375 6.4140625,4.8125 6.0234375,5.5546875 L4.34375,8.5234375 L19.65625,8.5234375 L17.9765625,5.5546875 Z" id="Shape" fill="#000000" fill-rule="nonzero"></path>
            <polygon id="Path" points="0 0 24 0 24 24 0 24"></polygon>
        </g>
    </g>
</svg>