<?xml version="1.0" encoding="UTF-8"?>
<svg width="24px" height="24px" viewBox="0 0 24 24" version="1.1" xmlns="http://www.w3.org/2000/svg" xmlns:xlink="http://www.w3.org/1999/xlink">
    <title>icon-safe</title>
    <g id="Icon" stroke="none" stroke-width="1" fill="none" fill-rule="evenodd">
        <g id="icon-safe">
            <polygon id="Bg" points="0 0 24 0 24 24 0 24"></polygon>
            <path d="M19.4814815,3 L4.51851852,3 C3.66666667,3 3,3.66666667 3,4.51851852 L3,19.5185185 C3,20.2962963 3.62962963,20.962963 4.40740741,21 L4.40740741,21.4074074 C4.40740741,21.7037037 4.62962963,21.962963 4.92592593,21.962963 L6.48148148,21.962963 C6.77777778,21.962963 7,21.7037037 7,21.4074074 L7,21 L16.8518519,21 L16.8518519,21.4074074 C16.8518519,21.7037037 17.0740741,21.962963 17.3703704,21.962963 L18.8888889,21.962963 C19.1851852,21.962963 19.4444444,21.7037037 19.4444444,21.4074074 L19.4444444,21 L19.4814815,21 C20.3333333,21 21,20.3333333 21,19.5185185 L21,4.51851852 C21,3.66666667 20.3333333,3 19.4814815,3 Z M19.4444444,18 C19.4444444,18.8148148 18.8148148,19.4444444 18,19.4444444 L5.81481481,19.4444444 C5.03703704,19.4444444 4.40740741,18.8148148 4.40740741,18 L4.40740741,5.88888889 C4.40740741,5.11111111 5.03703704,4.44444444 5.81481481,4.44444444 L18,4.44444444 C18.8148148,4.44444444 19.4444444,5.11111111 19.4444444,5.88888889 L19.4444444,18 Z M10.1111111,11.962963 C10.1111111,12.6666667 9.55555556,13.2222222 8.88888889,13.2222222 C8.18518519,13.2222222 7.62962963,12.6666667 7.62962963,11.962963 C7.62962963,11.2962963 8.18518519,10.7407407 8.88888889,10.7407407 C9.55555556,10.7407407 10.1111111,11.2962963 10.1111111,11.962963 Z M18,5.51851852 L5.81481481,5.51851852 C5.62962963,5.51851852 5.48148148,5.7037037 5.48148148,5.88888889 L5.48148148,18 C5.48148148,18.2222222 5.62962963,18.3703704 5.81481481,18.3703704 L18,18.3703704 C18.2222222,18.3703704 18.3703704,18.2222222 18.3703704,18 L18.3703704,5.88888889 C18.3703704,5.7037037 18.2222222,5.51851852 18,5.51851852 Z M8.88888889,14.2962963 C7.59259259,14.2962963 6.55555556,13.2592593 6.55555556,11.962963 C6.55555556,10.7037037 7.59259259,9.66666667 8.88888889,9.66666667 C10.1481481,9.66666667 11.1851852,10.7037037 11.1851852,11.962963 C11.1851852,13.2592593 10.1481481,14.2962963 8.88888889,14.2962963 Z M13.1481481,14.2962963 L12.8888889,14.2962963 C12.5925926,14.2962963 12.3333333,14.0740741 12.3333333,13.7777778 C12.3333333,13.4814815 12.5925926,13.2222222 12.8888889,13.2222222 L13.1481481,13.2222222 C13.4444444,13.2222222 13.7037037,13.4814815 13.7037037,13.7777778 C13.7037037,14.0740741 13.4444444,14.2962963 13.1481481,14.2962963 Z M13.1481481,12.5555556 L12.8888889,12.5555556 C12.5925926,12.5555556 12.3333333,12.2962963 12.3333333,12 C12.3333333,11.7037037 12.5925926,11.4814815 12.8888889,11.4814815 L13.1481481,11.4814815 C13.4444444,11.4814815 13.7037037,11.7037037 13.7037037,12 C13.7037037,12.2962963 13.4444444,12.5555556 13.1481481,12.5555556 Z M13.1481481,10.7777778 L12.8888889,10.7777778 C12.5925926,10.7777778 12.3333333,10.5555556 12.3333333,10.2592593 C12.3333333,9.96296296 12.5925926,9.7037037 12.8888889,9.7037037 L13.1481481,9.7037037 C13.4444444,9.7037037 13.7037037,9.96296296 13.7037037,10.2592593 C13.7037037,10.5555556 13.4444444,10.7777778 13.1481481,10.7777778 Z M15,14.2962963 L14.7407407,14.2962963 C14.4074074,14.2962963 14.1851852,14.0740741 14.1851852,13.7777778 C14.1851852,13.4814815 14.4074074,13.2222222 14.7407407,13.2222222 L15,13.2222222 C15.2962963,13.2222222 15.5185185,13.4814815 15.5185185,13.7777778 C15.5185185,14.0740741 15.2962963,14.2962963 15,14.2962963 Z M15,12.5555556 L14.7407407,12.5555556 C14.4074074,12.5555556 14.1851852,12.2962963 14.1851852,12 C14.1851852,11.7037037 14.4074074,11.4814815 14.7407407,11.4814815 L15,11.4814815 C15.2962963,11.4814815 15.5185185,11.7037037 15.5185185,12 C15.5185185,12.2962963 15.2962963,12.5555556 15,12.5555556 Z M15,10.7777778 L14.7407407,10.7777778 C14.4074074,10.7777778 14.1851852,10.5555556 14.1851852,10.2592593 C14.1851852,9.96296296 14.4074074,9.7037037 14.7407407,9.7037037 L15,9.7037037 C15.2962963,9.7037037 15.5185185,9.96296296 15.5185185,10.2592593 C15.5185185,10.5555556 15.2962963,10.7777778 15,10.7777778 Z M16.8148148,14.2962963 L16.5555556,14.2962963 C16.2592593,14.2962963 16,14.0740741 16,13.7777778 C16,13.4814815 16.2592593,13.2222222 16.5555556,13.2222222 L16.8148148,13.2222222 C17.1111111,13.2222222 17.3703704,13.4814815 17.3703704,13.7777778 C17.3703704,14.0740741 17.1111111,14.2962963 16.8148148,14.2962963 Z M16.8148148,12.5555556 L16.5555556,12.5555556 C16.2592593,12.5555556 16,12.2962963 16,12 C16,11.7037037 16.2592593,11.4814815 16.5555556,11.4814815 L16.8148148,11.4814815 C17.1111111,11.4814815 17.3703704,11.7037037 17.3703704,12 C17.3703704,12.2962963 17.1111111,12.5555556 16.8148148,12.5555556 Z M16.8148148,10.7777778 L16.5555556,10.7777778 C16.2592593,10.7777778 16,10.5555556 16,10.2592593 C16,9.96296296 16.2592593,9.7037037 16.5555556,9.7037037 L16.8148148,9.7037037 C17.1111111,9.7037037 17.3703704,9.96296296 17.3703704,10.2592593 C17.3703704,10.5555556 17.1111111,10.7777778 16.8148148,10.7777778 Z" id="Shape" fill="#000000" fill-rule="nonzero"></path>
        </g>
    </g>
</svg>