<?xml version="1.0" encoding="UTF-8"?>
<svg width="24px" height="24px" viewBox="0 0 24 24" version="1.1" xmlns="http://www.w3.org/2000/svg" xmlns:xlink="http://www.w3.org/1999/xlink">
    <title>icon-sailing</title>
    <g id="Icon" stroke="none" stroke-width="1" fill="none" fill-rule="evenodd">
        <g id="icon-sailing">
            <polygon id="Bg" points="0 0 24 0 24 24 0 24"></polygon>
            <path d="M20.7102439,11.296875 C20.4995122,11.0859375 20.2536585,10.9804688 19.9726829,10.9804688 C19.6917073,10.9804688 19.4458537,11.0859375 19.2702439,11.296875 C19.2,11.3320312 19.1297561,11.4023438 19.0946341,11.4726562 L17.795122,11.4726562 C17.6897561,10.2773438 17.1980488,9.15234375 16.4604878,8.2734375 L17.3034146,7.46484375 C17.3736585,7.46484375 17.4439024,7.5 17.5141463,7.5 C18.0760976,7.5 18.5326829,7.04296875 18.5326829,6.48046875 C18.5326829,5.91796875 18.0760976,5.4609375 17.5141463,5.4609375 C16.9873171,5.4609375 16.5307317,5.91796875 16.5307317,6.48046875 C16.5307317,6.55078125 16.5307317,6.62109375 16.5307317,6.69140625 L15.7229268,7.53515625 C14.844878,6.796875 13.7209756,6.3046875 12.5268293,6.19921875 L12.5268293,4.8984375 C12.5970732,4.86328125 12.6673171,4.79296875 12.702439,4.72265625 C12.9131707,4.546875 13.0185366,4.30078125 13.0185366,4.01953125 C13.0185366,3.73828125 12.9131707,3.4921875 12.702439,3.28125 C12.5268293,3.10546875 12.2809756,3 12,3 C11.7190244,3 11.4731707,3.10546875 11.297561,3.28125 C11.0868293,3.4921875 10.9814634,3.73828125 10.9814634,4.01953125 C10.9814634,4.30078125 11.0868293,4.546875 11.297561,4.72265625 C11.3326829,4.79296875 11.4029268,4.86328125 11.4731707,4.8984375 L11.4731707,6.19921875 C10.2790244,6.3046875 9.15512195,6.796875 8.27707317,7.53515625 L7.46926829,6.69140625 C7.46926829,6.62109375 7.50439024,6.55078125 7.50439024,6.48046875 C7.50439024,5.91796875 7.04780488,5.4609375 6.48585366,5.4609375 C5.92390244,5.4609375 5.46731707,5.91796875 5.46731707,6.48046875 C5.46731707,7.04296875 5.92390244,7.5 6.48585366,7.5 C6.55609756,7.5 6.62634146,7.46484375 6.69658537,7.46484375 L7.5395122,8.2734375 C6.80195122,9.15234375 6.3102439,10.2773438 6.20487805,11.4726562 L4.90536585,11.4726562 C4.8702439,11.4023438 4.8,11.3320312 4.7297561,11.296875 C4.55414634,11.0859375 4.30829268,10.9804688 4.02731707,10.9804688 C3.74634146,10.9804688 3.5004878,11.0859375 3.2897561,11.296875 C2.90341463,11.6835938 2.90341463,12.3164062 3.2897561,12.703125 C3.5004878,12.9140625 3.74634146,13.0195312 4.02731707,13.0195312 C4.30829268,13.0195312 4.55414634,12.9140625 4.7297561,12.703125 C4.8,12.6679688 4.8702439,12.5976562 4.90536585,12.5273438 L6.20487805,12.5273438 C6.3102439,13.7226562 6.80195122,14.8476562 7.5395122,15.7265625 L6.69658537,16.5351562 C6.62634146,16.5351562 6.55609756,16.5 6.48585366,16.5 C5.92390244,16.5 5.46731707,16.9570312 5.46731707,17.5195312 C5.46731707,18.0820312 5.92390244,18.5390625 6.48585366,18.5390625 C7.04780488,18.5390625 7.50439024,18.0820312 7.50439024,17.5195312 C7.50439024,17.4492188 7.46926829,17.3789062 7.46926829,17.3085938 L8.27707317,16.4648438 C9.15512195,17.203125 10.2790244,17.6953125 11.4731707,17.8007812 L11.4731707,19.1015625 C11.4029268,19.1367188 11.3326829,19.2070312 11.297561,19.2773438 C11.0868293,19.453125 10.9814634,19.6992188 10.9814634,19.9804688 C10.9814634,20.2617188 11.0868293,20.5078125 11.297561,20.71875 C11.4731707,20.8945312 11.7190244,21 12,21 C12.2809756,21 12.5268293,20.8945312 12.702439,20.71875 C12.9131707,20.5078125 13.0185366,20.2617188 13.0185366,19.9804688 C13.0185366,19.6992188 12.9131707,19.453125 12.702439,19.2773438 C12.6673171,19.2070312 12.5970732,19.1367188 12.5268293,19.1015625 L12.5268293,17.8007812 C13.7560976,17.6953125 14.844878,17.203125 15.7229268,16.4648438 L16.5307317,17.3085938 C16.5307317,17.3789062 16.5307317,17.4492188 16.5307317,17.5195312 C16.5307317,18.0820312 16.9873171,18.5390625 17.5141463,18.5390625 C18.0760976,18.5390625 18.5326829,18.0820312 18.5326829,17.5195312 C18.5326829,16.9570312 18.0760976,16.5 17.5141463,16.5 C17.4439024,16.5 17.3736585,16.5351562 17.3034146,16.5351562 L16.4604878,15.7265625 C17.1980488,14.8476562 17.6897561,13.7226562 17.795122,12.5273438 L19.0946341,12.5273438 C19.1297561,12.5976562 19.2,12.6679688 19.2702439,12.703125 C19.4458537,12.9140625 19.6917073,13.0195312 19.9726829,13.0195312 C20.2536585,13.0195312 20.4995122,12.9140625 20.7102439,12.703125 C21.0965854,12.3164062 21.0965854,11.6835938 20.7102439,11.296875 Z M14.7746341,9.9609375 C15.0907317,10.4179688 15.3365854,10.9101563 15.4068293,11.4726563 L13.2995122,11.4726563 L14.7746341,9.9609375 Z M12.5268293,10.734375 L12.5268293,8.58984375 C13.0887805,8.6953125 13.6156098,8.90625 14.0370732,9.22265625 L12.5268293,10.734375 Z M11.4731707,10.734375 L9.96292683,9.22265625 C10.3843902,8.90625 10.9112195,8.6953125 11.4731707,8.58984375 L11.4731707,10.734375 Z M10.7356098,11.4726563 L8.59317073,11.4726563 C8.66341463,10.9101563 8.90926829,10.4179688 9.22536585,9.9609375 L10.7356098,11.4726563 Z M10.7356098,12.5273437 L9.22536585,14.0390625 C8.90926829,13.6171875 8.66341463,13.0898437 8.59317073,12.5273437 L10.7356098,12.5273437 Z M11.4731707,13.3007812 L11.4731707,15.4101563 C10.9112195,15.3398438 10.4195122,15.09375 9.96292683,14.7773438 L11.4731707,13.3007812 Z M12.5268293,13.265625 L14.0370732,14.7773438 C13.6156098,15.09375 13.0887805,15.3398438 12.5268293,15.4101563 L12.5268293,13.265625 Z M13.2643902,12.5273437 L15.4068293,12.5273437 C15.3365854,13.0898437 15.0907317,13.6171875 14.7746341,14.0390625 L13.2643902,12.5273437 Z" id="Shape" fill="#000000" fill-rule="nonzero"></path>
        </g>
    </g>
</svg>