<?xml version="1.0" encoding="UTF-8"?>
<svg width="24px" height="24px" viewBox="0 0 24 24" version="1.1" xmlns="http://www.w3.org/2000/svg" xmlns:xlink="http://www.w3.org/1999/xlink">
    <title>icon-satellite-tv</title>
    <g id="Icon" stroke="none" stroke-width="1" fill="none" fill-rule="evenodd">
        <g id="icon-satellite-tv">
            <polygon id="Path" points="0 0 24 0 24 24 0 24"></polygon>
            <path d="M21,3 C22.1,3 23,3.9 23,5 L23,5 L22.99,17 C22.99,18.1 22.1,19 21,19 L21,19 L16,19 L16,21 L8,21 L8,19 L3,19 C1.9,19 1,18.1 1,17 L1,17 L1,5 C1,3.9 1.9,3 3,3 L3,3 Z M21,5 L3,5 L3,17 L21,17 L21,5 Z M4,13 C5.66,13 7,14.34 7,16 L7,16 L4,16 Z M4,9 C7.87,9 11,12.13 11,16 L11,16 L9,16 C9,13.24 6.76,11 4,11 L4,11 Z" id="Combined-Shape" fill="#000000" fill-rule="nonzero"></path>
        </g>
    </g>
</svg>