<?xml version="1.0" encoding="UTF-8"?>
<svg width="24px" height="24px" viewBox="0 0 24 24" version="1.1" xmlns="http://www.w3.org/2000/svg" xmlns:xlink="http://www.w3.org/1999/xlink">
    <title>icon-ski-to-door-access</title>
    <g id="Icon" stroke="none" stroke-width="1" fill="none" fill-rule="evenodd">
        <g id="icon-ski-to-door-access">
            <path d="M21.5388801,18.155091 L21.3826301,18.155091 L21.3826301,17.4910285 C21.3826301,15.3035285 20.2498176,14.561341 18.5310676,13.8972785 C18.5310676,13.8191535 18.5310676,13.7410285 18.4920051,13.701966 C18.4529426,13.545716 18.3357551,13.467591 18.2185676,13.389466 L16.2263801,12.608216 C15.9920051,12.530091 15.7576301,12.608216 15.6013801,12.764466 C15.5623176,12.7254035 15.4841926,12.686341 15.4451301,12.6472785 C15.4451301,12.608216 15.4841926,12.5691535 15.4841926,12.530091 C15.5232551,12.4129035 15.5232551,12.2566535 15.4451301,12.139466 L14.4685676,10.2254035 C14.3513801,9.99102854 14.1170051,9.91290354 13.8826301,9.95196604 C13.8826301,9.87384104 13.8435676,9.83477854 13.8435676,9.79571604 C14.0779426,9.71759104 14.2341926,9.52227854 14.2341926,9.28790354 L14.2341926,7.10040354 C14.2341926,6.86602854 14.0779426,6.67071604 13.8826301,6.59259104 C13.8826301,6.16290354 13.9607551,5.69415354 13.9998176,5.18634104 C13.9998176,5.03009104 13.9607551,4.87384104 13.8435676,4.75665354 C13.7654426,4.67852854 13.6873176,4.63946604 13.6091926,4.60040354 L14.1951301,2.76446604 C14.2732551,2.60821604 14.2341926,2.41290354 14.1170051,2.29571604 C14.0388801,2.13946604 13.8826301,2.06134104 13.7263801,2.06134104 C13.7263801,2.06134104 13.6482551,2.06134104 13.5701301,2.06134104 C12.8670051,2.06134104 9.74200511,2.13946604 7.63263011,3.42852854 C6.46075511,2.80352854 5.71856761,2.17852854 5.67950511,2.17852854 C5.56231761,2.06134104 5.36700511,2.02227854 5.17169261,2.06134104 C5.01544261,2.13946604 4.85919261,2.25665354 4.82013011,2.45196604 C4.58575511,3.38946604 4.23419261,4.87384104 3.92169261,6.59259104 C3.72638011,6.63165354 3.53106761,6.78790354 3.49200511,7.02227854 L3.10138011,9.17071604 C3.06231761,9.32696604 3.10138011,9.48321604 3.21856761,9.60040354 C3.25763011,9.67852854 3.29669261,9.71759104 3.37481761,9.75665354 C2.98419261,12.1785285 2.71075511,14.6785285 2.71075511,16.514466 L2.71075511,18.155091 L2.59356761,18.155091 C2.32013011,18.155091 2.04669261,18.389466 2.04669261,18.701966 L2.04669261,21.4754035 C2.04669261,21.748841 2.32013011,21.983216 2.59356761,21.983216 L10.0545051,21.983216 C10.2107551,21.983216 10.4060676,21.905091 10.4841926,21.748841 C10.8357551,21.201966 11.4216926,20.889466 12.0466926,20.889466 C12.6716926,20.889466 13.2185676,21.201966 13.5701301,21.748841 C13.6873176,21.905091 13.8435676,21.983216 14.0388801,21.983216 L21.5388801,21.983216 C21.8123176,21.983216 22.0466926,21.748841 22.0466926,21.4754035 L22.0466926,18.701966 C22.0466926,18.389466 21.8123176,18.155091 21.5388801,18.155091 Z M16.6951301,15.9285285 L15.5232551,15.9285285 L16.3435676,13.858216 L17.3201301,14.248841 L16.6951301,15.9285285 Z M13.1404426,7.64727854 L13.1404426,8.74102854 L4.27325511,8.74102854 L4.46856761,7.64727854 L13.1404426,7.64727854 Z M14.2341926,12.139466 L10.2498176,14.248841 L10.2498176,13.0379035 L13.7263801,11.201966 L14.2341926,12.139466 Z M12.4763801,4.60040354 C11.7732551,4.56134104 10.6795051,4.48321604 9.70294261,4.24884104 C9.39044261,4.17071604 9.11700511,4.09259104 8.88263011,3.97540354 C10.2888801,3.35040354 12.0076301,3.19415354 12.9451301,3.15509104 L12.4763801,4.60040354 Z M9.78106761,20.9285285 L3.14044261,20.9285285 L3.14044261,19.248841 L20.9529426,19.248841 L20.9529426,20.9285285 L14.3123176,20.9285285 C13.7654426,20.2254035 12.9451301,19.8347785 12.0466926,19.8347785 C11.1482551,19.8347785 10.3279426,20.2254035 9.78106761,20.9285285 Z" id="Shape" fill="#000000" fill-rule="nonzero"></path>
            <polygon id="Path" points="0 0 24 0 24 24 0 24"></polygon>
        </g>
    </g>
</svg>