<?xml version="1.0" encoding="UTF-8"?>
<svg width="24px" height="24px" viewBox="0 0 24 24" version="1.1" xmlns="http://www.w3.org/2000/svg" xmlns:xlink="http://www.w3.org/1999/xlink">
    <title>icon-ski</title>
    <g id="Icon" stroke="none" stroke-width="1" fill="none" fill-rule="evenodd">
        <g id="icon-ski">
            <path d="M20.7934862,7.76669907 C21.7701571,7.29789704 22.1608255,6.12589195 21.6920234,5.18828789 C21.2232214,4.25068382 20.0512163,3.82094862 19.1136122,4.28975065 C18.1369413,4.75855269 17.746273,5.93055777 18.215075,6.86816184 C18.683877,7.84483274 19.8558821,8.23550111 20.7934862,7.76669907 Z M15.5585301,10.2669766 C15.4022628,11.0092465 15.4803965,11.6733827 16.2226664,11.8687169 C16.2226664,11.8687169 19.6605479,12.8063209 19.6605479,12.8063209 L19.6605479,12.8063209 C20.2465505,12.9625883 20.7934862,12.6500536 20.9497535,12.1031179 C21.1060209,11.5171153 20.7934862,10.9701796 20.2074837,10.8139123 C20.2074837,10.8139123 20.2074837,10.8139123 20.2074837,10.8139123 L18.4885429,10.3451103 L17.7853398,9.87630822 C17.980674,8.86057048 17.9025403,9.21217201 18.0978745,8.31363478 C18.215075,7.80576591 17.8244066,7.21976337 17.6290725,6.79002817 C17.1993373,5.96962461 16.2226664,5.61802308 15.4022628,6.00869144 L14.2693246,6.59469399 L16.066399,7.80576591 C16.0273322,7.96203325 15.9491985,8.46990212 15.9101317,8.62616947 L7.82329659,3.19587924 C7.47169507,2.96147822 6.9638262,3.07867873 6.72942518,3.43028026 C6.49502416,3.78188178 6.61222467,4.25068382 6.9638262,4.48508483 L15.5585301,10.2669766 Z M21.9264244,19.2914157 C21.7310903,18.9398142 21.2622882,18.8226137 20.8716199,19.0179479 L19.8168153,19.6820841 L12.7847848,17.2599403 L16.1054659,14.4471281 C16.7305352,13.9392592 16.6914684,12.9235214 16.0273322,12.4547194 L14.1911909,11.0873801 L14.8553271,10.7748455 L14.9334608,10.7357786 L11.0267772,8.15736743 L11.0267772,8.15736743 C10.4017078,8.46990212 9.97197258,9.05590466 9.89383891,9.72004088 C9.73757156,10.5404444 10.0891731,11.2436475 10.8705098,11.82965 L13.21452,13.5485908 L10.0110394,16.2832694 L3.05714258,13.9001923 C2.66647422,13.743925 2.23673902,13.978326 2.08047168,14.3689944 C1.96327117,14.7987296 2.15860535,15.2284648 2.54927371,15.3456653 L19.6605479,21.2447575 C19.7386816,21.2838244 19.8168153,21.2838244 19.894949,21.2838244 C20.0512163,21.2838244 20.1684168,21.2447575 20.2856173,21.1666239 L21.6529566,20.3462203 C22.043625,20.1508861 22.1608255,19.6430173 21.9264244,19.2914157 Z" id="Shape" fill="#000000" fill-rule="nonzero"></path>
            <polygon id="Path" points="0 0 24 0 24 24 0 24"></polygon>
        </g>
    </g>
</svg>