<?xml version="1.0" encoding="UTF-8"?>
<svg width="24px" height="24px" viewBox="0 0 24 24" version="1.1" xmlns="http://www.w3.org/2000/svg" xmlns:xlink="http://www.w3.org/1999/xlink">
    <title>icon-tennis</title>
    <g id="Icon" stroke="none" stroke-width="1" fill="none" fill-rule="evenodd">
        <g id="icon-tennis">
            <rect id="Rectangle" x="0" y="0" width="24" height="24"></rect>
            <g id="Group" transform="translate(1.000000, 1.000000)" fill="#000000" fill-rule="nonzero">
                <path d="M18.52,1.49 C16.18,-0.85 11.9,-0.38 8.97,2.55 C7.37,4.15 6.45,6.42 6.43,8.01 C6.41,9.59 6.69,11.9 5.08,13.51 L0.84,17.75 L2.26,19.17 L6.5,14.93 C8.11,13.32 10.42,13.6 12,13.58 C13.58,13.56 15.86,12.64 17.46,11.04 C20.38,8.11 20.86,3.83 18.52,1.49 Z M9.32,10.68 C7.79,9.15 8.27,6.07 10.38,3.96 C12.49,1.85 15.56,1.37 17.1,2.9 C18.63,4.43 18.15,7.51 16.04,9.62 C13.93,11.73 10.86,12.21 9.32,10.68 Z" id="Shape"></path>
                <path d="M17,16 C17.53,16 18.04,16.21 18.41,16.59 C19.19,17.37 19.19,18.64 18.41,19.42 C18.04,19.79 17.53,20 17,20 C16.47,20 15.96,19.79 15.59,19.41 C14.81,18.63 14.81,17.36 15.59,16.58 C15.96,16.21 16.47,16 17,16 M17,14 C15.98,14 14.95,14.39 14.17,15.17 C12.61,16.73 12.61,19.26 14.17,20.83 C14.95,21.61 15.98,22 17,22 C18.02,22 19.05,21.61 19.83,20.83 C21.39,19.27 21.39,16.74 19.83,15.17 C19.05,14.39 18.02,14 17,14 L17,14 Z" id="Shape"></path>
            </g>
        </g>
    </g>
</svg>