<?xml version="1.0" encoding="UTF-8"?>
<svg width="24px" height="24px" viewBox="0 0 24 24" version="1.1" xmlns="http://www.w3.org/2000/svg" xmlns:xlink="http://www.w3.org/1999/xlink">
    <title>icon-tiled</title>
    <g id="Icon" stroke="none" stroke-width="1" fill="none" fill-rule="evenodd">
        <g id="icon-tiled">
            <path d="M23.6731518,13.0350195 L17.7898833,9.48638132 L17.7898833,9.48638132 L16.8560311,8.97276265 L17.6964981,8.41245136 C17.8365759,8.31906615 17.9299611,8.17898833 17.9299611,7.9922179 C17.9299611,7.80544747 17.8365759,7.66536965 17.6964981,7.57198444 L12.233463,4.07003891 C12.0466926,3.9766537 11.8599222,3.9766537 11.6731518,4.07003891 L6.21011673,7.57198444 C6.07003891,7.66536965 5.9766537,7.80544747 5.9766537,7.9922179 C5.9766537,8.17898833 6.07003891,8.31906615 6.21011673,8.41245136 L7.05058366,8.97276265 L6.11673152,9.48638132 L6.11673152,9.48638132 L0.233463035,13.0350195 C0.093385214,13.1284047 0,13.3151751 0,13.4552529 C0,13.6420233 0.093385214,13.8287938 0.233463035,13.8754864 L11.6731518,20.8793774 C11.766537,20.92607 11.8599222,20.92607 11.9533074,20.92607 C12.0466926,20.92607 12.1400778,20.92607 12.233463,20.8793774 L23.6731518,13.8754864 C23.8132296,13.8287938 23.9066148,13.6420233 23.9066148,13.4552529 C23.9066148,13.3151751 23.8132296,13.1284047 23.6731518,13.0350195 Z M6.35019455,16.4435798 L1.44747082,13.4552529 L6.39688716,10.5136187 L11.0194553,13.4552529 L6.35019455,16.4435798 Z M11.9533074,12.8949416 L7.3307393,9.95330739 L7.9844358,9.53307393 L11.6731518,11.9143969 C11.766537,11.9610895 11.8599222,11.9610895 11.9533074,11.9610895 C12.0466926,11.9610895 12.1400778,11.9610895 12.233463,11.9143969 L15.922179,9.53307393 L16.5758755,9.95330739 L11.9533074,12.8949416 Z M17.5564202,16.4435798 L12.8871595,13.4552529 L17.5097276,10.5136187 L22.459144,13.4552529 L17.5564202,16.4435798 Z" id="Shape" fill="#000000" fill-rule="nonzero"></path>
            <polygon id="Bg-24" points="0 0 24 0 24 24 0 24"></polygon>
        </g>
    </g>
</svg>