<?xml version="1.0" encoding="UTF-8"?>
<svg width="24px" height="24px" viewBox="0 0 24 24" version="1.1" xmlns="http://www.w3.org/2000/svg" xmlns:xlink="http://www.w3.org/1999/xlink">
    <title>icon-transfer</title>
    <g id="Icon" stroke="none" stroke-width="1" fill="none" fill-rule="evenodd">
        <g id="icon-transfer">
            <polygon id="Path" points="0 0 24 0 24 24 0 24"></polygon>
            <path d="M8,6 C9.66,6 11,7.34 11,9 C11,10.66 9.66,12 8,12 C6.34,12 5,10.66 5,9 C5,7.34 6.34,6 8,6 Z M19,15 L19,18 L17,18 L17,15 L19,15 Z M8,13.9 C10,13.9 14,15 14,17 L14,18 L2,18 L2,17 C2,15 6,13.9 8,13.9 Z M22,14 L14,14 L14,9 L22,9 L22,14 Z" id="Shape" fill="#000000" fill-rule="nonzero"></path>
        </g>
    </g>
</svg>