<?xml version="1.0" encoding="UTF-8"?>
<svg width="24px" height="24px" viewBox="0 0 24 24" version="1.1" xmlns="http://www.w3.org/2000/svg" xmlns:xlink="http://www.w3.org/1999/xlink">
    <title>icon-veg-friendly</title>
    <g id="Icon" stroke="none" stroke-width="1" fill="none" fill-rule="evenodd">
        <g id="icon-veg-friendly">
            <path d="M2.04669261,11.5361442 C2.32013011,15.1298942 4.70294261,18.2939567 8.29669261,19.6220817 L8.29669261,20.9502067 C8.29669261,21.3017692 8.57013011,21.5752067 8.92169261,21.5752067 L15.1716926,21.5752067 C15.5232551,21.5752067 15.7966926,21.3017692 15.7966926,20.9502067 L15.7966926,19.6220817 C19.3904426,18.2939567 21.7732551,15.1298942 22.0466926,11.5361442 L2.04669261,11.5361442 Z M17.3982551,5.24708171 C16.6560676,4.46583171 15.6404426,3.99708171 14.5466926,3.99708171 C13.4529426,3.99708171 12.4373176,4.46583171 11.7341926,5.24708171 C11.4216926,5.28614421 11.1091926,5.36426921 10.7966926,5.48145671 L10.7966926,3.37208171 C10.7966926,3.02051921 10.5232551,2.74708171 10.1716926,2.74708171 C8.02325511,2.74708171 6.26544261,4.23145671 5.83575511,6.26270671 L5.44513011,5.83301921 C5.28888011,5.71583171 5.13263011,5.63770671 4.97638011,5.63770671 C4.82013011,5.63770671 4.66388011,5.71583171 4.54669261,5.83301921 C3.33575511,7.04395671 2.98419261,8.76270671 3.49200511,10.2861442 L4.82013011,10.2861442 C4.35138011,9.30958171 4.42950511,8.13770671 5.01544261,7.20020671 L5.87481761,8.05958171 L8.10138011,10.2861442 L12.6716926,10.2861442 L11.6560676,9.50489421 C11.3826301,9.30958171 11.3435676,8.91895671 11.5388801,8.64551921 C11.7341926,8.37208171 12.1638801,8.29395671 12.4373176,8.52833171 L13.9216926,9.66114421 L13.9216926,8.41114421 C13.9216926,8.05958171 14.1951301,7.74708171 14.5466926,7.74708171 C14.8982551,7.74708171 15.1716926,8.05958171 15.1716926,8.41114421 L15.1716926,9.66114421 L16.6951301,8.52833171 C16.9685676,8.29395671 17.3591926,8.37208171 17.5935676,8.64551921 C17.7888801,8.91895671 17.7107551,9.30958171 17.4373176,9.50489421 L16.4607551,10.2861442 L20.6013801,10.2861442 C20.7576301,9.85645671 20.8357551,9.46583171 20.8357551,9.03614421 C20.8357551,7.04395671 19.3123176,5.40333171 17.3982551,5.24708171 Z M9.54669261,9.93458171 L7.04669261,7.43458171 C7.00763011,7.35645671 7.00763011,7.23926921 7.00763011,7.12208171 C7.00763011,5.59864421 8.10138011,4.34864421 9.54669261,4.07520671 L9.54669261,9.93458171 Z" id="Shape" fill="#000000" fill-rule="nonzero"></path>
            <polygon id="Path" points="0 0 24 0 24 24 0 24"></polygon>
        </g>
    </g>
</svg>