<?xml version="1.0" encoding="UTF-8"?>
<svg width="24px" height="24px" viewBox="0 0 24 24" version="1.1" xmlns="http://www.w3.org/2000/svg" xmlns:xlink="http://www.w3.org/1999/xlink">
    <title>icon-visa-card-icon</title>
    <g id="Icon" stroke="none" stroke-width="1" fill="none" fill-rule="evenodd">
        <g id="icon-visa-card-icon">
            <g id="Visa" transform="translate(1.046693, 8.891051)" fill-rule="nonzero">
                <path d="M8.41634241,0.122568093 L7.3540856,6.65953307 L9.07003891,6.65953307 L10.1322957,0.122568093 L8.41634241,0.122568093 Z M5.92412451,0.122568093 L4.3307393,4.61673152 L4.12645914,3.63618677 L4.12645914,3.63618677 L4.08560311,3.43190661 C3.88132296,3.0233463 3.43190661,2.20622568 2.57392996,1.51167315 C2.32879377,1.307393 2.08365759,1.14396887 1.8385214,1.02140078 L3.30933852,6.65953307 L5.06614786,6.65953307 L7.76264591,0.122568093 L5.92412451,0.122568093 Z M12.5836576,1.96108949 C12.5836576,1.22568093 14.2178988,1.307393 14.9533074,1.71595331 L15.1984436,0.285992218 C15.1984436,0.285992218 14.463035,3.88578059e-16 13.6867704,3.88578059e-16 C12.8287938,3.88578059e-16 10.8268482,0.36770428 10.8268482,2.16536965 C10.8268482,3.88132296 13.1964981,3.88132296 13.1964981,4.78015564 C13.1964981,5.6381323 11.0719844,5.5155642 10.3774319,4.94357977 L10.1322957,6.41439689 C10.1322957,6.41439689 10.8677043,6.78210117 12.0525292,6.78210117 C13.1964981,6.78210117 14.9533074,6.1692607 14.9533074,4.53501946 C14.9533074,2.85992218 12.5836576,2.69649805 12.5836576,1.96108949 Z M19.5291829,0.122568093 L18.1400778,0.122568093 C17.5272374,0.122568093 17.3638132,0.612840467 17.3638132,0.612840467 L14.8307393,6.65953307 L16.5875486,6.65953307 L16.9552529,5.67898833 L19.1206226,5.67898833 L19.3249027,6.65953307 L20.8774319,6.65953307 L19.5291829,0.122568093 Z M17.4455253,4.3307393 L18.344358,1.92023346 L18.8346304,4.3307393 L17.4455253,4.3307393 Z" id="Shape" fill="#000000"></path>
                <path d="M3.59533074,0.73540856 C3.59533074,0.73540856 3.51361868,0.163424125 2.77821012,0.163424125 L0.0408560311,0.163424125 L5.05151476e-15,0.285992218 C5.05151476e-15,0.285992218 1.307393,0.531128405 2.57392996,1.55252918 C3.75875486,2.4922179 4.16731518,3.6770428 4.16731518,3.6770428 L3.59533074,0.73540856 Z" id="Path" fill="#C2C2C2"></path>
            </g>
            <polygon id="Shape" points="0 0 24 0 24 24 0 24"></polygon>
        </g>
    </g>
</svg>