<?xml version="1.0" encoding="UTF-8"?>
<svg width="24px" height="24px" viewBox="0 0 24 24" version="1.1" xmlns="http://www.w3.org/2000/svg" xmlns:xlink="http://www.w3.org/1999/xlink">
    <title>icon-wellness</title>
    <g id="Icon" stroke="none" stroke-width="1" fill="none" fill-rule="evenodd">
        <g id="icon-wellness">
            <polygon id="Bg-24" points="0 0 24 0 24 24 0 24"></polygon>
            <path d="M19.2101167,7.0233463 L16.6420233,4.45525292 C16.3618677,4.64202335 16.0350195,4.78210117 15.7081712,4.87548638 C14.7743191,5.24902724 13.9338521,5.80933852 13.1867704,6.50972763 L11.9727626,7.72373541 L18.8832685,7.72373541 C18.9766537,7.49027237 19.0700389,7.25680934 19.2101167,7.0233463 Z M21.5447471,8.47081712 L5.10894942,8.47081712 C5.10894942,8.47081712 5.10894942,8.47081712 5.10894942,8.47081712 L2.12062257,8.47081712 C1.51361868,8.47081712 1,8.9844358 1,9.59143969 C1,10.1984436 1.51361868,10.7120623 2.12062257,10.7120623 L21.5447471,10.7120623 C22.151751,10.7120623 22.6653696,10.1984436 22.6653696,9.59143969 C22.6653696,8.9844358 22.151751,8.47081712 21.5447471,8.47081712 Z M7.72373541,7.72373541 C9.6848249,7.53696498 11.2723735,5.94941634 11.459144,3.98832685 L9.96498054,3.98832685 C9.87159533,5.15564202 9.35797665,6.22957198 8.56420233,7.07003891 C8.28404669,7.30350195 8.00389105,7.53696498 7.72373541,7.72373541 Z M20.2840467,5.48249027 L18.1828794,3.38132296 C17.9027237,3.6614786 17.6225681,3.84824903 17.2957198,4.08171206 L19.5836576,6.36964981 C19.8171206,6.04280156 20.0505837,5.76264591 20.2840467,5.48249027 Z M21.077821,5.24902724 C21.2178988,5.38910506 21.4513619,5.52918288 21.7315175,5.52918288 C21.9649805,5.52918288 22.1984436,5.38910506 22.385214,5.24902724 C22.7587549,4.87548638 22.7587549,4.26848249 22.385214,3.89494163 L19.770428,1.28015564 C19.6303502,1.09338521 19.3968872,1 19.1167315,1 C18.8832685,1 18.6498054,1.09338521 18.463035,1.28015564 C18.0894942,1.6536965 18.0894942,2.26070039 18.463035,2.63424125 L21.077821,5.24902724 Z M7.72373541,2.44747082 C7.77042802,2.21400778 7.95719844,2.07392996 8.14396887,2.12062257 C8.37743191,2.16731518 8.51750973,2.3540856 8.47081712,2.54085603 C8.19066148,4.08171206 7.58365759,5.52918288 6.60311284,6.74319066 L5.94941634,7.63035019 C6.69649805,7.49027237 7.44357977,7.11673152 8.00389105,6.50972763 C8.79766537,5.76264591 9.21789883,4.73540856 9.21789883,3.61478599 L9.21789883,1 C7.11673152,1.18677043 5.48249027,2.96108949 5.48249027,5.10894942 L5.48249027,7.0233463 L6.04280156,6.27626459 C6.92996109,5.15564202 7.49027237,3.84824903 7.72373541,2.44747082 Z M4.73540856,7.39688716 L4.73540856,5.6692607 C3.52140078,4.92217899 2.58754864,3.84824903 1.93385214,2.58754864 L1.79377432,2.307393 L2.44747082,1.93385214 L2.58754864,2.26070039 C3.10116732,3.24124514 3.84824903,4.12840467 4.73540856,4.78210117 C4.78210117,4.26848249 4.92217899,3.70817121 5.10894942,3.24124514 C4.12840467,1.93385214 2.63424125,1.14007782 1,1 L1,2.12062257 C1,4.50194553 2.49416342,6.60311284 4.73540856,7.39688716 Z M7.0233463,19.9105058 C7.35019455,20.0505837 7.53696498,20.3307393 7.63035019,20.6575875 C7.6770428,20.9844358 7.63035019,21.2645914 7.49027237,21.4980545 C7.39688716,21.6381323 7.35019455,21.8249027 7.35019455,21.9649805 C7.39688716,22.3385214 7.72373541,22.6653696 8.14396887,22.6653696 L15.5214008,22.6653696 C15.9416342,22.6653696 16.2684825,22.3385214 16.3151751,21.9649805 C16.3151751,21.8249027 16.2684825,21.6381323 16.1750973,21.4980545 C16.0350195,21.2645914 15.9883268,20.9844358 16.0350195,20.6575875 C16.1284047,20.3307393 16.3151751,20.0505837 16.6420233,19.9105058 C19.6770428,18.1828794 21.5447471,14.9610895 21.5447471,11.459144 L2.12062257,11.459144 C2.12062257,14.9610895 3.98832685,18.1828794 7.0233463,19.9105058 Z M19.9105058,12.9066148 L20.6575875,13 C20.1439689,15.848249 18.3229572,18.2762646 15.7081712,19.536965 L15.4280156,18.8832685 C17.7626459,17.7159533 19.4902724,15.4747082 19.9105058,12.9066148 Z M12.5797665,12.2062257 L13.3268482,12.2062257 L13.3268482,12.9533074 L12.5797665,12.9533074 L12.5797665,12.2062257 Z M11.8326848,12.2062257 L11.8326848,12.9533074 L2.86770428,12.9533074 L2.86770428,12.2062257 L11.8326848,12.2062257 Z" id="Shape" fill="#000000" fill-rule="nonzero"></path>
        </g>
    </g>
</svg>