<?xml version="1.0" encoding="UTF-8"?>
<svg width="24px" height="24px" viewBox="0 0 24 24" version="1.1" xmlns="http://www.w3.org/2000/svg" xmlns:xlink="http://www.w3.org/1999/xlink">
    <title>icon-wifi</title>
    <g id="Icon" stroke="none" stroke-width="1" fill="none" fill-rule="evenodd">
        <g id="icon-wifi">
            <path d="M21.8638132,9.54863813 C16.4007782,4.03891051 7.52918288,4.03891051 2.06614786,9.54863813 C1.55252918,10.0155642 0.852140078,10.0155642 0.385214008,9.54863813 C-0.128404669,9.03501946 -0.128404669,8.33463035 0.385214008,7.86770428 C6.82879377,1.37743191 17.2412451,1.37743191 23.5447471,7.86770428 C24.0583658,8.33463035 24.0583658,9.03501946 23.5447471,9.54863813 C23.077821,10.0155642 22.3774319,10.0155642 21.8638132,9.54863813 Z M18.4085603,12.8638132 C14.8132296,9.40856031 9.11673152,9.40856031 5.61478599,12.8638132 C5.14785992,13.3307393 4.44747082,13.3307393 3.93385214,12.8638132 C3.46692607,12.3968872 3.46692607,11.6964981 3.93385214,11.1828794 C8.36964981,6.6536965 15.6536965,6.6536965 20.0894942,11.1828794 C20.5564202,11.6964981 20.5564202,12.3968872 20.0894942,12.8638132 C19.6225681,13.3307393 18.8754864,13.3307393 18.4085603,12.8638132 Z M15.0933852,16.459144 C13.4124514,14.7782101 10.7509728,14.7782101 9.21011673,16.459144 C8.74319066,16.92607 8.04280156,16.92607 7.52918288,16.459144 C7.06225681,15.9922179 7.06225681,15.151751 7.52918288,14.6848249 C10.0505837,11.9299611 14.2529183,11.9299611 16.7276265,14.6848249 C17.2412451,15.151751 17.2412451,15.9922179 16.7276265,16.459144 C16.2607004,16.92607 15.5603113,16.92607 15.0933852,16.459144 Z M14.3463035,19.5875486 C14.3463035,20.8015564 13.3190661,21.8287938 12.1050584,21.8287938 C10.844358,21.8287938 9.81712062,20.8015564 9.81712062,19.5875486 C9.81712062,18.3268482 10.844358,17.2996109 12.1050584,17.2996109 C13.3190661,17.2996109 14.3463035,18.3268482 14.3463035,19.5875486 Z" id="Shape" fill="#000000" fill-rule="nonzero"></path>
            <polygon id="Bg-24" points="0 0 24 0 24 24 0 24"></polygon>
        </g>
    </g>
</svg>