<svg width="108" height="22" viewBox="0 0 108 22" fill="none" xmlns="http://www.w3.org/2000/svg">
<path fill-rule="evenodd" clip-rule="evenodd" d="M74.2726 21.4448H70.1957V0H74.2726V21.4448ZM0.0756845 4.69373L0 4.7336V8.90895L6.71068 5.38631V15.0723C6.71068 17.5786 7.62899 19.3324 8.41611 20.0749C8.87022 20.4983 9.40506 20.8172 10.0105 21.0165C10.6917 21.2606 11.1256 21.3803 11.4081 21.3951C11.7059 21.4151 12.0036 21.43 12.3417 21.43C13.4314 21.43 14.3548 21.3951 15.0915 21.3154L15.2176 21.3005V17.7829L15.0663 17.7928C14.6172 17.8177 14.1278 17.8277 13.603 17.8277C11.7059 17.8277 10.7825 16.9458 10.7825 15.1371V5.39128L17.4932 8.91394V4.7336L8.75417 0.104828L0.0756845 4.69373ZM85.3726 4.55902C82.8901 4.55902 80.8164 5.40108 79.2118 7.06026C77.6074 8.71943 76.795 10.7922 76.795 13.2137C76.795 15.7648 77.6325 17.8673 79.2926 19.4667C80.9727 21.0861 83.0365 21.8733 85.5996 21.8733C87.8046 21.8733 89.9388 21.3801 91.9269 20.4034L92.0783 20.3287L89.7774 17.115L89.6664 17.1649C88.405 17.7677 87.0831 18.0667 85.6349 18.0667C83.1777 18.0667 81.5934 17.0203 80.9224 14.9575H93.935V13.5525C93.935 10.7523 93.0823 8.5301 91.4021 6.94566C89.7169 5.36121 87.6885 4.55902 85.3726 4.55902ZM45.7885 4.98758V6.45743C44.2899 5.19685 42.3373 4.55908 39.986 4.55908C37.66 4.55908 35.6266 5.41608 33.9363 7.10018C33.689 7.34432 33.4671 7.59843 33.2552 7.85752C32.024 9.38218 31.4033 11.1759 31.4033 13.1988C31.4033 15.2317 32.0291 17.0254 33.2552 18.545C33.4671 18.8091 33.6992 19.0682 33.9514 19.3174C34.8394 20.2142 35.8284 20.8768 36.9082 21.3053C37.8669 21.6841 38.8911 21.8784 39.981 21.8784C41.2525 21.8784 42.4029 21.6841 43.4372 21.3053C44.305 20.9914 45.0871 20.553 45.7784 19.98V21.3053V21.4499H49.8552V4.98758H46.5201H45.7885ZM44.2914 16.6915C43.2925 17.6082 42.0462 18.0716 40.593 18.0716C39.1551 18.0716 37.9339 17.6082 36.9702 16.6915C35.9863 15.7897 35.4869 14.6237 35.4869 13.2187C35.4869 11.7987 35.9712 10.6576 36.9702 9.7259C37.939 8.82406 39.1551 8.36566 40.588 8.36566C42.0361 8.36566 43.2773 8.82406 44.2864 9.7259C45.2956 10.6526 45.7901 11.7936 45.7901 13.2187C45.7901 14.6487 45.3006 15.7847 44.2914 16.6915ZM23.8865 7.28941C25.2034 5.62525 27.0653 4.7832 29.4267 4.7832C29.8756 4.7832 30.2793 4.79317 30.6628 4.81309L30.7939 4.82306V8.70943L29.7092 8.57988C27.8928 8.57988 26.4497 9.27743 25.4456 10.6476C24.3961 12.0726 23.8865 13.4977 23.8865 15.0023V21.4448H19.8096V4.98748H23.8865V7.28941ZM83.7672 8.62984C82.3948 9.10318 81.4058 10.1096 80.9567 11.4699H89.7614C89.4283 10.4883 88.8632 9.726 88.0811 9.19287C86.8753 8.34085 85.2203 8.1266 83.7672 8.62984ZM105.793 4.77826C106.242 4.77826 106.645 4.79321 107.029 4.81812L107.16 4.8231V8.70947L106.075 8.57993C104.259 8.57993 102.816 9.27748 101.812 10.6477C100.762 12.0727 100.253 13.4977 100.253 15.0024V21.4398H96.1707V4.98254H100.253V7.28447C101.569 5.62031 103.431 4.77826 105.793 4.77826ZM52.7475 8.7692H62.0969L52.7929 17.4936L52.7475 17.5335V21.4448H67.3898V17.6581H57.9999L67.3898 8.7991V4.98248H52.7475V8.7692Z" fill="#7A65E1"/>
</svg>
