<svg width="11" height="7" viewBox="0 0 11 7" fill="none" xmlns="http://www.w3.org/2000/svg">
<path d="M5.49236 4.60815L9.04229 1.05821C9.1069 0.987264 9.18509 0.93 9.27222 0.889809C9.35936 0.849617 9.45367 0.827316 9.54958 0.824225C9.64549 0.821134 9.74104 0.837316 9.83058 0.871813C9.92012 0.90631 10.0018 0.95842 10.0709 1.02506C10.1399 1.0917 10.1949 1.17151 10.2325 1.25978C10.2702 1.34804 10.2897 1.44296 10.29 1.53892C10.2904 1.63488 10.2714 1.72992 10.2343 1.81843C10.1972 1.90693 10.1428 1.98709 10.0742 2.05417L10.0567 2.07165L6.00005 6.12927C5.86552 6.26377 5.68307 6.33933 5.49284 6.33933C5.30261 6.33933 5.12017 6.26377 4.98564 6.12927L0.928986 2.07262C0.861232 2.00716 0.807034 1.92899 0.769488 1.84259C0.731941 1.75618 0.711781 1.66323 0.710159 1.56903C0.708536 1.47484 0.725483 1.38124 0.760031 1.2936C0.79458 1.20595 0.846053 1.12597 0.911513 1.05821C0.976972 0.990458 1.05514 0.936261 1.14154 0.898714C1.22795 0.861168 1.3209 0.841008 1.4151 0.839385C1.50929 0.837763 1.60289 0.854709 1.69053 0.889258C1.77818 0.923806 1.85816 0.97528 1.92592 1.04074L1.94339 1.05821L5.49236 4.60815Z" fill="#D0D2DB" stroke="#D0D2DB" stroke-width="0.5"/>
</svg>
