<svg width="195" height="255" viewBox="0 0 195 255" fill="none" xmlns="http://www.w3.org/2000/svg">
    <path d="M164.362 42.1087C152.482 33.0084 136.053 30.2021 121.83 34.8476C107.607 39.4931 96.0004 51.4542 91.7772 65.8131C89.8291 72.4476 88.0854 80.9212 81.3419 82.4742C77.5546 83.3461 73.7538 81.4389 70.1436 79.9948C55.9346 74.3276 39.11 75.649 25.9637 83.4823C12.8173 91.3157 3.63524 105.47 1.8506 120.674C0.147706 135.21 4.92945 149.909 12.5039 162.429C31.7944 194.293 69.5578 206.854 107.117 206.867C153.94 206.881 177.957 178.395 189.946 143.138C201.948 107.868 191.267 67.8702 164.362 42.1087Z" fill="#F1EEFB"/>
    <path d="M162.781 188.858C165.355 184.335 166.704 177.864 167.74 172.482C168.775 167.101 166.922 160.753 162.031 158.287C159.211 156.857 155.874 156.911 152.768 157.415C144.43 158.75 136.597 163.096 131.066 169.485C132.197 164.908 132.81 158.982 128.791 156.516C125.072 154.227 120.304 156.87 117.007 159.745C110.291 165.603 104.773 172.823 100.891 180.833C92.8802 171.951 80.1016 167.646 68.3448 169.894C56.6016 172.142 46.3025 180.861 42.1475 192.073C42.1475 192.073 82.9216 212.834 119.949 206.431C154.92 200.41 162.781 188.858 162.781 188.858Z" fill="#D5CCE2"/>
    <path d="M22.5847 130.428C21.9308 133.588 21.3995 136.749 20.8954 139.937C20.7456 140.863 21.3995 141.49 22.3123 141.354C25.3094 140.931 28.2928 140.536 31.2491 139.855C31.9302 139.692 32.2163 138.861 31.8894 138.275C30.9221 136.572 30.0093 134.91 28.8105 133.357C27.7479 131.994 26.4946 130.223 24.8734 129.529C23.8653 129.093 22.5983 130.033 23.2659 131.136C24.1105 132.553 25.5955 133.561 26.6989 134.787C27.9523 136.19 29.1511 137.689 30.0502 139.351C30.3636 138.82 30.6633 138.275 30.9766 137.743C27.8569 138.016 24.8053 138.574 21.7128 139.133C22.2033 139.501 22.6937 139.869 23.1705 140.25C23.5247 137.049 23.838 133.847 24.0424 130.632C24.0833 129.801 22.7618 129.61 22.5847 130.428Z" fill="#E3707F"/>
    <path d="M120.25 134.12C121.394 131.708 124.2 130.019 126.789 131.668C128.492 132.744 128.696 134.61 129.445 136.245C130.249 138.016 131.148 139.487 133.055 140.182C136.924 141.585 140.753 138.452 140.248 134.433C140.071 132.975 138.001 132.894 137.905 134.433C135.971 138.602 133.995 139.092 132.006 135.904C131.666 135.06 131.325 134.201 131.012 133.357C130.685 132.635 130.413 131.926 129.922 131.272C128.955 129.978 127.511 129.011 125.903 128.711C122.402 128.057 119.691 130.251 118.819 133.52C118.615 134.351 119.868 134.937 120.25 134.12Z" fill="#7A65E1"/>
    <path d="M137.783 44.5201C136.72 42.2314 137.415 39.3569 139.813 38.3079C141.57 37.5314 143.177 38.267 144.853 38.8528C146.856 39.5476 148.926 39.9835 150.875 38.8528C154.457 36.7685 154.389 31.6461 150.915 29.5482C149.785 28.867 148.531 30.4609 149.499 31.3873C150.098 31.9595 151.202 33.3763 151.079 34.1937C150.806 36.1009 148.981 37.1908 147.21 36.9592C146.052 36.8093 144.948 36.1418 143.831 35.8148C141.951 35.2699 140.071 35.2699 138.328 36.2508C134.935 38.158 134.282 42.2041 136.461 45.2966C137.02 46.1276 138.205 45.4328 137.783 44.5201Z" fill="#7A65E1"/>
    <path d="M72.5276 91.5337C72.9363 93.5636 75.116 98.141 77.4047 98.6859C78.6171 98.972 79.4754 98.1955 80.4154 97.5415C82.1728 96.3291 83.9029 95.0894 85.6467 93.8497C86.2052 93.4546 86.5322 92.6781 86.1235 92.0378C84.5841 89.6674 83.0446 87.2969 81.5052 84.9265C81.1374 84.3679 80.3064 84.0273 79.6934 84.4497C77.7861 85.7984 75.7426 87.0517 73.9852 88.6184C72.9226 89.572 74.285 91.1931 75.4702 90.5392C77.4183 89.463 79.2029 88.0189 81.0148 86.7247C80.4154 86.5613 79.8023 86.4114 79.2029 86.2479C80.7423 88.6184 82.2818 90.9888 83.8212 93.3592C83.9847 92.7598 84.1345 92.1468 84.298 91.5474C83.249 92.2966 82.2136 93.0323 81.1647 93.7816C80.5516 94.2175 78.5354 96.1111 77.8406 95.9613C77.0777 95.7978 76.0423 93.9178 75.5791 93.3456C74.8571 92.4601 74.176 91.6291 73.2632 90.9479C72.8818 90.6618 72.4458 91.1523 72.5276 91.5337Z" fill="#EDC483"/>
    <path d="M132.674 7.3151C133.083 9.34495 135.262 13.9223 137.551 14.4673C138.764 14.7534 139.622 13.9768 140.562 13.3229C142.319 12.1104 144.049 10.8707 145.793 9.63103C146.352 9.23596 146.679 8.45944 146.27 7.81915C144.731 5.44871 143.191 3.07828 141.652 0.707844C141.284 0.149294 140.453 -0.191273 139.84 0.231045C137.933 1.57974 135.889 2.83307 134.132 4.39974C133.069 5.35336 134.431 6.9745 135.617 6.32059C137.565 5.24436 139.349 3.80032 141.161 2.50611C140.562 2.34264 139.949 2.19277 139.349 2.02929C140.889 4.39973 142.428 6.77016 143.968 9.1406C144.131 8.54118 144.281 7.92813 144.444 7.32871C143.396 8.07799 142.36 8.81364 141.311 9.56291C140.698 9.99885 138.682 11.8925 137.987 11.7426C137.224 11.5792 136.189 9.69915 135.726 9.12698C135.004 8.24147 134.322 7.41045 133.41 6.72929C133.028 6.4432 132.592 6.92002 132.674 7.3151Z" fill="#FF6666"/>
    <path d="M103.261 83.455C103.261 83.455 100.509 80.6895 100.142 80.2808C97.9755 77.8831 100.128 79.2454 101.109 79.5043C101.967 79.7359 99.5149 73.7689 100.305 73.9869C101.095 74.2049 101.994 77.1066 101.994 77.1066C101.994 77.1066 100.945 73.0605 101.817 73.8915C102.689 74.7225 103.506 77.0249 103.506 77.0249C103.506 77.0249 102.58 72.8153 103.329 73.6872C104.065 74.5591 104.596 76.1121 104.596 76.1121C104.596 76.1121 104.133 72.4747 104.801 73.4692C105.468 74.4773 109.814 82.6921 109.814 82.6921L103.261 83.455Z" fill="#E5B1B1"/>
    <path d="M99.1202 85.2941C99.1202 85.2941 101.872 82.5286 102.24 82.1199C104.406 79.7222 102.253 81.0846 101.273 81.3434C100.414 81.575 102.867 75.608 102.076 75.826C101.286 76.044 100.387 78.9457 100.387 78.9457C100.387 78.9457 101.436 74.8996 100.564 75.7307C99.6923 76.5617 98.8749 78.864 98.8749 78.864C98.8749 78.864 99.8013 74.6544 99.052 75.5263C98.3164 76.3982 97.7851 77.9512 97.7851 77.9512C97.7851 77.9512 98.2483 74.3138 97.5807 75.3083C96.9132 76.3164 92.5674 84.5312 92.5674 84.5312L99.1202 85.2941Z" fill="#F9C8C7"/>
    <path d="M152.85 98.6042C153.899 98.1682 155.138 98.2636 156.106 98.8494C157.073 99.4352 157.727 100.498 157.836 101.615C157.904 102.46 157.686 103.304 157.522 104.135C157.359 104.966 157.264 105.852 157.577 106.642C157.89 107.432 158.735 108.072 159.552 107.882C159.893 107.8 160.206 107.609 160.547 107.636C161.01 107.691 161.323 108.195 161.255 108.658C161.201 109.121 160.847 109.503 160.438 109.721C160.029 109.939 159.566 110.02 159.103 110.102C159.607 110.62 160.016 111.219 160.302 111.873C160.411 112.118 160.506 112.391 160.424 112.65C160.302 112.99 159.879 113.14 159.525 113.072C159.171 113.004 158.871 112.786 158.585 112.568C159.076 112.854 158.953 113.671 158.476 113.998C158.013 114.325 157.386 114.312 156.814 114.284C155.588 114.216 154.28 114.121 153.286 113.399C152.346 112.704 151.855 111.56 151.501 110.443C150.765 108.086 150.438 105.606 150.575 103.141" fill="#251A51"/>
    <path d="M137.238 155.236C137.238 155.236 138.777 134.76 138.11 133.207C137.442 131.64 134.486 121.464 134.486 121.464L140.861 111.233L149.117 109.898L155.275 115.224C158.735 118.221 160.792 122.526 160.915 127.104L161.719 154.418L137.238 155.236Z" fill="url(#paint0_linear_1349_168008)"/>
    <path d="M111.122 55.6094L112.348 77.5018H124.867L126.761 84.9809L128.9 77.5018C128.9 77.5018 146.242 77.5018 147.182 77.5018C148.122 77.5018 147.182 48.9476 147.182 48.9476L111.122 55.6094Z" fill="white"/>
    <path d="M66.0288 122.54C65.879 122.077 66.7645 112.895 56.2201 113.14C46.3297 113.372 39.7769 116.341 35.5674 121.014L39.1231 135.373L40.39 159.527L68.4129 156.952L66.0288 122.54Z" fill="url(#paint1_linear_1349_168008)"/>
    <path d="M36.2082 120.02C36.2082 120.02 22.2444 140.672 23.5523 156.979C24.8601 173.286 44.2459 157.797 46.3847 155.985C48.5235 154.173 50.6624 151.04 50.6624 151.04L49.3682 143.465L36.1946 149.555L41.0308 140.073L36.2082 120.02Z" fill="url(#paint2_linear_1349_168008)"/>
    <path d="M58.373 113.072C58.373 113.072 70.8655 106.724 77.1049 100.797C83.3443 94.885 94.4881 81.4525 94.4881 81.4525L99.6104 85.6757C99.6104 85.6757 88.2487 104.326 81.2463 112.037C76.6689 117.077 65.2391 127.921 65.2391 127.921L58.373 113.072Z" fill="url(#paint3_linear_1349_168008)"/>
    <path d="M142.687 110.47C142.687 110.47 130.658 104.353 124.636 98.645C118.615 92.9505 106.913 78.3737 106.913 78.3737L102.962 84.0682C102.962 84.0682 113.915 102.037 120.658 109.462C125.072 114.312 136.08 124.774 136.08 124.774L142.687 110.47Z" fill="url(#paint4_linear_1349_168008)"/>
    <path d="M44.9538 108.917C42.0657 109.966 43.0738 106.669 42.9784 105.266C42.8694 103.863 42.9512 102.405 42.379 101.124C41.9158 100.103 41.0439 99.2034 41.0439 98.0863C41.0439 97.2416 41.548 96.4788 41.766 95.6477C42.0657 94.517 41.7796 93.3045 41.9703 92.1466C42.3381 89.926 44.6405 88.2231 46.861 88.5092C47.9781 88.659 49.0544 89.2312 50.1579 89.0677C51.3839 88.9043 52.3103 87.9098 53.3729 87.2831C54.8578 86.4112 56.806 86.2614 58.3318 87.0515C59.8712 87.8417 60.9065 89.5854 60.7158 91.3019C60.5251 93.0185 59.0402 94.5443 57.31 94.6396C56.3019 94.6941 55.3346 94.3127 54.3538 94.0674C53.3729 93.8222 52.2558 93.7269 51.4248 94.299C50.3758 95.0211 49.9263 96.6695 48.6593 96.7921C47.9918 96.8602 47.3923 96.4243 46.7793 96.1518C46.1662 95.8793 45.308 95.8248 44.9538 96.397C44.6677 96.8738 44.8993 97.4733 44.9674 98.0318C45.09 99.0399 44.8448 100.048 43.9321 100.498C43.5642 103.277 44.4089 105.96 45.2399 108.644" fill="#552E3B"/>
    <path d="M44.0824 92.5689L43.7283 100.811C43.7283 100.811 41.1943 100.784 41.1943 103.1C41.1943 106.029 43.9462 105.538 43.9462 105.538C43.9462 105.538 43.374 111.11 51.0303 111.573C59.9807 112.105 58.0735 98.1272 57.7329 91.5608L44.0824 92.5689Z" fill="#F9C8C7"/>
    <path d="M152.182 92.9641L152.455 99.1626C152.455 99.1626 154.962 99.1354 154.962 101.438C154.962 104.326 152.251 103.849 152.251 103.849C152.251 103.849 152.809 109.366 145.248 109.816C137.565 110.279 137.96 99.9119 138.437 92.9096C138.546 91.3157 139.935 90.1032 141.529 90.2258L150.153 90.8661C151.256 90.9342 152.142 91.847 152.182 92.9641Z" fill="#F9C8C7"/>
    <path d="M54.082 105.157L53.6324 115.211C53.5098 118.031 50.5263 119.788 47.9924 118.521C47.9652 118.508 47.9243 118.494 47.8971 118.467C46.5348 117.786 45.7037 116.382 45.7446 114.857C45.8536 111.328 45.8945 105.239 45.8945 105.239L54.082 105.157Z" fill="#F9C8C7"/>
    <path d="M52.188 104.162C52.2016 104.149 52.2425 104.271 52.406 104.367C52.5694 104.462 52.8964 104.489 53.1416 104.244C53.2642 104.121 53.3596 103.958 53.4141 103.767C53.4686 103.577 53.4686 103.345 53.4549 103.113C53.4277 102.637 53.3868 102.119 53.346 101.574C53.2779 100.47 53.2234 99.4896 53.1825 98.7675C53.1689 98.4133 53.1552 98.1136 53.1552 97.9093C53.1552 97.7049 53.1552 97.5959 53.1689 97.5959C53.1825 97.5959 53.1961 97.7049 53.2234 97.9093C53.2506 98.1136 53.2779 98.3997 53.3051 98.7539C53.3596 99.476 53.4413 100.47 53.5094 101.56C53.5367 102.105 53.5776 102.623 53.6048 103.113C53.6184 103.359 53.6048 103.59 53.5367 103.808C53.4822 104.026 53.3596 104.203 53.2234 104.339C53.0871 104.462 52.91 104.53 52.7601 104.53C52.6103 104.53 52.4741 104.489 52.3923 104.435C52.2016 104.299 52.188 104.162 52.188 104.162Z" fill="#E08F8D"/>
    <path d="M53.0053 106.11C53.0189 106.124 52.8282 106.247 52.474 106.315C52.1334 106.383 51.6021 106.356 51.1253 106.083C50.6485 105.797 50.3624 105.361 50.2534 105.021C50.1444 104.68 50.1581 104.462 50.1717 104.462C50.1989 104.462 50.2126 104.68 50.3488 104.993C50.485 105.307 50.7575 105.702 51.1934 105.961C51.643 106.219 52.1198 106.26 52.4604 106.219C52.801 106.179 52.9917 106.083 53.0053 106.11Z" fill="#E08F8D"/>
    <path d="M50.5124 104.326C50.4988 104.367 50.2536 104.312 50.0083 104.462C49.7495 104.598 49.6678 104.843 49.6269 104.83C49.6133 104.83 49.5997 104.762 49.6405 104.653C49.6814 104.544 49.7768 104.421 49.9266 104.339C50.0765 104.258 50.2399 104.23 50.3489 104.258C50.4579 104.271 50.526 104.312 50.5124 104.326Z" fill="#E08F8D"/>
    <path d="M54.232 110.933C54.232 110.947 54.1366 111.015 53.9323 111.124C53.7279 111.233 53.4282 111.369 53.0468 111.505C52.2703 111.778 51.1259 111.982 49.8726 111.805C48.6192 111.628 47.5702 111.11 46.9027 110.647C46.5621 110.415 46.3169 110.197 46.1535 110.034C45.99 109.87 45.9082 109.775 45.9082 109.775C45.9218 109.748 46.2761 110.116 46.9572 110.565C47.6248 111.001 48.6601 111.492 49.8862 111.669C51.1123 111.846 52.2294 111.655 53.0059 111.424C53.7824 111.151 54.2184 110.906 54.232 110.933Z" fill="#E08F8D"/>
    <path d="M42.7744 104.244C42.7607 104.217 42.9787 104.135 43.0877 103.822C43.1422 103.672 43.1558 103.468 43.0741 103.277C43.0059 103.086 42.8016 102.923 42.5836 102.95C42.3793 102.964 42.2567 103.222 42.352 103.359L42.2158 103.413C42.0932 102.718 42.0387 102.228 42.066 102.214C42.0932 102.214 42.2158 102.691 42.352 103.386L42.4338 103.781L42.2294 103.44C42.0796 103.209 42.2567 102.841 42.57 102.8C42.7199 102.773 42.8697 102.827 42.9923 102.909C43.1013 102.991 43.183 103.113 43.2239 103.222C43.3056 103.454 43.2784 103.686 43.2103 103.863C43.1422 104.026 43.0332 104.149 42.9378 104.19C42.8288 104.244 42.7744 104.258 42.7744 104.244Z" fill="#E08F8D"/>
    <path d="M49.7089 100.021C49.6271 100.021 49.559 99.694 49.5454 99.2853C49.5454 98.8766 49.6135 98.536 49.6952 98.536C49.777 98.536 49.8451 98.863 49.8588 99.2717C49.8588 99.694 49.7906 100.021 49.7089 100.021Z" fill="#452775"/>
    <path d="M56.0431 99.7075C55.9614 99.7075 55.8797 99.435 55.8797 99.0944C55.8661 98.7539 55.9342 98.4678 56.0159 98.4678C56.0977 98.4678 56.1794 98.7403 56.1794 99.0808C56.1794 99.4214 56.1249 99.7075 56.0431 99.7075Z" fill="#452775"/>
    <path d="M43.8511 100.825C43.6876 101.329 43.5105 101.887 43.7285 102.378C43.9328 102.868 44.7093 103.1 44.9954 102.664C45.1044 102.487 45.118 102.269 45.118 102.064C45.1317 100.634 45.1453 99.217 45.1589 97.7866C47.216 97.4188 48.987 95.784 49.5183 93.7678C50.6082 94.4353 52.0386 94.4762 53.1693 93.8904C53.6325 93.6452 54.1094 93.291 54.627 93.3591C55.2537 93.4408 55.6215 94.0947 56.1392 94.4489C57.0383 95.0892 58.4688 94.6942 58.9183 93.686C59.3815 92.6507 58.7548 91.3701 57.7876 90.7843C56.5615 90.0486 55.0221 90.1849 53.6053 90.3484C50.9896 90.6617 48.3603 90.9614 45.7447 91.2747C45.2406 91.3292 44.7093 91.411 44.3143 91.7243C43.9056 92.0513 43.7148 92.5689 43.565 93.073C42.9792 95.0347 42.7067 97.1055 42.7612 99.1489C42.7748 99.7756 42.8838 100.511 43.4424 100.825" fill="#552E3B"/>
    <path d="M50.5672 97.0647C50.6081 97.2691 50.1585 97.5279 49.5727 97.6505C48.9869 97.7595 48.4692 97.6914 48.4284 97.487C48.3875 97.2827 48.8371 97.0238 49.4229 96.9012C50.0223 96.7786 50.5263 96.8604 50.5672 97.0647Z" fill="#552E3B"/>
    <path d="M56.8063 96.9693C56.7927 97.1737 56.3977 97.3235 55.9345 97.2826C55.4713 97.2554 55.1034 97.0511 55.1171 96.8467C55.1307 96.6424 55.5258 96.4925 55.989 96.5334C56.4522 96.5606 56.8199 96.765 56.8063 96.9693Z" fill="#552E3B"/>
    <path d="M37.3111 55.0506L35.5674 77.1202L66.9143 77.2292V83.7955L71.5598 77.1202L82.9216 77.0384L84.6381 52.7483L37.3111 55.0506Z" fill="#EDC483"/>
    <path d="M48.9458 143.547C48.9458 143.547 52.0383 140.196 52.6513 140.291C53.3461 140.386 53.1826 140.182 53.4551 141.408C53.6594 142.375 59.8988 139.991 59.5991 140.849C59.3131 141.708 56.0435 142.525 56.0435 142.525C56.0435 142.525 60.58 141.612 59.5991 142.525C58.6319 143.438 56.0435 144.214 56.0435 144.214C56.0435 144.214 60.7571 143.452 59.7354 144.214C58.7273 144.977 56.9699 145.468 56.9699 145.468C56.9699 145.468 61.0295 145.182 59.8716 145.849C58.7136 146.517 49.3681 150.835 49.3681 150.835L48.9458 143.547Z" fill="#F9C8C7"/>
    <path d="M142.21 103.822L142.66 113.876C142.782 116.696 145.766 118.453 148.3 117.186C148.327 117.172 148.368 117.159 148.395 117.132C149.757 116.45 150.588 115.047 150.547 113.521C150.438 109.993 150.398 103.903 150.398 103.903L142.21 103.822Z" fill="#F9C8C7"/>
    <path d="M144.294 103.263C144.281 103.249 144.253 103.372 144.076 103.454C143.927 103.549 143.6 103.576 143.368 103.331C143.245 103.222 143.164 103.059 143.109 102.868C143.055 102.677 143.055 102.459 143.068 102.241C143.095 101.778 143.136 101.274 143.164 100.756C143.232 99.6938 143.286 98.7402 143.313 98.0454C143.327 97.7049 143.341 97.4188 143.341 97.2281C143.341 97.0373 143.341 96.9283 143.327 96.9283C143.313 96.9283 143.3 97.0373 143.286 97.2281C143.259 97.4188 143.245 97.7049 143.204 98.0454C143.15 98.7402 143.082 99.6938 143.014 100.756C142.986 101.288 142.959 101.792 142.932 102.241C142.918 102.473 142.932 102.705 143 102.909C143.055 103.113 143.164 103.29 143.3 103.413C143.436 103.536 143.6 103.604 143.749 103.604C143.899 103.604 144.022 103.563 144.104 103.508C144.281 103.386 144.294 103.263 144.294 103.263Z" fill="#E08F8D"/>
    <path d="M143.504 105.13C143.49 105.143 143.681 105.266 144.022 105.334C144.349 105.402 144.866 105.375 145.33 105.102C145.793 104.83 146.065 104.394 146.174 104.081C146.283 103.754 146.27 103.536 146.256 103.536C146.229 103.536 146.215 103.74 146.079 104.04C145.956 104.339 145.684 104.721 145.262 104.98C144.839 105.225 144.362 105.266 144.049 105.225C143.708 105.198 143.518 105.116 143.504 105.13Z" fill="#E08F8D"/>
    <path d="M145.902 103.427C145.915 103.468 146.147 103.413 146.392 103.563C146.637 103.699 146.719 103.931 146.76 103.917C146.774 103.917 146.787 103.849 146.746 103.74C146.706 103.645 146.61 103.508 146.46 103.427C146.311 103.345 146.161 103.331 146.052 103.345C145.956 103.359 145.902 103.399 145.902 103.427Z" fill="#E08F8D"/>
    <path d="M142.374 109.584C142.374 109.598 142.469 109.652 142.66 109.761C142.851 109.87 143.137 109.993 143.505 110.129C144.24 110.388 145.33 110.579 146.529 110.415C147.714 110.252 148.722 109.761 149.349 109.312C149.676 109.094 149.908 108.876 150.071 108.726C150.221 108.576 150.303 108.481 150.303 108.481C150.289 108.454 149.948 108.808 149.295 109.23C148.654 109.652 147.673 110.116 146.502 110.279C145.344 110.443 144.268 110.265 143.532 110.048C142.81 109.802 142.388 109.557 142.374 109.584Z" fill="#E08F8D"/>
    <path d="M153.368 103.345C153.381 103.331 153.163 103.236 153.068 102.936C153.014 102.786 153 102.596 153.082 102.405C153.15 102.214 153.341 102.064 153.559 102.092C153.763 102.105 153.872 102.35 153.79 102.487L153.913 102.527C154.022 101.86 154.09 101.383 154.063 101.37C154.035 101.37 153.913 101.833 153.79 102.5L153.708 102.868L153.913 102.541C154.049 102.31 153.885 101.969 153.586 101.928C153.436 101.901 153.3 101.955 153.177 102.037C153.068 102.119 153 102.228 152.959 102.35C152.877 102.582 152.905 102.8 152.973 102.963C153.041 103.127 153.15 103.236 153.232 103.277C153.313 103.345 153.368 103.358 153.368 103.345Z" fill="#E08F8D"/>
    <path d="M146.678 99.2716C146.76 99.2716 146.828 98.9583 146.828 98.5632C146.828 98.1681 146.774 97.8412 146.692 97.8412C146.61 97.8412 146.542 98.1545 146.542 98.5496C146.542 98.9447 146.61 99.2716 146.678 99.2716Z" fill="#452775"/>
    <path d="M140.589 98.9719C140.67 98.9719 140.739 98.7131 140.752 98.3725C140.766 98.0455 140.698 97.7731 140.616 97.7731C140.534 97.7731 140.466 98.0319 140.452 98.3725C140.439 98.6995 140.507 98.9719 140.589 98.9719Z" fill="#452775"/>
    <path d="M152.332 100.048C152.496 100.539 152.659 101.07 152.455 101.547C152.25 102.023 151.515 102.241 151.229 101.819C151.12 101.656 151.12 101.438 151.12 101.233C151.106 99.8574 151.092 98.4814 151.092 97.1055C149.117 96.7513 147.401 95.171 146.896 93.2229C145.847 93.8632 144.458 93.904 143.382 93.3455C142.932 93.1139 142.483 92.7733 141.979 92.8414C141.379 92.9232 141.025 93.5498 140.521 93.8904C139.663 94.5035 138.273 94.122 137.851 93.1548C137.415 92.1603 138.014 90.9205 138.941 90.362C140.112 89.6536 141.597 89.7898 142.973 89.9533C145.493 90.253 148.027 90.5527 150.547 90.8524C151.038 90.9069 151.542 90.975 151.923 91.2747C152.318 91.5881 152.496 92.0922 152.645 92.569C153.204 94.4626 153.476 96.4516 153.408 98.4269C153.395 99.04 153.286 99.7348 152.754 100.034" fill="#251A51"/>
    <path d="M147.605 95.9612C147.577 96.0293 147.4 96.0157 147.21 96.0293C147.019 96.0293 146.842 96.0429 146.814 95.9748C146.774 95.9067 146.951 95.7569 147.21 95.7569C147.468 95.7432 147.632 95.8931 147.605 95.9612Z" fill="#251A51"/>
    <path d="M140.63 95.8384C140.603 95.9065 140.507 95.9474 140.412 95.9747C140.317 96.0019 140.208 96.0291 140.153 95.9883C140.085 95.9474 140.139 95.7839 140.33 95.7158C140.521 95.6613 140.657 95.7703 140.63 95.8384Z" fill="#251A51"/>
    <g opacity="0.23">
        <path d="M146.229 104.38C146.583 104.557 146.542 105.266 145.902 105.647C145.262 106.029 144.621 105.715 144.635 105.32C144.635 104.925 144.894 104.598 145.18 104.421C145.48 104.271 145.888 104.189 146.229 104.38Z" fill="#D1658F"/>
    </g>
    <path d="M138.409 135.319C138.328 135.332 137.36 131.79 136.243 127.404C135.126 123.017 134.281 119.434 134.35 119.42C134.431 119.407 135.399 122.949 136.516 127.335C137.646 131.722 138.491 135.291 138.409 135.319Z" fill="#473A60"/>
    <path d="M150.793 111.301C150.806 111.301 150.929 111.478 151.052 111.846C151.174 112.214 151.297 112.772 151.256 113.481C151.215 114.175 150.997 115.02 150.466 115.797C149.948 116.573 149.063 117.213 148.027 117.527C146.992 117.826 145.902 117.758 145.044 117.39C144.172 117.023 143.545 116.437 143.137 115.865C142.728 115.293 142.523 114.761 142.428 114.38C142.333 113.998 142.346 113.78 142.346 113.78C142.414 113.753 142.455 114.666 143.286 115.742C143.695 116.26 144.322 116.818 145.139 117.145C145.957 117.486 146.965 117.54 147.946 117.254C148.926 116.968 149.744 116.369 150.248 115.647C150.766 114.925 150.983 114.135 151.052 113.467C151.188 112.105 150.725 111.315 150.793 111.301Z" fill="#473A60"/>
    <path d="M11.5909 95.893C7.88539 94.5034 6.61843 89.2994 11.0732 87.7191C12.1903 87.324 13.5118 87.5692 14.6425 87.1061C16.359 86.4113 17.5442 85.1307 18.1572 83.4006C19.5059 79.5997 17.0674 75.4855 13.3347 74.382C12.1222 74.0142 11.0868 75.6762 12.0677 76.5617C13.6071 77.9513 16.0457 79.4907 15.31 82.0791C14.4926 84.9808 11.2775 84.2861 9.30217 85.2124C7.58565 86.0162 6.23697 87.5284 5.65117 89.3539C4.30248 93.5226 7.34043 97.051 11.3865 97.4733C12.3265 97.5278 12.3674 96.1791 11.5909 95.893Z" fill="#7A65E1"/>
    <path d="M61.3977 38.8255C61.3296 38.7983 61.2751 38.7847 61.207 38.7574C60.4032 38.4714 59.5586 39.207 59.5586 40.0108C59.5586 40.8145 60.4032 41.5502 61.207 41.2641C61.2751 41.2369 61.3296 41.2232 61.3977 41.196C62.5693 40.8009 62.5693 39.2206 61.3977 38.8255Z" fill="#8AA9FC"/>
    <path d="M26.6039 39.8746C24.7647 41.6183 24.0291 44.3021 25.7728 46.4273C27.4212 48.4299 30.5818 48.8386 32.6389 47.272C37.5569 43.5528 32.4891 36.1691 27.1351 37.8447C25.9772 38.1989 26.2633 39.7792 27.4076 39.8746C28.8653 40.0108 30.432 40.0108 31.6172 41.0326C32.8569 42.0952 32.8705 43.9343 31.8624 45.1604C29.1786 48.4572 24.5604 43.512 27.3123 40.5966C27.7754 40.1198 27.0807 39.425 26.6039 39.8746Z" fill="#8AA9FC"/>
    <path d="M159.988 57.8026C159.334 60.9631 158.803 64.1237 158.299 67.3115C158.149 68.2379 158.803 68.8646 159.716 68.7284C162.713 68.306 165.696 67.911 168.652 67.2298C169.334 67.0663 169.62 66.2353 169.293 65.6495C168.325 63.9466 167.413 62.2846 166.214 60.7315C165.151 59.3692 163.898 57.5982 162.277 56.9034C161.269 56.4675 160.002 57.4075 160.669 58.511C161.514 59.9278 162.999 60.9359 164.102 62.162C165.356 63.5652 166.554 65.0637 167.454 66.7258C167.767 66.1945 168.067 65.6495 168.38 65.1182C165.26 65.3907 162.209 65.9492 159.116 66.5078C159.607 66.8756 160.097 67.2434 160.574 67.6249C160.928 64.4234 161.241 61.222 161.446 58.0069C161.5 57.1759 160.165 56.9852 159.988 57.8026Z" fill="#FF6666"/>
    <path d="M180.587 42.136C183.325 42.136 183.325 37.8856 180.587 37.8856C177.849 37.8856 177.849 42.136 180.587 42.136Z" fill="#E3707F"/>
    <path d="M177.916 92.5553C176.118 92.5826 174.701 92.8142 173.53 94.3127C172.494 95.6478 172.195 97.4188 172.712 99.0263C173.816 102.446 177.985 104.121 181.118 102.296C184.197 100.498 185.028 96.5469 183.407 93.4681C181.499 89.8715 176.949 88.9316 173.584 90.9887C172.14 91.8742 173.407 93.904 174.892 93.2229C176.786 92.351 179.224 92.3373 180.791 93.8768C182.371 95.4298 182.535 97.8684 180.886 99.435C179.401 100.852 177.14 100.947 175.737 99.3533C174.17 97.5687 175.328 93.9176 177.93 93.7269C178.666 93.6724 178.679 92.5417 177.916 92.5553Z" fill="#8AA9FC"/>
    <path d="M97.7303 62.8433C98.4932 59.7644 99.0926 56.3586 99.188 53.1981C99.2288 51.9992 97.308 51.6995 97.0627 52.912C96.4361 56.0453 96.2454 59.4783 96.2999 62.6525C96.3135 63.4563 97.5259 63.6607 97.7303 62.8433Z" fill="#E8947E"/>
    <path d="M93.5071 140.196C94.27 137.117 94.8695 133.711 94.9648 130.55C95.0057 129.352 93.0848 129.052 92.8396 130.264C92.2129 133.398 92.0222 136.831 92.0767 140.005C92.0903 140.809 93.3028 141.013 93.5071 140.196Z" fill="#FF6666"/>
    <path d="M65.5936 16.9876C66.3564 13.9087 66.9559 10.5029 67.0512 7.34234C67.0921 6.1435 65.1712 5.8438 64.926 7.05627C64.2994 10.1896 64.1086 13.6226 64.1631 16.7968C64.1768 17.6006 65.3892 17.8049 65.5936 16.9876Z" fill="#FF6666"/>
    <path d="M124.05 33.3354C123.996 33.2809 123.942 33.24 123.887 33.1855C122.634 32.0412 120.863 33.7986 122.021 35.0519C122.075 35.1064 122.116 35.1609 122.17 35.2154C123.328 36.4823 125.317 34.4933 124.05 33.3354Z" fill="#E8947E"/>
    <path d="M0.746942 58.5247C1.52346 58.5247 1.52346 57.3123 0.746942 57.3123C-0.0295795 57.3259 -0.0295795 58.5247 0.746942 58.5247Z" fill="#E3707F"/>
    <path d="M26.4402 100.348C26.3993 100.375 26.3721 100.389 26.3312 100.416C25.4729 100.947 25.4729 102.16 26.3312 102.705C26.3721 102.732 26.3993 102.746 26.4402 102.773C27.353 103.345 28.5518 102.596 28.5518 101.56C28.5518 100.525 27.353 99.7757 26.4402 100.348Z" fill="#E8947E"/>
    <path d="M99.6101 107.377C99.5556 107.377 99.5148 107.377 99.4603 107.377C98.1525 107.377 97.4849 109.012 98.3976 109.925C99.3104 110.838 100.959 110.17 100.945 108.862C100.945 108.808 100.945 108.767 100.945 108.713C100.945 108.004 100.346 107.391 99.6101 107.377Z" fill="#6E3281"/>
    <path d="M154.539 83.4414C156.76 83.4414 156.76 79.9948 154.539 79.9948C152.319 79.9948 152.305 83.4414 154.539 83.4414Z" fill="#E8947E"/>
    <path d="M182.603 60.3229C183.734 60.3229 183.734 58.5656 182.603 58.5656C181.472 58.5656 181.472 60.3229 182.603 60.3229Z" fill="#E8947E"/>
    <path d="M87.4309 35.7603C89.7877 35.8693 92.0219 34.9429 94.2425 34.2481C96.5175 33.5397 98.888 32.9812 101.027 31.9322C102.498 31.2101 101.422 29.1258 99.9642 29.4255C97.4575 29.9432 95.0053 31.1012 92.6077 32.0003C90.6323 32.7359 88.6297 33.349 86.9949 34.7385C86.5726 35.0791 86.9404 35.733 87.4309 35.7603Z" fill="#7A65E1"/>
    <path d="M41.0471 63.2519C41.3434 63.5925 41.6402 63.3881 41.9365 63.4562C41.9501 63.4562 41.9501 62.5571 41.9365 62.5571C41.6402 62.6252 41.3431 62.4209 41.0471 62.7615C41.0397 62.7751 41.0397 63.2383 41.0471 63.2519Z" fill="#F2F2F2"/>
    <path d="M42.9523 63.2519C43.2487 63.5925 43.5454 63.3881 43.8418 63.4562C43.8553 63.4562 43.8553 62.5571 43.8418 62.5571C43.5454 62.6252 43.2484 62.4209 42.9523 62.7615C42.9449 62.7751 42.9449 63.2383 42.9523 63.2519Z" fill="#F2F2F2"/>
    <path d="M44.8576 63.2519C45.154 63.5925 45.4507 63.3881 45.7471 63.4562C45.7606 63.4562 45.7606 62.5571 45.7471 62.5571C45.4507 62.6252 45.1537 62.4209 44.8576 62.7615C44.8502 62.7751 44.8502 63.2383 44.8576 63.2519Z" fill="#F2F2F2"/>
    <path d="M46.7624 63.2519C47.0588 63.5925 47.3555 63.3881 47.6519 63.4562C47.6654 63.4562 47.6654 62.5571 47.6519 62.5571C47.3555 62.6252 47.0585 62.4209 46.7624 62.7615C46.755 62.7751 46.755 63.2383 46.7624 63.2519Z" fill="#F2F2F2"/>
    <path d="M48.6677 63.2519C48.964 63.5925 49.2608 63.3881 49.5571 63.4562C49.5707 63.4562 49.5707 62.5571 49.5571 62.5571C49.2608 62.6252 48.9637 62.4209 48.6677 62.7615C48.6603 62.7751 48.6603 63.2383 48.6677 63.2519Z" fill="#F2F2F2"/>
    <path d="M50.5729 63.2519C50.8693 63.5925 51.166 63.3881 51.4624 63.4562C51.4759 63.4562 51.4759 62.5571 51.4624 62.5571C51.166 62.6252 50.869 62.4209 50.5729 62.7615C50.5655 62.7751 50.5655 63.2383 50.5729 63.2519Z" fill="#F2F2F2"/>
    <path d="M52.4782 63.2519C52.7746 63.5925 53.0713 63.3881 53.3677 63.4562C53.3812 63.4562 53.3812 62.5571 53.3677 62.5571C53.0713 62.6252 52.7743 62.4209 52.4782 62.7615C52.4708 62.7751 52.4708 63.2383 52.4782 63.2519Z" fill="#F2F2F2"/>
    <path d="M54.3835 63.2519C54.6799 63.5925 54.9766 63.3881 55.273 63.4562C55.2865 63.4562 55.2865 62.5571 55.273 62.5571C54.9766 62.6252 54.6795 62.4209 54.3835 62.7615C54.3761 62.7751 54.3761 63.2383 54.3835 63.2519Z" fill="#F2F2F2"/>
    <path d="M56.2883 63.2519C56.5847 63.5925 56.8814 63.3881 57.1778 63.4562C57.1913 63.4562 57.1913 62.5571 57.1778 62.5571C56.8814 62.6252 56.5843 62.4209 56.2883 62.7615C56.2809 62.7751 56.2809 63.2383 56.2883 63.2519Z" fill="#F2F2F2"/>
    <path d="M41.1129 66.5625C53.6599 66.903 66.2205 66.6987 78.7674 66.7668C79.3396 66.7668 79.3396 65.8677 78.7674 65.8677C66.2205 65.9358 53.6463 65.7314 41.1129 66.072C40.7996 66.0856 40.7996 66.5488 41.1129 66.5625Z" fill="#F2F2F2"/>
    <path d="M40.4044 69.4913C47.7882 69.8183 55.2128 69.6275 62.6102 69.6956C63.1824 69.6956 63.1824 68.7965 62.6102 68.7965C55.2128 68.8646 47.7882 68.6739 40.4044 69.0009C40.0911 69.0281 40.0911 69.4777 40.4044 69.4913Z" fill="#F2F2F2"/>
    <path d="M128.246 56.6174L130.685 61.5354L135.726 60.3638L131.666 64.5734L133.587 69.396L129.091 66.4534L125.74 68.96L126.503 64.5734L123.001 62.1893L127.483 61.5354L128.246 56.6174Z" fill="#EDC483"/>
    <path d="M162.563 250.448L174.756 249.672L153.19 173.382L147.073 197.399L161.718 250.448" fill="#7A65E1"/>
    <path d="M159.593 152.92C149.934 188.912 136.325 251.579 136.325 251.579L122.919 250.639C127.265 233.038 138 163.301 139.363 154.01L159.593 152.92Z" fill="#7A65E1"/>
    <path d="M135.753 248.732C135.726 248.922 133.137 248.772 129.949 248.377C126.761 247.982 124.214 247.505 124.228 247.315C124.255 247.124 126.843 247.274 130.031 247.669C133.219 248.064 135.78 248.541 135.753 248.732Z" fill="white"/>
    <g opacity="0.42">
        <path d="M128.805 246.756C128.996 246.797 129.091 247.124 129.023 247.492C128.955 247.86 128.737 248.132 128.546 248.091C128.355 248.05 128.26 247.723 128.328 247.356C128.396 246.988 128.614 246.715 128.805 246.756Z" fill="white"/>
        <path d="M129.813 241.429C130.004 241.47 130.045 242.097 129.909 242.819C129.773 243.555 129.5 244.113 129.309 244.086C129.119 244.045 129.078 243.418 129.214 242.696C129.35 241.961 129.623 241.389 129.813 241.429Z" fill="white"/>
        <path d="M130.821 236.116C131.012 236.157 131.053 236.784 130.917 237.52C130.78 238.255 130.508 238.814 130.317 238.787C130.126 238.746 130.086 238.119 130.222 237.383C130.358 236.634 130.631 236.076 130.821 236.116Z" fill="white"/>
        <path d="M131.856 230.79C132.047 230.831 132.088 231.457 131.952 232.193C131.802 232.929 131.543 233.487 131.339 233.46C131.148 233.419 131.107 232.792 131.243 232.057C131.393 231.321 131.666 230.763 131.856 230.79Z" fill="white"/>
        <path d="M132.906 225.477C133.096 225.518 133.137 226.144 132.987 226.88C132.838 227.616 132.565 228.174 132.374 228.133C132.184 228.092 132.143 227.466 132.293 226.73C132.442 226.008 132.715 225.45 132.906 225.477Z" fill="white"/>
        <path d="M133.968 220.177C134.159 220.218 134.2 220.845 134.05 221.581C133.9 222.316 133.628 222.875 133.437 222.834C133.246 222.793 133.205 222.166 133.355 221.431C133.505 220.695 133.777 220.137 133.968 220.177Z" fill="white"/>
        <path d="M135.044 214.864C135.235 214.905 135.276 215.532 135.126 216.267C134.976 217.003 134.704 217.562 134.513 217.521C134.322 217.48 134.281 216.853 134.431 216.118C134.581 215.382 134.854 214.823 135.044 214.864Z" fill="white"/>
        <path d="M136.134 209.565C136.325 209.606 136.352 210.232 136.202 210.968C136.052 211.704 135.766 212.262 135.575 212.221C135.385 212.18 135.357 211.554 135.507 210.818C135.671 210.083 135.943 209.524 136.134 209.565Z" fill="white"/>
        <path d="M137.252 204.265C137.442 204.306 137.47 204.933 137.32 205.669C137.17 206.404 136.884 206.963 136.693 206.922C136.502 206.881 136.475 206.254 136.625 205.519C136.775 204.783 137.061 204.225 137.252 204.265Z" fill="white"/>
        <path d="M138.368 198.966C138.559 199.007 138.586 199.634 138.436 200.369C138.287 201.105 138.001 201.664 137.81 201.623C137.619 201.582 137.592 200.955 137.742 200.22C137.892 199.484 138.178 198.925 138.368 198.966Z" fill="white"/>
        <path d="M139.513 193.667C139.704 193.707 139.731 194.334 139.581 195.07C139.417 195.805 139.145 196.364 138.954 196.323C138.764 196.282 138.736 195.656 138.9 194.92C139.036 194.184 139.322 193.626 139.513 193.667Z" fill="white"/>
        <path d="M140.658 188.381C140.849 188.422 140.876 189.048 140.712 189.784C140.549 190.52 140.263 191.078 140.072 191.037C139.881 190.997 139.854 190.37 140.017 189.634C140.181 188.899 140.467 188.34 140.658 188.381Z" fill="white"/>
        <path d="M141.829 183.095C142.02 183.136 142.047 183.763 141.884 184.498C141.72 185.234 141.434 185.792 141.243 185.738C141.053 185.697 141.025 185.07 141.189 184.335C141.352 183.599 141.638 183.054 141.829 183.095Z" fill="white"/>
        <path d="M143.014 177.809C143.205 177.85 143.232 178.477 143.069 179.213C142.905 179.948 142.619 180.493 142.428 180.452C142.238 180.411 142.21 179.785 142.374 179.049C142.537 178.313 142.823 177.769 143.014 177.809Z" fill="white"/>
        <path d="M144.213 172.523C144.404 172.564 144.431 173.191 144.254 173.927C144.09 174.662 143.804 175.207 143.614 175.166C143.423 175.126 143.396 174.499 143.573 173.763C143.736 173.041 144.022 172.483 144.213 172.523Z" fill="white"/>
        <path d="M145.425 167.251C145.616 167.292 145.63 167.919 145.466 168.654C145.303 169.376 145.003 169.935 144.812 169.894C144.622 169.853 144.608 169.227 144.771 168.491C144.948 167.755 145.235 167.197 145.425 167.251Z" fill="white"/>
        <path d="M146.651 161.979C146.842 162.02 146.855 162.647 146.692 163.382C146.528 164.104 146.229 164.663 146.038 164.622C145.847 164.581 145.833 163.955 145.997 163.219C146.174 162.483 146.46 161.925 146.651 161.979Z" fill="white"/>
        <path d="M147.891 156.707C148.082 156.748 148.096 157.374 147.919 158.11C147.742 158.832 147.456 159.391 147.265 159.35C147.074 159.309 147.06 158.682 147.238 157.947C147.415 157.211 147.701 156.652 147.891 156.707Z" fill="white"/>
        <path d="M148.845 152.743C149.036 152.784 149.118 153.124 149.036 153.492C148.954 153.86 148.723 154.119 148.532 154.078C148.341 154.037 148.259 153.696 148.341 153.328C148.423 152.961 148.654 152.702 148.845 152.743Z" fill="white"/>
    </g>
    <path d="M154.92 176.011C155.016 176.038 154.661 177.469 154.062 179.757C153.408 182.278 152.618 185.329 151.732 188.721C150.833 192.222 150.002 195.397 149.362 197.672C148.722 199.96 148.259 201.35 148.163 201.323C148.068 201.296 148.354 199.851 148.872 197.549C149.389 195.233 150.139 192.045 151.038 188.544C151.937 185.043 152.85 181.882 153.572 179.621C154.294 177.36 154.825 175.984 154.92 176.011Z" fill="white"/>
    <g opacity="0.42">
        <path d="M152.754 191.351C152.563 191.419 152.223 190.887 151.977 190.179C151.732 189.471 151.691 188.844 151.882 188.776C152.073 188.708 152.413 189.239 152.659 189.947C152.89 190.656 152.931 191.282 152.754 191.351Z" fill="white"/>
        <path d="M154.484 196.514C154.294 196.582 153.953 196.051 153.708 195.342C153.463 194.634 153.422 194.007 153.612 193.939C153.803 193.871 154.144 194.402 154.389 195.111C154.634 195.819 154.675 196.446 154.484 196.514Z" fill="white"/>
        <path d="M156.227 201.677C156.037 201.745 155.696 201.214 155.451 200.505C155.206 199.797 155.165 199.17 155.356 199.102C155.546 199.034 155.887 199.565 156.132 200.274C156.377 200.982 156.418 201.609 156.227 201.677Z" fill="white"/>
        <path d="M157.972 206.84C157.781 206.908 157.44 206.377 157.195 205.669C156.95 204.96 156.909 204.334 157.1 204.265C157.29 204.197 157.631 204.729 157.876 205.437C158.121 206.145 158.162 206.772 157.972 206.84Z" fill="white"/>
        <path d="M159.715 212.003C159.525 212.071 159.184 211.54 158.939 210.832C158.694 210.123 158.653 209.497 158.843 209.429C159.034 209.36 159.375 209.892 159.62 210.6C159.865 211.309 159.906 211.935 159.715 212.003Z" fill="white"/>
        <path d="M161.459 217.166C161.269 217.235 160.928 216.703 160.683 215.995C160.438 215.286 160.397 214.66 160.588 214.592C160.778 214.524 161.119 215.055 161.364 215.763C161.596 216.472 161.65 217.098 161.459 217.166Z" fill="white"/>
        <path d="M163.203 222.33C163.012 222.398 162.672 221.866 162.427 221.158C162.181 220.45 162.14 219.823 162.331 219.755C162.522 219.687 162.862 220.218 163.108 220.927C163.339 221.635 163.394 222.262 163.203 222.33Z" fill="white"/>
        <path d="M164.947 227.493C164.756 227.561 164.416 227.03 164.171 226.321C163.925 225.613 163.885 224.986 164.075 224.918C164.266 224.85 164.607 225.381 164.852 226.09C165.083 226.798 165.138 227.425 164.947 227.493Z" fill="white"/>
        <path d="M166.69 232.656C166.5 232.724 166.159 232.193 165.914 231.485C165.669 230.776 165.628 230.15 165.819 230.081C166.009 230.013 166.35 230.545 166.595 231.253C166.827 231.961 166.867 232.588 166.69 232.656Z" fill="white"/>
        <path d="M168.434 237.819C168.243 237.887 167.903 237.356 167.658 236.648C167.412 235.939 167.371 235.313 167.562 235.245C167.753 235.176 168.093 235.708 168.339 236.416C168.57 237.125 168.611 237.751 168.434 237.819Z" fill="white"/>
        <path d="M170.178 242.983C169.987 243.051 169.647 242.519 169.402 241.811C169.156 241.103 169.116 240.476 169.306 240.408C169.497 240.34 169.838 240.871 170.083 241.579C170.314 242.288 170.355 242.914 170.178 242.983Z" fill="white"/>
        <path d="M171.594 247.178C171.404 247.247 171.131 246.933 170.981 246.484C170.832 246.034 170.859 245.625 171.05 245.571C171.24 245.503 171.513 245.816 171.663 246.266C171.799 246.702 171.772 247.11 171.594 247.178Z" fill="white"/>
    </g>
    <path d="M173.843 245.557C173.87 245.762 170.9 246.279 167.276 247.029C163.639 247.778 160.724 248.486 160.656 248.282C160.601 248.105 163.462 247.083 167.127 246.334C170.791 245.571 173.829 245.38 173.843 245.557Z" fill="white"/>
    <path d="M42.2163 158.437C42.4888 160.126 45.445 216.118 48.9325 252.505H62.7737C62.7737 252.505 55.9349 168.545 57.556 168.396C59.4224 168.232 75.198 252.505 75.198 252.505H88.3989L68.3047 155.999L42.2163 158.437Z" fill="#298AFF"/>
    <path d="M55.4037 248.99C55.3765 248.99 55.322 248.677 55.2403 248.091C55.1585 247.424 55.0496 246.565 54.8997 245.489C54.6272 243.228 54.2594 239.945 53.8507 235.885C53.0197 227.779 52.0389 216.554 51.2215 204.129C50.4041 191.705 49.8864 180.452 49.6275 172.305C49.4913 168.232 49.4232 164.935 49.396 162.647C49.396 161.57 49.3823 160.699 49.3823 160.017C49.3823 159.418 49.3959 159.105 49.4232 159.105C49.4504 159.105 49.4777 159.418 49.5186 160.017C49.5594 160.685 49.6003 161.557 49.6684 162.633C49.7774 164.99 49.9409 168.273 50.118 172.278C50.4994 180.425 51.0852 191.664 51.9162 204.075C52.7472 216.485 53.6464 227.697 54.3411 235.83C54.6817 239.822 54.9678 243.092 55.1722 245.448C55.2539 246.525 55.322 247.396 55.3765 248.064C55.431 248.677 55.431 248.99 55.4037 248.99Z" fill="#7A65E1"/>
    <path d="M62.3511 248.473C62.3647 248.663 59.3131 249.058 55.5395 249.344C51.7522 249.63 48.687 249.699 48.6734 249.508C48.6598 249.317 51.7114 248.922 55.4986 248.636C59.2586 248.35 62.3374 248.282 62.3511 248.473Z" fill="#7A65E1"/>
    <path d="M80.4426 249.508C80.4154 249.508 80.3336 249.195 80.1974 248.595C80.0475 247.928 79.8568 247.056 79.6252 245.966C79.1348 243.677 78.4809 240.367 77.6907 236.266C76.1105 228.065 74.0942 216.703 71.8192 204.17C69.5441 191.637 67.3507 180.302 65.6342 172.142C64.776 168.123 64.0812 164.84 63.5771 162.469C63.3455 161.38 63.1684 160.508 63.0186 159.84C62.896 159.241 62.8551 158.914 62.8687 158.914C62.896 158.914 62.9913 159.214 63.1548 159.813C63.3319 160.48 63.5499 161.339 63.8359 162.415C64.4217 164.676 65.1983 167.96 66.1247 172.047C67.9638 180.193 70.2388 191.514 72.5139 204.061C74.7209 216.567 76.7235 227.902 78.1812 236.198C78.8896 240.244 79.4754 243.555 79.8977 245.939C80.0748 247.029 80.2246 247.914 80.3472 248.595C80.429 249.181 80.4699 249.494 80.4426 249.508Z" fill="#7A65E1"/>
    <path d="M88.2217 249.644C88.2217 249.835 85.2246 249.999 81.5327 249.985C77.8409 249.985 74.8438 249.821 74.8438 249.617C74.8438 249.426 77.8409 249.263 81.5327 249.277C85.2246 249.277 88.2217 249.44 88.2217 249.644Z" fill="#7A65E1"/>
    <path d="M46.6161 159.391C46.6978 159.363 46.9566 159.799 47.0656 160.59C47.1746 161.38 47.0656 162.538 46.439 163.628C45.8123 164.717 44.8587 165.399 44.1366 165.698C43.401 166.012 42.8969 165.998 42.8697 165.916C42.788 165.726 44.7224 165.208 45.8259 163.273C46.943 161.339 46.4117 159.404 46.6161 159.391Z" fill="#7A65E1"/>
    <path d="M59.1634 167.238C59.2043 167.251 59.2043 167.442 58.9999 167.674C58.7956 167.905 58.346 168.164 57.7466 168.041C57.4605 167.987 57.1199 167.769 56.9428 167.456C56.7521 167.156 56.684 166.802 56.6295 166.475C56.5205 165.78 56.3979 165.099 56.2889 164.39C55.8394 161.434 55.635 159.009 55.8257 158.982C56.0164 158.955 56.5341 161.325 56.9837 164.281C57.0791 164.99 57.1744 165.671 57.2698 166.366C57.3243 167.006 57.5014 167.415 57.8692 167.537C58.237 167.674 58.6048 167.565 58.8092 167.442C59.0135 167.347 59.1089 167.21 59.1634 167.238Z" fill="#7A65E1"/>
    <path d="M70.1438 164.554C70.1438 164.636 69.6806 164.731 68.945 164.581C68.223 164.445 67.2421 163.995 66.4247 163.178C65.6073 162.361 65.1578 161.393 65.0079 160.671C64.8581 159.936 64.9398 159.472 65.0351 159.472C65.2395 159.445 65.4302 161.23 66.9288 162.674C68.3865 164.172 70.1711 164.35 70.1438 164.554Z" fill="#7A65E1"/>
    <path d="M51.439 252.505C51.439 252.505 64.5717 254.739 63.945 254.017C63.3184 253.295 61.7925 252.505 61.7925 252.505H51.439Z" fill="#7A65E1"/>
    <path d="M77.0918 252.505C77.0918 252.505 90.2245 254.739 89.5979 254.017C88.9712 253.295 87.4454 252.505 87.4454 252.505H77.0918Z" fill="#7A65E1"/>
    <path d="M153.735 172.646C153.735 172.646 151.351 175.194 151.038 175.575C149.171 177.782 151.051 176.501 151.923 176.242C152.686 176.011 150.656 181.406 151.351 181.188C152.059 180.97 152.768 178.354 152.768 178.354C152.768 178.354 151.937 181.991 152.7 181.229C153.462 180.466 154.13 178.395 154.13 178.395C154.13 178.395 153.422 182.169 154.062 181.378C154.702 180.575 155.124 179.172 155.124 179.172C155.124 179.172 154.811 182.441 155.383 181.515C155.942 180.602 159.607 173.136 159.607 173.136L153.735 172.646Z" fill="#F9C8C7"/>
    <path d="M149.935 123.099C149.935 123.099 159.226 138.411 158.054 147.252C157.155 153.996 152.142 173 152.142 173L159.784 175.779C159.784 175.779 166.214 155.767 166.582 144.296C166.95 132.825 157.032 116.818 157.032 116.818L149.935 123.099Z" fill="url(#paint5_linear_1349_168008)"/>
    <path d="M157.686 117.649C157.686 117.704 157.086 117.431 156.024 117.636C154.988 117.813 153.49 118.603 152.509 120.251C151.501 121.886 151.392 124.325 152.032 126.763C152.645 129.229 153.83 131.79 154.988 134.515C156.146 137.226 157.168 139.896 157.536 142.443C157.931 144.991 157.795 147.334 157.563 149.241C157.045 153.083 156.323 155.385 156.323 155.385C156.31 155.385 156.337 155.236 156.391 154.949C156.46 154.582 156.541 154.187 156.637 153.723C156.841 152.661 157.154 151.121 157.359 149.214C157.563 147.307 157.672 144.991 157.277 142.471C156.882 139.95 155.887 137.321 154.716 134.61C153.558 131.899 152.386 129.324 151.773 126.818C151.147 124.338 151.269 121.831 152.332 120.129C153.381 118.439 154.934 117.663 155.996 117.513C156.541 117.418 156.964 117.472 157.25 117.513C157.549 117.595 157.699 117.636 157.686 117.649Z" fill="#473A60"/>
    <path d="M131.829 111.927C131.747 111.914 131.788 111.423 131.924 110.838C132.047 110.252 132.21 109.802 132.292 109.816C132.374 109.829 132.333 110.32 132.197 110.906C132.061 111.478 131.897 111.941 131.829 111.927Z" fill="#473A60"/>
    <path d="M136.311 112.84C136.23 112.84 136.148 112.541 136.121 112.159C136.093 111.778 136.134 111.464 136.216 111.464C136.298 111.464 136.38 111.764 136.407 112.146C136.434 112.527 136.393 112.84 136.311 112.84Z" fill="#473A60"/>
    <path d="M137.864 118.521C137.809 118.576 137.469 118.29 137.114 117.881C136.76 117.472 136.515 117.104 136.583 117.05C136.638 116.995 136.978 117.281 137.332 117.69C137.687 118.099 137.918 118.467 137.864 118.521Z" fill="#473A60"/>
    <path d="M140.33 117.513C140.248 117.499 140.276 117.118 140.371 116.655C140.466 116.205 140.616 115.837 140.684 115.865C140.766 115.878 140.739 116.26 140.643 116.723C140.548 117.172 140.412 117.527 140.33 117.513Z" fill="#473A60"/>
    <path d="M141.065 125.115C140.997 125.156 140.657 124.665 140.303 124.039C139.948 123.412 139.717 122.867 139.785 122.826C139.853 122.785 140.194 123.276 140.548 123.902C140.902 124.529 141.134 125.074 141.065 125.115Z" fill="#473A60"/>
    <path d="M145.547 124.284C145.466 124.257 145.506 123.875 145.643 123.426C145.765 122.976 145.929 122.622 146.01 122.635C146.092 122.663 146.051 123.044 145.915 123.494C145.793 123.957 145.629 124.297 145.547 124.284Z" fill="#473A60"/>
    <path d="M140.712 132.158C140.657 132.212 140.276 131.885 139.867 131.422C139.458 130.973 139.186 130.55 139.24 130.509C139.295 130.455 139.676 130.782 140.085 131.245C140.48 131.695 140.766 132.103 140.712 132.158Z" fill="#473A60"/>
    <path d="M143.273 120.987C143.205 120.96 143.259 120.592 143.409 120.156C143.559 119.72 143.749 119.393 143.818 119.42C143.886 119.447 143.831 119.815 143.681 120.251C143.532 120.687 143.341 121.014 143.273 120.987Z" fill="#473A60"/>
    <path d="M143.913 130.06C143.845 130.101 143.518 129.76 143.164 129.27C142.81 128.793 142.578 128.357 142.632 128.316C142.701 128.275 143.028 128.616 143.382 129.106C143.736 129.583 143.968 130.006 143.913 130.06Z" fill="#473A60"/>
    <path d="M149.703 127.145C149.771 127.186 149.621 127.581 149.362 128.03C149.104 128.48 148.831 128.82 148.763 128.779C148.695 128.739 148.845 128.344 149.104 127.894C149.376 127.431 149.635 127.104 149.703 127.145Z" fill="#473A60"/>
    <path d="M150.411 119.243C150.465 119.298 150.234 119.584 149.907 119.856C149.58 120.129 149.267 120.32 149.226 120.251C149.171 120.197 149.403 119.911 149.73 119.638C150.043 119.366 150.356 119.189 150.411 119.243Z" fill="#473A60"/>
    <path d="M154.348 116.042C154.307 116.11 153.967 115.96 153.585 115.701C153.204 115.442 152.931 115.183 152.972 115.129C153.013 115.061 153.354 115.211 153.735 115.469C154.13 115.715 154.403 115.973 154.348 116.042Z" fill="#473A60"/>
    <path d="M151.774 135.087C151.705 135.06 151.774 134.76 151.923 134.433C152.073 134.106 152.25 133.861 152.332 133.902C152.4 133.929 152.332 134.229 152.182 134.556C152.019 134.883 151.842 135.114 151.774 135.087Z" fill="#473A60"/>
    <path d="M148.395 136.013C148.327 136.054 148.013 135.659 147.673 135.128C147.346 134.596 147.128 134.133 147.196 134.092C147.264 134.052 147.578 134.447 147.918 134.978C148.245 135.509 148.463 135.972 148.395 136.013Z" fill="#473A60"/>
    <path d="M141.992 139.487C141.924 139.528 141.665 139.16 141.406 138.683C141.148 138.207 141.011 137.784 141.079 137.743C141.148 137.703 141.406 138.07 141.665 138.547C141.91 139.038 142.06 139.446 141.992 139.487Z" fill="#473A60"/>
    <path d="M144.172 134.814C144.24 134.842 144.131 135.264 143.913 135.727C143.695 136.204 143.463 136.558 143.395 136.531C143.327 136.504 143.436 136.081 143.654 135.618C143.872 135.141 144.104 134.787 144.172 134.814Z" fill="#473A60"/>
    <path d="M140.753 145.658C140.698 145.713 140.398 145.481 140.112 145.154C139.813 144.827 139.622 144.514 139.676 144.46C139.731 144.405 140.017 144.637 140.317 144.964C140.616 145.291 140.821 145.604 140.753 145.658Z" fill="#473A60"/>
    <path d="M145.739 143.056C145.793 143.111 145.534 143.492 145.153 143.928C144.771 144.364 144.417 144.664 144.363 144.609C144.308 144.555 144.567 144.174 144.948 143.738C145.33 143.315 145.684 143.002 145.739 143.056Z" fill="#473A60"/>
    <path d="M142.428 142.798C142.374 142.852 142.074 142.58 141.761 142.212C141.447 141.83 141.257 141.49 141.311 141.449C141.366 141.394 141.665 141.667 141.979 142.035C142.292 142.403 142.496 142.743 142.428 142.798Z" fill="#473A60"/>
    <path d="M143.64 149.555C143.572 149.582 143.395 149.35 143.245 149.037C143.095 148.724 143.041 148.438 143.109 148.397C143.177 148.37 143.354 148.601 143.504 148.915C143.654 149.241 143.709 149.528 143.64 149.555Z" fill="#473A60"/>
    <path d="M140.793 151.394C140.807 151.476 140.412 151.598 139.976 151.816C139.527 152.034 139.2 152.266 139.145 152.211C139.091 152.157 139.363 151.803 139.853 151.557C140.344 151.326 140.793 151.326 140.793 151.394Z" fill="#473A60"/>
    <path d="M152.427 147.089C152.386 147.157 151.773 146.776 151.269 146.054C150.765 145.332 150.615 144.623 150.683 144.609C150.765 144.582 151.01 145.209 151.501 145.89C151.964 146.571 152.482 147.021 152.427 147.089Z" fill="#473A60"/>
    <path d="M155.629 149.282C155.561 149.228 155.887 148.724 156.337 148.138C156.787 147.552 157.209 147.13 157.277 147.171C157.345 147.225 157.018 147.729 156.569 148.315C156.105 148.901 155.683 149.323 155.629 149.282Z" fill="#473A60"/>
    <path d="M149.308 149.2C149.24 149.255 148.859 148.901 148.368 148.506C147.878 148.111 147.442 147.811 147.483 147.743C147.51 147.675 148.028 147.865 148.545 148.288C149.077 148.683 149.376 149.146 149.308 149.2Z" fill="#473A60"/>
    <path d="M150.044 151.353C150.044 151.435 149.172 151.53 148.082 151.571C146.992 151.612 146.106 151.585 146.106 151.503C146.106 151.421 146.978 151.326 148.068 151.285C149.158 151.258 150.044 151.285 150.044 151.353Z" fill="#473A60"/>
    <path d="M154.58 143.356C154.512 143.315 154.716 142.77 155.043 142.144C155.37 141.503 155.683 141.027 155.752 141.054C155.82 141.095 155.615 141.626 155.288 142.266C154.975 142.907 154.648 143.397 154.58 143.356Z" fill="#473A60"/>
    <path d="M150.411 139.582C150.384 139.651 149.648 139.473 148.763 139.174C147.877 138.874 147.183 138.561 147.21 138.493C147.237 138.424 147.973 138.602 148.858 138.901C149.744 139.201 150.438 139.501 150.411 139.582Z" fill="#473A60"/>
    <path d="M154.131 126.205C154.063 126.177 154.199 125.605 154.444 124.91C154.689 124.229 154.948 123.698 155.03 123.725C155.098 123.752 154.962 124.325 154.717 125.019C154.471 125.687 154.213 126.218 154.131 126.205Z" fill="#473A60"/>
    <path d="M159.294 124.556C159.239 124.611 158.899 124.324 158.545 123.916C158.19 123.507 157.945 123.139 158.013 123.085C158.068 123.03 158.408 123.316 158.763 123.725C159.117 124.134 159.348 124.515 159.294 124.556Z" fill="#473A60"/>
    <path d="M158.053 128.548C157.999 128.602 157.59 128.262 157.154 127.785C156.718 127.308 156.405 126.886 156.473 126.831C156.528 126.777 156.936 127.117 157.372 127.594C157.808 128.071 158.122 128.493 158.053 128.548Z" fill="#473A60"/>
    <path d="M161.037 131.422C160.955 131.409 160.996 130.959 161.132 130.428C161.255 129.896 161.418 129.474 161.5 129.501C161.582 129.515 161.541 129.965 161.405 130.496C161.282 131.027 161.105 131.449 161.037 131.422Z" fill="#473A60"/>
    <path d="M157.55 134.365C157.495 134.419 157.127 134.215 156.732 133.874C156.324 133.547 156.038 133.234 156.092 133.166C156.147 133.111 156.514 133.316 156.91 133.656C157.318 133.983 157.604 134.297 157.55 134.365Z" fill="#473A60"/>
    <path d="M162.781 137.934C162.713 137.961 162.44 137.525 162.195 136.94C161.936 136.354 161.8 135.863 161.868 135.836C161.936 135.809 162.209 136.245 162.454 136.831C162.699 137.403 162.849 137.893 162.781 137.934Z" fill="#473A60"/>
    <path d="M161.037 140.495C160.982 140.55 160.615 140.264 160.206 139.869C159.797 139.46 159.525 139.092 159.579 139.038C159.634 138.983 160.002 139.269 160.41 139.664C160.805 140.073 161.091 140.441 161.037 140.495Z" fill="#473A60"/>
    <path d="M164.43 143.247C164.47 143.315 164.225 143.574 163.871 143.819C163.517 144.078 163.19 144.228 163.149 144.16C163.108 144.092 163.353 143.833 163.707 143.588C164.048 143.329 164.375 143.179 164.43 143.247Z" fill="#473A60"/>
    <path d="M160.315 146.994C160.247 147.034 159.92 146.585 159.593 146.013C159.266 145.427 159.062 144.923 159.13 144.882C159.198 144.841 159.525 145.291 159.852 145.863C160.179 146.449 160.383 146.953 160.315 146.994Z" fill="#473A60"/>
    <path d="M164.43 150.386C164.361 150.427 163.994 149.827 163.776 148.996C163.558 148.165 163.585 147.47 163.653 147.47C163.735 147.47 163.83 148.138 164.048 148.928C164.266 149.718 164.511 150.345 164.43 150.386Z" fill="#473A60"/>
    <path d="M162.236 152.402C162.29 152.456 161.991 152.865 161.459 153.179C160.928 153.492 160.41 153.56 160.397 153.478C160.383 153.396 160.819 153.233 161.31 152.933C161.814 152.661 162.181 152.347 162.236 152.402Z" fill="#473A60"/>
    <path d="M159.021 151.666C158.939 151.68 158.816 151.407 158.748 151.053C158.667 150.699 158.667 150.399 158.748 150.386C158.83 150.372 158.953 150.645 159.021 150.999C159.102 151.353 159.102 151.653 159.021 151.666Z" fill="#473A60"/>
    <path d="M158.749 160.004C158.667 160.017 158.531 159.663 158.422 159.214C158.326 158.764 158.299 158.369 158.381 158.355C158.463 158.342 158.599 158.696 158.708 159.145C158.803 159.595 158.817 159.99 158.749 160.004Z" fill="#473A60"/>
    <path d="M162.332 159.445C162.264 159.472 162.032 158.996 161.828 158.396C161.623 157.783 161.514 157.279 161.596 157.252C161.664 157.225 161.896 157.701 162.1 158.301C162.291 158.914 162.4 159.418 162.332 159.445Z" fill="#473A60"/>
    <path d="M159.116 164.39C159.103 164.472 158.49 164.377 157.74 164.336C156.991 164.281 156.378 164.295 156.364 164.213C156.351 164.145 156.978 163.995 157.754 164.05C158.531 164.104 159.13 164.322 159.116 164.39Z" fill="#473A60"/>
    <path d="M161.024 165.031C160.942 165.031 160.901 164.636 160.928 164.159C160.956 163.682 161.037 163.287 161.119 163.301C161.201 163.301 161.242 163.696 161.214 164.172C161.187 164.649 161.092 165.044 161.024 165.031Z" fill="#473A60"/>
    <path d="M157.195 168.327C157.182 168.409 156.718 168.382 156.16 168.287C155.601 168.191 155.165 168.041 155.179 167.96C155.193 167.878 155.656 167.905 156.214 168.001C156.759 168.11 157.209 168.259 157.195 168.327Z" fill="#473A60"/>
    <path d="M160.097 170.058C160.152 170.112 159.77 170.602 159.225 171.161C158.694 171.72 158.204 172.115 158.149 172.06C158.095 172.006 158.476 171.515 159.021 170.957C159.566 170.398 160.043 170.003 160.097 170.058Z" fill="#473A60"/>
    <path d="M155.452 170.902C155.465 170.984 154.961 171.147 154.334 171.27C153.708 171.393 153.176 171.433 153.163 171.365C153.149 171.284 153.653 171.12 154.28 170.998C154.907 170.861 155.438 170.82 155.452 170.902Z" fill="#473A60"/>
    <path d="M132.102 117.241C132.02 117.227 132.02 116.737 132.102 116.124C132.184 115.51 132.306 115.034 132.374 115.047C132.456 115.061 132.456 115.551 132.374 116.164C132.306 116.764 132.17 117.241 132.102 117.241Z" fill="#473A60"/>
    <path d="M129.717 114.298C129.676 114.366 129.145 114.107 128.614 113.644C128.069 113.181 127.742 112.69 127.796 112.649C127.851 112.595 128.273 112.976 128.791 113.426C129.309 113.889 129.758 114.23 129.717 114.298Z" fill="#473A60"/>
    <path d="M129.077 108.999C128.996 108.985 128.996 108.467 129.077 107.841C129.159 107.214 129.282 106.71 129.35 106.71C129.432 106.724 129.432 107.241 129.35 107.868C129.282 108.495 129.159 108.999 129.077 108.999Z" fill="#473A60"/>
    <path d="M125.508 108.631C125.467 108.699 125.072 108.494 124.568 108.263C124.077 108.045 123.655 107.881 123.669 107.8C123.682 107.731 124.159 107.759 124.677 108.004C125.208 108.236 125.549 108.562 125.508 108.631Z" fill="#473A60"/>
    <path d="M133.913 107.255C133.832 107.255 133.75 106.941 133.723 106.533C133.696 106.124 133.736 105.797 133.818 105.797C133.9 105.797 133.982 106.11 134.009 106.519C134.036 106.914 133.995 107.255 133.913 107.255Z" fill="#473A60"/>
    <path d="M137.319 108.903C137.265 108.958 136.911 108.713 136.475 108.44C136.025 108.168 135.644 107.963 135.671 107.895C135.698 107.827 136.148 107.909 136.611 108.195C137.088 108.481 137.374 108.849 137.319 108.903Z" fill="#473A60"/>
    <path d="M126.244 103.863C126.162 103.863 126.094 103.277 126.258 102.568C126.407 101.86 126.721 101.356 126.789 101.383C126.857 101.41 126.68 101.955 126.544 102.623C126.38 103.304 126.326 103.863 126.244 103.863Z" fill="#473A60"/>
    <path d="M124.377 104.557C124.35 104.625 123.832 104.476 123.233 104.217C122.633 103.958 122.17 103.685 122.197 103.617C122.225 103.549 122.742 103.699 123.342 103.958C123.955 104.217 124.418 104.476 124.377 104.557Z" fill="#473A60"/>
    <path d="M118.342 102.391C118.261 102.378 118.274 101.928 118.369 101.397C118.465 100.865 118.601 100.443 118.683 100.457C118.765 100.47 118.751 100.906 118.656 101.451C118.547 101.983 118.41 102.405 118.342 102.391Z" fill="#473A60"/>
    <path d="M121.204 97.7322C121.176 97.8139 120.808 97.7594 120.386 97.6368C119.95 97.5142 119.623 97.3507 119.651 97.269C119.678 97.1872 120.046 97.2417 120.468 97.3643C120.89 97.4869 121.217 97.6504 121.204 97.7322Z" fill="#473A60"/>
    <path d="M115.331 97.446C115.25 97.4187 115.4 96.7103 115.658 95.8521C115.917 94.9938 116.176 94.3127 116.258 94.3399C116.34 94.3671 116.19 95.0756 115.931 95.9338C115.672 96.7921 115.4 97.4732 115.331 97.446Z" fill="#473A60"/>
    <path d="M114.596 94.8168C114.555 94.8849 114.146 94.6942 113.697 94.3809C113.247 94.0812 112.907 93.7815 112.948 93.7134C112.989 93.6452 113.397 93.836 113.847 94.1493C114.31 94.449 114.637 94.7487 114.596 94.8168Z" fill="#473A60"/>
    <path d="M115.535 90.5799C115.467 90.6208 115.113 90.2121 114.759 89.6672C114.391 89.1223 114.146 88.6454 114.214 88.591C114.282 88.5501 114.636 88.9588 114.991 89.5037C115.358 90.0487 115.604 90.5391 115.535 90.5799Z" fill="#473A60"/>
    <path d="M111.122 91.1385C111.095 91.2066 110.509 91.0023 109.95 90.4982C109.392 89.9941 109.133 89.4356 109.201 89.3947C109.269 89.3539 109.623 89.817 110.141 90.2802C110.659 90.757 111.163 91.0568 111.122 91.1385Z" fill="#473A60"/>
    <path d="M113.329 90.4029C113.275 90.4574 112.92 90.2258 112.539 89.8716C112.157 89.5174 111.899 89.1904 111.953 89.1223C112.008 89.0678 112.362 89.2994 112.743 89.6536C113.111 90.0078 113.383 90.3484 113.329 90.4029Z" fill="#473A60"/>
    <path d="M110.495 86.7383C110.427 86.7383 110.427 86.2342 110.686 85.6893C110.945 85.1444 111.354 84.8447 111.395 84.8992C111.449 84.9537 111.177 85.3215 110.931 85.8119C110.686 86.316 110.564 86.7519 110.495 86.7383Z" fill="#473A60"/>
    <path d="M106.899 85.989C106.831 85.9482 107.049 85.4986 107.376 84.9945C107.702 84.4905 108.029 84.109 108.098 84.1635C108.166 84.2044 107.948 84.654 107.621 85.158C107.28 85.6621 106.953 86.0435 106.899 85.989Z" fill="#473A60"/>
    <path d="M106.817 84.9128C106.803 84.981 106.34 84.9673 105.836 84.7221C105.332 84.4905 105.019 84.1363 105.073 84.0818C105.128 84.0137 105.495 84.2453 105.959 84.4633C106.435 84.6812 106.844 84.8311 106.817 84.9128Z" fill="#473A60"/>
    <path d="M107.008 82.2562C106.926 82.2425 106.913 81.793 106.953 81.2344C107.008 80.6759 107.103 80.2263 107.185 80.2399C107.267 80.2535 107.28 80.7031 107.24 81.2617C107.185 81.8202 107.09 82.2562 107.008 82.2562Z" fill="#473A60"/>
    <path d="M53.1557 113.058C53.1557 113.058 53.4554 113.099 53.905 113.385C54.341 113.671 54.9404 114.216 55.2946 115.115C55.6488 116.001 55.5943 117.281 54.8722 118.344C54.1911 119.434 52.6925 120.115 51.2212 119.802C50.7989 119.72 50.4038 119.556 50.0496 119.352L50.2267 119.325C49.2595 120.347 47.7064 120.306 46.7664 119.693C45.7856 119.08 45.2951 118.112 45.118 117.309C44.9409 116.491 45.0091 115.81 45.0772 115.374C45.1589 114.925 45.2407 114.693 45.2543 114.693C45.336 114.693 44.9409 115.687 45.2951 117.268C45.4859 118.031 45.9763 118.93 46.889 119.475C47.7609 120.033 49.1778 120.033 50.0224 119.134L50.1041 119.052L50.1995 119.107C50.5128 119.298 50.8806 119.447 51.2757 119.516C52.638 119.788 54.0004 119.175 54.6543 118.181C55.349 117.2 55.4171 116.014 55.1038 115.17C54.8041 114.312 54.2456 113.767 53.8505 113.453C53.4282 113.167 53.1421 113.072 53.1557 113.058Z" fill="#473A60"/>
    <path d="M98.18 88.2232C98.1391 88.2777 96.7904 87.3241 95.36 85.8937C93.9159 84.4632 92.9487 83.1418 93.0032 83.0873C93.0713 83.0328 94.1203 84.2725 95.5507 85.6893C96.9811 87.1061 98.2345 88.1551 98.18 88.2232Z" fill="#473A60"/>
    <path d="M97.8941 85.158C97.9486 85.2125 97.8941 85.376 97.7579 85.5394C97.6217 85.7029 97.4582 85.7983 97.4037 85.7438C97.3492 85.6893 97.4037 85.5258 97.5399 85.3623C97.6762 85.1989 97.8396 85.1171 97.8941 85.158Z" fill="#473A60"/>
    <path d="M48.878 143.969C48.8917 143.983 48.6737 144.119 48.2786 144.323C47.7337 144.61 47.1751 144.896 46.603 145.195C45.1725 145.904 43.1836 146.857 40.963 147.838C38.7288 148.819 36.6853 149.65 35.2004 150.209C34.5873 150.44 34.0015 150.645 33.4294 150.863C33.007 151.012 32.7754 151.081 32.7618 151.067C32.7482 151.053 32.9798 150.944 33.3885 150.767C33.947 150.536 34.5192 150.29 35.1323 150.032C36.8897 149.282 38.7696 148.479 40.854 147.579C42.9111 146.653 44.7911 145.808 46.5212 145.018C47.1206 144.746 47.6792 144.487 48.2378 144.228C48.6465 144.037 48.878 143.956 48.878 143.969Z" fill="#473A60"/>
    <path d="M49.559 152.797C49.4773 152.811 49.2048 150.699 48.946 148.097C48.6871 145.495 48.5373 143.37 48.619 143.37C48.7008 143.356 48.9732 145.468 49.2321 148.07C49.4909 150.658 49.6408 152.783 49.559 152.797Z" fill="#473A60"/>
    <path d="M49.5586 152.797C49.5722 152.811 49.436 152.974 49.1771 153.247C48.9183 153.519 48.5232 153.901 48.0191 154.35C47.011 155.249 45.5397 156.407 43.8913 157.62C42.2293 158.846 40.7035 159.895 39.5728 160.644L38.2377 161.516C37.9244 161.72 37.7336 161.816 37.72 161.802C37.7064 161.788 37.8699 161.652 38.1696 161.421L39.4502 160.481C40.8125 159.486 42.202 158.492 43.7142 157.388C45.3626 156.176 46.8475 155.045 47.8829 154.187C48.9319 153.342 49.5313 152.756 49.5586 152.797Z" fill="#473A60"/>
    <path d="M39.2731 133.057C39.2867 133.057 39.3003 133.275 39.314 133.643C39.314 134.174 39.314 134.719 39.314 135.25C39.314 136.613 39.314 138.493 39.3685 140.563C39.423 142.634 39.5047 144.514 39.5728 145.863C39.6 146.408 39.6273 146.939 39.6409 147.47C39.6546 147.852 39.6546 148.056 39.6273 148.07C39.6137 148.07 39.5728 147.866 39.5183 147.484C39.4638 147.103 39.4093 146.558 39.3548 145.877C39.2322 144.514 39.1232 142.648 39.0687 140.563C39.0143 138.493 39.0551 136.599 39.096 135.25C39.1232 134.569 39.1505 134.024 39.1778 133.643C39.2323 133.261 39.2595 133.057 39.2731 133.057Z" fill="#473A60"/>
    <defs>
        <linearGradient id="paint0_linear_1349_168008" x1="144.498" y1="87.9483" x2="151.563" y2="169.782" gradientUnits="userSpaceOnUse">
            <stop stop-color="#E58F7E"/>
            <stop offset="0.1391" stop-color="#E4857E"/>
            <stop offset="0.6977" stop-color="#E0637F"/>
            <stop offset="1" stop-color="#DE567F"/>
        </linearGradient>
        <linearGradient id="paint1_linear_1349_168008" x1="50.5585" y1="96.8657" x2="54.1704" y2="203.414" gradientUnits="userSpaceOnUse">
            <stop offset="0.05" stop-color="#6BC1CD"/>
            <stop offset="1" stop-color="#A8EBA4"/>
        </linearGradient>
        <linearGradient id="paint2_linear_1349_168008" x1="35.1946" y1="97.97" x2="38.6785" y2="200.74" gradientUnits="userSpaceOnUse">
            <stop offset="0.05" stop-color="#6BC1CD"/>
            <stop offset="1" stop-color="#A8EBA4"/>
        </linearGradient>
        <linearGradient id="paint3_linear_1349_168008" x1="78.8977" y1="96.4885" x2="82.3814" y2="199.259" gradientUnits="userSpaceOnUse">
            <stop offset="0.05" stop-color="#6BC1CD"/>
            <stop offset="1" stop-color="#A8EBA4"/>
        </linearGradient>
        <linearGradient id="paint4_linear_1349_168008" x1="122.182" y1="89.875" x2="129.247" y2="171.708" gradientUnits="userSpaceOnUse">
            <stop stop-color="#E58F7E"/>
            <stop offset="0.1391" stop-color="#E4857E"/>
            <stop offset="0.6977" stop-color="#E0637F"/>
            <stop offset="1" stop-color="#DE567F"/>
        </linearGradient>
        <linearGradient id="paint5_linear_1349_168008" x1="153.261" y1="87.192" x2="160.326" y2="169.025" gradientUnits="userSpaceOnUse">
            <stop stop-color="#E58F7E"/>
            <stop offset="0.1391" stop-color="#E4857E"/>
            <stop offset="0.6977" stop-color="#E0637F"/>
            <stop offset="1" stop-color="#DE567F"/>
        </linearGradient>
    </defs>
</svg>
