<svg width="16" height="16" viewBox="0.5 0 16 16" fill="none" xmlns="http://www.w3.org/2000/svg">
    <path d="M6.62795 10.7998L4.29461 8.46651C4.2336 8.40475 4.16093 8.35571 4.08082 8.32225C4.00072 8.28878 3.91476 8.27155 3.82795 8.27155C3.74113 8.27155 3.65518 8.28878 3.57507 8.32225C3.49496 8.35571 3.4223 8.40475 3.36128 8.46651C3.29952 8.52752 3.25049 8.60019 3.21702 8.6803C3.18355 8.76041 3.16632 8.84636 3.16632 8.93318C3.16632 9.01999 3.18355 9.10595 3.21702 9.18605C3.25049 9.26616 3.29952 9.33883 3.36128 9.39984L6.15461 12.1932C6.41461 12.4532 6.83461 12.4532 7.09461 12.1932L14.1613 5.13318C14.223 5.07216 14.2721 4.99949 14.3055 4.91939C14.339 4.83928 14.3562 4.75333 14.3562 4.66651C14.3562 4.57969 14.339 4.49374 14.3055 4.41363C14.2721 4.33353 14.223 4.26086 14.1613 4.19984C14.1003 4.13808 14.0276 4.08905 13.9475 4.05558C13.8674 4.02212 13.7814 4.00488 13.6946 4.00488C13.6078 4.00488 13.5218 4.02212 13.4417 4.05558C13.3616 4.08905 13.289 4.13808 13.2279 4.19984L6.62795 10.7998Z" fill="#69B417"/>
</svg>
