<svg width="17" height="16" viewBox="0 0 17 16" fill="none" xmlns="http://www.w3.org/2000/svg">
    <mask id="mask0_6737_5246" style="mask-type:alpha" maskUnits="userSpaceOnUse" x="1" y="0" width="14" height="16">
        <path d="M12.1361 11.0002L14.1361 1.3335C14.1361 1.3335 10.6361 2.00016 10.6361 3.3335C10.6361 4.16683 11.9695 4.66683 11.4695 5.16683C10.9695 5.66683 9.13615 6.16683 9.13615 7.50016C9.13615 8.3335 9.68282 8.9535 9.13615 9.50016C8.63615 10.0002 8.13615 9.73816 7.30282 9.50016C6.36948 9.2335 4.46948 9.00016 3.80282 9.16683C3.13615 9.3335 2.46948 9.66683 2.46948 10.6668C2.46948 11.2168 2.80282 11.8335 3.63615 12.0002C4.46948 12.1668 5.46948 11.3335 6.80282 11.3335C8.13615 11.3335 9.80282 12.3335 10.8028 12.3335C11.8028 12.3335 12.1361 11.0002 12.1361 11.0002Z" fill="white" stroke="white" stroke-linejoin="round"/>
        <path d="M3.80273 12L2.80273 14.6667H13.8027L11.8027 12" stroke="white" stroke-width="2" stroke-linejoin="round"/>
    </mask>
    <g mask="url(#mask0_6737_5246)">
        <path d="M0.13623 0H16.1362V16H0.13623V0Z" fill="#5F6368"/>
    </g>
</svg>
