<svg width="13" height="13" viewBox="0 0 13 13" fill="none" xmlns="http://www.w3.org/2000/svg">
<path d="M9.46956 2.00016C9.46956 2.9335 8.73623 3.66683 7.8029 3.66683C6.86956 3.66683 6.13623 2.9335 6.13623 2.00016C6.13623 1.06683 6.86956 0.333496 7.8029 0.333496C8.73623 0.333496 9.46956 1.06683 9.46956 2.00016ZM8.13623 4.3335H7.6029C6.2029 4.3335 4.86956 3.5335 4.2029 2.26683C4.13623 2.20016 4.06956 2.1335 4.06956 2.06683L2.86956 2.60016C3.2029 3.5335 4.26956 4.7335 5.8029 5.3335L4.6029 8.66683L2.0029 7.9335L0.13623 11.6002L1.46956 11.9335L2.66956 9.5335L5.66956 10.3335C6.33623 10.4668 7.0029 10.1335 7.26956 9.5335L8.8029 5.26683C8.93623 4.80016 8.6029 4.3335 8.13623 4.3335ZM10.7362 3.66683L8.46956 9.9335C8.06956 11.0002 7.06956 11.6668 6.0029 11.6668C5.8029 11.6668 5.53623 11.6668 5.33623 11.6002L3.4029 11.0668L2.8029 12.2668L4.13623 12.6002L5.06956 12.8668C5.4029 12.9335 5.73623 13.0002 6.06956 13.0002C7.73623 13.0002 9.2029 12.0002 9.8029 10.4002L12.1362 3.66683H10.7362Z" fill="#5F6368"/>
</svg>
