<svg width="87" height="19" viewBox="0 0 87 19" fill="none" xmlns="http://www.w3.org/2000/svg">
<path d="M37.2593 4.2919V5.55674C36.0588 4.47197 34.4944 3.92316 32.6108 3.92316C30.7473 3.92316 29.1183 4.66063 27.7641 6.10984C27.5661 6.31993 27.3882 6.5386 27.2184 6.76156C26.2321 8.07357 25.7349 9.6171 25.7349 11.3579C25.7349 13.1072 26.2362 14.6508 27.2184 15.9585C27.3882 16.1857 27.5741 16.4087 27.7763 16.6231C28.4877 17.3948 29.28 17.9651 30.145 18.3338C30.913 18.6597 31.7336 18.8269 32.6067 18.8269C33.6253 18.8269 34.547 18.6597 35.3756 18.3338C36.0709 18.0637 36.6974 17.6864 37.2512 17.1933V18.3338V18.4582H40.5173V4.2919H37.8454H37.2593ZM36.0588 14.3635C35.2584 15.1524 34.26 15.5512 33.0958 15.5512C31.9438 15.5512 30.9656 15.1524 30.1935 14.3635C29.4053 13.5874 29.0051 12.5841 29.0051 11.375C29.0051 10.1531 29.3931 9.17119 30.1935 8.36941C30.9696 7.59335 31.9438 7.19889 33.0918 7.19889C34.2519 7.19889 35.2463 7.59335 36.0547 8.36941C36.8632 9.16691 37.2593 10.1488 37.2593 11.375C37.2593 12.6056 36.8672 13.5831 36.0588 14.3635ZM24.1504 4.1161C22.2586 4.1161 20.7671 4.84071 19.712 6.27277V4.2919H16.4459V18.4539H19.712V12.91C19.712 11.6151 20.1203 10.3889 20.9611 9.16262C21.7655 7.98353 22.9216 7.38326 24.3768 7.38326L25.2458 7.49474V4.1504L25.1407 4.14183C24.8335 4.12468 24.5101 4.1161 24.1504 4.1161ZM68.9705 3.92316C66.9817 3.92316 65.3204 4.64777 64.035 6.07554C62.7495 7.50331 62.0987 9.28696 62.0987 11.3707C62.0987 13.566 62.7697 15.3754 64.0996 16.7517C65.4457 18.1452 67.099 18.8226 69.1524 18.8226C70.9189 18.8226 72.6287 18.3981 74.2213 17.5578L74.3426 17.4934L72.4994 14.7279L72.4104 14.7708C71.3999 15.2896 70.3408 15.5469 69.1807 15.5469C67.2121 15.5469 65.9429 14.6465 65.4053 12.8714H75.8301V11.6623C75.8301 9.25266 75.147 7.34038 73.801 5.97692C72.4509 4.61347 70.8259 3.92316 68.9705 3.92316ZM65.4336 9.87007C65.7933 8.69956 66.5856 7.83346 67.6851 7.42614C68.8492 6.99309 70.1751 7.17746 71.1412 7.91064C71.7677 8.36941 72.2204 9.02541 72.4872 9.87007H65.4336ZM0.636805 4.03893L0.576172 4.07323V7.66624L5.95232 4.6349V12.97C5.95232 15.1267 6.68801 16.6359 7.31859 17.2748C7.68239 17.6392 8.11087 17.9136 8.59593 18.0851C9.14163 18.2952 9.48926 18.3981 9.71563 18.411C9.95412 18.4281 10.1926 18.441 10.4634 18.441C11.3366 18.441 12.0763 18.411 12.6664 18.3424L12.7675 18.3295V15.3025L12.6462 15.311C12.2865 15.3325 11.8944 15.3411 11.474 15.3411C9.95412 15.3411 9.21439 14.5822 9.21439 13.0258V4.63919L14.5905 7.67053V4.07323L7.58942 0.0900398L0.636805 4.03893ZM86.3197 4.14612C86.0125 4.12468 85.6891 4.11182 85.3294 4.11182C83.4376 4.11182 81.946 4.83642 80.891 6.26848V4.28761H77.6209V18.4496H80.891V12.91C80.891 11.6151 81.2993 10.3889 82.1401 9.16262C82.9445 7.98353 84.1005 7.38326 85.5557 7.38326L86.4248 7.49474V4.1504L86.3197 4.14612ZM42.8335 7.54619H50.3238L42.8699 15.0538L42.8335 15.0881V18.4539H54.564V15.1953H47.0415L54.564 7.57192V4.28761H42.8335V7.54619ZM56.8115 18.4539H60.0776V0H56.8115V18.4539Z" fill="#7A65E1"/>
</svg>
