<svg width="16" height="16" viewBox="0 0 16 16" fill="none" xmlns="http://www.w3.org/2000/svg">
<g opacity="0.8">
<path fill-rule="evenodd" clip-rule="evenodd" d="M7.9999 14.1257L8.48066 13.584C9.02618 12.9593 9.51685 12.3665 9.95342 11.8027L10.3138 11.3273C11.8186 9.29983 12.5713 7.69069 12.5713 6.50136C12.5713 3.96269 10.5248 1.90479 7.9999 1.90479C5.47494 1.90479 3.42847 3.96269 3.42847 6.50136C3.42847 7.69069 4.18123 9.29983 5.68599 11.3273L6.04637 11.8027C6.66918 12.6007 7.32079 13.3758 7.9999 14.1265V14.1257Z" stroke="#202124" stroke-width="0.9" stroke-linecap="round" stroke-linejoin="round"/>
<path d="M7.99998 8.38106C9.05195 8.38106 9.90474 7.52827 9.90474 6.47629C9.90474 5.42432 9.05195 4.57153 7.99998 4.57153C6.94801 4.57153 6.09521 5.42432 6.09521 6.47629C6.09521 7.52827 6.94801 8.38106 7.99998 8.38106Z" stroke="#202124" stroke-width="0.9" stroke-linecap="round" stroke-linejoin="round"/>
</g>
</svg>
