<svg width="51" height="51" viewBox="0 0 51 51" fill="none" xmlns="http://www.w3.org/2000/svg">
    <path class="main-bg" d="M2.5 48.3989H25.5V2.39886H2.5V48.3989Z" fill="#5F6368"/>
    <path class="item-bg" d="M16.875 8.14886H22.625V13.8989H16.875V8.14886ZM16.875 19.6489H22.625V25.3989H16.875V19.6489ZM16.875 31.1489H22.625V36.8989H16.875V31.1489Z" fill="#FFFFFF"/>
    <path class="main-bg" d="M5.375 8.14886H11.125V13.8989H5.375V8.14886ZM5.375 19.6489H11.125V25.3989H5.375V19.6489ZM5.375 31.1489H11.125V36.8989H5.375V31.1489ZM28.375 16.7739H48.5V19.6489H28.375V16.7739ZM28.375 48.3989H34.125V36.8989H42.75V48.3989H48.5V22.5239H28.375V48.3989Z" fill="#5F6368"/>
    <path class="item-bg" d="M5.375 8.14886H11.125V13.8989H5.375V8.14886ZM5.375 19.6489H11.125V25.3989H5.375V19.6489ZM5.375 31.1489H11.125V36.8989H5.375V31.1489Z" fill="#FFFFFF"/>
</svg>
