<svg width="51" height="50" viewBox="0 0 51 50" fill="none" xmlns="http://www.w3.org/2000/svg">
    <path class="main-bg" d="M48.4157 27.1066C48.4157 26.2051 48.2122 25.344 47.8446 24.5563C47.8067 24.356 47.7634 24.156 47.7093 23.9532L43.728 14.0866L43.7011 13.9978C42.3081 9.85023 40.3261 6.01151 35.3003 6.01151H16.0847C10.935 6.01151 9.11524 9.94534 7.69174 13.9748L3.52733 23.8655C2.92529 24.8301 2.58301 25.9335 2.58301 27.1066V30.1768C2.58301 30.6515 2.63912 31.1158 2.7458 31.5631C2.64209 31.8333 2.58301 32.1245 2.58301 32.4314V41.5629C2.58301 42.9019 3.66852 43.9876 5.00755 43.9876H10.0389C11.3772 43.9876 12.4627 42.9019 12.4627 41.5629V36.9965H38.8234V41.5629C38.8234 42.9019 39.9091 43.9876 41.2483 43.9876H45.9915C47.331 43.9876 48.4163 42.9019 48.4163 41.5629V32.4304C48.4163 32.1246 48.3566 31.832 48.2537 31.5628C48.36 31.1148 48.4163 30.651 48.4163 30.1764V27.1067H48.4157V27.1066ZM10.6464 14.9654C12.2317 10.4928 13.5065 9.12747 16.0847 9.12747H35.2991C37.8583 9.12747 39.2834 10.6503 40.7314 14.9462L43.6367 20.8337C42.6881 20.4824 41.6441 20.2874 40.5473 20.2874H10.4514C9.46387 20.2874 8.52016 20.4462 7.64946 20.7336L10.6464 14.9654ZM13.1421 31.3428H7.83355C6.87776 31.3428 6.10258 30.5669 6.10258 29.6113C6.10258 28.6553 6.87776 27.8799 7.83355 27.8799H13.1421C14.0983 27.8799 14.8735 28.6553 14.8735 29.6113C14.8735 30.5669 14.0978 31.3428 13.1421 31.3428ZM31.895 30.996H19.547C18.9416 30.996 18.451 30.5052 18.451 29.9001C18.451 29.2939 18.9416 28.8032 19.547 28.8032H31.895C32.5011 28.8032 32.9915 29.2939 32.9915 29.9001C32.9915 30.5052 32.5011 30.996 31.895 30.996ZM43.0314 31.3428H37.723C36.7664 31.3428 35.9916 30.5669 35.9916 29.6113C35.9916 28.6553 36.767 27.8799 37.723 27.8799H43.0314C43.988 27.8799 44.7634 28.6553 44.7634 29.6113C44.7634 30.5669 43.988 31.3428 43.0314 31.3428Z" fill="#5F6368"/>
</svg>
