<svg width="50" height="50" viewBox="0 0 50 50" fill="none" xmlns="http://www.w3.org/2000/svg">
    <path class="main-bg" d="M25.5 8.19993C34.325 8.19993 41.575 14.7249 42.8 23.1999H48L39.25 33.1999L30.5 23.1999H36.3C35.7407 20.7527 34.3682 18.5674 32.4066 17.0008C30.4451 15.4343 28.0103 14.5791 25.5 14.5749C21.875 14.5749 18.675 16.3499 16.65 19.0249L12.375 14.1499C14.0113 12.2788 16.0292 10.7797 18.2931 9.75343C20.557 8.72714 23.0143 8.19743 25.5 8.19993ZM24.5 41.7999C15.7 41.7999 8.425 35.2749 7.2 26.7999H2L10.75 16.7999C13.675 20.1249 16.575 23.4749 19.5 26.7999H13.7C14.2593 29.2472 15.6318 31.4325 17.5934 32.999C19.5549 34.5655 21.9897 35.4207 24.5 35.4249C28.125 35.4249 31.325 33.6499 33.35 30.9749L37.625 35.8499C35.9903 37.7229 33.9727 39.2233 31.7084 40.2498C29.4442 41.2762 26.986 41.8049 24.5 41.7999Z" fill="#5F6368"/>
</svg>
