<svg width="12" height="14" viewBox="0 0 12 14" fill="none" xmlns="http://www.w3.org/2000/svg">
<path d="M3.12649 2.61871C2.60649 2.1001 2.60649 1.2557 3.12649 0.737099C3.64649 0.218493 4.49315 0.218493 5.01315 0.737099C5.53315 1.2557 5.53315 2.1001 5.01315 2.61871C4.48649 3.14396 3.64649 3.14396 3.12649 2.61871ZM2.06649 9.65978V3.67587H0.733154V9.65978C0.733154 11.4948 2.22649 12.9842 4.06649 12.9842H8.06649V11.6544H4.06649C2.95982 11.6544 2.06649 10.7635 2.06649 9.65978ZM11.3998 12.3658L8.01982 8.9949H5.73315V6.54814C6.66649 7.31276 8.13315 7.98428 9.39982 7.98428V6.54814C8.29315 6.56144 6.99315 5.9697 6.28649 5.19179L5.35315 4.16123C5.22649 4.0216 5.06649 3.90857 4.89315 3.82879C4.69982 3.7357 4.47982 3.67587 4.25315 3.67587H4.23315C3.40649 3.67587 2.73315 4.34739 2.73315 5.17184V8.9949C2.73315 10.0986 3.62649 10.9895 4.73315 10.9895H8.11315L10.4465 13.3166L11.3998 12.3658Z" fill="#5F6368"/>
</svg>
