<?xml version="1.0" encoding="UTF-8"?>
<svg width="70px" height="7px" viewBox="0 0 70 7" version="1.1" xmlns="http://www.w3.org/2000/svg" xmlns:xlink="http://www.w3.org/1999/xlink">
    <!-- Generator: sketchtool 53.2 (72643) - https://sketchapp.com -->
    <title>694D8B43-E6CB-4652-918A-2A8F37250725</title>
    <desc>Created with sketchtool.</desc>
    <defs>
        <linearGradient x1="50%" y1="-0.000295578151%" x2="50%" y2="100.001182%" id="linearGradient-1">
            <stop stop-color="#FF1E27" offset="33.52%"></stop>
            <stop stop-color="#E81B23" offset="69.15%"></stop>
            <stop stop-color="#A61319" offset="78.41%"></stop>
            <stop stop-color="#9D1218" offset="87.19%"></stop>
            <stop stop-color="#931116" offset="95.51%"></stop>
            <stop stop-color="#800F14" offset="100%"></stop>
        </linearGradient>
    </defs>
    <g id="Results" stroke="none" stroke-width="1" fill="none" fill-rule="evenodd">
        <g id="T-Results-Flight-Timeline" transform="translate(-404.000000, -390.000000)" fill-rule="nonzero">
            <g id="Content" transform="translate(350.000000, 254.000000)">
                <g transform="translate(0.000000, 50.000000)" id="Ticket-Round-Trip/Normal">
                    <g transform="translate(0.000000, 44.000000)">
                        <g id="Left">
                            <g transform="translate(20.000000, 26.000000)">
                                <g id="Company" transform="translate(34.000000, 0.000000)">
                                    <g id="Logo-20-70/AF" transform="translate(0.000000, 10.000000)">
                                        <g id="Air_France_Logo" transform="translate(0.000000, 6.916667)">
                                            <path d="M66.22665,0.0511833371 L63.08505,4.54269391 C62.67135,5.13337727 62.00005,5.70244604 61.1898,5.76365854 L61.1898,5.90147313 L64.684025,5.90147313 C65.611525,5.90147313 66.288075,5.30473769 66.7464,4.64748142 L69.97235,0.0513562538 L66.22665,0.0513562538 L66.22665,0.0511833371 Z" id="Path" fill="#ED1C24"></path>
                                            <path d="M66.22665,0.0511833371 L63.08505,4.54200225 C62.67135,5.13337727 62.00005,5.70244604 61.1898,5.76348562 L61.1898,5.90130021 L64.684025,5.90130021 C65.611525,5.90130021 66.288075,5.30456477 66.7464,4.6473085 L69.97235,0.0511833371 L66.22665,0.0511833371 L66.22665,0.0511833371 Z" id="Path" fill="url(#linearGradient-1)"></path>
                                            <path d="M8.36605,5.90130048 L8.36605,0.544687528 L9.948575,0.544687528 L9.948575,5.90130048 L8.36605,5.90130048 L8.36605,5.90130048 Z M44.8469,5.90130048 L41.046075,2.72049813 L41.046075,5.90130048 L39.710125,5.90130048 L39.710125,0.544687528 L40.845,0.544687528 L44.595425,3.67568988 L44.595425,0.544687528 L45.931375,0.544687528 L45.931375,5.90130048 L44.8469,5.90130048 L44.8469,5.90130048 Z M53.113025,2.27298963 C52.3978,1.92525421 51.592975,1.64357295 50.525475,1.64357295 C49.25095,1.64357295 48.300525,2.29495005 48.300525,3.20068756 C48.300525,4.12925007 49.267575,4.78581466 50.513925,4.78581466 C51.5424,4.78581466 52.358775,4.52609382 53.1636,4.06786465 L53.1636,5.39344383 C52.4531,5.741698 51.5088,6.00072717 50.44725,6.00072717 C48.2783,6.00072717 46.573625,4.90720216 46.573625,3.20086047 C46.573625,1.52183962 48.312075,0.444914608 50.441825,0.444914608 C51.447375,0.444914608 52.358775,0.63270211 53.113025,0.936516697 L53.113025,2.27298963 L53.113025,2.27298963 Z M18.75125,5.90130048 L18.75125,0.544687528 L24.03835,0.544687528 L24.03835,1.69285429 L20.332375,1.69285429 L20.332375,3.02431274 L23.9547,3.02431274 L23.9547,4.17317117 L20.332375,4.17317117 L20.332375,5.90130048 L18.75125,5.90130048 L18.75125,5.90130048 Z M54.068875,5.90130048 L54.068875,0.544687528 L59.5574,0.544687528 L59.5574,1.69285429 L55.6507,1.69285429 L55.6507,2.62124395 L59.49545,2.62124395 L59.49545,3.76958363 L55.6507,3.76958363 L55.6507,4.75244205 L59.5406,4.75244205 L59.5406,5.9014734 L54.068875,5.9014734 L54.068875,5.90130048 Z M29.5323,3.89148989 L31.718225,5.90130048 L30.029825,5.90130048 C29.655675,5.90130048 29.409625,5.7854463 29.213625,5.59765879 L27.72735,4.17317117 C27.699,4.14515866 27.65455,4.12925033 27.598725,4.12925033 L26.58705,4.12925033 L26.58705,5.90130048 L25.00505,5.90130048 L25.00505,0.544687528 L28.4319,0.544687528 C30.2085,0.544687528 30.9582,1.33387926 30.9582,2.2071085 C30.95785,3.22264817 30.0412,3.70871696 29.5323,3.89148989 L29.5323,3.89148989 L29.5323,3.89148989 Z M28.26915,3.00753974 C28.8953,3.00753974 29.19735,2.69248555 29.19735,2.33956261 C29.19735,1.985948 28.929075,1.69285423 28.26915,1.69285423 L26.586875,1.69285423 L26.586875,3.00753974 L28.26915,3.00753974 L28.26915,3.00753974 Z M15.95685,3.89148989 L18.1419,5.90130048 L16.4542,5.90130048 C16.07935,5.90130048 15.833475,5.7854463 15.638,5.59765879 L14.151025,4.17317117 C14.12355,4.14515866 14.078225,4.12925033 14.0224,4.12925033 L13.011425,4.12925033 L13.011425,5.90130048 L11.4289,5.90130048 L11.4289,0.544687528 L14.855575,0.544687528 C16.632875,0.544687528 17.381875,1.33387926 17.381875,2.2071085 C17.3817,3.22264817 16.46505,3.70871696 15.95685,3.89148989 L15.95685,3.89148989 L15.95685,3.89148989 Z M14.6937,3.00753974 C15.31915,3.00753974 15.6212,2.69248555 15.6212,2.33956261 C15.6212,1.985948 15.352925,1.69285423 14.6937,1.69285423 L13.011425,1.69285423 L13.011425,3.00753974 L14.6937,3.00753974 L14.6937,3.00753974 Z M5.891025,5.9013005 L5.197325,4.72529415 L2.168425,4.72529415 L1.53685,5.9013005 L0.02765,5.9013005 L3.045175,0.550047944 L4.42015,0.550047944 L7.840875,5.9013005 L5.891025,5.9013005 L5.891025,5.9013005 Z M2.77165,3.6098086 L4.537575,3.6098086 L3.620925,1.97453556 L2.77165,3.6098086 L2.77165,3.6098086 Z M37.475025,5.9013005 L36.7983,4.72529415 L33.847625,4.72529415 L33.238275,5.9013005 L31.768275,5.9013005 L34.70845,0.550047944 L36.0437,0.550047944 L39.3694,5.9013005 L37.475025,5.9013005 L37.475025,5.9013005 Z M34.439825,3.6098086 L36.1613,3.6098086 L35.26705,1.97453556 L34.439825,3.6098086 L34.439825,3.6098086 Z" id="Shape" fill="#002157"></path>
                                        </g>
                                    </g>
                                </g>
                            </g>
                        </g>
                    </g>
                </g>
            </g>
        </g>
    </g>
</svg>