<?xml version="1.0" encoding="UTF-8"?>
<svg width="22px" height="20px" viewBox="0 0 22 20" version="1.1" xmlns="http://www.w3.org/2000/svg" xmlns:xlink="http://www.w3.org/1999/xlink">
    <!-- Generator: sketchtool 53.2 (72643) - https://sketchapp.com -->
    <title>85F3EA00-87F2-49DF-BD83-0FBA3FB89767</title>
    <desc>Created with sketchtool.</desc>
    <g id="Results" stroke="none" stroke-width="1" fill="none" fill-rule="evenodd">
        <g id="T-Results-Flight-Timeline" transform="translate(-428.000000, -583.000000)">
            <g id="Content" transform="translate(350.000000, 254.000000)">
                <g transform="translate(0.000000, 50.000000)" id="Ticket-One-Way/Full">
                    <g transform="translate(0.000000, 244.000000)">
                        <g id="Left">
                            <g transform="translate(20.000000, 26.000000)">
                                <g id="Company" transform="translate(34.000000, 0.000000)">
                                    <g id="Icons/Multiple" transform="translate(23.000000, 7.000000)">
                                        <g>
                                            <path d="M2.53,19.65 L3.87,20.21 L3.87,11.18 L1.44,17.04 C1.03,18.06 1.52,19.23 2.53,19.65 L2.53,19.65 Z M22.03,15.95 L17.07,3.98 C16.76,3.23 16.03,2.77 15.26,2.75 C15,2.75 14.73,2.79 14.47,2.9 L7.1,5.95 C6.35,6.26 5.89,6.98 5.87,7.75 C5.86,8.02 5.91,8.29 6.02,8.55 L10.98,20.52 C11.29,21.28 12.03,21.74 12.81,21.75 C13.07,21.75 13.33,21.7 13.58,21.6 L20.94,18.55 C21.96,18.13 22.45,16.96 22.03,15.95 L22.03,15.95 Z M7.88,8.75 C7.33,8.75 6.88,8.3 6.88,7.75 C6.88,7.2 7.33,6.75 7.88,6.75 C8.43,6.75 8.88,7.2 8.88,7.75 C8.88,8.3 8.43,8.75 7.88,8.75 Z M5.88,19.75 C5.88,20.85 6.78,21.75 7.88,21.75 L9.33,21.75 L5.88,13.41 L5.88,19.75 Z" id="Shape" fill="#9B9B9B" fill-rule="nonzero"></path>
                                            <polygon id="Icon-Multiple" points="0 0 24 0 24 24 0 24"></polygon>
                                        </g>
                                    </g>
                                </g>
                            </g>
                        </g>
                    </g>
                </g>
            </g>
        </g>
    </g>
</svg>