<?xml version="1.0" encoding="UTF-8"?>
<svg width="20px" height="16px" viewBox="0 0 20 16" version="1.1" xmlns="http://www.w3.org/2000/svg" xmlns:xlink="http://www.w3.org/1999/xlink">
    <!-- Generator: sketchtool 53.2 (72643) - https://sketchapp.com -->
    <title>CDB1DB16-EA91-43F6-9324-F52E3C857F5D</title>
    <desc>Created with sketchtool.</desc>
    <g id="Components" stroke="none" stroke-width="1" fill="none" fill-rule="evenodd">
        <g id="T-Hover-List" transform="translate(-236.000000, -1879.000000)">
            <g id="Check" transform="translate(224.000000, 1497.000000)">
                <g id="Act/Activities" transform="translate(0.000000, 360.000000)">
                    <g id="Act/Flight">
                        <g id="Icons/Main/Car-White" transform="translate(10.000000, 18.000000)">
                            <g id="baseline-local_activity-24px">
                                <polygon id="Path" points="0 0 24 0 24 24 0 24"></polygon>
                                <path d="M20,12 C20,10.9 20.9,10 22,10 L22,6 C22,4.9 21.1,4 20,4 L4,4 C2.9,4 2.01,4.9 2.01,6 L2.01,10 C3.11,10 4,10.9 4,12 C4,13.1 3.11,14 2,14 L2,18 C2,19.1 2.9,20 4,20 L20,20 C21.1,20 22,19.1 22,18 L22,14 C20.9,14 20,13.1 20,12 Z M15.58,16.8 L12,14.5 L8.42,16.8 L9.5,12.68 L6.21,9.99 L10.45,9.74 L12,5.8 L13.54,9.75 L17.78,10 L14.49,12.69 L15.58,16.8 Z" id="Shape" fill="#FFFFFF" fill-rule="nonzero"></path>
                            </g>
                        </g>
                    </g>
                </g>
            </g>
        </g>
    </g>
</svg>