<svg id="Capa_1" enable-background="new 0 0 512 512" height="512" viewBox="0 0 512 512" width="512" xmlns="http://www.w3.org/2000/svg"><g><path d="m512 224.107h-82l50.017-50.017-45.103-45.103-95.121 95.12h-51.9v-51.9l95.12-95.121-45.103-45.103-50.017 50.018v-82.001h-63.786v82.001l-50.017-50.018-45.103 45.103 95.12 95.121v51.9h-51.9l-95.121-95.12-45.103 45.103 50.017 50.017h-82v63.786h82l-50.017 50.017 45.103 45.103 95.121-95.12h51.9v51.9l-95.12 95.121 45.103 45.103 50.017-50.018v82.001h63.786v-82.001l50.017 50.018 45.103-45.103-95.12-95.121v-51.9h51.9l95.121 95.12 45.103-45.103-50.017-50.017h82z"/></g></svg>