<?xml version="1.0" encoding="UTF-8"?>
<svg width="14px" height="22px" viewBox="0 0 14 22" version="1.1" xmlns="http://www.w3.org/2000/svg" xmlns:xlink="http://www.w3.org/1999/xlink">
    <!-- Generator: sketchtool 53.2 (72643) - https://sketchapp.com -->
    <title>6B07D192-B735-4F0D-9B5D-82E0418ACCAE</title>
    <desc>Created with sketchtool.</desc>
    <g id="Results" stroke="none" stroke-width="1" fill="none" fill-rule="evenodd">
        <g id="T-Results-Flight-Timeline" transform="translate(-1063.000000, -460.000000)">
            <g id="Content" transform="translate(350.000000, 254.000000)">
                <g transform="translate(0.000000, 50.000000)" id="Ticket-Round-Trip/Normal">
                    <g transform="translate(0.000000, 44.000000)">
                        <g id="Icons-Copy">
                            <g transform="translate(680.000000, 111.000000)">
                                <g id="Icons/Case" transform="translate(28.000000, 0.000000)">
                                    <g>
                                        <polygon id="Case" points="0 0 24 0 24 24 0 24"></polygon>
                                        <path d="M7,21 C5.8954305,21 5,20.1045695 5,19 L5,7 C5,5.8954305 5.8954305,5 7,5 L8,5 L8,3 C8,1.8954305 8.8954305,1 10,1 L14,1 C15.1045695,1 16,1.8954305 16,3 L16,5 L17,5 C18.1045695,5 19,5.8954305 19,7 L19,19 C19,20.1045695 18.1045695,21 17,21 L17,23 L15,23 L15,21 L9,21 L9,23 L7,23 L7,21 Z M10,3 L10,5 L14,5 L14,3 L10,3 Z" id="Combined-Shape" fill="#9B9B9B" fill-rule="nonzero"></path>
                                        <path d="M11,19 L13,19 L13,17 L11,17 L11,19 Z M12,7 C9.79,7 8,8.79 8,11 L10,11 C10,9.9 10.9,9 12,9 C13.1,9 14,9.9 14,11 C14,13 11,12.75 11,16 L13,16 C13,13.75 16,13.5 16,11 C16,8.79 14.21,7 12,7 Z" id="Shape" fill="#FFFFFF" fill-rule="nonzero"></path>
                                    </g>
                                </g>
                            </g>
                        </g>
                    </g>
                </g>
            </g>
        </g>
    </g>
</svg>