<svg height="511pt" viewBox="1 0 511.99899 511" width="511pt" xmlns="http://www.w3.org/2000/svg"><path d="m102.546875 223.984375h26.304687c8.335938 0 15.09375-6.757813 15.09375-15.089844 0-8.335937-6.757812-15.09375-15.09375-15.09375h-26.304687v-118.082031c0-24.832031 20.203125-45.035156 45.039063-45.035156 24.460937 0 44.414062 19.609375 45.007812 43.929687h-6.421875c-21.589844 0-39.15625 17.566407-39.15625 39.152344v17.820313c0 8.335937 6.757813 15.09375 15.09375 15.09375h91.207031c8.335938 0 15.089844-6.757813 15.089844-15.09375v-17.820313c0-21.585937-17.5625-39.152344-39.152344-39.152344h-6.480468c-.59375-40.964843-34.085938-74.113281-75.191407-74.113281-41.476562 0-75.21875 33.742188-75.21875 75.21875v214.609375h30.183594zm0 0"/><path d="m22.847656 373.988281c4.558594 41.261719 27.566406 77.035157 60.570313 98.878907l-11.496094 15.167968c-5.035156 6.640625-3.734375 16.109375 2.910156 21.144532 2.726563 2.066406 5.929688 3.0625 9.105469 3.0625 4.5625 0 9.070312-2.058594 12.039062-5.972657l14.746094-19.457031c14.90625 5.59375 31.03125 8.664062 47.867188 8.664062h187.640625c18.730469 0 36.808593-3.855468 53.355469-10.894531l16.4375 21.6875c2.96875 3.914063 7.476562 5.972657 12.039062 5.972657 3.175781 0 6.378906-.996094 9.105469-3.0625 6.640625-5.035157 7.945312-14.503907 2.910156-21.144532l-13.960937-18.417968c22.203124-16.019532 39.632812-38.679688 49.070312-65.734376l10.425781-29.894531zm0 0"/><path d="m500.355469 320.511719h-488.710938c-6.417969 0-11.644531 5.222656-11.644531 11.644531s5.226562 11.648438 11.644531 11.648438h488.707031c6.421876 0 11.648438-5.226563 11.648438-11.648438s-5.226562-11.644531-11.644531-11.644531zm0 0"/></svg>