<?xml version="1.0" encoding="iso-8859-1"?>
<!-- Generator: Adobe Illustrator 19.0.0, SVG Export Plug-In . SVG Version: 6.00 Build 0)  -->
<svg version="1.1" id="Capa_1" xmlns="http://www.w3.org/2000/svg" xmlns:xlink="http://www.w3.org/1999/xlink" x="0px" y="0px"
	 viewBox="0 0 426.667 426.667" style="enable-background:new 0 0 426.667 426.667;" xml:space="preserve">
<g>
	<g>
		<g>
			<path d="M383.893,106.667h-85.547V64L255.68,21.333h-85.333L127.893,64v42.667H42.667C19.093,106.667,0,125.76,0,149.333v64
				C0,236.907,19.093,256,42.667,256h128v-42.667H256V256h128c23.573,0,42.667-19.093,42.667-42.667v-64
				C426.56,125.76,407.467,106.667,383.893,106.667z M255.787,106.667h-85.333V64h85.333V106.667z"/>
			<path d="M255.893,298.667H170.56v-21.333H21.44l-0.213,85.333c0,23.68,18.987,42.667,42.667,42.667H362.56
				c23.68,0,42.667-18.987,42.667-42.667v-85.333H255.893V298.667z"/>
		</g>
	</g>
</g>
<g>
</g>
<g>
</g>
<g>
</g>
<g>
</g>
<g>
</g>
<g>
</g>
<g>
</g>
<g>
</g>
<g>
</g>
<g>
</g>
<g>
</g>
<g>
</g>
<g>
</g>
<g>
</g>
<g>
</g>
</svg>
