<?xml version="1.0" encoding="UTF-8"?>
<svg width="24px" height="24px" viewBox="0 0 24 24" version="1.1" xmlns="http://www.w3.org/2000/svg" xmlns:xlink="http://www.w3.org/1999/xlink">
    <title>A232186B-7CFF-47F6-8F17-886B31728747</title>
    <defs>
        <rect id="path-1" x="600" y="0" width="290" height="40"></rect>
        <filter x="-0.2%" y="-1.2%" width="100.3%" height="102.5%" filterUnits="objectBoundingBox" id="filter-2">
            <feOffset dx="-1" dy="0" in="SourceAlpha" result="shadowOffsetInner1"></feOffset>
            <feComposite in="shadowOffsetInner1" in2="SourceAlpha" operator="arithmetic" k2="-1" k3="1" result="shadowInnerInner1"></feComposite>
            <feColorMatrix values="0 0 0 0 1   0 0 0 0 1   0 0 0 0 1  0 0 0 0.2 0" type="matrix" in="shadowInnerInner1"></feColorMatrix>
        </filter>
    </defs>
    <g id="Edit-Bar" stroke="none" stroke-width="1" fill="none" fill-rule="evenodd">
        <g id="T-F-Edit" transform="translate(-660.000000, -18.000000)">
            <rect fill="#FBFBFB" x="0" y="0" width="1280" height="1620"></rect>
            <g id="Edit/Flight">
                <rect id="Bg" fill="#7A65E1" fill-rule="nonzero" x="0" y="0" width="1280" height="60"></rect>
                <g id="Grid" transform="translate(50.000000, 10.000000)" fill="black" fill-opacity="1">
                    <g id="Cell-290-Copy-3">
                        <use filter="url(#filter-2)" xlink:href="#path-1"></use>
                    </g>
                </g>
                <g id="Edit/Car" transform="translate(50.000000, 10.000000)">
                    <g id="baseline-calendar_today-24px" transform="translate(610.000000, 8.000000)">
                        <path d="M7,1 L7,3 L17,3 L17,1 L19,1 L19,3 L20,3 C21.1,3 22,3.9 22,5 L22,5 L22,21 C22,22.1 21.1,23 20,23 L20,23 L4,23 C2.9,23 2,22.1 2,21 L2,21 L2,5 C2,3.9 2.9,3 4,3 L4,3 L5,3 L5,1 L7,1 Z M20,8 L4,8 L4,21 L20,21 L20,8 Z M9,15 L9,18 L6,18 L6,15 L9,15 Z M9,10 L9,13 L6,13 L6,10 L9,10 Z M14,10 L14,13 L11,13 L11,10 L14,10 Z" id="Combined-Shape" fill="#FFFFFF"></path>
                        <polygon id="Path" points="0 0 24 0 24 24 0 24"></polygon>
                    </g>
                </g>
            </g>
        </g>
    </g>
</svg>