<?xml version="1.0" encoding="UTF-8"?>
<svg width="24px" height="24px" viewBox="0 0 24 24" version="1.1" xmlns="http://www.w3.org/2000/svg" xmlns:xlink="http://www.w3.org/1999/xlink">
    <title>A99A8728-A27B-400B-BB21-42983C110E33</title>
    <g id="Hotel-Room-Compare" stroke="none" stroke-width="1" fill="none" fill-rule="evenodd">
        <g id="T-Hotel-Room-New" transform="translate(-370.000000, -4180.000000)">
            <g id="Content-About" transform="translate(350.000000, 2834.000000)">
                <g id="Additional" transform="translate(0.000000, 1004.000000)">
                    <g id="error_outline-24px" transform="translate(20.000000, 342.000000)">
                        <polygon id="Path" points="0 0 24 0 24 24 0 24"></polygon>
                        <path d="M11,15 L13,15 L13,17 L11,17 L11,15 Z M11,7 L13,7 L13,13 L11,13 L11,7 Z M11.99,2 C6.47,2 2,6.48 2,12 C2,17.52 6.47,22 11.99,22 C17.52,22 22,17.52 22,12 C22,6.48 17.52,2 11.99,2 Z M12,20 C7.58,20 4,16.42 4,12 C4,7.58 7.58,4 12,4 C16.42,4 20,7.58 20,12 C20,16.42 16.42,20 12,20 Z" id="Shape" fill="#4A4A4A" fill-rule="nonzero"></path>
                    </g>
                </g>
            </g>
        </g>
    </g>
</svg>