<?xml version="1.0" encoding="UTF-8"?>
<svg width="24px" height="24px" viewBox="0 0 24 24" version="1.1" xmlns="http://www.w3.org/2000/svg" xmlns:xlink="http://www.w3.org/1999/xlink">
    <!-- Generator: sketchtool 52.6 (67491) - http://www.bohemiancoding.com/sketch -->
    <title>AFE23659-846A-4E09-8BE4-F828BD1A1355</title>
    <desc>Created with sketchtool.</desc>
    <g id="Round-Trip" stroke="none" stroke-width="1" fill="none" fill-rule="evenodd">
        <g id="T-Main" transform="translate(-1186.000000, -540.000000)">
            <g id="Main">
                <g id="Row-Services" transform="translate(50.000000, 520.000000)">
                    <g id="Act-4" transform="translate(900.000000, 0.000000)">
                        <g id="ic_local_taxi_black_24px-copy-5">
                            <g transform="translate(236.000000, 20.000000)">
                                <polygon id="Shape" points="0 0 24 0 24 24 0 24"></polygon>
                                <path d="M2.69449082,10 L4.08,6.01 C4.29,5.42 4.84,5 5.5,5 L8,5 L16,5 L18.5,5 C19.16,5 19.72,5.42 19.92,6.01 L21.3055092,10 L24,10 C24,11.1045695 23.1045695,12 22,12 L22,20 C22,20.55 21.55,21 21,21 L20,21 C19.45,21 19,20.55 19,20 L19,19 L5,19 L5,20 C5,20.55 4.55,21 4,21 L3,21 C2.45,21 2,20.55 2,20 L2,12 C0.8954305,12 -2.22044605e-16,11.1045695 -2.22044605e-16,10 L2.69449082,10 Z M3,14 L3,17 L8,17 C8,15.3431458 6.65685425,14 5,14 L3,14 Z M19,14 C17.3431458,14 16,15.3431458 16,17 L21,17 L21,14 L19,14 Z M4,11 L20,11 L18.5,6.5 L5.5,6.5 L4,11 Z" id="Shape" fill="#C0C0C0" fill-rule="nonzero"></path>
                            </g>
                        </g>
                    </g>
                </g>
            </g>
        </g>
    </g>
</svg>