<?xml version="1.0" encoding="UTF-8"?>
<svg width="24px" height="24px" viewBox="0 0 24 24" version="1.1" xmlns="http://www.w3.org/2000/svg" xmlns:xlink="http://www.w3.org/1999/xlink">
    <title>8EC936FC-BDEA-408B-A4C5-2CBD564D6C5E</title>
    <g id="Hotel-Room-Compare" stroke="none" stroke-width="1" fill="none" fill-rule="evenodd">
        <g id="T-Hotel-Room-New" transform="translate(-370.000000, -3922.000000)">
            <g id="Content-About" transform="translate(350.000000, 2834.000000)">
                <g id="Additional" transform="translate(0.000000, 1004.000000)">
                    <g id="Checkins" transform="translate(20.000000, 52.000000)">
                        <g id="event_busy-24px" transform="translate(0.000000, 32.000000)">
                            <polygon id="Path" points="0 0 24 0 24 24 0 24"></polygon>
                            <path d="M9.31,17 L11.75,14.56 L14.19,17 L15.25,15.94 L12.81,13.5 L15.25,11.06 L14.19,10 L11.75,12.44 L9.31,10 L8.25,11.06 L10.69,13.5 L8.25,15.94 L9.31,17 Z M19,3 L18,3 L18,1 L16,1 L16,3 L8,3 L8,1 L6,1 L6,3 L5,3 C3.89,3 3.01,3.9 3.01,5 L3,19 C3,20.1 3.89,21 5,21 L19,21 C20.1,21 21,20.1 21,19 L21,5 C21,3.9 20.1,3 19,3 Z M19,19 L5,19 L5,8 L19,8 L19,19 Z" id="Shape" fill="#4A4A4A" fill-rule="nonzero"></path>
                        </g>
                    </g>
                </g>
            </g>
        </g>
    </g>
</svg>