<?xml version="1.0" encoding="UTF-8"?>
<svg width="18px" height="18px" viewBox="0 0 18 18" version="1.1" xmlns="http://www.w3.org/2000/svg" xmlns:xlink="http://www.w3.org/1999/xlink">
    <!-- Generator: sketchtool 53.2 (72643) - https://sketchapp.com -->
    <title>C375B3C6-3496-4CDF-B363-C55B7D7EB62A</title>
    <desc>Created with sketchtool.</desc>
    <g id="Round-Trip" stroke="none" stroke-width="1" fill="none" fill-rule="evenodd">
        <g id="T-Main-Address" transform="translate(-484.000000, -133.000000)">
            <g id="Content">
                <g id="Act" transform="translate(45.000000, 120.000000)">
                    <g id="Act/Hotel" transform="translate(240.000000, 0.000000)">
                        <g id="Act/Flight">
                            <g id="Check/Only-Shape" transform="translate(196.000000, 10.000000)">
                                <g id="ic_check_box_shape">
                                    <polygon id="Shape" points="0 0 24 0 24 24 0 24"></polygon>
                                    <path d="M19,3 L5,3 C3.89,3 3,3.9 3,5 L3,19 C3,20.1 3.89,21 5,21 L19,21 C20.11,21 21,20.1 21,19 L21,5 C21,3.9 20.11,3 19,3 Z M10,17 L5,12 L6.41,10.59 L10,14.17 L17.59,6.58 L19,8 L10,17 Z" id="Shape" fill="#FFFFFF" fill-rule="nonzero"></path>
                                </g>
                            </g>
                        </g>
                    </g>
                </g>
            </g>
        </g>
    </g>
</svg>