<?xml version="1.0" encoding="iso-8859-1"?>
<!-- Generator: Adobe Illustrator 18.0.0, SVG Export Plug-In . SVG Version: 6.00 Build 0)  -->
<!DOCTYPE svg PUBLIC "-//W3C//DTD SVG 1.1//EN" "http://www.w3.org/Graphics/SVG/1.1/DTD/svg11.dtd">
<svg version="1.1" id="Capa_1" xmlns="http://www.w3.org/2000/svg" xmlns:xlink="http://www.w3.org/1999/xlink" x="0px" y="0px"
	 viewBox="0 0 493.16 493.16" style="enable-background:new 0 0 493.16 493.16;" xml:space="preserve">
<g>
	<g>
		<path style="fill:#020202;" d="M270.676,123.972c16.35,0,72.208-40.872,72.208-78.333C342.884,24.947,326.117,0,305.416,0
			c-15.773,0-29.219,9.784-34.74,23.59C265.162,9.784,251.716,0,235.936,0c-20.693,0-37.461,24.947-37.461,45.639
			C198.475,82.337,254.334,123.972,270.676,123.972z"/>
	</g>
	<g>
		<path style="fill:#020202;" d="M133.698,301.034c-60.792,0.179-109.604,50.4-109.604,111.193v66.549
			c0,7.944,6.44,14.384,14.384,14.384h191.099c7.944,0,14.384-6.44,14.384-14.384v-67.81
			C243.961,350.144,194.562,300.855,133.698,301.034z"/>
	</g>
	<g>
		<path style="fill:#020202;" d="M134.029,282.54c41.425,0,75.001-33.577,75.001-75.001c0-41.426-33.576-75.001-75.001-75.001
			c-41.425,0-75.001,33.576-75.001,75.001C59.028,248.963,92.604,282.54,134.029,282.54z"/>
	</g>
	<g>
		<path style="fill:#020202;" d="M369.193,324.634c-54.729,0.361-98.511,45.756-98.511,100.487v53.655
			c0,7.944,6.44,14.384,14.384,14.384h169.616c7.944,0,14.384-6.44,14.384-14.384v-54.949
			C469.065,368.821,424.29,324.27,369.193,324.634z"/>
	</g>
	<g>
		<path style="fill:#020202;" d="M302.196,240.279c0,37.372,30.294,67.665,67.665,67.665c37.38,0,67.673-30.293,67.673-67.665
			c0-37.38-30.293-67.673-67.673-67.673C332.49,172.606,302.196,202.899,302.196,240.279z"/>
	</g>
</g>
<g>
</g>
<g>
</g>
<g>
</g>
<g>
</g>
<g>
</g>
<g>
</g>
<g>
</g>
<g>
</g>
<g>
</g>
<g>
</g>
<g>
</g>
<g>
</g>
<g>
</g>
<g>
</g>
<g>
</g>
</svg>
