<?xml version="1.0" encoding="iso-8859-1"?>
<!-- Generator: Adobe Illustrator 16.0.0, SVG Export Plug-In . SVG Version: 6.00 Build 0)  -->
<!DOCTYPE svg PUBLIC "-//W3C//DTD SVG 1.1//EN" "http://www.w3.org/Graphics/SVG/1.1/DTD/svg11.dtd">
<svg version="1.1" id="Capa_1" xmlns="http://www.w3.org/2000/svg" xmlns:xlink="http://www.w3.org/1999/xlink" x="0px" y="0px"
	 width="522.689px" height="522.689px" viewBox="0 0 522.689 522.689" style="enable-background:new 0 0 522.689 522.689;"
	 xml:space="preserve">
<g>
	<path d="M263.963,140.905L190.485,10.147c-4.112-7.334-12.135-11.016-19.928-9.974c-16.428,0.488-33.02,4.839-48.357,13.426
		c-34.597,19.46-53.961,55.558-53.78,92.623c-3.299,52.421,39.885,166.58,81.894,242.142c0.21,0.363,0.392,0.688,0.602,1.071
		c0.191,0.325,0.402,0.697,0.583,1.032c25.044,44.103,53.866,81.846,82.792,110.505l30.218,26.555
		c10.146,7.774,20.139,14.354,29.816,19.431c31.565,19.432,72.465,21.659,107.062,2.199c15.338-8.605,27.664-20.521,36.634-34.31
		c4.935-6.11,5.958-14.88,1.846-22.186l-73.487-130.776c-3.854-6.876-11.112-10.442-18.428-10.05l-0.048-0.087
		c-16.887,0.307-33.994,4.677-49.82,13.569c-10.634,5.967-19.871,13.512-27.502,22.166c-10.538-15.061-20.741-31.192-30.447-48.214
		c-9.515-17.165-40.487-73.039-47.87-89.878c11.379-2.018,22.634-5.938,33.268-11.915c15.826-8.893,28.449-21.229,37.476-35.544
		l-0.01-0.038C267.119,155.88,267.789,147.723,263.963,140.905z"/>
	<path d="M299.068,147.044c-1.071,3.682-0.65,7.564,1.195,10.93c1.846,3.366,4.886,5.805,8.539,6.875
		c21.095,6.168,38.537,20.234,49.122,39.589c10.586,19.345,12.996,41.625,6.818,62.701c-2.228,7.584,2.123,15.578,9.716,17.806
		c1.319,0.393,2.687,0.594,4.055,0.594c6.32,0,11.972-4.236,13.751-10.309c17.231-58.801-16.592-120.67-75.41-137.911
		C309.453,135.129,301.257,139.662,299.068,147.044z"/>
	<path d="M429.882,298.085c1.32,0.382,2.688,0.583,4.055,0.583c6.321,0,11.973-4.236,13.751-10.318
		c12.46-42.486,7.583-87.344-13.713-126.292c-21.296-38.958-56.428-67.263-98.952-79.732c-7.383-2.114-15.597,2.371-17.768,9.725
		c-1.08,3.672-0.679,7.545,1.157,10.911c1.836,3.366,4.877,5.823,8.567,6.923c72.676,21.306,114.473,97.748,93.188,170.405
		C417.939,287.862,422.29,295.847,429.882,298.085z"/>
</g>
<g>
</g>
<g>
</g>
<g>
</g>
<g>
</g>
<g>
</g>
<g>
</g>
<g>
</g>
<g>
</g>
<g>
</g>
<g>
</g>
<g>
</g>
<g>
</g>
<g>
</g>
<g>
</g>
<g>
</g>
</svg>
