<?xml version="1.0" encoding="iso-8859-1"?>
<!-- Generator: Adobe Illustrator 19.0.0, SVG Export Plug-In . SVG Version: 6.00 Build 0)  -->
<svg version="1.1" id="Capa_1" xmlns="http://www.w3.org/2000/svg" xmlns:xlink="http://www.w3.org/1999/xlink" x="0px" y="0px"
	 viewBox="0 0 512.001 512.001" style="enable-background:new 0 0 512.001 512.001;" xml:space="preserve">
<g>
	<g>
		<path d="M313.591,92.419H197.549c-19.479,0-36.088,12.485-42.267,29.87c0.817-0.014,1.635-0.031,2.456-0.031h195.663
			c0.821,0,1.638,0.017,2.456,0.031C349.679,104.905,333.07,92.419,313.591,92.419z"/>
	</g>
</g>
<g>
	<g>
		<path d="M405.711,391.457v15.913c0,25.633-20.779,46.412-46.412,46.412h-16.38c0.331-1.686,0.509-3.425,0.509-5.206v-46.947
			H328.49c-34.268,0-63.329-22.713-72.921-53.876c-7.786,25.298-28.403,45.026-54.221,51.557l22.045,15.116
			c9.624,6.6,20.898,9.898,32.175,9.898c6.37,0,12.742-1.056,18.816-3.162v27.414c0,2.506,0.351,4.93,0.994,7.234
			c-10.704,4.14-18.534,14.211-18.864,26.263c-0.451,16.45,12.749,29.927,29.098,29.927h73.687
			c57.785,0,104.63-46.844,104.63-104.63v-60.117C448.883,366.703,428.827,382.086,405.711,391.457z"/>
	</g>
</g>
<g>
	<g>
		<path d="M463.93,21.607C463.93,9.673,454.256,0,442.323,0h-15.005c-11.933,0-21.606,9.673-21.606,21.607v20.791h58.219
			L463.93,21.607L463.93,21.607z"/>
	</g>
</g>
<g>
	<g>
		<path d="M405.711,72.414v60.017c23.116,9.37,43.171,24.753,58.219,44.204V72.414H405.711z"/>
	</g>
</g>
<g>
	<g>
		<path d="M353.402,152.275H157.739c-60.471,0-109.669,49.197-109.669,109.669c0,60.472,49.198,109.669,109.669,109.669h24.911
			c25.508,0,46.259-20.752,46.259-46.26c0-8.957,7.287-16.243,16.243-16.243h20.835c8.956,0,16.243,7.287,16.243,16.243
			c0,25.508,20.751,46.26,46.259,46.26h24.911c60.471,0,109.669-49.197,109.669-109.669S413.873,152.275,353.402,152.275z"/>
	</g>
</g>
<g>
</g>
<g>
</g>
<g>
</g>
<g>
</g>
<g>
</g>
<g>
</g>
<g>
</g>
<g>
</g>
<g>
</g>
<g>
</g>
<g>
</g>
<g>
</g>
<g>
</g>
<g>
</g>
<g>
</g>
</svg>
