<?xml version="1.0" encoding="UTF-8"?>
<svg width="16px" height="16px" viewBox="0 0 16 16" version="1.1" xmlns="http://www.w3.org/2000/svg" xmlns:xlink="http://www.w3.org/1999/xlink">
    <!-- Generator: sketchtool 53.2 (72643) - https://sketchapp.com -->
    <title>9CDAD9F0-2A11-4963-8507-5E78AD35F9BE</title>
    <desc>Created with sketchtool.</desc>
    <g id="Results" stroke="none" stroke-width="1" fill="none" fill-rule="evenodd">
        <g id="T-Results-Car" transform="translate(-780.000000, -846.000000)" fill="#4A4A4A">
            <g id="Content" transform="translate(350.000000, 254.000000)">
                <g id="Car/Normal-Copy" transform="translate(0.000000, 366.000000)">
                    <g id="Car/Normal">
                        <g id="Icons" transform="translate(300.000000, 188.000000)">
                            <g id="Icons/Hotel/Meal" transform="translate(126.000000, 34.000000)">
                                <g id="Icons/Doors" transform="translate(4.000000, 4.000000)">
                                    <path d="M14,8 L14,2 L8.06020508,2 C4.73333758,2 2.03259734,4.6807695 2.00029286,8 L14,8 Z M8,0 L16,0 L16,16 L0,16 L0,8.08027344 L0,8 C-5.41083001e-16,3.581722 3.581722,8.11624501e-16 8,0 Z M11,10 L11,10.5 C11,11.3284271 11.6715729,12 12.5,12 C13.3284271,12 14,11.3284271 14,10.5 L14,10 L11,10 Z" id="Combined-Shape"></path>
                                </g>
                            </g>
                        </g>
                    </g>
                </g>
            </g>
        </g>
    </g>
</svg>