<?xml version="1.0" encoding="iso-8859-1"?>
<!-- Generator: Adobe Illustrator 19.0.0, SVG Export Plug-In . SVG Version: 6.00 Build 0)  -->
<svg version="1.1" id="Layer_1" xmlns="http://www.w3.org/2000/svg" xmlns:xlink="http://www.w3.org/1999/xlink" x="0px" y="0px"
	 viewBox="0 0 512 512" style="enable-background:new 0 0 512 512;" xml:space="preserve">
<g>
	<g>
		<path d="M479.964,440.89v-0.001V138.973h31.971V37.718H0.065v101.256h31.972V440.89H0v33.391h512V440.89H479.964z
			 M381.592,440.889h-44.941c7.012-10.418,10.919-22.911,11.396-36.795c0.916-26.583-7.721-59.313-8.09-60.694l-6.379-23.916
			L296.94,347.03L256,287.949l-40.939,59.08l-36.639-27.546l-6.379,23.916c-0.368,1.38-9.007,34.11-8.091,60.694
			c0.479,13.883,4.385,26.376,11.398,36.795h-44.94V251.071c26.5-3.794,46.723-16.099,64.919-27.171
			c19.907-12.113,37.1-22.574,60.672-22.574s40.764,10.46,60.672,22.574c18.197,11.073,38.42,23.376,64.919,27.171V440.889z"/>
	</g>
</g>
<g>
</g>
<g>
</g>
<g>
</g>
<g>
</g>
<g>
</g>
<g>
</g>
<g>
</g>
<g>
</g>
<g>
</g>
<g>
</g>
<g>
</g>
<g>
</g>
<g>
</g>
<g>
</g>
<g>
</g>
</svg>
