<?xml version="1.0" encoding="UTF-8"?>
<svg width="20px" height="20px" viewBox="0 0 20 20" version="1.1" xmlns="http://www.w3.org/2000/svg" xmlns:xlink="http://www.w3.org/1999/xlink">
    <!-- Generator: sketchtool 53.2 (72643) - https://sketchapp.com -->
    <title>2A79F2FF-9168-4450-A1DA-DCC85273CDD6</title>
    <desc>Created with sketchtool.</desc>
    <g id="Results" stroke="none" stroke-width="1" fill="none" fill-rule="evenodd">
        <g id="T-Results-Hotel-Room" transform="translate(-816.000000, -1310.000000)">
            <g id="Rooms" transform="translate(350.000000, 1114.000000)">
                <g id="Room/Foto-Alt" transform="translate(0.000000, 44.000000)">
                    <g id="Room/Selected">
                        <g id="Icons" transform="translate(300.000000, 150.000000)">
                            <g id="Icons/Info-Copy" transform="translate(164.000000, 0.000000)">
                                <g id="Icons/Info">
                                    <polygon id="Path" points="0 0 24 0 24 24 0 24"></polygon>
                                    <path d="M4,2 L20,2 C21.1045695,2 22,2.8954305 22,4 L22,20 C22,21.1045695 21.1045695,22 20,22 L4,22 C2.8954305,22 2,21.1045695 2,20 L2,4 C2,2.8954305 2.8954305,2 4,2 Z M14.684,17.747 L17.064,17.747 L13.426,6 L10.655,6 L7,17.747 L9.329,17.747 L10.06,15.027 L13.953,15.027 L14.684,17.747 Z M10.502,13.327 L11.998,7.717 L13.494,13.327 L10.502,13.327 Z" id="Combined-Shape" fill="#000000"></path>
                                </g>
                            </g>
                        </g>
                    </g>
                </g>
            </g>
        </g>
    </g>
</svg>