<?xml version="1.0" encoding="UTF-8"?>
<svg width="19px" height="20px" viewBox="0 0 19 20" version="1.1" xmlns="http://www.w3.org/2000/svg" xmlns:xlink="http://www.w3.org/1999/xlink">
    <!-- Generator: sketchtool 53.2 (72643) - https://sketchapp.com -->
    <title>038C2FC7-3F8E-481E-BAC4-85D5EF4B69F0</title>
    <desc>Created with sketchtool.</desc>
    <g id="Round-Trip" stroke="none" stroke-width="1" fill="none" fill-rule="evenodd">
        <g id="T-Main-Address" transform="translate(-57.000000, -132.000000)">
            <g id="Content">
                <g id="Act" transform="translate(45.000000, 120.000000)">
                    <g id="Act/Flight">
                        <g id="Icons/Main/Flight-White">
                            <g transform="translate(10.000000, 13.200000)">
                                <g id="Flight" transform="translate(0.000000, -3.200000)">
                                    <polygon id="Shape" points="0 0 24 0 24 24 0 24"></polygon>
                                    <path d="M21,16 L21,14 L13,9 L13,3.5 C13,2.67 12.33,2 11.5,2 C10.67,2 10,2.67 10,3.5 L10,9 L2,14 L2,16 L10,13.5 L10,19 L8,20.5 L8,22 L11.5,21 L15,22 L15,20.5 L13,19 L13,13.5 L21,16 Z" id="Shape" fill="#FFFFFF" fill-rule="nonzero"></path>
                                </g>
                            </g>
                        </g>
                    </g>
                </g>
            </g>
        </g>
    </g>
</svg>