<?xml version="1.0" encoding="iso-8859-1"?>
<!-- Generator: Adobe Illustrator 19.0.0, SVG Export Plug-In . SVG Version: 6.00 Build 0)  -->
<svg version="1.1" id="Capa_1" xmlns="http://www.w3.org/2000/svg" xmlns:xlink="http://www.w3.org/1999/xlink" x="0px" y="0px"
	 viewBox="0 0 512 512" style="enable-background:new 0 0 512 512;" xml:space="preserve">
<g>
	<g>
		<path d="M96,224v224c0,17.664,14.368,32,32,32h32v16c0,8.832,7.168,16,16,16c8.832,0,16-7.168,16-16v-16h128v16
			c0,8.832,7.168,16,16,16c8.832,0,16-7.168,16-16v-16h32c17.664,0,32-14.336,32-32V224H96z M352,336c0,8.832-7.168,16-16,16
			c-8.832,0-16-7.168-16-16v-64c0-8.832,7.168-16,16-16c8.832,0,16,7.168,16,16V336z"/>
	</g>
</g>
<g>
	<g>
		<path d="M384,0H128c-17.632,0-32,14.368-32,32v160h320V32C416,14.368,401.664,0,384,0z M352,144c0,8.832-7.168,16-16,16
			c-8.832,0-16-7.168-16-16V80c0-8.832,7.168-16,16-16c8.832,0,16,7.168,16,16V144z"/>
	</g>
</g>
<g>
</g>
<g>
</g>
<g>
</g>
<g>
</g>
<g>
</g>
<g>
</g>
<g>
</g>
<g>
</g>
<g>
</g>
<g>
</g>
<g>
</g>
<g>
</g>
<g>
</g>
<g>
</g>
<g>
</g>
</svg>
