<?xml version="1.0" encoding="UTF-8"?>
<svg width="20px" height="20px" viewBox="0 0 20 20" version="1.1" xmlns="http://www.w3.org/2000/svg" xmlns:xlink="http://www.w3.org/1999/xlink">
    <!-- Generator: sketchtool 53.2 (72643) - https://sketchapp.com -->
    <title>6180AA9D-0BA5-4270-A866-0F603B8456C6</title>
    <desc>Created with sketchtool.</desc>
    <g id="Results" stroke="none" stroke-width="1" fill="none" fill-rule="evenodd">
        <g id="T-Results-Car-Open" transform="translate(-828.000000, -988.000000)">
            <g id="Content" transform="translate(350.000000, 254.000000)">
                <g id="Car/Open" transform="translate(0.000000, 46.000000)">
                    <g id="Icons">
                        <g transform="translate(300.000000, 652.000000)">
                            <g id="Icons-Col-2" transform="translate(176.000000, 0.000000)">
                                <g id="Icons/Info-Copy" transform="translate(0.000000, 34.000000)">
                                    <g id="Icons/Info">
                                        <polygon id="Path" points="0 0 24 0 24 24 0 24"></polygon>
                                        <path d="M4,2 L20,2 C21.1045695,2 22,2.8954305 22,4 L22,20 C22,21.1045695 21.1045695,22 20,22 L4,22 C2.8954305,22 2,21.1045695 2,20 L2,4 C2,2.8954305 2.8954305,2 4,2 Z M18,18.0173913 L17.0608696,6 L14.0695652,6 L12.0521739,14.4173913 L9.91304348,6 L6.95652174,6 L6,18.0173913 L8.22608696,18.0173913 L8.52173913,13.0608696 C8.5913047,11.9478205 8.62608696,10.8637734 8.62608696,9.80869565 C8.62608696,9.41449078 8.61449287,8.83478643 8.59130435,8.06956522 L10.9217391,16.7130435 L13.0956522,16.7130435 L15.2869565,8.08695652 L15.2869565,8.71304348 C15.2869565,9.76812122 15.3391299,11.1941939 15.4434783,12.9913043 L15.7565217,18.0173913 L18,18.0173913 Z" id="Combined-Shape" fill="#4A4A4A"></path>
                                    </g>
                                </g>
                            </g>
                        </g>
                    </g>
                </g>
            </g>
        </g>
    </g>
</svg>