<?xml version="1.0" encoding="UTF-8"?>
<svg width="12px" height="12px" viewBox="0 0 12 12" version="1.1" xmlns="http://www.w3.org/2000/svg" xmlns:xlink="http://www.w3.org/1999/xlink">
    <!-- Generator: sketchtool 53.2 (72643) - https://sketchapp.com -->
    <title>EA930F2C-49AF-4C86-B35E-1E4F2A85666B</title>
    <desc>Created with sketchtool.</desc>
    <g id="Results" stroke="none" stroke-width="1" fill="none" fill-rule="evenodd">
        <g id="T-Results-Hotel-Room" transform="translate(-972.000000, -1424.000000)">
            <g id="Rooms" transform="translate(350.000000, 1114.000000)">
                <g id="Room/Foto-Alt" transform="translate(0.000000, 44.000000)">
                    <g id="Room/Selected">
                        <g id="Price-1" transform="translate(20.000000, 240.000000)">
                            <g id="Guests" transform="translate(572.000000, 20.000000)">
                                <g id="Icons/Hotel/Guest" transform="translate(24.000000, 0.000000)">
                                    <g id="Icons/Transfer">
                                        <polygon id="Path" points="0 0 24 0 24 24 0 24"></polygon>
                                        <path d="M12,6 C13.66,6 15,7.34 15,9 C15,10.66 13.66,12 12,12 C10.34,12 9,10.66 9,9 C9,7.34 10.34,6 12,6 Z M18,18 L6,18 L6,17 C6,15 10,13.9 12,13.9 C14,13.9 18,15 18,17 L18,18 Z" id="Shape" fill="#4A4A4A" fill-rule="nonzero"></path>
                                    </g>
                                </g>
                            </g>
                        </g>
                    </g>
                </g>
            </g>
        </g>
    </g>
</svg>