<svg id="Capa_1" enable-background="new 0 0 512 512" height="512" viewBox="0 0 512 512" width="512" xmlns="http://www.w3.org/2000/svg"><path d="m169.655 457c0 30.327 24.673 55 55 55h26.993c30.327 0 55-24.673 55-55v-89.132c0-8.271 6.729-15 15-15h32.189v-30h-32.189c-24.813 0-45 20.187-45 45v89.132c0 13.785-11.215 25-25 25h-26.993c-13.785 0-25-11.215-25-25v-30.817h-30z"/><path d="m189.247 294.679c-16.87 5.448-34.305 8.21-51.82 8.21-10.268 0-20.436-.945-30.444-2.802l30.187 82.937c2.876 7.901 10.386 13.16 18.794 13.16h53.851c13.882 0 23.542-13.796 18.794-26.84l-28.457-78.186z"/><path d="m497 322.868c8.284 0 15-6.716 15-15s-6.716-15-15-15h-23.162v30z"/><path d="m497 382.868c8.284 0 15-6.716 15-15s-6.716-15-15-15h-23.162v30z"/><path d="m388.905 198.678v-124.467l-208.877-67.453c-14.231-4.595-28.573-6.757-42.601-6.758-71.823-.006-135.666 56.631-137.39 133.186-.025 1.083-.037 2.169-.037 3.258s.012 2.175.037 3.258c1.724 76.55 65.574 133.186 137.391 133.186 14.032 0 28.364-2.161 42.601-6.759zm-246.93-132.234c38.599 0 70 31.401 70 70s-31.401 70-70 70-70-31.401-70-70 31.401-70 70-70z"/><path d="m501.397 51.152c-.981 0-1.982.137-2.985.429l-79.507 23.113v123.5l79.507 23.113c1.002.291 2.005.429 2.985.429 5.667 0 10.603-4.595 10.603-10.629v-149.326c0-6.033-4.936-10.629-10.603-10.629z"/><circle cx="141.975" cy="136.444" r="40"/><path d="m383.838 367.868c0 11.046 8.954 20 20 20h40v-100h-40c-11.046 0-20 8.954-20 20z"/></svg>