<svg height="512pt" viewBox="0 -22 512 512" width="512pt" xmlns="http://www.w3.org/2000/svg"><path d="m457.847656 359.039062h-403.695312c-29.859375 0-54.152344 24.292969-54.152344 54.152344s24.292969 54.15625 54.152344 54.15625h403.695312c29.859375 0 54.152344-24.296875 54.152344-54.15625s-24.292969-54.152344-54.152344-54.152344zm0 0"/><path d="m201.847656 314.730469c0-19.003907 15.457032-34.460938 34.460938-34.460938h39.382812c19.003906 0 34.460938 15.457031 34.460938 34.460938v14.769531h147.695312v-98.460938h-118.15625v-29.539062h118.15625v-44.308594c0-4.21875-1.804687-8.234375-4.957031-11.039062l-39.351563-34.976563v-27.226562l73.835938-26.0625c5.90625-2.082031 9.855469-7.664063 9.855469-13.925781 0-6.261719-3.949219-11.84375-9.855469-13.925782l-83.691406-29.539062c-11.429688-2.078125-17.988282 2.566406-19.683594 13.925781v96.753906l-39.351562 34.976563c-3.152344 2.804687-4.957032 6.820312-4.957032 11.039062v31.480469l-36.113281-24.074219c-2.425781-1.621094-5.277344-2.484375-8.195313-2.484375h-78.765624c-2.917969 0-5.769532.863281-8.195313 2.484375l-36.113281 24.074219v-31.480469c0-4.21875-1.804688-8.234375-4.957032-11.039062l-39.351562-34.976563v-27.226562l73.839844-26.0625c5.902344-2.082031 9.851562-7.664063 9.851562-13.925781 0-6.261719-3.949218-11.84375-9.851562-13.925782l-83.695313-29.539062c-11.394531-2.113282-17.957031 2.53125-19.683593 13.925781v96.753906l-39.351563 34.976563c-3.152344 2.804687-4.957031 6.820312-4.957031 11.039062v44.308594h118.15625v29.539062h-118.15625v98.460938h147.695312zm34.460938-93.539063h39.382812c8.15625 0 14.769532 6.613282 14.769532 14.769532s-6.613282 14.769531-14.769532 14.769531h-39.382812c-8.15625 0-14.769532-6.613281-14.769532-14.769531s6.613282-14.769532 14.769532-14.769532zm0 0"/></svg>