<svg viewBox="-16 0 512 512" xmlns="http://www.w3.org/2000/svg"><path d="m247.5 467h-225c-12.425781 0-22.5 10.074219-22.5 22.5s10.074219 22.5 22.5 22.5h225c12.425781 0 22.5-10.074219 22.5-22.5s-10.074219-22.5-22.5-22.5zm0 0"/><path d="m411.210938 151h-81.210938v14.191406l-30-10v-37.09375c25.855469-6.667968 45-30.191406 45-58.097656 0-33.089844-26.910156-60-60-60s-60 26.910156-60 60h30c0-16.539062 13.460938-30 30-30s30 13.460938 30 30-13.460938 30-30 30h-15v65.191406l-30 10v-14.191406h-81.210938l-68.789062 68.789062v111.210938h60v31h97.5c28.945312 0 52.5 23.554688 52.5 52.5 0 14.695312-6.109375 27.960938-15.875 37.5 9.765625 9.539062 15.875 22.804688 15.875 37.5 0 8.082031-1.988281 15.652344-5.265625 22.5h125.265625v-181h60v-111.210938zm-126.210938 90c-24.550781 0-44.496094-19.773438-44.921875-44.222656l44.921875-14.972656 44.921875 14.972656c-.425781 24.449218-20.371094 44.222656-44.921875 44.222656zm0 0"/><path d="m247.5 392h-225c-12.425781 0-22.5 10.074219-22.5 22.5s10.074219 22.5 22.5 22.5h225c12.425781 0 22.5-10.074219 22.5-22.5s-10.074219-22.5-22.5-22.5zm0 0"/></svg>