<?xml version="1.0" encoding="UTF-8"?>
<svg width="24px" height="24px" viewBox="0 0 24 24" version="1.1" xmlns="http://www.w3.org/2000/svg" xmlns:xlink="http://www.w3.org/1999/xlink">
    <title>393CA36C-ADE7-4284-9AB6-2ABC357675EC</title>
    <g id="Flight-Flow-Alt" stroke="none" stroke-width="1" fill="none" fill-rule="evenodd">
        <g id="T-Results-F-Alt-6-Loader" transform="translate(-1186.000000, -484.000000)">
            <g id="Content" transform="translate(0.000000, 120.000000)">
                <g transform="translate(350.000000, 228.000000)" id="Icons/Loader">
                    <g transform="translate(836.000000, 136.000000)">
                        <g id="loop-24px">
                            <path d="M12,4 L12,1 L8,5 L12,9 L12,6 C15.31,6 18,8.69 18,12 C18,13.01 17.75,13.97 17.3,14.8 L18.76,16.26 C19.54,15.03 20,13.57 20,12 C20,7.58 16.42,4 12,4 Z M12,18 C8.69,18 6,15.31 6,12 C6,10.99 6.25,10.03 6.7,9.2 L5.24,7.74 C4.46,8.97 4,10.43 4,12 C4,16.42 7.58,20 12,20 L12,23 L16,19 L12,15 L12,18 Z" id="Shape" fill="#7A65E1" fill-rule="nonzero"></path>
                            <polygon id="Path" points="0 0 24 0 24 24 0 24"></polygon>
                        </g>
                    </g>
                </g>
            </g>
        </g>
    </g>
</svg>