<?xml version="1.0" encoding="UTF-8"?>
<svg width="18px" height="20px" viewBox="0 0 18 20" version="1.1" xmlns="http://www.w3.org/2000/svg" xmlns:xlink="http://www.w3.org/1999/xlink">
    <!-- Generator: sketchtool 53.2 (72643) - https://sketchapp.com -->
    <title>98D8DD81-5F63-41D3-8BEE-41BE5FC75375</title>
    <desc>Created with sketchtool.</desc>
    <g id="Results" stroke="none" stroke-width="1" fill="none" fill-rule="evenodd">
        <g id="T-Results-Hotel-Selected" transform="translate(-687.000000, -598.000000)">
            <g id="Content" transform="translate(350.000000, 304.000000)">
                <g id="Hotel-Box-Copy-3" transform="translate(0.000000, 44.000000)">
                    <g id="Hotel-Box">
                        <g id="Center" transform="translate(299.000000, 20.000000)">
                            <g id="Icons" transform="translate(1.000000, 228.000000)">
                                <g id="Icons/Hotel/Meal" transform="translate(34.000000, 0.000000)">
                                    <g>
                                        <path d="M11,9 L9,9 L9,2 L7,2 L7,9 L5,9 L5,2 L3,2 L3,9 C3,11.12 4.66,12.84 6.75,12.97 L6.75,22 L9.25,22 L9.25,12.97 C11.34,12.84 13,11.12 13,9 L13,2 L11,2 L11,9 Z M16,6 L16,14 L18.5,14 L18.5,22 L21,22 L21,2 C18.24,2 16,4.24 16,6 Z" id="Shape" fill="#000000" fill-rule="nonzero"></path>
                                        <polygon id="Path" points="0 0 24 0 24 24 0 24"></polygon>
                                    </g>
                                </g>
                            </g>
                        </g>
                    </g>
                </g>
            </g>
        </g>
    </g>
</svg>