<?xml version="1.0" encoding="iso-8859-1"?>
<!-- Generator: Adobe Illustrator 19.0.0, SVG Export Plug-In . SVG Version: 6.00 Build 0)  -->
<svg version="1.1" id="Layer_1" xmlns="http://www.w3.org/2000/svg" xmlns:xlink="http://www.w3.org/1999/xlink" x="0px" y="0px"
	 viewBox="0 0 512 512" style="enable-background:new 0 0 512 512;" xml:space="preserve">
<g>
	<g>
		<g>
			<path d="M480,106.667h-32v-64C448,19.135,428.865,0,405.333,0h-32c-5.896,0-10.667,4.771-10.667,10.667v16.6
				c-6.301-3.674-13.527-5.934-21.333-5.934H64c-23.531,0-42.667,19.135-42.667,42.667v384c0,23.531,19.135,42.667,42.667,42.667
				h277.333c7.806,0,15.033-2.259,21.333-5.934v16.6c0,5.896,4.771,10.667,10.667,10.667h32C428.865,512,448,492.865,448,469.333
				V320h32c5.896,0,10.667-4.771,10.667-10.667v-192C490.667,111.438,485.896,106.667,480,106.667z M320,426.667H85.333V85.333H320
				V426.667z M469.333,298.667H448V128h21.333V298.667z"/>
			<path d="M117.333,405.333h32c5.896,0,10.667-4.771,10.667-10.667v-10.198c0-14.333,4.49-24.677,7.771-32.229l0.01-0.042
				c2.469-5.677,3.698-8.521,3.698-13.646c0-4.458-0.969-7.677-3.146-14.51c-3.719-11.656-8.333-26.177-8.333-51.813
				c0-28.729,12.51-50.802,21.313-66.333l2.729-4.885c1.313-2.385,1.667-5.188,0.979-7.833c-2.146-8.26-2.104-16.344-2.073-21.813
				c0.021-2.854,0.417-5.917,1.125-8.854c0.771-3.177,0.042-6.531-1.979-9.104s-5.115-4.073-8.385-4.073h-27.677
				c-3.854,0-7.406,2.083-9.302,5.438l-5.74,10.208c-0.885,1.573-1.354,4.719-1.375,6.521c-0.063,9.021,0.302,18.271,5.115,24.26
				c-1.51,6.51-5.531,13.615-10.042,21.573c-8.031,14.167-18.021,31.802-18.021,54.896c0,22.323,4.063,35.083,7.333,45.344
				c2.313,7.281,4.146,13.031,4.146,20.979c0,9.563-2.531,15.396-5.469,22.146c-2.813,6.49-6.01,13.844-6.01,23.76v10.208
				C106.667,400.563,111.438,405.333,117.333,405.333z"/>
			<path d="M181.333,272.229c0,22.146,3.583,34.823,6.469,45.01c2.083,7.365,3.729,13.188,3.729,21.313
				c0,9.792-2.396,15.99-4.927,22.552c-2.469,6.406-5.271,13.667-5.271,23.365v10.198c0,5.896,4.771,10.667,10.667,10.667h85.333
				c5.896,0,10.667-4.771,10.667-10.667v-10.198c0-9.698-2.802-16.958-5.271-23.365c-2.531-6.563-4.927-12.76-4.927-22.552
				c0-8.125,1.646-13.948,3.729-21.313c2.885-10.188,6.469-22.865,6.469-45.01c0-22.823-8.833-40.354-15.927-54.438
				c-4.125-8.198-7.802-15.49-9.094-22.271c4.344-5.844,4.677-14.813,4.615-25.323c0-1.656-0.385-3.292-1.125-4.771l-5.104-10.198
				c-1.813-3.615-5.5-5.896-9.542-5.896H217.51c-4.042,0-7.729,2.281-9.542,5.896l-5.104,10.198
				c-0.729,1.458-1.125,4.427-1.135,6.063c-0.052,9.344,0.281,18.198,4.625,24.031c-1.292,6.781-4.969,14.073-9.094,22.271
				C190.167,231.875,181.333,249.406,181.333,272.229z"/>
		</g>
	</g>
</g>
<g>
</g>
<g>
</g>
<g>
</g>
<g>
</g>
<g>
</g>
<g>
</g>
<g>
</g>
<g>
</g>
<g>
</g>
<g>
</g>
<g>
</g>
<g>
</g>
<g>
</g>
<g>
</g>
<g>
</g>
</svg>
