<?xml version="1.0" encoding="UTF-8"?>
<svg width="20px" height="20px" viewBox="0 0 20 20" version="1.1" xmlns="http://www.w3.org/2000/svg" xmlns:xlink="http://www.w3.org/1999/xlink">
    <!-- Generator: sketchtool 53.2 (72643) - https://sketchapp.com -->
    <title>6A742BF8-D26C-4796-9953-B6275C27BF1F</title>
    <desc>Created with sketchtool.</desc>
    <g id="Icon" stroke="none" stroke-width="1" fill="none" fill-rule="evenodd">
        <g id="T-Icon" transform="translate(-372.000000, -815.000000)">
            <g id="Icons/Moon" transform="translate(370.000000, 813.000000)">
                <g>
                    <polygon id="Path" points="0 0 24 0 24 24 0 24"></polygon>
                    <path d="M12,2 C17.52,2 22,6.48 22,12 C22,17.52 17.52,22 12,22 C10.95,22 9.95,21.84 9,21.54 C13.06,20.27 16,16.48 16,12 C16,7.52 13.06,3.73 9,2.46 C9.95,2.16 10.95,2 12,2 Z M9.25,16.25 L8,19 L6.75,16.25 L4,15 L6.75,13.75 L8,11 L9.25,13.75 L12,15 L9.25,16.25 Z M5.94,8.94 L5,11 L4.06,8.94 L2,8 L4.06,7.06 L5,5 L5.94,7.06 L8,8 L5.94,8.94 Z" id="Icon-Moon" fill="#9B9B9B" fill-rule="nonzero"></path>
                </g>
            </g>
        </g>
    </g>
</svg>