<?xml version="1.0" encoding="UTF-8"?>
<svg width="20px" height="22px" viewBox="0 0 20 22" version="1.1" xmlns="http://www.w3.org/2000/svg" xmlns:xlink="http://www.w3.org/1999/xlink">
    <!-- Generator: sketchtool 53.2 (72643) - https://sketchapp.com -->
    <title>52658AC0-B6D8-4FED-86E8-C54326D79605</title>
    <desc>Created with sketchtool.</desc>
    <g id="Results" stroke="none" stroke-width="1" fill="none" fill-rule="evenodd">
        <g id="T-Results-Flight-Timeline" transform="translate(-1060.000000, -372.000000)" fill="#9B9B9B" fill-rule="nonzero">
            <g id="Content" transform="translate(350.000000, 254.000000)">
                <g transform="translate(0.000000, 50.000000)" id="Ticket-Round-Trip/Normal">
                    <g transform="translate(0.000000, 44.000000)">
                        <g id="Icons">
                            <g transform="translate(680.000000, 23.000000)">
                                <g id="Icons/Case" transform="translate(28.000000, 0.000000)">
                                    <g id="Combined-Shape">
                                        <path d="M18.6896851,20.070507 C18.3349748,20.6292112 17.7107886,21 17,21 L17,23 L15,23 L15,21 L9,21 L9,23 L7,23 L7,21 C5.8954305,21 5,20.1045695 5,19 L5,7 C5,6.80948946 5.02663691,6.62520031 5.07638956,6.4506537 L2,3.36986301 L3.36986301,2 L22,20.630137 L20.6191781,22 L18.6896851,20.070507 Z M8,4.75 L8,3 C8,1.8954305 8.8954305,1 10,1 L14,1 C15.1045695,1 16,1.8954305 16,3 L16,5 L17,5 C18.1045695,5 19,5.8954305 19,7 L19,15.75 L8,4.75 Z M10,3 L10,5 L14,5 L14,3 L10,3 Z"></path>
                                    </g>
                                </g>
                            </g>
                        </g>
                    </g>
                </g>
            </g>
        </g>
    </g>
</svg>