<?xml version="1.0" encoding="UTF-8"?>
<svg width="24px" height="24px" viewBox="0 0 24 24" version="1.1" xmlns="http://www.w3.org/2000/svg" xmlns:xlink="http://www.w3.org/1999/xlink">
    <title>76E5139E-17A5-42E5-9C20-35230D764AA5</title>
    <g id="Checkout-2-Pages-Hotel-Login" stroke="none" stroke-width="1" fill="none" fill-rule="evenodd">
        <g id="T-Checkout-2-Login-Hotel-1" transform="translate(-736.000000, -489.000000)">
            <g id="Content">
                <g id="Insurance" transform="translate(200.000000, 426.000000)">
                    <g id="Insurance-No" transform="translate(0.000000, 44.000000)">
                        <g id="Ins-No">
                            <g id="Row-No-Ins" transform="translate(20.000000, 1.000000)">
                                <g id="Icons/Safe" transform="translate(516.000000, 18.000000)">
                                    <g>
                                        <path d="M12,1 L3,5 L3,11 C3,16.55 6.84,21.74 12,23 C17.16,21.74 21,16.55 21,11 L21,5 L12,1 Z M12,11.99 L19,11.99 C18.47,16.11 15.72,19.78 12,20.93 L12,12 L5,12 L5,6.3 L12,3.19 L12,11.99 Z" id="Shape" fill="#7A65E1" fill-rule="nonzero"></path>
                                        <polygon id="Path" points="0 0 24 0 24 24 0 24"></polygon>
                                    </g>
                                </g>
                            </g>
                        </g>
                    </g>
                </g>
            </g>
        </g>
    </g>
</svg>