<?xml version="1.0" encoding="iso-8859-1"?>
<!-- Generator: Adobe Illustrator 16.0.0, SVG Export Plug-In . SVG Version: 6.00 Build 0)  -->
<!DOCTYPE svg PUBLIC "-//W3C//DTD SVG 1.1//EN" "http://www.w3.org/Graphics/SVG/1.1/DTD/svg11.dtd">
<svg version="1.1" id="Capa_1" xmlns="http://www.w3.org/2000/svg" xmlns:xlink="http://www.w3.org/1999/xlink" x="0px" y="0px"
	 width="480.266px" height="480.266px" viewBox="0 0 480.266 480.266" style="enable-background:new 0 0 480.266 480.266;"
	 xml:space="preserve">
<g>
	<g id="_x33_8_7_">
		<g>
			<path d="M372.899,248.462c0.285,0.261,0.648,0.396,1.016,0.396c0.272,0,0.547-0.074,0.792-0.227
				c0.572-0.355,0.836-1.049,0.647-1.695c-0.007-0.021-0.681-2.341-1.61-6.22c-0.428-1.822-0.982-4.271-1.483-7.055
				c-0.601-3.325-0.99-6.173-1.227-8.961c-0.123-1.454-0.251-3.182-0.266-4.987c-0.022-1.41-0.028-3.271,0.132-5.183
				c0.238-3.596,0.911-7.048,1.996-10.255c1.141-3.335,2.799-6.408,4.932-9.135c0.568-0.729,1.148-1.413,1.715-2.023l2.357-2.532
				l1.416-1.652l1.257-1.604c0.676-0.904,1.555-2.105,2.357-3.367c2.93-4.535,5.216-9.715,6.612-14.976
				c1.315-4.915,1.942-10.097,1.863-15.397c-0.063-4.49-0.647-9.169-1.739-13.909c-0.904-3.88-2.167-7.792-3.755-11.631
				c-2.366-5.667-5.314-10.921-8.763-15.616c-2.543-3.469-4.342-5.203-4.417-5.274c-0.488-0.468-1.228-0.554-1.807-0.204
				c-0.58,0.346-0.855,1.037-0.676,1.688c0.006,0.023,0.649,2.354,1.585,6.258c0.881,3.724,2.16,9.452,3.082,16.18
				c0.497,3.646,0.811,7.188,0.935,10.525c0.154,3.882,0.026,7.68-0.38,11.288c-0.449,3.979-1.263,7.75-2.418,11.211
				c-1.21,3.635-2.873,7.098-4.943,10.298c-0.487,0.76-1.021,1.535-1.616,2.347l-1.701,2.178l-2.347,2.702
				c-0.976,1.164-1.819,2.27-2.583,3.382c-1.604,2.345-2.968,4.832-4.057,7.4c-1.052,2.521-1.863,5.14-2.409,7.785
				c-0.961,4.671-1.141,9.646-0.533,14.796c0.49,4.055,1.46,8.061,2.965,12.257c2.085,5.696,4.969,11.065,8.573,15.96
				C370.978,246.684,372.823,248.391,372.899,248.462z"/>
			<path d="M360.685,153.095c-0.027-4.508-0.604-9.073-1.765-13.975c-0.563-2.241-1.148-4.238-1.795-6.118
				c-0.721-2.029-1.421-3.817-2.148-5.472c-1.399-3.147-2.998-6.17-4.752-8.988c-1.454-2.322-2.961-4.462-4.476-6.355
				c-2.675-3.364-4.558-5.011-4.637-5.079c-0.507-0.439-1.243-0.489-1.807-0.121c-0.561,0.368-0.81,1.065-0.606,1.706
				c0.007,0.022,0.729,2.319,1.775,6.164c0.522,1.959,1.137,4.323,1.737,7.005c0.725,3.227,1.283,6.156,1.707,8.963
				c0.211,1.355,0.476,3.152,0.656,5.051c0.221,2.061,0.35,3.748,0.405,5.334c0.189,3.69,0.073,7.43-0.348,11.116
				c-0.88,7.79-3.474,15.146-7.511,21.287c-0.519,0.807-1.1,1.616-1.636,2.356l-0.794,1.061l-2.247,2.768
				c-0.304,0.385-0.598,0.78-0.89,1.174l-0.383,0.515c-0.889,1.256-1.633,2.409-2.271,3.516c-2.676,4.563-4.576,9.792-5.495,15.12
				c-0.425,2.432-0.662,4.935-0.707,7.439c-0.051,2.609,0.045,4.893,0.288,6.961c0.426,4.023,1.284,8.099,2.553,12.115
				c1.025,3.238,2.303,6.424,3.795,9.468c1.187,2.421,2.473,4.702,3.818,6.776c2.327,3.606,4.028,5.428,4.101,5.504
				c0.291,0.31,0.688,0.472,1.093,0.472c0.239,0,0.481-0.058,0.703-0.176c0.597-0.316,0.908-0.994,0.76-1.654
				c-0.005-0.022-0.532-2.365-1.233-6.281c-0.72-4.112-1.584-9.664-1.896-16.151c-0.17-3.553-0.114-7.014,0.169-10.286
				c0.32-3.738,0.999-7.295,2.018-10.568c1.119-3.581,2.666-6.837,4.601-9.685c0.488-0.73,1.023-1.431,1.568-2.145l3.143-3.659
				l1.337-1.664c0.923-1.226,1.672-2.278,2.354-3.315c2.989-4.537,5.335-9.648,6.78-14.781
				C360.049,163.546,360.732,158.365,360.685,153.095z"/>
			<path d="M409.932,70.333C364.577,24.979,304.273,0,240.133,0c-64.141,0-124.445,24.979-169.8,70.333
				C24.978,115.689,0,175.991,0,240.133c0,64.143,24.978,124.443,70.333,169.8c45.355,45.354,105.658,70.333,169.799,70.333
				c64.141,0,124.444-24.979,169.8-70.333s70.334-105.657,70.334-169.8C480.266,175.991,455.288,115.689,409.932,70.333z
				 M240.133,445.266C127.022,445.266,35,353.242,35,240.133c0-39.546,11.26-76.505,30.725-107.864l126.439,126.439H90.379
				c-8.284,0-15,6.716-15,15v32.625c0,8.284,6.716,15,15,15h164.41l93.208,93.208C316.638,434.006,279.678,445.266,240.133,445.266z
				 M397.894,371.099l-51.324-51.323l-0.397-0.398c4.929-2.555,8.323-7.83,8.323-13.941v-30.828c0-8.606-6.717-15.586-15-15.586
				h-1.282c-8.284,0-15,6.979-15,15.586v21.812l-2.663-2.663l-9.003-9.004V273.71c0-8.284-6.716-15-15-15h-11.042L109.167,82.372
				C144.721,52.806,190.385,35,240.133,35c113.111,0,205.134,92.022,205.134,205.133C445.266,289.88,427.46,335.544,397.894,371.099
				z"/>
			<path d="M381.75,259.021h-1.282c-8.284,0-15,6.979-15,15.586v30.827c0,8.607,6.716,15.587,15,15.587h1.282
				c8.284,0,15-6.979,15-15.587v-30.827C396.75,265.999,390.034,259.021,381.75,259.021z"/>
		</g>
	</g>
</g>
<g>
</g>
<g>
</g>
<g>
</g>
<g>
</g>
<g>
</g>
<g>
</g>
<g>
</g>
<g>
</g>
<g>
</g>
<g>
</g>
<g>
</g>
<g>
</g>
<g>
</g>
<g>
</g>
<g>
</g>
</svg>
