<svg height="512pt" viewBox="0 -19 512 512" width="512pt" xmlns="http://www.w3.org/2000/svg"><path d="m497 200.5625c-15.742188 0-31.144531-6.738281-44.535156-19.492188-8.816406-8.398437-22.628906-8.398437-31.449219.003907-13.382813 12.75-28.777344 19.488281-44.519531 19.488281-15.738282 0-31.136719-6.738281-44.523438-19.484375-8.816406-8.394531-22.625-8.390625-31.441406 0-13.386719 12.746094-28.785156 19.484375-44.523438 19.484375-15.742187 0-31.144531-6.738281-44.535156-19.496094-8.816406-8.394531-22.628906-8.394531-31.449218.007813-13.382813 12.75-28.777344 19.488281-44.519532 19.488281-15.742187 0-31.144531-6.738281-44.535156-19.496094-8.816406-8.394531-22.628906-8.394531-31.449219.007813-13.382812 12.75-28.777343 19.488281-44.519531 19.488281-8.285156 0-15 6.71875-15 15v137.777344c0 5.328125 2.828125 10.257812 7.425781 12.945312l2.78125 1.628906c28.855469 16.878907 59.011719 30.535157 89.976563 40.992188v-67.097656c0-24.429688 14.480468-46.507813 36.886718-56.242188l100.730469-43.765625c5.777344-2.511719 11.898438-3.785156 18.199219-3.785156s12.421875 1.273437 18.195312 3.785156l100.734376 43.765625c22.40625 9.734375 36.886718 31.8125 36.886718 56.242188v67.09375c32-10.804688 63.136719-25.019532 92.84375-42.667969 4.550782-2.703125 7.339844-7.601563 7.339844-12.894531v-137.777344c0-8.28125-6.714844-15-15-15zm0 0"/><path d="m417.507812 36.820312c0 20.332032-16.484374 36.816407-36.820312 36.816407s-36.820312-16.484375-36.820312-36.816407c0-20.335937 16.484374-36.820312 36.820312-36.820312s36.820312 16.484375 36.820312 36.820312zm0 0"/><path d="m132.480469 331.992188h246.339843c.480469 0 .953126.027343 1.421876.074218-2.738282-8.359375-8.921876-15.355468-17.269532-18.984375l-100.730468-43.765625c-3.980469-1.730468-8.503907-1.730468-12.484376 0l-100.730468 43.765625c-8.335938 3.621094-14.511719 10.605469-17.257813 18.949219.238281-.011719.46875-.039062.710938-.039062zm0 0"/><path d="m381.816406 361.691406c-.96875.199219-1.972656.300782-2.996094.300782h-246.339843c-.785157 0-1.546875-.078126-2.296875-.191407v80.671875c0 17.296875 14.023437 31.324219 31.324218 31.324219h23.082032v-80.71875h42.855468v80.71875h123.046876c17.300781 0 31.324218-14.027344 31.324218-31.324219zm-46.945312 69.585938h-49.496094v-38.199219h49.496094zm0 0"/><path d="m15 158.398438c21.578125 0 42.28125-8.03125 60.246094-23.300782 17.972656 15.269532 38.679687 23.300782 60.257812 23.300782 21.574219 0 42.277344-8.03125 60.246094-23.300782 17.972656 15.269532 38.679688 23.300782 60.257812 23.300782 21.570313 0 42.273438-8.027344 60.246094-23.289063 17.96875 15.261719 38.671875 23.289063 60.242188 23.289063 21.578125 0 42.28125-8.03125 60.246094-23.300782 17.972656 15.269532 38.679687 23.300782 60.257812 23.300782 8.285156 0 15-6.71875 15-15 0-8.285157-6.714844-15-15-15-15.742188 0-31.144531-6.742188-44.535156-19.496094-8.816406-8.398438-22.632813-8.394532-31.449219.003906-13.382813 12.75-28.777344 19.492188-44.519531 19.492188-15.738282 0-31.136719-6.738282-44.523438-19.484376-8.816406-8.394531-22.625-8.394531-31.4375-.003906-13.390625 12.75-28.789062 19.488282-44.527344 19.488282-15.742187 0-31.144531-6.742188-44.535156-19.496094-8.820312-8.398438-22.632812-8.394532-31.449218.003906-13.382813 12.75-28.777344 19.492188-44.519532 19.492188-15.742187 0-31.144531-6.742188-44.535156-19.496094-8.816406-8.398438-22.628906-8.394532-31.449219.003906-13.382812 12.75-28.777343 19.492188-44.519531 19.492188-8.285156 0-15 6.714843-15 15 0 8.28125 6.714844 15 15 15zm0 0"/></svg>