<?xml version="1.0" encoding="UTF-8"?>
<svg width="24px" height="24px" viewBox="0 0 24 24" version="1.1" xmlns="http://www.w3.org/2000/svg" xmlns:xlink="http://www.w3.org/1999/xlink">
    <title>913F60BD-702B-47CB-9CB4-119EEC3E68D5</title>
    <g id="Hotel-Room-Compare" stroke="none" stroke-width="1" fill="none" fill-rule="evenodd">
        <g id="T-Hotel-Room-New" transform="translate(-1168.000000, -3446.000000)" fill="#9B9B9B" fill-rule="nonzero">
            <g id="Content-About" transform="translate(350.000000, 2834.000000)">
                <g id="Map" transform="translate(0.000000, 574.000000)">
                    <g transform="translate(20.000000, 20.000000)" id="Fullscreen">
                        <g transform="translate(790.000000, 10.000000)">
                            <g id="Icons/Open-Map" transform="translate(8.000000, 8.000000)">
                                <g id="baseline-open_in_new-24px" transform="translate(3.000000, 3.000000)">
                                    <path d="M16,16 L2,16 L2,2 L9,2 L9,0 L2,0 C0.89,0 0,0.9 0,2 L0,16 C0,17.1 0.89,18 2,18 L16,18 C17.1,18 18,17.1 18,16 L18,9 L16,9 L16,16 Z M11,0 L11,2 L14.59,2 L4.76,11.83 L6.17,13.24 L16,3.41 L16,7 L18,7 L18,0 L11,0 Z" id="Shape"></path>
                                </g>
                            </g>
                        </g>
                    </g>
                </g>
            </g>
        </g>
    </g>
</svg>