<?xml version="1.0" encoding="UTF-8"?>
<svg width="20px" height="16px" viewBox="0 0 20 16" version="1.1" xmlns="http://www.w3.org/2000/svg" xmlns:xlink="http://www.w3.org/1999/xlink">
    <!-- Generator: sketchtool 53.2 (72643) - https://sketchapp.com -->
    <title>80B0DD9C-CD88-4C2F-A59D-77D3A9557AE9</title>
    <desc>Created with sketchtool.</desc>
    <g id="Account" stroke="none" stroke-width="1" fill="none" fill-rule="evenodd">
        <g id="Traz-Personal-Add-Card-2" transform="translate(-360.000000, -479.000000)">
            <g id="Card" transform="translate(350.000000, 140.000000)">
                <g id="Btn-A/Violet/Icon" transform="translate(0.000000, 327.000000)">
                    <g id="Btn-A">
                        <g id="Icons/Check-Only" transform="translate(8.000000, 8.000000)">
                            <g id="Icons-Card">
                                <polygon id="Path" points="0 0 24 0 24 24 0 24"></polygon>
                                <path d="M20,4 L4,4 C2.89,4 2.01,4.89 2.01,6 L2,18 C2,19.11 2.89,20 4,20 L20,20 C21.11,20 22,19.11 22,18 L22,6 C22,4.89 21.11,4 20,4 Z M20,18 L4,18 L4,12 L20,12 L20,18 Z M20,8 L4,8 L4,6 L20,6 L20,8 Z" id="Shape" fill="#7A65E1" fill-rule="nonzero"></path>
                            </g>
                        </g>
                    </g>
                </g>
            </g>
        </g>
    </g>
</svg>