<?xml version="1.0" encoding="UTF-8"?>
<svg width="19px" height="20px" viewBox="0 0 19 20" version="1.1" xmlns="http://www.w3.org/2000/svg" xmlns:xlink="http://www.w3.org/1999/xlink">
    <!-- Generator: sketchtool 53.2 (72643) - https://sketchapp.com -->
    <title>30D030D7-FC73-4F41-893F-769FA77D3AB5</title>
    <desc>Created with sketchtool.</desc>
    <g id="Round-Trip" stroke="none" stroke-width="1" fill="none" fill-rule="evenodd">
        <g id="T-Main-D-To" transform="translate(-462.000000, -299.000000)">
            <g id="To-Input-Copy" transform="translate(450.000000, 160.000000)">
                <g id="From-Dropdown" transform="translate(0.000000, 70.000000)">
                    <g id="List" transform="translate(10.000000, 20.000000)">
                        <g id="baseline-place-24px-copy" transform="translate(0.000000, 47.000000)">
                            <g id="Flight">
                                <polygon id="Shape" points="0 0 24 0 24 24 0 24"></polygon>
                                <path d="M21,16 L21,14 L13,9 L13,3.5 C13,2.67 12.33,2 11.5,2 C10.67,2 10,2.67 10,3.5 L10,9 L2,14 L2,16 L10,13.5 L10,19 L8,20.5 L8,22 L11.5,21 L15,22 L15,20.5 L13,19 L13,13.5 L21,16 Z" id="Shape" fill="#D8D8D8" fill-rule="nonzero"></path>
                            </g>
                        </g>
                    </g>
                </g>
            </g>
        </g>
    </g>
</svg>