<?xml version="1.0"?>
<svg xmlns="http://www.w3.org/2000/svg" viewBox="0 0 192 192" width="512" height="512"><title>05-pool</title><g id="_05-pool" data-name="05-pool"><path d="M192,32V24a24,24,0,0,0-48,0V48H104V24a8,8,0,0,1,16,0v8h16V24a24,24,0,0,0-48,0v89.009A56.956,56.956,0,0,0,76.806,112a50.714,50.714,0,0,0-22.279,4.615A35.154,35.154,0,0,1,38.4,120a35.166,35.166,0,0,1-16.126-3.385A50.7,50.7,0,0,0,0,112v16a35.154,35.154,0,0,1,16.124,3.385A50.714,50.714,0,0,0,38.4,136a50.714,50.714,0,0,0,22.279-4.615A35.154,35.154,0,0,1,76.806,128a35.148,35.148,0,0,1,16.122,3.385A50.7,50.7,0,0,0,115.2,136a50.7,50.7,0,0,0,22.276-4.615A35.155,35.155,0,0,1,153.6,128a35.148,35.148,0,0,1,16.122,3.385A50.694,50.694,0,0,0,192,136V120a35.16,35.16,0,0,1-16.121-3.384A50.356,50.356,0,0,0,160,112.305V24a8,8,0,0,1,16,0v8ZM144,64V80H104V64Zm-12.674,52.615A35.148,35.148,0,0,1,115.2,120a35.359,35.359,0,0,1-11.2-1.5V96h40v16.722A52.45,52.45,0,0,0,131.326,116.615Z"/><path d="M153.6,152a50.707,50.707,0,0,0-22.277,4.615A35.148,35.148,0,0,1,115.2,160a35.148,35.148,0,0,1-16.122-3.385A50.7,50.7,0,0,0,76.806,152a50.714,50.714,0,0,0-22.279,4.615A35.154,35.154,0,0,1,38.4,160a35.166,35.166,0,0,1-16.126-3.385A50.7,50.7,0,0,0,0,152v16a35.154,35.154,0,0,1,16.124,3.385A50.714,50.714,0,0,0,38.4,176a50.714,50.714,0,0,0,22.279-4.615A35.154,35.154,0,0,1,76.806,168a35.148,35.148,0,0,1,16.122,3.385A50.7,50.7,0,0,0,115.2,176a50.7,50.7,0,0,0,22.276-4.615A35.155,35.155,0,0,1,153.6,168a35.148,35.148,0,0,1,16.122,3.385A50.694,50.694,0,0,0,192,176V160a35.16,35.16,0,0,1-16.121-3.384A50.682,50.682,0,0,0,153.6,152Z"/></g></svg>
