<?xml version="1.0" encoding="iso-8859-1"?>
<!-- Generator: Adobe Illustrator 19.0.0, SVG Export Plug-In . SVG Version: 6.00 Build 0)  -->
<svg version="1.1" id="Capa_1" xmlns="http://www.w3.org/2000/svg" xmlns:xlink="http://www.w3.org/1999/xlink" x="0px" y="0px"
	 viewBox="0 0 512 512" style="enable-background:new 0 0 512 512;" xml:space="preserve">
<g>
	<g>
		<g>
			<path d="M256,0c-16.937,0-30.72,13.783-30.72,30.72V153.6c0,5.632-4.608,10.24-10.24,10.24c-5.632,0-10.24-4.608-10.24-10.24
				V30.72C204.8,13.783,191.017,0,174.08,0c-16.937,0-30.72,13.783-30.72,30.72V153.6c0,5.632-4.608,10.24-10.24,10.24
				s-10.24-4.608-10.24-10.24V30.72C122.88,13.783,109.097,0,92.16,0S61.44,13.783,61.44,30.72v143.36
				c0,46.817,29.471,89.231,73.359,105.574c4.526,1.679,7.311,6.062,6.799,10.67l-18.412,165.089c-0.41,3.686-0.389,7.537,0,11.203
				c1.659,14.868,9.748,28.201,22.2,36.598c8.54,5.775,18.534,8.765,28.713,8.765c4.669,0,9.421-0.635,14.049-1.946
				c23.757-6.595,39.444-31.089,36.577-56.975l-18.166-162.734c-0.512-4.608,2.273-8.991,6.799-10.67
				c43.889-16.343,73.359-58.757,73.359-105.574V30.72C286.72,13.783,272.937,0,256,0z"/>
			<path d="M419.84,0c-15.032,0-27.668,10.998-29.921,25.702C385.638,47.022,348.16,234.516,348.16,256
				c0,24.719,17.613,45.425,40.96,50.176V481.28c0,16.937,13.783,30.72,30.72,30.72s30.72-13.783,30.72-30.72V30.72
				C450.56,13.783,436.777,0,419.84,0z"/>
		</g>
	</g>
</g>
<g>
</g>
<g>
</g>
<g>
</g>
<g>
</g>
<g>
</g>
<g>
</g>
<g>
</g>
<g>
</g>
<g>
</g>
<g>
</g>
<g>
</g>
<g>
</g>
<g>
</g>
<g>
</g>
<g>
</g>
</svg>
