<?xml version="1.0" encoding="UTF-8"?>
<svg width="24px" height="12px" viewBox="0 0 24 12" version="1.1" xmlns="http://www.w3.org/2000/svg" xmlns:xlink="http://www.w3.org/1999/xlink">
    <!-- Generator: sketchtool 53.2 (72643) - https://sketchapp.com -->
    <title>072C47AF-1BA0-4066-B077-3A23B3F252C1</title>
    <desc>Created with sketchtool.</desc>
    <g id="Results" stroke="none" stroke-width="1" fill="none" fill-rule="evenodd">
        <g id="T-Results-Transfer" transform="translate(-826.000000, -556.000000)">
            <g id="Content" transform="translate(350.000000, 254.000000)">
                <g transform="translate(0.000000, 50.000000)" id="Transfer/Normal">
                    <g transform="translate(0.000000, 44.000000)">
                        <g id="Center">
                            <g transform="translate(300.000000, 20.000000)">
                                <g id="Icons-Col-2" transform="translate(176.000000, 148.000000)">
                                    <g id="Icons/Info-Copy" transform="translate(0.000000, 34.000000)">
                                        <g id="baseline-all_inclusive-24px">
                                            <path d="M18.6,6.62 C17.16,6.62 15.8,7.18 14.83,8.15 L12,10.66 L10.48,12 L10.49,12 L7.8,14.39 C7.16,15.03 6.31,15.38 5.4,15.38 C3.53,15.38 2.01,13.87 2.01,12 C2.01,10.13 3.53,8.62 5.4,8.62 C6.31,8.62 7.16,8.97 7.84,9.65 L8.97,10.65 L10.48,9.31 L9.22,8.2 C8.2,7.18 6.84,6.62 5.4,6.62 C2.42,6.62 0,9.04 0,12 C0,14.96 2.42,17.38 5.4,17.38 C6.84,17.38 8.2,16.82 9.17,15.85 L12,13.35 L12.01,13.36 L13.52,12 L13.51,12 L16.2,9.61 C16.84,8.97 17.69,8.62 18.6,8.62 C20.47,8.62 21.99,10.13 21.99,12 C21.99,13.87 20.47,15.38 18.6,15.38 C17.7,15.38 16.84,15.03 16.16,14.35 L15.02,13.34 L13.51,14.68 L14.78,15.8 C15.8,16.81 17.15,17.37 18.6,17.37 C21.58,17.37 24,14.96 24,11.99 C24,9.02 21.58,6.62 18.6,6.62 L18.6,6.62 Z" id="Path" fill="#4A4A4A" fill-rule="nonzero"></path>
                                            <polygon id="Path" points="0 0 24 0 24 24 0 24"></polygon>
                                        </g>
                                    </g>
                                </g>
                            </g>
                        </g>
                    </g>
                </g>
            </g>
        </g>
    </g>
</svg>