<?xml version="1.0" encoding="iso-8859-1"?>
<!-- Generator: Adobe Illustrator 19.0.0, SVG Export Plug-In . SVG Version: 6.00 Build 0)  -->
<svg version="1.1" id="Capa_1" xmlns="http://www.w3.org/2000/svg" xmlns:xlink="http://www.w3.org/1999/xlink" x="0px" y="0px"
	 viewBox="0 0 511.969 511.969" style="enable-background:new 0 0 511.969 511.969;" xml:space="preserve">
<g>
	<g>
		<g>
			<path d="M442.383,64c17.695,0,32-14.336,32-32s-14.305-32-32-32c-17.695,0-32,14.336-32,32c0,6.595,2.432,12.355,5.888,17.408
				l-160,106.655L112.368,12.16c-9.503-9.564-23.936-12.416-36.413-7.229C63.477,10.117,55.316,22.303,55.316,35.84
				c0.225,95.647,35.328,189.568,106.496,260.736c71.199,71.199,165.151,106.368,260.833,106.496
				c13.507,0.031,25.697-8.131,30.879-20.608c5.181-12.477,2.304-26.88-7.265-36.449L318.32,218.081L424.944,58.148
				C430.033,61.537,435.824,64,442.383,64z"/>
			<path d="M217.968,398.659c-1.121-4.096-3.871-7.552-7.613-9.631c-28.959-15.969-56.064-36.065-80.512-60.477l-0.896-0.256
				l-0.799,0.481L39.602,488.192c-2.749,4.961-2.688,11.039,0.195,15.872c2.842,4.895,8.125,7.905,13.788,7.905H229.17
				c5.053,0,9.728-2.335,12.8-6.333c3.005-4.035,3.999-9.216,2.56-14.049L217.968,398.659z"/>
		</g>
	</g>
</g>
<g>
</g>
<g>
</g>
<g>
</g>
<g>
</g>
<g>
</g>
<g>
</g>
<g>
</g>
<g>
</g>
<g>
</g>
<g>
</g>
<g>
</g>
<g>
</g>
<g>
</g>
<g>
</g>
<g>
</g>
</svg>
