<?xml version="1.0" encoding="iso-8859-1"?>
<!-- Generator: Adobe Illustrator 19.0.0, SVG Export Plug-In . SVG Version: 6.00 Build 0)  -->
<svg version="1.1" id="Capa_1" xmlns="http://www.w3.org/2000/svg" xmlns:xlink="http://www.w3.org/1999/xlink" x="0px" y="0px"
	 viewBox="0 0 426.667 426.667" style="enable-background:new 0 0 426.667 426.667;" xml:space="preserve">
<g>
	<g>
		<path d="M286.08,213.867c23.147-15.467,48.64-27.627,76.16-34.88C334.613,186.24,309.12,198.4,286.08,213.867z"/>
	</g>
</g>
<g>
	<g>
		<g>
			<path d="M277.547,219.307c0.589-0.424,1.204-0.828,1.826-1.227c0.072-0.051,0.143-0.103,0.214-0.154
				C278.892,218.373,278.209,218.83,277.547,219.307z"/>
			<path d="M213.333,218.88c21.867-22.72,47.147-41.493,74.56-56C283.947,103.36,259.84,45.227,214.613,0
				c-45.653,45.653-70.827,103.68-75.733,162.88C166.187,177.493,191.467,196.16,213.333,218.88z"/>
			<path d="M279.587,217.925c2.104-1.353,4.328-2.616,6.493-4.059c-2.161,1.496-4.511,2.802-6.707,4.213
				c-25.988,18.626-48.417,42.035-66.04,68.961c-17.546-26.809-39.859-50.132-65.703-68.719c0.535,0.358,1.072,0.712,1.596,1.092
				c-0.768-0.576-1.565-1.123-2.377-1.653C105.282,188.101,54.651,170.667,0,170.667c0,113.387,71.68,209.6,171.413,245.013
				c13.547,4.8,27.52,8.427,41.92,10.987c14.4-2.453,28.373-6.08,41.92-10.987c99.733-35.413,171.413-131.627,171.413-245.013
				C371.915,170.667,321.198,188.166,279.587,217.925z"/>
		</g>
	</g>
</g>
<g>
</g>
<g>
</g>
<g>
</g>
<g>
</g>
<g>
</g>
<g>
</g>
<g>
</g>
<g>
</g>
<g>
</g>
<g>
</g>
<g>
</g>
<g>
</g>
<g>
</g>
<g>
</g>
<g>
</g>
</svg>
