<svg height="409.6pt" viewBox="0 0 409.6 409.6" width="409.6pt" xmlns="http://www.w3.org/2000/svg"><path d="m392.535156 341.335938h-227.097656c-11.734375-19.851563-43.003906-34.136719-80.101562-34.136719-47.136719 0-85.335938 22.917969-85.335938 51.199219 0 28.285156 38.199219 51.203124 85.335938 51.203124 37.097656 0 68.367187-14.285156 80.101562-34.136718h227.097656c9.378906 0 17.066406-7.679688 17.066406-17.066406 0-9.382813-7.6875-17.0625-17.066406-17.0625zm0 0"/><path d="m102.398438 204.800781v17.0625c0 28.269531 22.933593 51.203125 51.1875 51.203125h102.414062c28.28125 0 51.199219-22.933594 51.199219-51.203125v-17.0625zm0 0"/><path d="m358.398438 0h-256v170.664062h256c28.269531 0 51.203124-22.929687 51.203124-51.199218v-68.265625c0-28.265625-22.933593-51.199219-51.203124-51.199219zm17.066406 119.464844c0 9.402344-7.648438 17.070312-17.066406 17.070312h-51.199219v-102.398437h51.199219c9.417968 0 17.066406 7.664062 17.066406 17.0625zm0 0"/></svg>