<?xml version="1.0" encoding="UTF-8"?>
<svg width="18px" height="20px" viewBox="0 0 18 20" version="1.1" xmlns="http://www.w3.org/2000/svg" xmlns:xlink="http://www.w3.org/1999/xlink">
    <!-- Generator: sketchtool 53.2 (72643) - https://sketchapp.com -->
    <title>A07FD2AC-E9CF-446B-9849-414B1E18B0DB</title>
    <desc>Created with sketchtool.</desc>
    <g id="Results" stroke="none" stroke-width="1" fill="none" fill-rule="evenodd">
        <g id="T-Results-Flight" transform="translate(-1199.000000, -170.000000)">
            <g id="Tabs" transform="translate(0.000000, 120.000000)">
                <g id="Tab/Total" transform="translate(1010.000000, 20.000000)">
                    <g transform="translate(0.000000, 14.000000)" id="Icon/Total">
                        <g transform="translate(186.000000, 14.000000)">
                            <g id="Icons/Total">
                                <g id="ic_receipt_black_24px">
                                    <path d="M18,17 L6,17 L6,15 L18,15 L18,17 Z M18,13 L6,13 L6,11 L18,11 L18,13 Z M18,9 L6,9 L6,7 L18,7 L18,9 Z M3,22 L4.5,20.5 L6,22 L7.5,20.5 L9,22 L10.5,20.5 L12,22 L13.5,20.5 L15,22 L16.5,20.5 L18,22 L19.5,20.5 L21,22 L21,2 L19.5,3.5 L18,2 L16.5,3.5 L15,2 L13.5,3.5 L12,2 L10.5,3.5 L9,2 L7.5,3.5 L6,2 L4.5,3.5 L3,2 L3,22 Z" id="Shape" fill="#7A65E1" fill-rule="nonzero"></path>
                                    <polygon id="Shape" points="0 0 24 0 24 24 0 24"></polygon>
                                </g>
                            </g>
                        </g>
                    </g>
                </g>
            </g>
        </g>
    </g>
</svg>