<?xml version="1.0" encoding="UTF-8"?>
<svg width="24px" height="24px" viewBox="0 0 24 24" version="1.1" xmlns="http://www.w3.org/2000/svg" xmlns:xlink="http://www.w3.org/1999/xlink">
    <!-- Generator: sketchtool 52.6 (67491) - http://www.bohemiancoding.com/sketch -->
    <title>7AD67F6A-E58D-4926-B68B-7A6A66F2B13F</title>
    <desc>Created with sketchtool.</desc>
    <g id="Round-Trip" stroke="none" stroke-width="1" fill="none" fill-rule="evenodd">
        <g id="T-Main" transform="translate(-886.000000, -540.000000)">
            <g id="Main">
                <g id="Row-Services" transform="translate(50.000000, 520.000000)">
                    <g id="Act-3" transform="translate(600.000000, 0.000000)">
                        <g id="baseline-contact_mail-24px">
                            <g transform="translate(236.000000, 20.000000)">
                                <polygon id="Path" points="0 0 24 0 24 24 0 24"></polygon>
                                <path d="M8,6 C9.66,6 11,7.34 11,9 C11,10.66 9.66,12 8,12 C6.34,12 5,10.66 5,9 C5,7.34 6.34,6 8,6 Z M14,18 L2,18 L2,17 C2,15 6,13.9 8,13.9 C10,13.9 14,15 14,17 L14,18 Z M19,15 L19,18 L17,18 L17,15 L19,15 Z M22,14 L14,14 L14,9 L22,9 L22,14 Z" id="Shape" fill="#FF6767" fill-rule="nonzero"></path>
                            </g>
                        </g>
                    </g>
                </g>
            </g>
        </g>
    </g>
</svg>