<?xml version="1.0" encoding="UTF-8"?>
<svg width="20px" height="12px" viewBox="0 0 20 12" version="1.1" xmlns="http://www.w3.org/2000/svg" xmlns:xlink="http://www.w3.org/1999/xlink">
    <!-- Generator: sketchtool 53.2 (72643) - https://sketchapp.com -->
    <title>F09BBE04-43C5-45B8-859E-2F46F5F25CD7</title>
    <desc>Created with sketchtool.</desc>
    <g id="Round-Trip" stroke="none" stroke-width="1" fill="none" fill-rule="evenodd">
        <g id="T-Main-Address" transform="translate(-537.000000, -136.000000)">
            <g id="Content">
                <g id="Act" transform="translate(45.000000, 120.000000)">
                    <g id="Act/Transfer" transform="translate(480.000000, 0.000000)">
                        <g id="Act/Flight">
                            <g id="Icons/Main/Transfer-White" transform="translate(10.000000, 10.000000)">
                                <g id="Icons/Transfer">
                                    <polygon id="Path" points="0 0 24 0 24 24 0 24"></polygon>
                                    <path d="M8,6 C9.66,6 11,7.34 11,9 C11,10.66 9.66,12 8,12 C6.34,12 5,10.66 5,9 C5,7.34 6.34,6 8,6 Z M14,18 L2,18 L2,17 C2,15 6,13.9 8,13.9 C10,13.9 14,15 14,17 L14,18 Z M19,15 L19,18 L17,18 L17,15 L19,15 Z M22,14 L14,14 L14,9 L22,9 L22,14 Z" id="Shape" fill="#FFFFFF" fill-rule="nonzero"></path>
                                </g>
                            </g>
                        </g>
                    </g>
                </g>
            </g>
        </g>
    </g>
</svg>