<?xml version="1.0" encoding="UTF-8"?>
<svg width="24px" height="24px" viewBox="0 0 24 24" version="1.1" xmlns="http://www.w3.org/2000/svg" xmlns:xlink="http://www.w3.org/1999/xlink">
    <title>3C0C6FCA-0073-4AC3-B59C-53C97DFECDC1</title>
    <defs>
        <rect id="path-1" x="900" y="0" width="190" height="40"></rect>
        <filter x="-0.3%" y="-1.2%" width="100.5%" height="102.5%" filterUnits="objectBoundingBox" id="filter-2">
            <feOffset dx="-1" dy="0" in="SourceAlpha" result="shadowOffsetInner1"></feOffset>
            <feComposite in="shadowOffsetInner1" in2="SourceAlpha" operator="arithmetic" k2="-1" k3="1" result="shadowInnerInner1"></feComposite>
            <feColorMatrix values="0 0 0 0 1   0 0 0 0 1   0 0 0 0 1  0 0 0 0.2 0" type="matrix" in="shadowInnerInner1"></feColorMatrix>
        </filter>
    </defs>
    <g id="Edit-Bar" stroke="none" stroke-width="1" fill="none" fill-rule="evenodd">
        <g id="T-F-Edit" transform="translate(-960.000000, -18.000000)">
            <rect fill="#FBFBFB" x="0" y="0" width="1280" height="1620"></rect>
            <g id="Edit/Flight">
                <rect id="Bg" fill="#7A65E1" fill-rule="nonzero" x="0" y="0" width="1280" height="60"></rect>
                <g id="Grid" transform="translate(50.000000, 10.000000)" fill="black" fill-opacity="1">
                    <g id="Cell-290-Copy-2">
                        <use filter="url(#filter-2)" xlink:href="#path-1"></use>
                    </g>
                </g>
                <g id="Edit/Car" transform="translate(50.000000, 10.000000)">
                    <g id="baseline-people-24px" transform="translate(910.000000, 8.000000)">
                        <path d="M16,11 C17.66,11 18.99,9.66 18.99,8 C18.99,6.34 17.66,5 16,5 C14.34,5 13,6.34 13,8 C13,9.66 14.34,11 16,11 Z M8,11 C9.66,11 10.99,9.66 10.99,8 C10.99,6.34 9.66,5 8,5 C6.34,5 5,6.34 5,8 C5,9.66 6.34,11 8,11 Z M8,13 C5.67,13 1,14.17 1,16.5 L1,19 L15,19 L15,16.5 C15,14.17 10.33,13 8,13 Z M16,13 C15.71,13 15.38,13.02 15.03,13.05 C16.19,13.89 17,15.02 17,16.5 L17,19 L23,19 L23,16.5 C23,14.17 18.33,13 16,13 Z" id="Shape" fill="#FFFFFF"></path>
                        <polygon id="Path" points="0 0 24 0 24 24 0 24"></polygon>
                    </g>
                </g>
            </g>
        </g>
    </g>
</svg>