<?xml version="1.0" encoding="UTF-8"?>
<svg width="26px" height="9px" viewBox="0 0 26 9" version="1.1" xmlns="http://www.w3.org/2000/svg" xmlns:xlink="http://www.w3.org/1999/xlink">
    <!-- Generator: sketchtool 54.1 (76490) - https://sketchapp.com -->
    <title>3AE160E9-1CCC-4305-B66C-D82436333B22</title>
    <desc>Created with sketchtool.</desc>
    <g id="Icon" stroke="none" stroke-width="1" fill="none" fill-rule="evenodd">
        <g id="T-Icon" transform="translate(-112.000000, -911.000000)">
            <g id="Icons/Logo/Visa" transform="translate(112.000000, 911.000000)">
                <g id="icon_visa_">
                    <g id="形状_1_3_" transform="translate(2.251082, 0.000000)" fill="#005BAC">
                        <g id="形状_1">
                            <path d="M8.23490909,0.193874459 L6.91436797,8.30947619 L9.02712121,8.30947619 L10.3478312,0.193874459 L8.23490909,0.193874459 Z M5.13674459,0.193874459 L3.12236364,5.77571429 L2.88408658,4.57374892 L2.88425541,4.57414286 L2.83174892,4.30474459 C2.58795671,3.77934199 2.023329,2.7807619 0.957160173,1.92855844 C0.641952381,1.67666234 0.324212121,1.46168398 0.0170519481,1.27805195 L1.84780087,8.30947619 L4.0491342,8.30947619 L7.4107316,0.193874459 L5.13674459,0.193874459 Z M13.3825152,2.44692641 C13.3825152,1.52938528 15.4401732,1.64728571 16.3443203,2.14550649 L16.6457965,0.402493506 C16.6457965,0.402493506 15.7153117,0.0486233766 14.7454329,0.0486233766 C13.6968788,0.0486233766 11.207013,0.507168831 11.207013,2.73523377 C11.207013,4.83211688 14.129368,4.85817316 14.129368,5.95906494 C14.129368,7.05995671 11.5083203,6.86321212 10.643342,6.16875325 L10.3289784,7.99061039 C10.3289784,7.99061039 11.2723506,8.44915584 12.7141126,8.44915584 C14.1557056,8.44915584 16.3311515,7.70230303 16.3311515,5.67075758 C16.3311515,3.5607619 13.3825152,3.36424242 13.3825152,2.44692641 Z M22.0041602,0.193874459 L20.3054372,0.193874459 C19.5210476,0.193874459 19.3300433,0.798683983 19.3300433,0.798683983 L16.1792035,8.30947619 L18.381381,8.30947619 L18.8219177,7.10407792 L21.5079091,7.10407792 L21.755697,8.30947619 L23.6956797,8.30947619 L22.0041602,0.193874459 Z M19.4307792,5.438671 L20.541013,2.40162338 L21.1655758,5.438671 L19.4307792,5.438671 Z" id="Shape"></path>
                        </g>
                    </g>
                    <g id="形状_1_2_" transform="translate(0.000000, 0.225108)" fill="#F6AC1D">
                        <g id="形状_1_1_">
                            <path d="M4.45331602,0.732839827 C4.45331602,0.732839827 4.36586147,0.000393939394 3.43222511,0.000393939394 L0.0402380952,0.000393939394 L0.000506493506,0.138047619 C0.000506493506,0.138047619 1.63096537,0.470419913 3.19518615,1.71566234 C4.69001732,2.90580952 5.17765801,4.38938528 5.17765801,4.38938528 L4.45331602,0.732839827 Z" id="Path"></path>
                        </g>
                    </g>
                </g>
            </g>
        </g>
    </g>
</svg>