<svg id="Layer_3" enable-background="new 0 0 64 64" height="512" viewBox="0 0 64 64" width="512" xmlns="http://www.w3.org/2000/svg"><g><path d="m51.739 19.155-6.871-6.871c-.796.422-1.611.811-2.464 1.131-2.556.958-4.829 2.423-6.759 4.353l-3.232 3.231h18.467c.261-.632.545-1.248.859-1.844z"/><path d="m58 22.999h-38-6s0 0-.001 0h-8.001c-1.653 0-3 1.346-3 3s1.347 3 3 3h52.002c1.653 0 2.999-1.346 2.999-3s-1.346-3-2.999-3z"/><path d="m20.993 20.952c5.271-.474 9.483-4.681 9.961-9.952h-4.005c-.234 3.095-1.54 5.974-3.758 8.192-.674.674-1.414 1.257-2.198 1.76z"/><path d="m54.596 15.048-5.611-5.64c-.742.663-1.519 1.276-2.341 1.823l6.145 6.145c.543-.819 1.151-1.591 1.807-2.328z"/><path d="m56.702 14.33c.476.478 1.107.741 1.779.741s1.303-.263 1.777-.741c.985-.989.985-2.6.001-3.589l-6.964-7c-.475-.478-1.107-.741-1.778-.741s-1.303.263-1.777.741c-.985.99-.985 2.6-.001 3.589z"/><path d="m21.012 6.835c.091-.545.608-.911 1.151-.822.545.091.913.606.822 1.151-.682 4.089-2.387 7.979-4.932 11.251l-1.83 2.352c2.089-.427 4.01-1.447 5.553-2.989 2.077-2.078 3.221-4.84 3.221-7.778v-6.956c-5.599.507-9.999 5.227-9.999 10.955v5.085l1.476-1.897c2.342-3.01 3.911-6.59 4.538-10.352z"/><path d="m13 20.146-.001-4.604c-3.206-2.046-5.798-4.901-7.502-8.311l-.393-.784 1.788-.895.393.785c1.355 2.711 3.331 5.034 5.757 6.815.094-1.452.417-2.843.951-4.127-2.629-3.506-6.642-5.7-10.994-5.991v2.966c0 6.409 4.052 12.051 10.001 14.146z"/><path d="m19.178 53.616c.771.438 1.329 1.177 1.533 2.029.19.794.054 1.599-.386 2.264-.24.363-.352.789-.321 1.232.07 1.025 1.037 1.859 2.155 1.859h19.679c1.119 0 2.086-.834 2.156-1.858.03-.443-.081-.869-.321-1.232-.439-.665-.576-1.47-.386-2.264.204-.853.763-1.592 1.533-2.029 8.128-4.617 13.179-13.284 13.18-22.617h-52c-.001 9.333 5.048 17.999 13.178 22.616zm34.49-18.789 1.97.345c-1.327 7.567-6.263 14.089-13.203 17.445l-.87-1.8c6.362-3.077 10.886-9.055 12.103-15.99zm-19.669-1.828h1.999v1.999h-1.999zm-2.001 0v1.999h-23.999v-1.999z"/></g></svg>