<?xml version="1.0" encoding="iso-8859-1"?>
<!-- Generator: Adobe Illustrator 19.0.0, SVG Export Plug-In . SVG Version: 6.00 Build 0)  -->
<svg version="1.1" id="Capa_1" xmlns="http://www.w3.org/2000/svg" xmlns:xlink="http://www.w3.org/1999/xlink" x="0px" y="0px"
	 viewBox="0 0 512 512" style="enable-background:new 0 0 512 512;" xml:space="preserve">
<g>
	<g>
		<path d="M469.333,234.667H42.667C19.136,234.667,0,253.803,0,277.333C0,300.864,19.136,320,42.667,320h426.667
			C492.864,320,512,300.864,512,277.333C512,253.803,492.864,234.667,469.333,234.667z"/>
	</g>
</g>
<g>
	<g>
		<path d="M373.333,192C343.936,192,320,215.936,320,245.333c0,5.888,4.779,10.667,10.667,10.667s10.667-4.779,10.667-10.667h64
			c0,5.888,4.779,10.667,10.667,10.667c5.888,0,10.667-4.779,10.667-10.667C426.667,215.936,402.731,192,373.333,192z"/>
	</g>
</g>
<g>
	<g>
		<path d="M269.269,244.011l-8.683-69.291c-3.328-26.645-26.069-46.72-52.928-46.72H192v32c0,5.888-4.779,10.667-10.667,10.667
			s-10.667-4.779-10.667-10.667v-32h-15.659c-26.837,0-49.6,20.075-52.928,46.72l-8.661,69.291
			c-0.725,5.845,3.413,11.179,9.259,11.904c5.931,0.683,11.157-3.413,11.904-9.259l0.171-1.323h55.915v-42.667
			c0-5.888,4.779-10.667,10.667-10.667S192,196.779,192,202.667v42.667h55.915l0.171,1.323c0.683,5.397,5.269,9.344,10.581,9.344
			c0.448,0,0.896-0.021,1.344-0.085C265.856,255.189,269.995,249.856,269.269,244.011z"/>
	</g>
</g>
<g>
	<g>
		<circle cx="181.333" cy="53.333" r="53.333"/>
	</g>
</g>
<g>
	<g>
		<path d="M459.84,298.731c-5.739-0.619-11.115,3.563-11.776,9.429l-0.128,1.173H64.064l-0.128-1.173
			c-0.64-5.845-5.803-10.069-11.776-9.429c-5.845,0.661-10.069,5.931-9.429,11.776l21.333,192c0.597,5.419,5.163,9.493,10.603,9.493
			h362.667c5.44,0,10.005-4.075,10.603-9.493l21.333-192C469.909,304.661,465.707,299.392,459.84,298.731z"/>
	</g>
</g>
<g>
	<g>
		<path d="M373.333,170.667c-5.888,0-10.667,4.779-10.667,10.667v21.333c0,5.888,4.779,10.667,10.667,10.667
			c5.888,0,10.667-4.779,10.667-10.667v-21.333C384,175.445,379.221,170.667,373.333,170.667z"/>
	</g>
</g>
<g>
</g>
<g>
</g>
<g>
</g>
<g>
</g>
<g>
</g>
<g>
</g>
<g>
</g>
<g>
</g>
<g>
</g>
<g>
</g>
<g>
</g>
<g>
</g>
<g>
</g>
<g>
</g>
<g>
</g>
</svg>
