<svg width="20" height="21" viewBox="0 0 20 21" fill="none" xmlns="http://www.w3.org/2000/svg">
<g clip-path="url(#clip0_5398_38058)">
<path d="M9.15306 7.17909H10.8197V8.84575C10.8197 9.30409 11.1947 9.67909 11.6531 9.67909C12.1114 9.67909 12.4864 9.30409 12.4864 8.84575V7.17909H14.1531C14.6114 7.17909 14.9864 6.80409 14.9864 6.34575C14.9864 5.88742 14.6114 5.51242 14.1531 5.51242H12.4864V3.84575C12.4864 3.38742 12.1114 3.01242 11.6531 3.01242C11.1947 3.01242 10.8197 3.38742 10.8197 3.84575V5.51242H9.15306C8.69473 5.51242 8.31973 5.88742 8.31973 6.34575C8.31973 6.80409 8.69473 7.17909 9.15306 7.17909ZM13.4947 13.2374L11.3781 12.9958C10.8697 12.9374 10.3697 13.1124 10.0114 13.4708L8.47806 15.0041C6.11973 13.8041 4.18639 11.8791 2.98639 9.51242L4.52806 7.97075C4.88639 7.61242 5.0614 7.10409 5.00306 6.60409L4.76139 4.50409C4.66973 3.66242 3.95306 3.02075 3.11139 3.02075H1.66973C0.728061 3.02075 -0.0552721 3.80409 0.00306123 4.74575C0.444728 11.8624 6.13639 17.5458 13.2447 17.9874C14.1864 18.0458 14.9697 17.2624 14.9697 16.3208V14.8791C14.9781 14.0458 14.3364 13.3291 13.4947 13.2374Z" fill="#2F0A4D"/>
</g>
<defs>
<clipPath id="clip0_5398_38058">
<rect width="20" height="20" fill="white" transform="translate(0 0.501465)"/>
</clipPath>
</defs>
</svg>
