<svg width="45" height="44" viewBox="0 0 45 44" fill="none" xmlns="http://www.w3.org/2000/svg">
<g clip-path="url(#clip0_3397_204722)">
<path d="M0.25 4.88889C0.25 3.59227 0.765078 2.34877 1.68192 1.43192C2.59877 0.515078 3.84227 0 5.13889 0L39.3611 0C40.6577 0 41.9012 0.515078 42.8181 1.43192C43.7349 2.34877 44.25 3.59227 44.25 4.88889V39.1111C44.25 40.4077 43.7349 41.6512 42.8181 42.5681C41.9012 43.4849 40.6577 44 39.3611 44H5.13889C3.84227 44 2.59877 43.4849 1.68192 42.5681C0.765078 41.6512 0.25 40.4077 0.25 39.1111V4.88889Z" fill="#FEBB02"/>
<path d="M25.3206 9.86456C25.3206 11.5696 23.9578 13.0093 22.2516 13.0093C20.6224 13.0093 19.1826 11.5317 19.1826 9.86456C19.1826 8.31112 20.6224 6.87012 22.2516 6.87012C23.8808 6.87134 25.3206 8.27323 25.3206 9.86456ZM19.5224 18.0877C19.5224 16.269 20.6603 15.0553 22.2504 15.0553C23.8417 15.0553 24.9784 16.2678 24.9784 18.0877V32.6395C24.9784 34.4581 23.8417 35.6706 22.2504 35.6706C20.6591 35.6706 19.5224 34.4581 19.5224 32.6395V18.0877Z" fill="white"/>
</g>
<defs>
<clipPath id="clip0_3397_204722">
<rect width="44" height="44" fill="white" transform="translate(0.25)"/>
</clipPath>
</defs>
</svg>
