<?xml version="1.0" encoding="utf-8"?>
<!-- Generator: Adobe Illustrator 21.0.0, SVG Export Plug-In . SVG Version: 6.00 Build 0)  -->
<svg version="1.1" id="Capa_1" xmlns="http://www.w3.org/2000/svg" xmlns:xlink="http://www.w3.org/1999/xlink" x="0px" y="0px"
	 viewBox="0 0 512 512" style="enable-background:new 0 0 512 512;" xml:space="preserve">
<path id="XMLID_65_" d="M330.5,260.2c-7.9,0-12.7,3.9-12.7,10.3c0,6.4,4.9,10.3,12.7,10.3s12.7-3.9,12.7-10.3
	C343.2,264.1,338.3,260.2,330.5,260.2z"/>
<path id="XMLID_68_" d="M330.5,239.7c6.2,0,9.9-3.1,9.9-8.4c0-5.3-3.8-8.5-9.9-8.5c-6.1,0-9.8,3.2-9.8,8.5
	C320.7,236.5,324.3,239.7,330.5,239.7z"/>
<path id="XMLID_83_" d="M256,98.2C169,98.2,98.2,169,98.2,256S169,413.8,256,413.8S413.8,343,413.8,256S343,98.2,256,98.2L256,98.2z
	 M213.5,265.2h-22.9v22.4h-27.9v-22.4h-23.1v-26.8h23.1V216h27.9v22.4h22.9L213.5,265.2L213.5,265.2z M277,300.8h-29.9v-74.2h-17.6
	v-23.8H277L277,300.8L277,300.8z M330.5,302.7c-25.6,0-42.8-12.6-42.8-31.4c0-9.3,4.3-16.9,12.4-22.3c-5.9-4.9-9-11.4-9-19
	c0-17.5,15.8-29.2,39.4-29.2s39.4,11.7,39.4,29.2c0,7.6-3.1,14.1-9,19c8.1,5.3,12.4,13,12.4,22.3C373.2,290.1,356,302.7,330.5,302.7
	z"/>
</svg>
