<!-- Generated by IcoMoon.io -->
<svg version="1.1" xmlns="http://www.w3.org/2000/svg" width="32" height="32" viewBox="0 0 32 32" fill="#7A65E1">
<title>gate</title>
<path d="M0 1.938v3.75h3.75v3.75h5.688v-3.75h13.125v3.75h5.625v-3.75h3.813v-3.75z"></path>
<path d="M2.813 11.313c-1.551 0-2.813 1.262-2.813 2.813v13.125c0 1.551 1.262 2.813 2.813 2.813h10.375v-18.75h-10.375zM11.313 24.438h-7.563v-1.875h7.563v1.875zM11.313 18.813h-7.563v-1.875h7.563v1.875z"></path>
<path d="M29.125 11.313h-14.063v18.75h14.063c1.551 0 2.875-1.262 2.875-2.813v-13.125c0-1.551-1.324-2.813-2.875-2.813zM27.891 22.514l-4.391-1.464v1.948l2.395 1.597-1.040 1.56-2.293-1.528-2.293 1.528-1.040-1.56 2.395-1.597v-1.948l-4.391 1.464-0.593-1.778 4.984-1.661v-4.012h1.875v4.012l4.984 1.661-0.593 1.778z"></path>
</svg>
