<svg width="91" height="90" viewBox="0 0 91 90" fill="none" xmlns="http://www.w3.org/2000/svg">
<rect x="0.466309" width="3.60001" height="3.60001" fill="#2F0A4D"/>
<rect x="4.06616" width="3.60001" height="3.60001" fill="#2F0A4D"/>
<rect x="7.6665" width="3.60001" height="3.60001" fill="#2F0A4D"/>
<rect x="11.2668" width="3.60001" height="3.60001" fill="#2F0A4D"/>
<rect x="14.8667" width="3.60001" height="3.60001" fill="#2F0A4D"/>
<rect x="18.4666" width="3.60001" height="3.60001" fill="#2F0A4D"/>
<rect x="22.0664" width="3.60001" height="3.60001" fill="#2F0A4D"/>
<rect x="36.4658" width="3.60001" height="3.60001" fill="#2F0A4D"/>
<rect x="47.2664" width="3.60001" height="3.60001" fill="#2F0A4D"/>
<rect x="50.8667" width="3.60001" height="3.60001" fill="#2F0A4D"/>
<rect x="54.467" width="3.60001" height="3.60001" fill="#2F0A4D"/>
<rect x="65.2664" width="3.60001" height="3.60001" fill="#2F0A4D"/>
<rect x="68.8662" width="3.60001" height="3.60001" fill="#2F0A4D"/>
<rect x="72.4666" width="3.60001" height="3.60001" fill="#2F0A4D"/>
<rect x="76.0669" width="3.60001" height="3.60001" fill="#2F0A4D"/>
<rect x="79.6663" width="3.60001" height="3.60001" fill="#2F0A4D"/>
<rect x="83.2666" width="3.60001" height="3.60001" fill="#2F0A4D"/>
<rect x="86.8669" width="3.60001" height="3.60001" fill="#2F0A4D"/>
<rect x="0.466309" y="3.60034" width="3.60001" height="3.60001" fill="#2F0A4D"/>
<rect x="22.0664" y="3.60034" width="3.60001" height="3.60001" fill="#2F0A4D"/>
<rect x="32.8665" y="3.60034" width="3.60001" height="3.60001" fill="#2F0A4D"/>
<rect x="50.8667" y="3.60034" width="3.60001" height="3.60001" fill="#2F0A4D"/>
<rect x="54.467" y="3.60034" width="3.60001" height="3.60001" fill="#2F0A4D"/>
<rect x="58.0662" y="3.60034" width="3.60001" height="3.60001" fill="#2F0A4D"/>
<rect x="65.2664" y="3.60034" width="3.60001" height="3.60001" fill="#2F0A4D"/>
<rect x="86.8669" y="3.60034" width="3.60001" height="3.60001" fill="#2F0A4D"/>
<rect x="0.466309" y="7.19968" width="3.60001" height="3.60001" fill="#2F0A4D"/>
<rect x="7.6665" y="7.19968" width="3.60001" height="3.60001" fill="#2F0A4D"/>
<rect x="11.2668" y="7.19968" width="3.60001" height="3.60001" fill="#2F0A4D"/>
<rect x="14.8667" y="7.19968" width="3.60001" height="3.60001" fill="#2F0A4D"/>
<rect x="22.0664" y="7.19968" width="3.60001" height="3.60001" fill="#2F0A4D"/>
<rect x="29.2666" y="7.19968" width="3.60001" height="3.60001" fill="#2F0A4D"/>
<rect x="40.0667" y="7.19968" width="3.60001" height="3.60001" fill="#2F0A4D"/>
<rect x="54.467" y="7.19968" width="3.60001" height="3.60001" fill="#2F0A4D"/>
<rect x="58.0662" y="7.19968" width="3.60001" height="3.60001" fill="#2F0A4D"/>
<rect x="65.2664" y="7.19968" width="3.60001" height="3.60001" fill="#2F0A4D"/>
<rect x="72.4666" y="7.19968" width="3.60001" height="3.60001" fill="#2F0A4D"/>
<rect x="76.0669" y="7.19968" width="3.60001" height="3.60001" fill="#2F0A4D"/>
<rect x="79.6663" y="7.19968" width="3.60001" height="3.60001" fill="#2F0A4D"/>
<rect x="86.8669" y="7.19968" width="3.60001" height="3.60001" fill="#2F0A4D"/>
<rect x="0.466309" y="10.8" width="3.60001" height="3.60001" fill="#2F0A4D"/>
<rect x="7.6665" y="10.8" width="3.60001" height="3.60001" fill="#2F0A4D"/>
<rect x="11.2668" y="10.8" width="3.60001" height="3.60001" fill="#2F0A4D"/>
<rect x="14.8667" y="10.8" width="3.60001" height="3.60001" fill="#2F0A4D"/>
<rect x="22.0664" y="10.8" width="3.60001" height="3.60001" fill="#2F0A4D"/>
<rect x="32.8665" y="10.8" width="3.60001" height="3.60001" fill="#2F0A4D"/>
<rect x="43.667" y="10.8" width="3.60001" height="3.60001" fill="#2F0A4D"/>
<rect x="50.8667" y="10.8" width="3.60001" height="3.60001" fill="#2F0A4D"/>
<rect x="54.467" y="10.8" width="3.60001" height="3.60001" fill="#2F0A4D"/>
<rect x="65.2664" y="10.8" width="3.60001" height="3.60001" fill="#2F0A4D"/>
<rect x="72.4666" y="10.8" width="3.60001" height="3.60001" fill="#2F0A4D"/>
<rect x="76.0669" y="10.8" width="3.60001" height="3.60001" fill="#2F0A4D"/>
<rect x="79.6663" y="10.8" width="3.60001" height="3.60001" fill="#2F0A4D"/>
<rect x="86.8669" y="10.8" width="3.60001" height="3.60001" fill="#2F0A4D"/>
<rect x="0.466309" y="14.3994" width="3.60001" height="3.60001" fill="#2F0A4D"/>
<rect x="7.6665" y="14.3994" width="3.60001" height="3.60001" fill="#2F0A4D"/>
<rect x="11.2668" y="14.3994" width="3.60001" height="3.60001" fill="#2F0A4D"/>
<rect x="14.8667" y="14.3994" width="3.60001" height="3.60001" fill="#2F0A4D"/>
<rect x="22.0664" y="14.3994" width="3.60001" height="3.60001" fill="#2F0A4D"/>
<rect x="32.8665" y="14.3994" width="3.60001" height="3.60001" fill="#2F0A4D"/>
<rect x="43.667" y="14.3994" width="3.60001" height="3.60001" fill="#2F0A4D"/>
<rect x="47.2664" y="14.3994" width="3.60001" height="3.60001" fill="#2F0A4D"/>
<rect x="50.8667" y="14.3994" width="3.60001" height="3.60001" fill="#2F0A4D"/>
<rect x="54.467" y="14.3994" width="3.60001" height="3.60001" fill="#2F0A4D"/>
<rect x="65.2664" y="14.3994" width="3.60001" height="3.60001" fill="#2F0A4D"/>
<rect x="72.4666" y="14.3994" width="3.60001" height="3.60001" fill="#2F0A4D"/>
<rect x="76.0669" y="14.3994" width="3.60001" height="3.60001" fill="#2F0A4D"/>
<rect x="79.6663" y="14.3994" width="3.60001" height="3.60001" fill="#2F0A4D"/>
<rect x="86.8669" y="14.3994" width="3.60001" height="3.60001" fill="#2F0A4D"/>
<rect x="0.466309" y="18.0007" width="3.60001" height="3.60001" fill="#2F0A4D"/>
<rect x="22.0664" y="18.0007" width="3.60001" height="3.60001" fill="#2F0A4D"/>
<rect x="36.4658" y="18.0007" width="3.60001" height="3.60001" fill="#2F0A4D"/>
<rect x="40.0667" y="18.0007" width="3.60001" height="3.60001" fill="#2F0A4D"/>
<rect x="43.667" y="18.0007" width="3.60001" height="3.60001" fill="#2F0A4D"/>
<rect x="47.2664" y="18.0007" width="3.60001" height="3.60001" fill="#2F0A4D"/>
<rect x="50.8667" y="18.0007" width="3.60001" height="3.60001" fill="#2F0A4D"/>
<rect x="54.467" y="18.0007" width="3.60001" height="3.60001" fill="#2F0A4D"/>
<rect x="65.2664" y="18.0007" width="3.60001" height="3.60001" fill="#2F0A4D"/>
<rect x="86.8669" y="18.0007" width="3.60001" height="3.60001" fill="#2F0A4D"/>
<rect x="0.466309" y="21.6" width="3.60001" height="3.60001" fill="#2F0A4D"/>
<rect x="4.06616" y="21.6" width="3.60001" height="3.60001" fill="#2F0A4D"/>
<rect x="7.6665" y="21.6" width="3.60001" height="3.60001" fill="#2F0A4D"/>
<rect x="11.2668" y="21.6" width="3.60001" height="3.60001" fill="#2F0A4D"/>
<rect x="14.8667" y="21.6" width="3.60001" height="3.60001" fill="#2F0A4D"/>
<rect x="18.4666" y="21.6" width="3.60001" height="3.60001" fill="#2F0A4D"/>
<rect x="22.0664" y="21.6" width="3.60001" height="3.60001" fill="#2F0A4D"/>
<rect x="29.2666" y="21.6" width="3.60001" height="3.60001" fill="#2F0A4D"/>
<rect x="36.4658" y="21.6" width="3.60001" height="3.60001" fill="#2F0A4D"/>
<rect x="43.667" y="21.6" width="3.60001" height="3.60001" fill="#2F0A4D"/>
<rect x="50.8667" y="21.6" width="3.60001" height="3.60001" fill="#2F0A4D"/>
<rect x="58.0662" y="21.6" width="3.60001" height="3.60001" fill="#2F0A4D"/>
<rect x="65.2664" y="21.6" width="3.60001" height="3.60001" fill="#2F0A4D"/>
<rect x="68.8662" y="21.6" width="3.60001" height="3.60001" fill="#2F0A4D"/>
<rect x="72.4666" y="21.6" width="3.60001" height="3.60001" fill="#2F0A4D"/>
<rect x="76.0669" y="21.6" width="3.60001" height="3.60001" fill="#2F0A4D"/>
<rect x="79.6663" y="21.6" width="3.60001" height="3.60001" fill="#2F0A4D"/>
<rect x="83.2666" y="21.6" width="3.60001" height="3.60001" fill="#2F0A4D"/>
<rect x="86.8669" y="21.6" width="3.60001" height="3.60001" fill="#2F0A4D"/>
<rect x="29.2666" y="25.2004" width="3.60001" height="3.60001" fill="#2F0A4D"/>
<rect x="40.0667" y="25.2004" width="3.60001" height="3.60001" fill="#2F0A4D"/>
<rect x="47.2664" y="25.2004" width="3.60001" height="3.60001" fill="#2F0A4D"/>
<rect x="50.8667" y="25.2004" width="3.60001" height="3.60001" fill="#2F0A4D"/>
<rect x="58.0662" y="25.2004" width="3.60001" height="3.60001" fill="#2F0A4D"/>
<rect x="0.466309" y="28.7997" width="3.60001" height="3.60001" fill="#2F0A4D"/>
<rect x="4.06616" y="28.7997" width="3.60001" height="3.60001" fill="#2F0A4D"/>
<rect x="7.6665" y="28.7997" width="3.60001" height="3.60001" fill="#2F0A4D"/>
<rect x="14.8667" y="28.7997" width="3.60001" height="3.60001" fill="#2F0A4D"/>
<rect x="18.4666" y="28.7997" width="3.60001" height="3.60001" fill="#2F0A4D"/>
<rect x="22.0664" y="28.7997" width="3.60001" height="3.60001" fill="#2F0A4D"/>
<rect x="25.6667" y="28.7997" width="3.60001" height="3.60001" fill="#2F0A4D"/>
<rect x="29.2666" y="28.7997" width="3.60001" height="3.60001" fill="#2F0A4D"/>
<rect x="43.667" y="28.7997" width="3.60001" height="3.60001" fill="#2F0A4D"/>
<rect x="47.2664" y="28.7997" width="3.60001" height="3.60001" fill="#2F0A4D"/>
<rect x="50.8667" y="28.7997" width="3.60001" height="3.60001" fill="#2F0A4D"/>
<rect x="54.467" y="28.7997" width="3.60001" height="3.60001" fill="#2F0A4D"/>
<rect x="58.0662" y="28.7997" width="3.60001" height="3.60001" fill="#2F0A4D"/>
<rect x="61.6665" y="28.7997" width="3.60001" height="3.60001" fill="#2F0A4D"/>
<rect x="65.2664" y="28.7997" width="3.60001" height="3.60001" fill="#2F0A4D"/>
<rect x="79.6663" y="28.7997" width="3.60001" height="3.60001" fill="#2F0A4D"/>
<rect x="0.466309" y="32.4001" width="3.60001" height="3.60001" fill="#2F0A4D"/>
<rect x="4.06616" y="32.4001" width="3.60001" height="3.60001" fill="#2F0A4D"/>
<rect x="14.8667" y="32.4001" width="3.60001" height="3.60001" fill="#2F0A4D"/>
<rect x="29.2666" y="32.4001" width="3.60001" height="3.60001" fill="#2F0A4D"/>
<rect x="32.8665" y="32.4001" width="3.60001" height="3.60001" fill="#2F0A4D"/>
<rect x="40.0667" y="32.4001" width="3.60001" height="3.60001" fill="#2F0A4D"/>
<rect x="43.667" y="32.4001" width="3.60001" height="3.60001" fill="#2F0A4D"/>
<rect x="65.2664" y="32.4001" width="3.60001" height="3.60001" fill="#2F0A4D"/>
<rect x="86.8669" y="32.4001" width="3.60001" height="3.60001" fill="#2F0A4D"/>
<rect x="0.466309" y="36.0004" width="3.60001" height="3.60001" fill="#2F0A4D"/>
<rect x="11.2668" y="36.0004" width="3.60001" height="3.60001" fill="#2F0A4D"/>
<rect x="14.8667" y="36.0004" width="3.60001" height="3.60001" fill="#2F0A4D"/>
<rect x="18.4666" y="36.0004" width="3.60001" height="3.60001" fill="#2F0A4D"/>
<rect x="22.0664" y="36.0004" width="3.60001" height="3.60001" fill="#2F0A4D"/>
<rect x="25.6667" y="36.0004" width="3.60001" height="3.60001" fill="#2F0A4D"/>
<rect x="36.4658" y="36.0004" width="3.60001" height="3.60001" fill="#2F0A4D"/>
<rect x="40.0667" y="36.0004" width="3.60001" height="3.60001" fill="#2F0A4D"/>
<rect x="43.667" y="36.0004" width="3.60001" height="3.60001" fill="#2F0A4D"/>
<rect x="47.2664" y="36.0004" width="3.60001" height="3.60001" fill="#2F0A4D"/>
<rect x="58.0662" y="36.0004" width="3.60001" height="3.60001" fill="#2F0A4D"/>
<rect x="65.2664" y="36.0004" width="3.60001" height="3.60001" fill="#2F0A4D"/>
<rect x="72.4666" y="36.0004" width="3.60001" height="3.60001" fill="#2F0A4D"/>
<rect x="79.6663" y="36.0004" width="3.60001" height="3.60001" fill="#2F0A4D"/>
<rect x="83.2666" y="36.0004" width="3.60001" height="3.60001" fill="#2F0A4D"/>
<rect x="86.8669" y="36.0004" width="3.60001" height="3.60001" fill="#2F0A4D"/>
<rect x="0.466309" y="39.5998" width="3.60001" height="3.60001" fill="#2F0A4D"/>
<rect x="7.6665" y="39.5998" width="3.60001" height="3.60001" fill="#2F0A4D"/>
<rect x="11.2668" y="39.5998" width="3.60001" height="3.60001" fill="#2F0A4D"/>
<rect x="18.4666" y="39.5998" width="3.60001" height="3.60001" fill="#2F0A4D"/>
<rect x="29.2666" y="39.5998" width="3.60001" height="3.60001" fill="#2F0A4D"/>
<rect x="32.8665" y="39.5998" width="3.60001" height="3.60001" fill="#2F0A4D"/>
<rect x="36.4658" y="39.5998" width="3.60001" height="3.60001" fill="#2F0A4D"/>
<rect x="43.667" y="39.5998" width="3.60001" height="3.60001" fill="#2F0A4D"/>
<rect x="47.2664" y="39.5998" width="3.60001" height="3.60001" fill="#2F0A4D"/>
<rect x="50.8667" y="39.5998" width="3.60001" height="3.60001" fill="#2F0A4D"/>
<rect x="61.6665" y="39.5998" width="3.60001" height="3.60001" fill="#2F0A4D"/>
<rect x="65.2664" y="39.5998" width="3.60001" height="3.60001" fill="#2F0A4D"/>
<rect x="83.2666" y="39.5998" width="3.60001" height="3.60001" fill="#2F0A4D"/>
<rect x="0.466309" y="43.2001" width="3.60001" height="3.60001" fill="#2F0A4D"/>
<rect x="4.06616" y="43.2001" width="3.60001" height="3.60001" fill="#2F0A4D"/>
<rect x="22.0664" y="43.2001" width="3.60001" height="3.60001" fill="#2F0A4D"/>
<rect x="25.6667" y="43.2001" width="3.60001" height="3.60001" fill="#2F0A4D"/>
<rect x="29.2666" y="43.2001" width="3.60001" height="3.60001" fill="#2F0A4D"/>
<rect x="36.4658" y="43.2001" width="3.60001" height="3.60001" fill="#2F0A4D"/>
<rect x="40.0667" y="43.2001" width="3.60001" height="3.60001" fill="#2F0A4D"/>
<rect x="50.8667" y="43.2001" width="3.60001" height="3.60001" fill="#2F0A4D"/>
<rect x="61.6665" y="43.2001" width="3.60001" height="3.60001" fill="#2F0A4D"/>
<rect x="65.2664" y="43.2001" width="3.60001" height="3.60001" fill="#2F0A4D"/>
<rect x="68.8662" y="43.2001" width="3.60001" height="3.60001" fill="#2F0A4D"/>
<rect x="76.0669" y="43.2001" width="3.60001" height="3.60001" fill="#2F0A4D"/>
<rect x="83.2666" y="43.2001" width="3.60001" height="3.60001" fill="#2F0A4D"/>
<rect x="86.8669" y="43.2001" width="3.60001" height="3.60001" fill="#2F0A4D"/>
<rect x="7.6665" y="46.8004" width="3.60001" height="3.60001" fill="#2F0A4D"/>
<rect x="11.2668" y="46.8004" width="3.60001" height="3.60001" fill="#2F0A4D"/>
<rect x="18.4666" y="46.8004" width="3.60001" height="3.60001" fill="#2F0A4D"/>
<rect x="29.2666" y="46.8004" width="3.60001" height="3.60001" fill="#2F0A4D"/>
<rect x="32.8665" y="46.8004" width="3.60001" height="3.60001" fill="#2F0A4D"/>
<rect x="36.4658" y="46.8004" width="3.60001" height="3.60001" fill="#2F0A4D"/>
<rect x="40.0667" y="46.8004" width="3.60001" height="3.60001" fill="#2F0A4D"/>
<rect x="58.0662" y="46.8004" width="3.60001" height="3.60001" fill="#2F0A4D"/>
<rect x="61.6665" y="46.8004" width="3.60001" height="3.60001" fill="#2F0A4D"/>
<rect x="65.2664" y="46.8004" width="3.60001" height="3.60001" fill="#2F0A4D"/>
<rect x="76.0669" y="46.8004" width="3.60001" height="3.60001" fill="#2F0A4D"/>
<rect x="86.8669" y="46.8004" width="3.60001" height="3.60001" fill="#2F0A4D"/>
<rect x="0.466309" y="50.4008" width="3.60001" height="3.60001" fill="#2F0A4D"/>
<rect x="7.6665" y="50.4008" width="3.60001" height="3.60001" fill="#2F0A4D"/>
<rect x="14.8667" y="50.4008" width="3.60001" height="3.60001" fill="#2F0A4D"/>
<rect x="22.0664" y="50.4008" width="3.60001" height="3.60001" fill="#2F0A4D"/>
<rect x="29.2666" y="50.4008" width="3.60001" height="3.60001" fill="#2F0A4D"/>
<rect x="47.2664" y="50.4008" width="3.60001" height="3.60001" fill="#2F0A4D"/>
<rect x="65.2664" y="50.4008" width="3.60001" height="3.60001" fill="#2F0A4D"/>
<rect x="68.8662" y="50.4008" width="3.60001" height="3.60001" fill="#2F0A4D"/>
<rect x="79.6663" y="50.4008" width="3.60001" height="3.60001" fill="#2F0A4D"/>
<rect x="83.2666" y="50.4008" width="3.60001" height="3.60001" fill="#2F0A4D"/>
<rect x="86.8669" y="50.4008" width="3.60001" height="3.60001" fill="#2F0A4D"/>
<rect x="4.06616" y="54.0001" width="3.60001" height="3.60001" fill="#2F0A4D"/>
<rect x="7.6665" y="54.0001" width="3.60001" height="3.60001" fill="#2F0A4D"/>
<rect x="14.8667" y="54.0001" width="3.60001" height="3.60001" fill="#2F0A4D"/>
<rect x="25.6667" y="54.0001" width="3.60001" height="3.60001" fill="#2F0A4D"/>
<rect x="29.2666" y="54.0001" width="3.60001" height="3.60001" fill="#2F0A4D"/>
<rect x="36.4658" y="54.0001" width="3.60001" height="3.60001" fill="#2F0A4D"/>
<rect x="40.0667" y="54.0001" width="3.60001" height="3.60001" fill="#2F0A4D"/>
<rect x="54.467" y="54.0001" width="3.60001" height="3.60001" fill="#2F0A4D"/>
<rect x="58.0662" y="54.0001" width="3.60001" height="3.60001" fill="#2F0A4D"/>
<rect x="72.4666" y="54.0001" width="3.60001" height="3.60001" fill="#2F0A4D"/>
<rect x="83.2666" y="54.0001" width="3.60001" height="3.60001" fill="#2F0A4D"/>
<rect x="0.466309" y="57.6005" width="3.60001" height="3.60001" fill="#2F0A4D"/>
<rect x="7.6665" y="57.6005" width="3.60001" height="3.60001" fill="#2F0A4D"/>
<rect x="11.2668" y="57.6005" width="3.60001" height="3.60001" fill="#2F0A4D"/>
<rect x="18.4666" y="57.6005" width="3.60001" height="3.60001" fill="#2F0A4D"/>
<rect x="22.0664" y="57.6005" width="3.60001" height="3.60001" fill="#2F0A4D"/>
<rect x="25.6667" y="57.6005" width="3.60001" height="3.60001" fill="#2F0A4D"/>
<rect x="29.2666" y="57.6005" width="3.60001" height="3.60001" fill="#2F0A4D"/>
<rect x="32.8665" y="57.6005" width="3.60001" height="3.60001" fill="#2F0A4D"/>
<rect x="43.667" y="57.6005" width="3.60001" height="3.60001" fill="#2F0A4D"/>
<rect x="58.0662" y="57.6005" width="3.60001" height="3.60001" fill="#2F0A4D"/>
<rect x="61.6665" y="57.6005" width="3.60001" height="3.60001" fill="#2F0A4D"/>
<rect x="65.2664" y="57.6005" width="3.60001" height="3.60001" fill="#2F0A4D"/>
<rect x="68.8662" y="57.6005" width="3.60001" height="3.60001" fill="#2F0A4D"/>
<rect x="72.4666" y="57.6005" width="3.60001" height="3.60001" fill="#2F0A4D"/>
<rect x="76.0669" y="57.6005" width="3.60001" height="3.60001" fill="#2F0A4D"/>
<rect x="29.2666" y="61.1998" width="3.60001" height="3.60001" fill="#2F0A4D"/>
<rect x="40.0667" y="61.1998" width="3.60001" height="3.60001" fill="#2F0A4D"/>
<rect x="43.667" y="61.1998" width="3.60001" height="3.60001" fill="#2F0A4D"/>
<rect x="47.2664" y="61.1998" width="3.60001" height="3.60001" fill="#2F0A4D"/>
<rect x="54.467" y="61.1998" width="3.60001" height="3.60001" fill="#2F0A4D"/>
<rect x="58.0662" y="61.1998" width="3.60001" height="3.60001" fill="#2F0A4D"/>
<rect x="72.4666" y="61.1998" width="3.60001" height="3.60001" fill="#2F0A4D"/>
<rect x="76.0669" y="61.1998" width="3.60001" height="3.60001" fill="#2F0A4D"/>
<rect x="83.2666" y="61.1998" width="3.60001" height="3.60001" fill="#2F0A4D"/>
<rect x="86.8669" y="61.1998" width="3.60001" height="3.60001" fill="#2F0A4D"/>
<rect x="0.466309" y="64.8001" width="3.60001" height="3.60001" fill="#2F0A4D"/>
<rect x="4.06616" y="64.8001" width="3.60001" height="3.60001" fill="#2F0A4D"/>
<rect x="7.6665" y="64.8001" width="3.60001" height="3.60001" fill="#2F0A4D"/>
<rect x="11.2668" y="64.8001" width="3.60001" height="3.60001" fill="#2F0A4D"/>
<rect x="14.8667" y="64.8001" width="3.60001" height="3.60001" fill="#2F0A4D"/>
<rect x="18.4666" y="64.8001" width="3.60001" height="3.60001" fill="#2F0A4D"/>
<rect x="22.0664" y="64.8001" width="3.60001" height="3.60001" fill="#2F0A4D"/>
<rect x="29.2666" y="64.8001" width="3.60001" height="3.60001" fill="#2F0A4D"/>
<rect x="32.8665" y="64.8001" width="3.60001" height="3.60001" fill="#2F0A4D"/>
<rect x="36.4658" y="64.8001" width="3.60001" height="3.60001" fill="#2F0A4D"/>
<rect x="40.0667" y="64.8001" width="3.60001" height="3.60001" fill="#2F0A4D"/>
<rect x="43.667" y="64.8001" width="3.60001" height="3.60001" fill="#2F0A4D"/>
<rect x="50.8667" y="64.8001" width="3.60001" height="3.60001" fill="#2F0A4D"/>
<rect x="54.467" y="64.8001" width="3.60001" height="3.60001" fill="#2F0A4D"/>
<rect x="58.0662" y="64.8001" width="3.60001" height="3.60001" fill="#2F0A4D"/>
<rect x="65.2664" y="64.8001" width="3.60001" height="3.60001" fill="#2F0A4D"/>
<rect x="72.4666" y="64.8001" width="3.60001" height="3.60001" fill="#2F0A4D"/>
<rect x="76.0669" y="64.8001" width="3.60001" height="3.60001" fill="#2F0A4D"/>
<rect x="83.2666" y="64.8001" width="3.60001" height="3.60001" fill="#2F0A4D"/>
<rect x="86.8669" y="64.8001" width="3.60001" height="3.60001" fill="#2F0A4D"/>
<rect x="0.466309" y="68.4005" width="3.60001" height="3.60001" fill="#2F0A4D"/>
<rect x="22.0664" y="68.4005" width="3.60001" height="3.60001" fill="#2F0A4D"/>
<rect x="29.2666" y="68.4005" width="3.60001" height="3.60001" fill="#2F0A4D"/>
<rect x="32.8665" y="68.4005" width="3.60001" height="3.60001" fill="#2F0A4D"/>
<rect x="43.667" y="68.4005" width="3.60001" height="3.60001" fill="#2F0A4D"/>
<rect x="47.2664" y="68.4005" width="3.60001" height="3.60001" fill="#2F0A4D"/>
<rect x="50.8667" y="68.4005" width="3.60001" height="3.60001" fill="#2F0A4D"/>
<rect x="58.0662" y="68.4005" width="3.60001" height="3.60001" fill="#2F0A4D"/>
<rect x="72.4666" y="68.4005" width="3.60001" height="3.60001" fill="#2F0A4D"/>
<rect x="76.0669" y="68.4005" width="3.60001" height="3.60001" fill="#2F0A4D"/>
<rect x="83.2666" y="68.4005" width="3.60001" height="3.60001" fill="#2F0A4D"/>
<rect x="0.466309" y="71.9989" width="3.60001" height="3.60001" fill="#2F0A4D"/>
<rect x="7.6665" y="71.9989" width="3.60001" height="3.60001" fill="#2F0A4D"/>
<rect x="11.2668" y="71.9989" width="3.60001" height="3.60001" fill="#2F0A4D"/>
<rect x="14.8667" y="71.9989" width="3.60001" height="3.60001" fill="#2F0A4D"/>
<rect x="22.0664" y="71.9989" width="3.60001" height="3.60001" fill="#2F0A4D"/>
<rect x="29.2666" y="71.9989" width="3.60001" height="3.60001" fill="#2F0A4D"/>
<rect x="32.8665" y="71.9989" width="3.60001" height="3.60001" fill="#2F0A4D"/>
<rect x="36.4658" y="71.9989" width="3.60001" height="3.60001" fill="#2F0A4D"/>
<rect x="40.0667" y="71.9989" width="3.60001" height="3.60001" fill="#2F0A4D"/>
<rect x="50.8667" y="71.9989" width="3.60001" height="3.60001" fill="#2F0A4D"/>
<rect x="58.0662" y="71.9989" width="3.60001" height="3.60001" fill="#2F0A4D"/>
<rect x="61.6665" y="71.9989" width="3.60001" height="3.60001" fill="#2F0A4D"/>
<rect x="65.2664" y="71.9989" width="3.60001" height="3.60001" fill="#2F0A4D"/>
<rect x="68.8662" y="71.9989" width="3.60001" height="3.60001" fill="#2F0A4D"/>
<rect x="72.4666" y="71.9989" width="3.60001" height="3.60001" fill="#2F0A4D"/>
<rect x="76.0669" y="71.9989" width="3.60001" height="3.60001" fill="#2F0A4D"/>
<rect x="83.2666" y="71.9989" width="3.60001" height="3.60001" fill="#2F0A4D"/>
<rect x="86.8669" y="71.9989" width="3.60001" height="3.60001" fill="#2F0A4D"/>
<rect x="0.466309" y="75.6002" width="3.60001" height="3.60001" fill="#2F0A4D"/>
<rect x="7.6665" y="75.6002" width="3.60001" height="3.60001" fill="#2F0A4D"/>
<rect x="11.2668" y="75.6002" width="3.60001" height="3.60001" fill="#2F0A4D"/>
<rect x="14.8667" y="75.6002" width="3.60001" height="3.60001" fill="#2F0A4D"/>
<rect x="22.0664" y="75.6002" width="3.60001" height="3.60001" fill="#2F0A4D"/>
<rect x="32.8665" y="75.6002" width="3.60001" height="3.60001" fill="#2F0A4D"/>
<rect x="36.4658" y="75.6002" width="3.60001" height="3.60001" fill="#2F0A4D"/>
<rect x="40.0667" y="75.6002" width="3.60001" height="3.60001" fill="#2F0A4D"/>
<rect x="50.8667" y="75.6002" width="3.60001" height="3.60001" fill="#2F0A4D"/>
<rect x="54.467" y="75.6002" width="3.60001" height="3.60001" fill="#2F0A4D"/>
<rect x="68.8662" y="75.6002" width="3.60001" height="3.60001" fill="#2F0A4D"/>
<rect x="72.4666" y="75.6002" width="3.60001" height="3.60001" fill="#2F0A4D"/>
<rect x="76.0669" y="75.6002" width="3.60001" height="3.60001" fill="#2F0A4D"/>
<rect x="79.6663" y="75.6002" width="3.60001" height="3.60001" fill="#2F0A4D"/>
<rect x="0.466309" y="79.2005" width="3.60001" height="3.60001" fill="#2F0A4D"/>
<rect x="7.6665" y="79.2005" width="3.60001" height="3.60001" fill="#2F0A4D"/>
<rect x="11.2668" y="79.2005" width="3.60001" height="3.60001" fill="#2F0A4D"/>
<rect x="14.8667" y="79.2005" width="3.60001" height="3.60001" fill="#2F0A4D"/>
<rect x="22.0664" y="79.2005" width="3.60001" height="3.60001" fill="#2F0A4D"/>
<rect x="29.2666" y="79.2005" width="3.60001" height="3.60001" fill="#2F0A4D"/>
<rect x="32.8665" y="79.2005" width="3.60001" height="3.60001" fill="#2F0A4D"/>
<rect x="36.4658" y="79.2005" width="3.60001" height="3.60001" fill="#2F0A4D"/>
<rect x="47.2664" y="79.2005" width="3.60001" height="3.60001" fill="#2F0A4D"/>
<rect x="54.467" y="79.2005" width="3.60001" height="3.60001" fill="#2F0A4D"/>
<rect x="61.6665" y="79.2005" width="3.60001" height="3.60001" fill="#2F0A4D"/>
<rect x="72.4666" y="79.2005" width="3.60001" height="3.60001" fill="#2F0A4D"/>
<rect x="86.8669" y="79.2005" width="3.60001" height="3.60001" fill="#2F0A4D"/>
<rect x="0.466309" y="82.7999" width="3.60001" height="3.60001" fill="#2F0A4D"/>
<rect x="22.0664" y="82.7999" width="3.60001" height="3.60001" fill="#2F0A4D"/>
<rect x="29.2666" y="82.7999" width="3.60001" height="3.60001" fill="#2F0A4D"/>
<rect x="40.0667" y="82.7999" width="3.60001" height="3.60001" fill="#2F0A4D"/>
<rect x="54.467" y="82.7999" width="3.60001" height="3.60001" fill="#2F0A4D"/>
<rect x="58.0662" y="82.7999" width="3.60001" height="3.60001" fill="#2F0A4D"/>
<rect x="61.6665" y="82.7999" width="3.60001" height="3.60001" fill="#2F0A4D"/>
<rect x="65.2664" y="82.7999" width="3.60001" height="3.60001" fill="#2F0A4D"/>
<rect x="72.4666" y="82.7999" width="3.60001" height="3.60001" fill="#2F0A4D"/>
<rect x="76.0669" y="82.7999" width="3.60001" height="3.60001" fill="#2F0A4D"/>
<rect x="83.2666" y="82.7999" width="3.60001" height="3.60001" fill="#2F0A4D"/>
<rect x="0.466309" y="86.4002" width="3.60001" height="3.60001" fill="#2F0A4D"/>
<rect x="4.06616" y="86.4002" width="3.60001" height="3.60001" fill="#2F0A4D"/>
<rect x="7.6665" y="86.4002" width="3.60001" height="3.60001" fill="#2F0A4D"/>
<rect x="11.2668" y="86.4002" width="3.60001" height="3.60001" fill="#2F0A4D"/>
<rect x="14.8667" y="86.4002" width="3.60001" height="3.60001" fill="#2F0A4D"/>
<rect x="18.4666" y="86.4002" width="3.60001" height="3.60001" fill="#2F0A4D"/>
<rect x="22.0664" y="86.4002" width="3.60001" height="3.60001" fill="#2F0A4D"/>
<rect x="29.2666" y="86.4002" width="3.60001" height="3.60001" fill="#2F0A4D"/>
<rect x="32.8665" y="86.4002" width="3.60001" height="3.60001" fill="#2F0A4D"/>
<rect x="43.667" y="86.4002" width="3.60001" height="3.60001" fill="#2F0A4D"/>
<rect x="54.467" y="86.4002" width="3.60001" height="3.60001" fill="#2F0A4D"/>
<rect x="58.0662" y="86.4002" width="3.60001" height="3.60001" fill="#2F0A4D"/>
<rect x="68.8662" y="86.4002" width="3.60001" height="3.60001" fill="#2F0A4D"/>
<rect x="83.2666" y="86.4002" width="3.60001" height="3.60001" fill="#2F0A4D"/>
<rect x="86.8669" y="86.4002" width="3.60001" height="3.60001" fill="#2F0A4D"/>
</svg>
