<svg width="122" height="36" viewBox="0 0 122 36" fill="none" xmlns="http://www.w3.org/2000/svg">
<path d="M119.476 0.500122H2.99062C1.89123 0.500122 1 1.38479 1 2.47607V33.1033C1 34.1946 1.89123 35.0793 2.99062 35.0793H119.476C120.575 35.0793 121.466 34.1946 121.466 33.1033V2.47607C121.466 1.38479 120.575 0.500122 119.476 0.500122Z" stroke="#2F0A4D" stroke-width="0.5"/>
<path d="M29.2032 16.959C29.1802 14.2237 31.455 12.8904 31.5609 12.8309C30.2715 10.9615 28.273 10.7049 27.5684 10.6866C25.8876 10.5125 24.2621 11.6854 23.4056 11.6854C22.5352 11.6854 21.2182 10.7049 19.7953 10.7324C17.9671 10.7599 16.2587 11.8137 15.3239 13.4448C13.3898 16.7757 14.8312 21.669 16.687 24.3631C17.6125 25.6826 18.6947 27.1533 20.1131 27.1029C21.4991 27.0479 22.0195 26.2232 23.6911 26.2232C25.3489 26.2232 25.837 27.1029 27.2829 27.0708C28.7703 27.0479 29.7097 25.7467 30.6031 24.418C31.676 22.9061 32.1043 21.417 32.1227 21.3437C32.0859 21.3208 29.2308 20.2349 29.2032 16.959ZM26.4725 8.91348C27.2184 7.9834 27.7296 6.72344 27.5868 5.44055C26.5093 5.48634 25.1554 6.18277 24.3818 7.08998C23.6957 7.89177 23.0786 9.20212 23.2398 10.4346C24.4463 10.5217 25.6942 9.82524 26.4725 8.91348Z" fill="#2F0A4D"/>
<path d="M49.2895 26.9059H47.3509L46.2872 23.5888H42.5986L41.5855 26.9059H39.6975L43.3538 15.6074H45.6102L49.2895 26.9059ZM45.9694 22.1959L45.007 19.2453C44.9057 18.9429 44.7123 18.2327 44.436 17.1148H44.4037C44.2932 17.5959 44.109 18.3061 43.8649 19.2453L42.921 22.1959H45.9694ZM58.6747 22.732C58.6747 24.1157 58.2968 25.2107 57.5417 26.0171C56.8645 26.7319 56.0219 27.0892 55.018 27.0892C53.9312 27.0892 53.1532 26.7043 52.679 25.9346V30.2094H50.8599V21.4354C50.8599 20.5649 50.8371 19.6714 50.7909 18.7596H52.3931L52.4948 20.0517H52.5266C53.1348 19.0804 54.0558 18.5901 55.2896 18.5901C56.2567 18.5901 57.0625 18.9704 57.7075 19.731C58.3519 20.4916 58.6747 21.4949 58.6747 22.732ZM56.8232 22.8007C56.8232 22.0081 56.6435 21.3529 56.2845 20.8398C55.8928 20.3037 55.3636 20.0379 54.7003 20.0379C54.2539 20.0379 53.8438 20.1891 53.4799 20.4824C53.1164 20.7802 52.8766 21.1697 52.7664 21.6461C52.7158 21.8248 52.688 22.0126 52.6835 22.1959V23.5567C52.6835 24.1478 52.8677 24.6471 53.2316 25.0595C53.5951 25.4673 54.0697 25.6734 54.6541 25.6734C55.3402 25.6734 55.8744 25.4077 56.2567 24.8854C56.6296 24.3539 56.8232 23.6621 56.8232 22.8007ZM68.0961 22.732C68.0961 24.1157 67.7187 25.2107 66.9631 26.0171C66.2863 26.7319 65.4438 27.0892 64.4399 27.0892C63.3531 27.0892 62.5746 26.7043 62.1004 25.9346V30.2094H60.2813V21.4354C60.2813 20.5649 60.2585 19.6714 60.2123 18.7596H61.815L61.9162 20.0517H61.9485C62.5562 19.0804 63.4772 18.5901 64.7115 18.5901C65.6786 18.5901 66.4844 18.9704 67.1289 19.731C67.7694 20.4916 68.0961 21.4949 68.0961 22.732ZM66.2402 22.8007C66.2402 22.0081 66.0609 21.3529 65.7015 20.8398C65.3102 20.3037 64.7805 20.0379 64.1177 20.0379C63.6708 20.0379 63.2607 20.1891 62.8923 20.4824C62.5289 20.7802 62.2891 21.1697 62.1789 21.6461C62.1233 21.8706 62.0915 22.0539 62.0915 22.1959V23.5567C62.0915 24.1478 62.2757 24.6471 62.6391 25.0595C63.0031 25.4673 63.4772 25.6734 64.067 25.6734C64.7527 25.6734 65.2869 25.4077 65.6692 24.8854C66.0515 24.3539 66.2402 23.6621 66.2402 22.8007ZM78.6276 23.74C78.6276 24.7022 78.2915 25.4856 77.6192 26.0858C76.8824 26.7456 75.8463 27.0755 74.5246 27.0755C73.3042 27.0755 72.3237 26.8418 71.5819 26.3699L72.0009 24.8625C72.7978 25.3344 73.6771 25.5681 74.6304 25.5681C75.3165 25.5681 75.8507 25.4123 76.233 25.1053C76.6153 24.7983 76.8085 24.386 76.8085 23.8729C76.8085 23.4147 76.6476 23.0298 76.3343 22.7137C76.021 22.4021 75.5007 22.1089 74.7689 21.8432C72.7794 21.1055 71.7845 20.0242 71.7845 18.6085C71.7845 17.6829 72.1345 16.9224 72.839 16.3313C73.5391 15.7403 74.4695 15.4425 75.6298 15.4425C76.6615 15.4425 77.5224 15.6212 78.2086 15.9785L77.7528 17.4539C77.1078 17.1057 76.3849 16.9361 75.5697 16.9361C74.9297 16.9361 74.4233 17.0919 74.0639 17.4034C73.76 17.6829 73.6081 18.022 73.6081 18.4252C73.6081 18.8696 73.7833 19.2407 74.1334 19.5294C74.4372 19.7951 74.9848 20.0884 75.7817 20.3999C76.7578 20.7939 77.4762 21.2475 77.937 21.7744C78.3972 22.3013 78.6276 22.9565 78.6276 23.74ZM84.66 20.1204H82.6521V24.0744C82.6521 25.0824 83.0066 25.5818 83.7161 25.5818C84.0428 25.5818 84.3099 25.5543 84.5264 25.4994L84.577 26.8739C84.2181 27.0068 83.7484 27.0755 83.1635 27.0755C82.4451 27.0755 81.8831 26.8555 81.4779 26.4203C81.0728 25.985 80.8702 25.2519 80.8702 24.2257V20.1204H79.6777V18.7642H80.8702V17.2706L82.6571 16.7345V18.7642H84.6644L84.66 20.1204ZM93.6901 22.7686C93.6901 24.0195 93.3311 25.0504 92.6127 25.8522C91.862 26.6814 90.8631 27.0938 89.6149 27.0938C88.4129 27.0938 87.4552 26.6952 86.7412 25.9071C86.0278 25.1145 85.6733 24.1111 85.6733 22.9061C85.6733 21.6416 86.0417 20.6107 86.7785 19.8043C87.5153 18.9979 88.5053 18.5993 89.7529 18.5993C90.9549 18.5993 91.9221 18.9979 92.6495 19.7905C93.3401 20.5557 93.6901 21.5499 93.6901 22.7686ZM91.8025 22.8099C91.8025 22.0631 91.6411 21.4216 91.3139 20.8902C90.9321 20.2441 90.3885 19.9188 89.6795 19.9188C88.9516 19.9188 88.3901 20.2441 88.0123 20.8902C87.6856 21.4262 87.5242 22.0768 87.5242 22.8465C87.5242 23.5934 87.6856 24.2348 88.0123 24.7709C88.404 25.4169 88.9566 25.7422 89.6656 25.7422C90.3611 25.7422 90.9043 25.4123 91.3005 24.7571C91.6366 24.2027 91.8025 23.5567 91.8025 22.8099ZM99.6078 20.3541C99.4186 20.322 99.2255 20.3037 99.0318 20.3037C98.3919 20.3037 97.8994 20.5419 97.5493 21.023C97.2455 21.4491 97.0936 21.9852 97.0936 22.6312V26.9059H95.2744V21.3254C95.2744 20.4686 95.2605 19.6164 95.2238 18.7596H96.8081L96.8721 20.3174H96.9228C97.1164 19.7813 97.4158 19.3507 97.8348 19.0254C98.2121 18.7413 98.6773 18.5901 99.1515 18.5901C99.3223 18.5901 99.4693 18.6039 99.6078 18.6222V20.3541ZM107.745 22.4479C107.749 22.7228 107.726 22.9978 107.68 23.2681H102.219C102.237 24.0744 102.504 24.6884 103.011 25.1145C103.471 25.4948 104.065 25.6826 104.798 25.6826C105.608 25.6826 106.345 25.5543 107.008 25.2978L107.293 26.5531C106.519 26.8876 105.603 27.0571 104.549 27.0571C103.278 27.0571 102.283 26.686 101.556 25.9438C100.833 25.2015 100.469 24.2027 100.469 22.9519C100.469 21.724 100.805 20.7023 101.482 19.8868C102.187 19.0162 103.144 18.581 104.346 18.581C105.525 18.581 106.418 19.0162 107.026 19.8868C107.5 20.5786 107.745 21.4308 107.745 22.4479ZM106.009 21.9806C106.022 21.4446 105.903 20.9818 105.654 20.5877C105.341 20.0838 104.853 19.8318 104.203 19.8318C103.609 19.8318 103.126 20.0792 102.753 20.5694C102.449 20.9589 102.269 21.4308 102.214 21.976L106.009 21.9806Z" fill="#2F0A4D"/>
<path d="M42.0734 11.6169C41.5669 11.6169 41.1295 11.5939 40.7656 11.5527V6.08673C41.2768 6.00882 41.7926 5.96758 42.3083 5.97217C44.3943 5.97217 45.3568 6.99388 45.3568 8.65704C45.3522 10.5768 44.2194 11.6169 42.0734 11.6169ZM42.3819 6.67319C42.1011 6.67319 41.8616 6.69152 41.6636 6.73271V10.8838C41.7695 10.9021 41.9768 10.9067 42.2669 10.9067C43.6345 10.9067 44.4127 10.1324 44.4127 8.68456C44.4081 7.38794 43.7036 6.67319 42.3819 6.67319ZM48.35 11.6581C47.1757 11.6581 46.4113 10.783 46.4113 9.59631C46.4113 8.35922 47.1895 7.47957 48.4145 7.47957C49.5748 7.47957 50.3532 8.31342 50.3532 9.53214C50.3532 10.783 49.5519 11.6581 48.35 11.6581ZM48.3822 8.13016C47.7375 8.13016 47.3231 8.73035 47.3231 9.57339C47.3231 10.3981 47.7467 10.9983 48.373 10.9983C49.0039 10.9983 49.4229 10.3569 49.4229 9.55506C49.4275 8.73954 49.0131 8.13016 48.3822 8.13016ZM57.0578 7.56202L55.8007 11.5664H54.981L54.4607 9.82997C54.3316 9.40385 54.2214 8.97319 54.1385 8.53794H54.1201C54.0556 8.97319 53.931 9.41304 53.7974 9.82997L53.2448 11.5664H52.4162L51.2325 7.56202H52.1535L52.6093 9.46343C52.7155 9.91701 52.8074 10.3431 52.8814 10.7509H52.8997C52.9643 10.4118 53.0745 9.99491 53.2314 9.47262L53.8024 7.56202H54.5297L55.0778 9.43137C55.2114 9.88495 55.3172 10.3294 55.4001 10.7509H55.4229C55.483 10.3385 55.5704 9.90328 55.695 9.43137L56.183 7.56202H57.0578ZM61.6951 11.5664H60.8019V9.26643C60.8019 8.55627 60.5298 8.20346 59.9911 8.20346C59.4619 8.20346 59.0979 8.65704 59.0979 9.18393V11.5664H58.2047V8.70743C58.2047 8.35467 58.1953 7.9744 58.1725 7.56202H58.9599L59.0011 8.18054H59.024C59.2638 7.75448 59.7518 7.47957 60.2999 7.47957C61.1425 7.47957 61.6995 8.12102 61.6995 9.1702L61.6951 11.5664ZM64.1586 11.5664H63.2655V5.72473H64.1586V11.5664ZM67.4236 11.6581C66.2494 11.6581 65.4848 10.783 65.4848 9.59631C65.4848 8.35922 66.2633 7.47957 67.4881 7.47957C68.6484 7.47957 69.4269 8.31342 69.4269 9.53214C69.4269 10.783 68.6211 11.6581 67.4236 11.6581ZM67.4558 8.13016C66.8109 8.13016 66.3968 8.73035 66.3968 9.57339C66.3968 10.3981 66.8203 10.9983 67.4464 10.9983C68.0774 10.9983 68.4965 10.3569 68.4965 9.55506C68.4965 8.73954 68.0869 8.13016 67.4558 8.13016ZM72.954 11.5664L72.8894 11.1037H72.8666C72.595 11.4748 72.1943 11.6535 71.6879 11.6535C70.9645 11.6535 70.4536 11.1495 70.4536 10.476C70.4536 9.48635 71.3146 8.97779 72.8065 8.97779V8.90448C72.8065 8.37754 72.526 8.11183 71.9734 8.11183C71.5772 8.11183 71.2272 8.21265 70.9233 8.40965L70.7436 7.82319C71.117 7.59408 71.5817 7.47498 72.1253 7.47498C73.1749 7.47498 73.7091 8.02479 73.7091 9.12895V10.6043C73.7091 11.0075 73.7275 11.3236 73.7692 11.5618L72.954 11.5664ZM72.8298 9.57339C71.8349 9.57339 71.3379 9.81164 71.3379 10.3798C71.3379 10.8013 71.5956 11.0075 71.9501 11.0075C72.4063 11.0075 72.8298 10.6638 72.8298 10.1919V9.57339ZM78.0425 11.5664L78.0013 10.925H77.978C77.7203 11.4107 77.2873 11.6581 76.6841 11.6581C75.7125 11.6581 74.9941 10.8105 74.9941 9.61464C74.9941 8.36381 75.7403 7.47957 76.7576 7.47957C77.2968 7.47957 77.6786 7.65825 77.8906 8.02479H77.9089V5.72473H78.8021V10.4851C78.8021 10.87 78.8116 11.2365 78.8344 11.5618H78.0425V11.5664ZM77.9134 9.21145C77.9134 8.65245 77.5406 8.1714 76.9696 8.1714C76.3063 8.1714 75.9011 8.75787 75.9011 9.57798C75.9011 10.3844 76.3202 10.9388 76.9512 10.9388C77.5127 10.9388 77.9134 10.4531 77.9134 9.87581V9.21145ZM84.485 11.6581C83.3108 11.6581 82.5462 10.783 82.5462 9.59631C82.5462 8.35922 83.3242 7.47957 84.5495 7.47957C85.7098 7.47957 86.4878 8.31342 86.4878 9.53214C86.4878 10.783 85.687 11.6581 84.485 11.6581ZM84.5172 8.13016C83.8723 8.13016 83.4577 8.73035 83.4577 9.57339C83.4577 10.3981 83.8817 10.9983 84.5078 10.9983C85.1388 10.9983 85.5579 10.3569 85.5579 9.55506C85.5623 8.73954 85.1478 8.13016 84.5172 8.13016ZM91.3003 11.5664H90.4066V9.26643C90.4066 8.55627 90.135 8.20346 89.5963 8.20346C89.0666 8.20346 88.7031 8.65704 88.7031 9.18393V11.5664H87.8095V8.70743C87.8095 8.35467 87.8005 7.9744 87.7772 7.56202H88.5646L88.6063 8.18054H88.6292C88.869 7.75448 89.357 7.47957 89.9046 7.47957C90.7477 7.47957 91.3047 8.12102 91.3047 9.1702V11.5664H91.3003ZM97.3143 8.23093H96.3287V10.1736C96.3287 10.6684 96.499 10.9159 96.849 10.9159C97.0054 10.9159 97.139 10.8975 97.2453 10.8746L97.2681 11.5481C97.0933 11.6123 96.863 11.6489 96.573 11.6489C95.868 11.6489 95.4445 11.2641 95.4445 10.2469V8.22638H94.8551V7.55743H95.4445V6.82435L96.3243 6.55863V7.55743H97.3098L97.3143 8.23093ZM102.053 11.5664H101.159V9.28475C101.159 8.57 100.887 8.20806 100.349 8.20806C99.8836 8.20806 99.4556 8.51962 99.4556 9.15646V11.571H98.5619V5.72473H99.4556V8.13016H99.474C99.755 7.6949 100.165 7.47957 100.685 7.47957C101.537 7.47957 102.057 8.13929 102.057 9.18393L102.053 11.5664ZM106.901 9.77958H104.217C104.235 10.5356 104.737 10.9662 105.484 10.9662C105.879 10.9662 106.248 10.9021 106.57 10.7784L106.708 11.3969C106.326 11.5618 105.879 11.6443 105.359 11.6443C104.102 11.6443 103.356 10.8517 103.356 9.62837C103.356 8.40047 104.12 7.47957 105.258 7.47957C106.284 7.47957 106.929 8.23552 106.929 9.38098C106.938 9.50927 106.929 9.6467 106.901 9.77958ZM106.082 9.14273C106.082 8.52416 105.769 8.08891 105.198 8.08891C104.682 8.08891 104.277 8.53335 104.221 9.14273H106.082Z" fill="#2F0A4D"/>
</svg>
