<svg width="11" height="7" viewBox="0 0 11 7" fill="none" xmlns="http://www.w3.org/2000/svg">
<path d="M5.82346 2.36793L2.16646 6.02493C2.09991 6.09802 2.01936 6.15701 1.9296 6.19841C1.83984 6.23982 1.74268 6.26279 1.64388 6.26597C1.54508 6.26916 1.44664 6.25249 1.3544 6.21695C1.26216 6.18141 1.17798 6.12773 1.10686 6.05908C1.03573 5.99043 0.979101 5.90821 0.94032 5.81728C0.901539 5.72636 0.881393 5.62857 0.881077 5.52972C0.88076 5.43087 0.900279 5.33296 0.938478 5.24179C0.976676 5.15062 1.03278 5.06803 1.10346 4.99893L1.12146 4.98093L5.30046 0.80093C5.43905 0.662372 5.62699 0.584533 5.82296 0.584533C6.01893 0.584533 6.20688 0.662372 6.34546 0.80093L10.5245 4.97993C10.5943 5.04736 10.6501 5.12788 10.6888 5.2169C10.7275 5.30591 10.7482 5.40166 10.7499 5.4987C10.7516 5.59574 10.7341 5.69216 10.6985 5.78245C10.6629 5.87274 10.6099 5.95513 10.5425 6.02493C10.475 6.09473 10.3945 6.15056 10.3055 6.18924C10.2165 6.22792 10.1207 6.24868 10.0237 6.25036C9.92665 6.25203 9.83024 6.23457 9.73995 6.19898C9.64966 6.16339 9.56726 6.11036 9.49746 6.04293L9.47946 6.02493L5.82346 2.36793Z" fill="#9788A4" stroke="#9788A4" stroke-width="0.5"/>
</svg>
