<svg width="12" height="7" viewBox="0 0 12 7" fill="none" xmlns="http://www.w3.org/2000/svg">
<path d="M5.91677 4.24145L9.57377 0.584445C9.64033 0.511358 9.72087 0.452366 9.81064 0.410963C9.9004 0.369559 9.99755 0.346585 10.0964 0.343401C10.1952 0.340216 10.2936 0.356886 10.3858 0.392424C10.4781 0.427961 10.5623 0.481643 10.6334 0.550293C10.7045 0.618943 10.7611 0.701165 10.7999 0.792091C10.8387 0.883018 10.8588 0.980801 10.8592 1.07965C10.8595 1.1785 10.84 1.27641 10.8018 1.36759C10.7636 1.45876 10.7075 1.54134 10.6368 1.61044L10.6188 1.62844L6.43977 5.80845C6.30119 5.947 6.11324 6.02484 5.91727 6.02484C5.7213 6.02484 5.53336 5.947 5.39477 5.80845L1.21577 1.62945C1.14597 1.56201 1.09014 1.48149 1.05146 1.39248C1.01278 1.30347 0.992015 1.20771 0.990344 1.11067C0.988673 1.01364 1.00613 0.91722 1.04172 0.826929C1.07731 0.736639 1.13034 0.654243 1.19777 0.584445C1.2652 0.514648 1.34573 0.458816 1.43474 0.420137C1.52375 0.381458 1.61951 0.36069 1.71654 0.359019C1.81358 0.357347 1.91 0.374805 2.00029 0.410395C2.09058 0.445986 2.17297 0.499012 2.24277 0.566445L2.26077 0.584445L5.91677 4.24145Z" fill="#9788A4" stroke="#9788A4" stroke-width="0.5"/>
</svg>
