<?xml version="1.0" encoding="UTF-8"?>
<svg width="20px" height="20px" viewBox="0 0 20 20" version="1.1" xmlns="http://www.w3.org/2000/svg" xmlns:xlink="http://www.w3.org/1999/xlink">
    <!-- Generator: sketchtool 53.2 (72643) - https://sketchapp.com -->
    <title>229BDB4C-0D0C-4F4D-B251-7C519B2A1FFB</title>
    <desc>Created with sketchtool.</desc>
    <g id="Results" stroke="none" stroke-width="1" fill="none" fill-rule="evenodd">
        <g id="T-Results-Hotel-Room-S-Details" transform="translate(-652.000000, -1848.000000)" fill="#000000" fill-rule="nonzero">
            <g id="Rooms" transform="translate(350.000000, 1114.000000)">
                <g id="Room/One-Price-Details" transform="translate(0.000000, 544.000000)">
                    <g id="Center">
                        <g transform="translate(300.000000, 20.000000)">
                            <g id="Icons" transform="translate(0.000000, 100.000000)">
                                <g id="Icons/Info-Copy-3" transform="translate(0.000000, 68.000000)">
                                    <g id="Icon-Time" transform="translate(2.000000, 2.000000)">
                                        <path d="M9.99,0 C4.47,0 0,4.48 0,10 C0,15.52 4.47,20 9.99,20 C15.52,20 20,15.52 20,10 C20,4.48 15.52,0 9.99,0 Z M10,18 C5.58,18 2,14.42 2,10 C2,5.58 5.58,2 10,2 C14.42,2 18,5.58 18,10 C18,14.42 14.42,18 10,18 Z" id="Shape"></path>
                                        <polygon id="Path" points="10.5 5 9 5 9 11 14.25 14.15 15 12.92 10.5 10.25"></polygon>
                                    </g>
                                </g>
                            </g>
                        </g>
                    </g>
                </g>
            </g>
        </g>
    </g>
</svg>