<svg id="Layer_1" enable-background="new 0 0 512.58 512.58" height="512" viewBox="0 0 512.58 512.58" width="512" xmlns="http://www.w3.org/2000/svg"><path d="m442.42 227.69c-5.85-1.78-11.23 3.88-9.2 9.64l29.16 82.63c3.67 10.412-4.056 21.33-15.09 21.33-6.59 0-12.77-4.1-15.09-10.67-67.91-192.41-48.676-138.037-73.16-207.03h54.8c3.51 0 6.37 2.86 6.37 6.38v9.86c0 3.52-2.86 6.38-6.37 6.38-7.09 0-13.1 4.61-15.2 11-3.212 9.699 3.462 19.974 13.69 20.93 18.632 1.856 39.88-14.675 39.88-38.31v-9.86c0-21.197-17.183-38.38-38.38-38.38h-77.45c-11.03 0-18.77 10.94-15.08 21.35l14.97 42.18h-125.16l-11.19-31.53h15.62c8.61 0 16.02-6.61 16.43-15.21.44-9.19-6.88-16.79-15.98-16.79h-38.72c-11.03 0-18.78 10.94-15.08 21.35l20.23 57.04-108.45 165.34c-6.146 9.302-19.58 9.538-26.11.85-3.98-5.26-4.44-12.66-.6-18.48l55.16-83.609c3.03-4.592-.322-10.753-5.822-10.621-50.869 1.22-96.598 42.47-96.598 98.78 0 54.45 44.3 98.75 98.74 98.75 47.73 0 87.65-34.04 96.78-79.12 64.36 0 60.04.1 62.03-.25 4.06-.74 7.62-3 9.99-6.17.47-.63-5.05 7.7 86.31-130.78l11.26 31.72c-31.07 17.71-51.64 51.77-49.91 90.38 2.3 50.99 43.71 92.16 94.71 94.14 56.22 2.19 102.67-42.92 102.67-98.67 0-45.03-30.08-82.35-70.16-94.55zm-313.95 82.18 20.66-31.32c7.6 8.75 12.96 19.49 15.18 31.32zm68.24 0c-2.88-22.93-13.66-43.44-29.51-58.71l28.63-43.4 36.24 102.11zm62.35-19.62-36.6-103.13h104.64z"/></svg>