<?xml version="1.0" encoding="iso-8859-1"?>
<!-- Generator: Adobe Illustrator 19.0.0, SVG Export Plug-In . SVG Version: 6.00 Build 0)  -->
<svg version="1.1" id="Capa_1" xmlns="http://www.w3.org/2000/svg" xmlns:xlink="http://www.w3.org/1999/xlink" x="0px" y="0px"
	 viewBox="0 0 469.333 469.333" style="enable-background:new 0 0 469.333 469.333;" xml:space="preserve">
<g>
	<g>
		<path d="M365.65,150.714C377.612,130.333,384,107.135,384,83.5c0-22.313-8.688-43.281-24.458-59.042
			C343.75,8.687,322.792,0,300.5,0H168.833c-22.292,0-43.25,8.688-59.042,24.458C94.021,40.219,85.333,61.187,85.333,83.5
			c0,23.564,6.362,46.69,18.371,67.211C69.04,157.151,42.667,187.5,42.667,224v7.469c0,10.719,2.25,21.104,6.688,30.906
			l38.289,84.195C73.624,353.534,64,366.788,64,382.167v20.646c0,25.615,16.104,48.51,42.042,59.74
			c10.229,4.438,21.667,6.781,33.063,6.781h191.125c11.396,0,22.833-2.344,33.063-6.771c25.938-11.24,42.042-34.135,42.042-59.75
			v-20.646c0-17.9-12.967-32.973-30.849-38.474l43.057-78.932c5.979-10.927,9.125-23.292,9.125-35.75V224
			C426.667,187.508,400.303,157.161,365.65,150.714z M185.688,346.719c-9.247,2.154-16.829,4.697-23.06,7.202
			C140.143,306.885,128,254.811,128,202.667c0-6.303,1.893-12.146,5.052-17.105c10.009,34.121,34.128,103.643,57.685,161.348
			C189.128,346.493,187.439,346.327,185.688,346.719z M244.457,341.333h-19.542C211.12,281.883,197.221,208.043,192,170.667h85.333
			C272.113,208.003,258.305,281.824,244.457,341.333z M306.697,353.938c-5.474-2.172-12.056-4.379-19.758-6.339
			c21.197-57.751,41.24-126.901,49.855-161.094c2.814,4.762,4.539,10.241,4.539,16.161
			C341.333,254.803,329.193,306.872,306.697,353.938z"/>
	</g>
</g>
<g>
</g>
<g>
</g>
<g>
</g>
<g>
</g>
<g>
</g>
<g>
</g>
<g>
</g>
<g>
</g>
<g>
</g>
<g>
</g>
<g>
</g>
<g>
</g>
<g>
</g>
<g>
</g>
<g>
</g>
</svg>
