<?xml version="1.0" encoding="iso-8859-1"?>
<!-- Generator: Adobe Illustrator 19.0.0, SVG Export Plug-In . SVG Version: 6.00 Build 0)  -->
<svg version="1.1" id="Capa_1" xmlns="http://www.w3.org/2000/svg" xmlns:xlink="http://www.w3.org/1999/xlink" x="0px" y="0px"
	 viewBox="0 0 512.006 512.006" style="enable-background:new 0 0 512.006 512.006;" xml:space="preserve">
<g>
	<g>
		<path d="M327.44,264.065c-19.808-31.072-31.072-67.072-33.184-104.064h-76.384c-2.144,36.672-13.376,72.832-33.248,104.064
			c-35.392,55.52-57.856,137.216-14.912,200.064l27.936,40.896c2.976,4.352,7.936,6.976,13.216,6.976h90.304
			c5.28,0,10.24-2.624,13.216-6.976l27.904-40.896C385.264,401.281,362.8,319.585,327.44,264.065z"/>
	</g>
</g>
<g>
	<g>
		<path d="M292.912,16.225c-19.008-21.632-54.784-21.632-73.824,0.032c-9.632,10.976-14.08,25.632-12.16,40.192l4.992,38.4
			c2.72,10.88,4.256,21.984,5.248,33.152h77.792c0.992-11.776,2.656-23.552,5.536-35.2l4.608-36.352
			C306.992,41.857,302.576,27.201,292.912,16.225z"/>
	</g>
</g>
<g>
	<g>
		<path d="M448.24,14.209c-16.64-18.912-47.936-18.944-64.576,0c-8.416,9.6-12.32,22.4-10.656,35.168l4.32,33.632
			c1.088,4.288,1.792,8.64,2.56,12.992h72.096c0.832-4.928,1.664-9.888,2.88-14.784l4.032-31.808
			C460.56,36.641,456.688,23.809,448.24,14.209z"/>
	</g>
</g>
<g>
	<g>
		<path d="M128.4,14.209c-16.64-18.912-47.936-18.944-64.576,0c-8.416,9.6-12.32,22.4-10.656,35.168l4.352,33.632
			c1.056,4.288,1.76,8.64,2.528,12.992h72.096c0.832-4.928,1.664-9.888,2.88-14.784l4.032-31.808
			C140.72,36.641,136.848,23.809,128.4,14.209z"/>
	</g>
</g>
<g>
	<g>
		<path d="M162.512,237.921c-1.344-2.24-2.528-4.672-3.904-6.848c-19.456-30.56-29.28-66.528-29.152-103.072H62.864
			c0.128,36.16-9.696,72.352-29.248,103.04C2.672,279.617-17.008,351.105,20.56,406.113l24.448,35.776
			c2.656,3.84,6.976,6.112,11.584,6.112h69.248c-26.208-68.704-3.136-146.368,31.776-201.152
			C159.44,244.001,160.848,240.865,162.512,237.921z"/>
	</g>
</g>
<g>
	<g>
		<path d="M478.448,231.073c-19.488-30.56-29.28-66.528-29.152-103.072h-66.592c0.128,36.16-9.696,72.352-29.216,103.04
			c-1.376,2.176-2.592,4.608-3.936,6.88c1.664,2.976,3.072,6.08,4.896,8.928h0.032c34.88,54.816,57.952,132.448,31.712,201.12
			h69.248c4.64,0,8.96-2.272,11.552-6.112l24.416-35.776C529.008,351.105,509.36,279.617,478.448,231.073z"/>
	</g>
</g>
<g>
</g>
<g>
</g>
<g>
</g>
<g>
</g>
<g>
</g>
<g>
</g>
<g>
</g>
<g>
</g>
<g>
</g>
<g>
</g>
<g>
</g>
<g>
</g>
<g>
</g>
<g>
</g>
<g>
</g>
</svg>
