<svg id="Capa_1" enable-background="new 0 0 512 512" height="512" viewBox="0 0 512 512" width="512" xmlns="http://www.w3.org/2000/svg"><path d="m211 165v60c0 8.27 6.73 15 15 15s15-6.73 15-15v-60c0-24.81 20.19-45 45-45h103.52c-8.99-45.002-55.391-73.614-100.41-84.1-15.02-3.5-27.6-13.41-34.49-27.2l-.2-.41c-2.54-5.08-7.74-8.29-13.42-8.29s-10.88 3.21-13.42 8.29l-.2.41c-6.89 13.79-19.47 23.7-34.49 27.2-45.131 10.512-91.434 39.168-100.41 84.1h73.52c24.81 0 45 20.19 45 45z"/><path d="m181 165c0-8.27-6.73-15-15-15h-75v30h90z"/><path d="m286 150c-8.27 0-15 6.73-15 15v15h120v-29.21z"/><path d="m391 180v30c33.08 0 60 26.92 60 60s-26.92 60-60 60h-11.51c7.82-38.59 11.51-72.55 11.51-105.31v-14.69h-120v15c0 24.81-20.19 45-45 45s-45-20.19-45-45v-15h-90v13.15c0 39.89 4.64 79.8 13.78 118.62 3.98 16.89 7.29 33.79 9.86 50.23h252.26c1.66-10.98 3.66-21.71 5.96-32h18.14c49.63 0 90-40.37 90-90s-40.37-90-90-90z"/><path d="m436 422c-23.079 0-367.018 0-390 0-8.284 0-15 6.716-15 15s6.716 15 15 15h16.509c6.968 34.192 37.272 60 73.491 60h210c36.219 0 66.522-25.808 73.491-60h16.509c8.284 0 15-6.716 15-15s-6.716-15-15-15z"/></svg>