<svg width="201" height="155" viewBox="0 0 201 155" fill="none" xmlns="http://www.w3.org/2000/svg">
<path d="M82.2346 136.764L78.036 139.796L67.2292 147.607L65.6565 148.748L42.8165 150.033C37.7377 137.63 33.0774 103.208 30.5524 81.9977C29.3404 71.6884 28.6335 64.5123 28.6335 64.5123L39.5124 57.4951L54.1283 70.3312L57.8796 73.6376L65.1082 79.9907L82.2346 136.764Z" fill="url(#paint0_linear_906_147446)"/>
<path d="M82.2341 136.764L78.0355 139.796L67.2287 147.607C60.4762 131.075 45.3842 91.9604 44.6628 70.952L57.8791 73.6376L65.1077 79.9907L82.2341 136.764Z" fill="url(#paint1_linear_906_147446)"/>
<path d="M185.945 84.048C175.801 92.8989 83.3449 148.748 83.3449 148.748C83.3449 148.748 81.2672 145.34 78.0352 139.796C69.5658 125.328 53.1031 96.3065 44.7058 75.4136C41.7625 68.1365 39.8147 61.8412 39.5117 57.4951C69.1618 37.5985 150.393 4.96692 150.393 4.96692C150.393 4.96692 152.86 12.1863 156.641 22.3367C164.216 42.6809 177.086 74.8216 185.945 84.048Z" fill="url(#paint2_linear_906_147446)"/>
<path d="M156.641 22.3367C122.028 31.9963 71.1537 60.4984 54.1283 70.3311C50.4346 72.4681 48.3425 73.7243 48.3425 73.7243L44.7066 75.4136L30.5668 81.9977H30.5524C29.3404 71.6884 28.6335 64.5123 28.6335 64.5123L37.5213 58.7801L39.5124 57.4951C69.1626 37.5985 150.394 4.96692 150.394 4.96692C150.394 4.96692 152.861 12.1863 156.641 22.3367Z" fill="url(#paint3_linear_906_147446)"/>
<path d="M44.706 75.4136L30.5668 81.9977H30.5524C29.3404 71.6884 28.6335 64.5124 28.6335 64.5124L37.521 58.7802L44.706 75.4136Z" fill="url(#paint4_linear_906_147446)"/>
<path d="M53.0453 57.7695C53.9687 49.857 41.5031 47.5902 40.6086 56.7588L37.9827 58.477C37.9827 58.477 36.6698 47.5324 47.5628 48.1533C56.2194 48.6442 55.9597 55.5315 55.3538 58.1738C55.2095 58.8091 54.5747 59.1845 53.9398 59.0401C53.3772 58.8957 52.9732 58.3615 53.0453 57.7695Z" fill="url(#paint5_linear_906_147446)"/>
<path d="M74.9335 46.6372C76.7225 38.8836 64.5888 35.245 62.6843 44.2548L59.8853 45.6698C59.8853 45.6698 59.7987 34.653 70.5474 36.4723C79.1031 37.9162 78.0643 44.7457 77.1842 47.3013C76.9678 47.9078 76.2897 48.2254 75.6837 48.0088C75.1355 47.7923 74.8037 47.2003 74.9335 46.6372Z" fill="url(#paint6_linear_906_147446)"/>
<path d="M100.673 34.0755C102.463 26.3219 90.3287 22.6833 88.4243 31.6931L85.6253 33.1081C85.6253 33.1081 85.5387 22.0913 96.2874 23.9106C104.843 25.3545 103.804 32.184 102.924 34.7396C102.708 35.3461 102.03 35.6637 101.424 35.4471C100.875 35.2306 100.544 34.6386 100.673 34.0755Z" fill="url(#paint7_linear_906_147446)"/>
<path d="M124.567 23.333C126.356 15.5794 114.222 11.9409 112.318 20.9506L109.519 22.3656C109.519 22.3656 109.432 11.3489 120.181 13.1681C128.737 14.612 127.698 21.4416 126.818 23.9972C126.602 24.6036 125.923 24.9213 125.317 24.7047C124.769 24.4881 124.437 23.9106 124.567 23.333Z" fill="url(#paint8_linear_906_147446)"/>
<path d="M146.96 13.7457C148.749 5.99208 136.615 2.35351 134.71 11.3633L131.911 12.7783C131.911 12.7783 131.825 1.76152 142.573 3.58081C151.129 5.02468 150.09 11.8542 149.21 14.4099C148.994 15.0163 148.316 15.334 147.71 15.1174C147.147 14.9008 146.815 14.3232 146.96 13.7457Z" fill="url(#paint9_linear_906_147446)"/>
<path opacity="0.25" d="M61.8044 77.0019C70.0141 70.6633 91.6277 61.7257 91.6277 61.7257" stroke="url(#paint10_linear_906_147446)" stroke-width="3" stroke-miterlimit="10" stroke-linecap="round"/>
<path opacity="0.15" d="M80.4876 94.4872L71.0662 99.6851C69.7966 100.393 68.1951 99.9162 67.5026 98.6456L63.1165 90.6754C62.4096 89.4048 62.8857 87.8021 64.1553 87.109L73.5767 81.911C74.8463 81.2035 76.4478 81.68 77.1404 82.9506L81.5264 90.9208C82.2189 92.177 81.7572 93.7797 80.4876 94.4872Z" fill="url(#paint11_linear_906_147446)"/>
<path opacity="0.15" d="M99.6779 83.9036L90.2565 89.1015C88.9869 89.809 87.3854 89.3325 86.6928 88.0619L82.3068 80.0917C81.5998 78.8211 82.0759 77.2184 83.3456 76.5254L92.7669 71.3274C94.0366 70.6199 95.6381 71.0964 96.3306 72.367L100.717 80.3372C101.409 81.6078 100.948 83.1961 99.6779 83.9036Z" fill="url(#paint12_linear_906_147446)"/>
<path opacity="0.15" d="M118.867 73.32L109.445 78.5179C108.176 79.2254 106.574 78.749 105.882 77.4783L101.496 69.5082C100.789 68.2375 101.265 66.6348 102.534 65.9418L111.956 60.7438C113.225 60.0363 114.827 60.5128 115.519 61.7834L119.905 69.7536C120.598 71.0242 120.136 72.6125 118.867 73.32Z" fill="url(#paint13_linear_906_147446)"/>
<path opacity="0.15" d="M138.057 62.7364L128.635 67.9343C127.366 68.6418 125.764 68.1653 125.072 66.8947L120.686 58.9245C119.979 57.6539 120.455 56.0512 121.725 55.3582L131.146 50.1602C132.416 49.4527 134.017 49.9292 134.71 51.1998L139.096 59.17C139.788 60.4406 139.326 62.0433 138.057 62.7364Z" fill="url(#paint14_linear_906_147446)"/>
<path opacity="0.15" d="M157.246 52.1528L147.824 57.3507C146.555 58.0582 144.953 57.5817 144.261 56.3111L139.875 48.3409C139.168 47.0703 139.644 45.4676 140.913 44.7746L150.335 39.5766C151.604 38.8691 153.206 39.3456 153.898 40.6162L158.284 48.5864C158.977 49.857 158.515 51.4597 157.246 52.1528Z" fill="url(#paint15_linear_906_147446)"/>
<path opacity="0.15" d="M90.4292 110.673L81.0078 115.871C79.7382 116.579 78.1367 116.102 77.4442 114.831L73.0581 106.861C72.3512 105.591 72.8273 103.988 74.0969 103.295L83.5183 98.0969C84.7879 97.3894 86.3894 97.8659 87.0819 99.1365L91.468 107.107C92.1605 108.377 91.6988 109.966 90.4292 110.673Z" fill="url(#paint16_linear_906_147446)"/>
<path opacity="0.15" d="M109.618 100.089L100.197 105.287C98.9269 105.995 97.3254 105.518 96.6329 104.248L92.2468 96.2776C91.5399 95.007 92.016 93.4043 93.2856 92.7112L102.707 87.5133C103.977 86.8058 105.578 87.2822 106.271 88.5529L110.657 96.523C111.349 97.7937 110.888 99.3819 109.618 100.089Z" fill="url(#paint17_linear_906_147446)"/>
<path opacity="0.15" d="M128.808 89.5058L119.387 94.7038C118.117 95.3968 116.516 94.9348 115.823 93.6642L111.437 85.694C110.73 84.4234 111.206 82.8207 112.476 82.1276L121.897 76.9297C123.167 76.2222 124.768 76.6987 125.461 77.9693L129.847 85.9395C130.539 87.2101 130.078 88.8128 128.808 89.5058Z" fill="url(#paint18_linear_906_147446)"/>
<path d="M147.997 78.9222L138.576 84.1202C137.306 84.8277 135.704 84.3512 135.012 83.0806L130.626 75.1104C129.919 73.8398 130.395 72.2371 131.665 71.544L141.086 66.3461C142.356 65.6386 143.957 66.1151 144.65 67.3857L149.036 75.3559C149.728 76.6265 149.267 78.2292 147.997 78.9222Z" fill="url(#paint19_linear_906_147446)"/>
<path opacity="0.15" d="M167.187 68.3531L157.766 73.551C156.496 74.2585 154.895 73.782 154.202 72.5114L149.816 64.5412C149.109 63.2706 149.585 61.6679 150.855 60.9749L160.276 55.7769C161.546 55.0694 163.147 55.5459 163.84 56.8165L168.226 64.7867C168.919 66.0429 168.457 67.6456 167.187 68.3531Z" fill="url(#paint20_linear_906_147446)"/>
<path opacity="0.15" d="M99.4027 126.989L89.9813 132.187C88.7117 132.894 87.1102 132.418 86.4176 131.147L82.0316 123.177C81.3246 121.906 81.8007 120.304 83.0704 119.611L92.4917 114.413C93.7614 113.705 95.3629 114.182 96.0554 115.452L100.441 123.422C101.148 124.693 100.672 126.296 99.4027 126.989Z" fill="url(#paint21_linear_906_147446)"/>
<path opacity="0.15" d="M118.607 116.405L109.186 121.603C107.916 122.311 106.315 121.834 105.622 120.564L101.236 112.593C100.529 111.323 101.005 109.72 102.275 109.027L111.696 103.829C112.966 103.136 114.567 103.598 115.26 104.869L119.646 112.839C120.338 114.109 119.877 115.712 118.607 116.405Z" fill="url(#paint22_linear_906_147446)"/>
<path opacity="0.15" d="M137.797 105.836L128.376 111.034C127.106 111.742 125.505 111.265 124.812 109.994L120.426 102.024C119.719 100.754 120.196 99.1509 121.465 98.4579L130.886 93.2599C132.156 92.5524 133.758 93.0289 134.45 94.2995L138.836 102.27C139.529 103.526 139.067 105.129 137.797 105.836Z" fill="url(#paint23_linear_906_147446)"/>
<path opacity="0.15" d="M156.986 95.2525L147.565 100.45C146.295 101.158 144.694 100.681 144.001 99.4108L139.615 91.4406C138.908 90.17 139.384 88.5673 140.654 87.8743L150.075 82.6763C151.345 81.9688 152.946 82.4453 153.639 83.7159L158.025 91.6861C158.717 92.9567 158.256 94.545 156.986 95.2525Z" fill="url(#paint24_linear_906_147446)"/>
<path opacity="0.15" d="M176.177 84.6688L166.755 89.8668C165.486 90.5743 163.884 90.0978 163.192 88.8272L158.791 80.857C158.084 79.5864 158.56 77.9837 159.83 77.2906L169.251 72.0927C170.521 71.3852 172.122 71.8617 172.815 73.1323L177.201 81.1025C177.908 82.3731 177.446 83.9613 176.177 84.6688Z" fill="url(#paint25_linear_906_147446)"/>
<path d="M136.572 75.9334L140.626 77.6805L142.372 70.952" stroke="white" stroke-miterlimit="10" stroke-linecap="round" stroke-linejoin="round"/>
<g opacity="0.25">
<g opacity="0.25">
<path opacity="0.25" d="M151.576 73.1756C152.168 72.7713 152.788 72.3959 153.423 72.0494" stroke="url(#paint26_linear_906_147446)" stroke-linecap="round" stroke-linejoin="round"/>
<path opacity="0.25" d="M157.391 70.3601C174.618 64.6279 203.143 73.7965 200.026 102.14C197.141 128.462 160.406 125.733 147.738 123.986" stroke="url(#paint27_linear_906_147446)" stroke-linecap="round" stroke-linejoin="round" stroke-dasharray="2.99 2.99"/>
<path opacity="0.25" d="M145.603 123.668C144.247 123.451 143.483 123.293 143.483 123.293" stroke="url(#paint28_linear_906_147446)" stroke-linecap="round" stroke-linejoin="round"/>
</g>
</g>
<path d="M128.535 115.135L135.677 118.47L139.342 115.423L139.904 115.654L138.245 119.654L138.707 119.856C139.486 120.203 139.818 121.112 139.5 121.906C139.168 122.686 138.288 123.076 137.495 122.787L137.019 122.599L135.36 126.585L134.797 126.354L134.35 121.618L126.948 118.889L121.812 131.277L120.34 130.671L122.475 117.257L117.657 115.467C117.094 115.265 116.661 114.889 116.387 114.413C115.983 113.691 115.305 113.171 114.569 112.781L113.963 112.463C113.415 112.189 113.184 111.554 113.415 110.991C113.646 110.442 114.266 110.153 114.843 110.341L115.694 110.615C116.416 110.846 117.18 110.976 117.931 110.789C118.45 110.673 119.013 110.716 119.518 110.947L124.178 113.113L132.185 102.111L133.657 102.717L128.535 115.135Z" fill="url(#paint29_linear_906_147446)"/>
<path d="M85.6243 4.96693C85.6243 7.71029 83.4024 9.93386 80.6611 9.93386C77.9199 9.93386 75.698 7.71029 75.698 4.96693C75.698 2.22357 77.9199 0 80.6611 0C83.4024 0 85.6243 2.22357 85.6243 4.96693Z" fill="url(#paint30_linear_906_147446)"/>
<path d="M141.534 150.033C141.534 152.776 139.312 155 136.571 155C133.829 155 131.608 152.776 131.608 150.033C131.608 147.29 133.829 145.066 136.571 145.066C139.312 145.066 141.534 147.29 141.534 150.033Z" fill="url(#paint31_linear_906_147446)"/>
<path d="M181.082 22.9432L182.25 20.2287C182.568 19.4923 182.236 18.6404 181.5 18.3372C180.764 18.0195 179.913 18.3516 179.595 19.088L178.427 21.8025L175.714 20.633C174.979 20.3153 174.127 20.6474 173.81 21.3838C173.493 22.1201 173.824 22.972 174.56 23.2897L177.273 24.4592L176.104 27.1737C175.787 27.9101 176.118 28.762 176.854 29.0796C177.215 29.2384 177.619 29.2384 177.965 29.0941C178.311 28.9641 178.6 28.6898 178.759 28.3288L179.927 25.6143L182.64 26.7839C183 26.9427 183.404 26.9427 183.751 26.7983C184.097 26.6684 184.386 26.394 184.544 26.033C184.862 25.2967 184.53 24.4448 183.794 24.1271L181.082 22.9432Z" fill="url(#paint32_linear_906_147446)"/>
<path d="M7.63945 95.238L8.8081 92.5235C9.12551 91.7872 8.79367 90.9353 8.05785 90.6176C7.32204 90.3 6.4708 90.6321 6.15338 91.3684L4.98473 94.0829L2.28673 92.9134C1.55092 92.5957 0.699676 92.9278 0.382265 93.6642C0.064853 94.4006 0.396692 95.2525 1.13251 95.5701L3.84494 96.7396L2.67628 99.4541C2.35887 100.191 2.69071 101.042 3.42653 101.36C3.78723 101.519 4.1912 101.519 4.53747 101.374C4.88374 101.245 5.17229 100.97 5.331 100.609L6.49965 97.8948L9.21208 99.0643C9.57277 99.2231 9.97675 99.2231 10.323 99.0787C10.6693 98.9488 10.9578 98.6744 11.1165 98.3135C11.434 97.5771 11.1021 96.7252 10.3663 96.4076L7.63945 95.238Z" fill="url(#paint33_linear_906_147446)"/>
<defs>
<linearGradient id="paint0_linear_906_147446" x1="32.4334" y1="-18.2705" x2="69.8154" y2="187.672" gradientUnits="userSpaceOnUse">
<stop offset="6.8e-07" stop-color="#B9A5FF"/>
<stop offset="1" stop-color="#F9F7ED"/>
</linearGradient>
<linearGradient id="paint1_linear_906_147446" x1="52.3571" y1="73.6861" x2="86.7844" y2="180.088" gradientUnits="userSpaceOnUse">
<stop offset="6.8e-07" stop-color="#B9A5FF"/>
<stop offset="1" stop-color="#F9F7ED"/>
</linearGradient>
<linearGradient id="paint2_linear_906_147446" x1="185.431" y1="353.972" x2="99.1127" y2="19.2689" gradientUnits="userSpaceOnUse">
<stop offset="6.8e-07" stop-color="#B9A5FF"/>
<stop offset="1" stop-color="#F9F7ED"/>
</linearGradient>
<linearGradient id="paint3_linear_906_147446" x1="85.7527" y1="10.0862" x2="104.197" y2="108.879" gradientUnits="userSpaceOnUse">
<stop offset="5.4e-07" stop-color="#FF998B"/>
<stop offset="1" stop-color="#FF4B6B"/>
</linearGradient>
<linearGradient id="paint4_linear_906_147446" x1="36.5038" y1="20.1184" x2="36.6882" y2="75.2314" gradientUnits="userSpaceOnUse">
<stop offset="5.4e-07" stop-color="#FF998B"/>
<stop offset="1" stop-color="#FF4B6B"/>
</linearGradient>
<linearGradient id="paint5_linear_906_147446" x1="35.1521" y1="36.4606" x2="53.0865" y2="66.3921" gradientUnits="userSpaceOnUse">
<stop offset="6.8e-07" stop-color="#6D5EB7"/>
<stop offset="1" stop-color="#453777"/>
</linearGradient>
<linearGradient id="paint6_linear_906_147446" x1="59.527" y1="23.4628" x2="74.0149" y2="55.2086" gradientUnits="userSpaceOnUse">
<stop offset="6.8e-07" stop-color="#6D5EB7"/>
<stop offset="1" stop-color="#453777"/>
</linearGradient>
<linearGradient id="paint7_linear_906_147446" x1="85.2625" y1="10.8989" x2="99.7504" y2="42.6447" gradientUnits="userSpaceOnUse">
<stop offset="6.8e-07" stop-color="#6D5EB7"/>
<stop offset="1" stop-color="#453777"/>
</linearGradient>
<linearGradient id="paint8_linear_906_147446" x1="109.162" y1="0.161861" x2="123.65" y2="31.9078" gradientUnits="userSpaceOnUse">
<stop offset="6.8e-07" stop-color="#6D5EB7"/>
<stop offset="1" stop-color="#453777"/>
</linearGradient>
<linearGradient id="paint9_linear_906_147446" x1="131.541" y1="-9.42298" x2="146.029" y2="22.323" gradientUnits="userSpaceOnUse">
<stop offset="6.8e-07" stop-color="#6D5EB7"/>
<stop offset="1" stop-color="#453777"/>
</linearGradient>
<linearGradient id="paint10_linear_906_147446" x1="78.0404" y1="75.9234" x2="75.384" y2="62.7941" gradientUnits="userSpaceOnUse">
<stop offset="6.8e-07" stop-color="#6D5EB7"/>
<stop offset="1" stop-color="#453777"/>
</linearGradient>
<linearGradient id="paint11_linear_906_147446" x1="68.7657" y1="86.7238" x2="130.237" y2="157.187" gradientUnits="userSpaceOnUse">
<stop offset="6.8e-07" stop-color="#6D5EB7"/>
<stop offset="1" stop-color="#453777"/>
</linearGradient>
<linearGradient id="paint12_linear_906_147446" x1="84.909" y1="72.6423" x2="146.38" y2="143.105" gradientUnits="userSpaceOnUse">
<stop offset="6.8e-07" stop-color="#6D5EB7"/>
<stop offset="1" stop-color="#453777"/>
</linearGradient>
<linearGradient id="paint13_linear_906_147446" x1="101.051" y1="58.5608" x2="162.522" y2="129.024" gradientUnits="userSpaceOnUse">
<stop offset="6.8e-07" stop-color="#6D5EB7"/>
<stop offset="1" stop-color="#453777"/>
</linearGradient>
<linearGradient id="paint14_linear_906_147446" x1="117.194" y1="44.4793" x2="178.666" y2="114.943" gradientUnits="userSpaceOnUse">
<stop offset="6.8e-07" stop-color="#6D5EB7"/>
<stop offset="1" stop-color="#453777"/>
</linearGradient>
<linearGradient id="paint15_linear_906_147446" x1="133.336" y1="30.398" x2="194.807" y2="100.861" gradientUnits="userSpaceOnUse">
<stop offset="6.8e-07" stop-color="#6D5EB7"/>
<stop offset="1" stop-color="#453777"/>
</linearGradient>
<linearGradient id="paint16_linear_906_147446" x1="78.7047" y1="102.912" x2="140.176" y2="173.375" gradientUnits="userSpaceOnUse">
<stop offset="6.8e-07" stop-color="#6D5EB7"/>
<stop offset="1" stop-color="#453777"/>
</linearGradient>
<linearGradient id="paint17_linear_906_147446" x1="94.8465" y1="88.8305" x2="156.318" y2="159.294" gradientUnits="userSpaceOnUse">
<stop offset="6.8e-07" stop-color="#6D5EB7"/>
<stop offset="1" stop-color="#453777"/>
</linearGradient>
<linearGradient id="paint18_linear_906_147446" x1="110.99" y1="74.749" x2="172.461" y2="145.212" gradientUnits="userSpaceOnUse">
<stop offset="6.8e-07" stop-color="#6D5EB7"/>
<stop offset="1" stop-color="#453777"/>
</linearGradient>
<linearGradient id="paint19_linear_906_147446" x1="140.539" y1="108.43" x2="139.432" y2="57.1878" gradientUnits="userSpaceOnUse">
<stop offset="5.4e-07" stop-color="#51C991"/>
<stop offset="1" stop-color="#C5FFC3"/>
</linearGradient>
<linearGradient id="paint20_linear_906_147446" x1="143.275" y1="46.5862" x2="204.747" y2="117.049" gradientUnits="userSpaceOnUse">
<stop offset="6.8e-07" stop-color="#6D5EB7"/>
<stop offset="1" stop-color="#453777"/>
</linearGradient>
<linearGradient id="paint21_linear_906_147446" x1="87.6898" y1="119.234" x2="149.161" y2="189.697" gradientUnits="userSpaceOnUse">
<stop offset="6.8e-07" stop-color="#6D5EB7"/>
<stop offset="1" stop-color="#453777"/>
</linearGradient>
<linearGradient id="paint22_linear_906_147446" x1="103.833" y1="105.153" x2="165.304" y2="175.616" gradientUnits="userSpaceOnUse">
<stop offset="6.8e-07" stop-color="#6D5EB7"/>
<stop offset="1" stop-color="#453777"/>
</linearGradient>
<linearGradient id="paint23_linear_906_147446" x1="119.976" y1="91.0714" x2="181.448" y2="161.535" gradientUnits="userSpaceOnUse">
<stop offset="6.8e-07" stop-color="#6D5EB7"/>
<stop offset="1" stop-color="#453777"/>
</linearGradient>
<linearGradient id="paint24_linear_906_147446" x1="136.118" y1="76.9899" x2="197.59" y2="147.453" gradientUnits="userSpaceOnUse">
<stop offset="6.8e-07" stop-color="#6D5EB7"/>
<stop offset="1" stop-color="#453777"/>
</linearGradient>
<linearGradient id="paint25_linear_906_147446" x1="152.262" y1="62.9085" x2="213.733" y2="133.371" gradientUnits="userSpaceOnUse">
<stop offset="6.8e-07" stop-color="#6D5EB7"/>
<stop offset="1" stop-color="#453777"/>
</linearGradient>
<linearGradient id="paint26_linear_906_147446" x1="142.756" y1="72.6097" x2="200.979" y2="72.6097" gradientUnits="userSpaceOnUse">
<stop offset="6.8e-07" stop-color="#6D5EB7"/>
<stop offset="1" stop-color="#453777"/>
</linearGradient>
<linearGradient id="paint27_linear_906_147446" x1="142.756" y1="96.881" x2="200.981" y2="96.881" gradientUnits="userSpaceOnUse">
<stop offset="6.8e-07" stop-color="#6D5EB7"/>
<stop offset="1" stop-color="#453777"/>
</linearGradient>
<linearGradient id="paint28_linear_906_147446" x1="142.757" y1="123.488" x2="200.979" y2="123.488" gradientUnits="userSpaceOnUse">
<stop offset="6.8e-07" stop-color="#6D5EB7"/>
<stop offset="1" stop-color="#453777"/>
</linearGradient>
<linearGradient id="paint29_linear_906_147446" x1="115.665" y1="112.179" x2="141.326" y2="122.431" gradientUnits="userSpaceOnUse">
<stop offset="6.8e-07" stop-color="#6D5EB7"/>
<stop offset="1" stop-color="#453777"/>
</linearGradient>
<linearGradient id="paint30_linear_906_147446" x1="83.9921" y1="29.9678" x2="79.0117" y2="-7.44897" gradientUnits="userSpaceOnUse">
<stop offset="5.4e-07" stop-color="#7BB8EF"/>
<stop offset="1" stop-color="#E3FBFF"/>
</linearGradient>
<linearGradient id="paint31_linear_906_147446" x1="129.698" y1="173.372" x2="138.182" y2="144.621" gradientUnits="userSpaceOnUse">
<stop offset="6.8e-07" stop-color="#B9A5FF"/>
<stop offset="1" stop-color="#FFDBFF"/>
</linearGradient>
<linearGradient id="paint32_linear_906_147446" x1="179.984" y1="34.8781" x2="178.969" y2="20.6852" gradientUnits="userSpaceOnUse">
<stop offset="6.8e-07" stop-color="#B9A5FF"/>
<stop offset="1" stop-color="#FFDBFF"/>
</linearGradient>
<linearGradient id="paint33_linear_906_147446" x1="7.09263" y1="135.163" x2="4.51019" y2="60.3273" gradientUnits="userSpaceOnUse">
<stop offset="5.4e-07" stop-color="#7BB8EF"/>
<stop offset="1" stop-color="#E3FBFF"/>
</linearGradient>
</defs>
</svg>
