<svg width="24" height="25" viewBox="0 0 24 25" fill="none" xmlns="http://www.w3.org/2000/svg">
<path d="M19.4468 5.34692L16.182 4.5935C15.8367 4.49932 15.46 4.68767 15.303 5.033L13.7961 8.54898C13.6706 8.86291 13.7647 9.20823 14.0159 9.42798L15.9308 10.9976C14.8007 13.3835 12.823 15.3926 10.3743 16.5541L8.80469 14.6392C8.58494 14.388 8.23962 14.2939 7.9257 14.4194L4.40971 15.9263C4.06439 16.0832 3.90743 16.4599 3.97021 16.8053L4.72364 20.0701C4.81782 20.4154 5.10035 20.6352 5.47706 20.6352C13.5136 20.6352 20.0433 14.1369 20.0433 6.06896C20.0433 5.72364 19.7921 5.4411 19.4468 5.34692Z" fill="#5F6368"/>
</svg>
