<svg width="17" height="17" viewBox="0 0 17 17" fill="none" xmlns="http://www.w3.org/2000/svg">
<path fill-rule="evenodd" clip-rule="evenodd" d="M13.8434 4.82684L13.85 4.82017L11.3634 2.34017L10.6548 3.04684L12.0653 4.4535C11.4369 4.6935 10.989 5.2935 10.989 6.00684C10.989 6.92684 11.7377 7.6735 12.6602 7.6735C12.9008 7.6735 13.1214 7.62017 13.3286 7.5335V12.3402C13.3286 12.7068 13.0278 13.0068 12.6602 13.0068C12.2925 13.0068 11.9917 12.7068 11.9917 12.3402V9.34017C11.9917 8.60684 11.3901 8.00684 10.6548 8.00684H9.98635V3.34017C9.98635 2.60684 9.38473 2.00684 8.64943 2.00684H4.63868C3.90337 2.00684 3.30176 2.60684 3.30176 3.34017V14.0068H9.98635V9.00684H10.989V12.3402C10.989 13.2602 11.7377 14.0068 12.6602 14.0068C13.5827 14.0068 14.3313 13.2602 14.3313 12.3402V6.00684C14.3313 5.54684 14.1442 5.12684 13.8434 4.82684ZM8.64935 6.67415H4.63859V3.34082H8.64935V6.67415ZM11.9916 6.00749C11.9916 6.37415 12.2924 6.67415 12.66 6.67415C13.0277 6.67415 13.3285 6.37415 13.3285 6.00749C13.3285 5.64082 13.0277 5.34082 12.66 5.34082C12.2924 5.34082 11.9916 5.64082 11.9916 6.00749Z" fill="#5F6368"/>
</svg>
