<svg width="24" height="24" viewBox="0 0 24 24" fill="none" xmlns="http://www.w3.org/2000/svg">
<path d="M21.9997 12.8878C21.9997 12.5079 21.9109 12.1451 21.7505 11.8132C21.734 11.7289 21.7151 11.6446 21.6915 11.5592L19.9542 7.40219L19.9424 7.36479C19.3346 5.61732 18.4697 4 16.2766 4H7.89163C5.6445 4 4.85043 5.65739 4.22927 7.35508L2.41207 11.5222C2.14936 11.9286 2 12.3935 2 12.8878V14.1813C2 14.3813 2.02448 14.5769 2.07104 14.7653C2.02578 14.8792 2 15.0018 2 15.1312V18.9784C2 19.5426 2.47368 20 3.05798 20H5.25347C5.83746 20 6.31114 19.5426 6.31114 18.9784V17.0545H17.814V18.9784C17.814 19.5426 18.2878 20 18.8721 20H20.9419C21.5264 20 22 19.5426 22 18.9784V15.1307C22 15.0019 21.974 14.8786 21.9291 14.7652C21.9754 14.5765 22 14.3811 22 14.1811L21.9997 12.8878ZM5.51859 7.77244C6.21035 5.88805 6.76663 5.31281 7.89163 5.31281H16.2761C17.3929 5.31281 18.0147 5.9544 18.6466 7.76433L19.9143 10.2448C19.5004 10.0968 19.0448 10.0147 18.5663 10.0147H5.43348C5.00256 10.0147 4.59076 10.0816 4.21081 10.2027L5.51859 7.77244ZM6.60762 14.6725H4.29115C3.87407 14.6725 3.53582 14.3456 3.53582 13.943C3.53582 13.5402 3.87407 13.2135 4.29115 13.2135H6.60762C7.02488 13.2135 7.36313 13.5402 7.36313 13.943C7.36313 14.3456 7.02465 14.6725 6.60762 14.6725ZM14.7907 14.5264H9.40247C9.13829 14.5264 8.92424 14.3196 8.92424 14.0647C8.92424 13.8093 9.13829 13.6025 9.40247 13.6025H14.7907C15.0552 13.6025 15.2692 13.8093 15.2692 14.0647C15.2692 14.3196 15.0552 14.5264 14.7907 14.5264ZM19.6502 14.6725H17.3338C16.9164 14.6725 16.5783 14.3456 16.5783 13.943C16.5783 13.5402 16.9166 13.2135 17.3338 13.2135H19.6502C20.0676 13.2135 20.406 13.5402 20.406 13.943C20.406 14.3456 20.0676 14.6725 19.6502 14.6725Z" fill="#6CBF10"/>
</svg>
