<?xml version="1.0" encoding="UTF-8"?>
<svg width="24px" height="24px" viewBox="0 0 24 24" version="1.1" xmlns="http://www.w3.org/2000/svg" xmlns:xlink="http://www.w3.org/1999/xlink">
    <title>B0E96B5F-7883-4917-9660-DF79426C698F</title>
    <g id="Hotel-Room-Compare" stroke="none" stroke-width="1" fill="none" fill-rule="evenodd">
        <g id="T-Hotel-Room-New" transform="translate(-370.000000, -4274.000000)">
            <g id="Content-About" transform="translate(350.000000, 2834.000000)">
                <g id="Additional" transform="translate(0.000000, 1004.000000)">
                    <g id="Cancel" transform="translate(20.000000, 342.000000)">
                        <g id="Icons-Card" transform="translate(0.000000, 94.000000)">
                            <polygon id="Path" points="0 0 24 0 24 24 0 24"></polygon>
                            <path d="M20,4 L4,4 C2.89,4 2.01,4.89 2.01,6 L2,18 C2,19.11 2.89,20 4,20 L20,20 C21.11,20 22,19.11 22,18 L22,6 C22,4.89 21.11,4 20,4 Z M20,18 L4,18 L4,12 L20,12 L20,18 Z M20,8 L4,8 L4,6 L20,6 L20,8 Z" id="Shape" fill="#4A4A4A" fill-rule="nonzero"></path>
                        </g>
                    </g>
                </g>
            </g>
        </g>
    </g>
</svg>