<?xml version="1.0" encoding="UTF-8"?>
<svg width="14px" height="22px" viewBox="0 0 14 22" version="1.1" xmlns="http://www.w3.org/2000/svg" xmlns:xlink="http://www.w3.org/1999/xlink">
    <!-- Generator: sketchtool 53.2 (72643) - https://sketchapp.com -->
    <title>76423CFC-3E03-4609-BF42-D01DDABB9839</title>
    <desc>Created with sketchtool.</desc>
    <g id="Results" stroke="none" stroke-width="1" fill="none" fill-rule="evenodd">
        <g id="T-Results-Car" transform="translate(-655.000000, -523.000000)">
            <g id="Content" transform="translate(350.000000, 254.000000)">
                <g id="Car/Normal" transform="translate(0.000000, 46.000000)">
                    <g id="Icons">
                        <g transform="translate(300.000000, 188.000000)">
                            <g id="Icons/Hotel/Face-Copy" transform="translate(0.000000, 34.000000)">
                                <g id="Icons/Case">
                                    <polygon id="Case" points="0 0 24 0 24 24 0 24"></polygon>
                                    <path  d="M7,21 C5.8954305,21 5,20.1045695 5,19 L5,7 C5,5.8954305 5.8954305,5 7,5 L8,5 L8,3 C8,1.8954305 8.8954305,1 10,1 L14,1 C15.1045695,1 16,1.8954305 16,3 L16,5 L17,5 C18.1045695,5 19,5.8954305 19,7 L19,19 C19,20.1045695 18.1045695,21 17,21 L17,23 L15,23 L15,21 L9,21 L9,23 L7,23 L7,21 Z M10,3 L10,5 L14,5 L14,3 L10,3 Z" id="Combined-Shape" fill="black" fill-rule="nonzero"></path>
                                </g>
                            </g>
                        </g>
                    </g>
                </g>
            </g>
        </g>
    </g>
</svg>