<svg width="20" height="20" viewBox="0 0 20 20" fill="none" xmlns="http://www.w3.org/2000/svg">
<path d="M5.5 2C5.63261 2 5.75979 2.05268 5.85355 2.14645C5.94732 2.24021 6 2.36739 6 2.5V3H14V2.5C14 2.36739 14.0527 2.24021 14.1464 2.14645C14.2402 2.05268 14.3674 2 14.5 2C14.6326 2 14.7598 2.05268 14.8536 2.14645C14.9473 2.24021 15 2.36739 15 2.5V3H16C16.5304 3 17.0391 3.21071 17.4142 3.58579C17.7893 3.96086 18 4.46957 18 5V16C18 16.5304 17.7893 17.0391 17.4142 17.4142C17.0391 17.7893 16.5304 18 16 18H4C3.46957 18 2.96086 17.7893 2.58579 17.4142C2.21071 17.0391 2 16.5304 2 16V5C2 4.46957 2.21071 3.96086 2.58579 3.58579C2.96086 3.21071 3.46957 3 4 3H5V2.5C5 2.36739 5.05268 2.24021 5.14645 2.14645C5.24021 2.05268 5.36739 2 5.5 2V2ZM3 6V16C3 16.2652 3.10536 16.5196 3.29289 16.7071C3.48043 16.8946 3.73478 17 4 17H16C16.2652 17 16.5196 16.8946 16.7071 16.7071C16.8946 16.5196 17 16.2652 17 16V6H3Z" fill="#5F6368"/>
<g clip-path="url(#clip0_654_117697)">
<path d="M12.3333 9.13699L11.8633 8.66699L9.99996 10.5303L8.13663 8.66699L7.66663 9.13699L9.52996 11.0003L7.66663 12.8637L8.13663 13.3337L9.99996 11.4703L11.8633 13.3337L12.3333 12.8637L10.47 11.0003L12.3333 9.13699Z" fill="#5F6368"/>
</g>
<defs>
<clipPath id="clip0_654_117697">
<rect width="8" height="8" fill="white" transform="translate(6 7)"/>
</clipPath>
</defs>
</svg>
