<svg width="20" height="20" viewBox="0 0 20 20" fill="none" xmlns="http://www.w3.org/2000/svg">
<path d="M12.854 9.14592C12.9006 9.19236 12.9375 9.24754 12.9627 9.30828C12.9879 9.36903 13.0009 9.43415 13.0009 9.49992C13.0009 9.56568 12.9879 9.63081 12.9627 9.69155C12.9375 9.7523 12.9006 9.80747 12.854 9.85392L9.85402 12.8539C9.80758 12.9005 9.7524 12.9374 9.69166 12.9626C9.63091 12.9878 9.56579 13.0008 9.50002 13.0008C9.43425 13.0008 9.36913 12.9878 9.30839 12.9626C9.24764 12.9374 9.19247 12.9005 9.14602 12.8539L7.64602 11.3539C7.59953 11.3074 7.56266 11.2522 7.5375 11.1915C7.51234 11.1308 7.49939 11.0657 7.49939 10.9999C7.49939 10.9342 7.51234 10.8691 7.5375 10.8083C7.56266 10.7476 7.59953 10.6924 7.64602 10.6459C7.73991 10.552 7.86725 10.4993 8.00002 10.4993C8.06577 10.4993 8.13087 10.5122 8.19161 10.5374C8.25234 10.5626 8.30753 10.5994 8.35402 10.6459L9.50002 11.7929L12.146 9.14592C12.1925 9.09935 12.2476 9.06241 12.3084 9.0372C12.3691 9.012 12.4343 8.99902 12.5 8.99902C12.5658 8.99902 12.6309 9.012 12.6917 9.0372C12.7524 9.06241 12.8076 9.09935 12.854 9.14592Z" fill="#5F6368"/>
<path d="M5.5 2C5.63261 2 5.75979 2.05268 5.85355 2.14645C5.94732 2.24021 6 2.36739 6 2.5V3H14V2.5C14 2.36739 14.0527 2.24021 14.1464 2.14645C14.2402 2.05268 14.3674 2 14.5 2C14.6326 2 14.7598 2.05268 14.8536 2.14645C14.9473 2.24021 15 2.36739 15 2.5V3H16C16.5304 3 17.0391 3.21071 17.4142 3.58579C17.7893 3.96086 18 4.46957 18 5V16C18 16.5304 17.7893 17.0391 17.4142 17.4142C17.0391 17.7893 16.5304 18 16 18H4C3.46957 18 2.96086 17.7893 2.58579 17.4142C2.21071 17.0391 2 16.5304 2 16V5C2 4.46957 2.21071 3.96086 2.58579 3.58579C2.96086 3.21071 3.46957 3 4 3H5V2.5C5 2.36739 5.05268 2.24021 5.14645 2.14645C5.24021 2.05268 5.36739 2 5.5 2V2ZM3 6V16C3 16.2652 3.10536 16.5196 3.29289 16.7071C3.48043 16.8946 3.73478 17 4 17H16C16.2652 17 16.5196 16.8946 16.7071 16.7071C16.8946 16.5196 17 16.2652 17 16V6H3Z" fill="#5F6368"/>
</svg>
