<svg width="24" height="25" viewBox="0 0 24 25" fill="none" xmlns="http://www.w3.org/2000/svg">
<path d="M12.2371 4.50782C16.457 4.50782 19.9238 7.6142 20.5096 11.6489H22.9961L18.8121 16.4097L14.628 11.6489H17.4014C17.134 10.4839 16.4777 9.44349 15.5397 8.6977C14.6017 7.95192 13.4375 7.54479 12.2371 7.54279C10.5037 7.54279 8.97358 8.38782 8.00528 9.66131L5.96107 7.34045C6.7435 6.44967 7.70843 5.73599 8.79096 5.2474C9.8735 4.75881 11.0486 4.50663 12.2371 4.50782ZM11.759 20.5039C7.55101 20.5039 4.07228 17.3975 3.48652 13.3628H2.24326H1L5.18404 8.60205C6.5827 10.185 7.96941 11.7798 9.36808 13.3628H6.59466C6.8621 14.5279 7.51839 15.5682 8.45637 16.314C9.39434 17.0598 10.5586 17.4669 11.759 17.4689C13.4923 17.4689 15.0225 16.6239 15.9908 15.3504L18.035 17.6713C17.2533 18.5629 16.2886 19.2772 15.2059 19.7659C14.1232 20.2546 12.9477 20.5062 11.759 20.5039Z" fill="#FF6666"/>
</svg>
