<svg width="24" height="24" viewBox="0 0 24 24" fill="none" xmlns="http://www.w3.org/2000/svg">
<path fill-rule="evenodd" clip-rule="evenodd" d="M18.5 5C19.16 5 19.72 5.42 19.92 6.01L21.3055 10H24C24 11.1046 23.1046 12 22 12V20C22 20.55 21.55 21 21 21H20C19.45 21 19 20.55 19 20V19H5V20C5 20.55 4.55 21 4 21H3C2.45 21 2 20.55 2 20V12C0.895431 12 0 11.1046 0 10H2.69449L4.08 6.01C4.29 5.42 4.84 5 5.5 5H8H16H18.5ZM4 11L5.5 6.5H18.5L20 11H4ZM3 14V17H8C8 15.3431 6.65685 14 5 14H3ZM19 14C17.3431 14 16 15.3431 16 17H21V14H19Z" fill="#6CBF10"/>
</svg>
