<svg width="24" height="24" viewBox="0 0 24 24" fill="none" xmlns="http://www.w3.org/2000/svg">
<path fill-rule="evenodd" clip-rule="evenodd" d="M12 2C8 2 4 2.52632 4 6.21053V16.2105C4 18.2421 5.57 19.8947 7.5 19.8947L6 21.4737V22H8.23L10.23 19.8947H14L16 22H18V21.4737L16.5 19.8947C18.43 19.8947 20 18.2421 20 16.2105V6.21053C20 2.52632 16.42 2 12 2ZM7.5 17.7895C6.67 17.7895 6 17.0842 6 16.2105C6 15.3368 6.67 14.6316 7.5 14.6316C8.33 14.6316 9 15.3368 9 16.2105C9 17.0842 8.33 17.7895 7.5 17.7895ZM6 10.4211H11V6.21053H6V10.4211ZM13 10.4211V6.21053H18V10.4211H13ZM15 16.2105C15 17.0842 15.67 17.7895 16.5 17.7895C17.33 17.7895 18 17.0842 18 16.2105C18 15.3368 17.33 14.6316 16.5 14.6316C15.67 14.6316 15 15.3368 15 16.2105Z" fill="#e09629"/>
</svg>
