<svg id="Capa_1" enable-background="new 0 0 512 512" height="512" viewBox="0 0 512 512" width="512" xmlns="http://www.w3.org/2000/svg"><g><path d="m233.346 512 35.654-36.213v-42.426l81.017-80.462c52.722-52.72 52.722-138.197 0-190.919-52.72-52.72-138.197-52.72-190.919 0l-80.46 81.02h-42.427l-36.211 35.654 106.066 106.066-23.361 23.36c-16.697-7.879-37.099-5.327-50.885 8.459-17.547 17.547-17.547 46.093 0 63.64s46.093 17.547 63.64 0c13.786-13.788 16.339-34.188 8.459-50.887l23.361-23.361z"/><path d="m435.148 13.305c-1.891 2.109-47.64 54.265-92.04 105.016 9.963 6.343 19.433 13.759 28.123 22.447 8.679 8.681 16.088 18.14 22.425 28.09l105.184-91.986c17.547-17.547 17.547-46.093 0-63.64-17.536-17.536-45.844-17.774-63.692.073z"/></g></svg>