<svg width="15" height="14" viewBox="0 0 15 14" fill="none" xmlns="http://www.w3.org/2000/svg">
<path d="M14.0362 6.00684H11.2487L13.4145 3.84684L12.472 2.90017L9.35696 6.00684H8.02004V4.6735L11.1351 1.56684L10.1858 0.626836L8.02004 2.78684V0.00683594H6.68312V2.78684L4.51731 0.626836L3.5681 1.56684L6.68312 4.6735V6.00684H5.3462L2.23119 2.90017L1.28866 3.84684L3.45446 6.00684H0.666992V7.34017H3.45446L1.28866 9.50017L2.23119 10.4468L5.3462 7.34017H6.68312V8.6735L3.5681 11.7802L4.51731 12.7202L6.68312 10.5602V13.3402H8.02004V10.5602L10.1858 12.7202L11.1351 11.7802L8.02004 8.6735V7.34017H9.35696L12.472 10.4468L13.4145 9.50017L11.2487 7.34017H14.0362V6.00684Z" fill="#5F6368"/>
</svg>
