<svg width="25" height="24" viewBox="0 0 25 24" xmlns="http://www.w3.org/2000/svg">
<path d="M21.4998 12.8878C21.4998 12.5079 21.4198 12.1451 21.2755 11.8132C21.2606 11.7289 21.2436 11.6446 21.2223 11.5592L19.6588 7.40219L19.6482 7.36479C19.1011 5.61732 18.3227 4 16.349 4H8.80247C6.78005 4 6.06539 5.65739 5.50634 7.35508L3.87086 11.5222C3.63442 11.9286 3.5 12.3935 3.5 12.8878V14.1813C3.5 14.3813 3.52204 14.5769 3.56393 14.7653C3.5232 14.8792 3.5 15.0018 3.5 15.1312V18.9784C3.5 19.5426 3.92631 20 4.45218 20H6.42812C6.95371 20 7.38003 19.5426 7.38003 18.9784V17.0545H17.7326V18.9784C17.7326 19.5426 18.159 20 18.6849 20H20.5477C21.0738 20 21.5 19.5426 21.5 18.9784V15.1307C21.5 15.0019 21.4766 14.8786 21.4361 14.7652C21.4779 14.5765 21.5 14.3811 21.5 14.1811V12.8878H21.4998V12.8878ZM6.66673 7.77244C7.28931 5.88805 7.78997 5.31281 8.80247 5.31281H16.3485C17.3536 5.31281 17.9132 5.9544 18.4819 7.76433L19.6229 10.2448C19.2503 10.0968 18.8404 10.0147 18.4096 10.0147H6.59013C6.2023 10.0147 5.83168 10.0816 5.48973 10.2027L6.66673 7.77244ZM7.64686 14.6725H5.56203C5.18667 14.6725 4.88223 14.3456 4.88223 13.943C4.88223 13.5402 5.18667 13.2135 5.56203 13.2135H7.64686C8.02239 13.2135 8.32682 13.5402 8.32682 13.943C8.32682 14.3456 8.02219 14.6725 7.64686 14.6725ZM15.0116 14.5264H10.1622C9.92446 14.5264 9.73181 14.3196 9.73181 14.0647C9.73181 13.8093 9.92446 13.6025 10.1622 13.6025H15.0116C15.2497 13.6025 15.4423 13.8093 15.4423 14.0647C15.4423 14.3196 15.2497 14.5264 15.0116 14.5264ZM19.3852 14.6725H17.3004C16.9247 14.6725 16.6205 14.3456 16.6205 13.943C16.6205 13.5402 16.925 13.2135 17.3004 13.2135H19.3852C19.7609 13.2135 20.0654 13.5402 20.0654 13.943C20.0654 14.3456 19.7609 14.6725 19.3852 14.6725Z" fill="#5F6368"/>
</svg>
