<svg width="25" height="24" viewBox="0 0 25 24" xmlns="http://www.w3.org/2000/svg">
<path d="M12.74 3.93604C16.976 3.93604 20.456 7.06804 21.044 11.136H23.54L19.34 15.936L15.14 11.136H17.924C17.6555 9.96136 16.9967 8.91242 16.0552 8.16048C15.1136 7.40855 13.9449 6.99805 12.74 6.99604C11 6.99604 9.46396 7.84804 8.49196 9.13204L6.43996 6.79204C7.22538 5.89391 8.19398 5.17434 9.28064 4.68172C10.3673 4.1891 11.5468 3.93484 12.74 3.93604ZM12.26 20.064C8.03596 20.064 4.54396 16.932 3.95596 12.864H1.45996L5.65996 8.06404C7.06396 9.66004 8.45596 11.268 9.85996 12.864H7.07596C7.34442 14.0387 8.00322 15.0877 8.94477 15.8396C9.88633 16.5915 11.055 17.002 12.26 17.004C14 17.004 15.536 16.152 16.508 14.868L18.56 17.208C17.7753 18.1071 16.8069 18.8273 15.72 19.32C14.6332 19.8127 13.4533 20.0664 12.26 20.064Z" fill="#5F6368"/>
</svg>
