<svg width="8" height="7" viewBox="0 0 8 7" fill="none" xmlns="http://www.w3.org/2000/svg">
<path d="M7.41271 0.880911C7.5963 0.697319 7.5963 0.399656 7.41271 0.216064C7.22912 0.032471 6.93146 0.032471 6.74786 0.216064L4.25958 2.70435L1.77129 0.216064C1.5877 0.032471 1.29004 0.032471 1.10644 0.216064C0.922852 0.399656 0.922852 0.697319 1.10644 0.880911L3.59473 3.3692L1.10644 5.85748C0.922852 6.04108 0.922852 6.33874 1.10644 6.52233C1.29004 6.70592 1.5877 6.70592 1.77129 6.52233L4.25958 4.03405L6.74786 6.52233C6.93146 6.70592 7.22912 6.70592 7.41271 6.52233C7.5963 6.33874 7.5963 6.04108 7.41271 5.85748L4.92443 3.3692L7.41271 0.880911Z" fill="#E7E7E7"/>
</svg>
