<svg width="65" height="63" viewBox="0 0 65 63" fill="none" xmlns="http://www.w3.org/2000/svg">
<path d="M55.9611 53.3735C54.7022 54.6973 53.5113 55.5511 52.5702 56.2256C41.5081 64.1545 28.4187 61.8434 25.6369 61.2788C21.5289 60.4452 13.5884 58.8343 7.84762 52.09C-0.837885 41.8866 0.514592 25.8114 7.25158 15.2C8.48393 13.2589 14.9933 2.4859 28.2235 0.75813C36.2304 -0.287356 45.5639 1.82144 52.3229 7.47813C66.5107 19.3526 65.5005 43.3408 55.9611 53.3735Z" fill="#EEF4FB"/>
<path d="M35.8938 61.2698H30.3672L32.8495 0.582031L33.1927 0.624546L35.8938 61.2698Z" fill="#7A65E1"/>
<path d="M46.0337 53.4951H20.1504V56.0867H46.0337V53.4951Z" fill="#7A65E1"/>
<path d="M48.4324 56.0859H17.9521V58.6775H48.4324V56.0859Z" fill="#7A65E1"/>
<path d="M50.6312 58.6787H15.5537V61.2703H50.6312V58.6787Z" fill="#7A65E1"/>
<path d="M54.632 14.0039H13.6318V15.0313H54.632V14.0039Z" fill="#7A65E1"/>
<path d="M1.79539 30.9066L1.48535 30.6744L14.3315 13.5498L24.0283 30.6952L23.691 30.8856L14.2859 14.2561L1.79539 30.9066Z" fill="#7A65E1"/>
<path d="M14.3092 15.6928C15.0625 15.6928 15.6731 15.0828 15.6731 14.3303C15.6731 13.5778 15.0625 12.9678 14.3092 12.9678C13.556 12.9678 12.9453 13.5778 12.9453 14.3303C12.9453 15.0828 13.556 15.6928 14.3092 15.6928Z" fill="#7A65E1"/>
<path d="M41.5688 31.2699L41.2588 31.0377L54.1049 13.9131L63.8017 31.0587L63.4645 31.2489L54.0594 14.6194L41.5688 31.2699Z" fill="#7A65E1"/>
<path d="M33.0674 19.0778C35.2463 19.0778 37.0127 17.3133 37.0127 15.1366C37.0127 12.9599 35.2463 11.1953 33.0674 11.1953C30.8884 11.1953 29.1221 12.9599 29.1221 15.1366C29.1221 17.3133 30.8884 19.0778 33.0674 19.0778Z" fill="#7A65E1"/>
<path d="M53.7516 15.7719C54.5049 15.7719 55.1155 15.1619 55.1155 14.4094C55.1155 13.6569 54.5049 13.0469 53.7516 13.0469C52.9983 13.0469 52.3877 13.6569 52.3877 14.4094C52.3877 15.1619 52.9983 15.7719 53.7516 15.7719Z" fill="#7A65E1"/>
<path d="M52.5238 42.2526C58.6595 42.2526 63.6335 37.2837 63.6335 31.1543H41.4141C41.4141 37.2837 46.3881 42.2526 52.5238 42.2526Z" fill="#7A65E1"/>
<path d="M64.2574 31.7018H40.516C40.3826 31.7018 40.2734 31.5927 40.2734 31.4595V30.254C40.2734 30.1207 40.3826 30.0117 40.516 30.0117H64.2574C64.3908 30.0117 64.5 30.1207 64.5 30.254V31.4595C64.5 31.5927 64.3908 31.7018 64.2574 31.7018Z" fill="#7A65E1"/>
<path d="M13.8991 32.7024C17.8512 32.7024 21.055 29.5019 21.055 25.5538C21.055 21.6058 17.8512 18.4053 13.8991 18.4053C9.94698 18.4053 6.74316 21.6058 6.74316 25.5538C6.74316 29.5019 9.94698 32.7024 13.8991 32.7024Z" fill="#FEBB02"/>
<path d="M9.30646 24.2865L12.9884 29.1198C13.0863 29.2483 13.2923 29.2396 13.3776 29.1034L19.4655 19.3763C19.5357 19.2641 19.4177 19.1313 19.2877 19.1758L17.6888 19.7253C17.4751 19.7987 17.2964 19.942 17.1854 20.1287L13.2781 26.7096C13.2396 26.7745 13.1429 26.7809 13.0953 26.7217L9.89975 22.7626C9.78741 22.6234 9.557 22.6499 9.48378 22.8106L9.20647 23.4193C9.07605 23.705 9.11403 24.0337 9.30646 24.2865Z" fill="white"/>
<path d="M12.7494 41.8874C18.885 41.8874 23.8591 36.9184 23.8591 30.7891H1.63965C1.63965 36.9184 6.61368 41.8874 12.7494 41.8874Z" fill="#7A65E1"/>
<path d="M24.485 31.3365H0.743512C0.610118 31.3365 0.500977 31.2275 0.500977 31.0943V29.8888C0.500977 29.7555 0.610118 29.6465 0.743512 29.6465H24.485C24.6184 29.6465 24.7275 29.7555 24.7275 29.8888V31.0943C24.7275 31.2275 24.6184 31.3365 24.485 31.3365Z" fill="#7A65E1"/>
</svg>
