<svg width="20" height="20" viewBox="0 0 20 20" fill="none" xmlns="http://www.w3.org/2000/svg">
<path d="M12.2222 18.3333V10.8333L18.5944 4.44445C18.6891 4.34974 18.764 4.23707 18.8145 4.11305C18.8651 3.98903 18.8904 3.85615 18.8889 3.72223V2.77778C18.8889 2.63044 18.8303 2.48913 18.7261 2.38495C18.622 2.28076 18.4806 2.22223 18.3333 2.22223H1.66664C1.5193 2.22223 1.37799 2.28076 1.2738 2.38495C1.16962 2.48913 1.11108 2.63044 1.11108 2.77778V3.70556C1.11119 3.83678 1.13726 3.96667 1.18779 4.08777C1.23833 4.20886 1.31233 4.31875 1.40553 4.41112L7.77775 10.8778V16.5445L12.2222 18.3333Z" fill="#2F0A4D" fill-opacity="0.3"/>
<path d="M18.6 2.22223H1.37777C1.30506 2.22784 1.23717 2.26073 1.18771 2.31431C1.13825 2.3679 1.11089 2.4382 1.1111 2.51112V3.46667C1.11043 3.56461 1.12924 3.66171 1.16644 3.75232C1.20364 3.84292 1.25848 3.92523 1.32777 3.99445L7.99443 10.6611V16.2167L12.0222 18.2222V10.65L18.6889 3.98334C18.8164 3.84577 18.8878 3.66539 18.8889 3.47778V2.51112C18.8889 2.4345 18.8584 2.36102 18.8043 2.30684C18.7501 2.25267 18.6766 2.22223 18.6 2.22223Z" fill="#2F0A4D" fill-opacity="0.3"/>
</svg>
