<svg width="18" height="18" viewBox="0 0 18 18" fill="none" xmlns="http://www.w3.org/2000/svg">
<path d="M11.1111 17.0556V9.55555L17.4833 3.16666C17.578 3.07196 17.6529 2.95929 17.7034 2.83526C17.754 2.71124 17.7793 2.57837 17.7778 2.44444V1.5C17.7778 1.35266 17.7192 1.21135 17.6151 1.10716C17.5109 1.00297 17.3696 0.944443 17.2222 0.944443H0.555556C0.408213 0.944443 0.266905 1.00297 0.162718 1.10716C0.0585316 1.21135 0 1.35266 0 1.5V2.42778C0.000103879 2.55899 0.0261745 2.68889 0.0767093 2.80998C0.127244 2.93107 0.201244 3.04097 0.294444 3.13333L6.66667 9.6V15.2667L11.1111 17.0556Z" fill="#9380A2" fill-opacity="0.4"/>
</svg>
