<svg width="20" height="20" viewBox="0 0 20 20" fill="none" xmlns="http://www.w3.org/2000/svg">
<path d="M17.7778 0H2.22222C0.988889 0 0 0.988889 0 2.22222V17.7778C0 18.3671 0.234126 18.9324 0.650874 19.3491C1.06762 19.7659 1.63285 20 2.22222 20H17.7778C18.3671 20 18.9324 19.7659 19.3491 19.3491C19.7659 18.9324 20 18.3671 20 17.7778V2.22222C20 0.988889 19 0 17.7778 0Z" fill="#6655BD"/>
<path fill-rule="evenodd" clip-rule="evenodd" d="M14.7103 6.17114C14.9709 6.41745 14.992 6.83898 14.7575 7.11265L9.04318 13.7793C8.92277 13.9198 8.75124 14 8.57125 14C8.39126 14 8.21972 13.9198 8.09932 13.7793L4.92471 10.0756C4.69013 9.80194 4.71126 9.38041 4.97191 9.13411C5.23255 8.8878 5.634 8.90999 5.86858 9.18366L8.57125 12.3368L13.8136 6.2207C14.0482 5.94702 14.4496 5.92484 14.7103 6.17114Z" fill="white"/>
</svg>
