<svg clip-rule="evenodd" fill="#7A65E1" height="512" stroke-linejoin="round" stroke-miterlimit="2" viewBox="0 0 32 32" width="512" xmlns="http://www.w3.org/2000/svg"><path d="m12.141 5.865 5.135 5.135h2.724c.681 0 1.342.232 1.874.657l.126.101.126-.101c.532-.425 1.193-.657 1.874-.657h4c.194 0 .384.01.57.029-.074-.106-.157-.206-.25-.298 0 0-9.051-9.051-9.051-9.051-.968-.968-2.75-.927-3.959.283 0 0-2.829 2.828-2.829 2.828-.16.161-.262.371-.287.597zm2.306 5.135-3.72-3.72-.478.053c-.225.025-.436.126-.596.286l-3.381 3.381z"/><path d="m21 30.481v-16.962l-.375-.3c-.178-.142-.398-.219-.625-.219h-16c-1.711 0-3 1.231-3 2.6v12.8c0 1.369 1.289 2.6 3 2.6h16c.227 0 .447-.077.625-.219zm2-16.962v16.962l.375.3c.178.142.398.219.625.219h4c1.711 0 3-1.231 3-2.6v-12.8c0-1.369-1.289-2.6-3-2.6h-4c-.227 0-.447.077-.625.219zm-18 14.481h6c.552 0 1-.448 1-1s-.448-1-1-1h-6c-.552 0-1 .448-1 1s.448 1 1 1zm0-4h4c.552 0 1-.448 1-1s-.448-1-1-1h-4c-.552 0-1 .448-1 1s.448 1 1 1z"/></svg>