<svg id="Capa_1" enable-background="new 0 0 512 512" height="512" viewBox="0 0 512 512" width="512" xmlns="http://www.w3.org/2000/svg"><g><path d="m114.796 290.333h-60.185v221.667h79v-220.062c-6.154-1.062-12.442-1.605-18.815-1.605z"/><path d="m232.091 135.44c-26.305-26.305-61.279-40.791-98.48-40.791h-79v71.037h68.333c45.215 0 87.723 17.607 119.693 49.579 26.305 26.305 61.279 40.791 98.48 40.791h116.271v-71.037h-105.603c-45.215 0-87.723-17.608-119.694-49.579z"/><path d="m279.674 49.579c-31.971-31.972-74.479-49.579-119.693-49.579h-105.37v64.648h79c45.215 0 87.723 17.607 119.693 49.579 26.305 26.305 61.279 40.792 98.48 40.792h105.604v-64.648h-79.234c-37.2 0-72.175-14.487-98.48-40.792z"/><path d="m114.796 260.333c37.2 0 72.175 14.487 98.479 40.792 31.972 31.972 74.48 49.579 119.693 49.579h124.42v-64.648h-116.27c-45.215 0-87.723-17.607-119.693-49.579-26.305-26.305-61.279-40.792-98.48-40.792h-68.334v64.648z"/></g></svg>