<svg width="17" height="17" viewBox="0 0 17 17" fill="none" xmlns="http://www.w3.org/2000/svg">
<path fill-rule="evenodd" clip-rule="evenodd" d="M4.14478 1.34082C3.04021 1.34082 2.14478 2.23625 2.14478 3.34082V12.6742C2.14478 13.7787 3.04021 14.6742 4.14478 14.6742H13.5139C14.6185 14.6742 15.5139 13.7787 15.5139 12.6742V3.34082C15.5139 2.23625 14.6185 1.34082 13.5139 1.34082H4.14478ZM11.3404 12.0194H12.8401L12.2123 4.00781H10.2127L8.8642 9.61941L7.43428 4.00781H5.45796L4.81857 12.0194H6.30662L6.50425 8.71506C6.55075 7.97303 6.574 7.25033 6.574 6.54694C6.574 6.28414 6.56625 5.89767 6.55075 5.38752L8.10855 11.1498H9.56172L11.0265 5.39912V5.81651C11.0265 6.51989 11.0614 7.47061 11.1311 8.66868L11.3404 12.0194Z" fill="#5F6368"/>
</svg>
