<svg width="40" height="40" viewBox="0 0 40 40" fill="none" xmlns="http://www.w3.org/2000/svg">
<rect x="0.5" y="0.5" width="39" height="39" rx="5.5" fill="white" stroke="#DDDDE3"/>
<path d="M27.8502 18.186H27.2306V18.1541H20.3075V21.231H24.6549C24.0206 23.0222 22.3164 24.3079 20.3075 24.3079C17.7587 24.3079 15.6922 22.2414 15.6922 19.6926C15.6922 17.1437 17.7587 15.0772 20.3075 15.0772C21.4841 15.0772 22.5545 15.521 23.3695 16.246L25.5452 14.0702C24.1714 12.7899 22.3337 12.0002 20.3075 12.0002C16.0595 12.0002 12.6152 15.4445 12.6152 19.6926C12.6152 23.9406 16.0595 27.3849 20.3075 27.3849C24.5556 27.3849 27.9998 23.9406 27.9998 19.6926C27.9998 19.1768 27.9468 18.6733 27.8502 18.186Z" fill="#FFC107"/>
<path d="M13.5029 16.1122L16.0302 17.9656C16.7141 16.2726 18.3702 15.0772 20.3083 15.0772C21.4849 15.0772 22.5552 15.521 23.3702 16.246L25.546 14.0702C24.1722 12.7899 22.3345 12.0002 20.3083 12.0002C17.3537 12.0002 14.7914 13.6683 13.5029 16.1122Z" fill="#FF3D00"/>
<path d="M20.308 27.3848C22.295 27.3848 24.1003 26.6244 25.4653 25.3879L23.0846 23.3732C22.2863 23.9803 21.3109 24.3087 20.308 24.3079C18.3073 24.3079 16.6084 23.0321 15.9684 21.2517L13.46 23.1844C14.733 25.6756 17.3184 27.3848 20.308 27.3848Z" fill="#4CAF50"/>
<path d="M27.8503 18.186H27.2307V18.1541H20.3076V21.231H24.6549C24.3515 22.0834 23.8051 22.8284 23.083 23.3737L23.0842 23.3729L25.4649 25.3875C25.2965 25.5406 27.9999 23.5387 27.9999 19.6925C27.9999 19.1767 27.9468 18.6733 27.8503 18.186Z" fill="#1976D2"/>
</svg>
