<?xml version="1.0" encoding="UTF-8"?>
<svg width="24px" height="24px" viewBox="0 0 24 24" version="1.1" xmlns="http://www.w3.org/2000/svg" xmlns:xlink="http://www.w3.org/1999/xlink">
    <title>icon-honeymoon</title>
    <g id="Icon" stroke="none" stroke-width="1" fill="none" fill-rule="evenodd">
        <g id="icon-honeymoon">
            <polygon id="Path" points="0 0 24 0 24 24 0 24"></polygon>
            <path d="M20,14 C21.05,14 21.9177686,14.8200413 21.9944872,15.8513054 L22,16 L22,20 L20.67,20 L20.16,21.53 C20.06,21.81 19.8,22 19.5,22 C19.2333333,22 18.9982716,21.8498765 18.886118,21.6198628 L18.85,21.53 L18.34,20 L5.67,20 L5.16,21.53 C5.06,21.81 4.8,22 4.5,22 C4.23333333,22 3.9982716,21.8498765 3.87909465,21.6198628 L3.84,21.53 L3.33,20 L2,20 L2,16 C2,14.95 2.82004132,14.0822314 3.85130541,14.0055128 L4,14 L20,14 Z M18,11 C19.05,11 19.9177686,11.8200413 19.9944872,12.8513054 L20,13 L4,13 C4,11.95 4.82004132,11.0822314 5.85130541,11.0055128 L6,11 L18,11 Z M14,3 C15.104,3 16,3.91803279 16,5.04918033 C16,5.6147541 15.776,6.13114754 15.416,6.5 L12,10 L8.584,6.5 C8.224,6.12295082 8,5.6147541 8,5.04918033 C8,3.91803279 8.896,3 10,3 C10.552,3 11.056,3.2295082 11.416,3.60655738 L12,4.19672131 L12.584,3.59836066 C12.944,3.2295082 13.448,3 14,3 Z" id="Combined-Shape" fill="#000000" fill-rule="nonzero"></path>
        </g>
    </g>
</svg>