<svg width="24" height="24" viewBox="0 0 24 24" fill="none" xmlns="http://www.w3.org/2000/svg">
<g clip-path="url(#clip0_4875_27577)">
<path d="M13.25 8.25H22V9.5H13.25V8.25ZM13.25 22H15.75V17H19.5V22H22V10.75H13.25V22Z" fill="#FFA500"/>
<path fill-rule="evenodd" clip-rule="evenodd" d="M2 22H12V2H2V22ZM8.25 4.5H10.75V7H8.25V4.5ZM8.25 9.5H10.75V12H8.25V9.5ZM8.25 14.5H10.75V17H8.25V14.5ZM5.75 4.5H3.25V7H5.75V4.5ZM5.75 9.5H3.25V12H5.75V9.5ZM5.75 14.5H3.25V17H5.75V14.5Z" fill="#FFA500"/>
</g>
<defs>
<clipPath id="clip0_4875_27577">
<rect width="20" height="20" fill="white" transform="translate(2 2)"/>
</clipPath>
</defs>
</svg>
