<svg width="18" height="18" viewBox="0 0 18 18" fill="none" xmlns="http://www.w3.org/2000/svg">
    <g clip-path="url(#clip0_4591_6663)">
        <path d="M0 18H9V0H0V18Z" fill="white"/>
        <path d="M7.875 2.25H5.625V4.5H7.875V2.25Z" fill="#FEBB02"/>
        <path d="M7.875 6.75H5.625V9H7.875V6.75Z" fill="#FEBB02"/>
        <path d="M7.875 11.25H5.625V13.5H7.875V11.25Z" fill="#FEBB02"/>
        <path d="M1.125 2.25H3.375V4.5H1.125V2.25ZM1.125 6.75H3.375V9H1.125V6.75ZM1.125 11.25H3.375V13.5H1.125V11.25ZM10.125 5.625H18V6.75H10.125V5.625ZM10.125 18H12.375V13.5H15.75V18H18V7.875H10.125V18Z" fill="white"/>
        <path d="M1.125 2.25H3.375V4.5H1.125V2.25ZM1.125 6.75H3.375V9H1.125V6.75ZM1.125 11.25H3.375V13.5H1.125V11.25Z" fill="#FEBB02"/>
    </g>
    <defs>
        <clipPath id="clip0_4591_6663">
            <rect width="18" height="18" fill="white"/>
        </clipPath>
    </defs>
</svg>
