<svg width="25" height="24" viewBox="0 0 25 24" fill="none" xmlns="http://www.w3.org/2000/svg">
<path d="M12.375 7C15.135 7 17.375 9.24 17.375 12C17.375 12.65 17.245 13.26 17.015 13.83L19.935 16.75C21.445 15.49 22.635 13.86 23.365 12C21.635 7.61 17.365 4.5 12.365 4.5C10.965 4.5 9.625 4.75 8.385 5.2L10.545 7.36C11.115 7.13 11.725 7 12.375 7ZM2.375 4.27L4.655 6.55L5.115 7.01C3.455 8.3 2.155 10.02 1.375 12C3.105 16.39 7.375 19.5 12.375 19.5C13.925 19.5 15.405 19.2 16.755 18.66L17.175 19.08L20.105 22L21.375 20.73L3.645 3L2.375 4.27ZM7.905 9.8L9.455 11.35C9.405 11.56 9.375 11.78 9.375 12C9.375 13.66 10.715 15 12.375 15C12.595 15 12.815 14.97 13.025 14.92L14.575 16.47C13.905 16.8 13.165 17 12.375 17C9.615 17 7.375 14.76 7.375 12C7.375 11.21 7.575 10.47 7.905 9.8V9.8ZM12.215 9.02L15.365 12.17L15.385 12.01C15.385 10.35 14.045 9.01 12.385 9.01L12.215 9.02Z" fill="#D0D2DB"/>
</svg>
