<svg width="49" height="48" viewBox="0 0 49 48" fill="none" xmlns="http://www.w3.org/2000/svg">
<g clip-path="url(#clip0_3397_204764)">
<path d="M27.1663 8.056C27.1663 9.53867 25.9623 10.7413 24.4997 10.7413C23.037 10.7413 21.833 9.53867 21.833 8.056V2.68533C21.833 1.20133 23.037 0 24.4997 0C25.9623 0 27.1663 1.20133 27.1663 2.68533V8.056Z" fill="#FFCC4D"/>
<path d="M12.7397 48.0001C12.4411 48.0001 12.1371 47.9307 11.8517 47.7881C11.3785 47.5444 11.0199 47.1245 10.8536 46.6189C10.6872 46.1132 10.7263 45.5625 10.9624 45.0854L22.8824 20.9161C23.2184 20.2334 23.9064 19.8027 24.6597 19.8027C25.4131 19.8027 26.1011 20.2334 26.437 20.9161L38.3584 45.0854C38.5949 45.5622 38.6344 46.113 38.4683 46.6187C38.3021 47.1244 37.9437 47.5445 37.4704 47.7881C37.2365 47.9057 36.9816 47.9758 36.7205 47.9941C36.4594 48.0124 36.1972 47.9786 35.9492 47.8948C35.7012 47.8109 35.4724 47.6786 35.276 47.5056C35.0796 47.3325 34.9195 47.1222 34.805 46.8867L24.6611 26.3201L14.5184 46.8867C14.3554 47.2198 14.1024 47.5006 13.788 47.6974C13.4737 47.8941 13.1106 47.999 12.7397 48.0001Z" fill="#FFAC33"/>
<path d="M24.6616 27.1898C24.4873 27.1896 24.3147 27.1548 24.154 27.0873C23.9933 27.0197 23.8477 26.9209 23.7256 26.7965L5.18292 7.99781C4.66559 7.47248 4.66559 6.62315 5.18292 6.09915C5.70026 5.57515 6.53892 5.57515 7.05492 6.09915L24.6616 23.9471L42.2656 6.09781C42.3878 5.97345 42.5336 5.87466 42.6944 5.80724C42.8552 5.73981 43.0279 5.70508 43.2023 5.70508C43.3766 5.70508 43.5493 5.73981 43.7101 5.80724C43.8709 5.87466 44.0167 5.97345 44.1389 6.09781C44.3875 6.3513 44.5267 6.69215 44.5267 7.04715C44.5267 7.40215 44.3875 7.74299 44.1389 7.99648L25.5989 26.7965C25.4763 26.9206 25.3304 27.0193 25.1695 27.0868C25.0087 27.1543 24.836 27.1893 24.6616 27.1898Z" fill="#58595B"/>
<path d="M45.8534 25.8463C45.8534 37.7103 36.3667 47.3276 24.6614 47.3276C12.9587 47.3276 3.4707 37.7103 3.4707 25.8463C3.4707 13.9796 12.9587 4.3623 24.6614 4.3623C36.3654 4.36097 45.8534 13.9796 45.8534 25.8463Z" fill="#DD2E44"/>
<path d="M40.5549 25.8458C40.5549 34.7444 33.4415 41.9578 24.6615 41.9578C15.8842 41.9578 8.76953 34.7444 8.76953 25.8458C8.76953 16.9458 15.8842 9.73242 24.6615 9.73242C33.4415 9.73109 40.5549 16.9458 40.5549 25.8458Z" fill="#E6E7E8"/>
<path d="M40.5534 1.67578C39.5069 1.67561 38.471 1.88425 37.5062 2.28949C36.5414 2.69473 35.6671 3.28842 34.9347 4.03578L46.1734 15.4278C47.6693 13.9099 48.5054 11.8629 48.5 9.73178C48.5 5.28378 44.9414 1.67578 40.5534 1.67578ZM8.44669 1.67578C9.49312 1.67568 10.5291 1.88436 11.4938 2.2896C12.4586 2.69483 13.3329 3.28848 14.0654 4.03578L2.82669 15.4278C1.33078 13.9099 0.494608 11.8629 0.500026 9.73178C0.500026 5.28378 4.05736 1.67578 8.44669 1.67578Z" fill="#FFCC4D"/>
<path d="M31.167 26.6667H24.5003C24.1467 26.6667 23.8076 26.5262 23.5575 26.2761C23.3075 26.0261 23.167 25.687 23.167 25.3333V13.3333C23.167 12.9797 23.3075 12.6406 23.5575 12.3905C23.8076 12.1405 24.1467 12 24.5003 12C24.8539 12 25.1931 12.1405 25.4431 12.3905C25.6932 12.6406 25.8337 12.9797 25.8337 13.3333V24H31.167C31.5206 24 31.8598 24.1405 32.1098 24.3905C32.3599 24.6406 32.5003 24.9797 32.5003 25.3333C32.5003 25.687 32.3599 26.0261 32.1098 26.2761C31.8598 26.5262 31.5206 26.6667 31.167 26.6667Z" fill="#414042"/>
</g>
<defs>
<clipPath id="clip0_3397_204764">
<rect width="48" height="48" fill="white" transform="translate(0.5)"/>
</clipPath>
</defs>
</svg>
