<svg width="81" height="54" viewBox="0 0 81 54" fill="none" xmlns="http://www.w3.org/2000/svg">
<path d="M41.9263 26.1967C41.8866 26.2551 41.7174 26.5349 41.9345 26.8502C41.9485 26.8699 41.9575 26.8862 41.9634 26.8998C44.5637 28.519 52.3626 35.0696 52.3626 39.6867V49.2516H28.8247V39.683C28.8247 35.0364 36.7301 28.3819 39.2732 26.8502C39.2736 26.8502 39.2736 26.8502 39.2736 26.8502C39.3553 26.7319 39.3819 26.6186 39.3819 26.5199C39.3819 26.323 39.2736 26.185 39.2736 26.185C36.7242 24.6191 28.8247 18.0137 28.8247 13.3672V3.80273H52.3626V13.3714C52.363 18.0105 44.4829 24.6514 41.9263 26.1967Z" fill="#D0E5FF"/>
<path d="M53.7127 51.7166H27.2874V50.5376C27.2874 49.8279 27.8421 49.2529 28.5268 49.2529H52.5242C53.1805 49.2529 53.7127 49.8045 53.7127 50.4847V51.7166Z" fill="#FEBB02"/>
<path d="M35.564 40.2753C35.4435 42.4161 35.8362 47.0341 35.8005 49.2521H28.8263V39.6834C28.8263 35.0369 36.7317 28.3824 39.2747 26.8507C39.2752 26.8507 39.2752 26.8507 39.2752 26.8507C39.3569 26.7323 39.3835 26.6191 39.3835 26.5204C39.3835 26.3234 39.2752 26.1854 39.2752 26.1854C36.7258 24.6196 28.8263 18.0142 28.8263 13.3676V3.80273H33.4922L36.8229 4.7473V12.3113C36.8229 12.3113 36.4929 14.49 37.3189 16.6299C38.1449 18.7698 39.918 25.6353 39.8904 26.5269C39.8624 27.4191 35.7703 36.6055 35.564 40.2753Z" fill="#BBD7FF"/>
<path d="M49.3131 10.1623C47.8863 10.1848 45.4331 10.4514 41.4641 11.4891C38.7468 12.1993 34.062 11.6645 31.584 11.2964C30.7146 11.1672 29.9369 11.8657 29.9369 12.7761V13.8783C29.9369 16.916 37.8224 23.4961 39.9078 25.1827C40.2237 25.4381 40.4084 25.8302 40.4084 26.2456V43.1373C40.4084 43.7141 40.1339 44.2512 39.678 44.582C38.0382 45.7717 35.2749 49.2528 35.2749 49.2528H45.726C45.726 49.2528 42.9234 45.8933 41.3504 44.6461C40.9911 44.3611 40.7794 43.9209 40.7794 43.4526V26.2409C40.7794 25.8278 40.9604 25.4372 41.2718 25.1789C43.3161 23.4821 51.0292 16.8776 51.0292 13.8423V11.9139C51.0292 10.9357 50.2565 10.1473 49.3131 10.1623Z" fill="#7A65E1"/>
<path d="M52.48 4.74781H28.4758C27.8195 4.74781 27.2874 4.19623 27.2874 3.51599V2.28418H53.7127V3.47015C53.7127 4.17611 53.1607 4.74781 52.48 4.74781Z" fill="#FEBB02"/>
</svg>
