<svg width="40" height="40" viewBox="0 0 40 40" fill="none" xmlns="http://www.w3.org/2000/svg">
<rect x="0.5" y="0.5" width="39" height="39" rx="5.5" fill="white" stroke="#DDDDE3"/>
<g clip-path="url(#clip0_305_56188)">
<path d="M16.0265 28.0769H12.1193V15.4944H16.0265V28.0769ZM14.0705 13.778C12.8213 13.778 11.8076 12.7428 11.8076 11.4936C11.8076 10.8934 12.046 10.3179 12.4704 9.8935C12.8948 9.46912 13.4703 9.23071 14.0705 9.23071C14.6707 9.23071 15.2462 9.46912 15.6706 9.8935C16.095 10.3179 16.3334 10.8934 16.3334 11.4936C16.3334 12.7428 15.3197 13.778 14.0705 13.778ZM30.6497 28.0769H26.7513V21.9519C26.7513 20.492 26.7217 18.6201 24.7199 18.6201C22.6886 18.6201 22.3769 20.2059 22.3769 21.8469V28.0769H18.4738V15.4944H22.2208V17.2107H22.2753C22.7969 16.222 24.0711 15.1787 25.9718 15.1787C29.9262 15.1787 30.6531 17.7828 30.6531 21.165V28.0769H30.6497Z" fill="#0E76A8"/>
</g>
<defs>
<clipPath id="clip0_305_56188">
<rect width="21.5385" height="21.5385" fill="white" transform="translate(10.4619 9.23071)"/>
</clipPath>
</defs>
</svg>
