<svg width="35" height="40" viewBox="0 0 36 41" fill="none" xmlns="http://www.w3.org/2000/svg">
<path fill-rule="evenodd" clip-rule="evenodd" d="M0.651428 9.10749L0.5 9.18226V17.014L13.9266 10.4066V28.5748C13.9266 33.2758 15.7639 36.5654 17.3388 37.9581C18.2474 38.7524 19.3175 39.3506 20.5289 39.7244C21.8917 40.1822 22.7599 40.4067 23.3252 40.4346C23.9209 40.4721 24.5166 40.5 25.193 40.5C27.3733 40.5 29.2208 40.4346 30.6947 40.285L30.9472 40.2571V33.659L30.6443 33.6776C29.7458 33.7244 28.7666 33.7431 27.7166 33.7431C23.9209 33.7431 22.0735 32.0888 22.0735 28.6962V10.4159L35.5 17.0234V9.18226L18.0152 0.5L0.651428 9.10749Z" fill="#7A65E1"/>
</svg>
