<svg width="24" height="25" viewBox="0 0 24 25" fill="none" xmlns="http://www.w3.org/2000/svg">
<path d="M19.6875 10.5918C18.9688 11.1543 18.0625 11.8418 14.875 14.1543C14.25 14.623 13.0938 15.6543 12 15.6543C10.875 15.6543 9.75 14.623 9.09375 14.1543C5.90625 11.8418 5 11.1543 4.28125 10.5918C4.15625 10.498 4 10.5918 4 10.748V17.123C4 17.9668 4.65625 18.623 5.5 18.623H18.5C19.3125 18.623 20 17.9668 20 17.123V10.748C20 10.5918 19.8125 10.498 19.6875 10.5918ZM12 14.623C12.7188 14.6543 13.75 13.7168 14.2812 13.3418C18.4375 10.3418 18.75 10.0605 19.6875 9.31055C19.875 9.18555 20 8.9668 20 8.7168V8.12305C20 7.31055 19.3125 6.62305 18.5 6.62305H5.5C4.65625 6.62305 4 7.31055 4 8.12305V8.7168C4 8.9668 4.09375 9.18555 4.28125 9.31055C5.21875 10.0605 5.53125 10.3418 9.6875 13.3418C10.2188 13.7168 11.25 14.6543 12 14.623Z" fill="#5F6368"/>
</svg>
