<svg width="20" height="21" viewBox="0 0 20 21" fill="none" xmlns="http://www.w3.org/2000/svg">
<g clip-path="url(#clip0_5398_38063)">
<path d="M15 3.83481H1.66667C0.75 3.83481 0.00833333 4.58481 0.00833333 5.50147L0 15.5015C0 16.4181 0.75 17.1681 1.66667 17.1681H15C15.9167 17.1681 16.6667 16.4181 16.6667 15.5015V5.50147C16.6667 4.58481 15.9167 3.83481 15 3.83481ZM14.1667 15.5015H2.5C2.04167 15.5015 1.66667 15.1265 1.66667 14.6681V7.16814L7.45 10.7848C7.99167 11.1265 8.675 11.1265 9.21667 10.7848L15 7.16814V14.6681C15 15.1265 14.625 15.5015 14.1667 15.5015ZM8.33333 9.66814L1.66667 5.50147H15L8.33333 9.66814Z" fill="#2F0A4D"/>
</g>
<defs>
<clipPath id="clip0_5398_38063">
<rect width="20" height="20" fill="white" transform="translate(0 0.501465)"/>
</clipPath>
</defs>
</svg>
