<svg width="16" height="17" viewBox="0 0 16 17" fill="none" xmlns="http://www.w3.org/2000/svg">
    <g opacity="0.8">
        <path fill-rule="evenodd" clip-rule="evenodd" d="M7.99999 14.6252L8.48075 14.0835C9.02627 13.4588 9.51694 12.866 9.95351 12.3022L10.3139 11.8268C11.8187 9.79934 12.5714 8.1902 12.5714 7.00087C12.5714 4.4622 10.5249 2.4043 7.99999 2.4043C5.47503 2.4043 3.42856 4.4622 3.42856 7.00087C3.42856 8.1902 4.18132 9.79934 5.68608 11.8268L6.04646 12.3022C6.66927 13.1002 7.32088 13.8753 7.99999 14.626V14.6252Z" stroke="#202124" stroke-width="0.9" stroke-linecap="round" stroke-linejoin="round"/>
        <path d="M7.99998 8.88081C9.05195 8.88081 9.90474 8.02802 9.90474 6.97605C9.90474 5.92408 9.05195 5.07129 7.99998 5.07129C6.94801 5.07129 6.09521 5.92408 6.09521 6.97605C6.09521 8.02802 6.94801 8.88081 7.99998 8.88081Z" stroke="#202124" stroke-width="0.9" stroke-linecap="round" stroke-linejoin="round"/>
    </g>
</svg>
