<svg width="20" height="20" viewBox="0 0 20 20" fill="none" xmlns="http://www.w3.org/2000/svg">
<path fill-rule="evenodd" clip-rule="evenodd" d="M14.3253 12.8985L19.7053 18.2785C19.8944 18.4677 20.0005 18.7243 20.0004 18.9919C20.0003 19.2594 19.894 19.5159 19.7048 19.705C19.5155 19.8941 19.2589 20.0003 18.9914 20.0002C18.7239 20.0001 18.4674 19.8937 18.2783 19.7045L12.8983 14.3245C11.29 15.5702 9.26753 16.1564 7.24238 15.9639C5.21723 15.7713 3.34149 14.8145 1.99674 13.2881C0.651988 11.7617 -0.0607533 9.78031 0.00350804 7.74705C0.0677694 5.71378 0.904207 3.78136 2.34266 2.34291C3.78112 0.904451 5.71354 0.0680136 7.7468 0.00375219C9.78007 -0.0605092 11.7614 0.652233 13.2879 1.99698C14.8143 3.34173 15.7711 5.21748 15.9636 7.24263C16.1561 9.26778 15.5699 11.2902 14.3243 12.8985H14.3253ZM8.00026 13.9995C9.59155 13.9995 11.1177 13.3674 12.2429 12.2421C13.3681 11.1169 14.0003 9.5908 14.0003 7.9995C14.0003 6.4082 13.3681 4.88208 12.2429 3.75686C11.1177 2.63164 9.59155 1.9995 8.00026 1.9995C6.40896 1.9995 4.88283 2.63164 3.75762 3.75686C2.6324 4.88208 2.00026 6.4082 2.00026 7.9995C2.00026 9.5908 2.6324 11.1169 3.75762 12.2421C4.88283 13.3674 6.40896 13.9995 8.00026 13.9995Z" fill="#D0D2DB"/>
</svg>
