<svg width="30" height="30" viewBox="0 0 30 30" fill="none" xmlns="http://www.w3.org/2000/svg">
<path class="main-bg" d="M25 15C25 13.625 26.125 12.5 27.5 12.5V7.5C27.5 6.125 26.375 5 25 5H5C3.625 5 2.5125 6.125 2.5125 7.5V12.5C3.8875 12.5 5 13.625 5 15C5 16.375 3.8875 17.5 2.5 17.5V22.5C2.5 23.875 3.625 25 5 25H25C26.375 25 27.5 23.875 27.5 22.5V17.5C26.125 17.5 25 16.375 25 15ZM19.475 21L15 18.125L10.525 21L11.875 15.85L7.7625 12.4875L13.0625 12.175L15 7.25L16.925 12.1875L22.225 12.5L18.1125 15.8625L19.475 21Z" fill="#5F6368"/>
</svg>
