<svg width="16" height="14" viewBox="0 0 16 14" fill="none" xmlns="http://www.w3.org/2000/svg">
    <path d="M15.73 0.0565958C15.8112 0.098674 15.8793 0.162228 15.927 0.240338C15.9746 0.318448 15.9998 0.408121 16 0.499596V10.4996C16 10.586 15.9776 10.6709 15.9351 10.7461C15.8925 10.8213 15.8311 10.8842 15.757 10.9286L10.757 13.9286C10.6817 13.9737 10.5958 13.9982 10.5081 13.9996C10.4203 14.001 10.3337 13.9793 10.257 13.9366L5.747 11.4306C5.67381 11.3841 5.58898 11.3593 5.50229 11.3589C5.41559 11.3586 5.33056 11.3827 5.257 11.4286L5.243 11.4366L0.743 13.9366C0.666889 13.9789 0.581043 14.0006 0.493961 13.9996C0.406879 13.9985 0.321582 13.9747 0.246516 13.9306C0.171449 13.8864 0.109216 13.8235 0.0659777 13.7479C0.0227397 13.6723 -3.25989e-06 13.5867 3.27388e-07 13.4996V3.9996C-9.1708e-05 3.91916 0.0192223 3.83989 0.0563031 3.76852C0.0933839 3.69714 0.147137 3.63576 0.213 3.5896L5.213 0.0895958C5.2971 0.0306471 5.3973 -0.000976562 5.5 -0.000976562C5.6027 -0.000976562 5.70291 0.0306471 5.787 0.0895958L10.5 3.3896L15.213 0.0895958C15.2881 0.0372121 15.376 0.0064336 15.4674 0.000614643C15.5587 -0.00520431 15.6499 0.0141595 15.731 0.0565958H15.73ZM1 4.2596V12.6496L4.75 10.5666C4.82949 10.5193 4.91318 10.4795 5 10.4476V1.4596L1 4.2596ZM6.248 10.5656L10.004 12.6516L10 4.2596L6 1.4596V10.4496C6.085 10.4796 6.168 10.5186 6.248 10.5656V10.5656ZM11.004 12.6146L15 10.2166V1.4596L11 4.2596L11.004 12.6146V12.6146Z" fill="#5F6368"/>
</svg>
