<svg width="30" height="30" viewBox="0 0 30 30" fill="none" xmlns="http://www.w3.org/2000/svg">
<path class="main-bg" d="M15.3 4.91999C20.5949 4.91999 24.945 8.83499 25.68 13.92H28.8L23.5499 19.92L18.2999 13.92H21.78C21.4444 12.4516 20.6209 11.1405 19.4439 10.2005C18.267 9.26062 16.8061 8.74751 15.3 8.74499C13.125 8.74499 11.205 9.80999 9.98995 11.415L7.42495 8.48999C8.40672 7.36732 9.61747 6.46787 10.9758 5.85209C12.3341 5.23631 13.8086 4.91849 15.3 4.91999ZM14.7 25.08C9.41995 25.08 5.05495 21.165 4.31995 16.08H1.19995L6.44995 10.08C8.20495 12.075 9.94495 14.085 11.7 16.08H8.21995C8.55553 17.5483 9.37902 18.8595 10.556 19.7994C11.7329 20.7393 13.1938 21.2525 14.7 21.255C16.875 21.255 18.795 20.19 20.01 18.585L22.575 21.51C21.5941 22.6338 20.3836 23.534 19.025 24.1499C17.6665 24.7658 16.1916 25.0829 14.7 25.08Z" fill="#5F6368"/>
</svg>
