<svg width="15" height="15" viewBox="0 0 15 15" fill="none" xmlns="http://www.w3.org/2000/svg">
<path d="M13.9229 2.67879C14.3135 2.28826 14.3135 1.6551 13.9229 1.26457C13.5324 0.874049 12.8992 0.874049 12.5087 1.26457L7.21582 6.55747L1.92293 1.26457C1.5324 0.874049 0.899238 0.874049 0.508714 1.26457C0.118189 1.6551 0.118189 2.28826 0.508714 2.67879L5.80161 7.97168L0.508714 13.2646C0.118189 13.6551 0.118189 14.2883 0.508714 14.6788C0.899238 15.0693 1.5324 15.0693 1.92293 14.6788L7.21582 9.38589L12.5087 14.6788C12.8992 15.0693 13.5324 15.0693 13.9229 14.6788C14.3135 14.2883 14.3135 13.6551 13.9229 13.2646L8.63003 7.97168L13.9229 2.67879Z" fill="#D0D2DB"/>
</svg>
