<svg width="30" height="30" viewBox="0 0 30 30" fill="none" xmlns="http://www.w3.org/2000/svg">
<path class="main-bg" d="M0 30H15V0H0V30Z" fill="#5F6368"/>
<path class="item-bg" d="M9.375 3.75H13.125V7.5H9.375V3.75ZM9.375 11.25H13.125V15H9.375V11.25ZM9.375 18.75H13.125V22.5H9.375V18.75Z" fill="#FFFFFF"/>
<path class="main-bg" d="M1.875 3.75H5.625V7.5H1.875V3.75ZM1.875 11.25H5.625V15H1.875V11.25ZM1.875 18.75H5.625V22.5H1.875V18.75ZM16.875 9.375H30V11.25H16.875V9.375ZM16.875 30H20.625V22.5H26.25V30H30V13.125H16.875V30Z" fill="#5F6368"/>
<path class="item-bg" d="M1.875 3.75H5.625V7.5H1.875V3.75ZM1.875 11.25H5.625V15H1.875V11.25ZM1.875 18.75H5.625V22.5H1.875V18.75Z" fill="#FFFFFF"/>
</svg>
