<svg width="18" height="14" viewBox="0 0 18 14" fill="none" xmlns="http://www.w3.org/2000/svg">
<path d="M1.35397 4.354L3.99797 1.71V13.5C3.99797 13.6326 4.05065 13.7598 4.14442 13.8536C4.23819 13.9473 4.36537 14 4.49797 14C4.63058 14 4.75776 13.9473 4.85153 13.8536C4.94529 13.7598 4.99797 13.6326 4.99797 13.5V1.705L7.64697 4.355C7.74086 4.44875 7.86814 4.50137 8.00083 4.50128C8.13351 4.50118 8.26072 4.44839 8.35447 4.3545C8.44823 4.26061 8.50084 4.13333 8.50075 4.00065C8.50066 3.86796 8.44786 3.74075 8.35397 3.647L4.86397 0.157L4.85397 0.147C4.80754 0.100418 4.75236 0.0634553 4.69162 0.0382304C4.63087 0.0130056 4.56575 1.39479e-05 4.49997 1.32277e-08H4.49797C4.42492 -1.68058e-05 4.35276 0.0160055 4.28658 0.0469353C4.2204 0.0778651 4.16182 0.122948 4.11497 0.179L0.645973 3.647C0.599551 3.69349 0.562739 3.74866 0.537641 3.80938C0.512543 3.87009 0.499649 3.93516 0.499695 4.00085C0.499741 4.06655 0.512727 4.1316 0.537912 4.19227C0.563096 4.25295 0.599985 4.30808 0.646473 4.3545C0.692961 4.40092 0.748137 4.43773 0.808851 4.46283C0.869566 4.48793 0.934629 4.50082 1.00033 4.50078C1.06602 4.50073 1.13107 4.48775 1.19175 4.46256C1.25243 4.43738 1.30755 4.40049 1.35397 4.354ZM16.647 9.646L14.003 12.29V0.5C14.003 0.367392 13.9503 0.240215 13.8565 0.146447C13.7628 0.0526785 13.6356 1.32277e-08 13.503 1.32277e-08C13.3704 1.32277e-08 13.2432 0.0526785 13.1494 0.146447C13.0557 0.240215 13.003 0.367392 13.003 0.5V12.295L10.353 9.645C10.3065 9.59858 10.2513 9.56177 10.1906 9.53667C10.1299 9.51157 10.0648 9.49868 9.99912 9.49872C9.86644 9.49882 9.73923 9.55161 9.64547 9.6455C9.55172 9.73939 9.4991 9.86667 9.4992 9.99935C9.49929 10.132 9.55209 10.2592 9.64597 10.353L13.136 13.843L13.146 13.853C13.1926 13.8996 13.2479 13.9366 13.3089 13.9618C13.3698 13.987 13.435 14 13.501 14H13.503C13.576 13.9999 13.6482 13.9839 13.7143 13.953C13.7805 13.922 13.8391 13.877 13.886 13.821L17.354 10.353C17.4017 10.3069 17.4398 10.2517 17.466 10.1907C17.4922 10.1297 17.506 10.0641 17.5066 9.9977C17.5072 9.93131 17.4945 9.86547 17.4694 9.80402C17.4442 9.74257 17.4071 9.68675 17.3602 9.6398C17.3132 9.59286 17.2574 9.55573 17.1959 9.53059C17.1345 9.50545 17.0687 9.4928 17.0023 9.49337C16.9359 9.49395 16.8703 9.50774 16.8093 9.53395C16.7483 9.56015 16.6931 9.59824 16.647 9.646Z" fill="#5F6368"/>
</svg>
