<svg width="20" height="26" viewBox="0 0 20 26" fill="none" xmlns="http://www.w3.org/2000/svg">
<path fill-rule="evenodd" clip-rule="evenodd" d="M10 0.5C5 0.5 0 1.15789 0 5.76316V18.2632C0 20.8026 1.9625 22.8684 4.375 22.8684L2.5 24.8421V25.5H5.2875L7.7875 22.8684H12.5L15 25.5H17.5V24.8421L15.625 22.8684C18.0375 22.8684 20 20.8026 20 18.2632V5.76316C20 1.15789 15.525 0.5 10 0.5ZM4.375 20.2368C3.3375 20.2368 2.5 19.3553 2.5 18.2632C2.5 17.1711 3.3375 16.2895 4.375 16.2895C5.4125 16.2895 6.25 17.1711 6.25 18.2632C6.25 19.3553 5.4125 20.2368 4.375 20.2368ZM2.5 11.0263H8.75V5.76316H2.5V11.0263ZM11.25 11.0263V5.76316H17.5V11.0263H11.25ZM13.75 18.2632C13.75 19.3553 14.5875 20.2368 15.625 20.2368C16.6625 20.2368 17.5 19.3553 17.5 18.2632C17.5 17.1711 16.6625 16.2895 15.625 16.2895C14.5875 16.2895 13.75 17.1711 13.75 18.2632Z" fill="#7A65E1"/>
</svg>
