<svg width="20" height="20" viewBox="0 0 20 20" fill="none" xmlns="http://www.w3.org/2000/svg">
<path d="M9.99992 4.99998C10.9166 4.99998 11.6666 5.74998 11.6666 6.66665C11.6666 7.58331 10.9166 8.33331 9.99992 8.33331C9.08325 8.33331 8.33325 7.58331 8.33325 6.66665C8.33325 5.74998 9.08325 4.99998 9.99992 4.99998ZM9.99992 12.5C12.2499 12.5 14.8333 13.575 14.9999 14.1666V15H4.99992V14.175C5.16659 13.575 7.74992 12.5 9.99992 12.5ZM9.99992 3.33331C8.15825 3.33331 6.66658 4.82498 6.66658 6.66665C6.66658 8.50831 8.15825 9.99998 9.99992 9.99998C11.8416 9.99998 13.3333 8.50831 13.3333 6.66665C13.3333 4.82498 11.8416 3.33331 9.99992 3.33331ZM9.99992 10.8333C7.77492 10.8333 3.33325 11.95 3.33325 14.1666V16.6666H16.6666V14.1666C16.6666 11.95 12.2249 10.8333 9.99992 10.8333Z" fill="#D0D2DB"/>
</svg>
