<svg width="18" height="17" viewBox="0 0 18 17" fill="none" xmlns="http://www.w3.org/2000/svg">
<path fill-rule="evenodd" clip-rule="evenodd" d="M10.6667 3.83333V2.16667H7.33342V3.83333H10.6667ZM2.33341 5.5V14.6667H15.6667V5.5H2.33341ZM15.6667 3.83333C16.5917 3.83333 17.3334 4.575 17.3334 5.5V14.6667C17.3334 15.5917 16.5917 16.3333 15.6667 16.3333H2.33341C1.40841 16.3333 0.666748 15.5917 0.666748 14.6667L0.675081 5.5C0.675081 4.575 1.40841 3.83333 2.33341 3.83333H5.66675V2.16667C5.66675 1.24167 6.40841 0.5 7.33342 0.5H10.6667C11.5917 0.5 12.3334 1.24167 12.3334 2.16667V3.83333H15.6667Z" fill="#D0D2DB"/>
</svg>
