<svg width="24" height="24" viewBox="0 0 24 24" fill="none" xmlns="http://www.w3.org/2000/svg">
    <g opacity="0.6">
        <path fill-rule="evenodd" clip-rule="evenodd" d="M15.4601 14.8188L19.7639 19.1227C19.9151 19.2741 20.0001 19.4793 20 19.6934C19.9999 19.9074 19.9148 20.1126 19.7635 20.2639C19.6121 20.4151 19.4068 20.5001 19.1928 20.5C18.9788 20.4999 18.7736 20.4148 18.6223 20.2635L14.3185 15.9595C13.0319 16.9561 11.4141 17.425 9.79403 17.271C8.17398 17.117 6.67346 16.3516 5.59771 15.1305C4.52196 13.9093 3.95179 12.3243 4.0032 10.6977C4.0546 9.07112 4.72372 7.52522 5.87443 6.37448C7.02514 5.22374 8.57101 4.5546 10.1975 4.5032C11.8241 4.45179 13.4091 5.02197 14.6302 6.09775C15.8513 7.17352 16.6167 8.67409 16.7707 10.2942C16.9247 11.9143 16.4566 13.5322 15.4601 14.8188ZM10.4003 15.6996C11.6733 15.6996 12.8941 15.1939 13.7943 14.2937C14.6944 13.3935 15.2001 12.1727 15.2001 10.8997C15.2001 9.62665 14.6944 8.40577 13.7943 7.50562C12.8941 6.60546 11.6733 6.09976 10.4003 6.09976C9.12732 6.09976 7.90648 6.60546 7.00634 7.50562C6.10621 8.40577 5.60052 9.62665 5.60052 10.8997C5.60052 12.1727 6.10621 13.3935 7.00634 14.2937C7.90648 15.1939 9.12732 15.6996 10.4003 15.6996Z" fill="#202124"/>
    </g>
</svg>
