<svg width="30" height="30" viewBox="0 0 30 30" fill="none" xmlns="http://www.w3.org/2000/svg">
<path class="main-bg" d="M26.6664 16.1097C26.6664 15.6349 26.5628 15.1814 26.3756 14.7665C26.3564 14.6611 26.3343 14.5558 26.3067 14.4489L24.2799 9.25273L24.2662 9.20598C23.5571 7.02165 22.548 5 19.9894 5H10.2069C7.58528 5 6.65887 7.07174 5.93418 9.19385L3.81412 14.4027C3.50763 14.9107 3.33337 15.4919 3.33337 16.1097V17.7266C3.33337 17.9766 3.36194 18.2211 3.41625 18.4567C3.36345 18.599 3.33337 18.7523 3.33337 18.914V23.723C3.33337 24.4282 3.886 25 4.56769 25H7.12909C7.81041 25 8.36304 24.4282 8.36304 23.723V21.3181H21.783V23.723C21.783 24.4282 22.3358 25 23.0175 25H25.4322C26.1142 25 26.6667 24.4282 26.6667 23.723V18.9134C26.6667 18.7524 26.6363 18.5983 26.5839 18.4565C26.638 18.2206 26.6667 17.9763 26.6667 17.7264V16.1097H26.6664V16.1097ZM7.4384 9.71555C8.24544 7.36007 8.89445 6.64101 10.2069 6.64101H19.9889C21.2917 6.64101 22.0172 7.443 22.7544 9.70541L24.2334 12.806C23.7505 12.621 23.219 12.5184 22.6607 12.5184H7.3391C6.83636 12.5184 6.35593 12.602 5.91266 12.7534L7.4384 9.71555ZM8.70894 18.3407H6.00638C5.51979 18.3407 5.12516 17.932 5.12516 17.4287C5.12516 16.9253 5.51979 16.5169 6.00638 16.5169H8.70894C9.19573 16.5169 9.59036 16.9253 9.59036 17.4287C9.59036 17.932 9.19547 18.3407 8.70894 18.3407ZM18.2558 18.158H11.9696C11.6614 18.158 11.4116 17.8995 11.4116 17.5808C11.4116 17.2616 11.6614 17.0032 11.9696 17.0032H18.2558C18.5644 17.0032 18.8141 17.2616 18.8141 17.5808C18.8141 17.8995 18.5644 18.158 18.2558 18.158ZM23.9253 18.3407H21.2228C20.7358 18.3407 20.3414 17.932 20.3414 17.4287C20.3414 16.9253 20.7361 16.5169 21.2228 16.5169H23.9253C24.4123 16.5169 24.807 16.9253 24.807 17.4287C24.807 17.932 24.4123 18.3407 23.9253 18.3407Z" fill="#5F6368"/>
</svg>
