<svg width="18" height="15" viewBox="0 0 18 15" fill="none" xmlns="http://www.w3.org/2000/svg">
<path d="M16.6191 7.47624H13.7619M5.19051 0.80957C5.44309 0.80957 5.68533 0.90991 5.86394 1.08852C6.04255 1.26712 6.14289 1.50936 6.14289 1.76195V3.66671C6.14289 3.9193 6.04255 4.16154 5.86394 4.34015C5.68533 4.51875 5.44309 4.61909 5.19051 4.61909C4.93792 4.61909 4.69568 4.51875 4.51707 4.34015C4.33846 4.16154 4.23812 3.9193 4.23812 3.66671V1.76195C4.23812 1.50936 4.33846 1.26712 4.51707 1.08852C4.69568 0.90991 4.93792 0.80957 5.19051 0.80957V0.80957ZM16.6191 2.71433H6.14289H16.6191ZM4.23812 2.71433H1.38098H4.23812ZM5.19051 10.3334C5.44309 10.3334 5.68533 10.4337 5.86394 10.6123C6.04255 10.7909 6.14289 11.0332 6.14289 11.2858V13.1905C6.14289 13.4431 6.04255 13.6854 5.86394 13.864C5.68533 14.0426 5.44309 14.1429 5.19051 14.1429C4.93792 14.1429 4.69568 14.0426 4.51707 13.864C4.33846 13.6854 4.23812 13.4431 4.23812 13.1905V11.2858C4.23812 11.0332 4.33846 10.7909 4.51707 10.6123C4.69568 10.4337 4.93792 10.3334 5.19051 10.3334ZM16.6191 12.2381H6.14289H16.6191ZM4.23812 12.2381H1.38098H4.23812ZM12.8096 5.57148C13.0621 5.57148 13.3044 5.67182 13.483 5.85042C13.6616 6.02903 13.7619 6.27127 13.7619 6.52386V8.42862C13.7619 8.68121 13.6616 8.92345 13.483 9.10205C13.3044 9.28066 13.0621 9.381 12.8096 9.381C12.557 9.381 12.3147 9.28066 12.1361 9.10205C11.9575 8.92345 11.8572 8.68121 11.8572 8.42862V6.52386C11.8572 6.27127 11.9575 6.02903 12.1361 5.85042C12.3147 5.67182 12.557 5.57148 12.8096 5.57148V5.57148ZM11.8572 7.47624H1.38098H11.8572Z" stroke="#5F6368" stroke-linecap="round" stroke-linejoin="round"/>
</svg>
