<svg width="25" height="24" viewBox="0 0 25 24" fill="none" xmlns="http://www.w3.org/2000/svg">
<path fill-rule="evenodd" clip-rule="evenodd" d="M4.0432 2L22.6733 20.6301L21.2925 22L19.363 20.0705C19.0083 20.6292 18.3841 21 17.6733 21V23H15.6733V21H9.67334V23H7.67334V21C6.56877 21 5.67334 20.1046 5.67334 19V7C5.67334 6.80961 5.69994 6.62544 5.74963 6.451L2.67334 3.36986L4.0432 2ZM14.6733 1C15.7779 1 16.6733 1.89543 16.6733 3V5H17.6733C18.7779 5 19.6733 5.89543 19.6733 7V15.75L8.67334 4.75V3C8.67334 1.89543 9.56877 1 10.6733 1H14.6733ZM14.6733 3H10.6733V5H14.6733V3Z" fill="#FF6767"/>
</svg>
