<svg width="107" height="97" viewBox="0 0 107 97" fill="none" xmlns="http://www.w3.org/2000/svg">
<path d="M82.3467 72.3016C95.657 58.9913 95.657 37.4111 82.3467 24.1008C69.0365 10.7905 47.4562 10.7905 34.146 24.1008C20.8357 37.4111 20.8357 58.9913 34.146 72.3016C47.4562 85.6118 69.0365 85.6118 82.3467 72.3016Z" fill="#7A65E1"/>
<path d="M1.27039 66.3233C1.27039 66.3233 21.2283 59.936 25.1572 53.2249C28.7273 47.1264 38.6578 45.495 40.3717 44.241C42.7867 42.4736 48.6605 39.2562 51.1168 38.9819C53.435 38.722 55.5304 40.242 54.8498 42.7479C54.0475 45.7136 42.0113 50.385 42.0113 50.385C42.0113 50.385 41.6008 56.6279 50.3867 58.2448C59.1747 59.8618 63.0128 59.2884 67.7605 57.8736C72.5081 56.4588 73.7208 56.1556 73.7208 56.1556C73.7208 56.1556 74.8304 52.5299 76.5113 51.6905C78.3303 50.781 79.8111 51.5564 80.1473 52.0947C80.4835 52.633 78.5448 58.185 77.922 59.8349C77.2991 61.4849 72.4277 65.2034 72.4277 65.2034C71.9905 65.5375 71.6296 65.9624 71.3718 66.4491C70.3818 68.3238 67.5914 72.6693 66.6158 73.1581C65.4031 73.7645 62.0373 74.5049 62.0373 74.5049C62.0373 74.5049 61.4268 75.8145 58.7828 77.2479C55.6129 78.9679 53.2782 81.6367 46.8126 81.3005C42.6568 81.084 31.9261 77.8955 23.1753 80.1848C19.4547 81.1582 0.552673 95.0816 0.552673 95.0816L1.27039 66.3233Z" fill="#F9D0AF"/>
<g opacity="0.11">
<path opacity="0.9608" d="M66.9398 40.4359C66.2612 40.0461 65.164 40.0461 64.4855 40.4359L25.5121 63.0915C24.848 63.4813 24.848 64.1165 25.5265 64.5063L45.8145 76.2167C46.493 76.6065 47.5902 76.6065 48.2687 76.2167L87.2277 53.5611C87.8918 53.1713 87.8918 52.5361 87.2133 52.1463L66.9398 40.4359Z" fill="#1D4B5B"/>
</g>
<path d="M88.1398 52.3396V49.5059C88.1398 49.7657 87.9666 50.0112 87.6345 50.2133V53.047C87.9666 52.8593 88.1398 52.5995 88.1398 52.3396Z" fill="#1D546D"/>
<g opacity="0.9608">
<path d="M87.6349 50.2132V53.047C87.6638 53.0326 87.6783 53.0181 87.7071 53.0037V50.1699C87.6927 50.1844 87.6638 50.1988 87.6349 50.2132Z" fill="#1D546D"/>
<path d="M87.7068 50.17V53.0037C87.9956 52.816 88.1399 52.585 88.1399 52.3396V49.5059C88.1399 49.7513 87.9956 49.9823 87.7068 50.17Z" fill="#1D546D"/>
</g>
<path d="M25.4145 60.4512V63.2849C25.4145 63.5448 25.5877 63.8047 25.9198 63.9923V61.1586C25.5877 60.9709 25.4145 60.711 25.4145 60.4512Z" fill="#1D546D"/>
<g opacity="0.9608">
<path d="M25.4141 60.4512V63.2849C25.4141 63.4582 25.4862 63.6314 25.6451 63.7758V60.942C25.4862 60.7977 25.4141 60.6244 25.4141 60.4512Z" fill="#1D546D"/>
<path d="M25.6449 60.9424V63.7761C25.7171 63.8483 25.8181 63.9205 25.9336 63.9927V61.1589C25.8181 61.1012 25.7171 61.029 25.6449 60.9424Z" fill="#1D546D"/>
</g>
<g opacity="0.9608">
<path d="M48.6628 72.8695V75.7032L87.6341 53.0476V50.2139L48.6628 72.8695Z" fill="#1D546D"/>
</g>
<g opacity="0.9608">
<path d="M25.7721 61.0635L25.8175 63.9323L46.2085 75.7025V72.8687L25.7721 61.0635Z" fill="#1D546D"/>
</g>
<path opacity="0.9608" d="M67.3484 37.0882C66.6699 36.6984 65.5727 36.6984 64.8942 37.0882L25.9208 59.7438C25.2567 60.1336 25.2567 60.7689 25.9352 61.1586L46.2232 72.869C46.9017 73.2588 47.9989 73.2588 48.6774 72.869L87.6343 50.2134C88.2984 49.8236 88.2984 49.1884 87.6199 48.7986L67.3484 37.0882Z" fill="#5B838E"/>
<path d="M46.2083 72.8691V75.7029C46.8868 76.0927 47.984 76.0927 48.6625 75.7029V72.8691C47.984 73.2589 46.8868 73.2589 46.2083 72.8691Z" fill="#1D546D"/>
<g opacity="0.9608">
<path d="M46.2084 72.8691V75.7029C46.2373 75.7173 46.2662 75.7318 46.2951 75.7462V72.9125C46.2662 72.898 46.2373 72.8836 46.2084 72.8691Z" fill="#1D546D"/>
<path d="M46.2947 72.9268V75.7605C46.8433 76.0348 47.6373 76.0781 48.2725 75.876V73.0423C47.6517 73.2444 46.8577 73.2011 46.2947 72.9268Z" fill="#1D546D"/>
<path d="M48.2728 73.0424V75.8761C48.4172 75.8328 48.5471 75.7751 48.6626 75.7029V72.8691C48.5471 72.9413 48.4172 72.9991 48.2728 73.0424Z" fill="#1D546D"/>
</g>
<path d="M62.2208 39.4121L30.5834 57.8068L51.6654 69.9935L83.3172 51.5989L62.2208 39.4121Z" fill="#EDF8FF"/>
<path d="M77.8581 45.649C77.6849 45.548 77.3962 45.548 77.2085 45.649C77.0352 45.7501 77.0352 45.9233 77.2085 46.0244C77.3817 46.1255 77.6705 46.1255 77.8581 46.0244C78.0479 45.9089 78.0479 45.7501 77.8581 45.649Z" fill="#1D4B5B"/>
<path d="M73.6427 43.31C73.5128 43.2378 73.3107 43.2378 73.1808 43.31C73.0508 43.3822 73.0508 43.4977 73.1808 43.5699L75.9526 45.1724C76.0826 45.2445 76.2847 45.2445 76.4146 45.1724C76.5446 45.1002 76.5446 44.9847 76.4146 44.8981L73.6427 43.31Z" fill="#1D4B5B"/>
<path d="M38.6968 65.0527C38.5545 64.9681 38.3173 64.9681 38.1729 65.0527L37.8409 65.2486C37.6986 65.3332 37.6986 65.4713 37.8409 65.5497L38.2183 65.7683C38.3606 65.8529 38.5978 65.8529 38.7421 65.7683L39.0742 65.5724C39.2165 65.4878 39.2165 65.3497 39.0742 65.2713L38.6968 65.0527Z" stroke="#1D546D" stroke-width="0.7001" stroke-miterlimit="10"/>
<path d="M45.1229 68.8372L44.5681 68.5176" stroke="#1D546D" stroke-width="0.7001" stroke-miterlimit="10" stroke-linecap="round"/>
<path d="M44.8795 68.9984L44.3247 68.6787" stroke="#1D546D" stroke-width="0.7001" stroke-miterlimit="10" stroke-linecap="round"/>
<path d="M44.6117 69.1488L44.0569 68.8291" stroke="#1D546D" stroke-width="0.7001" stroke-miterlimit="10" stroke-linecap="round"/>
<path d="M32.6313 61.8799L32.7221 62.3109H32.2126" stroke="#1D546D" stroke-width="0.7001" stroke-miterlimit="10" stroke-linecap="round" stroke-linejoin="round"/>
<path d="M80.1492 53.4767L83.3171 51.5999L62.2207 39.4131L59.0673 41.2899L80.1492 53.4767Z" fill="#C7E0EF"/>
<path d="M48.1226 49.3926L47.574 49.704L65.2633 59.9171L65.8202 59.6077L48.1226 49.3926Z" fill="white"/>
<path d="M46.062 50.6387L45.5134 50.948L63.2027 61.1632L63.7596 60.8538L46.062 50.6387Z" fill="white"/>
<path d="M43.9566 51.8379L43.41 52.1473L61.0973 62.3624L61.6541 62.053L43.9566 51.8379Z" fill="white"/>
<path d="M41.8963 53.082L41.3498 53.3935L59.037 63.6065L59.5939 63.2972L41.8963 53.082Z" fill="white"/>
<path d="M79.0953 50.3204C79.2438 50.407 79.2459 50.5472 79.0974 50.6339L66.5497 57.9534C66.4012 58.04 66.1578 58.04 66.0093 57.9534L49.211 48.2497C49.0625 48.1631 49.0604 48.0228 49.2089 47.9362L61.7566 40.6167C61.9051 40.5301 62.1485 40.5301 62.299 40.6167L79.0953 50.3204Z" fill="#ABD77E"/>
<path d="M71.3401 48.8704L62.7729 43.9846L62.6945 21.6631L71.2618 26.5489L71.3401 48.8704Z" fill="#DBA76E"/>
<path d="M54.4366 48.7075L62.6141 43.9846L62.6945 21.6631L54.3583 26.386L54.4366 48.7075Z" fill="#DBA76E"/>
<path d="M71.259 26.5508L71.3373 48.8723L63.0052 53.5952L62.9247 31.2716L71.259 26.5508Z" fill="#D1E9F5"/>
<path d="M63.006 53.5951L54.4366 48.7072L54.3583 26.3857L62.9255 31.2716L63.006 53.5951Z" fill="#E8F5FD"/>
<path d="M62.9255 31.2718L54.3583 26.3859L62.6925 21.665L71.2597 26.5509L62.9255 31.2718Z" fill="#B1D3DD"/>
<path d="M55.9956 32.6149L55.5604 32.3633L55.5563 34.1803L57.1361 35.0939L57.1381 34.5989L57.1423 33.2769L55.9956 32.6149Z" fill="#95DBE5"/>
<path d="M55.2755 32.2002L55.5602 32.3631L55.556 34.1801L55.2714 34.3472L55.2755 32.2002Z" fill="#73A9B1"/>
<path d="M55.2713 34.3477L55.5559 34.1807L57.1357 35.0943V35.4243L55.2713 34.3477Z" fill="#80BDC5"/>
<path d="M58.4242 34.0085L57.989 33.7568L57.9849 35.5738L59.5647 36.4854L59.5667 35.9904L59.5709 34.6705L58.4242 34.0085Z" fill="#95DBE5"/>
<path d="M57.7063 33.5918L57.9909 33.7568L57.9847 35.5738L57.7001 35.7388L57.7063 33.5918Z" fill="#73A9B1"/>
<path d="M57.6999 35.7382L57.9845 35.5732L59.5643 36.4848V36.8169L57.6999 35.7382Z" fill="#80BDC5"/>
<path d="M60.854 35.3931L60.4189 35.1436L60.4147 36.9605L61.9945 37.8721L61.9966 37.3771L62.0007 36.0551L60.854 35.3931Z" fill="#95DBE5"/>
<path d="M60.1369 34.9785L60.4215 35.1435L60.4153 36.9605L60.1307 37.1255L60.1369 34.9785Z" fill="#73A9B1"/>
<path d="M60.1304 37.125L60.415 36.96L61.9949 37.8715V38.2015L60.1304 37.125Z" fill="#80BDC5"/>
<path d="M55.9956 36.024L55.5604 35.7744L55.5563 37.5914L57.1361 38.503L57.1381 38.008L57.1423 36.686L55.9956 36.024Z" fill="#95DBE5"/>
<path d="M55.2755 35.6094L55.5602 35.7744L55.556 37.5893L55.2714 37.7563L55.2755 35.6094Z" fill="#73A9B1"/>
<path d="M55.2713 37.7568L55.5559 37.5918L57.1357 38.5034V38.8334L55.2713 37.7568Z" fill="#80BDC5"/>
<path d="M58.4242 37.4175L57.989 37.168L57.9849 38.9829L59.5647 39.8965L59.5667 39.4016L59.5709 38.0796L58.4242 37.4175Z" fill="#95DBE5"/>
<path d="M57.7063 37.0029L57.9909 37.1659L57.9847 38.9828L57.7001 39.1499L57.7063 37.0029Z" fill="#73A9B1"/>
<path d="M57.6999 39.1505L57.9845 38.9834L59.5643 39.897V40.227L57.6999 39.1505Z" fill="#80BDC5"/>
<path d="M60.854 38.8043L60.4189 38.5527L60.4147 40.3697L61.9945 41.2834L61.9966 40.7884L62.0007 39.4664L60.854 38.8043Z" fill="#95DBE5"/>
<path d="M60.1369 38.3896L60.4215 38.5526L60.4153 40.3696L60.1307 40.5366L60.1369 38.3896Z" fill="#73A9B1"/>
<path d="M60.1304 40.5372L60.415 40.3701L61.9949 41.2838V41.6138L60.1304 40.5372Z" fill="#80BDC5"/>
<path d="M55.9956 39.4352L55.5604 39.1836L55.5563 41.0006L57.1361 41.9142L57.1381 41.4192L57.1423 40.0972L55.9956 39.4352Z" fill="#95DBE5"/>
<path d="M55.2755 39.0205L55.5602 39.1834L55.556 41.0004L55.2714 41.1675L55.2755 39.0205Z" fill="#73A9B1"/>
<path d="M55.2713 41.1671L55.5559 41L57.1357 41.9136V42.2436L55.2713 41.1671Z" fill="#80BDC5"/>
<path d="M58.4242 40.8288L57.989 40.5771L57.9849 42.3941L59.5647 43.3057L59.5667 42.8107L59.5709 41.4908L58.4242 40.8288Z" fill="#95DBE5"/>
<path d="M57.7063 40.4121L57.9909 40.5771L57.9847 42.3941L57.7001 42.5591L57.7063 40.4121Z" fill="#73A9B1"/>
<path d="M57.6999 42.5595L57.9845 42.3945L59.5643 43.3061V43.6382L57.6999 42.5595Z" fill="#80BDC5"/>
<path d="M60.854 42.2124L60.4189 41.9629L60.4147 43.7799L61.9945 44.6915L61.9966 44.1965L62.0007 42.8745L60.854 42.2124Z" fill="#95DBE5"/>
<path d="M60.1369 41.7979L60.4215 41.9628L60.4153 43.7798L60.1307 43.9448L60.1369 41.7979Z" fill="#73A9B1"/>
<path d="M60.1304 43.9453L60.415 43.7803L61.9949 44.6919V45.0218L60.1304 43.9453Z" fill="#80BDC5"/>
<path d="M55.9956 42.8443L55.5604 42.5947L55.5563 44.4117L57.1361 45.3233L57.1381 44.8283L57.1423 43.5063L55.9956 42.8443Z" fill="#95DBE5"/>
<path d="M55.2755 42.4297L55.5602 42.5947L55.556 44.4096L55.2714 44.5767L55.2755 42.4297Z" fill="#73A9B1"/>
<path d="M55.2713 44.5761L55.5559 44.4111L57.1357 45.3227V45.6527L55.2713 44.5761Z" fill="#80BDC5"/>
<path d="M58.4242 44.2388L57.989 43.9893L57.9849 45.8042L59.5647 46.7178L59.5667 46.2228L59.5709 44.9008L58.4242 44.2388Z" fill="#95DBE5"/>
<path d="M57.7063 43.8242L57.9909 43.9871L57.9847 45.8041L57.7001 45.9712L57.7063 43.8242Z" fill="#73A9B1"/>
<path d="M57.6999 45.9708L57.9845 45.8037L59.5643 46.7174V47.0473L57.6999 45.9708Z" fill="#80BDC5"/>
<path d="M60.854 45.6237L60.4189 45.3721L60.4147 47.1891L61.9945 48.1027L61.9966 47.6077L62.0007 46.2857L60.854 45.6237Z" fill="#95DBE5"/>
<path d="M60.1369 45.209L60.4215 45.3719L60.4153 47.1889L60.1307 47.356L60.1369 45.209Z" fill="#73A9B1"/>
<path d="M60.1304 47.3565L60.415 47.1895L61.9949 48.1031V48.4331L60.1304 47.3565Z" fill="#80BDC5"/>
<path d="M55.9956 46.2555L55.5604 46.0039L55.5563 47.8209L57.1361 48.7345L57.1381 48.2396L57.1423 46.9176L55.9956 46.2555Z" fill="#95DBE5"/>
<path d="M55.2755 45.8408L55.5602 46.0037L55.556 47.8207L55.2714 47.9878L55.2755 45.8408Z" fill="#73A9B1"/>
<path d="M55.2713 47.9883L55.5559 47.8213L57.1357 48.7349V49.0649L55.2713 47.9883Z" fill="#80BDC5"/>
<path d="M58.4242 47.6501L57.989 47.3984L57.9849 49.2154L59.5647 50.127L59.5667 49.632L59.5709 48.3121L58.4242 47.6501Z" fill="#95DBE5"/>
<path d="M57.7063 47.2334L57.9909 47.3984L57.9847 49.2154L57.7001 49.3804L57.7063 47.2334Z" fill="#73A9B1"/>
<path d="M57.6999 49.3798L57.9845 49.2148L59.5643 50.1264V50.4585L57.6999 49.3798Z" fill="#80BDC5"/>
<path d="M60.854 49.0337L60.4189 48.7842L60.4147 50.6012L61.9945 51.5128L61.9966 51.0178L62.0007 49.6958L60.854 49.0337Z" fill="#95DBE5"/>
<path d="M60.1369 48.6191L60.4215 48.7841L60.4153 50.6011L60.1307 50.7661L60.1369 48.6191Z" fill="#73A9B1"/>
<path d="M60.1304 50.7656L60.415 50.6006L61.9949 51.5122V51.8422L60.1304 50.7656Z" fill="#80BDC5"/>
<path d="M69.8244 32.6149L70.2596 32.3633L70.2637 34.1803L68.6839 35.0939L68.6819 34.5989L68.6777 33.2769L69.8244 32.6149Z" fill="#95DBE5"/>
<path d="M70.5451 32.2002L70.2604 32.3631L70.2646 34.1801L70.5492 34.3472L70.5451 32.2002Z" fill="#73A9B1"/>
<path d="M70.5481 34.3467L70.2635 34.1797L68.6837 35.0933V35.4233L70.5481 34.3467Z" fill="#80BDC5"/>
<path d="M67.3939 34.0094L67.8291 33.7578L67.8332 35.5748L66.2534 36.4864L66.2513 35.9914L66.2472 34.6715L67.3939 34.0094Z" fill="#95DBE5"/>
<path d="M68.1119 33.5928L67.8273 33.7578L67.8335 35.5748L68.1181 35.7397L68.1119 33.5928Z" fill="#73A9B1"/>
<path d="M68.1176 35.7392L67.833 35.5742L66.2512 36.4858V36.8179L68.1176 35.7392Z" fill="#80BDC5"/>
<path d="M64.9654 35.3921L65.3985 35.1426L65.4047 36.9596L63.8228 37.8711V37.3762L63.8187 36.0542L64.9654 35.3921Z" fill="#95DBE5"/>
<path d="M65.683 34.9775L65.3984 35.1425L65.4046 36.9595L65.6892 37.1245L65.683 34.9775Z" fill="#73A9B1"/>
<path d="M65.6886 37.125L65.404 36.96L63.8221 37.8715V38.2015L65.6886 37.125Z" fill="#80BDC5"/>
<path d="M55.9956 29.232L55.5604 28.9824L55.5563 30.7994L57.1361 31.711L57.1381 31.216L57.1423 29.894L55.9956 29.232Z" fill="#95DBE5"/>
<path d="M55.2755 28.8174L55.5602 28.9824L55.556 30.7973L55.2714 30.9644L55.2755 28.8174Z" fill="#73A9B1"/>
<path d="M55.2713 30.9648L55.5559 30.7998L57.1357 31.7114V32.0414L55.2713 30.9648Z" fill="#80BDC5"/>
<path d="M58.4242 30.6266L57.989 30.375L57.9849 32.192L59.5647 33.1056L59.5667 32.6107L59.5709 31.2887L58.4242 30.6266Z" fill="#95DBE5"/>
<path d="M57.7063 30.2119L57.9909 30.3748L57.9847 32.1918L57.7001 32.3589L57.7063 30.2119Z" fill="#73A9B1"/>
<path d="M57.6999 32.3594L57.9845 32.1924L59.5643 33.106V33.436L57.6999 32.3594Z" fill="#80BDC5"/>
<path d="M60.854 32.0124L60.4189 31.7607L60.4147 33.5777L61.9945 34.4914L61.9966 33.9964L62.0007 32.6744L60.854 32.0124Z" fill="#95DBE5"/>
<path d="M60.1369 31.5977L60.4215 31.7606L60.4153 33.5776L60.1307 33.7446L60.1369 31.5977Z" fill="#73A9B1"/>
<path d="M60.1304 33.7452L60.415 33.5781L61.9949 34.4918V34.8218L60.1304 33.7452Z" fill="#80BDC5"/>
<path d="M69.8244 29.232L70.2596 28.9824L70.2637 30.7994L68.6839 31.711L68.6819 31.216L68.6777 29.894L69.8244 29.232Z" fill="#95DBE5"/>
<path d="M70.5451 28.8174L70.2604 28.9824L70.2646 30.7973L70.5492 30.9644L70.5451 28.8174Z" fill="#73A9B1"/>
<path d="M70.5481 30.9648L70.2635 30.7998L68.6837 31.7114V32.0414L70.5481 30.9648Z" fill="#80BDC5"/>
<path d="M67.3939 30.6266L67.8291 30.375L67.8332 32.192L66.2534 33.1056L66.2513 32.6107L66.2472 31.2887L67.3939 30.6266Z" fill="#95DBE5"/>
<path d="M68.1119 30.2119L67.8273 30.3748L67.8335 32.1918L68.1181 32.3589L68.1119 30.2119Z" fill="#73A9B1"/>
<path d="M68.1176 32.3585L67.833 32.1914L66.2512 33.1051V33.435L68.1176 32.3585Z" fill="#80BDC5"/>
<path d="M64.9654 32.0124L65.3985 31.7607L65.4047 33.5777L63.8228 34.4914V33.9964L63.8187 32.6744L64.9654 32.0124Z" fill="#95DBE5"/>
<path d="M65.683 31.5977L65.3984 31.7606L65.4046 33.5776L65.6892 33.7446L65.683 31.5977Z" fill="#73A9B1"/>
<path d="M65.6886 33.7442L65.404 33.5771L63.8221 34.4908V34.8208L65.6886 33.7442Z" fill="#80BDC5"/>
<path d="M69.8244 36.024L70.2596 35.7744L70.2637 37.5914L68.6839 38.503L68.6819 38.008L68.6777 36.686L69.8244 36.024Z" fill="#95DBE5"/>
<path d="M70.5451 35.6094L70.2604 35.7744L70.2646 37.5893L70.5492 37.7563L70.5451 35.6094Z" fill="#73A9B1"/>
<path d="M70.5481 37.7558L70.2635 37.5908L68.6837 38.5024V38.8324L70.5481 37.7558Z" fill="#80BDC5"/>
<path d="M67.3939 37.4185L67.8291 37.1689L67.8332 38.9839L66.2534 39.8975L66.2513 39.4025L66.2472 38.0805L67.3939 37.4185Z" fill="#95DBE5"/>
<path d="M68.1119 37.0039L67.8273 37.1668L67.8335 38.9838L68.1181 39.1509L68.1119 37.0039Z" fill="#73A9B1"/>
<path d="M68.1176 39.1505L67.833 38.9834L66.2512 39.897V40.227L68.1176 39.1505Z" fill="#80BDC5"/>
<path d="M64.9654 38.8034L65.3985 38.5518L65.4047 40.3687L63.8228 41.2824V40.7874L63.8187 39.4654L64.9654 38.8034Z" fill="#95DBE5"/>
<path d="M65.683 38.3887L65.3984 38.5516L65.4046 40.3686L65.6892 40.5356L65.683 38.3887Z" fill="#73A9B1"/>
<path d="M65.6886 40.5362L65.404 40.3691L63.8221 41.2828V41.6128L65.6886 40.5362Z" fill="#80BDC5"/>
<path d="M69.8244 39.4352L70.2596 39.1836L70.2637 41.0006L68.6839 41.9142L68.6819 41.4192L68.6777 40.0972L69.8244 39.4352Z" fill="#95DBE5"/>
<path d="M70.5451 39.0205L70.2604 39.1834L70.2646 41.0004L70.5492 41.1675L70.5451 39.0205Z" fill="#73A9B1"/>
<path d="M70.5481 41.1671L70.2635 41L68.6837 41.9136V42.2436L70.5481 41.1671Z" fill="#80BDC5"/>
<path d="M67.3939 40.8288L67.8291 40.5771L67.8332 42.3941L66.2534 43.3057L66.2513 42.8107L66.2472 41.4908L67.3939 40.8288Z" fill="#95DBE5"/>
<path d="M68.1119 40.4121L67.8273 40.5771L67.8335 42.3941L68.1181 42.5591L68.1119 40.4121Z" fill="#73A9B1"/>
<path d="M68.1176 42.5585L67.833 42.3936L66.2512 43.3051V43.6372L68.1176 42.5585Z" fill="#80BDC5"/>
<path d="M64.9654 42.2134L65.3985 41.9639L65.4047 43.7809L63.8228 44.6924V44.1975L63.8187 42.8755L64.9654 42.2134Z" fill="#95DBE5"/>
<path d="M65.683 41.7988L65.3984 41.9638L65.4046 43.7808L65.6892 43.9458L65.683 41.7988Z" fill="#73A9B1"/>
<path d="M65.6886 43.9462L65.404 43.7812L63.8221 44.6928V45.0228L65.6886 43.9462Z" fill="#80BDC5"/>
<path d="M69.8244 42.8443L70.2596 42.5947L70.2637 44.4117L68.6839 45.3233L68.6819 44.8283L68.6777 43.5063L69.8244 42.8443Z" fill="#95DBE5"/>
<path d="M70.5451 42.4297L70.2604 42.5947L70.2646 44.4096L70.5492 44.5767L70.5451 42.4297Z" fill="#73A9B1"/>
<path d="M70.5481 44.5771L70.2635 44.4121L68.6837 45.3237V45.6537L70.5481 44.5771Z" fill="#80BDC5"/>
<path d="M67.3939 44.2378L67.8291 43.9883L67.8332 45.8032L66.2534 46.7169L66.2513 46.2219L66.2472 44.8999L67.3939 44.2378Z" fill="#95DBE5"/>
<path d="M68.1119 43.8232L67.8273 43.9862L67.8335 45.8032L68.1181 45.9702L68.1119 43.8232Z" fill="#73A9B1"/>
<path d="M68.1176 45.9708L67.833 45.8037L66.2512 46.7174V47.0473L68.1176 45.9708Z" fill="#80BDC5"/>
<path d="M64.9654 45.6247L65.3985 45.373L65.4047 47.19L63.8228 48.1037V47.6087L63.8187 46.2867L64.9654 45.6247Z" fill="#95DBE5"/>
<path d="M65.683 45.21L65.3984 45.3729L65.4046 47.1899L65.6892 47.3569L65.683 45.21Z" fill="#73A9B1"/>
<path d="M65.6895 47.3565L65.4049 47.1895L63.8231 48.1031V48.4331L65.6895 47.3565Z" fill="#80BDC5"/>
<path d="M69.8244 46.2555L70.2596 46.0039L70.2637 47.8209L68.6839 48.7345L68.6819 48.2396L68.6777 46.9176L69.8244 46.2555Z" fill="#95DBE5"/>
<path d="M70.5451 45.8408L70.2604 46.0037L70.2646 47.8207L70.5492 47.9878L70.5451 45.8408Z" fill="#73A9B1"/>
<path d="M70.5481 47.9874L70.2635 47.8203L68.6837 48.734V49.0639L70.5481 47.9874Z" fill="#80BDC5"/>
<path d="M67.3939 47.6491L67.8291 47.3975L67.8332 49.2144L66.2534 50.126L66.2513 49.6311L66.2472 48.3111L67.3939 47.6491Z" fill="#95DBE5"/>
<path d="M68.1119 47.2324L67.8273 47.3974L67.8335 49.2144L68.1181 49.3794L68.1119 47.2324Z" fill="#73A9B1"/>
<path d="M68.1176 49.3798L67.833 49.2148L66.2512 50.1264V50.4585L68.1176 49.3798Z" fill="#80BDC5"/>
<path d="M64.9654 49.0328L65.3985 48.7832L65.4047 50.6002L63.8228 51.5118V51.0168L63.8187 49.6948L64.9654 49.0328Z" fill="#95DBE5"/>
<path d="M65.683 48.6182L65.3984 48.7832L65.4046 50.6001L65.6892 50.7651L65.683 48.6182Z" fill="#73A9B1"/>
<path d="M65.6886 50.7656L65.404 50.6006L63.8221 51.5122V51.8422L65.6886 50.7656Z" fill="#80BDC5"/>
<path d="M57.4283 24.5322C57.4283 24.5632 57.4489 24.5941 57.4902 24.6168C57.5727 24.6642 57.7026 24.6642 57.783 24.6168C57.8222 24.5941 57.8428 24.5632 57.8428 24.5322V25.7057C57.8428 25.7367 57.8222 25.7676 57.783 25.7903C57.7026 25.8377 57.5706 25.8377 57.4902 25.7903C57.4489 25.7676 57.4283 25.7367 57.4283 25.7057V24.5322Z" fill="#1D546D"/>
<path d="M64.519 28.5225C64.519 28.5534 64.5396 28.5843 64.5809 28.607C64.6634 28.6545 64.7933 28.6545 64.8737 28.607C64.9129 28.5843 64.9335 28.5534 64.9335 28.5225V29.696C64.9335 29.7269 64.9129 29.7578 64.8737 29.7805C64.7933 29.828 64.6613 29.828 64.5809 29.7805C64.5396 29.7578 64.519 29.7269 64.519 29.696V28.5225Z" fill="#1D546D"/>
<path d="M65.3107 25.3691L65.3829 28.801L64.725 29.1702L64.6548 25.7383L65.3107 25.3691Z" fill="#D1E9F5"/>
<path d="M64.7244 29.1701L57.0358 24.7854L56.9656 21.3535L64.6543 25.7382L64.7244 29.1701Z" fill="#E8F5FD"/>
<path d="M64.6543 25.7382L56.9656 21.3535L57.6215 20.9844L65.3102 25.3691L64.6543 25.7382Z" fill="#C1DEEA"/>
<path d="M58.6286 23.2345C58.643 23.2427 58.6575 23.2592 58.6678 23.2778C58.6802 23.2963 58.6864 23.3169 58.6864 23.3334L58.6822 24.905C58.6822 24.9236 58.676 24.9339 58.6637 24.9401C58.6534 24.9463 58.6389 24.9442 58.6224 24.9359L58.3461 24.7771C58.3316 24.7689 58.3172 24.7524 58.3069 24.7359C58.2945 24.7153 58.2883 24.6967 58.2883 24.6802L58.2904 24.0842L57.8222 23.814L57.8201 24.41C57.8201 24.4286 57.814 24.4389 57.8016 24.4451C57.7913 24.4513 57.7768 24.4492 57.7624 24.441L57.486 24.2822C57.4695 24.2718 57.4572 24.2595 57.4468 24.2409C57.4345 24.2223 57.4283 24.2017 57.4283 24.1832L57.4324 22.6116C57.4324 22.593 57.4386 22.5807 57.451 22.5765C57.4613 22.5683 57.4737 22.5704 57.4902 22.5786L57.7665 22.7374C57.781 22.7457 57.7954 22.7622 57.8057 22.7807C57.8181 22.7993 57.8243 22.8199 57.8243 22.8364L57.8222 23.4221L58.2904 23.6923L58.2924 23.1066C58.2924 23.088 58.2986 23.0756 58.311 23.0715C58.3213 23.0633 58.3357 23.0653 58.3522 23.0736L58.6286 23.2345Z" fill="#FD8257"/>
<path d="M60.2541 24.8083C60.2562 24.8785 60.2582 24.9527 60.2582 25.029C60.2582 25.1053 60.2562 25.1754 60.252 25.2414C60.2479 25.3301 60.2294 25.4064 60.1984 25.4683C60.1675 25.5302 60.1242 25.5756 60.0685 25.6044C60.0128 25.6312 59.9447 25.6395 59.8643 25.6271C59.7839 25.6147 59.6911 25.5776 59.5879 25.5178C59.4848 25.458 59.392 25.3879 59.3116 25.3074C59.2332 25.227 59.1652 25.1404 59.1095 25.0496C59.0538 24.9568 59.0125 24.862 58.9816 24.765C58.9507 24.6681 58.9342 24.5712 58.93 24.4783C58.928 24.4103 58.9259 24.3381 58.928 24.2618C58.928 24.1855 58.93 24.1133 58.9321 24.0452C58.9362 23.9566 58.9548 23.8802 58.9857 23.8184C59.0167 23.7565 59.06 23.7091 59.1157 23.6843C59.1734 23.6575 59.2394 23.6493 59.3198 23.6596C59.4003 23.6699 59.4931 23.707 59.5962 23.7668C59.6993 23.8266 59.7921 23.8967 59.8705 23.9792C59.9489 24.0617 60.019 24.1463 60.0747 24.2391C60.1304 24.3299 60.1716 24.4247 60.2025 24.5217C60.2335 24.6207 60.25 24.7155 60.2541 24.8083ZM59.8643 24.9094C59.8664 24.8743 59.8664 24.8393 59.8664 24.8001C59.8664 24.763 59.8664 24.7258 59.8643 24.6908C59.8623 24.6557 59.8622 24.6227 59.8602 24.5959C59.8561 24.5526 59.8499 24.5113 59.8375 24.4701C59.8251 24.4289 59.8086 24.3897 59.7859 24.3525C59.7633 24.3154 59.7364 24.2783 59.7055 24.2453C59.6725 24.2102 59.6354 24.1834 59.59 24.1566C59.5467 24.1319 59.5075 24.1154 59.4745 24.1112C59.4436 24.1071 59.4147 24.1133 59.392 24.1236C59.3714 24.138 59.3549 24.1566 59.3405 24.1834C59.3281 24.2102 59.3219 24.2453 59.3198 24.2845C59.3157 24.3092 59.3157 24.3402 59.3136 24.3752C59.3136 24.4082 59.3116 24.4454 59.3116 24.4825C59.3116 24.5196 59.3116 24.5588 59.3116 24.5938C59.3136 24.6289 59.3136 24.664 59.3178 24.6949C59.3219 24.7774 59.3466 24.8599 59.39 24.9383C59.4333 25.0187 59.4993 25.0826 59.5859 25.1321C59.6725 25.1816 59.7385 25.1919 59.7818 25.1631C59.8251 25.1342 59.8499 25.0806 59.8561 25.0043C59.8623 24.9754 59.8643 24.9424 59.8643 24.9094Z" fill="#FD8257"/>
<path d="M61.5657 24.9297C61.5801 24.9379 61.5946 24.9523 61.6049 24.973C61.6152 24.9915 61.6214 25.0101 61.6214 25.0286V25.2865C61.6214 25.305 61.6152 25.3153 61.6049 25.3236C61.5925 25.3298 61.5801 25.3277 61.5636 25.3194L61.1924 25.105L61.1883 26.3527C61.1883 26.3713 61.1821 26.3816 61.1697 26.3878C61.1594 26.394 61.145 26.3919 61.1285 26.3837L60.8501 26.2228C60.8356 26.2145 60.8212 26.2001 60.8109 26.1815C60.8006 26.1609 60.7944 26.1444 60.7944 26.1259L60.7985 24.8781L60.4273 24.6636C60.4128 24.6554 60.3984 24.6389 60.3881 24.6224C60.3757 24.6017 60.3695 24.5832 60.3695 24.5667V24.3089C60.3695 24.2903 60.3757 24.2779 60.3881 24.2738C60.3984 24.2656 60.4128 24.2676 60.4293 24.2759L61.5657 24.9297Z" fill="#FD8257"/>
<path d="M62.8561 25.6753C62.8726 25.6856 62.885 25.7 62.8953 25.7186C62.9077 25.7372 62.9138 25.7578 62.9138 25.7743V26.0321C62.9138 26.0506 62.9077 26.061 62.8953 26.0671C62.885 26.0733 62.8726 26.0733 62.854 26.063L62.2023 25.6877V25.9496L62.8066 26.2981C62.821 26.3064 62.8355 26.3208 62.8458 26.3414C62.8582 26.36 62.8623 26.3786 62.8623 26.3971V26.6549C62.8623 26.6735 62.8582 26.6838 62.8458 26.692C62.8334 26.6982 62.821 26.6962 62.8045 26.6879L62.2003 26.3394V26.6116L62.8685 26.9973C62.8829 27.0055 62.8974 27.02 62.9077 27.0385C62.918 27.0592 62.9242 27.0757 62.9242 27.0942V27.352C62.9242 27.3706 62.918 27.3809 62.9077 27.3891C62.8953 27.3953 62.8829 27.3933 62.8664 27.385L61.8641 26.8055C61.8496 26.7972 61.8352 26.7807 61.8249 26.7642C61.8125 26.7436 61.8063 26.725 61.8063 26.7085L61.8105 25.137C61.8105 25.1184 61.8167 25.1061 61.829 25.1019C61.8393 25.0937 61.8538 25.0957 61.8703 25.104L62.8561 25.6753Z" fill="#FD8257"/>
<path d="M63.508 26.0512C63.5224 26.0595 63.5369 26.076 63.5472 26.0945C63.5596 26.1131 63.5637 26.1317 63.5637 26.1502L63.5596 27.398L64.2051 27.7713C64.2195 27.7795 64.234 27.794 64.2443 27.8125C64.2546 27.8332 64.2608 27.8497 64.2608 27.8682V28.126C64.2608 28.1446 64.2546 28.1549 64.2443 28.1631C64.2319 28.1693 64.2195 28.1673 64.203 28.159L63.2213 27.5919C63.2069 27.5836 63.1925 27.5692 63.1822 27.5506C63.1718 27.53 63.1656 27.5135 63.1656 27.4949L63.1698 25.9234C63.1698 25.9048 63.176 25.8924 63.1863 25.8862C63.1986 25.8801 63.211 25.8801 63.2275 25.8883L63.508 26.0512Z" fill="#FD8257"/>
<path d="M69.6019 49.4121C69.6019 49.4657 69.637 49.5173 69.7071 49.5585C69.8474 49.639 70.0701 49.639 70.2083 49.5585C70.2763 49.5194 70.3114 49.4657 70.3114 49.4142V51.4168C70.3114 51.4683 70.2763 51.522 70.2083 51.5611C70.0701 51.6416 69.8474 51.6416 69.7071 51.5611C69.637 51.522 69.6019 51.4683 69.6019 51.4147V49.4121Z" fill="#FD8257"/>
<path d="M69.7062 49.5562C69.8465 49.6366 70.0692 49.6366 70.2074 49.5562C70.3456 49.4757 70.3456 49.3458 70.2053 49.2654C70.0672 49.1849 69.8424 49.187 69.7042 49.2674C69.566 49.3479 69.5681 49.4757 69.7062 49.5562Z" fill="#D36C5E"/>
<path d="M67.2519 47.5817C67.2519 47.1836 67.4746 46.8392 67.8005 46.6639C67.7469 46.5567 67.7159 46.4371 67.7159 46.3092C67.7159 45.8988 68.0212 45.5626 68.4172 45.509C68.4172 45.5048 68.4172 45.5007 68.4172 45.4987C68.4172 44.9232 68.8833 44.4551 69.4607 44.4551C69.8443 44.4551 70.1785 44.6634 70.3599 44.9707C70.5084 44.7974 70.7271 44.6861 70.9725 44.6861C71.42 44.6861 71.7851 45.0491 71.7851 45.4966C71.7851 45.5956 71.7644 45.6905 71.7315 45.7791C72.278 45.8864 72.6905 46.369 72.6905 46.9465C72.6905 47.3569 72.4822 47.7178 72.1666 47.9323C72.1831 47.9983 72.1955 48.0664 72.1955 48.1365C72.1955 48.5201 71.9294 48.8377 71.5726 48.9243C71.4448 49.3554 71.0467 49.6709 70.5724 49.6709C70.4115 49.6709 70.2589 49.6338 70.1248 49.5678C69.9887 49.6338 69.8361 49.6709 69.6773 49.6709C69.3164 49.6709 68.9988 49.4874 68.8111 49.2089C68.7966 49.2007 68.7843 49.1924 68.7698 49.1842C68.71 49.1986 68.6502 49.2069 68.5863 49.2069C68.1697 49.2069 67.8314 48.8934 67.784 48.4912C67.4643 48.3097 67.2519 47.9715 67.2519 47.5817Z" fill="#5CAD5C"/>
<path d="M73.136 50.7578C73.136 50.8114 73.171 50.863 73.2412 50.9042C73.3814 50.9847 73.6041 50.9847 73.7423 50.9042C73.8104 50.8651 73.8454 50.8114 73.8454 50.7599L73.8434 52.7625C73.8434 52.814 73.8083 52.8677 73.7403 52.9068C73.6021 52.9873 73.3793 52.9873 73.2391 52.9068C73.169 52.8677 73.1339 52.814 73.1339 52.7604L73.136 50.7578Z" fill="#FD8257"/>
<path d="M73.2409 50.9028C73.3812 50.9833 73.6039 50.9833 73.7421 50.9028C73.8803 50.8224 73.8782 50.6925 73.74 50.612C73.6019 50.5316 73.3771 50.5337 73.2389 50.6141C73.1007 50.6945 73.1007 50.8245 73.2409 50.9028Z" fill="#D36C5E"/>
<path d="M70.786 48.9284C70.786 48.5303 71.0088 48.1859 71.3346 48.0106C71.281 47.9034 71.2501 47.7837 71.2501 47.6559C71.2501 47.2454 71.5553 46.9093 71.9513 46.8557C71.9513 46.8515 71.9513 46.8474 71.9513 46.8453C71.9513 46.2699 72.4174 45.8018 72.9949 45.8018C73.3785 45.8018 73.7126 46.0101 73.8941 46.3174C74.0426 46.1441 74.2612 46.0327 74.5066 46.0327C74.9541 46.0327 75.3171 46.3957 75.3171 46.8453C75.3171 46.9443 75.2965 47.0392 75.2635 47.1279C75.81 47.2351 76.2225 47.7177 76.2225 48.2952C76.2225 48.7056 76.0142 49.0666 75.6987 49.281C75.7152 49.347 75.7275 49.4151 75.7275 49.4852C75.7275 49.8688 75.4615 50.1864 75.1047 50.2731C74.9768 50.7041 74.5788 51.0197 74.1044 51.0197C73.9436 51.0197 73.7909 50.9825 73.6569 50.9165C73.5208 50.9825 73.3702 51.0197 73.2093 51.0197C72.8484 51.0197 72.5308 50.8361 72.3431 50.5577C72.3287 50.5494 72.3163 50.5412 72.3019 50.5329C72.2421 50.5474 72.1823 50.5556 72.1183 50.5556C71.7017 50.5556 71.3635 50.2421 71.3161 49.84C70.9984 49.6564 70.786 49.3182 70.786 48.9284Z" fill="#66BB68"/>
<path d="M61.106 12.162C60.347 11.7227 59.6582 11.6835 59.1632 11.9723L60.5863 11.1452C61.0833 10.8565 61.7701 10.8977 62.5291 11.335C64.0367 12.2053 65.2556 14.3172 65.2514 16.0496C65.2494 16.7921 65.0225 17.3428 64.6472 17.6645L64.6224 17.6851L62.5064 19.4444L61.0833 20.2714L63.1993 18.5122L63.5541 18.077C63.7273 17.7656 63.8284 17.3613 63.8284 16.8746C63.8325 15.1422 62.6136 13.0323 61.106 12.162Z" fill="#CA614E"/>
<path d="M58.3654 13.7235C58.3634 14.4515 58.5799 15.2455 58.9408 15.988C58.9677 16.0437 58.9903 16.0911 59.0151 16.1385L61.0837 20.2757L63.1997 18.5165L63.2245 18.4959C63.5998 18.1741 63.8267 17.6235 63.8288 16.881C63.8329 15.1465 62.6161 13.0367 61.1064 12.1663C59.5967 11.2898 58.3716 11.989 58.3654 13.7235ZM60.7908 13.8864C60.7908 13.8616 60.7929 13.8369 60.795 13.8121C60.8424 13.8328 60.8919 13.8554 60.9414 13.8843C61.5539 14.237 62.0468 15.0908 62.0448 15.7941C62.0448 15.8209 62.0427 15.8436 62.0407 15.8684C61.9912 15.8477 61.9437 15.825 61.8922 15.7962C61.2817 15.4456 60.7888 14.5897 60.7908 13.8864Z" fill="#FD8257"/>
<path d="M60.7949 13.8142C60.7928 13.839 60.7908 13.8616 60.7908 13.8885C60.7887 14.5917 61.2816 15.4456 61.8921 15.8003C61.9416 15.8292 61.9911 15.8519 62.0406 15.8725C62.0035 16.5201 61.5229 16.7717 60.9331 16.4314C60.3205 16.0787 59.8297 15.2228 59.8317 14.5196C59.8338 13.872 60.2525 13.5832 60.7949 13.8142Z" fill="#CA614E"/>
<path d="M52.4628 63.3833C53.3455 63.8927 53.3476 64.7176 52.4711 65.2271C51.5946 65.7365 50.1715 65.7365 49.2888 65.2271L38.8117 59.178C37.929 58.6686 37.9249 57.8436 38.8014 57.3342C39.6779 56.8248 41.1031 56.8248 41.9837 57.3342L52.4628 63.3833Z" fill="#7AE2E2"/>
<path d="M43.2282 58.8735C43.3272 58.9313 43.4015 58.989 43.451 59.0489C43.5005 59.1087 43.5293 59.1643 43.5396 59.2159C43.55 59.2675 43.5438 59.3149 43.5231 59.3582C43.5005 59.4015 43.4695 59.4366 43.4303 59.4613C43.4138 59.4716 43.3932 59.4778 43.3705 59.4758C43.3458 59.4758 43.3272 59.4696 43.3107 59.4613L43.156 59.3706C43.1313 59.3562 43.1169 59.3417 43.1148 59.3293C43.1107 59.317 43.1127 59.3025 43.1189 59.2881C43.1333 59.253 43.1313 59.2159 43.1127 59.1747C43.0962 59.1334 43.0426 59.086 42.9519 59.0344C42.9127 59.0117 42.8714 58.9932 42.8302 58.9767C42.7869 58.9622 42.7456 58.9499 42.7044 58.9457C42.6631 58.9395 42.6239 58.9395 42.5868 58.9437C42.5497 58.9478 42.5167 58.9581 42.4899 58.9746C42.4548 58.9952 42.4342 59.0138 42.428 59.0344C42.4198 59.055 42.4259 59.0798 42.4445 59.1087C42.4631 59.1375 42.4919 59.1705 42.5332 59.2097C42.5744 59.2489 42.6281 59.2984 42.692 59.3541C42.7621 59.416 42.8157 59.4737 42.8549 59.5273C42.8941 59.5789 42.9147 59.6284 42.9209 59.6738C42.925 59.7191 42.9147 59.7604 42.8879 59.7996C42.8611 59.8388 42.8178 59.8759 42.7559 59.9109C42.6899 59.9501 42.6136 59.9769 42.527 59.9934C42.4404 60.0099 42.3496 60.012 42.2548 60.0037C42.1599 59.9955 42.0588 59.9749 41.9557 59.9439C41.8526 59.9109 41.7515 59.8656 41.6525 59.8099C41.57 59.7624 41.4999 59.7109 41.4442 59.6552C41.3885 59.5995 41.3494 59.5438 41.3287 59.4881C41.3081 59.4325 41.3061 59.3788 41.3246 59.3273C41.3411 59.2757 41.3803 59.2303 41.4401 59.1891C41.4566 59.1788 41.4772 59.1726 41.4999 59.1747C41.5247 59.1747 41.5432 59.1808 41.5597 59.1891L41.7165 59.2798C41.7412 59.2943 41.7557 59.3087 41.7598 59.3211C41.7639 59.3335 41.7618 59.3479 41.7536 59.3644C41.7453 59.3809 41.7371 59.3995 41.733 59.4201C41.7288 59.4407 41.7309 59.4613 41.7433 59.484C41.7536 59.5067 41.7722 59.5335 41.801 59.5603C41.8299 59.5871 41.8712 59.6181 41.9289 59.6511C41.9722 59.6758 42.0196 59.6985 42.0671 59.7191C42.1145 59.7398 42.162 59.7542 42.2094 59.7624C42.2568 59.7728 42.3001 59.7748 42.3434 59.7728C42.3847 59.7707 42.4239 59.7604 42.4569 59.7398C42.4899 59.7212 42.5043 59.7006 42.5043 59.6758C42.5043 59.6511 42.4899 59.6243 42.4631 59.5913C42.4363 59.5583 42.3971 59.5191 42.3496 59.4758C42.3001 59.4325 42.2465 59.3809 42.1846 59.3211C42.1269 59.2675 42.0836 59.218 42.0526 59.1726C42.0217 59.1272 42.0052 59.0819 42.0052 59.0406C42.0052 58.9994 42.0196 58.9602 42.0485 58.921C42.0774 58.8839 42.1269 58.8447 42.1929 58.8055C42.2589 58.7663 42.3352 58.7395 42.4218 58.7251C42.5064 58.7106 42.5951 58.7044 42.6879 58.7127C42.7786 58.7189 42.8735 58.7374 42.9684 58.7663C43.057 58.7869 43.1457 58.8261 43.2282 58.8735Z" fill="white"/>
<path d="M44.3697 60.3937C44.3264 60.4473 44.2687 60.4989 44.1924 60.5422L44.0934 60.6C44.0769 60.6103 44.0563 60.6144 44.0336 60.6144C44.0088 60.6144 43.9903 60.6103 43.9738 60.6L43.2313 60.171C43.1962 60.1916 43.1735 60.2122 43.1632 60.2349C43.1509 60.2576 43.1488 60.2824 43.155 60.305C43.1612 60.3298 43.1756 60.3525 43.1983 60.3752C43.221 60.3979 43.2478 60.4185 43.2808 60.437C43.3282 60.4638 43.3715 60.4845 43.4107 60.4948C43.4499 60.5072 43.487 60.5133 43.52 60.5154C43.5489 60.5175 43.5695 60.5216 43.584 60.5237C43.5984 60.5278 43.6149 60.534 43.6335 60.5443L43.8108 60.6474C43.8273 60.6577 43.8356 60.668 43.8376 60.6825C43.8397 60.6969 43.8294 60.7072 43.8129 60.7155C43.7902 60.7258 43.7531 60.7361 43.6995 60.7423C43.6458 60.7485 43.5819 60.7485 43.5077 60.7402C43.4334 60.734 43.353 60.7175 43.2684 60.6948C43.1839 60.6722 43.0993 60.635 43.0168 60.5876C42.9343 60.5402 42.8724 60.4886 42.8353 60.4329C42.7961 60.3772 42.7796 60.3195 42.7858 60.2617C42.792 60.204 42.8188 60.1462 42.8662 60.0885C42.9137 60.0328 42.9817 59.9771 43.0704 59.9256C43.1529 59.8781 43.2437 59.8389 43.3427 59.8121C43.4417 59.7833 43.5407 59.7688 43.6417 59.7647C43.7428 59.7606 43.8438 59.7688 43.9428 59.7915C44.0398 59.8121 44.1326 59.8472 44.2151 59.8946C44.2976 59.9421 44.3594 59.9936 44.3966 60.0514C44.4337 60.1071 44.4502 60.1648 44.4461 60.2225C44.4337 60.2844 44.411 60.338 44.3697 60.3937ZM43.4829 60.0246L43.9861 60.3154C44.0047 60.3009 44.0233 60.2844 44.0398 60.2659C44.0563 60.2473 44.0645 60.2267 44.0666 60.204C44.0686 60.1813 44.0583 60.1586 44.0418 60.1339C44.0253 60.1091 43.9903 60.0823 43.9428 60.0555C43.8995 60.0307 43.8562 60.0122 43.815 60.0039C43.7716 59.9936 43.7304 59.9874 43.6891 59.9874C43.65 59.9874 43.6108 59.9916 43.5757 59.9977C43.5365 60.0039 43.5077 60.0122 43.4829 60.0246Z" fill="white"/>
<path d="M45.6721 61.0494C45.637 61.0968 45.5834 61.1422 45.5071 61.1855L44.8575 61.5629C44.841 61.5732 44.8203 61.5773 44.7976 61.5773C44.7729 61.5773 44.7543 61.5732 44.7378 61.5629L44.5687 61.466C44.5522 61.4557 44.544 61.4454 44.544 61.4309C44.544 61.4165 44.5522 61.4062 44.5687 61.3959L44.6409 61.3525C44.5667 61.3587 44.4862 61.3546 44.3975 61.3381C44.3089 61.3216 44.2181 61.2865 44.1274 61.235C44.0634 61.1979 44.016 61.1607 43.9809 61.1216C43.9479 61.0824 43.9294 61.0432 43.9252 61.0061C43.9232 60.9689 43.9335 60.9318 43.9562 60.8968C43.9789 60.8617 44.016 60.8287 44.0655 60.7998C44.1665 60.74 44.2841 60.7153 44.414 60.7235C44.544 60.7318 44.6801 60.7648 44.8224 60.8225L45.2473 60.9957C45.3071 60.9607 45.3297 60.9236 45.3153 60.8864C45.3009 60.8493 45.2638 60.8122 45.2039 60.7792C45.1668 60.7586 45.1338 60.7441 45.1008 60.7379C45.0699 60.7318 45.0348 60.7276 44.9977 60.7276C44.973 60.7256 44.9523 60.7235 44.9379 60.7194C44.9214 60.7153 44.907 60.7091 44.8946 60.7029L44.6863 60.5833C44.6718 60.575 44.6636 60.5647 44.6615 60.5544C44.6595 60.5441 44.6677 60.5338 44.6863 60.5276C44.7234 60.5131 44.7708 60.5008 44.8265 60.4946C44.8843 60.4863 44.9461 60.4843 45.0163 60.4884C45.0864 60.4925 45.1606 60.507 45.2369 60.5276C45.3132 60.5482 45.3896 60.5812 45.4659 60.6245C45.5422 60.6678 45.5999 60.7132 45.6412 60.7606C45.6824 60.8081 45.7051 60.8534 45.7113 60.9009C45.7216 60.9545 45.7072 61.0019 45.6721 61.0494ZM44.9998 61.1463L45.0225 61.1339L44.6657 60.9896C44.5935 60.9607 44.5357 60.9442 44.4883 60.9401C44.4429 60.9359 44.4017 60.9442 44.3666 60.9648C44.3357 60.9834 44.3295 61.0061 44.346 61.0329C44.3625 61.0597 44.3934 61.0865 44.4367 61.1112C44.4862 61.1401 44.5398 61.1628 44.5914 61.1772C44.645 61.1917 44.6966 61.1999 44.7461 61.202C44.7976 61.2041 44.843 61.1999 44.8863 61.1917C44.9317 61.1772 44.9688 61.1649 44.9998 61.1463Z" fill="white"/>
<path d="M46.9305 61.4963C46.947 61.5067 46.9553 61.517 46.9553 61.5314C46.9553 61.5458 46.947 61.5562 46.9326 61.5665L46.7861 61.651C46.7696 61.6613 46.749 61.6655 46.7263 61.6655C46.7016 61.6655 46.683 61.6613 46.6665 61.651L46.5221 61.5685C46.4335 61.517 46.3489 61.4922 46.2705 61.4922C46.1922 61.4922 46.1097 61.519 46.021 61.5685L45.4456 61.9026C45.4291 61.913 45.4084 61.9171 45.3858 61.9171C45.3631 61.9171 45.3424 61.913 45.3259 61.9026L45.1568 61.8057C45.1403 61.7954 45.1321 61.7851 45.1321 61.7706C45.1321 61.7562 45.1403 61.7459 45.1548 61.7356L46.186 61.1375C46.2025 61.1272 46.2231 61.123 46.2458 61.123C46.2705 61.123 46.2891 61.1272 46.3056 61.1375L46.4747 61.2344C46.4912 61.2447 46.4995 61.255 46.4995 61.2695C46.4995 61.2839 46.4912 61.2942 46.4768 61.3045L46.4252 61.3334C46.4995 61.3355 46.5675 61.3437 46.6294 61.3582C46.6933 61.3726 46.7593 61.3994 46.8315 61.4407L46.9305 61.4963Z" fill="white"/>
<path d="M47.677 61.9026C47.7718 61.9562 47.8399 62.0119 47.8791 62.0676C47.9203 62.1233 47.941 62.1748 47.9451 62.2243C47.9492 62.2738 47.9389 62.3172 47.9162 62.3543C47.8915 62.3914 47.8647 62.4203 47.8358 62.4388C47.8213 62.4492 47.8007 62.4533 47.776 62.4533C47.7512 62.4533 47.7327 62.4471 47.7162 62.4388L47.547 62.3419C47.5305 62.3316 47.5223 62.3213 47.5244 62.3068C47.5264 62.2924 47.5285 62.278 47.5326 62.2656C47.5388 62.2491 47.5429 62.2326 47.5429 62.2161C47.545 62.2017 47.5409 62.1852 47.5347 62.1687C47.5285 62.1522 47.514 62.1336 47.4955 62.1171C47.4769 62.0985 47.448 62.08 47.4109 62.0573C47.38 62.0387 47.3449 62.0243 47.3057 62.014C47.2665 62.0016 47.2253 61.9954 47.1799 61.9934C47.1346 61.9913 47.0892 61.9934 47.0397 62.0037C46.9922 62.014 46.9407 62.0305 46.8912 62.0532C46.8664 62.0635 46.8376 62.0779 46.8087 62.0965C46.7798 62.113 46.7551 62.1295 46.7365 62.1439C46.6953 62.1728 46.6664 62.2017 46.6499 62.2305C46.6334 62.2594 46.6293 62.2862 46.6334 62.311C46.6375 62.3378 46.6499 62.3605 46.6705 62.3831C46.6911 62.4058 46.7159 62.4265 46.7468 62.445C46.7839 62.4656 46.8169 62.4821 46.8499 62.4945C46.8809 62.5048 46.9098 62.5131 46.9407 62.5172C46.9696 62.5213 46.9964 62.5234 47.0232 62.5213C47.05 62.5213 47.0768 62.5172 47.1077 62.5151C47.1304 62.5131 47.1552 62.511 47.1799 62.509C47.2047 62.509 47.2253 62.5131 47.2418 62.5213L47.4109 62.6183C47.4274 62.6286 47.4357 62.6389 47.4377 62.6533C47.4377 62.6678 47.4295 62.6781 47.413 62.6884C47.38 62.7049 47.3325 62.7214 47.2665 62.7358C47.2026 62.7482 47.1263 62.7544 47.0417 62.7523C46.9572 62.7503 46.8664 62.7379 46.7716 62.7152C46.6767 62.6925 46.5798 62.6533 46.4849 62.5976C46.4024 62.5502 46.3426 62.5007 46.3055 62.4471C46.2683 62.3935 46.2477 62.3398 46.2457 62.2842C46.2436 62.2285 46.2601 62.1769 46.2931 62.1253C46.3261 62.0738 46.3756 62.0264 46.4375 61.9851C46.4601 61.9686 46.489 61.95 46.52 61.9315C46.553 61.9129 46.5839 61.8964 46.6169 61.882C46.6891 61.8449 46.7695 61.816 46.8603 61.7974C46.951 61.7768 47.0417 61.7686 47.1366 61.7686C47.2294 61.7686 47.3243 61.7809 47.4171 61.8015C47.5079 61.8201 47.5945 61.8552 47.677 61.9026Z" fill="white"/>
<path d="M49.0899 62.2577C49.1063 62.2681 49.1146 62.2784 49.1146 62.2928C49.1146 62.3072 49.1064 62.3176 49.0919 62.3279L48.6217 62.6022C48.698 62.6022 48.7743 62.6104 48.8506 62.6249C48.929 62.6414 49.0012 62.6682 49.0734 62.7094C49.1641 62.761 49.226 62.8125 49.259 62.8641C49.292 62.9157 49.3043 62.9651 49.294 63.0146C49.2837 63.0641 49.2548 63.1095 49.2074 63.157C49.16 63.2023 49.1022 63.2456 49.0321 63.2848L48.4381 63.6313C48.4216 63.6416 48.4031 63.6457 48.3783 63.6457C48.3536 63.6457 48.335 63.6416 48.3185 63.6313L48.1494 63.5344C48.1329 63.5241 48.1246 63.5138 48.1246 63.4993C48.1246 63.4849 48.1329 63.4746 48.1494 63.4643L48.7104 63.1384C48.7991 63.0868 48.8486 63.0332 48.8609 62.9796C48.8733 62.9239 48.8362 62.8723 48.7496 62.8228C48.6712 62.7775 48.5825 62.7568 48.4835 62.763C48.3845 62.7672 48.2917 62.796 48.203 62.8476L47.642 63.1735C47.6255 63.1838 47.6049 63.1879 47.5822 63.1879C47.5595 63.1879 47.5389 63.1838 47.5224 63.1735L47.3533 63.0765C47.3368 63.0662 47.3286 63.0559 47.3286 63.0415C47.3286 63.027 47.3368 63.0167 47.3533 63.0064L48.8032 62.1629C48.8197 62.1526 48.8382 62.1484 48.863 62.1484C48.8877 62.1484 48.9063 62.1526 48.9228 62.1629L49.0899 62.2577Z" fill="white"/>
<path d="M75.672 63.6681C75.672 63.6681 80.9373 60.8117 82.3831 57.3757C82.6698 56.6972 82.8863 56.1795 83.0018 55.7402C82.0345 56.293 76.7445 59.2216 76.1938 59.5701" fill="#F9D0AF"/>
<path opacity="0.47" d="M82.6243 55.9588C82.6243 55.9588 82.6016 56.1032 82.5769 56.2208C82.3583 57.3159 82.1005 57.9738 82.1005 57.9738C82.1005 57.9738 83.0017 56.1012 83.0017 55.7402C82.7811 55.8681 82.6243 55.9588 82.6243 55.9588Z" fill="#EAB28C"/>
<path d="M58.712 68.7858L57.4622 65.0364C57.4622 65.0364 52.6217 61.5488 53.1125 59.8288C53.6055 58.1087 54.5067 57.6179 55.1481 57.7932C56.3423 58.1232 59.9453 60.662 61.5066 61.5921C61.8695 61.8087 62.1521 62.1325 62.3171 62.5202L64.6744 67.5876L59.1925 75.07C59.1925 75.07 58.0046 71.9186 58.712 68.7858Z" fill="#F9D0AF"/>
<path opacity="0.47" d="M54.4965 58.8574C54.4965 58.8574 55.9258 60.1423 56.8064 60.2619C57.6871 60.3815 58.0521 59.3895 58.0521 59.3895C57.7221 59.1667 56.0227 57.9231 54.843 57.7024C54.4429 57.6282 53.8922 58.251 53.8922 58.251L54.4965 58.8574Z" fill="#EAB28C"/>
<path d="M70.373 63.8597L70.736 59.9247C70.736 59.9247 67.7042 54.7851 68.8468 53.4074C69.9894 52.0297 71.0123 51.9431 71.5279 52.3618C72.489 53.1434 74.768 56.9177 75.8239 58.3943C76.0694 58.7367 76.1972 59.1492 76.1931 59.5699L75.6713 63.6659C75.5105 64.9343 74.735 66.0418 73.5986 66.6275C71.8847 67.5123 69.5295 68.6858 69.2036 68.6363C67.632 68.4032 69.8883 64.7404 70.373 63.8597Z" fill="#F9D0AF"/>
<path opacity="0.47" d="M70.5049 53.0756C70.5049 53.0756 71.2969 54.8266 72.0559 55.2907C72.8148 55.7547 73.547 54.9937 73.547 54.9937C73.3345 54.6575 72.2765 52.8343 71.2866 52.1599C70.9504 51.931 70.1956 52.2796 70.1956 52.2796L70.5049 53.0756Z" fill="#EAB28C"/>
<path d="M65.0862 67.7084C64.7253 66.77 63.9127 64.3652 64.2117 62.4637C64.2117 62.4637 59.9116 57.5386 60.8892 55.2081C61.6523 53.3932 62.999 53.5685 63.7725 54.313C64.5479 55.0555 68.4892 58.7596 68.9553 59.3783C69.4214 59.997 70.2711 61.5583 70.5372 63.1649L70.9847 66.1595" fill="#F9D0AF"/>
<path d="M65.247 68.1081C65.247 68.1081 65.1831 67.9617 65.0841 67.708L65.247 68.1081Z" fill="#F9D0AF"/>
<path opacity="0.47" d="M62.1082 55.0102C62.1082 55.0102 63.4302 56.7447 64.3789 57.0685C65.3276 57.3923 66.2124 56.8004 66.2124 56.8004C66.2124 56.8004 63.6261 53.8594 62.8775 53.7006C62.069 53.5274 61.4854 54.2513 61.4854 54.2513L62.1082 55.0102Z" fill="#EAB28C"/>
<path opacity="0.08" d="M63.8974 70.3799C64.3119 69.3817 64.6089 68.6186 64.6089 68.4804C64.6068 68.0267 64.2603 66.6366 64.2603 66.6366L64.7594 66.3438C64.7594 66.3438 65.6669 67.3935 65.3637 68.4288C65.0606 69.4642 62.6104 74.3768 62.6104 74.3768L62.0391 74.5088C62.0391 74.5088 63.6231 70.9574 64.58 68.6557" fill="#141313"/>
<path opacity="0.08" d="M70.5529 61.9131C70.5529 61.9131 71.6027 63.9487 71.6027 65.3594C71.6027 65.8007 71.2315 67.8178 71.2315 67.8178L70.3488 68.2303C70.3488 68.2303 70.986 65.3841 70.9139 64.8871C70.8458 64.4375 70.4622 62.7772 70.4622 62.7772L70.5529 61.9131Z" fill="#141313"/>
<path opacity="0.08" d="M76.7483 59.2471C76.7483 59.2471 76.7916 59.9751 76.7235 60.8393C76.6885 61.2806 76.1914 63.3657 76.1914 63.3657L75.6717 63.6668C75.6717 63.6668 76.276 60.7815 76.276 60.2803C76.276 60.0246 76.212 59.5667 76.212 59.5667L76.7483 59.2471Z" fill="#141313"/>
</svg>
