<svg width="65" height="71" viewBox="0 0 65 71" fill="none" xmlns="http://www.w3.org/2000/svg">
<path d="M40.2394 19.9902C42.4065 17.6126 45.7477 12.8368 47.9972 10.3915C48.4601 9.88807 48.0751 9.11122 47.365 9.11122H43.2715L47.1327 0.951972C47.2975 0.603605 46.7897 0.326047 46.5453 0.630998L37.209 12.308C36.9369 12.6486 37.2345 13.1283 37.6864 13.0761L42.3207 12.5427L39.5636 19.6207C39.412 20.0104 39.9518 20.3055 40.2394 19.9902Z" fill="#FEBB02"/>
<path d="M54.2055 66.3638L7.45714 66.3985C5.1581 66.4002 3.08647 65.2973 1.91626 63.4478C0.74606 61.5982 0.709647 59.3708 1.81901 57.489L25.1594 17.8904C26.3062 15.9446 28.4103 14.782 30.7876 14.7802C33.1649 14.7783 35.2709 15.9379 36.4209 17.8823L59.8289 57.4462C60.9414 59.3265 60.909 61.5542 59.7419 63.4051C58.5742 65.2559 56.5046 66.3621 54.2055 66.3638ZM30.7905 18.0848C29.7204 18.0854 28.7734 18.609 28.2573 19.4847L4.91683 59.0833C4.41772 59.9302 4.43417 60.9331 4.96095 61.7651C5.48769 62.5977 6.42018 63.0941 7.4548 63.0934L54.2032 63.0587C55.2378 63.058 56.1697 62.5601 56.6948 61.7271C57.2199 60.8941 57.2351 59.8912 56.734 59.0451L33.326 19.4811C32.8081 18.6062 31.8601 18.0842 30.7905 18.0848Z" fill="#FEBB02"/>
<path d="M27.54 56.1242C27.5456 55.6757 27.6358 55.2616 27.8123 54.8825C27.9884 54.5038 28.2345 54.1765 28.551 53.901C28.8675 53.6259 29.2464 53.4119 29.6884 53.2602C30.1299 53.1088 30.6269 53.0353 31.1786 53.0412C31.7298 53.047 32.2288 53.1309 32.6738 53.2915C33.1193 53.4526 33.4969 53.6747 33.8064 53.9565C34.1164 54.2387 34.3543 54.5712 34.5211 54.9532C34.6879 55.3361 34.7685 55.7514 34.7633 56.2004C34.7577 56.6489 34.6669 57.0597 34.4911 57.4317C34.3152 57.8042 34.0691 58.1278 33.7526 58.4033C33.436 58.6788 33.0532 58.8925 32.6041 59.044C32.155 59.1955 31.6546 59.2687 31.1029 59.2629C30.5512 59.257 30.0562 59.1735 29.6187 59.0127C29.1808 58.8518 28.8071 58.6301 28.4971 58.3479C28.1876 58.0661 27.9489 57.7373 27.7823 57.3611C27.6153 56.9852 27.5348 56.5728 27.54 56.1242ZM33.8946 50.3859L28.5273 50.3292L27.9742 33.1836L34.8622 33.2562L33.8946 50.3859Z" fill="#FEBB02"/>
</svg>
