<svg width="89" height="58" viewBox="0 0 89 58" fill="none" xmlns="http://www.w3.org/2000/svg">
<path d="M6.71263 57.8086C6.71263 57.8086 -4.27686 47.1421 2.71464 34.5927C9.70614 22.0434 19.0959 28.3544 18.6416 13.7483C18.1872 -0.857909 40.2368 -2.11298 47.2552 2.12232C54.2736 6.35763 54.2317 11.4583 68.7204 9.77054C83.2095 8.08278 85.9772 22.1514 82.2078 29.3215C76.8597 39.4946 97.0513 37.8166 84.3283 57.8083L6.71263 57.8086Z" fill="#7A65E1"/>
<path d="M43.0087 18.9147C43.0087 18.7166 43.044 18.5331 43.1149 18.365C43.1855 18.1969 43.2858 18.0511 43.4151 17.9277C43.5445 17.8047 43.6996 17.7086 43.8814 17.6394C44.0628 17.5705 44.2676 17.5356 44.4955 17.5356C44.723 17.5356 44.9295 17.5702 45.1141 17.6394C45.2986 17.7086 45.4559 17.8047 45.5849 17.9277C45.7142 18.0511 45.8141 18.1969 45.8851 18.365C45.9557 18.5331 45.9913 18.7166 45.9913 18.9147C45.9913 19.1129 45.956 19.295 45.8851 19.46C45.8141 19.6253 45.7142 19.7696 45.5849 19.8927C45.4556 20.016 45.2986 20.1121 45.1141 20.181C44.9295 20.2499 44.723 20.2848 44.4955 20.2848C44.2676 20.2848 44.0628 20.2502 43.8814 20.181C43.6996 20.1118 43.5445 20.0157 43.4151 19.8927C43.2858 19.7696 43.1859 19.6253 43.1149 19.46C43.044 19.2947 43.0087 19.1129 43.0087 18.9147ZM45.6034 16.3497H43.3872L43.0733 8.77734H45.9172L45.6034 16.3497Z" fill="#FEBB02"/>
<path d="M66.7197 35.9895C66.3642 36.649 65.9214 37.3148 65.4674 37.8569V37.8573C64.992 38.4249 64.5055 38.8562 64.0949 39.0022L64.0917 39.0033C64.0704 39.0106 64.0491 39.0176 64.0281 39.0232C64.0271 39.0239 64.026 39.0239 64.025 39.0239C64.0246 39.0243 64.0246 39.0243 64.0246 39.0243C63.9411 39.0477 63.8617 39.0585 63.7859 39.055C62.4382 38.9946 61.0178 36.1038 61.0178 36.1038C61.0178 36.1038 61.0549 35.7609 61.317 35.5191C61.5456 35.308 61.7217 35.2528 61.7217 35.2528C61.7217 35.2528 63.1732 36.743 63.5276 36.8503C63.7506 36.9174 64.0438 35.8766 64.4639 34.5698C64.8844 33.2627 66.3604 32.9404 66.3604 32.9404C66.3604 32.9404 67.8541 33.8855 66.7197 35.9895Z" fill="white"/>
<path d="M65.4674 37.8575C64.9921 38.4254 64.5056 38.8567 64.0949 39.0028L64.0918 39.0039L64.0282 39.0238L64.0247 39.0248C64.0247 39.0248 64.0247 39.0248 64.025 39.0245C64.0397 39.0147 64.4794 38.7868 64.5482 38.3636C64.6188 37.9312 64.1613 37.5775 65.3108 36.9089C65.9801 36.5196 65.4674 37.8575 65.4674 37.8575Z" fill="#6150B0"/>
<path d="M64.4154 57.6845H67.5739C67.8 57.5311 67.5127 56.0306 67.5127 56.0306C67.5127 56.0306 66.6505 55.7035 66.5019 56.3686C66.3527 57.0334 65.4038 57.2448 64.9019 57.3259C64.5584 57.3818 64.4497 57.5706 64.4154 57.6845Z" fill="#24406D"/>
<path d="M69.2319 42.1319C69.2319 42.1319 69.1323 43.9745 69.0079 46.1097C68.9181 47.6405 68.816 49.322 68.7286 50.5812C68.7171 50.7483 68.7052 50.908 68.6944 51.059C68.6912 51.1058 68.6877 51.1523 68.6842 51.1988C68.4581 54.0225 67.7018 56.4963 67.7018 56.4963C66.8137 56.6836 66.4128 56.3411 66.4128 56.3411C66.4128 56.3411 65.8008 49.1699 65.5743 46.2778C65.4076 44.1486 65.2654 41.0488 65.2654 41.0488L69.2319 42.1319Z" fill="#FEBB02"/>
<path d="M69.0076 46.1095C68.9177 47.6403 68.8157 49.3218 68.7283 50.581C68.1478 49.2117 66.9615 43.874 66.9615 43.874L69.0076 46.1095Z" fill="#ED7D2B"/>
<path d="M69.0995 57.6845H72.258C72.4841 57.5311 72.1968 56.0306 72.1968 56.0306C72.1968 56.0306 71.3349 55.7035 71.186 56.3686C71.0368 57.0334 70.0879 57.2448 69.586 57.3259C69.2424 57.3818 69.1341 57.5706 69.0995 57.6845Z" fill="#24406D"/>
<path d="M66.123 41.7655C66.123 41.7655 68.3788 47.3799 69.0998 49.508C69.6136 51.0238 71.0619 56.3423 71.0619 56.3423C71.0619 56.3423 71.6917 56.5338 72.2212 56.1633C72.2212 56.1633 72.7601 50.7299 71.6714 49.198C71.0941 48.3851 71.5278 40.7487 69.1865 40.6834C66.8444 40.6177 66.123 41.7655 66.123 41.7655Z" fill="#FEBB02"/>
<path d="M70.7414 39.9604C70.732 40.7587 70.7233 41.3448 70.7253 41.493C70.7316 41.976 70.4227 42.085 70.1043 42.1588C70.1043 42.1588 69.81 42.222 69.4388 42.2849C69.0753 42.3458 68.6371 42.4059 68.3274 42.4038C66.7438 42.3912 65.4185 41.9249 65.4185 41.9249C65.1203 41.9249 64.9847 41.464 64.9358 40.8205C64.9026 40.385 65.0372 36.041 65.0539 34.9562C65.0655 34.1782 65.4926 33.4592 65.6121 33.3544C66.7179 32.3765 69.9812 32.4998 70.5684 33.1744C70.7138 33.3411 70.7561 34.9495 70.761 36.711C70.7641 37.8452 70.7526 39.0426 70.7414 39.9604Z" fill="white"/>
<path d="M68.7822 32.7867C68.3656 33.2383 66.9662 33.1712 67.0077 32.7773C67.0133 32.7287 67.0224 32.4403 67.027 32.3956C67.0305 32.3596 67.034 32.3247 67.0368 32.2915C67.0462 32.1943 67.0539 32.1087 67.0602 32.0342C67.0787 31.8182 67.085 31.7011 67.085 31.7011C67.085 31.7011 67.0857 31.7011 67.0864 31.7011C67.1266 31.69 68.0262 31.4345 68.4736 31.3286C68.6239 31.2929 68.7235 31.2744 68.7217 31.2873C68.5847 32.2925 68.9188 32.6385 68.7822 32.7867Z" fill="#FEBB02"/>
<path d="M68.5212 31.6245C68.5212 31.6245 68.1455 32.0062 67.0603 32.0338C67.0788 31.8178 67.0851 31.7007 67.0851 31.7007C67.0851 31.7007 67.0858 31.7007 67.0865 31.7007C67.1267 31.6895 68.0263 31.434 68.4737 31.3281C68.5527 31.3603 68.4482 31.5703 68.5212 31.6245Z" fill="#ED975D"/>
<path d="M66.8102 31.6476C66.8102 31.6476 67.0849 31.7461 67.4351 31.7933C67.9475 31.8625 68.621 31.8216 68.8325 31.2019C69.189 30.1587 69.644 29.5334 68.5955 29.1073C68.0342 28.8795 67.6749 28.8672 67.431 28.9543C67.2192 29.0294 67.094 29.1793 66.9993 29.3279C66.7956 29.647 66.3859 31.4648 66.8102 31.6476Z" fill="#FEBB02"/>
<path d="M67.0782 28.5207C66.7035 28.7668 66.8259 29.3434 67.2673 29.421C67.5319 29.4675 67.7538 29.4769 67.8821 29.5339C68.1428 29.65 68.3672 29.7726 68.3053 30.1774C68.2843 30.3151 68.2172 30.4825 68.5716 30.3993C68.6297 30.3857 68.6716 30.3899 68.7002 30.407C68.847 30.494 68.6594 30.9166 68.6027 31.0081C68.6027 31.0081 68.5213 31.3108 68.702 31.4583C68.724 31.4758 69.0791 31.6313 69.9354 30.321C70.07 30.1155 70.1986 29.652 69.9906 29.2057C69.783 28.7598 69.2039 28.1953 68.1131 28.1953C67.8293 28.195 67.4025 28.3075 67.0782 28.5207Z" fill="#233862"/>
<path d="M70.7414 39.9597C70.5821 40.7003 70.6226 40.708 70.3783 40.5137C69.3822 39.7221 69.6734 39.3072 69.8946 38.6211C70.1158 37.935 69.3389 36.8621 69.8946 36.4046C70.4377 35.9576 70.7474 36.6782 70.761 36.7104C70.7642 37.8445 70.7526 39.0419 70.7414 39.9597Z" fill="#6150B0"/>
<path d="M70.717 39.8643C70.717 39.8643 70.3417 40.4783 70.0956 40.4567C69.8496 40.435 69.5172 40.3431 69.3256 40.5262C69.1338 40.7094 68.8248 41.1812 68.9111 41.307C68.9975 41.4328 69.3449 41.3213 69.5944 41.1836C69.844 41.0459 70.2368 41.2514 70.4465 41.0952C70.6559 40.939 71.1574 40.3179 71.1574 40.3179L70.717 39.8643Z" fill="#FEBB02"/>
<path d="M70.5684 33.1738C70.5684 33.1738 73.6842 36.1058 73.2795 38.0561C73.0949 38.9449 72.5231 39.6945 70.9982 40.9084C70.9982 40.9084 70.2769 40.41 70.1185 40.0053C70.1185 40.0053 71.5026 38.0561 71.4491 37.724C71.3838 37.3179 70.439 36.2991 70.1 36.1408C69.761 35.9825 69.7925 33.5139 70.5684 33.1738Z" fill="white"/>
<path d="M70.0954 40.457C70.0954 40.457 69.7669 40.3134 69.6614 40.2519C69.5558 40.1904 69.5792 40.29 69.6114 40.3399C69.6435 40.3899 69.7316 40.5011 69.8606 40.513C69.9899 40.5245 70.0954 40.457 70.0954 40.457Z" fill="#FEBB02"/>
<path d="M15.3072 34.0858C15.1947 33.8684 17.7649 33.0862 17.8055 35.2304C17.8055 35.2304 22.6206 35.1119 20.3216 32.4284C19.5257 31.4995 19.6075 30.7312 19.6313 30.0162C19.6554 29.3011 19.1357 27.2226 17.3532 27.4319C17.3532 27.4319 16.8866 27.2421 16.304 27.5441C14.9797 28.2309 12.0124 34.8764 15.3072 34.0858Z" fill="#163560"/>
<path d="M23.1792 36.0542C23.1792 36.0542 23.4927 35.5772 23.745 35.5677C23.9977 35.5583 24.4654 35.4272 24.428 35.5209C24.3906 35.6145 24.1005 35.6236 24.0725 35.6799C24.0446 35.7362 24.5028 35.8201 24.6338 35.8295C24.7649 35.8389 25.0735 35.8295 25.0641 35.8949C25.0546 35.9602 24.5077 36.2318 24.1215 36.1944C23.7356 36.157 23.2582 36.3066 23.2582 36.3066L23.1792 36.0542Z" fill="#FEBB02"/>
<path d="M18.6464 36.2084C18.6464 36.2084 18.8166 36.5457 19.1259 36.9333C19.4985 37.3999 20.0727 37.9384 20.7937 38.045C21.138 38.0957 21.4749 38.0216 21.7846 37.8843C21.7853 37.8839 21.7856 37.8839 21.7856 37.8839C22.6611 37.4953 23.3196 36.6012 23.3196 36.6012C23.4741 36.1801 23.2214 35.8949 23.2214 35.8949C23.2214 35.8949 21.4532 36.2926 21.2848 36.2084C21.1163 36.1242 20.0811 33.8272 19.8944 33.4449C19.4981 32.6316 18.869 32.3984 18.869 32.3984L18.6464 36.2084Z" fill="#AEC3FF"/>
<path d="M19.1259 36.9329C19.4985 37.3995 20.0727 37.9381 20.7937 38.0447C21.138 38.0954 21.4749 38.0213 21.7846 37.8839C21.7503 37.8885 20.8759 37.9965 20.5271 37.373C20.1716 36.7369 19.7868 35.7264 19.2587 36.063C19.0308 36.2084 19.041 36.5694 19.1259 36.9329Z" fill="#94B0ED"/>
<path d="M12.0498 55.2943C12.0498 55.2943 11.5102 55.7867 11.6157 56.1366C11.7209 56.4865 12.2078 56.7196 12.2739 57.1474C12.3396 57.5752 12.6027 57.8083 12.8397 57.8083C13.0767 57.8083 13.969 57.8083 13.969 57.8083C13.969 57.8083 14.1434 57.5074 13.7222 57.4168C13.3011 57.326 13.1424 56.8237 13.1686 56.3571C13.1948 55.8906 13.1291 55.2688 13.1291 55.2688L12.2344 55.0615L12.0498 55.2943Z" fill="#1D3356"/>
<path d="M16.6166 55.5039C16.6166 55.5039 16.4226 57.5898 16.6592 57.7065L19.6905 57.7002C19.6905 57.7002 19.6905 57.3503 19.2036 57.2724C18.7168 57.1948 17.8615 56.9096 17.7165 56.2746C17.5721 55.6399 16.6166 55.5039 16.6166 55.5039Z" fill="#1D3356"/>
<path d="M14.2846 34.801C14.2846 34.801 14.2395 35.4378 14.2846 36.2021C14.3146 36.7089 14.827 37.3873 14.8997 37.5551C15.0821 37.9759 15.288 38.0444 15.288 38.0444L16.8796 38.4344L17.4392 38.5714L19.2042 38.0444C19.2042 38.0444 20.0081 35.8006 19.6851 34.5378C19.3625 33.2747 18.8694 32.3978 18.8694 32.3978C18.8694 32.3978 17.673 31.9256 15.5543 32.2783L14.2846 34.801Z" fill="#AEC3FF"/>
<path d="M14.7505 36.4089C14.7805 36.9156 14.827 37.3871 14.8997 37.5552C15.0822 37.976 15.288 38.0445 15.288 38.0445L16.8797 38.4346L17.571 38.2315C17.571 38.2315 15.2632 37.8817 15.519 35.8965L14.7505 36.4089Z" fill="#F2CCAA"/>
<path d="M19.0917 38.3857C19.0917 38.3857 19.9659 41.1063 20.0218 42.0325C20.078 42.9587 18.3511 55.19 18.2816 55.6167C18.2162 56.019 17.7164 56.2755 17.7164 56.2755C17.7164 56.2755 17.4868 56.4111 17.1586 56.3185C16.7036 56.1899 16.5599 56.0361 16.5599 56.0361C16.5599 56.0361 15.8798 47.3128 16.3006 44.1966C16.7214 41.0804 16.7266 38.3857 16.7266 38.3857H19.0917Z" fill="#C7BCFC"/>
<path d="M15.3886 38.3047C15.3886 38.3047 14.0556 40.0935 13.9312 41.3027C13.8068 42.512 13.7362 46.7592 13.4716 47.9381C13.2067 49.117 12.234 51.3853 12.234 55.0621C12.234 55.0621 12.335 55.2728 12.6475 55.385C12.7474 55.421 12.8809 55.4556 13.011 55.4857C13.2685 55.5447 13.5328 55.4189 13.6502 55.1823C14.308 53.858 16.4029 49.5871 16.5106 48.7004C16.5867 48.073 17.248 43.9205 18.6911 41.4838C19.0375 40.8987 18.4786 38.5724 18.4786 38.5724L15.3886 38.3047Z" fill="white"/>
<path d="M19.2311 37.9658C19.2311 37.9658 18.8802 38.2433 18.1833 38.2573C17.3508 38.2741 15.2876 38.0452 15.2876 38.0452C15.2876 38.0452 15.1961 38.3013 15.1996 38.5715C15.1996 38.5715 17.7191 39.2069 19.179 38.6645C19.1794 38.6645 19.3678 38.3101 19.2311 37.9658Z" fill="#233862"/>
<path d="M18.0033 38.5442C18.0033 38.3072 18.1739 38.1143 18.3832 38.1143C18.5926 38.1143 18.7631 38.3072 18.7631 38.5442C18.7631 38.7811 18.5926 38.974 18.3832 38.974C18.1735 38.9744 18.0033 38.7815 18.0033 38.5442ZM18.1291 38.5442C18.1291 38.7119 18.2431 38.8482 18.3832 38.8482C18.5234 38.8482 18.6373 38.7119 18.6373 38.5442C18.6373 38.3764 18.5234 38.2401 18.3832 38.2401C18.2431 38.2401 18.1291 38.3767 18.1291 38.5442Z" fill="white"/>
<path d="M12.8431 38.691L14.8891 40.4725C15.037 40.6011 15.2614 40.5857 15.39 40.4379L18.0008 37.4398C18.1294 37.292 18.114 37.0676 17.9662 36.939L15.9202 35.1575C15.7723 35.0289 15.548 35.0443 15.4193 35.1921L12.8085 38.1902C12.6799 38.338 12.6953 38.5621 12.8431 38.691Z" fill="#FEBB02"/>
<path d="M15.8698 38.4658C15.8989 38.4735 16.9568 38.5979 16.9568 38.8164C16.9572 39.0691 16.6468 39.4077 16.3546 39.3917C16.2361 39.385 15.6906 38.8835 15.6906 38.8835L15.8698 38.4658Z" fill="#FEBB02"/>
<path d="M16.4134 32.1625C16.5336 31.8707 16.6039 31.4261 16.6021 30.876L16.6822 30.8917L18.0257 31.1577C18.0257 31.1577 17.9953 31.5806 17.9942 31.979C17.9942 31.9822 17.9942 31.9857 17.9942 31.9888C17.9925 32.3348 18.228 32.6819 17.673 32.8192C17.5011 32.8615 16.1604 32.7755 16.4134 32.1625Z" fill="#FEBB02"/>
<path d="M18.0254 31.1576C18.0254 31.1576 17.9946 31.5805 17.9939 31.9789C17.2421 31.9576 16.8448 31.2719 16.6819 30.8916L18.0254 31.1576Z" fill="#FEBB02"/>
<path d="M18.2767 31.5349C18.2767 31.5349 16.4977 31.5643 16.4966 30.4563C16.4952 29.3481 16.2649 28.6057 17.4008 28.54C18.5367 28.4743 18.7576 28.8969 18.8481 29.2666C18.9379 29.6368 18.7391 31.4989 18.2767 31.5349Z" fill="#FEBB02"/>
<path d="M18.2107 28.5134C18.2107 28.5134 17.7235 29.8136 16.9762 30.0058C16.2287 30.198 15.9047 29.9978 15.9047 29.9978C15.9047 29.9978 16.4779 29.5424 16.597 28.7472C16.597 28.7469 17.8434 27.8944 18.2107 28.5134Z" fill="#163560"/>
<path d="M18.09 28.6193C18.09 28.6193 18.451 28.7542 18.5999 29.0177C18.7453 29.2753 18.869 29.6164 18.8404 30.0351C18.8404 30.0351 19.2073 29.1516 18.7949 28.6518C18.3573 28.1212 18.09 28.6193 18.09 28.6193Z" fill="#163560"/>
<path d="M15.87 38.4653C15.87 38.4653 16.1234 38.3839 16.2929 38.4077C16.4624 38.4314 16.5875 38.4042 16.5875 38.4517C16.5875 38.4992 16.3687 38.5213 16.3223 38.544C16.2761 38.567 15.87 38.4653 15.87 38.4653Z" fill="#FEBB02"/>
<path d="M15.5539 32.2783C15.5539 32.2783 14.2912 32.3667 13.8071 33.5435C13.323 34.7203 12.4045 36.6957 12.4045 37.0281C12.4045 37.3605 12.9176 38.3849 15.6728 38.9741C15.6728 38.9741 15.9576 38.6743 15.9405 38.4373C15.9405 38.4373 14.2206 36.9599 14.2251 36.7873C14.2339 36.4608 14.5072 36.0296 16.017 34.519C16.4277 34.1087 15.5539 32.2783 15.5539 32.2783Z" fill="#AEC3FF"/>
<path d="M50.8438 22.252H37.198C36.8681 22.252 36.5515 22.383 36.318 22.6165L26.6689 32.2656C26.4354 32.4991 26.3043 32.8154 26.3043 33.1453V46.7911C26.3043 47.121 26.4354 47.4376 26.6689 47.6708L36.318 57.3199C36.5515 57.5534 36.8678 57.6844 37.198 57.6844H50.8438C51.1737 57.6844 51.4904 57.5534 51.7235 57.3199L61.3726 47.6708C61.6061 47.4373 61.7372 47.121 61.7372 46.7911V33.1453C61.7372 32.8154 61.6061 32.4987 61.3726 32.2656L51.7235 22.6161C51.4904 22.383 51.1737 22.252 50.8438 22.252Z" fill="#FEBB02"/>
<path d="M49.8839 55.9107H38.158C37.6802 55.9107 37.2314 55.7248 36.8935 55.3872L28.6022 47.0955C28.2645 46.7579 28.0782 46.3088 28.0782 45.831V34.1051C28.0782 33.6273 28.2642 33.1786 28.6022 32.8406L36.8935 24.5493C37.2314 24.2117 37.6802 24.0254 38.158 24.0254H49.8839C50.3617 24.0254 50.8108 24.2113 51.1484 24.5493L59.4397 32.8406C59.7773 33.1782 59.9636 33.6273 59.9636 34.1051V45.831C59.9636 46.3088 59.7777 46.7576 59.4397 47.0955L51.1484 55.3868C50.8108 55.7248 50.3617 55.9107 49.8839 55.9107ZM38.158 25.2413C38.0052 25.2413 37.8612 25.3007 37.7532 25.4091L29.4619 33.7004C29.3539 33.8084 29.2942 33.952 29.2942 34.1051V45.831C29.2942 45.9838 29.3536 46.1274 29.4619 46.2357L37.7532 54.5274C37.8612 54.6354 38.0049 54.6948 38.158 54.6948H49.8839C50.037 54.6948 50.1806 54.6354 50.2886 54.5274L58.5799 46.2361C58.6879 46.1281 58.7473 45.9844 58.7473 45.8314V34.1055C58.7473 33.9527 58.6879 33.8091 58.5799 33.7007L50.2886 25.4094C50.1806 25.3014 50.0366 25.2417 49.8839 25.2417H38.158V25.2413Z" fill="#FFE5D4"/>
<path d="M52.4998 40.7455C52.4998 40.4132 52.4287 40.0957 52.3004 39.8053C52.2872 39.7315 52.2721 39.6578 52.2532 39.583L50.8633 35.9457L50.8539 35.9129C50.3677 34.3839 49.6758 32.9688 47.9213 32.9688H41.2133C39.4156 32.9688 38.7803 34.419 38.2834 35.9044L36.8297 39.5507C36.6195 39.9063 36.5 40.313 36.5 40.7455V41.8774C36.5 42.0524 36.5196 42.2235 36.5568 42.3884C36.5206 42.488 36.5 42.5954 36.5 42.7085V46.0749C36.5 46.5685 36.8789 46.9687 37.3464 46.9687H39.1028C39.57 46.9687 39.9489 46.5685 39.9489 46.0749V44.3914H49.1512V46.0749C49.1512 46.5685 49.5302 46.9687 49.9977 46.9687H51.6535C52.1211 46.9687 52.5 46.5685 52.5 46.0749V42.7081C52.5 42.5954 52.4792 42.4876 52.4432 42.3883C52.4803 42.2232 52.5 42.0522 52.5 41.8772L52.4998 40.7455ZM39.3149 36.2696C39.8683 34.6208 40.3133 34.1175 41.2133 34.1175H47.9209C48.8143 34.1175 49.3118 34.6788 49.8173 36.2625L50.8315 38.433C50.5003 38.3035 50.1359 38.2316 49.753 38.2316H39.2468C38.902 38.2316 38.5726 38.2902 38.2687 38.3961L39.3149 36.2696ZM40.1861 42.3072H38.3329C37.9993 42.3072 37.7287 42.0212 37.7287 41.6689C37.7287 41.3164 37.9993 41.0306 38.3329 41.0306H40.1861C40.5199 41.0306 40.7905 41.3164 40.7905 41.6689C40.7905 42.0212 40.5197 42.3072 40.1861 42.3072ZM46.7325 42.1794H42.422C42.2106 42.1794 42.0394 41.9984 42.0394 41.7753C42.0394 41.5519 42.2106 41.371 42.422 41.371H46.7325C46.9441 41.371 47.1153 41.5519 47.1153 41.7753C47.1153 41.9984 46.9441 42.1794 46.7325 42.1794ZM50.6202 42.3072H48.767C48.4331 42.3072 48.1626 42.0212 48.1626 41.6689C48.1626 41.3164 48.4333 41.0306 48.767 41.0306H50.6202C50.9541 41.0306 51.2248 41.3164 51.2248 41.6689C51.2248 42.0212 50.9541 42.3072 50.6202 42.3072Z" fill="#FFE5D4"/>
</svg>
