<svg width="377" height="190" viewBox="0 0 377 190" fill="none" xmlns="http://www.w3.org/2000/svg">
<g style="mix-blend-mode:multiply" opacity="0.6">
<path d="M151.229 27.8449C132.757 30.3656 108.562 30.6355 91.6218 30.345C74.6992 30.0611 60.4 35.4321 45.2911 31.6396C30.3937 27.9009 20.3007 33.5853 0.229187 30.255V2.71734C5.10011 0.457609 10.1012 0.731878 16.7362 1.80682C27.5605 3.56078 30.5371 12.4655 29.7076 15.6306C34.3256 13.6798 38.2494 9.36381 52.9975 11.1163C63.3086 12.3424 67.8313 21.3643 67.8313 21.3643C81.8836 19.7645 83.6973 21.3157 98.6302 25.8233C113.581 30.3302 151.229 27.8449 151.229 27.8449Z" fill="url(#paint0_linear_7880_205987)" fill-opacity="0.6" style="mix-blend-mode:screen"/>
</g>
<path d="M186.985 43.2436C187.084 43.6144 187.238 43.9681 187.443 44.2927C187.583 44.5721 187.764 44.8287 187.981 45.0538C188.174 45.2226 188.391 45.362 188.624 45.4675C189.21 45.7572 189.812 46.0117 190.429 46.2298C190.523 46.2604 190.617 46.2953 190.716 46.3262C191.707 46.6933 192.765 46.8447 193.819 46.7705C194.148 46.7343 194.471 46.6608 194.782 46.5514C195.072 46.4502 195.364 46.4016 195.656 46.3095C196.266 46.1044 196.828 45.7791 197.309 45.3529C197.907 44.7764 198.467 44.1605 198.983 43.5092C198.983 43.5092 198.199 42.3078 197.902 41.7133C197.647 41.1393 197.491 40.5262 197.441 39.9001C197.295 38.426 197.292 36.9411 197.432 35.4662C197.464 35.0323 197.503 34.5987 197.55 34.1654C197.549 33.995 197.569 33.8251 197.609 33.6595C197.609 33.6595 191.54 36.2269 189.829 37.6104C189.826 37.8356 189.824 38.034 189.814 38.2041C189.812 38.285 189.808 38.3564 189.799 38.4275C189.794 38.4766 189.794 38.5261 189.785 38.5743C189.761 38.8913 189.706 39.2053 189.621 39.5118C189.581 39.6563 189.533 39.7985 189.478 39.938C189.237 40.5545 188.901 41.13 188.485 41.6444C188.406 41.7528 188.306 41.844 188.191 41.9126C188.108 41.948 188.021 41.9734 187.932 41.9884C187.685 42.0357 186.903 42.8627 186.985 43.2436Z" fill="#F9AF7D"/>
<path d="M197.993 29.1635C197.993 29.1635 197.586 29.4188 197.138 30.4549C196.87 28.5109 196.475 25.7675 196.46 24.8433C194.537 24.7877 190.534 24.585 189.831 23.9535C189.612 23.7576 187.94 23.9746 187.531 23.885C186.784 23.7622 186.117 23.3505 185.672 22.7391C185.218 22.0003 184.949 21.1625 184.889 20.2974C184.829 19.4322 184.98 18.5654 185.327 17.771C185.493 17.3225 185.814 16.948 186.231 16.7151C186.443 16.6083 186.688 16.5869 186.915 16.6551C187.142 16.7234 187.334 16.8761 187.452 17.0818C187.19 16.2028 188.079 15.3535 188.98 15.1813C189.528 15.0845 190.091 15.1394 190.61 15.34C191.129 15.5406 191.583 15.8793 191.923 16.3195C192.228 16.0509 192.6 15.8708 193 15.7988C193.4 15.7267 193.813 15.7653 194.192 15.9105C195.063 16.1963 195.66 16.9669 196.519 17.0818C197.166 17.1087 197.809 17.1925 198.441 17.3324C200.027 17.8235 201.018 18.9126 201.667 20.3978C201.975 21.1016 203.957 20.7611 204.465 23.935C204.973 27.1089 203.837 34.9551 198.118 35.1217C196.513 35.0675 195.334 33.6551 195.334 33.6551L196.899 32.0981L197.993 29.1635Z" fill="#070C3A"/>
<path d="M186.338 25.0244C186.289 25.3413 186.237 25.6917 186.188 26.0722C186.114 26.6344 186.051 27.2539 186.004 27.9056C185.993 28.0304 185.982 28.1639 185.974 28.2978C185.923 29.1511 185.917 30.0065 185.956 30.8604C185.978 31.296 186.012 31.7342 186.067 32.1677C186.38 34.6597 187.301 36.9077 189.452 37.6924C192.958 38.7006 197.581 33.7282 197.717 33.6559C198.169 33.9572 200.618 33.6042 200.426 31.3972C200.258 29.4527 197.94 30.2715 197.94 30.2715C198.238 29.1833 198.751 25.4459 198.751 25.4459L193.882 21.4141L186.68 23.2328C186.68 23.2328 186.514 23.9306 186.338 25.0244Z" fill="#F9AF7D"/>
<path d="M197.635 32.8595C197.622 32.8317 197.619 32.8008 197.625 32.7709C197.655 32.3359 197.732 31.9054 197.855 31.4872C197.918 31.2208 198.08 30.9885 198.308 30.8376C198.485 30.7566 198.68 30.7256 198.873 30.7481C199.071 30.7523 199.267 30.7962 199.448 30.8772C200.216 31.2526 199.803 32.2827 199.267 32.6693C199.043 32.8299 198.784 32.9352 198.511 32.9768C198.238 33.0184 197.959 32.9951 197.697 32.9086C197.672 32.8991 197.65 32.882 197.635 32.8595Z" fill="#F49656"/>
<path d="M185.848 22.9747C185.979 23.2263 186.163 23.4469 186.387 23.6216C186.611 23.7964 186.869 23.9213 187.145 23.988C187.506 24.0397 187.877 24.0027 188.233 24.081C188.916 24.2312 189.451 24.7827 190.127 24.9708C190.513 25.0546 190.914 25.045 191.296 24.9428C191.678 24.8406 192.03 24.6488 192.322 24.3832C192.48 24.2502 192.702 24.0965 192.869 24.2188C192.924 24.2676 192.968 24.3275 192.998 24.3944C193.153 24.6495 193.389 24.8449 193.669 24.9487C193.949 25.0526 194.255 25.0588 194.539 24.9665C194.964 24.8163 195.285 24.4521 195.707 24.2915C197.181 23.7319 196.516 26.7796 196.521 27.517C196.525 28.3539 196.538 30.6436 197.941 30.2721C199.99 29.7305 200.177 26.3879 200.177 26.3879C200.177 26.3879 199.888 23.7039 199.87 23.4176C199.852 23.1314 197.048 20.5886 197.048 20.5886L193.829 19.5705L191.21 19.1964L186.068 22.6953C186.068 22.6953 185.802 22.8985 185.848 22.9747Z" fill="#070C3A"/>
<path d="M191.592 28.9768C191.592 29.4237 191.845 29.7861 192.157 29.7861C192.469 29.7861 192.723 29.4237 192.723 28.9768C192.723 28.53 192.47 28.168 192.157 28.168C191.845 28.168 191.592 28.5283 191.592 28.9768Z" fill="#202124"/>
<path d="M191.592 28.706C191.592 28.9402 191.725 29.1296 191.888 29.1296C192.051 29.1296 192.184 28.9402 192.184 28.706C192.184 28.4718 192.052 28.2828 191.888 28.2828C191.725 28.2828 191.592 28.4722 191.592 28.706Z" fill="white"/>
<path d="M186.354 28.6883C186.335 29.1347 186.56 29.5062 186.857 29.52C187.154 29.5337 187.41 29.1812 187.429 28.7348C187.449 28.2884 187.224 27.9169 186.927 27.9031C186.63 27.8893 186.374 28.2415 186.354 28.6883Z" fill="#202124"/>
<path d="M186.33 28.4431C186.32 28.6863 186.442 28.889 186.604 28.8959C186.765 28.9028 186.905 28.7117 186.915 28.4689C186.926 28.2261 186.803 28.0229 186.642 28.016C186.48 28.0092 186.341 28.202 186.33 28.4431Z" fill="white"/>
<path d="M190.869 26.0947C192.232 25.6212 192.81 25.858 193.917 26.7835" stroke="#202124" stroke-width="0.25" stroke-miterlimit="10"/>
<path d="M188.361 25.9979C188.079 25.7928 187.738 25.686 187.389 25.6943C187.041 25.7025 186.705 25.8253 186.434 26.0436" stroke="#202124" stroke-width="0.25" stroke-miterlimit="10"/>
<path d="M189.35 28.969C189.35 28.969 189.156 30.8915 188.571 31.3396L189.526 32.0443" stroke="#E58E53" stroke-width="0.726" stroke-miterlimit="10"/>
<path d="M192.372 29.9078C192.542 29.8559 192.695 29.7592 192.815 29.6278C192.934 29.4965 193.017 29.3354 193.053 29.1614" stroke="#F49656" stroke-width="0.25" stroke-miterlimit="10"/>
<path d="M186.549 29.5605C186.569 29.6408 186.613 29.713 186.675 29.767C186.738 29.8211 186.815 29.8542 186.898 29.8619C186.98 29.8674 187.062 29.8563 187.14 29.8293C187.218 29.8023 187.289 29.76 187.35 29.7048" stroke="#F49656" stroke-width="0.25" stroke-miterlimit="10"/>
<path d="M191.824 31.5908C191.818 31.9644 192.367 32.2756 193.05 32.2851C193.733 32.2946 194.29 32.0001 194.296 31.6265C194.301 31.2528 193.752 30.942 193.069 30.9321C192.387 30.9222 191.829 31.2154 191.824 31.5908Z" fill="#F49656"/>
<path d="M185.957 30.8605C185.978 31.2962 186.012 31.7344 186.068 32.1679C186.15 32.1791 186.235 32.1817 186.319 32.1847C187.003 32.1959 187.56 31.9006 187.567 31.5286C187.573 31.1567 187.023 30.8446 186.34 30.8334C186.211 30.8301 186.083 30.8392 185.957 30.8605Z" fill="#F49656"/>
<path d="M188.835 33.8251L191.956 33.2061C191.997 33.5481 191.993 33.8941 191.942 34.2349C191.641 35.3688 189.751 35.6722 189.174 34.6128C189.039 34.3604 188.925 34.0969 188.835 33.8251Z" fill="white"/>
<path d="M189.867 37.7817C189.866 37.8516 189.862 37.9214 189.854 37.9909C189.85 38.0365 189.85 38.083 189.842 38.1282C189.82 38.4253 189.768 38.7194 189.685 39.0055C193.017 38.9319 194.527 37.7442 195.709 35.4377C193.935 38.1347 190.472 37.8544 189.867 37.7817Z" fill="#F49656"/>
<path d="M171.599 48.7785C171.599 48.7785 170.569 49.4914 170.947 53.1508C171.325 56.8103 170.653 63.3724 173.176 63.4564C175.7 63.5403 177.594 59.2502 177.594 59.2502L177.826 55.8852L175.448 48.3975C175.448 48.3975 171.946 48.2705 171.599 48.7785Z" fill="#57C6F2"/>
<path d="M171.599 48.7785C171.599 48.7785 170.569 49.4914 170.947 53.1508C171.325 56.8103 170.653 63.3724 173.176 63.4564C175.7 63.5403 177.594 59.2502 177.594 59.2502L177.826 55.8852L175.448 48.3975C175.448 48.3975 171.946 48.2705 171.599 48.7785Z" fill="url(#paint1_linear_7880_205987)"/>
<path d="M178.299 55.8642C176.628 56.8414 175.117 57.7282 173.49 58.5504C170.186 60.1916 166.697 61.4316 163.099 62.2439C157.929 63.5095 151.39 44.5083 150.589 42.1192C150.533 41.9599 150.507 41.8738 150.507 41.8738C151.245 41.3946 152.023 40.9798 152.832 40.6341C152.913 40.5996 152.995 40.5695 153.077 40.5394C153.654 40.3414 154.162 40.2811 154.377 40.5437C154.592 40.8063 154.808 41.0689 155.023 41.3401C158.187 45.3047 161.536 50.1433 163.21 53.2125C163.307 53.3921 163.47 53.5273 163.664 53.5899C163.858 53.6525 164.069 53.6376 164.252 53.5483C166.06 52.6701 168.931 51.0774 171.549 49.7214C173.106 48.8694 174.723 48.1313 176.387 47.5131L178.299 55.8642Z" fill="#F9AF7D"/>
<path d="M148.033 37.3934C148.033 37.3934 146.089 36.4377 145.792 36.5811C145.494 36.7244 145.238 37.4317 148.425 38.7687C148.858 38.5978 148.033 37.3934 148.033 37.3934Z" fill="#F9AF7D"/>
<path d="M149.289 41.3537C149.591 41.6942 149.981 41.9443 150.417 42.076C150.853 42.2077 151.316 42.2159 151.756 42.0997C152.501 40.4859 153.743 40.2517 153.743 40.2517L151.038 39.7562L149.713 39.8746L149.289 41.3537Z" fill="#F9AF7D"/>
<path d="M146.482 25.6191C140.481 27.836 143.938 33.359 147.623 37.1988H147.627C147.825 37.4054 148.023 37.6078 148.221 37.8015C148.26 37.8445 148.303 37.8833 148.342 37.922C148.574 38.1502 148.807 38.3697 149.035 38.5806C149.143 38.684 149.246 38.7787 149.354 38.8734C149.517 39.0197 149.676 39.1618 149.831 39.2952C149.913 39.3684 149.999 39.4416 150.077 39.5062C150.202 39.6138 150.322 39.7128 150.438 39.8118C150.52 39.8764 150.602 39.9409 150.679 40.0012C150.933 40.2078 151.17 40.3929 151.385 40.5479C151.489 40.6157 151.606 40.6621 151.728 40.6845C151.85 40.7069 151.976 40.7048 152.097 40.6784C152.218 40.652 152.333 40.6017 152.435 40.5305C152.537 40.4594 152.623 40.3687 152.69 40.2638C152.728 40.2061 152.756 40.1419 152.771 40.0744C152.78 40.0597 152.786 40.0437 152.789 40.027C153.052 38.8555 153.236 37.6676 153.34 36.4713C153.856 31 153.193 23.1395 146.482 25.6191ZM146.112 31.0387C145.945 30.5842 145.917 30.0904 146.031 29.6199C146.145 29.1493 146.396 28.7231 146.752 28.3951C147.108 28.0671 147.553 27.852 148.032 27.7771C148.51 27.7022 149 27.7708 149.439 27.9742C149.878 28.1776 150.248 28.5067 150.5 28.9199C150.752 29.3331 150.876 29.8119 150.856 30.2956C150.837 30.7794 150.674 31.2464 150.389 31.6376C150.104 32.0289 149.709 32.3268 149.254 32.4937C148.645 32.7173 147.971 32.6896 147.382 32.4168C146.793 32.1439 146.336 31.6483 146.112 31.0387Z" fill="#C44129"/>
<path d="M155.082 41.9869C155.082 41.9869 154.841 39.63 154.781 37.7859C154.72 35.9417 151.218 36.38 150.866 36.463C150.513 36.5461 150.374 37.8264 152.59 38.1087C152.685 38.8156 152.265 40.0368 153.117 41.073L155.082 41.9869Z" fill="#F9AF7D"/>
<path d="M147.434 38.3562C147.259 38.5041 147.149 38.7134 147.125 38.9407C147.102 39.168 147.167 39.3957 147.307 39.5762C147.374 39.6976 147.482 39.7918 147.611 39.8429C147.74 39.8941 147.883 39.899 148.016 39.8569C148.016 39.8569 149.676 39.3351 149.558 37.9985C149.441 36.6619 147.434 38.3562 147.434 38.3562Z" fill="#F9AF7D"/>
<path d="M148.161 39.4743C148.014 39.6575 147.935 39.8859 147.937 40.1208C147.939 40.3557 148.022 40.5826 148.173 40.7631C148.248 40.8729 148.363 40.9496 148.493 40.9774C148.623 41.0051 148.759 40.9819 148.873 40.9125C148.873 40.9125 150.386 40.0433 150.131 38.6822C149.875 37.321 148.161 39.4743 148.161 39.4743Z" fill="#F9AF7D"/>
<path d="M148.983 40.1335C148.857 40.2915 148.789 40.4884 148.79 40.6909C148.792 40.8934 148.864 41.089 148.994 41.2446C149.059 41.3391 149.157 41.4052 149.269 41.4292C149.381 41.4532 149.499 41.4334 149.596 41.3737C149.596 41.3737 150.901 40.6243 150.681 39.4508C150.461 38.2773 148.983 40.1335 148.983 40.1335Z" fill="#F9AF7D"/>
<path d="M173.49 58.5502C173.671 55.2958 173.189 51.3914 171.549 49.7212C173.106 48.8691 174.723 48.1311 176.387 47.5128L178.299 55.864C176.628 56.8412 175.117 57.728 173.49 58.5502Z" fill="#FF6666"/>
<path d="M188.357 41.8048C183.204 41.9129 181.864 42.6821 179.739 43.9809C177.375 45.4255 174.142 47.0915 171.599 48.7789C175.953 50.0411 175.089 63.056 173.176 63.4581C171.608 63.787 181.08 62.5743 181.126 62.5472C181.146 62.5327 181.162 62.5142 181.175 62.4929C181.187 62.4717 181.194 62.4481 181.197 62.4237L182.971 54.6962" fill="url(#paint2_linear_7880_205987)"/>
<path d="M207.399 153.11C207.456 153.588 208.417 162.384 208.356 165.103C208.296 167.823 214.25 164.974 214.25 164.974C214.25 164.974 212.393 161.614 212.227 153.787C212.061 145.961 207.399 153.11 207.399 153.11Z" fill="#F9AF7D"/>
<path d="M173.957 156.448C173.944 156.928 173.608 165.77 173.15 168.452C172.692 171.133 179.978 168.913 179.978 168.913C179.978 168.913 177.654 165.591 178.633 157.825C179.613 150.059 173.957 156.448 173.957 156.448Z" fill="#F9AF7D"/>
<path d="M204.779 169.99C206.984 168.392 206.937 167.809 207.066 165.662C207.196 163.515 206.821 160.722 208.394 160.874C210.519 161.081 211.405 161.526 211.954 163.605C212.664 166.289 213.235 163.516 213.235 163.516C213.235 163.516 213.413 162.849 213.734 163.1C214.055 163.352 215.339 166.782 215.699 168.967C216.058 171.152 217.64 172.221 215.39 173.653C213.141 175.086 204.623 175.142 203.687 173.802C202.752 172.461 203.977 170.57 204.779 169.99Z" fill="url(#paint3_linear_7880_205987)"/>
<path d="M206.27 169.58C207.038 169.199 207.888 169.014 208.745 169.04C209.601 169.066 210.438 169.303 211.182 169.729" stroke="#202124" stroke-width="0.955" stroke-miterlimit="10"/>
<path d="M206.771 168.723C206.786 168.632 206.9 168.602 206.992 168.594L207.681 168.518C208.265 168.432 208.857 168.411 209.446 168.453C210.038 168.498 210.6 168.736 211.045 169.131" stroke="#202124" stroke-width="0.955" stroke-miterlimit="10"/>
<path d="M206.978 167.917C207.682 167.708 208.42 167.64 209.151 167.716C209.881 167.792 210.589 168.012 211.235 168.362" stroke="#202124" stroke-width="0.955" stroke-miterlimit="10"/>
<path d="M207.555 167.018C208.242 166.845 208.956 166.813 209.655 166.925C210.354 167.037 211.023 167.291 211.621 167.67" stroke="#202124" stroke-width="0.955" stroke-miterlimit="10"/>
<path d="M208.827 166.71C208.79 166.693 208.75 166.685 208.709 166.686C208.669 166.687 208.629 166.697 208.593 166.715C208.556 166.734 208.525 166.76 208.5 166.792C208.475 166.825 208.458 166.862 208.45 166.902C208.45 166.941 208.46 166.979 208.479 167.014C208.497 167.048 208.524 167.078 208.557 167.099C208.59 167.121 208.627 167.134 208.666 167.137C208.705 167.141 208.745 167.134 208.781 167.119C208.85 167.079 208.902 167.012 208.923 166.935C208.945 166.857 208.935 166.774 208.897 166.703C208.854 166.635 208.794 166.579 208.722 166.542C208.651 166.504 208.57 166.487 208.49 166.492C208.304 166.498 208.102 166.637 208.114 166.823C208.126 167.009 208.445 167.09 208.495 166.909C207.37 166.806 206.24 167.051 205.258 167.61C205.069 167.718 204.87 167.976 205.038 168.116C205.075 168.143 205.118 168.162 205.163 168.171C205.761 168.292 206.382 168.199 206.918 167.907C207.464 167.649 207.959 167.292 208.501 167.026C209.158 166.704 209.872 166.518 210.602 166.479C211.014 166.432 211.431 166.473 211.827 166.598C212.222 166.724 212.587 166.932 212.896 167.208C212.989 167.291 213.064 167.393 213.114 167.507C213.164 167.621 213.188 167.745 213.186 167.87C213.139 168.287 212.654 168.494 212.239 168.539C211.449 168.624 210.654 168.436 209.986 168.008C209.482 167.682 209.07 167.233 208.572 166.894" stroke="#202124" stroke-width="0.955" stroke-miterlimit="10"/>
<path d="M208.485 166.881C208.531 167.122 208.521 167.37 208.457 167.607C208.358 168.152 208.186 168.68 207.945 169.178C207.702 169.677 207.327 170.101 206.861 170.403" stroke="#202124" stroke-width="0.955" stroke-miterlimit="10"/>
<path d="M208.786 166.953C209.021 167.697 209.337 168.413 209.728 169.088C210.124 169.767 210.732 170.298 211.458 170.598" stroke="#202124" stroke-width="0.955" stroke-miterlimit="10"/>
<path d="M213.86 168.293C213.799 168.387 213.76 168.494 213.745 168.605C213.73 168.716 213.74 168.829 213.774 168.936C213.836 169.029 213.919 169.105 214.017 169.159C214.114 169.214 214.223 169.244 214.334 169.248C214.576 169.285 214.822 169.29 215.066 169.266C215.133 169.263 215.198 169.245 215.256 169.211C215.297 169.176 215.329 169.132 215.35 169.082C215.371 169.032 215.38 168.978 215.376 168.924C215.354 168.666 215.28 168.415 215.157 168.187C214.985 167.777 214.971 166.867 214.698 166.586C214.415 167.142 214.135 167.726 213.86 168.293Z" fill="url(#paint4_linear_7880_205987)"/>
<path d="M191.715 102.298C191.715 102.298 187.917 110.606 187.225 115.318C186.533 120.03 184.556 128.978 184.417 134.169C184.278 139.36 181.926 152.746 180.457 153.89L179.689 157.572C179.689 157.572 175.126 158.941 172.953 157.546L173.168 153.385C173.168 153.385 172.366 143.33 173.012 136.625C173.662 129.876 173.396 127.631 174.618 123.315C175.839 118.998 176.8 96.652 177.454 91.4234C178.108 86.1949 206.35 89.8333 206.35 89.8333C206.35 89.8333 208.594 113.5 208.416 118.176C208.237 122.851 211.707 127.779 213.038 131.826C214.37 135.873 213.361 150.453 212.959 152.036L212.706 155.681C212.706 155.681 209.137 156.459 207.516 155.542L206.662 150.942C206.662 150.942 200.531 137.919 200.37 128.606C200.208 119.293 191.715 102.298 191.715 102.298Z" fill="url(#paint5_linear_7880_205987)"/>
<g opacity="0.45">
<path opacity="0.45" d="M191.691 102.317C191.479 99.7715 191.302 97.2231 191.159 94.6721C191.123 94.0178 191.133 93.2584 191.642 92.8464" stroke="#202124" stroke-width="1.026" stroke-miterlimit="10"/>
<path opacity="0.45" d="M191.704 102.249C191.249 101.85 190.694 101.583 190.098 101.478C188.603 101.102 187.062 100.937 185.521 100.987" stroke="#202124" stroke-width="1.026" stroke-miterlimit="10"/>
<path opacity="0.45" d="M191.272 102.225C189.994 102.111 188.706 102.183 187.449 102.44C187.218 102.499 186.959 102.6 186.885 102.828C186.869 102.869 186.868 102.915 186.881 102.957C186.896 102.987 186.917 103.013 186.943 103.033C186.969 103.054 186.999 103.068 187.031 103.076C187.226 103.125 187.429 103.129 187.625 103.088C188.572 102.959 189.513 102.785 190.447 102.564" stroke="#202124" stroke-width="1.026" stroke-miterlimit="10"/>
<path opacity="0.45" d="M191.933 101.77C194.211 100.686 196.656 99.9962 199.165 99.7284" stroke="#202124" stroke-width="1.026" stroke-miterlimit="10"/>
<path opacity="0.45" d="M192.067 102.082C192.833 102.03 193.601 102.026 194.366 102.069C194.996 102.104 195.716 102.227 196.039 102.768C196.058 102.794 196.069 102.826 196.07 102.858C196.067 102.933 195.979 102.972 195.906 102.987C194.834 103.227 193.736 102.423 192.661 102.649" stroke="#202124" stroke-width="1.026" stroke-miterlimit="10"/>
<path opacity="0.45" d="M173.449 154.216C175.385 154.782 177.432 154.849 179.401 154.412" stroke="#202124" stroke-width="1.026" stroke-miterlimit="10"/>
<path opacity="0.45" d="M207.027 151.336C208.786 152.287 210.916 152.099 212.904 151.885" stroke="#202124" stroke-width="1.026" stroke-miterlimit="10"/>
<path opacity="0.45" d="M178.496 92.8789C180.459 101.739 177.165 110.83 176.531 119.88C176.163 125.136 176.686 130.521 175.267 135.594C174.813 137.215 174.163 138.794 173.975 140.467C173.475 144.921 176.307 149.348 175.41 153.74" stroke="#202124" stroke-width="1.026" stroke-miterlimit="10"/>
<path opacity="0.45" d="M176.409 125.583C177.145 127.383 178.346 128.956 179.89 130.141" stroke="#202124" stroke-width="1.026" stroke-miterlimit="10"/>
<path opacity="0.45" d="M176.401 126.439C176.413 128.347 177.17 130.161 177.914 131.918" stroke="#202124" stroke-width="1.026" stroke-miterlimit="10"/>
<path opacity="0.45" d="M196.288 112.516C197.609 117.463 201.257 121.612 202.17 126.649C202.376 128.007 202.491 129.377 202.514 130.75C202.714 135.186 203.157 139.607 203.839 143.994" stroke="#202124" stroke-width="1.026" stroke-miterlimit="10"/>
<path opacity="0.45" d="M202.315 127.159C202.357 127.408 202.449 127.646 202.585 127.859C202.721 128.071 202.899 128.254 203.108 128.397C203.793 128.947 204.615 129.301 205.486 129.422" stroke="#202124" stroke-width="1.026" stroke-miterlimit="10"/>
<path opacity="0.45" d="M202.252 127.302C202.618 128.465 203.132 129.575 203.78 130.607C204.438 131.646 205.466 132.397 206.656 132.709" stroke="#202124" stroke-width="1.026" stroke-miterlimit="10"/>
</g>
<path d="M168.347 167.843C167.23 168.207 166.083 168.466 164.918 168.618C163.949 168.802 161.816 168.797 161.442 169.709C161.321 170.072 161.301 170.46 161.381 170.834C161.462 171.207 161.641 171.553 161.9 171.834C162.392 172.415 164.127 173.153 164.815 173.482C166.639 174.354 168.636 175.018 170.65 174.842C171.072 174.781 171.498 174.752 171.924 174.756C172.38 174.811 172.83 174.905 173.269 175.038C175.929 175.673 178.712 174.904 181.284 173.975C181.406 173.941 181.519 173.879 181.613 173.794C181.696 173.692 181.751 173.57 181.772 173.44C181.954 172.673 181.949 171.873 181.758 171.109C181.602 170.56 181.399 170.025 181.149 169.511C180.894 168.802 180.59 168.112 180.239 167.444C180.111 167.209 179.939 167 179.732 166.829C179.213 166.455 178.762 166.882 178.324 167.165C177.223 167.839 176.056 168.399 174.841 168.836C174.624 168.937 174.389 168.993 174.15 169.004C174.03 169.007 173.912 168.976 173.809 168.915C173.706 168.854 173.622 168.766 173.567 168.659C173.537 168.568 173.526 168.471 173.534 168.375C173.542 168.279 173.568 168.185 173.613 168.1C173.814 167.64 174.163 167.467 174.446 167.103C174.79 166.613 175.004 166.043 175.067 165.447C175.105 165.239 175.094 165.025 175.035 164.822C174.832 164.429 174.482 164.133 174.061 163.999C173.693 163.799 173.292 163.669 172.876 163.615C171.736 163.54 171.593 164.756 171.167 165.552C170.652 166.515 169.361 167.445 168.347 167.843Z" fill="url(#paint6_linear_7880_205987)"/>
<path d="M181.613 173.797C181.696 173.695 181.751 173.573 181.772 173.443C181.934 172.751 181.943 172.033 181.8 171.338C181.457 171.522 181.128 171.731 180.816 171.964C179.781 172.606 178.595 172.966 177.377 173.007C176.166 173.045 174.953 173.019 173.745 172.927C171.764 172.847 169.776 172.933 167.798 172.803C166.462 172.624 165.136 172.369 163.829 172.04C163.063 171.868 162.315 171.474 161.556 171.302C161.648 171.493 161.764 171.672 161.9 171.834C162.393 172.416 164.128 173.154 164.815 173.483C166.64 174.354 168.637 175.019 170.651 174.843C171.073 174.782 171.499 174.753 171.925 174.756C172.38 174.812 172.83 174.906 173.27 175.038C175.93 175.673 178.712 174.905 181.285 173.976C181.407 173.943 181.519 173.881 181.613 173.797Z" fill="url(#paint7_linear_7880_205987)"/>
<path d="M170.071 167.331C169.589 166.456 169.097 165.542 169.049 164.545C169.028 164.307 169.063 164.067 169.151 163.845C169.196 163.734 169.266 163.636 169.356 163.558C169.446 163.479 169.554 163.424 169.67 163.395C169.871 163.368 170.075 163.414 170.246 163.524C170.507 163.677 170.716 163.906 170.843 164.181C171.02 164.617 171.035 165.103 170.886 165.55C170.737 165.992 170.535 166.416 170.286 166.81L169.95 167.392C170.933 167.425 171.91 167.228 172.803 166.818C173.056 166.726 173.273 166.557 173.426 166.336C173.498 166.224 173.524 166.088 173.498 165.957C173.472 165.826 173.397 165.71 173.289 165.632C173.145 165.572 172.985 165.562 172.835 165.603C172.201 165.72 171.612 166.009 171.131 166.439C170.803 166.825 170.406 167.148 169.962 167.392" stroke="#202124" stroke-width="0.845" stroke-linecap="round" stroke-linejoin="round"/>
<path d="M170.06 167.324C170.179 167.634 170.327 167.932 170.501 168.215C170.588 168.357 170.646 168.515 170.67 168.68C170.695 168.844 170.686 169.012 170.645 169.173" stroke="#202124" stroke-width="0.845" stroke-linecap="round" stroke-linejoin="round"/>
<path d="M168.549 167.681C169.237 168.266 169.674 169.094 169.768 169.993" stroke="#202124" stroke-width="0.845" stroke-linecap="round" stroke-linejoin="round"/>
<path d="M167.5 168.01C168.031 168.718 168.416 169.525 168.63 170.383" stroke="#202124" stroke-width="0.845" stroke-linecap="round" stroke-linejoin="round"/>
<path d="M215.445 173.649C216.963 172.683 216.737 171.88 216.318 170.79C209.977 174.716 204.531 172.706 203.452 172.237C203.391 172.503 203.386 172.779 203.436 173.047C203.486 173.316 203.59 173.571 203.742 173.798C204.678 175.138 213.196 175.083 215.445 173.649Z" fill="url(#paint8_linear_7880_205987)"/>
<path d="M207.678 76.7332L208.393 89.8713L203.524 91.0766C196.446 92.8291 189.057 92.9122 181.941 91.3194L180.262 90.9432L180.09 90.9518L179.707 90.9647C180.857 85.6914 182.535 77.9428 182.535 77.9428C182.535 77.9428 185.54 56.0317 187.748 48.6706C188.291 46.8798 188.782 45.95 189.169 46.3977C191.162 48.6878 195.196 47.1166 195.196 47.1166C195.419 47.3103 195.661 48.0378 195.893 49.1398C197.201 55.3688 207.678 76.7332 207.678 76.7332Z" fill="white"/>
<path d="M208.444 89.8713L208.397 89.8841L208.393 89.8713H208.444Z" fill="#3E89CC"/>
<path d="M196.839 73.1679C196.839 73.1679 192.213 74.3625 188.225 73.2734C184.238 72.1843 187.387 79.3267 187.387 79.3267C187.387 79.3267 194.125 79.9522 197.374 78.709C197.704 76.1046 196.839 73.1679 196.839 73.1679Z" fill="#72C1C1"/>
<g opacity="0.1">
<g opacity="0.1">
<path opacity="0.1" d="M194.479 44.5015C194.481 44.5094 194.473 44.5191 194.444 44.5296L194.479 44.5015Z" fill="#202124"/>
</g>
</g>
<g opacity="0.1">
<g opacity="0.1">
<path opacity="0.1" d="M194.484 44.4969L194.478 44.5013C194.477 44.4986 194.476 44.496 194.473 44.494L194.484 44.4969Z" fill="#202124"/>
</g>
</g>
<g opacity="0.1">
<g opacity="0.1">
<path opacity="0.1" d="M194.474 44.4939C194.368 44.4692 194.45 44.4738 194.474 44.4939V44.4939Z" fill="#202124"/>
</g>
</g>
<path d="M189.164 45.4969C191.157 47.4522 195.182 46.1104 195.182 46.1104C195.406 46.2744 195.636 46.8973 195.871 47.84C195.45 48.0745 195.007 48.2672 194.548 48.4151C192.769 48.9812 190.846 48.881 189.136 48.1332C188.657 47.936 188.193 47.7032 187.748 47.4367C188.286 45.9093 188.774 45.1151 189.164 45.4969Z" fill="white"/>
<g style="mix-blend-mode:multiply">
<g style="mix-blend-mode:multiply">
<g style="mix-blend-mode:multiply">
<path d="M190.219 44.2056C190.219 44.2056 189.808 59.7642 189.052 65.7065C188.297 71.6488 188.708 98.0437 186.758 97.7768C186.552 97.7488 180.67 97.7768 179.188 95.4557C178.532 87.2431 190.174 46.5969 189.778 43.4695C189.379 43.0575 189.163 43.0752 189.163 43.0752L190.219 44.2056Z" fill="#A6ACB2"/>
</g>
</g>
</g>
<g style="mix-blend-mode:multiply">
<g style="mix-blend-mode:multiply">
<g style="mix-blend-mode:multiply">
<path d="M193.964 47.868C194.013 48.1818 194.075 48.4939 194.126 48.8008C194.282 49.744 194.304 50.722 194.371 51.6798C194.527 53.9325 194.409 57.0672 194.396 59.3263C194.369 63.9087 193.729 68.151 193.693 72.7317C193.678 74.6185 193.69 76.5083 193.787 78.392C194.18 86.0196 194.078 98.0733 194.193 99.6656C196.346 100.247 198.255 98.5201 200.094 98.4336C201.933 98.3471 208.574 96.1052 208.667 95.3032C209.461 88.271 207.612 81.6937 208.036 74.6193C208.322 69.86 208.033 65.0762 207.937 60.3276C207.894 58.2122 207.851 56.097 207.807 53.982C207.796 53.4267 208.026 51.7293 207.752 51.2476C207.752 51.2476 207.718 51.1723 207.658 51.0431C207.367 50.422 206.453 48.5485 205.629 47.6583C204.366 46.295 202.831 45.3617 201.334 44.4095C200.569 43.9235 199.806 43.4319 199.082 42.8654C198.642 42.521 197.766 41.3588 197.247 41.2869C197.184 41.9913 196.947 42.6691 196.558 43.2597C196.276 43.877 196.004 43.5667 195.572 44.0897C195.169 44.5761 194.638 44.9549 194.285 45.4814C193.88 46.208 193.766 47.0605 193.964 47.868Z" fill="#A6ACB2"/>
</g>
</g>
</g>
<path d="M174.312 94.6554C176.801 96.6722 182.314 97.3984 185.015 97.2903C185.861 97.2568 186.508 86.8647 186.508 86.0016C186.504 80.1984 186.866 71.9561 187.713 66.1722C188.196 62.8701 188.739 59.6359 188.961 56.3058C189.086 54.4186 189.174 52.5296 189.282 50.6416C189.338 49.6747 189.398 48.7083 189.471 47.7423C189.514 47.1634 189.979 45.791 189.346 45.3954C188.657 44.9649 188.203 41.1285 188.203 41.1285C184.583 42.8052 180.663 45.085 178.542 47.9955C177.314 54.1082 178.068 57.5361 177.915 63.7078C177.855 66.1055 176.688 78.5264 176.004 84.7984C175.991 84.9121 174.372 93.7346 174.312 94.6554Z" fill="url(#paint9_linear_7880_205987)"/>
<path d="M194.503 47.3291C194.553 47.6425 194.615 47.9546 194.665 48.2616C194.821 49.2047 194.844 50.1832 194.91 51.1406C195.067 53.3932 195.111 55.6545 195.097 57.9141C195.07 62.496 194.808 67.0711 194.772 71.6531C194.757 73.5394 194.769 75.4292 194.866 77.3134C195.259 84.941 195.157 96.9947 195.272 98.5866C197.425 99.1677 199.334 97.4415 201.173 97.355C203.012 97.2685 208.995 95.875 209.086 95.0735C209.88 88.0412 208.691 80.6156 209.116 73.5411C209.401 68.7818 209.112 63.998 209.016 59.2494C208.987 57.8463 208.958 56.4436 208.93 55.0411C208.906 53.9059 209.07 52.7725 208.989 51.6403C208.892 50.2805 209.748 48.8853 209.401 47.5784C208.676 46.5483 207.502 45.6705 205.686 44.2702C204.214 43.135 198.844 40.2831 198.324 40.2104C197.728 40.1273 197.392 41.3684 197.184 41.8234C196.836 42.5832 196.507 43.4247 195.841 43.8634C194.722 44.6008 194.722 44.5255 194.485 45.3055C194.355 45.9744 194.361 46.6627 194.503 47.3291Z" fill="url(#paint10_linear_7880_205987)"/>
<g opacity="0.2">
<g opacity="0.2">
<path opacity="0.2" d="M195.57 52.6415C195.57 52.7419 195.599 52.84 195.655 52.9236C195.71 53.0071 195.789 53.0723 195.882 53.1109C195.974 53.1495 196.076 53.1598 196.175 53.1404C196.273 53.121 196.364 53.0728 196.435 53.002C196.506 52.9312 196.554 52.8409 196.574 52.7425C196.594 52.6441 196.584 52.5421 196.546 52.4494C196.507 52.3566 196.442 52.2773 196.359 52.2215C196.276 52.1657 196.178 52.1358 196.077 52.1357C195.943 52.1356 195.814 52.1888 195.719 52.2837C195.624 52.3785 195.57 52.5072 195.57 52.6415Z" fill="#202124"/>
</g>
</g>
<g opacity="0.2">
<g opacity="0.2">
<path opacity="0.2" d="M194.743 46.0371C194.743 46.1374 194.772 46.2354 194.828 46.3188C194.884 46.4022 194.963 46.4672 195.056 46.5056C195.148 46.544 195.25 46.554 195.349 46.5345C195.447 46.515 195.537 46.4667 195.608 46.3959C195.679 46.325 195.728 46.2347 195.747 46.1363C195.767 46.038 195.757 45.936 195.718 45.8434C195.68 45.7507 195.615 45.6715 195.532 45.6157C195.449 45.5599 195.351 45.5301 195.25 45.53C195.116 45.53 194.987 45.5834 194.892 45.6785C194.796 45.7736 194.743 45.9026 194.743 46.0371Z" fill="#202124"/>
</g>
</g>
<g style="mix-blend-mode:multiply">
<g style="mix-blend-mode:multiply">
<g style="mix-blend-mode:multiply">
<path d="M198.018 46.6741L192.362 72.0991L191.496 72.8878C191.496 72.8878 195.61 49.5828 197.002 45.2909C197.151 45.1855 197.328 45.1288 197.51 45.1288C197.692 45.1288 197.869 45.1855 198.018 45.2909V46.6741Z" fill="#A6ACB2"/>
</g>
</g>
</g>
<path d="M197.478 46.6742L191.822 72.0993L190.956 72.888C190.956 72.888 195.07 49.5829 196.465 45.2915C196.613 45.1861 196.79 45.1294 196.972 45.1294C197.154 45.1294 197.332 45.1861 197.48 45.2915L197.478 46.6742Z" fill="url(#paint11_linear_7880_205987)"/>
<path style="mix-blend-mode:multiply" opacity="0.15" d="M194.927 44.6251C195.175 44.6418 195.415 44.7204 195.625 44.8537C196.138 45.2679 196.569 45.7744 196.895 46.347C197.16 46.791 197.37 47.265 197.523 47.759C197.528 47.7853 197.544 47.8087 197.566 47.8244C197.581 47.83 197.598 47.8318 197.615 47.8297C197.631 47.8276 197.647 47.8217 197.661 47.8123C197.938 47.6802 198.192 47.5038 198.412 47.2902C198.644 47.0536 198.852 46.7954 199.034 46.5192C199.623 45.5833 199.94 44.5027 199.951 43.3974C199.969 43.1529 199.921 42.908 199.812 42.6884C199.703 42.4688 199.537 42.2825 199.331 42.149C199.027 42.0296 198.697 41.9951 198.375 42.0491" fill="url(#paint12_linear_7880_205987)"/>
<path d="M199.771 43.419C199.37 44.2455 198.768 45.1667 198.591 45.5499C198.557 45.6316 198.509 45.7436 198.453 45.8641C198.432 45.9028 198.415 45.9373 198.397 45.976C198.384 45.9932 198.376 46.0105 198.367 46.0234C198.221 46.3118 198.019 46.6088 197.778 46.639C197.463 46.6777 197.407 46.2343 197.257 46.0492C196.786 45.5208 196.217 45.0882 195.582 44.775C195.264 44.6157 195.13 44.7406 194.807 44.62C194.893 44.0992 195.38 43.6859 195.694 43.3243C196.078 42.8992 196.419 42.4362 196.71 41.9425C196.96 41.5603 197.129 41.1308 197.207 40.6807C197.285 40.2305 197.269 39.7692 197.162 39.3252C197.175 39.3812 197.808 39.1444 197.881 39.1831C198.191 39.3252 198.329 39.803 198.552 40.0484C199.052 40.5908 199.443 41.2193 199.904 41.7918C200.317 42.3084 200.025 42.8895 199.771 43.419Z" fill="url(#paint13_linear_7880_205987)"/>
<path style="mix-blend-mode:multiply" opacity="0.45" d="M199.771 43.4189C199.37 44.2454 198.768 45.1666 198.591 45.5497C198.557 45.6315 198.509 45.7434 198.453 45.864C198.432 45.9027 198.415 45.9372 198.397 45.9759C198.384 45.9931 198.376 46.0103 198.367 46.0233C198.225 46.2945 198.04 46.5656 197.821 46.6216C198.109 45.4034 199.034 44.3315 199.121 43.0659C199.146 42.1406 198.804 41.2429 198.169 40.5691C197.997 40.3797 197.722 40.1903 197.511 40.3324C197.406 40.4294 197.337 40.5579 197.313 40.6983C197.181 41.1433 196.978 41.5637 196.71 41.9424C196.96 41.5601 197.129 41.1307 197.207 40.6805C197.285 40.2304 197.269 39.7691 197.162 39.3251C197.175 39.381 197.808 39.1443 197.881 39.183C198.191 39.3251 198.328 39.8029 198.552 40.0483C199.052 40.5907 199.443 41.2192 199.904 41.7917C200.317 42.3083 200.025 42.8894 199.771 43.4189Z" fill="url(#paint14_linear_7880_205987)"/>
<path d="M188.333 44.4068L187.623 71.4182L188.25 72.0256C188.25 72.0256 189.681 48.235 189.236 43.6001C188.837 43.0538 188.621 43.0779 188.621 43.0779L188.333 44.4068Z" fill="url(#paint15_linear_7880_205987)"/>
<path style="mix-blend-mode:multiply" opacity="0.15" d="M189.744 43.5172C190.036 43.7739 190.314 44.047 190.576 44.3351C190.767 44.4889 190.894 44.7081 190.933 44.9503C190.435 45.0332 189.964 45.2336 189.56 45.5348C189.155 45.8359 188.828 46.2292 188.605 46.6821C188.433 47.011 188.321 47.3708 188.153 47.7001C188.139 47.7281 188.116 47.7613 188.084 47.7561C188.065 47.7503 188.049 47.7372 188.039 47.7195C187.852 47.4651 187.637 47.2163 187.472 46.9485C187.355 46.7238 187.279 46.4799 187.249 46.2284C187.18 45.9533 187.143 45.6709 187.14 45.3872C187.169 45.1223 187.234 44.8627 187.335 44.6158C187.487 44.1487 187.432 42.9955 187.513 42.5108C187.584 42.0842 187.784 42.2955 188.061 41.9391C188.126 41.8398 188.22 41.7628 188.33 41.7187C188.441 41.6745 188.562 41.6652 188.677 41.692" fill="url(#paint16_linear_7880_205987)"/>
<path d="M190.933 44.9472C190.669 44.9031 190.398 44.9359 190.153 45.0415C189.407 45.2749 188.773 45.7748 188.372 46.4457C188.31 46.5585 188.212 46.9339 188.02 46.8676C187.774 46.7815 187.719 46.0949 187.671 45.7867C187.609 45.3911 187.822 43.7974 187.674 42.9455C187.578 42.3984 187.466 41.7979 187.801 41.3231C188.175 40.7927 188.533 40.7454 188.929 40.2499C189.108 40.0248 189.261 39.5663 189.479 39.4488C189.562 39.4333 189.647 39.4376 189.727 39.4614C189.808 39.4851 189.881 39.5275 189.942 39.5853C189.451 41.1057 189.907 42.6541 190.352 43.7454C190.508 44.1293 190.947 44.4251 190.933 44.9472Z" fill="url(#paint17_linear_7880_205987)"/>
<path style="mix-blend-mode:multiply" opacity="0.45" d="M189.942 39.5866C189.942 39.5651 189.932 39.5539 189.896 39.5285C189.849 39.5002 189.797 39.4805 189.744 39.4704C189.636 39.4381 189.519 39.4484 189.419 39.4993C189.354 39.5436 189.301 39.6026 189.265 39.6714C189.16 39.8436 189.083 40.0339 188.967 40.1996C188.629 40.6813 187.996 40.9164 187.726 41.439C187.597 41.7177 187.548 42.0266 187.585 42.3313C187.608 42.6353 187.674 42.934 187.705 43.2384C187.802 44.2284 187.505 45.2439 187.71 46.2194C187.748 46.4457 187.839 46.6599 187.974 46.8453C188.039 45.9099 188.005 44.9693 188.07 44.0339C188.102 43.0932 188.333 42.17 188.747 41.3249C188.871 41.0772 189.038 40.8531 189.24 40.6628C189.27 40.6277 189.308 40.6007 189.352 40.5842C189.395 40.5676 189.442 40.5621 189.488 40.5681C189.61 40.6043 189.633 40.7636 189.638 40.8906C189.66 41.4376 189.764 41.9783 189.946 42.4945C189.788 41.9688 189.724 41.4192 189.757 40.8712C189.766 40.5951 189.795 40.32 189.844 40.0481C189.868 39.9121 189.898 39.7773 189.93 39.6435C189.935 39.6249 189.939 39.6059 189.942 39.5866Z" fill="url(#paint18_linear_7880_205987)"/>
<g style="mix-blend-mode:multiply">
<g style="mix-blend-mode:multiply">
<g style="mix-blend-mode:multiply">
<path d="M184.141 73.3858C184.147 73.2476 184.268 71.7732 184.268 71.7732C184.271 71.7178 184.284 71.6635 184.308 71.6133C184.332 71.5632 184.366 71.5182 184.407 71.4811C184.448 71.4439 184.496 71.4152 184.548 71.3966C184.601 71.3781 184.656 71.37 184.711 71.3729L190.801 71.6841C190.856 71.6869 190.911 71.7005 190.961 71.7243C191.011 71.748 191.056 71.7815 191.093 71.8226C191.13 71.8637 191.159 71.9118 191.177 71.9641C191.196 72.0163 191.204 72.0717 191.201 72.1271L191.175 72.6462L191.513 72.6613C191.513 72.6523 191.513 72.6437 191.513 72.6346C191.516 72.5792 191.529 72.5249 191.553 72.4748C191.577 72.4247 191.611 72.3798 191.652 72.3426C191.693 72.3054 191.741 72.2767 191.793 72.2581C191.846 72.2395 191.901 72.2314 191.956 72.2343L193.131 72.2941C193.188 72.2974 193.243 72.3119 193.294 72.3368C193.344 72.3618 193.39 72.3966 193.427 72.4394C193.464 72.4821 193.492 72.5318 193.51 72.5856C193.527 72.6394 193.534 72.6962 193.529 72.7526L193.97 72.7724C193.994 72.6778 194.05 72.5944 194.129 72.5364C194.207 72.4784 194.303 72.4494 194.401 72.4542L195.033 72.4865C195.145 72.4923 195.25 72.5423 195.325 72.6254C195.4 72.7086 195.439 72.8181 195.433 72.9299C195.433 72.9359 195.431 72.942 195.431 72.948C195.447 72.957 195.463 72.9656 195.491 72.9842C195.522 73.004 195.552 73.0254 195.581 73.0483L195.605 73.0681C196.191 73.5674 195.946 74.623 195.915 75.3122L195.803 77.7826C195.789 78.0973 195.777 78.4124 195.76 78.7267C195.754 78.8604 195.723 78.9918 195.669 79.1141C195.582 79.3069 195.439 79.4691 195.259 79.5801C195.078 79.691 194.869 79.7455 194.658 79.7366L184.929 79.2971C184.715 79.2882 184.509 79.2141 184.338 79.0849C184.167 78.9557 184.04 78.7774 183.973 78.5739C183.933 78.4514 183.916 78.3228 183.921 78.1942L184.141 73.3858Z" fill="#A6ACB2"/>
</g>
</g>
</g>
<path d="M195.362 73.1722V73.2226L195.311 74.3939L195.15 78.0383C195.14 78.1701 195.109 78.2996 195.059 78.4218C194.969 78.6138 194.824 78.7747 194.642 78.8843C194.461 78.994 194.251 79.0474 194.039 79.0378L184.317 78.6035C184.108 78.594 183.906 78.5227 183.737 78.3988C183.568 78.2749 183.44 78.1038 183.368 77.907C183.368 77.8971 183.358 77.8867 183.358 77.8768C183.321 77.7559 183.304 77.6297 183.308 77.5032L183.53 72.6875C183.541 72.4436 183.636 72.2111 183.8 72.0303C183.964 71.8495 184.187 71.7317 184.428 71.6974C184.495 71.6885 184.563 71.6851 184.63 71.6871L194.302 72.1214H194.352C194.529 72.1271 194.701 72.1831 194.847 72.2828C194.921 72.3244 194.988 72.3753 195.049 72.4344C195.121 72.5092 195.183 72.5941 195.231 72.6866C195.272 72.7437 195.299 72.8093 195.311 72.8786C195.315 72.8825 195.318 72.8873 195.32 72.8925C195.322 72.8977 195.322 72.9033 195.321 72.9087C195.35 72.9935 195.364 73.0827 195.362 73.1722Z" fill="#E2EFEE"/>
<path d="M195.362 73.1719V73.3536L195.311 74.3936L195.129 78.038C195.125 78.1706 195.094 78.3009 195.039 78.4216L194.544 78.3914L183.368 77.9067C183.368 77.8968 183.358 77.8865 183.358 77.8766C183.321 77.7557 183.304 77.6294 183.308 77.5029L183.53 72.6872C183.541 72.4433 183.636 72.2108 183.8 72.03C183.964 71.8492 184.187 71.7315 184.428 71.6971L194.302 72.1212C194.494 72.1316 194.68 72.1869 194.847 72.2826C194.921 72.3241 194.988 72.3751 195.049 72.4341C195.121 72.5089 195.183 72.5939 195.231 72.6864C195.272 72.7434 195.299 72.8091 195.311 72.8784C195.315 72.8823 195.318 72.887 195.32 72.8922C195.322 72.8975 195.322 72.903 195.321 72.9085C195.35 72.9932 195.364 73.0824 195.362 73.1719Z" fill="#3E89CC"/>
<path d="M183.714 77.8936L189.331 78.1519L189.483 78.1596L189.789 78.1734L189.941 78.1812L190.248 78.1949L190.402 78.2027L190.708 78.2165L190.86 78.2238L191.166 78.238L191.318 78.244L191.625 78.2595L191.779 78.2655L192.085 78.281L192.237 78.2871L192.544 78.3008L192.696 78.3082L193.002 78.3224L193.156 78.3297L193.462 78.3439L193.614 78.3512L193.921 78.365L194.073 78.3727L194.585 78.3955L194.867 72.2828C194.713 72.186 194.536 72.131 194.355 72.1235L184.626 71.6836C184.4 71.6732 184.178 71.7362 183.991 71.8631L183.714 77.8936Z" fill="url(#paint19_linear_7880_205987)"/>
<path d="M193.743 72.605L194.376 72.6373C194.488 72.643 194.598 72.604 194.681 72.529C194.764 72.4539 194.814 72.3489 194.819 72.237C194.825 72.1251 194.786 72.0155 194.711 71.9324C194.636 71.8492 194.531 71.7993 194.419 71.7936L193.786 71.7613C193.674 71.7556 193.565 71.7946 193.482 71.8696C193.399 71.9447 193.349 72.0498 193.343 72.1616C193.337 72.2735 193.376 72.3831 193.451 72.4662C193.526 72.5494 193.631 72.5993 193.743 72.605Z" fill="#1B2A36"/>
<path d="M193.834 72.4973L194.296 72.5209C194.337 72.5236 194.378 72.5181 194.417 72.5048C194.456 72.4915 194.491 72.4707 194.522 72.4435C194.552 72.4163 194.577 72.3833 194.595 72.3464C194.612 72.3095 194.623 72.2695 194.625 72.2287C194.627 72.1878 194.621 72.147 194.607 72.1085C194.593 72.07 194.572 72.0346 194.544 72.0045C194.516 71.9743 194.483 71.95 194.446 71.9328C194.409 71.9156 194.369 71.906 194.328 71.9045L193.866 71.8808C193.784 71.8778 193.705 71.9069 193.646 71.9616C193.586 72.0164 193.55 72.0925 193.546 72.1736C193.542 72.2546 193.57 72.3339 193.624 72.3945C193.678 72.4551 193.753 72.492 193.834 72.4973Z" fill="#202124"/>
<path d="M191.299 72.3843L192.474 72.4442C192.53 72.4482 192.586 72.4411 192.639 72.4231C192.693 72.4051 192.742 72.3766 192.784 72.3394C192.826 72.3022 192.86 72.2569 192.885 72.2063C192.909 72.1556 192.923 72.1006 192.926 72.0445C192.929 71.9884 192.921 71.9322 192.902 71.8793C192.882 71.8265 192.853 71.778 192.815 71.7366C192.777 71.6953 192.731 71.662 192.68 71.6387C192.628 71.6154 192.573 71.6025 192.517 71.6009L191.342 71.5406C191.23 71.5349 191.121 71.5739 191.038 71.6489C190.954 71.724 190.904 71.829 190.899 71.9409C190.893 72.0528 190.932 72.1624 191.007 72.2455C191.082 72.3287 191.187 72.3786 191.299 72.3843Z" fill="#1B2A36"/>
<path d="M191.465 72.2773L192.319 72.3204C192.4 72.3234 192.478 72.2946 192.538 72.2401C192.597 72.1857 192.633 72.11 192.637 72.0294C192.641 71.9488 192.613 71.8698 192.56 71.8096C192.506 71.7493 192.431 71.7126 192.35 71.7074L191.496 71.6643C191.456 71.6617 191.415 71.6672 191.377 71.6804C191.338 71.6936 191.303 71.7144 191.272 71.7414C191.242 71.7684 191.217 71.8012 191.2 71.8379C191.182 71.8745 191.172 71.9143 191.17 71.9549C191.168 71.9955 191.174 72.0361 191.188 72.0744C191.201 72.1126 191.223 72.1478 191.25 72.1778C191.277 72.2078 191.311 72.232 191.347 72.2491C191.384 72.2662 191.424 72.2758 191.465 72.2773Z" fill="#202124"/>
<path d="M183.528 72.6922C183.534 72.554 183.655 71.0796 183.655 71.0796C183.657 71.0242 183.671 70.9699 183.695 70.9198C183.719 70.8697 183.752 70.8247 183.793 70.7876C183.835 70.7504 183.883 70.7217 183.935 70.7031C183.987 70.6845 184.043 70.6764 184.098 70.6793L190.187 70.9905C190.243 70.9933 190.297 71.007 190.347 71.0308C190.397 71.0546 190.442 71.0881 190.48 71.1292C190.517 71.1704 190.545 71.2185 190.564 71.2708C190.583 71.3231 190.591 71.3785 190.588 71.4339L190.561 71.9526L194.355 72.1248C194.635 72.1374 194.898 72.2607 195.087 72.4675C195.276 72.6744 195.375 72.9478 195.363 73.2277L195.357 73.3568L183.522 72.8097L183.528 72.6922Z" fill="#E8EDEB"/>
<path d="M185.143 72.5199L186.318 72.5797C186.551 72.5913 186.755 72.3012 186.774 71.931C186.793 71.5608 186.62 71.2517 186.387 71.2396L185.212 71.1798C184.979 71.1678 184.775 71.4579 184.756 71.8281C184.737 72.1983 184.912 72.5078 185.143 72.5199Z" fill="#1B227A"/>
<path d="M185.351 72.3078L186.138 72.3478C186.293 72.3556 186.43 72.1615 186.442 71.9139C186.455 71.6664 186.339 71.4594 186.184 71.4512L185.398 71.4111C185.242 71.403 185.105 71.5971 185.093 71.8451C185.08 72.093 185.195 72.2996 185.351 72.3078Z" fill="#57C6F2"/>
<path d="M185.461 72.1961L186.04 72.2254C186.155 72.2314 186.255 72.0885 186.265 71.906C186.274 71.7235 186.189 71.5711 186.074 71.565L185.494 71.5353C185.38 71.5293 185.279 71.6727 185.27 71.8552C185.26 72.0377 185.346 72.1892 185.461 72.1961Z" fill="#1B227A"/>
<path d="M187.907 71.8364L187.912 71.8184C187.915 71.805 187.919 71.7921 187.924 71.7792C187.926 71.7732 187.928 71.7671 187.931 71.7615C187.937 71.7467 187.944 71.7323 187.952 71.7185C187.957 71.7095 187.963 71.7017 187.969 71.6935L187.979 71.6793C188.002 71.6494 188.032 71.6245 188.065 71.6061C188.101 71.5852 188.142 71.5752 188.184 71.5773H188.198L188.456 71.5949H188.477L188.717 71.6113L188.907 71.6242C188.981 71.6484 189.044 71.6963 189.087 71.7604C189.13 71.8244 189.151 71.9011 189.146 71.9781C189.14 72.0552 189.11 72.1283 189.058 72.186C189.007 72.2437 188.938 72.2826 188.862 72.2966L188.136 72.248C188.058 72.2313 187.99 72.185 187.946 72.1189C187.901 72.0528 187.884 71.972 187.898 71.8937C187.9 71.8744 187.903 71.8553 187.907 71.8364Z" fill="#3E89CC"/>
<g opacity="0.4">
<g opacity="0.4">
<path opacity="0.4" d="M190.403 74.0317C190.404 74.1154 190.43 74.197 190.477 74.2662C190.524 74.3354 190.591 74.389 190.669 74.4203C190.746 74.4516 190.832 74.4591 190.913 74.442C190.995 74.4248 191.071 74.3838 191.129 74.324C191.188 74.2642 191.227 74.1883 191.243 74.106C191.259 74.0237 191.249 73.9387 191.217 73.8616C191.184 73.7845 191.129 73.7189 191.059 73.673C190.989 73.6271 190.907 73.603 190.823 73.6038C190.767 73.6043 190.712 73.6158 190.661 73.6375C190.61 73.6593 190.563 73.691 190.524 73.7307C190.485 73.7705 190.455 73.8175 190.434 73.8691C190.413 73.9208 190.403 73.976 190.403 74.0317Z" fill="#231F20"/>
</g>
</g>
<path d="M190.401 73.821C190.402 73.9049 190.427 73.9866 190.475 74.0559C190.522 74.1252 190.589 74.179 190.666 74.2103C190.744 74.2417 190.83 74.2493 190.912 74.2322C190.994 74.215 191.069 74.1739 191.128 74.114C191.186 74.0541 191.226 73.9782 191.242 73.8957C191.257 73.8133 191.248 73.7281 191.215 73.651C191.182 73.5738 191.127 73.5081 191.057 73.4622C190.987 73.4163 190.905 73.3922 190.821 73.3931C190.708 73.3942 190.601 73.4399 190.522 73.5202C190.444 73.6004 190.4 73.7086 190.401 73.821Z" fill="#D8D7D6"/>
<path d="M190.641 73.7725C190.642 73.8172 190.655 73.8607 190.681 73.8977C190.706 73.9346 190.741 73.9632 190.783 73.9799C190.824 73.9966 190.87 74.0007 190.914 73.9915C190.957 73.9824 190.997 73.9605 191.029 73.9286C191.06 73.8967 191.081 73.8562 191.089 73.8123C191.098 73.7684 191.093 73.723 191.075 73.6818C191.058 73.6407 191.029 73.6057 190.991 73.5812C190.954 73.5567 190.91 73.5439 190.865 73.5443C190.836 73.5445 190.806 73.5506 190.779 73.5622C190.751 73.5738 190.727 73.5907 190.706 73.6119C190.685 73.6331 190.669 73.6582 190.658 73.6858C190.647 73.7133 190.641 73.7428 190.641 73.7725Z" fill="#EEF4FB"/>
<g opacity="0.1">
<g opacity="0.1">
<path opacity="0.1" d="M184.9 75.8625C184.906 76.4221 185.077 76.9675 185.393 77.4297C185.708 77.8919 186.154 78.2502 186.673 78.4592C187.192 78.6682 187.761 78.7185 188.309 78.6039C188.857 78.4893 189.358 78.2148 189.75 77.8151C190.142 77.4155 190.406 76.9086 190.51 76.3587C190.614 75.8088 190.552 75.2404 190.333 74.7256C190.113 74.2107 189.746 73.7724 189.278 73.4662C188.809 73.1599 188.261 72.9994 187.701 73.005C186.951 73.0125 186.234 73.3178 185.709 73.8537C185.184 74.3895 184.893 75.1121 184.9 75.8625Z" fill="#231F20"/>
</g>
</g>
<path d="M184.898 75.6518C184.903 76.2114 185.075 76.7568 185.39 77.2191C185.706 77.6813 186.151 78.0396 186.67 78.2487C187.189 78.4578 187.759 78.5082 188.307 78.3936C188.854 78.279 189.356 78.0046 189.748 77.6049C190.14 77.2053 190.404 76.6985 190.508 76.1485C190.611 75.5986 190.55 75.0302 190.331 74.5153C190.111 74.0004 189.744 73.5621 189.276 73.2559C188.807 72.9496 188.259 72.7891 187.699 72.7947C186.949 72.8022 186.232 73.1074 185.707 73.6432C185.182 74.179 184.891 74.9015 184.898 75.6518Z" fill="#EEF4FB"/>
<path d="M185.345 75.646C185.35 76.0868 185.485 76.5164 185.733 76.8806C185.982 77.2447 186.333 77.5269 186.742 77.6916C187.15 77.8562 187.599 77.8959 188.031 77.8056C188.462 77.7153 188.857 77.4991 189.166 77.1843C189.474 76.8695 189.683 76.4702 189.764 76.037C189.846 75.6037 189.798 75.156 189.625 74.7504C189.452 74.3448 189.163 73.9995 188.794 73.7583C188.425 73.517 187.993 73.3906 187.552 73.395C186.961 73.4009 186.396 73.6414 185.982 74.0635C185.568 74.4856 185.339 75.0549 185.345 75.646Z" fill="#D7D5D1"/>
<path d="M185.778 75.6402C185.782 75.9953 185.891 76.3413 186.091 76.6346C186.291 76.9278 186.574 77.1551 186.903 77.2877C187.233 77.4203 187.594 77.4522 187.941 77.3795C188.289 77.3067 188.607 77.1325 188.856 76.879C189.104 76.6254 189.272 76.3038 189.338 75.9549C189.404 75.6059 189.365 75.2453 189.226 74.9186C189.086 74.5919 188.854 74.3138 188.556 74.1194C188.259 73.925 187.911 73.8232 187.556 73.8266C187.32 73.8289 187.087 73.8777 186.87 73.9701C186.653 74.0625 186.457 74.1967 186.291 74.3651C186.126 74.5335 185.996 74.7328 185.908 74.9516C185.82 75.1704 185.776 75.4044 185.778 75.6402Z" fill="#363A50"/>
<path d="M186.482 75.6344C186.484 75.8503 186.55 76.0607 186.672 76.239C186.794 76.4173 186.966 76.5556 187.166 76.6362C187.366 76.7169 187.586 76.7363 187.797 76.6921C188.009 76.6479 188.202 76.542 188.353 76.3878C188.504 76.2337 188.606 76.0381 188.646 75.826C188.687 75.6138 188.663 75.3945 188.578 75.1959C188.494 74.9972 188.352 74.8281 188.171 74.7099C187.991 74.5917 187.779 74.5298 187.563 74.5319C187.42 74.5333 187.278 74.563 187.146 74.6191C187.014 74.6753 186.895 74.7569 186.794 74.8592C186.694 74.9616 186.615 75.0828 186.561 75.2158C186.508 75.3488 186.481 75.491 186.482 75.6344Z" fill="#6E8FA8"/>
<path d="M187.373 75.3954C187.374 75.4807 187.399 75.564 187.447 75.6346C187.495 75.7052 187.563 75.7601 187.642 75.7921C187.721 75.8242 187.808 75.8321 187.891 75.8147C187.975 75.7974 188.051 75.7556 188.111 75.6947C188.171 75.6338 188.211 75.5566 188.227 75.4727C188.242 75.3889 188.233 75.3023 188.199 75.2238C188.166 75.1454 188.11 75.0787 188.038 75.0323C187.967 74.9858 187.883 74.9616 187.798 74.9628C187.684 74.9644 187.576 75.0107 187.496 75.0918C187.417 75.1728 187.373 75.2819 187.373 75.3954Z" fill="#8CB1C6"/>
<g style="mix-blend-mode:multiply">
<path d="M209.233 67.889C208.563 67.9505 208.945 72.5889 209.134 73.2165C209.109 74.7761 209.039 75.4201 209.039 75.4201C209.039 75.4201 206.772 68.4731 206.549 68.4895C205.711 68.522 204.876 68.3752 204.1 68.059C204.186 63.2747 203.076 60.7508 204.07 56.5008C204.655 57.3019 205.189 55.4986 205.594 56.4026C206.142 57.6179 206.979 58.676 207.661 59.821C208.343 60.9661 209.386 65.2665 209.234 66.5907" fill="#A6ACB2"/>
</g>
<path d="M212.201 52.9974C212.201 52.9974 216.241 73.3007 216.356 76.9288C216.405 78.4725 216.507 98.313 216.507 98.313L212.478 98.341C212.478 98.341 209.82 82.9249 209.547 77.6081C208.56 73.7902 204.161 57.6827 204.161 57.6827" fill="#F9AF7D"/>
<path d="M208.733 61.1939C209.927 60.6057 211.215 60.2343 212.539 60.0971C212.84 60.0575 213.195 59.9395 213.497 59.9137C213.803 61.6786 214.241 63.5667 214.555 65.4737C213.539 66.4463 212.35 67.2211 211.05 67.7582C209.785 68.2249 208.449 68.4701 207.1 68.4831C206.603 66.7647 206.355 65.3269 205.988 63.7311C206.674 62.6675 207.619 61.7948 208.733 61.1939Z" fill="#FF6666"/>
<path d="M219.956 105.333C220.021 104.9 220.052 104.464 220.048 104.027C220.044 103.564 220.087 102.733 219.656 102.488C219.281 102.275 216.479 102.438 216.011 102.349C216.223 101.775 214.523 101.163 215.039 100.834C215.232 100.711 215.234 100.21 215.463 100.197C215.82 100.176 221.096 99.9853 221.829 100.953C222.121 101.34 222.212 102.981 222.182 103.449C222.145 104.009 222.082 104.566 222.013 105.121" fill="#514847"/>
<path d="M212.535 95.4807C211.853 96.1807 211.068 96.8358 210.722 97.7786C210.331 98.8772 210.22 100.055 210.397 101.208C210.458 101.771 210.679 102.305 211.033 102.748C211.405 103.171 212.86 103.148 213.408 103.02C213.498 102.999 212.691 102.31 212.783 102.31C212.97 102.814 213.266 103.271 213.649 103.648C213.999 104.008 215.051 103.915 215.185 103.398C215.446 104.055 216.336 103.668 216.54 103.209C216.911 103.497 217.779 103.51 217.864 102.449C218.888 103.51 219.156 102.401 219.213 102.195C219.927 99.5827 218.849 96.0145 216.587 94.9521C216.136 94.7403 214.01 94.4682 213.561 94.6852" fill="#F9AF7D"/>
<path d="M209.938 104.897C209.957 104.461 210.01 104.026 210.097 103.598C210.112 103.376 210.188 103.163 210.317 102.982C210.446 102.801 210.624 102.661 210.829 102.575C211.441 102.485 212.06 102.452 212.678 102.478C213.153 102.454 213.628 102.443 214.104 102.444C214.063 101.863 213.823 101.313 213.425 100.888C213.222 100.703 212.982 100.562 212.721 100.477C212.374 100.391 209.616 100.175 208.713 100.983C208.353 101.307 208.173 102.158 208.114 102.627C208.043 103.181 207.92 103.99 207.881 104.548" fill="#514847"/>
<path d="M199.999 133.032C200.728 133.126 201.464 133.153 202.199 133.116C207.965 132.957 213.715 132.962 219.478 132.864C222.549 132.811 225.613 132.702 228.679 132.516C230.9 132.382 233.992 132.053 233.948 129.218C233.846 122.577 234.149 115.873 233.835 109.244C233.771 107.885 233.352 106.451 232.292 105.599C231.21 104.728 229.713 104.643 228.324 104.623C224.318 104.565 220.312 104.729 216.309 104.894C212.241 105.061 208.266 104.386 204.198 104.553C201.608 104.66 196.393 105.391 196.454 109.327C196.52 113.576 195.202 129.801 197.994 132.189C198.569 132.653 199.264 132.946 199.999 133.032Z" fill="url(#paint20_linear_7880_205987)"/>
<path d="M197.993 132.191C197.154 131.473 196.688 129.502 196.444 126.985C196.915 126.997 197.385 127.042 197.851 127.12C198.688 127.245 199.495 127.519 200.236 127.929C201.113 128.464 201.827 129.228 202.3 130.14C202.773 131.052 202.987 132.075 202.919 133.1C202.68 133.106 202.44 133.109 202.2 133.116C201.465 133.153 200.729 133.126 200 133.032C199.265 132.946 198.57 132.655 197.993 132.191Z" fill="url(#paint21_linear_7880_205987)"/>
<path d="M202.744 107.737C202.493 108.353 202.128 108.917 201.668 109.397C201.032 109.989 200.274 110.433 199.447 110.698C198.473 111.048 197.456 111.268 196.424 111.354C196.447 110.536 196.46 109.843 196.452 109.328C196.397 105.768 200.66 104.83 203.391 104.605C203.386 105.682 203.166 106.747 202.744 107.737Z" fill="url(#paint22_linear_7880_205987)"/>
<path d="M229.242 128.389C229.921 126.891 231.13 125.698 232.636 125.04C233.055 124.848 233.488 124.69 233.931 124.566C233.924 126.119 233.924 127.67 233.948 129.218C233.991 132.045 230.921 132.38 228.701 132.515C228.683 132.055 228.678 131.595 228.701 131.135C228.721 130.195 228.904 129.266 229.242 128.389Z" fill="url(#paint23_linear_7880_205987)"/>
<path d="M227.033 104.671C227.033 104.655 227.03 104.639 227.03 104.622C227.46 104.622 227.893 104.618 228.324 104.624C229.713 104.645 231.209 104.73 232.292 105.6C233.352 106.453 233.771 107.887 233.835 109.245C233.86 109.765 233.875 110.287 233.892 110.808C233.076 110.852 232.257 110.769 231.466 110.562C229.637 110.065 227.98 108.734 227.392 106.932C227.183 106.195 227.062 105.436 227.033 104.671Z" fill="url(#paint24_linear_7880_205987)"/>
<path d="M222.658 118.452C222.658 118.452 225.085 119.333 226.317 119.662C226.317 119.662 224.232 123.364 223.132 125.129C221.379 124.444 219.427 123.559 219.427 123.559L222.658 118.452Z" fill="url(#paint25_linear_7880_205987)"/>
<path d="M208.217 116.041L212.214 112.089L215.806 116.695L213.25 119.457L208.217 116.041Z" fill="url(#paint26_linear_7880_205987)"/>
<path d="M209.111 125.41C209.031 126.87 210.242 128.105 211.645 128.376C212.028 128.435 212.419 128.415 212.794 128.319C213.169 128.222 213.521 128.051 213.828 127.815C214.136 127.579 214.392 127.283 214.582 126.946C214.772 126.608 214.892 126.236 214.935 125.851C215.023 125.081 214.802 124.309 214.32 123.702C213.838 123.096 213.135 122.706 212.366 122.618C211.596 122.531 210.824 122.752 210.217 123.234C209.611 123.716 209.221 124.418 209.133 125.188C209.123 125.263 209.116 125.337 209.111 125.41Z" fill="url(#paint27_linear_7880_205987)"/>
<g style="mix-blend-mode:multiply" opacity="0.3">
<path d="M202.685 104.677C202.232 105.023 201.868 105.472 201.624 105.987C201.379 106.502 201.262 107.068 201.28 107.637C201.346 111.887 200.028 128.111 202.82 130.5C203.396 130.963 204.091 131.255 204.825 131.341C205.554 131.434 206.29 131.462 207.025 131.424C212.793 131.266 218.541 131.271 224.304 131.172C227.375 131.12 230.439 131.01 233.505 130.825H233.508C232.584 132.193 230.379 132.414 228.679 132.517C225.613 132.702 222.549 132.811 219.478 132.864C213.715 132.963 207.965 132.958 202.199 133.116C201.464 133.154 200.728 133.126 199.999 133.033C199.265 132.946 198.57 132.655 197.994 132.192C195.202 129.803 196.52 113.578 196.454 109.329C196.403 106.063 199.984 105.004 202.685 104.677Z" fill="#828282"/>
</g>
<g style="mix-blend-mode:multiply" opacity="0.3">
<path d="M231.284 105.97C228.095 105.974 224.922 106.354 221.73 106.358C218.774 106.362 215.82 106.305 212.864 106.342C210.005 106.377 207.147 106.441 204.288 106.471C203.328 106.481 202.222 106.306 201.738 107.298C201.598 107.586 202.014 107.839 202.172 107.552C202.861 106.3 207.75 106.937 208.874 106.918C211.416 106.872 213.959 106.821 216.502 106.825C221.455 106.831 226.397 106.925 231.302 106.103C231.379 106.09 231.358 105.969 231.284 105.969V105.97Z" fill="#828282"/>
</g>
<path d="M209.401 47.5731C212.75 51.8348 213.891 57.8111 215.843 62.938C215.843 62.938 213.038 65.5024 211.582 66.0232C209.554 66.7427 207.389 66.9914 205.251 66.7503C204.912 61.9888 204.397 61.2678 204.072 56.4973" fill="url(#paint28_linear_7880_205987)"/>
<path opacity="0.15" d="M178.074 63.0195C178.45 59.7402 178.848 56.3846 180.312 53.4264" stroke="#9F2C22" stroke-miterlimit="10"/>
<path d="M196.099 61.5635L195.895 61.5691C195.86 61.7868 195.875 62.0095 195.938 62.2208C195.974 62.3427 196.099 62.4843 196.202 62.4098C196.225 62.3856 196.243 62.3564 196.253 62.3243C196.264 62.2922 196.266 62.2581 196.261 62.2247V61.7228C196.261 61.6083 196.193 61.4455 196.089 61.4942" stroke="#FF6666" stroke-miterlimit="10"/>
<path d="M195.988 70.2829C195.973 70.2557 195.952 70.2319 195.927 70.213C195.902 70.1942 195.873 70.1808 195.843 70.1736C195.816 70.2841 195.813 70.3991 195.834 70.5108C195.855 70.6226 195.899 70.7288 195.963 70.8223C196.008 70.5884 196.009 70.3483 195.968 70.1138" stroke="#FF6666" stroke-miterlimit="10"/>
<path d="M196.428 81.4666L196.286 81.325C196.245 81.4571 196.233 81.5968 196.253 81.7339C196.272 81.871 196.321 82.0022 196.397 82.1179C196.498 81.6997 196.516 81.2656 196.448 80.8407L196.414 80.932" stroke="#FF6666" stroke-miterlimit="10"/>
<path d="M196.295 90.123C196.229 90.2294 196.194 90.3521 196.194 90.4773C196.194 90.6025 196.229 90.7252 196.295 90.8316C196.303 90.8485 196.316 90.8633 196.331 90.8746C196.345 90.886 196.363 90.8937 196.381 90.897C196.446 90.897 196.471 90.8109 196.473 90.748C196.482 90.5252 196.476 90.3021 196.457 90.08" stroke="#FF6666" stroke-miterlimit="10"/>
<path d="M186.448 61.0681L187.313 61.1809" stroke="#FF6666" stroke-miterlimit="10"/>
<path d="M185.588 69.7548C185.865 69.7549 186.138 69.8136 186.391 69.9269" stroke="#FF6666" stroke-miterlimit="10"/>
<path d="M184.801 82.1428L185.589 82.2896" stroke="#FF6666" stroke-miterlimit="10"/>
<path d="M184.655 90.3334H185.516" stroke="#FF6666" stroke-miterlimit="10"/>
<path d="M188.729 190C247.548 190 295.229 186.642 295.229 182.5C295.229 178.358 247.548 175 188.729 175C129.911 175 82.2292 178.358 82.2292 182.5C82.2292 186.642 129.911 190 188.729 190Z" fill="#EDEDED"/>
<g style="mix-blend-mode:multiply" opacity="0.6">
<path d="M317.229 24.9421C324.446 27.417 333.9 27.6798 340.522 27.3945C347.144 27.1091 352.72 32.3888 358.623 28.6654C364.446 24.9966 368.386 30.5741 376.229 27.3064V0.285478C374.043 -0.22127 371.753 -0.0504625 369.669 0.774647C363.958 2.77865 365.499 12.64 364.715 12.9566C363.93 13.2733 359.113 10.8456 355.069 11.618C351.025 12.3903 349.82 18.5821 349.82 18.5821C344.329 17.0127 343.621 18.5348 337.787 22.9577C331.952 27.3806 317.229 24.9421 317.229 24.9421Z" fill="url(#paint29_linear_7880_205987)" style="mix-blend-mode:screen"/>
</g>
<defs>
<linearGradient id="paint0_linear_7880_205987" x1="119.821" y1="17" x2="270.821" y2="17" gradientUnits="userSpaceOnUse">
<stop stop-color="#9DD6E2"/>
<stop offset="0.592" stop-color="#C1E6EE"/>
<stop offset="1" stop-color="#D6EFF6"/>
</linearGradient>
<linearGradient id="paint1_linear_7880_205987" x1="170.864" y1="55.9205" x2="177.826" y2="55.9205" gradientUnits="userSpaceOnUse">
<stop stop-color="#D36336"/>
<stop offset="0.418" stop-color="#E88733"/>
<stop offset="0.796" stop-color="#F9A531"/>
</linearGradient>
<linearGradient id="paint2_linear_7880_205987" x1="179.308" y1="79.2759" x2="179.898" y2="61.1994" gradientUnits="userSpaceOnUse">
<stop stop-color="#D36336"/>
<stop offset="0.418" stop-color="#E88733"/>
<stop offset="0.796" stop-color="#F9A531"/>
</linearGradient>
<linearGradient id="paint3_linear_7880_205987" x1="208.296" y1="162.787" x2="210.611" y2="174.853" gradientUnits="userSpaceOnUse">
<stop offset="0.151" stop-color="#D14326"/>
<stop offset="0.64" stop-color="#E66A3A"/>
<stop offset="1" stop-color="#F48347"/>
</linearGradient>
<linearGradient id="paint4_linear_7880_205987" x1="213.738" y1="167.933" x2="215.377" y2="167.933" gradientUnits="userSpaceOnUse">
<stop stop-color="#6E1500"/>
<stop offset="1" stop-color="#B54D22"/>
</linearGradient>
<linearGradient id="paint5_linear_7880_205987" x1="201.176" y1="84.2879" x2="175.704" y2="141.029" gradientUnits="userSpaceOnUse">
<stop stop-color="#2F8D84"/>
<stop offset="0.119" stop-color="#297A80"/>
<stop offset="0.332" stop-color="#215F7A"/>
<stop offset="0.549" stop-color="#1C4C76"/>
<stop offset="0.769" stop-color="#194073"/>
<stop offset="1" stop-color="#183D73"/>
</linearGradient>
<linearGradient id="paint6_linear_7880_205987" x1="180.897" y1="168.543" x2="164.873" y2="175.425" gradientUnits="userSpaceOnUse">
<stop offset="0.151" stop-color="#D14326"/>
<stop offset="0.64" stop-color="#E66A3A"/>
<stop offset="1" stop-color="#F48347"/>
</linearGradient>
<linearGradient id="paint7_linear_7880_205987" x1="161.556" y1="173.286" x2="181.901" y2="173.286" gradientUnits="userSpaceOnUse">
<stop stop-color="#6E1500"/>
<stop offset="1" stop-color="#B54D22"/>
</linearGradient>
<linearGradient id="paint8_linear_7880_205987" x1="203.402" y1="172.778" x2="216.629" y2="172.778" gradientUnits="userSpaceOnUse">
<stop stop-color="#6E1500"/>
<stop offset="1" stop-color="#B54D22"/>
</linearGradient>
<linearGradient id="paint9_linear_7880_205987" x1="180.704" y1="94.6044" x2="199.59" y2="68.2358" gradientUnits="userSpaceOnUse">
<stop stop-color="#D36336"/>
<stop offset="0.418" stop-color="#E88733"/>
<stop offset="0.796" stop-color="#F9A531"/>
</linearGradient>
<linearGradient id="paint10_linear_7880_205987" x1="201.002" y1="86.421" x2="216.855" y2="64.8705" gradientUnits="userSpaceOnUse">
<stop stop-color="#D36336"/>
<stop offset="0.418" stop-color="#E88733"/>
<stop offset="0.796" stop-color="#F9A531"/>
</linearGradient>
<linearGradient id="paint11_linear_7880_205987" x1="190.956" y1="59.0087" x2="197.48" y2="59.0087" gradientUnits="userSpaceOnUse">
<stop stop-color="#2F8D84"/>
<stop offset="0.119" stop-color="#297A80"/>
<stop offset="0.332" stop-color="#215F7A"/>
<stop offset="0.549" stop-color="#1C4C76"/>
<stop offset="0.769" stop-color="#194073"/>
<stop offset="1" stop-color="#183D73"/>
</linearGradient>
<linearGradient id="paint12_linear_7880_205987" x1="194.927" y1="44.9274" x2="199.955" y2="44.9274" gradientUnits="userSpaceOnUse">
<stop stop-color="#D36336"/>
<stop offset="0.418" stop-color="#E88733"/>
<stop offset="0.796" stop-color="#F9A531"/>
</linearGradient>
<linearGradient id="paint13_linear_7880_205987" x1="194.807" y1="42.9101" x2="200.111" y2="42.9101" gradientUnits="userSpaceOnUse">
<stop stop-color="#D36336"/>
<stop offset="0.418" stop-color="#E88733"/>
<stop offset="0.796" stop-color="#F9A531"/>
</linearGradient>
<linearGradient id="paint14_linear_7880_205987" x1="196.71" y1="42.9002" x2="200.111" y2="42.9002" gradientUnits="userSpaceOnUse">
<stop stop-color="#D36336"/>
<stop offset="0.418" stop-color="#E88733"/>
<stop offset="0.796" stop-color="#F9A531"/>
</linearGradient>
<linearGradient id="paint15_linear_7880_205987" x1="187.623" y1="57.5517" x2="189.322" y2="57.5517" gradientUnits="userSpaceOnUse">
<stop stop-color="#2F8D84"/>
<stop offset="0.119" stop-color="#297A80"/>
<stop offset="0.332" stop-color="#215F7A"/>
<stop offset="0.549" stop-color="#1C4C76"/>
<stop offset="0.769" stop-color="#194073"/>
<stop offset="1" stop-color="#183D73"/>
</linearGradient>
<linearGradient id="paint16_linear_7880_205987" x1="187.14" y1="44.7168" x2="190.933" y2="44.7168" gradientUnits="userSpaceOnUse">
<stop stop-color="#D36336"/>
<stop offset="0.418" stop-color="#E88733"/>
<stop offset="0.796" stop-color="#F9A531"/>
</linearGradient>
<linearGradient id="paint17_linear_7880_205987" x1="187.576" y1="43.1575" x2="190.933" y2="43.1575" gradientUnits="userSpaceOnUse">
<stop stop-color="#D36336"/>
<stop offset="0.418" stop-color="#E88733"/>
<stop offset="0.796" stop-color="#F9A531"/>
</linearGradient>
<linearGradient id="paint18_linear_7880_205987" x1="187.573" y1="43.1486" x2="189.946" y2="43.1486" gradientUnits="userSpaceOnUse">
<stop stop-color="#D36336"/>
<stop offset="0.418" stop-color="#E88733"/>
<stop offset="0.796" stop-color="#F9A531"/>
</linearGradient>
<linearGradient id="paint19_linear_7880_205987" x1="183.714" y1="75.039" x2="194.867" y2="75.039" gradientUnits="userSpaceOnUse">
<stop stop-color="#2F8D84"/>
<stop offset="0.119" stop-color="#297A80"/>
<stop offset="0.332" stop-color="#215F7A"/>
<stop offset="0.549" stop-color="#1C4C76"/>
<stop offset="0.769" stop-color="#194073"/>
<stop offset="1" stop-color="#183D73"/>
</linearGradient>
<linearGradient id="paint20_linear_7880_205987" x1="196.2" y1="118.829" x2="233.982" y2="118.829" gradientUnits="userSpaceOnUse">
<stop stop-color="#8BAA59"/>
<stop offset="0.292" stop-color="#96B362"/>
<stop offset="0.995" stop-color="#AFC877"/>
</linearGradient>
<linearGradient id="paint21_linear_7880_205987" x1="196.444" y1="130.059" x2="202.932" y2="130.059" gradientUnits="userSpaceOnUse">
<stop stop-color="#8BAA59"/>
<stop offset="0.631" stop-color="#569A5B"/>
<stop offset="0.984" stop-color="#3E935C"/>
</linearGradient>
<linearGradient id="paint22_linear_7880_205987" x1="196.424" y1="107.98" x2="203.391" y2="107.98" gradientUnits="userSpaceOnUse">
<stop stop-color="#8BAA59"/>
<stop offset="0.631" stop-color="#569A5B"/>
<stop offset="0.984" stop-color="#3E935C"/>
</linearGradient>
<linearGradient id="paint23_linear_7880_205987" x1="228.685" y1="128.541" x2="233.949" y2="128.541" gradientUnits="userSpaceOnUse">
<stop stop-color="#8BAA59"/>
<stop offset="0.631" stop-color="#569A5B"/>
<stop offset="0.984" stop-color="#3E935C"/>
</linearGradient>
<linearGradient id="paint24_linear_7880_205987" x1="227.03" y1="107.72" x2="233.892" y2="107.72" gradientUnits="userSpaceOnUse">
<stop stop-color="#8BAA59"/>
<stop offset="0.631" stop-color="#569A5B"/>
<stop offset="0.984" stop-color="#3E935C"/>
</linearGradient>
<linearGradient id="paint25_linear_7880_205987" x1="219.427" y1="121.79" x2="226.317" y2="121.79" gradientUnits="userSpaceOnUse">
<stop stop-color="#8BAA59"/>
<stop offset="0.631" stop-color="#569A5B"/>
<stop offset="0.984" stop-color="#3E935C"/>
</linearGradient>
<linearGradient id="paint26_linear_7880_205987" x1="208.217" y1="115.773" x2="215.806" y2="115.773" gradientUnits="userSpaceOnUse">
<stop stop-color="#8BAA59"/>
<stop offset="0.631" stop-color="#569A5B"/>
<stop offset="0.984" stop-color="#3E935C"/>
</linearGradient>
<linearGradient id="paint27_linear_7880_205987" x1="209.108" y1="125.504" x2="214.954" y2="125.504" gradientUnits="userSpaceOnUse">
<stop stop-color="#8BAA59"/>
<stop offset="0.631" stop-color="#569A5B"/>
<stop offset="0.984" stop-color="#3E935C"/>
</linearGradient>
<linearGradient id="paint28_linear_7880_205987" x1="224.142" y1="72.2342" x2="202.163" y2="64.8761" gradientUnits="userSpaceOnUse">
<stop stop-color="#D36336"/>
<stop offset="0.418" stop-color="#E88733"/>
<stop offset="0.796" stop-color="#F9A531"/>
</linearGradient>
<linearGradient id="paint29_linear_7880_205987" x1="106.422" y1="15" x2="165.422" y2="15" gradientUnits="userSpaceOnUse">
<stop stop-color="#9DD6E2"/>
<stop offset="0.592" stop-color="#C1E6EE"/>
<stop offset="1" stop-color="#D6EFF6"/>
</linearGradient>
</defs>
</svg>
