<svg width="184" height="16" viewBox="0 0 184 16" fill="none" xmlns="http://www.w3.org/2000/svg">
<path d="M0 2C0 0.895431 0.895431 0 2 0H22C23.1046 0 24 0.895431 24 2V14C24 15.1046 23.1046 16 22 16H2C0.89543 16 0 15.1046 0 14V2Z" fill="#D8E3F3"/>
<path d="M20.655 5.01752H19.3977C19.0176 5.01752 18.7252 5.13448 18.5498 5.51459L16.1521 10.9824H17.848C17.848 10.9824 18.1404 10.2514 18.1989 10.076C18.3743 10.076 20.041 10.076 20.2749 10.076C20.3334 10.2807 20.4796 10.9532 20.4796 10.9532H22.0001L20.655 5.01752ZM18.6667 8.84793C18.8129 8.49705 19.31 7.18126 19.31 7.18126C19.31 7.2105 19.4562 6.83038 19.5147 6.6257L19.6316 7.15202C19.6316 7.15202 19.9533 8.58477 20.0117 8.87717H18.6667V8.84793Z" fill="#3362AB"/>
<path d="M16.269 9.02338C16.269 10.2514 15.1579 11.0702 13.4327 11.0702C12.7017 11.0702 12 10.924 11.6199 10.7485L11.8538 9.40349L12.0585 9.49121C12.5848 9.72513 12.9357 9.81285 13.5789 9.81285C14.0468 9.81285 14.5438 9.63741 14.5438 9.22806C14.5438 8.9649 14.3392 8.78946 13.6959 8.49706C13.0819 8.20466 12.2631 7.73683 12.2631 6.88887C12.2631 5.71928 13.4035 4.92981 15.0117 4.92981C15.6257 4.92981 16.152 5.04677 16.4737 5.19297L16.2398 6.47952L16.1228 6.36256C15.8304 6.2456 15.4503 6.12864 14.8947 6.12864C14.2807 6.15788 13.9883 6.42104 13.9883 6.65496C13.9883 6.91811 14.3392 7.12279 14.8947 7.38595C15.8304 7.82455 16.269 8.32162 16.269 9.02338Z" fill="#3362AB"/>
<path d="M2 5.07604L2.02924 4.95908H4.54386C4.89474 4.95908 5.15789 5.07603 5.24561 5.45615L5.80117 8.08773C5.24561 6.68422 3.95906 5.54387 2 5.07604Z" fill="#F9B50B"/>
<path d="M9.33915 5.01752L6.79529 10.9532H5.07014L3.60815 5.98243C4.66079 6.65495 5.53798 7.70758 5.85962 8.43857L6.03505 9.05261L7.614 4.98828H9.33915V5.01752Z" fill="#3362AB"/>
<path d="M10.0117 4.98828H11.6199L10.5965 10.9532H8.98828L10.0117 4.98828Z" fill="#3362AB"/>
<path d="M32 2C32 0.895431 32.8954 0 34 0H54C55.1046 0 56 0.895431 56 2V14C56 15.1046 55.1046 16 54 16H34C32.8954 16 32 15.1046 32 14V2Z" fill="#FDEACE"/>
<path d="M46.5041 3.26371L41.3396 3.28146L41.4961 12.7364L46.6606 12.7186L46.5041 3.26371Z" fill="#FF5F00"/>
<path d="M41.6794 8.02799C41.6475 6.10494 42.5089 4.39623 43.8583 3.28788C42.8398 2.48865 41.5629 2.00805 40.1788 2.01279C36.8997 2.02403 34.2914 4.72539 34.3467 8.05311C34.402 11.3808 37.0997 14.064 40.3788 14.0528C41.763 14.048 43.0237 13.5588 44.0156 12.7526C42.6298 11.6704 41.7114 9.95105 41.6794 8.02799Z" fill="#EB001B"/>
<path d="M53.6533 7.94696C53.7086 11.2747 51.1004 13.976 47.8213 13.9873C46.4372 13.992 45.1603 13.5114 44.1418 12.7122C45.5076 11.6038 46.3526 9.89513 46.3207 7.97207C46.2887 6.04902 45.3705 4.3464 43.9845 3.24742C44.9763 2.44131 46.2371 1.95202 47.6212 1.94728C50.9004 1.93605 53.5983 4.63596 53.6533 7.94696Z" fill="#F79E1B"/>
<path d="M64 2C64 0.895431 64.8954 0 66 0H86C87.1046 0 88 0.895431 88 2V14C88 15.1046 87.1046 16 86 16H66C64.8954 16 64 15.1046 64 14V2Z" fill="#D4DEF7"/>
<path d="M81.7114 4.93538L81.247 5.95908H82.1783L81.7114 4.93538ZM76.3528 5.56974C76.4403 5.5282 76.4919 5.43783 76.4919 5.32562C76.4919 5.21565 76.4377 5.136 76.3502 5.09858C76.2705 5.05709 76.1478 5.0523 76.0302 5.0523H75.1994V5.62268H76.0191C76.1504 5.62271 76.2601 5.62096 76.3528 5.56974ZM65.7073 4.93538L65.2482 5.95908H66.1692L65.7073 4.93538ZM87.0832 11.4935H85.7803V10.9427H87.0779C87.2066 10.9427 87.2967 10.9274 87.3509 10.8791C87.4022 10.836 87.4312 10.7752 87.4307 10.7116C87.4307 10.6368 87.398 10.5773 87.3482 10.5418C87.2993 10.5026 87.228 10.4847 87.1105 10.4847C86.477 10.4651 85.6867 10.5025 85.6867 9.68972C85.6867 9.31722 85.9467 8.92508 86.6547 8.92508H87.9986V8.41403H86.75C86.3732 8.41403 86.0994 8.49613 85.9056 8.62383V8.41403H84.0587C83.7634 8.41403 83.4168 8.48062 83.2528 8.62383V8.41403H79.9546V8.62383C79.6922 8.45155 79.2492 8.41403 79.0449 8.41403H76.8694V8.62383C76.6618 8.44088 76.1999 8.41403 75.9185 8.41403H73.4838L72.9267 8.96256L72.4049 8.41403H68.7679V11.9982H72.3363L72.9103 11.4409L73.4511 11.9982L75.6507 12V11.1569H75.867C76.1588 11.1611 76.503 11.1503 76.8067 11.0309V11.9981H78.621V11.0639H78.7085C78.8201 11.0639 78.8312 11.0682 78.8312 11.1697V11.9979H84.3427C84.6926 11.9979 85.0584 11.9165 85.2609 11.7685V11.9979H87.0092C87.3729 11.9979 87.7282 11.9515 87.9986 11.8328V11.1651C87.8347 11.3831 87.5152 11.4936 87.0831 11.4936L87.0832 11.4935ZM75.8959 10.6472H75.054V11.5087H73.7426L72.9119 10.6585L72.0485 11.5087H69.376V8.94021H72.0896L72.9197 9.78216L73.7778 8.94021H75.9337C76.4691 8.94021 77.0707 9.0751 77.0707 9.7864C77.0707 10.4999 76.4856 10.6472 75.8959 10.6472ZM79.9439 10.5307C80.0392 10.6561 80.053 10.7731 80.0558 10.9996V11.5087H79.3783V11.1874C79.3783 11.0329 79.3947 10.8041 79.2693 10.6846C79.1708 10.5927 79.0205 10.5707 78.7743 10.5707H78.0533V11.5087H77.3754V8.94024H78.9329C79.2746 8.94024 79.5234 8.95406 79.7448 9.06143C79.9577 9.17847 80.0917 9.33881 80.0917 9.63181C80.0916 10.0417 79.7911 10.2509 79.6135 10.3151C79.7636 10.3655 79.8863 10.4559 79.9439 10.5307ZM82.7309 9.47142H81.151V9.93835H82.6923V10.4624H81.151V10.9735L82.7309 10.9757V11.5087H80.4791V8.94021H82.7309V9.47142ZM84.4646 11.5087H83.1506V10.9579H84.4594C84.5874 10.9579 84.6781 10.9425 84.735 10.8943C84.7814 10.8546 84.8147 10.7968 84.8147 10.7269C84.8147 10.6519 84.7786 10.5925 84.7324 10.5569C84.6808 10.5177 84.6095 10.5 84.4921 10.5C83.8611 10.4803 83.071 10.5177 83.071 9.70494C83.071 9.33238 83.3283 8.94024 84.0356 8.94024H85.3883V9.48684H84.1505C84.0279 9.48684 83.9481 9.49111 83.8803 9.53336C83.8063 9.57496 83.7789 9.63663 83.7789 9.71806C83.7789 9.81494 83.8417 9.88091 83.9265 9.90939C83.9977 9.93192 84.0741 9.93849 84.1891 9.93849L84.5523 9.94752C84.9184 9.9555 85.1699 10.0133 85.3228 10.154C85.454 10.2777 85.5246 10.4338 85.5246 10.6982C85.5245 11.2507 85.145 11.5087 84.4646 11.5087ZM79.2319 9.51285C79.1504 9.46879 79.0301 9.46645 78.91 9.46645H78.0792V10.0433H78.8989C79.0301 10.0433 79.1417 10.0391 79.2319 9.99035C79.3193 9.94226 79.3717 9.85368 79.3717 9.74383C79.3717 9.63398 79.3193 9.55445 79.2319 9.51285ZM86.7702 9.46639C86.6475 9.46639 86.5659 9.47063 86.4972 9.51279C86.426 9.55445 86.3987 9.61612 86.3987 9.69761C86.3987 9.79443 86.4588 9.8604 86.5462 9.88894C86.6174 9.91147 86.6938 9.91804 86.8061 9.91804L87.1719 9.9269C87.5408 9.93522 87.7872 9.99298 87.9374 10.1337C87.9648 10.1533 87.9812 10.1752 88 10.1973V9.46645H86.7703L86.7702 9.46639ZM75.9192 9.46639H75.0395V10.1206H75.9114C76.1706 10.1206 76.3318 10.0035 76.3319 9.78134C76.3318 9.55673 76.1628 9.46639 75.9192 9.46639ZM70.048 9.46639V9.93338H71.5291V10.4575H70.048V10.9684H71.7068L72.4775 10.2149L71.7395 9.46639H70.048ZM74.3795 11.2626V9.20336L73.3436 10.2164L74.3795 11.2626ZM70.1046 7.13873V7.58129H75.7414L75.7387 6.64504H75.8478C75.9242 6.64746 75.9464 6.65386 75.9464 6.76859V7.58132H78.8618V7.36334C79.097 7.47798 79.4627 7.58132 79.9439 7.58132H81.1704L81.4329 7.01097H82.0149L82.2716 7.58132H84.635V7.03954L84.9929 7.58129H86.8869V4H85.0125V4.42296L84.7501 4H82.8267V4.42296L82.5857 4H79.9877C79.5528 4 79.1706 4.05522 78.8618 4.20913V4H77.0689V4.20913C76.8724 4.05049 76.6046 4 76.307 4H69.757L69.3175 4.92504L68.8662 4H66.8032V4.42296L66.5765 4H64.8171L64 5.70282V7.0649L65.2082 4.49699H66.2106L67.358 6.92826V4.49699H68.4593L69.3422 6.23899L70.1534 4.49699H71.2767V7.0649H70.5851L70.5826 5.05376L69.6042 7.0649H69.0119L68.031 5.05198V7.0649H66.6587L66.3994 6.49212H64.9947L64.7328 7.0649H64V7.5815H65.1528L65.4127 7.01111H65.9947L66.254 7.5815H68.5221V7.14539L68.7245 7.58331H69.902L70.1044 7.13882L70.1046 7.13873ZM78.987 4.79631C79.205 4.59136 79.5466 4.49685 80.0115 4.49685H80.6647V5.04707H80.0252C79.7791 5.04707 79.64 5.08038 79.5061 5.19923C79.391 5.30733 79.3121 5.51172 79.3121 5.78086C79.3121 6.05598 79.3723 6.25433 79.4976 6.3839C79.6015 6.48552 79.7903 6.51634 79.9679 6.51634H80.271L81.2219 4.49693H82.2327L83.375 6.92577V4.49696H84.4023L85.5883 6.28536V4.49696H86.2794V7.06478H85.3233L84.0444 5.13746V7.06478H82.6704L82.4078 6.492H81.0063L80.7516 7.06478H79.962C79.6341 7.06478 79.2189 6.99881 78.9837 6.78075C78.7466 6.56274 78.6233 6.26739 78.6233 5.80046C78.6232 5.41957 78.6968 5.07144 78.987 4.79631ZM77.5992 4.49688H78.2876V7.06478H77.5992V4.49688ZM74.4955 4.49688H76.0472C76.392 4.49688 76.6462 4.5052 76.8643 4.61988C77.0777 4.73458 77.2057 4.90204 77.2057 5.18842C77.2057 5.59788 76.9053 5.80937 76.7303 5.87292C76.8779 5.92405 77.0041 6.01435 77.0642 6.08915C77.1594 6.21688 77.1758 6.33097 77.1758 6.56028V7.06475H76.4953L76.4928 6.74092C76.4928 6.58637 76.509 6.36415 76.3863 6.24069C76.2877 6.15041 76.1374 6.13075 75.8945 6.13075H75.1702V7.06478H74.4956L74.4955 4.49688ZM71.7756 4.49688H74.0295V5.03162H72.4504V5.49448H73.9916V6.02087H72.4504V6.5337H74.0295V7.06475H71.7756V4.49688Z" fill="#2557D6"/>
<path d="M96 2C96 0.895431 96.8954 0 98 0H118C119.105 0 120 0.895431 120 2V14C120 15.1046 119.105 16 118 16H98C96.8954 16 96 15.1046 96 14V2Z" fill="#CCECFF"/>
<path d="M115.558 8.05217C115.558 4.47286 112.571 1.99892 109.297 2H106.48C103.168 1.99881 100.442 4.47361 100.442 8.05217C100.442 11.326 103.168 14.0158 106.48 13.9999H109.297C112.571 14.0157 115.558 11.3251 115.558 8.05217Z" fill="#0079BE"/>
<path d="M106.498 2.50699C103.471 2.50792 101.019 4.96631 101.018 8.00039C101.018 11.034 103.471 13.492 106.498 13.4931C109.526 13.4922 111.979 11.034 111.979 8.00039C111.979 4.96624 109.526 2.50807 106.498 2.50699Z" fill="white"/>
<path d="M103.034 7.98554C103.037 6.50292 103.961 5.23863 105.264 4.73624V11.2341C103.961 10.732 103.037 9.46838 103.034 7.98558V7.98554ZM107.751 11.2357V4.73642C109.054 5.23762 109.98 6.50263 109.982 7.98594C109.98 9.46971 109.054 10.7338 107.751 11.2359V11.2357Z" fill="#0079BE"/>
<path d="M128 2C128 0.895431 128.895 0 130 0H150C151.105 0 152 0.895431 152 2V14C152 15.1046 151.105 16 150 16H130C128.895 16 128 15.1046 128 14V2Z" fill="#E6E6E6"/>
<path d="M146.605 12.5643C147.527 12.5643 147.961 12.2126 148.34 11.1464L150 6.48992H149.039L147.925 10.0925H147.906L146.793 6.4948H145.804L147.406 10.9269L147.32 11.1964C147.259 11.5823 146.913 11.8576 146.523 11.8291C146.449 11.8291 146.304 11.8214 146.246 11.8137V12.5456C146.365 12.5618 146.485 12.5696 146.605 12.5691V12.5643ZM143.402 10.2324C142.898 10.2324 142.578 9.98839 142.578 9.61919C142.578 9.23657 142.886 9.01375 143.476 8.97837L144.527 8.9121V9.25609C144.504 9.8229 144.025 10.2641 143.458 10.2409C143.439 10.2401 143.421 10.2385 143.402 10.2368V10.2324ZM143.148 10.9549C143.72 10.9704 144.255 10.6723 144.543 10.1775H144.562V10.9094H145.437V7.87809C145.437 6.999 144.734 6.43259 143.652 6.43259C142.648 6.43259 141.906 7.00672 141.878 7.79595H142.73C142.832 7.39463 143.213 7.12992 143.625 7.17465C144.203 7.17465 144.527 7.44423 144.527 7.9403V8.27616L143.348 8.3465C142.25 8.41278 141.656 8.86208 141.656 9.64359C141.656 10.4361 142.269 10.9594 143.148 10.9594V10.9549ZM138.077 5.6149H139.167C139.988 5.6149 140.456 6.05241 140.456 6.82212C140.456 7.59183 139.988 8.03301 139.163 8.03301H138.077V5.6149ZM137.132 4.81794V10.9081H138.077V8.832H139.386C140.452 8.88933 141.363 8.07163 141.42 7.0055C141.423 6.94492 141.424 6.88474 141.421 6.82415C141.472 5.76981 140.658 4.87446 139.604 4.82363C139.542 4.82079 139.48 4.82119 139.418 4.82404L137.132 4.81794ZM133.994 5.95441C133.451 5.92311 132.986 6.26303 132.728 6.26303C132.471 6.26303 132.072 5.97027 131.642 5.9784C131.073 5.99304 130.554 6.30817 130.279 6.80667C129.693 7.81466 130.127 9.30692 130.693 10.127C130.97 10.5337 131.303 10.9789 131.74 10.963C132.154 10.9476 132.318 10.6935 132.818 10.6935C133.318 10.6935 133.467 10.963 133.904 10.9549C134.357 10.9472 134.643 10.5483 134.921 10.1417C135.117 9.85381 135.269 9.53868 135.374 9.20648C134.84 8.97309 134.494 8.44734 134.491 7.86467C134.499 7.35071 134.768 6.87661 135.206 6.60702C134.927 6.21099 134.479 5.96783 133.995 5.95076L133.994 5.95441ZM133.655 5.41647C133.417 5.71614 133.053 5.88814 132.671 5.88122C132.646 5.50796 132.773 5.14079 133.022 4.86185C133.27 4.57397 133.62 4.39344 133.998 4.35806C134.025 4.7419 133.902 5.12086 133.654 5.41525" fill="black"/>
<path d="M160 2C160 0.895431 160.895 0 162 0H182C183.105 0 184 0.895431 184 2V14C184 15.1046 183.105 16 182 16H162C160.895 16 160 15.1046 160 14V2Z" fill="#E4E5E7"/>
<path d="M171.459 8.53757V10.8495H170.72V5.14012H172.679C172.913 5.13527 173.145 5.17645 173.363 5.26129C173.58 5.34612 173.779 5.47293 173.947 5.63439C174.117 5.78605 174.252 5.97204 174.343 6.17987C174.435 6.3877 174.48 6.61255 174.477 6.8393C174.482 7.06727 174.437 7.29359 174.346 7.50274C174.254 7.71189 174.118 7.89894 173.947 8.05105C173.605 8.3754 173.182 8.53742 172.679 8.53712H171.459V8.53757ZM171.459 5.84303V7.83603H172.697C172.833 7.84003 172.968 7.81584 173.094 7.76501C173.22 7.71418 173.333 7.63783 173.428 7.54084C173.522 7.45016 173.596 7.3417 173.647 7.22186C173.698 7.10203 173.725 6.97326 173.725 6.84318C173.725 6.71309 173.698 6.58432 173.647 6.46449C173.596 6.34466 173.522 6.23619 173.428 6.14551C173.335 6.04648 173.221 5.96826 173.095 5.91603C172.969 5.8638 172.834 5.83876 172.697 5.84257H171.459V5.84303Z" fill="#5F6368"/>
<path d="M176.179 6.81561C176.725 6.81561 177.156 6.96048 177.472 7.2502C177.787 7.53993 177.945 7.93716 177.945 8.44191V10.8495H177.239V10.3074H177.206C176.901 10.7538 176.494 10.977 175.986 10.977C175.553 10.977 175.19 10.8495 174.899 10.5944C174.759 10.4773 174.647 10.3306 174.571 10.1651C174.495 9.99964 174.458 9.81945 174.461 9.63771C174.461 9.23349 174.615 8.91203 174.922 8.67332C175.23 8.43462 175.641 8.31496 176.155 8.31435C176.593 8.31435 176.954 8.39407 177.238 8.55351V8.38587C177.239 8.26197 177.212 8.13944 177.159 8.02716C177.106 7.91488 177.029 7.81567 176.933 7.73672C176.738 7.56174 176.483 7.46626 176.22 7.46932C175.808 7.46932 175.481 7.64212 175.241 7.98773L174.59 7.58093C174.948 7.07072 175.478 6.81561 176.179 6.81561ZM175.223 9.65365C175.223 9.747 175.245 9.8391 175.287 9.92231C175.33 10.0055 175.392 10.0774 175.468 10.132C175.632 10.2596 175.834 10.3272 176.042 10.3233C176.354 10.3228 176.653 10.1996 176.873 9.98073C177.118 9.75205 177.24 9.48374 177.24 9.17579C177.01 8.99357 176.689 8.90246 176.277 8.90246C175.977 8.90246 175.726 8.97429 175.526 9.11793C175.324 9.26371 175.223 9.44091 175.223 9.65365Z" fill="#5F6368"/>
<path d="M182 6.94318L179.534 12.5714H178.771L179.687 10.6021L178.065 6.94318H178.868L180.04 9.74933H180.056L181.196 6.94318H182Z" fill="#5F6368"/>
<path d="M168.474 8.0392C168.474 7.81569 168.455 7.59257 168.417 7.37228H165.303V8.63551H167.087C167.05 8.83726 166.973 9.02959 166.859 9.20089C166.746 9.37219 166.599 9.51892 166.427 9.63224V10.4522H167.492C168.115 9.88142 168.474 9.0373 168.474 8.0392Z" fill="#4285F4"/>
<path d="M165.303 11.2444C166.194 11.2444 166.944 10.9538 167.492 10.4527L166.427 9.63272C166.131 9.83225 165.749 9.94613 165.303 9.94613C164.441 9.94613 163.71 9.36941 163.448 8.59225H162.352V9.43729C162.627 9.98052 163.048 10.4372 163.569 10.7563C164.09 11.0754 164.69 11.2444 165.303 11.2444Z" fill="#34A853"/>
<path d="M163.448 8.59224C163.31 8.18501 163.31 7.744 163.448 7.33676V6.49173H162.352C162.12 6.94871 162 7.45306 162 7.9645C162 8.47594 162.12 8.9803 162.352 9.43728L163.448 8.59224Z" fill="#FBBC04"/>
<path d="M165.303 5.98287C165.774 5.97523 166.229 6.15196 166.57 6.47486L167.512 5.53872C166.915 4.98117 166.123 4.67506 165.303 4.68457C164.69 4.6846 164.09 4.8536 163.569 5.17272C163.048 5.49183 162.627 5.94849 162.352 6.49172L163.448 7.33675C163.71 6.55959 164.441 5.98287 165.303 5.98287Z" fill="#EA4335"/>
</svg>
