<svg width="122" height="36" viewBox="0 0 122 36" fill="none" xmlns="http://www.w3.org/2000/svg">
<path d="M119.476 0.920959H2.99062C1.89123 0.920959 1 1.80562 1 2.89691V33.5242C1 34.6154 1.89123 35.5001 2.99062 35.5001H119.476C120.575 35.5001 121.466 34.6154 121.466 33.5242V2.89691C121.466 1.80562 120.575 0.920959 119.476 0.920959Z" stroke="#2F0A4D" stroke-width="0.5"/>
<path d="M44.0039 9.74211C44.0039 10.4227 43.8329 11.0183 43.4054 11.4437C42.8923 11.9541 42.2938 12.2093 41.5242 12.2093C40.7547 12.2093 40.1561 11.9541 39.6431 11.4437C39.1301 10.9332 38.8735 10.3377 38.8735 9.57198C38.8735 8.8063 39.1301 8.2108 39.6431 7.70031C40.1561 7.18987 40.7547 6.93463 41.5242 6.93463C41.8663 6.93463 42.2083 7.0197 42.5503 7.18987C42.8923 7.36 43.1489 7.53018 43.3199 7.78538L42.8923 8.21075C42.5503 7.78538 42.1228 7.61525 41.5242 7.61525C41.0112 7.61525 40.4981 7.78538 40.1561 8.21075C39.7286 8.55106 39.5576 9.06155 39.5576 9.65705C39.5576 10.2526 39.7286 10.763 40.1561 11.1033C40.5836 11.4437 41.0112 11.6988 41.5242 11.6988C42.1228 11.6988 42.5503 11.5287 42.9779 11.1033C43.2344 10.8481 43.4054 10.5078 43.4054 10.0824H41.5242V9.48692H44.0039C44.0039 9.48692 44.0039 9.57198 44.0039 9.74211Z" fill="#2F0A4D" stroke="#2F0A4D" stroke-width="0.2" stroke-miterlimit="10"/>
<path d="M47.9378 7.61525H45.6291V9.23167H47.7668V9.82723H45.6291V11.4437H47.9378V12.0392H44.9451V6.93463H47.9378V7.61525Z" fill="#2F0A4D" stroke="#2F0A4D" stroke-width="0.2" stroke-miterlimit="10"/>
<path d="M50.7597 12.0392H50.0755V7.53018H48.6218V6.93463H52.2129V7.53018H50.7597V12.0392Z" fill="#2F0A4D" stroke="#2F0A4D" stroke-width="0.2" stroke-miterlimit="10"/>
<path d="M54.6926 12.0392V6.93463H55.3763V12.0392H54.6926Z" fill="#2F0A4D" stroke="#2F0A4D" stroke-width="0.2" stroke-miterlimit="10"/>
<path d="M58.2844 12.0392H57.6007V7.53018H56.147V6.93463H59.6527V7.53018H58.199V12.0392H58.2844Z" fill="#2F0A4D" stroke="#2F0A4D" stroke-width="0.2" stroke-miterlimit="10"/>
<path d="M66.4072 11.4437C65.8943 11.9541 65.2956 12.2093 64.526 12.2093C63.7564 12.2093 63.1582 11.9541 62.6448 11.4437C62.1319 10.9332 61.8752 10.3377 61.8752 9.57198C61.8752 8.8063 62.1319 8.2108 62.6448 7.70031C63.1582 7.18987 63.7564 6.93463 64.526 6.93463C65.2956 6.93463 65.8943 7.18987 66.4072 7.70031C66.9201 8.2108 67.1768 8.8063 67.1768 9.57198C67.1768 10.2526 66.9201 10.9332 66.4072 11.4437ZM63.1582 11.0183C63.5003 11.3586 64.0131 11.6138 64.526 11.6138C65.0394 11.6138 65.5522 11.4437 65.8943 11.0183C66.2364 10.678 66.4926 10.1675 66.4926 9.57198C66.4926 8.97643 66.3218 8.46599 65.8943 8.12569C65.5522 7.78538 65.0394 7.53018 64.526 7.53018C64.0131 7.53018 63.5003 7.70031 63.1582 8.12569C62.8161 8.46599 62.5594 8.97643 62.5594 9.57198C62.5594 10.0824 62.7307 10.5929 63.1582 11.0183Z" fill="#2F0A4D" stroke="#2F0A4D" stroke-width="0.2" stroke-miterlimit="10"/>
<path d="M68.1177 12.0392V6.93463H68.8872L71.3667 10.9332V9.91229V6.93463H72.0509V12.0392H71.3667L68.7159 7.87049V8.89137V12.0392H68.1177Z" fill="#2F0A4D" stroke="#2F0A4D" stroke-width="0.2" stroke-miterlimit="10"/>
<path d="M61.7039 19.525C59.6519 19.525 58.0274 21.0563 58.0274 23.1832C58.0274 25.225 59.6519 26.8415 61.7039 26.8415C63.7559 26.8415 65.3809 25.3101 65.3809 23.1832C65.3809 21.0563 63.7559 19.525 61.7039 19.525ZM61.7039 25.3101C60.5923 25.3101 59.6519 24.3743 59.6519 23.0982C59.6519 21.822 60.5923 20.8862 61.7039 20.8862C62.8156 20.8862 63.7559 21.7369 63.7559 23.0982C63.7559 24.4594 62.8156 25.3101 61.7039 25.3101ZM53.7516 19.525C51.6997 19.525 50.0751 21.0563 50.0751 23.1832C50.0751 25.225 51.6997 26.8415 53.7516 26.8415C55.8041 26.8415 57.4287 25.3101 57.4287 23.1832C57.4287 21.0563 55.8041 19.525 53.7516 19.525ZM53.7516 25.3101C52.6405 25.3101 51.6997 24.3743 51.6997 23.0982C51.6997 21.822 52.6405 20.8862 53.7516 20.8862C54.8633 20.8862 55.8041 21.7369 55.8041 23.0982C55.8041 24.4594 54.8633 25.3101 53.7516 25.3101ZM44.2606 20.631V22.1623H47.9374C47.8519 23.0131 47.5099 23.6937 47.0823 24.119C46.5693 24.6295 45.7142 25.225 44.2606 25.225C41.952 25.225 40.2418 23.4384 40.2418 21.1414C40.2418 18.8444 42.0375 17.0578 44.2606 17.0578C45.4577 17.0578 46.3983 17.5682 47.0823 18.1638L48.1939 17.0578C47.2533 16.207 46.0562 15.5264 44.3461 15.5264C41.2679 15.5264 38.6172 18.0787 38.6172 21.1414C38.6172 24.2041 41.2679 26.7564 44.3461 26.7564C46.0562 26.7564 47.2533 26.246 48.2794 25.14C49.3055 24.119 49.6475 22.6728 49.6475 21.5668C49.6475 21.2265 49.6475 20.8862 49.562 20.631H44.2606ZM83.0808 21.822C82.7387 20.9713 81.8833 19.525 80.0026 19.525C78.1214 19.525 76.5822 20.9713 76.5822 23.1832C76.5822 25.225 78.1214 26.8415 80.1734 26.8415C81.7979 26.8415 82.8241 25.8206 83.1662 25.225L81.9692 24.3743C81.5417 24.9698 81.0283 25.3952 80.1734 25.3952C79.3184 25.3952 78.805 25.0549 78.3776 24.2892L83.2516 22.2474L83.0808 21.822ZM78.1214 23.0131C78.1214 21.6519 79.233 20.8862 80.0026 20.8862C80.6008 20.8862 81.1996 21.2265 81.3704 21.6519L78.1214 23.0131ZM74.1023 26.5012H75.7268V15.8667H74.1023V26.5012ZM71.5374 20.2906C71.1094 19.8653 70.4258 19.4399 69.5703 19.4399C67.775 19.4399 66.0646 21.0563 66.0646 23.0982C66.0646 25.14 67.6896 26.6713 69.5703 26.6713C70.4258 26.6713 71.1094 26.246 71.4515 25.8206H71.5374V26.331C71.5374 27.6922 70.7679 28.4579 69.5703 28.4579C68.63 28.4579 67.9458 27.7773 67.775 27.1818L66.4067 27.7773C66.8342 28.7131 67.8604 29.9042 69.6562 29.9042C71.5374 29.9042 73.0765 28.7982 73.0765 26.1609V19.6951H71.5374V20.2906ZM69.6562 25.3101C68.5446 25.3101 67.6037 24.3743 67.6037 23.0982C67.6037 21.822 68.5446 20.8862 69.6562 20.8862C70.7679 20.8862 71.6228 21.822 71.6228 23.0982C71.6228 24.3743 70.7679 25.3101 69.6562 25.3101ZM90.5197 15.8667H86.6719V26.5012H88.2964V22.5026H90.5197C92.315 22.5026 94.0254 21.2265 94.0254 19.1847C94.0254 17.1429 92.315 15.8667 90.5197 15.8667ZM90.6051 21.0563H88.2964V17.3981H90.6051C91.8022 17.3981 92.4863 18.419 92.4863 19.1847C92.4009 20.0354 91.7168 21.0563 90.6051 21.0563ZM100.439 19.525C99.2411 19.525 98.044 20.0354 97.6166 21.1414L99.0703 21.7369C99.4123 21.1414 99.9252 20.9713 100.524 20.9713C101.379 20.9713 102.149 21.4817 102.234 22.3325V22.4176C101.978 22.2474 101.294 21.9922 100.609 21.9922C99.0703 21.9922 97.5312 22.8429 97.5312 24.3743C97.5312 25.8206 98.8136 26.7564 100.182 26.7564C101.294 26.7564 101.806 26.246 102.234 25.7355H102.319V26.5863H103.858V22.5026C103.688 20.5459 102.234 19.525 100.439 19.525ZM100.267 25.3101C99.7544 25.3101 98.9849 25.0549 98.9849 24.3743C98.9849 23.5235 99.9252 23.2683 100.695 23.2683C101.379 23.2683 101.721 23.4385 102.149 23.6086C101.978 24.6295 101.122 25.3101 100.267 25.3101ZM109.245 19.6951L107.45 24.2892H107.365L105.483 19.6951H103.773L106.595 26.1609L104.97 29.7341H106.595L110.956 19.6951H109.245ZM94.8804 26.5012H96.5049V15.8667H94.8804V26.5012Z" fill="#2F0A4D"/>
<path d="M11.939 28.6278C11.597 28.4576 11.426 28.0323 11.426 27.6069C11.426 27.5218 11.426 27.3516 11.426 27.2666C11.426 20.971 11.426 14.6754 11.426 8.46486C11.426 8.12456 11.5115 7.86936 11.597 7.52905C11.6826 7.35887 11.8536 7.18875 12.0246 7.01862C15.7014 10.6768 19.2926 14.3351 22.8839 17.9933C19.2071 21.3963 15.6159 24.9695 11.939 28.6278Z" fill="#2F0A4D"/>
<path d="M26.4749 14.2503C25.4488 15.2712 24.3372 16.2921 23.3111 17.398C19.8909 13.91 16.3851 10.4219 12.9648 6.93376C12.9648 6.93376 12.9648 6.84869 13.0503 6.84869C17.4967 9.31587 21.943 11.7831 26.4749 14.2503Z" fill="#2F0A4D"/>
<path d="M12.9648 28.6281C16.3851 25.225 19.8909 21.822 23.3111 18.419C24.2517 19.3548 25.2778 20.2907 26.3894 21.3116C21.943 23.7788 17.4967 26.2459 13.0503 28.6281H12.9648Z" fill="#2F0A4D"/>
<path d="M26.9885 20.9715C25.8769 19.9506 24.8508 18.9297 23.7393 17.9088C24.8508 16.8029 25.9624 15.6969 27.074 14.5909C27.416 14.761 27.758 14.9312 28.1001 15.1864C28.9551 15.6969 29.8957 16.1222 30.7508 16.6327C31.0073 16.7177 31.1783 16.8879 31.3493 17.1431C31.6913 17.5685 31.6913 17.9939 31.3493 18.4193C31.1783 18.5894 31.0073 18.7596 30.7508 18.8447C29.5537 19.6103 28.2711 20.291 26.9885 20.9715Z" fill="#2F0A4D"/>
</svg>
