<svg width="57" height="56" viewBox="0 0 57 56" fill="none" xmlns="http://www.w3.org/2000/svg">
<path d="M0.758218 27.178C1.0707 11.8556 13.7476 -0.310015 29.07 0.00602059C44.3924 0.318505 56.558 12.9954 56.242 28.3178C56.1638 32.128 50.0065 38.85 45.3334 43.7006C40.1526 49.0803 31.8362 55.5714 27.9302 55.4898C12.6078 55.1737 0.442182 42.5004 0.758218 27.178Z" fill="#69B417"/>
<path d="M41.7085 21.8866L38.7364 18.918L26.2441 31.4102L19.7529 24.9191L16.7808 27.8912L26.205 37.3155L26.2441 37.2764L26.2831 37.3155L41.7085 21.8866Z" fill="white"/>
<path d="M29.2658 2.11976C29.2658 2.11976 29.2693 2.11976 29.2658 2.11976L29.4717 2.12686C29.6386 2.13397 29.7665 2.27245 29.7594 2.43935C29.7523 2.60624 29.6209 2.73763 29.4469 2.72698L29.248 2.71988C29.0811 2.71632 28.9533 2.57784 28.9568 2.41094C28.9639 2.2476 29.1024 2.11621 29.2658 2.11976ZM27.8596 2.11621C28.0194 2.11976 28.1508 2.2476 28.1543 2.40739C28.1579 2.57428 28.0265 2.71277 27.8632 2.71632L27.6643 2.72342C27.4974 2.72698 27.3589 2.59914 27.3554 2.43225C27.3518 2.26535 27.4796 2.12687 27.6465 2.12331L27.8489 2.11621C27.8489 2.11621 27.856 2.11621 27.8596 2.11621ZM30.8708 2.21919C30.8779 2.21919 30.885 2.21919 30.8921 2.21919L31.0945 2.24049C31.2579 2.25825 31.3786 2.40384 31.3644 2.57073C31.3466 2.73408 31.2011 2.85481 31.0342 2.84061L30.8353 2.82285C30.672 2.80865 30.5477 2.65951 30.5654 2.49616C30.5796 2.33282 30.7146 2.21564 30.8708 2.21919ZM26.2546 2.20854C26.4073 2.21209 26.5351 2.32927 26.5457 2.48196C26.5599 2.64885 26.4392 2.79445 26.2723 2.80865L26.0735 2.8264C25.9101 2.84416 25.761 2.72342 25.7468 2.55653C25.729 2.39319 25.8498 2.24405 26.0166 2.22984L26.2191 2.21209C26.2333 2.20854 26.2439 2.20854 26.2546 2.20854ZM32.4652 2.41804C32.4794 2.41804 32.4936 2.41804 32.5042 2.42159L32.7067 2.45355C32.87 2.48196 32.9801 2.63465 32.9552 2.79799C32.9268 2.96134 32.7741 3.07497 32.6108 3.04656L32.4155 3.0146C32.2521 2.98975 32.1385 2.83706 32.1669 2.67016C32.1847 2.52102 32.3161 2.41449 32.4652 2.41804ZM24.6602 2.40029C24.8022 2.40384 24.9265 2.51037 24.9514 2.65596C24.9762 2.8193 24.8626 2.97199 24.6992 2.99685L24.5039 3.02881C24.3406 3.05722 24.1879 2.94359 24.1595 2.78024C24.1346 2.6169 24.2447 2.46421 24.4081 2.4358L24.6069 2.40384C24.6247 2.40029 24.6424 2.40029 24.6602 2.40029ZM34.0454 2.71632C34.0667 2.71632 34.0844 2.71987 34.1057 2.72342L34.3046 2.76959C34.4679 2.80865 34.5674 2.96844 34.5283 3.12823C34.4892 3.29158 34.3294 3.39101 34.1696 3.35195L33.9743 3.30933C33.811 3.27382 33.7116 3.11403 33.7471 2.95069C33.7755 2.8122 33.9033 2.71632 34.0454 2.71632ZM23.08 2.69147C23.2149 2.69502 23.3357 2.79089 23.3676 2.92583C23.4031 3.08917 23.3002 3.24897 23.1368 3.28448L22.9415 3.32709C22.7817 3.3626 22.6184 3.26317 22.5829 3.09983C22.5474 2.93648 22.6468 2.77669 22.8101 2.74118L23.009 2.69857C23.0303 2.69502 23.0552 2.69147 23.08 2.69147ZM35.6007 3.11758C35.6255 3.11758 35.6539 3.12113 35.6788 3.12823L35.8741 3.18505C36.0339 3.23121 36.1227 3.40166 36.0765 3.5579C36.0303 3.7177 35.8599 3.80647 35.7037 3.76031L35.5119 3.70349C35.3521 3.65733 35.2598 3.49043 35.306 3.33064C35.345 3.19925 35.4693 3.11403 35.6007 3.11758ZM21.5211 3.08562C21.649 3.08918 21.7661 3.1744 21.8052 3.30223C21.8514 3.46203 21.759 3.62892 21.5993 3.67508L21.4075 3.7319C21.2477 3.77806 21.0808 3.68574 21.0347 3.52949C20.9885 3.3697 21.0773 3.2028 21.2371 3.15664L21.4324 3.09983C21.4608 3.08918 21.4892 3.08562 21.5211 3.08562ZM37.1311 3.61472C37.1631 3.61472 37.1951 3.62182 37.227 3.63247L37.4188 3.70349C37.575 3.76031 37.6531 3.9343 37.5963 4.09055C37.5395 4.24679 37.3655 4.32491 37.2093 4.26809L37.0246 4.20063C36.8684 4.14381 36.7867 3.97336 36.8435 3.81712C36.8861 3.68929 37.0033 3.61117 37.1311 3.61472ZM19.9871 3.57921C20.1078 3.58276 20.2215 3.65733 20.2641 3.77806C20.3209 3.9343 20.2392 4.10475 20.083 4.16156C20.0191 4.18287 19.9587 4.20773 19.8948 4.22903C19.7386 4.28585 19.5681 4.20773 19.5077 4.05149C19.4509 3.89524 19.529 3.7248 19.6853 3.66443C19.7492 3.63957 19.8131 3.61827 19.877 3.59341C19.9161 3.58276 19.9516 3.57566 19.9871 3.57921ZM38.6226 4.21128C38.6616 4.21128 38.7007 4.21838 38.7362 4.23613L38.9208 4.31781C39.0735 4.38528 39.141 4.56282 39.0735 4.71551C39.0061 4.8682 38.8285 4.93567 38.6758 4.86821L38.4947 4.79008C38.342 4.72262 38.2746 4.54507 38.3385 4.39593C38.3917 4.27519 38.5054 4.20773 38.6226 4.21128ZM18.4886 4.16867C18.6022 4.17222 18.7088 4.23969 18.7585 4.34977C18.826 4.50246 18.7549 4.68 18.6022 4.74392L18.4176 4.8256C18.2649 4.89306 18.0873 4.82204 18.0234 4.66935C17.956 4.51666 18.027 4.33911 18.1797 4.2752L18.3643 4.19352C18.4034 4.17577 18.446 4.16867 18.4886 4.16867ZM40.0713 4.89661C40.114 4.89661 40.1601 4.90726 40.2027 4.92857L40.3838 5.0209C40.5294 5.09902 40.5862 5.28012 40.5117 5.42571C40.4335 5.5713 40.2524 5.62811 40.1069 5.55354L39.9293 5.46121C39.7802 5.38664 39.7234 5.20555 39.7979 5.05641C39.8547 4.95343 39.9613 4.89661 40.0713 4.89661ZM17.0292 4.85045C17.1357 4.854 17.2387 4.91082 17.2919 5.0138C17.3665 5.16294 17.3097 5.34403 17.1606 5.4186L16.983 5.51093C16.8374 5.58905 16.6563 5.52869 16.5782 5.3831C16.5001 5.23751 16.5604 5.05641 16.706 4.97829L16.8871 4.88596C16.9333 4.8611 16.983 4.85045 17.0292 4.85045ZM41.4775 5.67427C41.5272 5.67427 41.5805 5.68848 41.6267 5.71688L41.8007 5.81986C41.9427 5.90509 41.9889 6.08974 41.9001 6.23178C41.8149 6.37381 41.6302 6.41998 41.4882 6.3312L41.3177 6.22822C41.1757 6.143 41.1295 5.95835 41.2148 5.81631C41.268 5.72754 41.371 5.67427 41.4775 5.67427ZM15.6194 5.62811C15.7189 5.63166 15.8183 5.68138 15.8716 5.7737C15.9568 5.91574 15.9071 6.10039 15.765 6.18561L15.5946 6.28859C15.4525 6.37381 15.2679 6.32765 15.1827 6.18561C15.0974 6.04357 15.1436 5.85892 15.2856 5.7737L15.4596 5.67072C15.5094 5.63876 15.5662 5.62456 15.6194 5.62811ZM42.8269 6.54071C42.8837 6.54071 42.9405 6.55846 42.9902 6.59397L43.1571 6.71115C43.2921 6.80703 43.3276 6.99168 43.2317 7.13017C43.1358 7.2651 42.9512 7.30061 42.8127 7.20474L42.6493 7.09111C42.5144 6.99878 42.4789 6.81058 42.5712 6.67209C42.6351 6.58687 42.731 6.54071 42.8269 6.54071ZM14.263 6.49099C14.3553 6.49454 14.4476 6.53716 14.5044 6.62238C14.5968 6.76087 14.5612 6.94552 14.4263 7.03784L14.263 7.15147C14.128 7.24735 13.9398 7.21184 13.844 7.0769C13.7481 6.94197 13.7836 6.75377 13.9185 6.65789C13.9753 6.61883 14.0322 6.57977 14.0854 6.54071C14.1387 6.5052 14.2026 6.48744 14.263 6.49099ZM44.123 7.49236C44.1869 7.49236 44.2473 7.51367 44.3005 7.55628L44.4603 7.68412C44.5917 7.78709 44.613 7.9753 44.5065 8.10668C44.4035 8.23452 44.2153 8.25582 44.0839 8.15284L43.9312 8.02856C43.7999 7.92558 43.7785 7.73738 43.878 7.606C43.9419 7.53142 44.0307 7.49236 44.123 7.49236ZM12.9598 7.43555C13.0485 7.43555 13.1338 7.47816 13.1906 7.55273C13.2936 7.68412 13.2687 7.87232 13.1373 7.9753L12.9811 8.09958C12.8497 8.20256 12.6615 8.18125 12.5585 8.04986C12.4555 7.91848 12.4768 7.73028 12.6082 7.6273L12.768 7.50302C12.8284 7.45685 12.8959 7.43555 12.9598 7.43555ZM45.3552 8.52214C45.4226 8.52214 45.4937 8.547 45.5469 8.59671L45.6996 8.73165C45.8239 8.84173 45.831 9.03348 45.7209 9.15421C45.6108 9.2785 45.4191 9.2856 45.2984 9.17552L45.1528 9.04414C45.0285 8.93406 45.0178 8.74585 45.1279 8.62157C45.1847 8.5541 45.27 8.52214 45.3552 8.52214ZM11.724 8.46533C11.8057 8.46533 11.8838 8.50084 11.9442 8.56831C12.0543 8.69259 12.0436 8.88079 11.9193 8.99087C11.8696 9.03348 11.8199 9.07965 11.7702 9.12226C11.6459 9.23234 11.4577 9.22523 11.3476 9.10095C11.2376 8.97667 11.2447 8.78847 11.3689 8.67839C11.4187 8.63222 11.4719 8.58606 11.5216 8.54345C11.5784 8.48663 11.653 8.46178 11.724 8.46533ZM46.5199 9.63004C46.5945 9.63004 46.669 9.662 46.7258 9.71882L46.8679 9.86441C46.9851 9.98159 46.9815 10.1733 46.8608 10.2905C46.7401 10.4077 46.5518 10.4042 46.4347 10.2834L46.2962 10.1414C46.179 10.0242 46.179 9.83245 46.2997 9.71527C46.3636 9.65845 46.4418 9.62649 46.5199 9.63004ZM10.5558 9.56613C10.6303 9.56613 10.7049 9.59808 10.7617 9.6549C10.8789 9.77208 10.8789 9.96028 10.7617 10.081L10.6232 10.2231C10.5061 10.3402 10.3179 10.3438 10.1971 10.2266C10.0799 10.1094 10.0764 9.92122 10.1936 9.80049L10.3356 9.6549C10.396 9.59453 10.4741 9.56613 10.5558 9.56613ZM47.6136 10.809C47.6953 10.809 47.7769 10.8445 47.8337 10.9119C47.8799 10.9617 47.9225 11.0149 47.9687 11.0646C48.0752 11.1889 48.061 11.3807 47.9367 11.4872C47.8124 11.5937 47.6207 11.5795 47.5142 11.4552C47.4715 11.4055 47.4289 11.3558 47.3863 11.3061C47.2762 11.1818 47.2905 10.9901 47.4147 10.8835C47.468 10.8303 47.5426 10.8054 47.6136 10.809ZM9.45496 10.7415C9.52243 10.7415 9.5899 10.7663 9.64672 10.8161C9.771 10.9261 9.78521 11.1143 9.67513 11.2386L9.54374 11.3878C9.43366 11.5121 9.24547 11.5263 9.12118 11.4197C8.9969 11.3096 8.98269 11.1214 9.08922 10.9972L9.22415 10.8445C9.28452 10.7735 9.36974 10.7379 9.45496 10.7415ZM48.6327 12.0518C48.7215 12.0553 48.8067 12.0944 48.8635 12.169C48.9061 12.2222 48.9452 12.2755 48.9878 12.3323C49.0872 12.4637 49.0624 12.6519 48.9274 12.7513C48.7961 12.8508 48.6079 12.8259 48.5084 12.691L48.3877 12.5347C48.2883 12.4033 48.3131 12.2151 48.4445 12.1122C48.4978 12.0731 48.5652 12.0518 48.6327 12.0518ZM8.43584 11.9808C8.49621 11.9808 8.56012 12.0021 8.61339 12.0447C8.74477 12.1477 8.76963 12.3359 8.66665 12.4673L8.54592 12.6271C8.44649 12.7584 8.25829 12.7833 8.12691 12.6839C7.99552 12.5844 7.97067 12.3962 8.07009 12.2613L8.19438 12.1015C8.25119 12.0198 8.34352 11.9772 8.43584 11.9808ZM49.5702 13.3586C49.666 13.3621 49.7584 13.4083 49.8152 13.4899L49.9288 13.6604C50.0211 13.7989 49.9821 13.9835 49.8436 14.0758C49.7051 14.1682 49.5205 14.1291 49.4281 13.9906L49.318 13.8237C49.2257 13.6852 49.2612 13.5006 49.3997 13.4083C49.4494 13.3763 49.5098 13.3586 49.5702 13.3586ZM7.49484 13.2804C7.55165 13.2804 7.60847 13.2982 7.65818 13.3337C7.79667 13.426 7.83218 13.6142 7.73986 13.7492C7.70435 13.8024 7.66529 13.8592 7.62978 13.9125C7.53745 14.051 7.3528 14.0865 7.21431 13.9977C7.07582 13.9054 7.03677 13.7207 7.12909 13.5823C7.16815 13.5254 7.20366 13.4686 7.24272 13.4118C7.29954 13.3266 7.39541 13.2804 7.49484 13.2804ZM50.4224 14.7257C50.5254 14.7292 50.6213 14.7825 50.6745 14.8748L50.7775 15.0524C50.8592 15.1979 50.8095 15.379 50.6639 15.4607C50.5183 15.5424 50.3372 15.4927 50.2555 15.3471L50.1561 15.1731C50.0744 15.0311 50.1206 14.8464 50.2662 14.7612C50.3123 14.7363 50.3691 14.7221 50.4224 14.7257ZM6.63906 14.6404C6.68877 14.6404 6.73848 14.6547 6.78465 14.6831C6.92668 14.7683 6.97639 14.9494 6.89117 15.095C6.85921 15.1518 6.8237 15.2086 6.79174 15.2654C6.71007 15.4075 6.52542 15.4607 6.38339 15.3755C6.24135 15.2938 6.18808 15.1092 6.27331 14.9671C6.30882 14.9068 6.34078 14.85 6.37629 14.7896C6.42955 14.6902 6.53253 14.6369 6.63906 14.6404ZM51.1859 16.139C51.2924 16.1425 51.3954 16.2029 51.4486 16.3058L51.5374 16.4869C51.612 16.6361 51.5481 16.8172 51.3989 16.8882C51.2498 16.9628 51.0687 16.8989 50.9977 16.7497L50.9089 16.5722C50.8343 16.423 50.8947 16.2419 51.0438 16.1709C51.09 16.1496 51.1397 16.139 51.1859 16.139ZM5.8685 16.0502C5.91111 16.0502 5.95727 16.0608 5.99633 16.0821C6.14547 16.1567 6.20584 16.3378 6.13127 16.4869L6.0425 16.6645C5.96793 16.8136 5.78683 16.874 5.64124 16.7994C5.4921 16.7249 5.43173 16.5438 5.5063 16.3982L5.59507 16.2171C5.64834 16.107 5.75842 16.0466 5.8685 16.0502ZM51.8605 17.6019C51.9742 17.6055 52.0842 17.673 52.1304 17.7866L52.2085 17.9748C52.2724 18.1275 52.1979 18.305 52.0452 18.3654C51.8925 18.4293 51.715 18.3548 51.6546 18.2021L51.5765 18.0174C51.5125 17.8647 51.5836 17.6872 51.7362 17.6233C51.7753 17.609 51.8179 17.6019 51.8605 17.6019ZM5.19381 17.5025C5.22932 17.5025 5.26839 17.5096 5.3039 17.5274C5.45659 17.5913 5.52761 17.7688 5.46369 17.9215L5.38557 18.1026C5.32165 18.2553 5.14411 18.3263 4.99142 18.266C4.83872 18.2021 4.76415 18.0281 4.82806 17.8718L4.90619 17.6836C4.95945 17.57 5.07308 17.5025 5.19381 17.5025ZM52.4393 19.1076C52.5601 19.1111 52.6737 19.1857 52.7163 19.31L52.7838 19.5017C52.8371 19.658 52.7518 19.8284 52.5956 19.8817C52.4393 19.9349 52.2689 19.8497 52.2156 19.6935L52.1517 19.5053C52.0985 19.349 52.1801 19.1786 52.3364 19.1218C52.3683 19.1111 52.4038 19.104 52.4393 19.1076ZM4.61146 19.001C4.64342 19.001 4.67538 19.0081 4.70379 19.0188C4.86003 19.072 4.9417 19.246 4.88844 19.4023L4.82097 19.5905C4.7677 19.7467 4.59726 19.8284 4.43747 19.7751C4.28122 19.7219 4.19955 19.5479 4.25281 19.3916L4.32028 19.1999C4.36644 19.0756 4.48363 19.001 4.61146 19.001ZM52.9187 20.6451C53.0466 20.6487 53.1637 20.7339 53.2028 20.8653L53.2561 21.0606C53.2987 21.2204 53.2028 21.3837 53.043 21.4299C52.8832 21.4725 52.7163 21.3766 52.6737 21.2168L52.6204 21.0251C52.5743 20.8653 52.6702 20.6984 52.83 20.6558C52.8619 20.6451 52.8903 20.6416 52.9187 20.6451ZM4.12143 20.535C4.14628 20.535 4.17114 20.5386 4.19599 20.5457C4.35579 20.5919 4.44812 20.7552 4.40196 20.915L4.34869 21.1067C4.30608 21.2665 4.13918 21.3624 3.97939 21.3163C3.8196 21.2736 3.72372 21.1067 3.76988 20.947L3.82315 20.7517C3.86576 20.6167 3.99004 20.5315 4.12143 20.535ZM53.3022 22.204C53.4372 22.2075 53.5614 22.3034 53.5899 22.4419L53.6325 22.6408C53.6644 22.8041 53.5614 22.9603 53.3981 22.9959C53.2348 23.0278 53.0785 22.9248 53.043 22.7615L53.0039 22.5662C52.9684 22.4028 53.075 22.2431 53.2348 22.2111C53.2561 22.2075 53.2774 22.204 53.3022 22.204ZM3.73437 22.0939C3.75213 22.0939 3.77343 22.0975 3.79119 22.101C3.95453 22.1365 4.05751 22.2963 4.022 22.4561L3.98294 22.6514C3.95099 22.8148 3.79119 22.9177 3.62785 22.8858C3.4645 22.8538 3.36153 22.694 3.39348 22.5307L3.43609 22.3318C3.46805 22.1862 3.59589 22.0904 3.73437 22.0939ZM53.5828 23.7877C53.7283 23.7913 53.8526 23.8978 53.8739 24.0434L53.9023 24.2458C53.9236 24.4091 53.81 24.5618 53.6467 24.5831C53.4833 24.608 53.3306 24.4908 53.3093 24.3275L53.2809 24.1322C53.2561 23.9688 53.3697 23.8161 53.5366 23.7913C53.5508 23.7877 53.565 23.7877 53.5828 23.7877ZM3.44675 23.6741C3.46095 23.6741 3.4716 23.6741 3.4858 23.6776C3.64915 23.7025 3.76278 23.8552 3.73793 24.0185L3.70951 24.2138C3.68466 24.3772 3.53552 24.4908 3.36862 24.4695C3.20528 24.4447 3.09165 24.2955 3.11295 24.1286L3.14136 23.9262C3.16621 23.7806 3.29761 23.6705 3.44675 23.6741ZM53.7603 25.3857C53.913 25.3892 54.0408 25.5064 54.0515 25.6626L54.0657 25.865C54.0763 26.0319 53.952 26.174 53.7887 26.1846C53.6254 26.1988 53.4798 26.071 53.4691 25.9076L53.4549 25.7088C53.4407 25.5419 53.565 25.3999 53.7283 25.3857C53.7425 25.3857 53.7496 25.3857 53.7603 25.3857ZM3.2621 25.272C3.2692 25.272 3.2763 25.272 3.2834 25.272C3.44675 25.2862 3.57103 25.4318 3.55682 25.5952L3.53907 25.794C3.52487 25.9609 3.38638 26.0816 3.21594 26.071C3.04904 26.0568 2.92831 25.9147 2.93896 25.7478L2.95671 25.5454C2.96736 25.3857 3.10231 25.2685 3.2621 25.272ZM53.8384 26.9907C53.9982 26.9942 54.1296 27.1221 54.1331 27.2854L54.1367 27.4878C54.1367 27.6547 54.0053 27.7897 53.8384 27.7897C53.6715 27.7897 53.5366 27.6583 53.5366 27.4914L53.533 27.2925C53.5295 27.1256 53.6609 26.9907 53.8278 26.9871C53.8313 26.9907 53.8349 26.9907 53.8384 26.9907ZM3.17333 26.8771C3.34022 26.8806 3.4716 27.0191 3.46805 27.1824L3.4645 27.431C3.46095 27.5979 3.32601 27.7293 3.15912 27.7293C3.15912 27.7293 3.15912 27.7293 3.15556 27.7293C2.99222 27.7257 2.86084 27.5908 2.86084 27.4239L2.86438 27.1682C2.87149 27.0049 3.00998 26.8735 3.17333 26.8771ZM53.8171 28.5993C53.8207 28.5993 53.8207 28.5993 53.8242 28.5993C53.9911 28.6064 54.1189 28.7484 54.1118 28.9118L54.1012 29.1142C54.0941 29.2811 53.9521 29.4053 53.7852 29.3982C53.6183 29.3911 53.494 29.2491 53.5011 29.0822L53.5117 28.8833C53.5188 28.72 53.6538 28.5957 53.8171 28.5993ZM3.19108 28.5354C3.34732 28.5389 3.4787 28.6632 3.4858 28.823L3.49645 29.0218C3.50356 29.1887 3.37573 29.3272 3.21238 29.3379C3.04904 29.3485 2.90699 29.2171 2.89634 29.0538L2.88569 28.8514C2.87859 28.6845 3.00643 28.546 3.17333 28.5389C3.18043 28.5354 3.18397 28.5354 3.19108 28.5354ZM53.6928 30.2008C53.6999 30.2008 53.7106 30.2008 53.7212 30.2008C53.8846 30.2185 54.0053 30.3676 53.9876 30.531L53.9663 30.7334C53.9485 30.8967 53.7958 31.0175 53.6325 30.9962C53.4691 30.9784 53.3484 30.8293 53.3697 30.6624L53.391 30.4635C53.4088 30.3108 53.5401 30.1972 53.6928 30.2008ZM3.30825 30.1368C3.45739 30.1404 3.58523 30.254 3.59943 30.4067L3.62074 30.6056C3.63849 30.7689 3.52132 30.9181 3.35797 30.9394C3.19463 30.9571 3.04549 30.8399 3.02418 30.6766L3.00288 30.4742C2.98512 30.3108 3.10585 30.1617 3.2692 30.1439C3.2834 30.1368 3.2976 30.1368 3.30825 30.1368ZM53.4727 31.7916C53.4869 31.7916 53.5011 31.7916 53.5188 31.7951C53.6822 31.8235 53.7923 31.9798 53.7638 32.1431L53.7283 32.342C53.6999 32.5053 53.5437 32.6119 53.3803 32.5834C53.217 32.555 53.1105 32.3988 53.1389 32.2355L53.1744 32.0402C53.1957 31.8946 53.3271 31.788 53.4727 31.7916ZM3.52842 31.7312C3.67046 31.7348 3.79119 31.8377 3.81605 31.9798L3.85155 32.1751C3.87996 32.3384 3.76988 32.4947 3.60653 32.5231C3.44319 32.5515 3.28695 32.4414 3.25855 32.2781L3.22303 32.0792C3.19463 31.9159 3.30471 31.7596 3.46805 31.7312C3.48936 31.7312 3.51067 31.7312 3.52842 31.7312ZM53.146 33.3647C53.1673 33.3647 53.1886 33.3682 53.2099 33.3718C53.3697 33.4108 53.4691 33.5742 53.4336 33.734L53.3839 33.9328C53.3448 34.0926 53.1815 34.192 53.0217 34.153C52.8619 34.1139 52.7625 33.9506 52.8015 33.7908L52.8477 33.599C52.8832 33.457 53.0075 33.3647 53.146 33.3647ZM3.84801 33.3043C3.98294 33.3078 4.10012 33.4002 4.13208 33.5351L4.17824 33.7269C4.2173 33.8867 4.11788 34.05 3.95809 34.0891C3.79829 34.1281 3.63494 34.0287 3.59588 33.8689L3.54973 33.67C3.51067 33.5103 3.61008 33.3469 3.77343 33.3078C3.79829 33.3078 3.82315 33.3043 3.84801 33.3043ZM52.7234 34.9164C52.7518 34.9164 52.7767 34.92 52.8051 34.9306C52.9649 34.9803 53.0537 35.1472 53.0039 35.307L52.9436 35.5023C52.8939 35.6621 52.727 35.7474 52.5672 35.6976C52.4074 35.6479 52.3222 35.4775 52.3719 35.3212L52.4322 35.133C52.4713 34.9981 52.592 34.9129 52.7234 34.9164ZM4.27057 34.8561C4.39841 34.8596 4.51203 34.9413 4.55109 35.0691L4.61146 35.2609C4.66117 35.4207 4.5724 35.5876 4.41616 35.6373C4.25637 35.687 4.08946 35.5982 4.03975 35.442L3.97939 35.2467C3.92968 35.0869 4.022 34.92 4.17824 34.8703C4.20665 34.8596 4.23861 34.8561 4.27057 34.8561ZM52.2014 36.4362C52.2334 36.4362 52.2689 36.4433 52.3008 36.4575C52.4571 36.5179 52.5352 36.6884 52.4749 36.8446L52.4003 37.0328C52.3399 37.189 52.1659 37.2636 52.0132 37.2033C51.857 37.1429 51.7824 36.9689 51.8428 36.8162L51.9138 36.6315C51.96 36.5073 52.0771 36.4327 52.2014 36.4362ZM4.78901 36.383C4.90974 36.3865 5.01982 36.4575 5.06243 36.5783L5.13345 36.7629C5.19382 36.9192 5.11569 37.0932 4.963 37.15C4.80676 37.2104 4.63276 37.1322 4.57595 36.9795L4.50138 36.7878C4.44457 36.6315 4.52268 36.4611 4.67538 36.4007C4.71444 36.3865 4.74995 36.3794 4.78901 36.383ZM51.5871 37.917C51.6262 37.917 51.6652 37.9276 51.7043 37.9454C51.8534 38.0129 51.9209 38.1904 51.8534 38.3431L51.7682 38.5278C51.6972 38.6769 51.5196 38.7444 51.3705 38.6733C51.2214 38.6023 51.1539 38.4248 51.2249 38.2756L51.3066 38.0945C51.3563 37.9809 51.4699 37.917 51.5871 37.917ZM5.40333 37.8708C5.51696 37.8744 5.61994 37.9383 5.66965 38.0484L5.75132 38.2295C5.82234 38.3786 5.75487 38.5597 5.60573 38.6272C5.45658 38.6982 5.27549 38.6307 5.20802 38.4816L5.1228 38.2969C5.05533 38.1443 5.12279 37.9667 5.27193 37.8992C5.3181 37.8779 5.36072 37.8673 5.40333 37.8708ZM50.8769 39.3587C50.9231 39.3587 50.9692 39.3693 51.0119 39.3942C51.1574 39.4723 51.2143 39.6534 51.1361 39.799L51.0403 39.9765C50.9621 40.1221 50.7775 40.1754 50.6319 40.0973C50.4863 40.0192 50.4331 39.8345 50.5112 39.6889L50.6035 39.5149C50.6603 39.4119 50.7668 39.3551 50.8769 39.3587ZM6.11352 39.3161C6.22005 39.3196 6.31947 39.3764 6.37273 39.4759L6.46506 39.6499C6.54318 39.7955 6.48992 39.9765 6.34433 40.0582C6.19874 40.1363 6.01764 40.0831 5.93597 39.9375L5.84009 39.7564C5.76197 39.6108 5.81879 39.4297 5.96438 39.3516C6.01409 39.3232 6.06381 39.3125 6.11352 39.3161ZM50.0744 40.7471C50.1277 40.7471 50.1774 40.7613 50.2271 40.7933C50.3691 40.882 50.4117 41.0667 50.3265 41.2052L50.22 41.3792C50.1312 41.5212 49.9466 41.5603 49.8045 41.4751C49.6625 41.3863 49.6234 41.2016 49.7087 41.0596L49.8116 40.8927C49.872 40.7968 49.9714 40.7471 50.0744 40.7471ZM6.91249 40.7116C7.01191 40.7151 7.10778 40.7649 7.16105 40.8536L7.26758 41.0241C7.35636 41.1661 7.31374 41.3508 7.1717 41.4395C7.02966 41.5283 6.84502 41.4857 6.75624 41.3437L6.64971 41.1697C6.56093 41.0276 6.6071 40.843 6.74913 40.7578C6.8024 40.7258 6.85922 40.7116 6.91249 40.7116ZM49.1902 42.0858C49.247 42.0858 49.3074 42.1036 49.3571 42.1426C49.4921 42.2385 49.524 42.4267 49.4281 42.5616L49.3109 42.7285C49.2151 42.8635 49.0269 42.8954 48.8919 42.796C48.757 42.7001 48.7286 42.5119 48.8245 42.377L48.9381 42.2172C48.9985 42.1284 49.0943 42.0858 49.1902 42.0858ZM7.80023 42.0539C7.89255 42.0574 7.98132 42.1 8.03814 42.1817L8.15532 42.345C8.2512 42.48 8.21924 42.6682 8.0843 42.7641C7.94936 42.8599 7.76116 42.828 7.66529 42.693L7.5481 42.5297C7.45222 42.3948 7.48419 42.2066 7.61912 42.1107C7.67594 42.0716 7.73986 42.0539 7.80023 42.0539ZM48.2172 43.3677C48.2812 43.3677 48.3451 43.3926 48.3983 43.4352C48.5262 43.5382 48.5475 43.7299 48.4445 43.8577L48.3167 44.014C48.2101 44.1418 48.0219 44.1596 47.8941 44.0566C47.7663 43.9501 47.7485 43.7619 47.8515 43.634L47.9758 43.4813C48.0397 43.4032 48.1285 43.3642 48.2172 43.3677ZM8.76963 43.3358C8.85486 43.3358 8.94008 43.3748 8.9969 43.4458L9.12118 43.6021C9.22771 43.7299 9.2064 43.9181 9.07856 44.0246C8.95073 44.1312 8.76253 44.1099 8.656 43.982L8.52817 43.8258C8.42519 43.698 8.44295 43.5062 8.57433 43.4032C8.63115 43.3571 8.70216 43.3358 8.76963 43.3358ZM47.1697 44.5857C47.2407 44.5857 47.3118 44.6141 47.365 44.6638C47.4858 44.7774 47.4964 44.9656 47.3828 45.0864L47.2443 45.2355C47.1307 45.3563 46.9425 45.3634 46.8182 45.2497C46.6974 45.1361 46.6903 44.9479 46.804 44.8272L46.9389 44.6816C47.0028 44.6141 47.0845 44.5821 47.1697 44.5857ZM9.81717 44.5573C9.89529 44.5573 9.97341 44.5928 10.0338 44.6532L10.1687 44.7988C10.2823 44.9195 10.2752 45.1112 10.1545 45.2213C10.0338 45.3349 9.84203 45.3278 9.7284 45.2071L9.5899 45.058C9.47627 44.9372 9.48693 44.7455 9.60766 44.6354C9.66803 44.5821 9.7426 44.5537 9.81717 44.5573ZM46.0441 45.7327C46.1222 45.7327 46.1968 45.7646 46.2536 45.825C46.3672 45.9457 46.3636 46.1339 46.2429 46.2511L46.0973 46.3896C45.9766 46.5032 45.7848 46.4997 45.6712 46.3789C45.5576 46.2582 45.5611 46.07 45.6819 45.9528L45.8275 45.8143C45.8914 45.7575 45.9695 45.7327 46.0441 45.7327ZM10.9393 45.7078C11.0138 45.7078 11.0849 45.7362 11.1417 45.793L11.2837 45.9315C11.4045 46.0451 11.408 46.2369 11.2944 46.3576C11.1807 46.4784 10.989 46.4819 10.8683 46.3683L10.7227 46.2298C10.6019 46.1162 10.5984 45.9244 10.7156 45.8037C10.7795 45.7362 10.8576 45.7042 10.9393 45.7078ZM44.8509 46.8086C44.9326 46.8086 45.0178 46.8477 45.0747 46.9151C45.1812 47.043 45.167 47.2312 45.0391 47.3377L44.8829 47.4691C44.7551 47.5756 44.5669 47.5578 44.4603 47.43C44.3538 47.3022 44.3716 47.114 44.4994 47.0075L44.6521 46.8796C44.7089 46.8299 44.7799 46.8086 44.8509 46.8086ZM12.1324 46.7837C12.1999 46.7837 12.2638 46.8086 12.3206 46.8548L12.4733 46.9826C12.6011 47.0891 12.6189 47.2773 12.5123 47.4052C12.4058 47.533 12.2176 47.5507 12.0898 47.4442L11.9335 47.3128C11.8057 47.2063 11.7915 47.0146 11.898 46.8903C11.9584 46.8192 12.0436 46.7837 12.1324 46.7837ZM43.5903 47.8064C43.6791 47.81 43.7679 47.849 43.8247 47.9272C43.9241 48.0621 43.8957 48.2467 43.7608 48.3462L43.5975 48.4669C43.4625 48.5663 43.2743 48.5344 43.1784 48.403C43.079 48.268 43.111 48.0798 43.2424 47.984L43.4021 47.8668C43.459 47.8242 43.5264 47.8064 43.5903 47.8064ZM13.3894 47.7851C13.4498 47.7851 13.5102 47.8064 13.5634 47.8455L13.7232 47.9627C13.8582 48.0621 13.8866 48.2467 13.7871 48.3817C13.6877 48.5166 13.4995 48.545 13.3681 48.4456L13.2048 48.3249C13.0734 48.2254 13.045 48.0372 13.1444 47.9058C13.2048 47.8242 13.2971 47.7816 13.3894 47.7851ZM42.2694 48.7226C42.3653 48.7261 42.4611 48.7723 42.5144 48.8611C42.6032 48.9995 42.5641 49.1877 42.4256 49.2765L42.2552 49.3866C42.1167 49.4754 41.9285 49.4328 41.8397 49.2943C41.7509 49.1558 41.79 48.9676 41.9321 48.8788L42.0989 48.7723C42.1522 48.7368 42.209 48.7226 42.2694 48.7226ZM14.7068 48.7013C14.7601 48.7013 14.8169 48.719 14.8631 48.751L15.03 48.8575C15.1685 48.9463 15.2111 49.1309 15.1223 49.273C15.0335 49.4114 14.8453 49.4541 14.7068 49.3653L14.5364 49.2552C14.3979 49.1664 14.3589 48.9782 14.4476 48.8397C14.508 48.7474 14.6074 48.7013 14.7068 48.7013ZM40.8916 49.557C40.9946 49.5606 41.094 49.6139 41.1473 49.7097C41.229 49.8553 41.1757 50.0364 41.0337 50.1181L40.8561 50.2175C40.7105 50.2992 40.5294 50.2459 40.4477 50.1003C40.3661 49.9547 40.4193 49.7737 40.5649 49.692L40.7389 49.5961C40.7851 49.5677 40.8383 49.5535 40.8916 49.557ZM16.0811 49.5357C16.1272 49.5357 16.1769 49.5499 16.2231 49.5748L16.3971 49.6707C16.5427 49.7523 16.5959 49.9334 16.5143 50.079C16.4326 50.2246 16.2515 50.2779 16.1059 50.1962L15.9284 50.0968C15.7828 50.0151 15.7331 49.834 15.8147 49.6884C15.868 49.589 15.9745 49.5322 16.0811 49.5357ZM39.4641 50.2992C39.5742 50.3027 39.6772 50.3631 39.7305 50.4696C39.8015 50.6188 39.7376 50.7999 39.5884 50.8709L39.4038 50.9597C39.2546 51.0307 39.0735 50.9668 39.0061 50.8141C38.935 50.6649 38.999 50.4838 39.1516 50.4164L39.3327 50.3311C39.3718 50.3063 39.418 50.2992 39.4641 50.2992ZM17.5014 50.2779C17.5441 50.2779 17.5867 50.2885 17.6257 50.3063L17.8033 50.3915C17.9524 50.4625 18.0163 50.6401 17.9453 50.7928C17.8743 50.9419 17.6967 51.0058 17.5441 50.9348L17.3594 50.846C17.2103 50.775 17.1464 50.5939 17.2209 50.4448C17.2777 50.3383 17.3878 50.2743 17.5014 50.2779ZM37.9905 50.949C38.1077 50.9526 38.2177 51.0236 38.2639 51.1372C38.3243 51.2899 38.2533 51.4675 38.097 51.5278L37.9088 51.6024C37.7561 51.6628 37.5786 51.5882 37.5182 51.4319C37.4578 51.2793 37.5324 51.1017 37.6887 51.0413L37.8733 50.9668C37.9124 50.9561 37.9514 50.949 37.9905 50.949ZM18.968 50.9277C19.0035 50.9277 19.039 50.9348 19.0745 50.949L19.2592 51.0236C19.4119 51.084 19.49 51.2579 19.4261 51.4142C19.3657 51.5669 19.1882 51.645 19.0355 51.5811L18.8473 51.5065C18.6946 51.4426 18.62 51.2686 18.6839 51.1159C18.7336 50.9987 18.8473 50.9242 18.968 50.9277ZM36.4778 51.5065C36.6021 51.5101 36.7157 51.5882 36.7583 51.7125C36.8116 51.8687 36.7263 52.0392 36.5665 52.0924L36.3713 52.1563C36.2115 52.2061 36.0446 52.1208 35.9948 51.9646C35.9451 51.8083 36.0303 51.6379 36.1866 51.5882L36.3748 51.5278C36.4103 51.5101 36.4458 51.503 36.4778 51.5065ZM20.4771 51.4852C20.5056 51.4852 20.5375 51.4923 20.5659 51.4994L20.7541 51.5598C20.9104 51.6095 20.9991 51.7799 20.9459 51.9397C20.8962 52.096 20.7257 52.1847 20.5659 52.1315L20.3742 52.0676C20.2179 52.0143 20.1327 51.8439 20.186 51.6876C20.2286 51.5633 20.3493 51.4817 20.4771 51.4852ZM34.9367 51.961C35.068 51.9646 35.1852 52.0534 35.2207 52.1847C35.2634 52.3445 35.1675 52.5079 35.0077 52.5505L34.8124 52.6002C34.6526 52.6393 34.4892 52.5434 34.4466 52.3836C34.4076 52.2238 34.5034 52.0605 34.6632 52.0179L34.855 51.9681C34.8834 51.9646 34.9082 51.961 34.9367 51.961ZM22.0183 51.9468C22.0431 51.9468 22.0644 51.9504 22.0893 51.9575L22.281 52.0072C22.4408 52.0498 22.5403 52.2132 22.4976 52.3729C22.455 52.5327 22.2952 52.6286 22.1319 52.5896L21.9366 52.5398C21.7768 52.4972 21.6809 52.3339 21.7235 52.1741C21.7555 52.0321 21.8798 51.9433 22.0183 51.9468ZM33.3707 52.3197C33.5092 52.3232 33.6299 52.4227 33.6583 52.5611C33.6903 52.7245 33.5837 52.8807 33.4204 52.9127L33.2215 52.9518C33.0582 52.9837 32.902 52.8736 32.87 52.7103C32.838 52.547 32.9481 52.3907 33.1115 52.3587L33.3068 52.3232C33.3281 52.3197 33.3494 52.3197 33.3707 52.3197ZM23.5842 52.3055C23.602 52.3055 23.6197 52.309 23.6375 52.3126L23.8328 52.3516C23.9962 52.3836 24.1027 52.5398 24.0707 52.7032C24.0388 52.8665 23.8825 52.9731 23.7192 52.9411L23.5203 52.902C23.357 52.8701 23.2504 52.7138 23.2824 52.5505C23.3108 52.4014 23.4386 52.3019 23.5842 52.3055ZM31.7834 52.5754C31.929 52.5789 32.0568 52.689 32.0746 52.8381C32.0959 53.0015 31.9787 53.1542 31.8154 53.1755L31.613 53.2003C31.4496 53.2216 31.3005 53.1044 31.2792 52.9375C31.2579 52.7742 31.375 52.6251 31.5419 52.6038L31.7372 52.5789C31.7514 52.5754 31.7692 52.5754 31.7834 52.5754ZM25.168 52.5647C25.1786 52.5647 25.1893 52.5647 25.1999 52.5682L25.3988 52.5931C25.5621 52.6144 25.6793 52.7636 25.6616 52.9269C25.6402 53.0902 25.4911 53.2074 25.3278 53.1897L25.1254 53.1648C24.962 53.1435 24.8448 52.9908 24.8661 52.8275C24.8839 52.6748 25.0188 52.5647 25.168 52.5647ZM30.1819 52.7316C30.3346 52.7351 30.466 52.8559 30.4767 53.0121C30.4873 53.179 30.363 53.3211 30.1961 53.3317L29.9937 53.3459C29.8304 53.3566 29.6848 53.2287 29.6777 53.0618C29.667 52.8949 29.7949 52.7529 29.9618 52.7458L30.1606 52.7351C30.1642 52.7316 30.1748 52.7316 30.1819 52.7316ZM26.7694 52.7245C26.773 52.7245 26.7801 52.7245 26.7837 52.7245L26.9825 52.7387C27.1494 52.7494 27.2737 52.8914 27.263 53.0547C27.2524 53.2216 27.1068 53.3424 26.947 53.3353L26.7446 53.3211C26.5777 53.3104 26.4534 53.1684 26.4641 53.0015C26.4747 52.8452 26.6097 52.7209 26.7694 52.7245ZM28.5769 52.7849C28.7402 52.7884 28.8716 52.9198 28.8716 53.0831C28.8716 53.25 28.7367 53.385 28.5733 53.385H28.3709C28.2111 53.3814 28.0727 53.25 28.0727 53.0831C28.0727 52.9162 28.2076 52.7849 28.3745 52.7849H28.5733C28.5733 52.7849 28.5733 52.7849 28.5769 52.7849Z" fill="white"/>
</svg>
