<svg width="41" height="40" viewBox="0 0 41 40" fill="none" xmlns="http://www.w3.org/2000/svg">
<path d="M24.872 34.1839C33.5031 31.8672 38.5426 23.2759 36.128 14.9947C33.7135 6.71348 24.7592 1.87826 16.128 4.19494C7.49691 6.51161 2.45739 15.1029 4.87196 23.3841C7.28652 31.6653 16.2408 36.5005 24.872 34.1839Z" fill="#FEBB02"/>
<path d="M26.8008 32.4942L22.7387 39.9998L22.6279 31.8223L26.8008 32.4942Z" fill="#FEBB02"/>
<path d="M19.176 23.814L19.2491 22.383C19.2957 21.4836 19.4508 20.7373 19.7167 20.1462C19.9827 19.5551 20.3084 19.0511 20.6963 18.6365C21.0841 18.2219 21.4741 17.8541 21.8664 17.5287C22.396 17.1035 22.868 16.6804 23.2847 16.2572C23.7013 15.8362 23.9273 15.2643 23.965 14.5456C23.9849 14.1501 23.8985 13.812 23.7079 13.5335C23.5151 13.2528 23.278 13.0317 22.9943 12.8637C22.7107 12.6979 22.4292 12.6065 22.1478 12.5937C21.6026 12.5682 21.1439 12.6681 20.765 12.8935C20.386 13.1189 20.0713 13.4144 19.8165 13.7823C19.5616 14.148 19.34 14.535 19.1494 14.9411L18.3826 14.9049L15.9893 13.3315C16.1178 13.0126 16.3372 12.6086 16.643 12.1174C16.951 11.6284 17.3743 11.1415 17.9173 10.6631C18.458 10.1847 19.1273 9.7913 19.9228 9.48724C20.7184 9.18319 21.6603 9.05561 22.7484 9.10664C23.8165 9.15767 24.7694 9.3788 25.6049 9.77004C26.4404 10.1613 27.0919 10.7332 27.5595 11.4859C28.0271 12.2386 28.231 13.2082 28.1712 14.3968C28.1202 15.3855 27.9385 16.1807 27.626 16.7782C27.3135 17.3757 26.939 17.8774 26.5046 18.2793C26.0703 18.6833 25.6359 19.0809 25.2016 19.4743C24.867 19.7656 24.5456 20.0888 24.2354 20.4438C23.9251 20.7989 23.6747 21.2157 23.4797 21.692C23.2869 22.1704 23.1716 22.7508 23.1362 23.4334L23.1074 23.9989L19.176 23.814ZM20.8514 29.5995C20.1755 29.5676 19.6325 29.3656 19.2181 28.9935C18.8037 28.6214 18.6131 28.1494 18.6419 27.5732C18.6707 27.0161 18.9145 26.559 19.3755 26.2017C19.8342 25.8445 20.3926 25.6829 21.0508 25.7127C21.7068 25.7446 22.2364 25.9593 22.6398 26.357C23.0431 26.7546 23.2293 27.233 23.2004 27.7901C23.1716 28.3663 22.9412 28.8192 22.509 29.1509C22.0791 29.4826 21.5251 29.6335 20.8514 29.5995Z" fill="#C98A2E"/>
<path d="M18.4084 23.7751L18.4816 22.3441C18.5281 21.4447 18.6832 20.6984 18.9492 20.1073C19.2151 19.5162 19.5409 19.0123 19.9287 18.5976C20.3165 18.183 20.7065 17.8152 21.0988 17.4899C21.6284 17.0646 22.1004 16.6415 22.5171 16.2184C22.9337 15.7974 23.1597 15.2254 23.1974 14.5067C23.2174 14.1112 23.1309 13.7732 22.9404 13.4946C22.7476 13.214 22.5104 12.9928 22.2268 12.8248C21.9431 12.659 21.6617 12.5676 21.3802 12.5548C20.8373 12.5293 20.3763 12.6292 19.9974 12.8546C19.6184 13.08 19.3037 13.3755 19.0489 13.7434C18.794 14.1091 18.5724 14.4961 18.3818 14.9022L15.2217 13.2905C15.3502 12.9716 15.5696 12.5676 15.8754 12.0764C16.1835 11.5874 16.6067 11.1005 17.1497 10.622C17.6904 10.1436 18.3597 9.75028 19.1553 9.44623C19.9508 9.14217 20.8927 9.0146 21.9808 9.06563C23.0489 9.11666 24.0019 9.33779 24.8373 9.72902C25.6728 10.1203 26.3243 10.6922 26.7919 11.4449C27.2617 12.1976 27.4634 13.1672 27.4036 14.3558C27.3526 15.3445 27.1709 16.1397 26.8584 16.7372C26.5459 17.3346 26.1714 17.8364 25.7371 18.2383C25.3027 18.6423 24.8684 19.0399 24.434 19.4354C24.0994 19.7267 23.778 20.0499 23.4678 20.405C23.1575 20.76 22.9071 21.1768 22.7121 21.6531C22.5193 22.1315 22.4041 22.7119 22.3686 23.3945L22.3398 23.96L18.4084 23.7751ZM20.0838 29.5627C19.4079 29.5308 18.8649 29.3288 18.4505 28.9567C18.0361 28.5847 17.8455 28.1126 17.8744 27.5364C17.9032 26.9793 18.1469 26.5222 18.6079 26.165C19.0666 25.8078 19.6251 25.6462 20.2833 25.6759C20.9392 25.7078 21.4689 25.9226 21.8722 26.3202C22.2755 26.7178 22.4617 27.1962 22.4329 27.7533C22.4041 28.3295 22.1736 28.7824 21.7414 29.1141C21.3115 29.4458 20.7597 29.5946 20.0838 29.5627Z" fill="white"/>
</svg>
