<svg width="41" height="55" viewBox="0 0 41 55" fill="none" xmlns="http://www.w3.org/2000/svg">
<path fill-rule="evenodd" clip-rule="evenodd" d="M20.025 55C21.6818 55 23.025 53.6569 23.025 52C23.025 50.3431 21.6818 49 20.025 49C18.3681 49 17.025 50.3431 17.025 52C17.025 53.6569 18.3681 55 20.025 55Z" fill="#7A65E1"/>
<path fill-rule="evenodd" clip-rule="evenodd" d="M14.9267 40.5292C11.8598 39.8132 29.3917 38.6275 25.0911 40.5292C20.7904 42.431 20.025 46.9999 20.025 46.9999C20.025 46.9999 17.9935 41.2453 14.9267 40.5292Z" fill="#7A65E1"/>
<rect x="0.169312" y="0.458984" width="40" height="40" rx="20" fill="#7A65E1"/>
<g clip-path="url(#clip0_2695_195910)">
<g clip-path="url(#clip1_2695_195910)">
<path d="M27.9469 21.1989C27.9469 20.8824 27.8778 20.5801 27.7531 20.3035C27.7402 20.2332 27.7255 20.163 27.7071 20.0918L26.3559 16.6276L26.3468 16.5965C25.874 15.1402 25.2013 13.7925 23.4956 13.7925H16.9739C15.2261 13.7925 14.6085 15.1736 14.1254 16.5884L12.712 20.061C12.5077 20.3996 12.3915 20.787 12.3915 21.1989V22.2769C12.3915 22.4435 12.4106 22.6066 12.4468 22.7636C12.4116 22.8584 12.3915 22.9607 12.3915 23.0685V26.2745C12.3915 26.7446 12.76 27.1258 13.2144 27.1258H14.922C15.3762 27.1258 15.7446 26.7446 15.7446 26.2745V24.6712H24.6913V26.2745C24.6913 26.7446 25.0598 27.1258 25.5143 27.1258H27.1241C27.5787 27.1258 27.9471 26.7446 27.9471 26.2745V23.0681C27.9471 22.9607 27.9268 22.858 27.8919 22.7635C27.928 22.6062 27.9471 22.4434 27.9471 22.2767V21.199H27.9469V21.1989ZM15.1282 16.9362C15.6663 15.3659 16.0989 14.8865 16.9739 14.8865H23.4952C24.3638 14.8865 24.8474 15.4211 25.3389 16.9294L26.3249 18.9965C26.003 18.8732 25.6486 18.8047 25.2764 18.8047H15.062C14.7269 18.8047 14.4066 18.8605 14.1111 18.9614L15.1282 16.9362ZM15.9752 22.6863H14.1735C13.8492 22.6863 13.5861 22.4138 13.5861 22.0783C13.5861 21.7427 13.8492 21.4704 14.1735 21.4704H15.9752C16.2998 21.4704 16.5629 21.7427 16.5629 22.0783C16.5629 22.4138 16.2996 22.6863 15.9752 22.6863ZM22.3398 22.5645H18.149C17.9435 22.5645 17.7771 22.3922 17.7771 22.1797C17.7771 21.9669 17.9435 21.7946 18.149 21.7946H22.3398C22.5456 21.7946 22.712 21.9669 22.712 22.1797C22.712 22.3922 22.5456 22.5645 22.3398 22.5645ZM26.1195 22.6863H24.3178C23.9932 22.6863 23.7302 22.4138 23.7302 22.0783C23.7302 21.7427 23.9934 21.4704 24.3178 21.4704H26.1195C26.4441 21.4704 26.7073 21.7427 26.7073 22.0783C26.7073 22.4138 26.4441 22.6863 26.1195 22.6863Z" fill="white"/>
</g>
</g>
<defs>
<clipPath id="clip0_2695_195910">
<rect x="10.1693" y="10.459" width="20" height="20" rx="10" fill="white"/>
</clipPath>
<clipPath id="clip1_2695_195910">
<rect width="20" height="20" fill="white" transform="translate(10.1693 10.459)"/>
</clipPath>
</defs>
</svg>
