<svg width="81" height="81" viewBox="0 0 81 81" fill="none" xmlns="http://www.w3.org/2000/svg">
<path d="M80.4975 40.4998C80.4975 62.5865 62.5889 80.495 40.4977 80.495C18.4064 80.495 0.502441 62.5865 0.502441 40.4998C0.502441 30.7311 4.0041 21.7814 9.82485 14.8333C10.5611 13.9544 11.3341 13.1032 12.1531 12.2887C14.7069 9.71197 17.6196 7.4849 20.8037 5.68116C22.9112 4.4848 25.1382 3.47709 27.4619 2.67645C31.548 1.26843 35.9331 0.5 40.4977 0.5C45.0622 0.5 49.4519 1.26843 53.5334 2.67645C55.8617 3.47709 58.0887 4.4848 60.1962 5.68116C62.0137 6.71187 63.7438 7.87602 65.3635 9.169C68.6811 11.8056 71.5662 14.9529 73.9037 18.5006C78.0725 24.8091 80.4975 32.3692 80.4975 40.4998Z" fill="#FEBB02"/>
<path d="M11.2327 10.9268V57.0878C11.2327 58.4866 12.3646 59.6186 13.7634 59.6186H70.4479C71.8467 59.6186 72.9786 58.4866 72.9786 57.0878V10.9268H11.2327Z" fill="#F7F9FD"/>
<g opacity="0.2">
<path d="M30.5816 21.0498H15.0796V36.9292H30.5816V21.0498Z" fill="#7A65E1"/>
<path d="M49.8612 21.0498H34.3591V36.9292H49.8612V21.0498Z" fill="#7A65E1"/>
<path d="M69.1366 21.0498H53.6345V36.9292H69.1366V21.0498Z" fill="#7A65E1"/>
</g>
<g opacity="0.2">
<path d="M30.5816 39.2168H15.0796V55.0962H30.5816V39.2168Z" fill="#7A65E1"/>
<path d="M49.8612 39.2168H34.3591V55.0962H49.8612V39.2168Z" fill="#7A65E1"/>
<path d="M69.1366 39.2168H53.6345V55.0962H69.1366V39.2168Z" fill="#7A65E1"/>
</g>
<path d="M72.9789 6.37158C72.9789 4.97276 71.8469 3.84082 70.4481 3.84082H13.7637C12.3649 3.84082 11.2329 4.97276 11.2329 6.37158V10.9269H72.9789V6.37158Z" fill="#7A65E1"/>
<path d="M68.4463 7.38424C68.4463 6.53298 69.1365 5.84277 69.9878 5.84277C70.839 5.84277 71.5292 6.53298 71.5292 7.38424C71.5292 8.23549 70.839 8.9257 69.9878 8.9257C69.1319 8.9211 68.4463 8.23549 68.4463 7.38424Z" fill="#F7F9FD"/>
<path d="M64.1443 7.38424C64.1443 6.53298 64.8345 5.84277 65.6858 5.84277C66.537 5.84277 67.2272 6.53298 67.2272 7.38424C67.2272 8.23549 66.537 8.9257 65.6858 8.9257C64.8345 8.9211 64.1443 8.23549 64.1443 7.38424Z" fill="#F7F9FD"/>
<path d="M59.8418 7.38424C59.8418 6.53298 60.532 5.84277 61.3833 5.84277C62.2345 5.84277 62.9247 6.53298 62.9247 7.38424C62.9247 8.23549 62.2345 8.9257 61.3833 8.9257C60.532 8.9211 59.8418 8.23549 59.8418 7.38424Z" fill="#F7F9FD"/>
<path opacity="0.2" d="M68.9249 14.2168H15.2498V15.9883H68.9249V14.2168Z" fill="#7A65E1"/>
<path opacity="0.2" d="M68.9249 17.3779H15.2498V19.1495H68.9249V17.3779Z" fill="#7A65E1"/>
<path d="M36.2312 42.2831L33.3904 45.9492L36.4528 48.3222L39.2936 44.6561L36.2312 42.2831Z" fill="#298AFF"/>
<path d="M55.2747 20.8813C48.612 15.718 39.0285 16.9304 33.8652 23.5931C28.7056 30.2474 29.9223 39.8327 36.585 44.996C43.2477 50.1594 52.8311 48.9469 57.9884 42.2866C63.1498 35.6281 61.9374 26.0446 55.2747 20.8813ZM38.8795 42.033C33.8606 38.1445 32.9444 30.9186 36.8329 25.8998C40.7233 20.8767 47.951 19.9563 52.968 23.849C57.9911 27.7394 58.9012 34.9676 55.0067 39.9888C51.1242 45.0053 43.9025 45.9234 38.8795 42.033Z" fill="#298AFF"/>
<path d="M17.6478 63.7785C16.8244 64.8375 17.3842 66.6476 18.8977 67.8191C20.4112 68.9907 22.3001 69.0803 23.1235 68.0213L36.648 50.5734C37.4714 49.5144 36.9116 47.7044 35.3981 46.5328C33.8846 45.3613 31.9957 45.2717 31.1723 46.3307L17.6478 63.7785Z" fill="#298AFF"/>
<path opacity="0.6" d="M36.8349 25.8955C40.7252 20.8725 47.9492 19.9604 52.9723 23.8508C57.9954 27.7412 58.9074 34.9652 55.017 39.9883C51.1266 45.0113 43.9026 45.9233 38.8796 42.033C33.8626 38.1403 32.9463 30.9144 36.8349 25.8955Z" fill="white"/>
<path d="M53.8791 39.0137C53.702 39.2421 53.5203 39.4584 53.3296 39.6606C56.1415 35.3414 55.2166 29.5167 51.0666 26.3016C46.9209 23.0883 41.0485 23.6446 37.5662 27.4441C37.7144 27.2129 37.8789 26.9789 38.0541 26.7546C41.4426 22.3846 47.7303 21.585 52.0961 24.9716C56.4722 28.3578 57.2676 34.6436 53.8791 39.0137Z" fill="#7A65E1"/>
</svg>
