<svg width="81" height="94" viewBox="0 0 81 94" fill="none" xmlns="http://www.w3.org/2000/svg">
<path d="M80.2475 40.4998C80.2475 62.5865 62.3389 80.495 40.2477 80.495C18.1564 80.495 0.252441 62.5865 0.252441 40.4998C0.252441 30.7311 3.7541 21.7814 9.57485 14.8333C10.3111 13.9544 11.0841 13.1032 11.9031 12.2887C14.4569 9.71197 17.3696 7.4849 20.5537 5.68116C22.6612 4.4848 24.8882 3.47709 27.2119 2.67645C31.298 1.26843 35.6831 0.5 40.2477 0.5C44.8122 0.5 49.2019 1.26843 53.2834 2.67645C55.6117 3.47709 57.8387 4.4848 59.9462 5.68116C61.7637 6.71187 63.4938 7.87602 65.1135 9.169C68.4311 11.8056 71.3162 14.9529 73.6537 18.5006C77.8225 24.8091 80.2475 32.3692 80.2475 40.4998Z" fill="#7A65E1"/>
<path d="M29.0184 50.0866L25.8391 54.7734L29.7541 57.4291L32.9333 52.7423L29.0184 50.0866Z" fill="#FEBB02"/>
<path d="M50.5754 22.5364C42.0578 16.7579 30.4725 18.9746 24.6941 27.4922C18.9196 35.9993 21.1415 47.5865 29.6591 53.3649C38.1767 59.1434 49.762 56.9267 55.5332 48.4124C61.3097 39.9 59.0931 28.3148 50.5754 22.5364ZM32.2268 49.5771C25.8107 45.2255 24.1369 36.4904 28.4885 30.0743C32.8421 23.653 41.5792 21.9739 47.9933 26.3308C54.4146 30.6844 56.0812 39.4228 51.7224 45.8422C47.378 52.255 38.6481 53.9307 32.2268 49.5771Z" fill="#FEBB02"/>
<path d="M8.03088 77.7145C7.10911 79.0685 7.93095 81.2312 9.86572 82.5421C11.8005 83.8531 14.1093 83.8166 15.031 82.4626L30.167 60.1569C31.0887 58.8029 30.2669 56.6403 28.3321 55.3293C26.3974 54.0183 24.0886 54.0548 23.1668 55.4088L8.03088 77.7145Z" fill="#FEBB02"/>
<path d="M28.4912 30.0697C32.8448 23.6483 41.5779 21.9798 47.9993 26.3334C54.4206 30.687 56.0891 39.4201 51.7355 45.8415C47.3819 52.2628 38.6488 53.9314 32.2275 49.5778C25.8133 45.2208 24.1395 36.4858 28.4912 30.0697Z" fill="white"/>
<path d="M50.2729 44.7402C50.0746 45.0322 49.8698 45.3098 49.6531 45.571C52.7467 40.0906 51.1704 33.0636 45.8651 29.4656C40.565 25.8695 33.4516 27.0003 29.501 31.8991C29.6637 31.6059 29.8461 31.308 30.0424 31.0213C33.8347 25.4345 41.4355 23.9751 47.0171 27.7655C52.6111 31.5545 54.0652 39.1534 50.2729 44.7402Z" fill="#FEBB02"/>
</svg>
