<svg height="512pt" viewBox="0 0 512 512" width="512pt" xmlns="http://www.w3.org/2000/svg"><path d="m226 0h60v30h-60zm0 0"/><path d="m0 287h60v225h-60zm0 0"/><path d="m420.0625 315.152344c5.148438-2.832032 8.121094-8.261719 7.75-14.160156-.476562-7.535157-6.769531-13.675782-14.320312-13.976563-2.351563-.089844-4.601563.316406-6.675782 1.230469l-.292968.125-133.765626 55.394531c-5.183593 2.085937-10.835937 3.234375-16.757812 3.234375h-127.109375v-30h127.109375c8.269531 0 15-6.730469 15-15s-6.730469-15-15-15h-166v135h135.390625zm0 0"/><path d="m512 197h-512c0 33.136719 26.863281 60 60 60h392c33.136719 0 60-26.863281 60-60zm0 0"/><path d="m409.1875 90.652344c-10.613281-18.929688-30.625-30.652344-52.332031-30.652344h-201.710938c-21.703125 0-41.71875 11.722656-52.332031 30.652344l-42.8125 76.347656h392zm0 0"/></svg>