<svg id="Capa_1" enable-background="new 0 0 512 512" height="512" viewBox="0 0 512 512" width="512" xmlns="http://www.w3.org/2000/svg"><path d="m503.526 235.509c-5.473-5.474-12.751-8.488-20.492-8.488s-15.019 3.014-20.493 8.488c-1.663 1.663-3.074 3.483-4.248 5.407h-37.282c-3.144-34.365-16.819-65.727-37.769-90.822l23.41-23.409c2.191.531 4.476.82 6.828.82 15.98 0 28.98-13 28.98-28.978 0-15.979-13-28.979-28.98-28.979s-28.98 13-28.98 28.979c0 2.352.289 4.637.82 6.828l-23.421 23.42c-25.105-20.908-56.464-34.543-90.816-37.658v-37.387c1.941-1.188 3.758-2.61 5.408-4.261 5.474-5.473 8.488-12.751 8.488-20.491s-3.014-15.017-8.488-20.49c-5.472-5.474-12.75-8.488-20.491-8.488s-15.019 3.014-20.492 8.488c-5.474 5.473-8.488 12.75-8.488 20.49s3.014 15.018 8.488 20.491c1.65 1.65 3.467 3.073 5.409 4.261v37.388c-34.352 3.115-65.711 16.749-90.816 37.658l-23.421-23.42c.531-2.191.82-4.476.82-6.828 0-15.979-13.001-28.979-28.98-28.979-15.98 0-28.98 13-28.98 28.979s13 28.978 28.98 28.978c2.352 0 4.637-.289 6.828-.82l23.41 23.409c-20.951 25.096-34.626 56.457-37.769 90.822h-37.283c-1.174-1.925-2.585-3.745-4.248-5.408-5.473-5.474-12.751-8.488-20.492-8.488s-15.018 3.014-20.492 8.488c-11.299 11.299-11.299 29.683 0 40.982 5.473 5.474 12.751 8.488 20.492 8.488s15.019-3.014 20.492-8.488c1.663-1.663 3.075-3.483 4.249-5.408h37.258c3.092 34.402 16.735 65.808 37.672 90.943l-23.289 23.288c-2.191-.531-4.476-.82-6.828-.82-15.98 0-28.98 13-28.98 28.979s13 28.978 28.98 28.978 28.98-13 28.98-28.978c0-2.352-.289-4.637-.82-6.828l23.278-23.277c25.129 20.976 56.541 34.658 90.959 37.779v37.123c-1.941 1.188-3.758 2.61-5.408 4.26-5.474 5.473-8.488 12.75-8.488 20.49s3.014 15.018 8.488 20.491c5.472 5.475 12.75 8.489 20.491 8.489s15.019-3.014 20.492-8.488c5.474-5.473 8.488-12.751 8.488-20.491s-3.014-15.017-8.488-20.49c-1.65-1.65-3.467-3.072-5.408-4.26v-37.123c34.418-3.12 65.83-16.802 90.959-37.779l23.278 23.277c-.531 2.191-.82 4.476-.82 6.828 0 15.979 13.001 28.978 28.98 28.978s28.98-13 28.98-28.978c0-15.979-13-28.979-28.98-28.979-2.352 0-4.637.289-6.828.82l-23.289-23.288c20.936-25.136 34.58-56.541 37.672-90.943h37.258c1.174 1.925 2.585 3.745 4.248 5.408 5.473 5.474 12.751 8.488 20.492 8.488s15.018-3.014 20.492-8.488c11.299-11.299 11.299-29.683 0-40.983zm-168.233-37.263c9.046 12.357 15.281 26.894 17.745 42.667h-60.414zm-64.207 21.543v-60.71c15.86 2.455 30.476 8.722 42.886 17.826zm-30.169-.122-42.816-42.814c12.396-9.077 26.986-15.325 42.816-17.775zm-21.417 21.246h-60.535c2.469-15.802 8.722-30.365 17.796-42.737zm.292 30.167-43.022 43.02c-9.131-12.445-15.409-27.108-17.85-43.02zm21.125 21.537v60.569c-15.826-2.45-30.412-8.695-42.805-17.767zm30.169-.121 42.875 42.873c-12.408 9.1-27.019 15.364-42.875 17.818zm21.247-21.416h60.751c-2.436 15.882-8.695 30.519-17.799 42.95z"/></svg>