<svg width="24" height="24" viewBox="0 0 24 24" fill="none" xmlns="http://www.w3.org/2000/svg">
<path d="M16.4713 8.47138C16.7317 8.21103 16.7317 7.78892 16.4713 7.52858C16.211 7.26823 15.7889 7.26823 15.5285 7.52858L11.9999 11.0572L8.47132 7.52858C8.21097 7.26823 7.78886 7.26823 7.52851 7.52858C7.26816 7.78892 7.26816 8.21103 7.52851 8.47138L11.0571 12L7.52851 15.5286C7.26816 15.7889 7.26816 16.211 7.52851 16.4714C7.78886 16.7317 8.21097 16.7317 8.47132 16.4714L11.9999 12.9428L15.5285 16.4714C15.7889 16.7317 16.211 16.7317 16.4713 16.4714C16.7317 16.211 16.7317 15.7889 16.4713 15.5286L12.9427 12L16.4713 8.47138Z" fill="#D0D2DB"/>
</svg>
