<svg width="8" height="8" viewBox="0 0 8 8" fill="none" xmlns="http://www.w3.org/2000/svg">
<path d="M0.699178 6.78732C0.491821 6.99467 0.48759 7.36284 0.70341 7.57866C0.923462 7.79448 1.29163 7.79025 1.49475 7.58712L3.99996 5.08191L6.50094 7.58289C6.71252 7.79448 7.07646 7.79448 7.29228 7.57866C7.5081 7.35861 7.5081 6.9989 7.29651 6.78732L4.79553 4.28634L7.29651 1.78113C7.5081 1.56954 7.51233 1.20561 7.29228 0.989791C7.07646 0.77397 6.71252 0.77397 6.50094 0.985559L3.99996 3.48654L1.49475 0.985559C1.29163 0.778202 0.91923 0.769739 0.70341 0.989791C0.48759 1.20561 0.491821 1.57801 0.699178 1.78113L3.20015 4.28634L0.699178 6.78732Z" fill="#5F6368"/>
</svg>
