<?xml version="1.0" encoding="iso-8859-1"?>
<!-- Generator: Adobe Illustrator 19.0.0, SVG Export Plug-In . SVG Version: 6.00 Build 0)  -->
<svg version="1.1" id="Capa_1" xmlns="http://www.w3.org/2000/svg" xmlns:xlink="http://www.w3.org/1999/xlink" x="0px" y="0px"
	 viewBox="0 0 297 297" style="enable-background:new 0 0 297 297;" xml:space="preserve">
<g>
	<path d="M289.333,239.605H287v-10.126c0-32.255-16.815-43.041-42.075-52.861c0.027-1.169-0.007-2.343-0.489-3.433
		c-0.858-1.941-2.361-3.46-4.339-4.226l-29.802-11.539c-3.166-1.223-6.605-0.292-8.764,2.07c-0.942-0.477-1.839-0.96-2.717-1.448
		c0.396-0.613,0.722-1.279,0.941-1.99c0.626-2.028,0.422-4.221-0.57-6.097l-14.955-28.29c-1.69-3.198-5.238-4.773-8.612-4.109
		c-0.084-0.729-0.328-1.472-0.402-2.227c3.424-0.906,5.785-4.017,5.785-7.725v-32c0-3.589-2.198-6.627-5.454-7.64
		c0.463-6.556,1.149-13.579,1.892-21.119c0.229-2.325-0.531-4.635-2.149-6.321c-1.017-1.062-2.279-1.806-3.668-2.181l8.972-27.451
		c0.785-2.405,0.389-5.039-1.072-7.104c-1.461-2.065-3.814-3.317-6.342-3.378c0,0-0.645-0.016-1.843-0.016
		c-10.898,0-56.819,1.205-88.65,20.355C65.699,11.883,54.357,2.438,54.189,2.297c-2.101-1.774-4.965-2.347-7.585-1.512
		c-2.62,0.833-4.629,2.952-5.319,5.613c-3.661,14.101-8.537,36.07-13.351,61.329c-3.228,0.572-5.842,3.087-6.464,6.402l-6,32
		c-0.438,2.34,0.188,4.752,1.707,6.584c0.72,0.866,1.641,1.553,2.625,2.043C14.191,150.701,10,187.665,10,215.479v24.126H8.333
		c-4.418,0-8.333,3.582-8.333,8v41c0,4.418,3.915,8,8.333,8h110.399c2.744,0,5.297-1.406,6.763-3.727
		c4.988-7.893,13.526-12.606,22.838-12.606c9.312,0,17.85,4.713,22.838,12.606c1.466,2.32,4.019,3.727,6.763,3.727h111.399
		c4.418,0,7.667-3.582,7.667-8v-41C297,243.186,293.751,239.605,289.333,239.605z M217.249,206.605h-17.154l11.939-31.126
		l14.924,5.895L217.249,206.605z M165,83.604v16H32.973l3-16H165z M181.054,150.361L122,181.45v-18.1l51.45-27.135L181.054,150.361z
		 M154.873,38.155c-10.684-0.294-26.434-1.455-41.381-5.299c-4.16-1.07-8.217-2.36-12.13-3.795
		c21.081-9.1,46.648-11.672,60.525-12.391L154.873,38.155z M114.604,280.604H16v-25h265v25h-98.939
		c-8.123-10.303-20.428-16.333-33.729-16.333C135.032,264.272,122.728,270.302,114.604,280.604z"/>
</g>
<g>
</g>
<g>
</g>
<g>
</g>
<g>
</g>
<g>
</g>
<g>
</g>
<g>
</g>
<g>
</g>
<g>
</g>
<g>
</g>
<g>
</g>
<g>
</g>
<g>
</g>
<g>
</g>
<g>
</g>
</svg>
