<svg width="20" height="20" viewBox="0.5 0 20 20" fill="none" xmlns="http://www.w3.org/2000/svg">
    <path d="M17.5409 17.0413H14.5776V12.4004C14.5776 11.2937 14.5578 9.86912 13.0363 9.86912C11.4929 9.86912 11.2567 11.0749 11.2567 12.3199V17.041H8.29336V7.49741H11.1382V8.80165H11.178C11.4627 8.31485 11.8741 7.91439 12.3684 7.64291C12.8627 7.37143 13.4214 7.23911 13.9849 7.26003C16.9884 7.26003 17.5422 9.23567 17.5422 11.8059L17.5409 17.0413ZM4.94969 6.19287C4.60957 6.19293 4.27706 6.09213 3.99422 5.90321C3.71139 5.71429 3.49094 5.44574 3.36073 5.13153C3.23051 4.81731 3.19638 4.47153 3.26268 4.13792C3.32897 3.80431 3.49271 3.49785 3.73317 3.2573C3.97363 3.01675 4.28002 2.8529 4.61359 2.78649C4.94716 2.72007 5.29293 2.75406 5.60719 2.88417C5.92144 3.01428 6.19006 3.23465 6.37907 3.51743C6.56808 3.8002 6.66901 4.13268 6.66907 4.47282C6.66911 4.69866 6.62466 4.92229 6.53827 5.13095C6.45189 5.33962 6.32527 5.52922 6.16561 5.68895C6.00595 5.84867 5.81638 5.97538 5.60775 6.06184C5.39913 6.1483 5.17552 6.19282 4.94969 6.19287ZM6.43137 17.0413H3.46491V7.49741H6.43137V17.0413ZM19.0183 0.00136263H1.97583C1.58901 -0.00300274 1.21626 0.146386 0.939533 0.416702C0.662802 0.687018 0.504721 1.05614 0.5 1.44297V18.5567C0.504559 18.9438 0.662547 19.3131 0.93927 19.5837C1.21599 19.8543 1.58882 20.004 1.97583 19.9999H19.0183C19.4061 20.0047 19.78 19.8555 20.0578 19.5849C20.3356 19.3143 20.4946 18.9445 20.5 18.5567V1.44174C20.4945 1.05414 20.3353 0.684596 20.0575 0.414287C19.7797 0.143978 19.4059 -0.00498453 19.0183 0.000127351" fill="white"/>
</svg>
