<svg width="20" height="16" viewBox="0.5 0 20 16" fill="none" xmlns="http://www.w3.org/2000/svg">
    <path d="M10.5269 8.88073C10.2046 8.88073 9.86437 8.75229 9.48836 8.38532L1.68174 0.348624C1.93241 0.165138 2.46956 0 3.22158 0H17.8142C18.5842 0 19.1213 0.165138 19.372 0.348624L11.5474 8.38532C11.1893 8.73394 10.8671 8.88073 10.5269 8.88073ZM6.96374 7.98165L0.714861 14.3853C0.57162 14.1468 0.5 13.6881 0.5 13.0275V2.97248C0.5 2.29358 0.589526 1.83486 0.714861 1.59633L6.96374 7.98165ZM14.0542 7.98165L20.303 1.59633C20.4284 1.83486 20.5 2.29358 20.5 2.97248V13.0275C20.5 13.6881 20.4284 14.1468 20.303 14.3853L14.0542 7.98165ZM10.509 10.4587C11.1893 10.4587 11.7086 10.2018 12.389 9.55963L12.9261 9.04587L19.372 15.6514C19.1213 15.8716 18.5842 16 17.8142 16H3.22158C2.43375 16 1.9145 15.8716 1.66383 15.6514L8.09176 9.04587L8.64682 9.55963C9.32722 10.2018 9.84646 10.4587 10.509 10.4587Z" fill="white"/>
</svg>
