<svg width="18" height="18" viewBox="0 0 18 18" fill="none" xmlns="http://www.w3.org/2000/svg">
<g clip-path="url(#clip0_4892_5308)">
<path fill-rule="evenodd" clip-rule="evenodd" d="M4.3988 0.910734C4.72424 0.585297 5.25188 0.585297 5.57731 0.910734L9.32731 4.66073C9.65275 4.98617 9.65275 5.51381 9.32731 5.83925C9.00188 6.16468 8.47424 6.16468 8.1488 5.83925L5.82139 3.51183L5.82139 16.5C5.82139 16.9602 5.44829 17.3333 4.98806 17.3333C4.52782 17.3333 4.15472 16.9602 4.15472 16.5L4.15472 3.51183L1.82731 5.83925C1.50188 6.16468 0.974239 6.16468 0.648802 5.83925C0.323365 5.51381 0.323365 4.98617 0.648802 4.66073L4.3988 0.910734ZM12.4881 0.666657C12.9483 0.666657 13.3214 1.03975 13.3214 1.49999V14.4881L15.6488 12.1607C15.9742 11.8353 16.5019 11.8353 16.8273 12.1607C17.1528 12.4862 17.1528 13.0138 16.8273 13.3392L13.0773 17.0892C12.7519 17.4147 12.2242 17.4147 11.8988 17.0892L8.1488 13.3392C7.82336 13.0138 7.82336 12.4862 8.1488 12.1607C8.47424 11.8353 9.00188 11.8353 9.32731 12.1607L11.6547 14.4881V1.49999C11.6547 1.03975 12.0278 0.666657 12.4881 0.666657Z" fill="#5F6368"/>
</g>
<defs>
<clipPath id="clip0_4892_5308">
<rect width="16.6667" height="16.6667" fill="white" transform="translate(0.404724 0.666656)"/>
</clipPath>
</defs>
</svg>
