<svg width="23" height="18" viewBox="0 0 23 18" fill="none" xmlns="http://www.w3.org/2000/svg">
<path d="M11.74 0.936039C15.976 0.936039 19.456 4.06804 20.044 8.13604H22.54L18.34 12.936L14.14 8.13604H16.924C16.6555 6.96136 15.9967 5.91242 15.0552 5.16048C14.1136 4.40855 12.9449 3.99805 11.74 3.99604C9.99996 3.99604 8.46396 4.84804 7.49196 6.13204L5.43996 3.79204C6.22538 2.89391 7.19398 2.17434 8.28064 1.68172C9.36731 1.1891 10.5468 0.93484 11.74 0.936039ZM11.26 17.064C7.03596 17.064 3.54396 13.932 2.95596 9.86404H0.459961L4.65996 5.06404C6.06396 6.66004 7.45596 8.26804 8.85996 9.86404H6.07596C6.34442 11.0387 7.00322 12.0877 7.94477 12.8396C8.88633 13.5915 10.055 14.002 11.26 14.004C13 14.004 14.536 13.152 15.508 11.868L17.56 14.208C16.7753 15.1071 15.8069 15.8273 14.72 16.32C13.6332 16.8127 12.4533 17.0664 11.26 17.064Z" fill="white"/>
</svg>
