<svg width="19" height="16" viewBox="0 0 19 16" fill="none" xmlns="http://www.w3.org/2000/svg">
<path d="M18.4998 8.88775C18.4998 8.50793 18.4198 8.14514 18.2755 7.81323C18.2606 7.72886 18.2436 7.64461 18.2223 7.55915L16.6588 3.40219L16.6482 3.36479C16.1011 1.61732 15.3227 0 13.349 0H5.80247C3.78005 0 3.06539 1.65739 2.50634 3.35508L0.870861 7.52218C0.634423 7.92859 0.5 8.39348 0.5 8.88775V10.1813C0.5 10.3813 0.522035 10.5769 0.563935 10.7653C0.523201 10.8792 0.5 11.0018 0.5 11.1312V14.9784C0.5 15.5426 0.926311 16 1.45218 16H3.42812C3.95371 16 4.38003 15.5426 4.38003 14.9784V13.0545H14.7326V14.9784C14.7326 15.5426 15.159 16 15.6849 16H17.5477C18.0738 16 18.5 15.5426 18.5 14.9784V11.1307C18.5 11.0019 18.4766 10.8786 18.4361 10.7652C18.4779 10.5765 18.5 10.3811 18.5 10.1811V8.8878H18.4998V8.88775ZM3.66673 3.77244C4.28931 1.88805 4.78997 1.31281 5.80247 1.31281H13.3485C14.3536 1.31281 14.9132 1.9544 15.4819 3.76433L16.6229 6.24483C16.2503 6.09683 15.8404 6.01469 15.4096 6.01469H3.59013C3.2023 6.01469 2.83168 6.0816 2.48973 6.20269L3.66673 3.77244ZM4.64686 10.6725H2.56203C2.18667 10.6725 1.88223 10.3456 1.88223 9.94299C1.88223 9.54021 2.18667 9.21353 2.56203 9.21353H4.64686C5.02239 9.21353 5.32682 9.54021 5.32682 9.94299C5.32682 10.3456 5.02219 10.6725 4.64686 10.6725ZM12.0116 10.5264H7.16223C6.92446 10.5264 6.73181 10.3196 6.73181 10.0647C6.73181 9.80926 6.92446 9.60254 7.16223 9.60254H12.0116C12.2497 9.60254 12.4423 9.80926 12.4423 10.0647C12.4423 10.3196 12.2497 10.5264 12.0116 10.5264ZM16.3852 10.6725H14.3004C13.9247 10.6725 13.6205 10.3456 13.6205 9.94299C13.6205 9.54021 13.925 9.21353 14.3004 9.21353H16.3852C16.7609 9.21353 17.0654 9.54021 17.0654 9.94299C17.0654 10.3456 16.7609 10.6725 16.3852 10.6725Z" fill="#EEF4FB"/>
</svg>
