<svg width="160" height="129" viewBox="0 0 160 129" fill="none" xmlns="http://www.w3.org/2000/svg">
<path d="M147.407 58.3082H129.37C128.253 58.3082 127.348 59.2465 127.348 60.404V69.741C127.348 70.8984 128.253 71.8367 129.37 71.8367H147.407C148.523 71.8367 149.428 70.8984 149.428 69.741V60.404C149.428 59.2465 148.523 58.3082 147.407 58.3082Z" fill="#7A65E1"/>
<path d="M136.607 72.7495C137.257 74.347 139.519 74.3471 140.169 72.7497C140.684 71.4853 139.753 70.1024 138.388 70.1024C137.023 70.1024 136.093 71.4851 136.607 72.7495Z" fill="#7A65E1"/>
<path d="M138.32 62.0201C138.32 62.4232 138.646 62.7499 139.049 62.7499H143.199C143.356 62.7499 143.483 62.8768 143.483 63.0334C143.483 63.2536 143.723 63.3898 143.912 63.2768L144.782 62.7569C145.339 62.4238 145.339 61.6165 144.782 61.2834L143.912 60.7635C143.723 60.6505 143.483 60.7866 143.483 61.0068C143.483 61.1634 143.356 61.2904 143.199 61.2904H139.049C138.646 61.2904 138.32 61.6171 138.32 62.0201Z" fill="#223A7A"/>
<path d="M146.014 66.5567C146.014 66.1536 145.688 65.8268 145.284 65.8268H141.135C140.978 65.8268 140.851 65.6998 140.851 65.5432C140.851 65.323 140.611 65.1869 140.422 65.2999L139.552 65.82C138.995 66.1532 138.995 66.9605 139.552 67.2936L140.422 67.8136C140.611 67.9265 140.851 67.7904 140.851 67.5702C140.851 67.4136 140.978 67.2866 141.135 67.2866H145.284C145.688 67.2866 146.014 66.9598 146.014 66.5567Z" fill="white"/>
<path d="M135.207 67.3461C135.176 67.268 135.088 67.2293 135.009 67.259C134.947 67.2824 134.876 67.2638 134.835 67.2119C134.395 66.6619 134.027 66.0539 133.741 65.4036C133.497 64.7259 133.359 64.0124 133.332 63.29C133.33 63.2415 133.359 63.1971 133.403 63.1778C133.462 63.1522 133.49 63.0841 133.466 63.0244L132.725 61.1859C132.572 60.8059 132.091 60.6899 131.888 61.0457C131.269 62.1283 131.331 63.7898 131.953 65.4128C132.574 67.0358 133.239 68.4839 134.451 69.3947C134.7 69.6086 134.989 69.7678 135.299 69.8629C135.766 70.006 136.077 69.5031 135.894 69.0503L135.207 67.3461Z" fill="#223A7A"/>
<path d="M-nan -nanL135.935 66.8866L135.767 66.9486C135.673 66.9835 135.626 67.0894 135.664 67.1827L136.574 69.4427C136.652 69.6355 136.869 69.7375 137.05 69.635C137.19 69.5562 137.297 69.4273 137.351 69.2723C137.405 69.1174 137.403 68.9473 137.344 68.7942L136.76 67.2689C136.698 67.1064 136.576 66.9756 136.422 66.9042C136.268 66.8329 136.093 66.8266 135.935 66.8866L-nan -nanZ" fill="#223A7A"/>
<path d="M-nan -nanL133.271 59.9469C133.188 59.9777 133.108 60.0128 133.029 60.052C132.913 60.1095 132.868 60.2479 132.917 60.3676L133.795 62.5474C133.879 62.7553 134.118 62.8531 134.323 62.764C134.48 62.6962 134.605 62.5677 134.671 62.4058C134.738 62.2439 134.74 62.0616 134.679 61.8976L134.092 60.3375C134.032 60.1741 133.912 60.0418 133.758 59.9688C133.605 59.8958 133.43 59.888 133.271 59.9469L-nan -nanZ" fill="#223A7A"/>
<path d="M36.1021 116.209C33.893 116.209 32.1021 114.418 32.1021 112.209V85.0691C32.1021 85.0161 32.1012 84.967 32.0999 84.9141C32.0792 84.0727 32.005 76.4427 36.0329 74.1495C39.0708 72.4201 49.0674 72.5825 54.5688 72.8191C56.664 72.9092 58.28 74.6463 58.28 76.7435V112.209C58.28 114.418 56.4891 116.209 54.28 116.209H36.1021Z" fill="#7A65E1"/>
<path d="M73.1617 50.1761C71.0155 49.1206 63.5218 51.9224 62.3918 54.0303L62.2082 54.3732C62.0541 54.661 61.8349 54.9088 61.5682 55.0969C60.6329 55.7564 60.4083 57.0388 61.1549 57.9062C62.7208 59.7258 65.576 62.5068 68.8317 63.136C72.3495 63.8158 73.147 62.4687 73.315 61.6391C73.3924 61.2571 73.2659 60.8748 73.1038 60.5202L73.0549 60.4132C72.754 59.7549 72.6374 59.0273 72.7174 58.3079L73.4236 51.9626C73.5285 51.0205 74.0123 50.5944 73.1617 50.1761Z" fill="#FF9D8C"/>
<path d="M57.486 58.666C57.3694 57.7145 57.8848 56.7977 58.7583 56.4028C59.7783 55.9417 61.001 56.3163 61.7502 57.1482C62.8437 58.3624 64.7163 60.0374 67.4937 61.2292C72.3445 63.3107 72.4282 62.0964 72.6788 61.2292C72.7822 60.7767 72.7917 60.3085 72.7087 59.8551C72.654 59.5559 72.6136 59.2515 72.6494 58.9496L72.7941 57.7268C72.8765 57.0304 73.5814 56.5883 74.2442 56.8174C74.6421 56.955 74.9265 57.3078 74.9763 57.7258L81.1214 109.268C81.3957 111.569 79.6638 113.62 77.3496 113.736L68.0339 114.203C65.939 114.308 64.1187 112.777 63.8635 110.695L57.486 58.666Z" fill="white"/>
<path d="M81.38 59.5237C78.2645 58.1228 74.765 61.4838 75.3564 64.8483C75.4119 65.164 75.4673 65.4893 75.5226 65.8245C76.6083 72.4152 77.6133 83.5156 77.8643 91.1471C78.0402 96.4942 78.1748 106.652 78.2396 112.254C78.265 114.448 80.0499 116.209 82.2441 116.209H100.111C100.279 116.209 101.009 112.363 101.473 109.819C101.723 108.454 101.239 107.066 100.211 106.135C97.4567 103.64 92.2007 98.7871 91.8326 97.7663C91.4979 96.8413 91.6653 79.7009 90.2436 71.8079C88.8219 63.9149 86.9818 62.3263 83.1343 60.3609C82.5797 60.0777 81.9879 59.797 81.38 59.5237Z" fill="#223A7A"/>
<path d="M84.6373 106.272C84.5837 106.272 84.5323 106.25 84.4944 106.211C84.4565 106.171 84.4352 106.118 84.4352 106.063C84.4352 105.443 84.3289 96.6316 84.2266 88.1141C84.1244 79.5965 84.0172 70.783 84.0172 70.1602C84.0172 70.1046 84.0385 70.0513 84.0764 70.012C84.1143 69.9727 84.1657 69.9506 84.2194 69.9506C84.273 69.9506 84.3244 69.9727 84.3623 70.012C84.4002 70.0513 84.4215 70.1046 84.4215 70.1602C84.4215 70.7801 84.5278 79.5911 84.6304 88.1086C84.7331 96.6262 84.8394 105.44 84.8394 106.063C84.8394 106.118 84.8181 106.171 84.7802 106.211C84.7423 106.25 84.6909 106.272 84.6373 106.272Z" fill="#8593B6"/>
<path d="M45.0767 104.156C42.8948 104.15 41.124 105.904 41.0935 108.085L41.0366 112.153C41.0054 114.383 42.8052 116.208 45.0362 116.208H62.8088C64.8543 116.208 66.5709 114.667 66.7547 112.63C67.0298 109.579 67.3287 105.599 67.0753 105.021C66.7606 104.304 52.2487 104.175 45.0767 104.156Z" fill="#223A7A"/>
<g style="mix-blend-mode:multiply">
<g style="mix-blend-mode:multiply">
<path d="M69.4448 53.7706C69.6095 53.8992 69.7769 54.0236 69.9469 54.1439C71.3847 55.1614 73.1931 54.0344 73.3879 52.2838C73.5131 51.1582 74.037 50.6098 73.022 50.1072C70.6702 48.9428 66.4573 50.6948 68.238 52.6225C68.6043 53.0191 69.0055 53.4034 69.4448 53.7706Z" fill="#8E9BBB"/>
</g>
</g>
<path d="M80.4402 25.6856C81.1223 25.9892 81.654 26.5391 81.9603 27.22C82.7987 29.0839 83.3371 31.0804 83.5515 33.1303C83.8862 36.9445 83.5515 46.7455 80.5407 50.9081C77.53 55.0707 71.2571 53.8568 68.4137 51.3419C65.8039 49.0337 63.2281 46.4852 62.5591 41.4554C61.8901 36.4256 63.9808 26.8874 69.919 24.8918C74.3314 23.4091 78.5589 24.8481 80.4402 25.6856Z" fill="#FF9D8C"/>
<path d="M88.8607 110.031C88.9963 110.425 88.6786 110.756 88.2615 110.744C88.1564 110.74 88.0392 110.744 87.9179 110.74C87.4854 110.728 86.9599 110.715 86.4303 110.698L86.0746 110.686C85.5491 110.673 85.1004 110.74 84.68 110.715H84.6679C84.5789 110.711 84.4496 110.723 84.3445 110.728C84.2562 110.738 84.1671 110.723 84.0822 110.697C84.0524 110.687 84.0227 110.677 83.9934 110.667C83.7608 110.582 83.5359 110.473 83.2958 110.412C80.5734 109.724 77.785 109.353 74.9824 109.307C71.2473 109.323 67.8962 109.588 67.3505 109.114C66.8611 108.685 66.5447 104.782 68.7308 103.705C69.3008 103.424 69.9671 103.568 70.5584 103.801L72.6346 104.618C73.2548 104.862 73.9219 104.946 74.5862 104.891C77.0185 104.689 83.2077 104.403 85.8159 106.398C87.8645 107.961 88.5985 109.267 88.8607 110.031Z" fill="#FF9D8C"/>
<path d="M84.5602 110.501C84.6118 110.596 84.5382 110.716 84.4301 110.723C84.3784 110.726 84.3281 110.7 84.3002 110.656C84.2091 110.514 84.1092 110.378 84.0011 110.25C82.9905 109.181 80.5489 108.489 79.6636 108.267C79.6246 108.257 79.5908 108.232 79.5695 108.197C79.5483 108.162 79.5415 108.119 79.5504 108.078C79.5604 108.037 79.5855 108.002 79.6203 107.98C79.655 107.958 79.6968 107.951 79.7364 107.961C81.0259 108.284 83.7626 109.11 84.5387 110.463C84.5441 110.472 84.5515 110.485 84.5602 110.501Z" fill="#223A7A"/>
<path d="M86.3093 110.462C86.3668 110.568 86.2861 110.695 86.1656 110.689C86.1096 110.687 86.0598 110.654 86.0329 110.605C84.9258 108.583 83.1367 107.99 80.9361 107.255L80.8039 107.21C80.7661 107.196 80.7349 107.168 80.7169 107.13C80.6988 107.093 80.6954 107.05 80.7073 107.011C80.7202 106.971 80.7477 106.938 80.7837 106.919C80.8197 106.901 80.8614 106.897 80.8998 106.91L81.0283 106.956C83.3056 107.714 85.152 108.326 86.3093 110.462Z" fill="#223A7A"/>
<path d="M88.1627 110.517C88.2132 110.623 88.1352 110.744 88.017 110.742C87.9587 110.741 87.9015 110.708 87.8733 110.657C87.2685 109.562 86.4517 108.609 85.4739 107.857C84.4716 107.087 83.3229 106.546 82.1039 106.27C82.0839 106.266 82.0649 106.259 82.0477 106.248C82.0306 106.237 82.0158 106.223 82.0041 106.205C81.9924 106.188 81.9841 106.169 81.9798 106.149C81.9754 106.128 81.975 106.107 81.9786 106.087C81.987 106.046 82.0101 106.011 82.043 105.987C82.0759 105.964 82.1162 105.954 82.1556 105.961C85.038 106.522 87.3878 108.878 88.1627 110.517Z" fill="#223A7A"/>
<path d="M64.566 37.1633C65.922 36.3576 67.0143 35.1494 67.7024 33.6944C67.85 33.4093 67.9836 33.1175 68.1028 32.8202C68.9365 30.743 70.6877 28.636 72.8828 29.0735C73.4399 29.1846 74.0434 29.3335 74.686 29.5318C78.1988 30.6157 82.3802 32.0886 85.893 30.0088C89.4058 27.929 89.4058 24.5888 87.6911 23.2014C86.8619 22.5302 85.6806 22.3255 84.6058 22.3094C83.852 22.2982 83.1406 20.8084 82.6313 20.2526C82.3511 19.947 81.8114 19.8891 81.2299 19.9424C79.7833 20.0749 78.245 19.9349 76.92 19.3392C75.2278 18.5783 72.4965 17.762 68.7911 17.9561C62.1422 18.3044 58.9625 23.1154 58.5861 28.4911C58.4253 30.7891 58.677 33.0875 59.0181 34.966C59.4405 37.293 61.9511 38.3795 64.0955 37.3821L64.566 37.1633Z" fill="#223A7A"/>
<g style="mix-blend-mode:multiply">
<g style="mix-blend-mode:multiply">
<g style="mix-blend-mode:multiply">
<path d="M78.0556 38.4643C78.0556 38.4655 78.0554 38.4668 78.0549 38.4679C77.6789 39.4316 77.6881 40.5483 77.5932 41.5679C77.5192 42.3643 77.3785 43.2902 78.0811 43.8271C78.358 44.0386 79.4853 44.5457 79.4154 45.0315C79.3784 45.2888 79.0703 45.3998 78.8166 45.4565C78.5494 45.5163 78.2724 45.5228 78.0006 45.4744C77.7581 45.4626 77.5099 45.4517 77.2661 45.4325C77.0038 45.4123 76.7467 45.3302 76.4843 45.3289C76.4514 45.3297 76.4195 45.3416 76.3936 45.3627C76.3677 45.3838 76.349 45.413 76.3404 45.446C76.3318 45.479 76.3337 45.514 76.3459 45.5458C76.3581 45.5776 76.3798 45.6044 76.4079 45.6223C76.8823 45.8746 77.4085 46.004 77.9416 45.9996C78.3774 46.0483 78.8177 45.9679 79.2113 45.7678C79.3547 45.7147 79.4829 45.625 79.5842 45.5071C79.5934 45.4965 79.6023 45.4856 79.6109 45.4746C79.7854 45.252 79.8176 44.9403 79.7138 44.6772C79.6981 44.6372 79.68 44.5982 79.6596 44.5604C79.5721 44.3976 79.4453 44.2612 79.2917 44.1645C78.9756 43.9214 78.5876 43.8083 78.2682 43.5714C77.8236 43.2424 77.8616 42.6887 77.8927 42.1765C77.9675 40.9434 78.2411 39.7316 78.3474 38.5043C78.3635 38.3173 78.115 38.3166 78.0563 38.4606C78.0558 38.4618 78.0556 38.4631 78.0556 38.4643Z" fill="#8E9BBB"/>
</g>
</g>
</g>
<path d="M81.4741 41.3485C81.3492 42.0795 80.8366 42.5963 80.3285 42.5032C79.8203 42.4102 79.5099 41.7421 79.6348 41.0111C79.7597 40.2801 80.2727 39.7628 80.7804 39.8559C81.2881 39.9489 81.599 40.6192 81.4741 41.3485Z" fill="#223A7A"/>
<path d="M75.0746 40.7707C74.9615 41.5595 74.4255 42.13 73.8777 42.0457C73.33 41.9615 72.9771 41.2531 73.0903 40.4647C73.2035 39.6763 73.7395 39.1054 74.2876 39.1896C74.8357 39.2739 75.1878 39.9823 75.0746 40.7707Z" fill="#223A7A"/>
<path d="M79.9853 38.3371C79.9852 38.3371 79.9852 38.3373 79.9853 38.3373C80.3759 38.4054 80.7698 38.3372 81.1641 38.3644C81.2587 38.3715 81.3525 38.3858 81.4471 38.395C81.5142 38.4017 81.3218 38.3744 81.4151 38.3908L81.4758 38.4009C81.5251 38.4101 81.5744 38.4206 81.6233 38.4327C81.707 38.4541 81.7883 38.4868 81.8723 38.5061C81.908 38.5157 81.9442 38.5231 81.9807 38.5284C82.0665 38.5408 82.1535 38.5319 82.2394 38.5199C82.2303 38.5216 82.2314 38.5315 82.2406 38.5305C82.2673 38.5275 82.2939 38.5232 82.3202 38.5174C82.4293 38.4848 82.5218 38.4092 82.5779 38.3068C82.6339 38.2045 82.6491 38.0834 82.6202 37.9695C82.603 37.9054 82.574 37.8454 82.5349 37.7927C82.5183 37.77 82.5013 37.7474 82.4839 37.7252L82.5312 37.7813C82.4981 37.7328 82.4679 37.6806 82.4234 37.6421C82.4129 37.633 82.4016 37.6247 82.3898 37.6175C82.3586 37.5923 82.3275 37.5663 82.2952 37.5428C82.1831 37.4713 82.0601 37.4203 81.9313 37.392C81.6965 37.3296 81.4551 37.2975 81.2126 37.2964C80.9744 37.2983 80.7367 37.3179 80.5012 37.3551C80.2828 37.3812 80.0737 37.4614 79.8916 37.589C79.8258 37.6311 79.773 37.6919 79.7396 37.7642C79.7061 37.8365 79.6933 37.9172 79.7028 37.9968C79.712 38.0763 79.7439 38.1511 79.7943 38.2117C79.8446 38.2722 79.9111 38.3158 79.9853 38.337C79.9854 38.337 79.9854 38.3371 79.9853 38.3371Z" fill="#223A7A"/>
<path d="M75.523 37.1785C75.5232 37.1779 75.523 37.1772 75.5224 37.1768C75.4705 37.1448 75.4168 37.1157 75.3617 37.0898C75.314 37.0672 75.1847 36.9972 75.2809 37.0525C75.2453 37.0324 75.2097 37.0106 75.1738 36.993C75.0124 36.9117 74.843 36.8489 74.6685 36.8056C74.2847 36.7061 73.887 36.6777 73.4938 36.7218C73.0845 36.7556 72.6878 36.8846 72.3332 37.0991C72.3218 37.1055 72.3105 37.1122 72.2995 37.1192C72.2196 37.17 72.1578 37.2437 72.1028 37.3208C72.1078 37.3128 72.099 37.3049 72.092 37.3112C72.0531 37.3466 72.0208 37.3893 71.9969 37.4373C71.9664 37.4989 71.9507 37.5672 71.9512 37.6364C71.9511 37.7006 71.9679 37.7635 71.9998 37.8185C72.0317 37.8735 72.0776 37.9183 72.1323 37.9482C72.1962 37.9776 72.2652 37.993 72.3351 37.9937C72.3816 37.9941 72.4279 37.988 72.4727 37.9755C72.4879 37.9712 72.4844 37.952 72.4686 37.952C72.451 37.952 72.4499 37.9672 72.4675 37.9674C72.5248 37.9682 72.5822 37.9622 72.6385 37.9495C72.6408 37.9489 72.6433 37.9485 72.6457 37.948C72.6647 37.9437 72.7477 37.9212 72.6825 37.9352C72.6105 37.9508 72.7961 37.921 72.8159 37.9181C72.8357 37.9151 72.9646 37.9017 72.8316 37.9151C72.8563 37.9126 72.8805 37.9093 72.9052 37.9063C72.9683 37.8979 73.0313 37.89 73.0944 37.8849C73.3705 37.8619 73.6458 37.8493 73.9222 37.8397C74.1789 37.8309 74.4405 37.8288 74.6972 37.8397C74.8067 37.8443 74.9162 37.8485 75.0262 37.8514C75.0884 37.8514 75.0622 37.8632 75.0197 37.8514C75.042 37.859 75.0658 37.8632 75.0885 37.8699C75.1341 37.8829 75.179 37.8984 75.2235 37.916C75.3141 37.9417 75.4107 37.9322 75.4951 37.8891C75.5795 37.8461 75.6457 37.7727 75.6815 37.6825C75.7178 37.5929 75.7217 37.4927 75.6925 37.4003C75.6634 37.3083 75.6035 37.2301 75.5235 37.1801C75.523 37.1798 75.5228 37.1791 75.523 37.1785Z" fill="#223A7A"/>
<path d="M-nan -nanL77.5091 49.2319C77.5935 49.07 77.6883 48.9153 77.7925 48.7686C78.1173 48.3117 77.8721 47.3373 77.312 47.3155C76.207 47.2726 75.011 47.2995 74.5546 47.5683C73.6192 48.1186 74.7272 50.3297 76.6615 50.4407C76.6681 50.4411 76.6748 50.4414 76.6814 50.4417C76.9992 50.4554 77.225 50.1763 77.2931 49.8656C77.341 49.647 77.4134 49.4343 77.5091 49.2319L-nan -nanZ" fill="#223A7A"/>
<path d="M62.9527 44.405C62.5519 44.5001 62.3247 44.9012 62.5251 45.2612C62.8259 45.8013 63.4049 46.6079 64.483 47.4828C65.7764 48.4533 67.1662 49.2765 68.6282 49.9387C68.9211 50.0713 69.258 49.8963 69.3271 49.5823C69.3795 49.3442 69.2585 49.1017 69.0395 48.9946C68.2131 48.5907 66.2348 47.5566 65.1936 46.4421C64.5898 45.7958 64.2244 45.2825 64.0052 44.9137C63.7932 44.5571 63.3564 44.3093 62.9527 44.405Z" fill="#DEE1EB"/>
<path d="M69.7516 48.4254C70.3358 48.3882 70.9132 48.572 71.3766 48.9427C71.84 49.3133 72.1581 49.8458 72.2716 50.4411C72.3796 51.2622 71.6358 52.1827 69.8956 51.3741C67.7341 50.3694 68.2038 48.5 69.7516 48.4254Z" fill="#223A7A"/>
<path d="M61.9458 34.704C62.8076 34.6718 63.5273 34.0243 63.7406 33.1886C64.1831 31.4554 65.1968 28.5179 67.3265 26.2794C70.7858 22.6438 73.9538 21.1777 76.0628 20.5907C77.4339 20.2092 78.0355 19.0781 76.6934 18.6048C75.7505 18.2719 75.0724 18.2 74.6348 18.2093C74.2192 18.218 73.8079 18.3177 73.3998 18.3964C71.923 18.6815 68.0597 19.7657 64.6921 23.6346C61.9133 26.8269 60.7495 30.5895 60.2758 32.8244C60.0568 33.8579 60.8901 34.7435 61.9458 34.704Z" fill="#DEE1EB"/>
<path d="M62.9771 34.0412C58.9501 33.3332 56.7046 36.598 56.5372 39.8946C56.3699 43.1912 58.6797 45.6952 61.7644 45.445C68.7064 44.8812 67.9116 34.9084 62.9771 34.0412Z" fill="white"/>
<path d="M60.972 42.2425C60.4632 42.2506 59.9623 42.1119 59.5252 41.8418C59.0881 41.5717 58.7321 41.1808 58.4969 40.713C58.2266 40.2075 58.0947 39.6351 58.1154 39.0575C58.1362 38.48 58.3087 37.9193 58.6145 37.436C58.6371 37.4016 58.672 37.3779 58.7115 37.37C58.7509 37.3622 58.7918 37.3708 58.8251 37.3941C58.8584 37.4176 58.8814 37.4538 58.889 37.4949C58.8966 37.5359 58.8881 37.5784 58.8655 37.6129C58.5909 38.0482 58.4363 38.553 58.4182 39.0727C58.4002 39.5925 58.5195 40.1075 58.7633 40.5621C58.9779 40.993 59.3077 41.3507 59.7131 41.5927C60.1185 41.8346 60.5824 41.9504 61.0496 41.9264C61.4847 41.924 61.9126 41.8106 62.2955 41.5963C62.6785 41.382 63.0046 41.0733 63.2454 40.6975C63.5266 40.2457 63.7029 39.7325 63.7603 39.1981C63.8178 38.6637 63.7548 38.1228 63.5765 37.618C63.4101 37.1441 63.1007 36.7385 62.6944 36.4614C62.288 36.1843 61.8064 36.0504 61.3208 36.0797C61.281 36.085 61.2408 36.0739 61.2089 36.0486C61.177 36.0233 61.1561 35.9859 61.1507 35.9447C61.148 35.9243 61.1492 35.9035 61.1543 35.8835C61.1594 35.8635 61.1683 35.8448 61.1804 35.8284C61.1925 35.812 61.2076 35.7983 61.2248 35.788C61.242 35.7776 61.2611 35.7709 61.2808 35.7682C61.835 35.7247 62.3876 35.8711 62.8536 36.1851C63.3196 36.4991 63.6732 36.9633 63.8598 37.506C64.0546 38.0581 64.1231 38.6494 64.06 39.2335C63.9969 39.8177 63.8038 40.3786 63.496 40.8723C63.2287 41.2902 62.8664 41.6336 62.441 41.8722C62.0156 42.1109 61.5401 42.2374 61.0565 42.2408L60.972 42.2425Z" fill="#818FB3"/>
<path d="M59.3623 58.8161C58.6328 57.0693 56.7323 56.1894 54.9326 56.7764C51.0198 58.0526 44.4625 60.5879 41.5668 64.0025C37.3013 69.0323 35.2943 93.8347 35.2106 98.4307C35.1269 103.027 38.2213 104.935 40.0614 106.236C41.9015 107.536 50.0137 109.878 56.5372 110.225C59.9628 110.407 63.2962 110.398 65.6896 110.348C67.7206 110.306 69.257 108.628 70.1293 106.793C70.1629 106.723 70.1973 106.653 70.2327 106.583C70.6988 105.574 70.3085 103.398 69.2669 103.011L67.8159 102.472C67.1632 102.23 66.7169 101.63 66.6761 100.935C66.4341 96.8134 65.5302 82.518 64.2319 75.0161C63.089 68.4143 60.813 62.2896 59.3623 58.8161Z" fill="#223A7A"/>
<path d="M-nan -nanL78.2827 99.1608C78.2548 99.1608 78.2272 99.1546 78.2018 99.1427C78.1529 99.1202 78.1145 99.0785 78.0952 99.0267C78.0758 98.9749 78.0771 98.9173 78.0987 98.8665C79.2431 96.1902 80.4284 90.9353 81.0962 87.2489L81.1507 86.9513C81.3528 85.867 81.6043 84.5181 81.1026 83.5872C80.8467 83.1123 80.2691 82.082 79.7133 81.0916C79.1364 80.0634 78.5915 79.0922 78.4403 78.8022C78.146 78.2363 79.0734 76.7236 80.4158 74.6492C80.7796 74.0884 81.0917 73.6047 81.2744 73.2769C81.753 72.4185 81.4361 71.6322 81.0654 70.7201L80.9401 70.4066C80.6058 69.5557 80.2254 68.7027 79.8584 67.8787C79.7084 67.5433 79.558 67.2043 79.4101 66.8656C79.2136 66.4185 79.016 65.9633 78.8171 65.5C77.6494 62.6611 76.3241 59.8946 74.8479 57.2146C74.8205 57.1669 74.8126 57.1098 74.8257 57.056C74.8389 57.0021 74.8722 56.9559 74.9182 56.9275C74.941 56.9134 74.9663 56.9041 74.9926 56.9001C75.0189 56.8961 75.0457 56.8976 75.0715 56.9044C75.0972 56.9111 75.1214 56.9231 75.1427 56.9396C75.164 56.9561 75.1819 56.9768 75.1955 57.0004C76.6796 59.6943 78.0119 62.4749 79.1857 65.3286C79.3852 65.7891 79.5826 66.2437 79.7779 66.6925C79.9259 67.0303 80.0749 67.3672 80.225 67.703C80.5945 68.5313 80.9765 69.3885 81.3165 70.2486L81.4402 70.5579C81.8165 71.4863 82.2054 72.4466 81.6261 73.4852C81.4365 73.8252 81.12 74.3147 80.7534 74.8814C80.0536 75.9633 78.5968 78.2149 78.7981 78.6018C78.946 78.8856 79.4893 79.8542 80.0645 80.8795C80.6216 81.8724 81.2009 82.9052 81.4575 83.3814C82.0316 84.446 81.7644 85.8783 81.5501 87.028L81.4951 87.3235C81.2526 88.6648 79.9639 95.5389 78.4706 99.0337C78.4549 99.0718 78.4287 99.1042 78.3952 99.1268C78.3618 99.1494 78.3226 99.1612 78.2827 99.1608L-nan -nanZ" fill="#8593B6"/>
<path d="M-nan -nanL66.3657 99.8983C66.3391 99.8984 66.3127 99.893 66.2881 99.8824C66.2634 99.8718 66.2411 99.8563 66.2222 99.8367C65.2719 98.8438 60.6887 90.6154 60.3475 89.0675C60.1607 88.2204 60.6305 86.0718 61.0832 83.9958C61.4345 82.3858 61.7979 80.7209 61.6944 80.2703C61.54 79.5968 60.3681 78.6042 59.2346 77.6444C57.8655 76.4846 56.4499 75.2854 56.1758 74.2048C55.8641 72.9771 56.1305 65.2911 56.3068 60.2052C56.3702 58.3764 56.4204 56.932 56.42 56.4169C56.42 56.3613 56.4412 56.308 56.4792 56.2687C56.5171 56.2294 56.5685 56.2073 56.6221 56.2073C56.6757 56.2073 56.7271 56.2294 56.765 56.2687C56.8029 56.308 56.8242 56.3613 56.8242 56.4169C56.8242 56.9396 56.7745 58.3869 56.7106 60.2203C56.5461 64.9738 56.2704 72.9297 56.5667 74.0983C56.8092 75.046 58.2329 76.2536 59.4905 77.3191C60.7307 78.3695 61.9018 79.3616 62.0877 80.1735C62.2126 80.7184 61.8719 82.2798 61.4773 84.088C61.0545 86.0257 60.5755 88.2212 60.7416 88.9761C61.0763 90.493 65.5755 98.5675 66.5092 99.5429C66.5471 99.5822 66.5684 99.6355 66.5684 99.6911C66.5684 99.7466 66.5471 99.7999 66.5092 99.8392C66.4708 99.8779 66.4192 99.8991 66.3657 99.8983L-nan -nanZ" fill="#8593B6"/>
<path d="M49.9305 96.2984C49.9209 96.2984 49.9113 96.2977 49.9018 96.2964C49.8487 96.2886 49.8008 96.2592 49.7686 96.2148C49.7364 96.1704 49.7225 96.1146 49.73 96.0595C49.8783 94.9697 52.1987 73.2577 52.305 71.5945C52.3068 71.567 52.3137 71.5401 52.3255 71.5154C52.3373 71.4907 52.3536 71.4687 52.3737 71.4505C52.3937 71.4324 52.4169 71.4185 52.4421 71.4097C52.4673 71.4009 52.494 71.3973 52.5205 71.3992C52.5739 71.403 52.6237 71.4286 52.659 71.4704C52.6942 71.5122 52.712 71.5668 52.7084 71.6222C52.6017 73.2879 50.279 95.0267 50.1302 96.1186C50.1233 96.1685 50.0993 96.2141 50.0626 96.2471C50.026 96.2801 49.9791 96.2984 49.9305 96.2984Z" fill="#8593B6"/>
<path d="M66.5736 102.196C66.5476 102.196 66.5218 102.191 66.4976 102.181C65.9835 101.965 63.7121 101.17 60.8363 100.165C55.0323 98.1352 47.0831 95.3558 45.5716 94.5414C45.5241 94.5158 45.4883 94.4716 45.4722 94.4187C45.456 94.3657 45.4608 94.3082 45.4855 94.2589C45.5102 94.2096 45.5528 94.1725 45.6039 94.1558C45.655 94.1391 45.7104 94.144 45.758 94.1696C47.2419 94.969 55.5 97.8582 60.9657 99.7678C63.8479 100.774 66.1241 101.57 66.6496 101.792C66.6993 101.813 66.7388 101.854 66.7597 101.905C66.7805 101.956 66.7809 102.014 66.7608 102.065C66.7457 102.104 66.7199 102.137 66.6865 102.16C66.6532 102.184 66.6139 102.196 66.5736 102.196Z" fill="#8593B6"/>
<path d="M-nan -nanL63.7822 110.843C58.6743 110.843 48.7714 109.888 41.2486 107.129C41.1984 107.11 41.1575 107.071 41.1348 107.021C41.1121 106.971 41.1094 106.914 41.1273 106.862C41.1456 106.81 41.183 106.767 41.2313 106.744C41.2796 106.72 41.335 106.717 41.3852 106.736C50.8888 110.222 64.1841 110.817 66.6568 110.241C66.6828 110.235 66.7097 110.234 66.736 110.238C66.7622 110.243 66.7874 110.253 66.8099 110.268C66.8325 110.283 66.852 110.302 66.8673 110.325C66.8827 110.347 66.8935 110.373 66.8993 110.4C66.9053 110.427 66.9061 110.454 66.9016 110.482C66.8972 110.509 66.8875 110.535 66.8733 110.558C66.8591 110.582 66.8406 110.602 66.8189 110.618C66.7971 110.634 66.7725 110.645 66.7465 110.651C65.7662 110.81 64.7739 110.874 63.7822 110.843L-nan -nanZ" fill="#8593B6"/>
<path d="M147.433 80.246C150.371 80.2741 152.277 83.3549 150.991 85.9968L138.859 110.915C138.194 112.281 136.812 113.152 135.292 113.163L97.2702 113.447C94.3873 113.468 92.4291 110.525 93.5624 107.874L104.497 82.2973C105.132 80.812 106.598 79.8544 108.213 79.8699L147.433 80.246Z" fill="#F6F7FA"/>
<path d="M60.2262 113.288C60.2311 111.835 61.4104 110.659 62.8636 110.659H87.7987C89.385 110.659 90.8215 109.722 91.4602 108.27L103.242 81.4822C103.88 80.03 105.317 79.0926 106.903 79.0926H152.296C152.458 79.0926 152.613 79.1568 152.727 79.2711C153.109 79.6541 152.838 80.3081 152.296 80.3081H109.236C107.647 80.3081 106.209 81.2484 105.572 82.7039L93.2446 110.861C92.6063 112.319 91.1788 113.26 89.5872 113.258C81.9612 113.245 60.2262 113.216 60.2262 113.288Z" fill="#D9DEE8"/>
<path d="M129.558 98.4275C129.033 100.066 126.173 101.331 123.174 101.253C120.175 101.175 118.171 99.7856 118.697 98.1463C119.224 96.507 122.082 95.2433 125.081 95.3212C128.08 95.3992 130.085 96.7899 129.558 98.4275Z" fill="#D9DEE8"/>
<path d="M92.1941 113.47C92.1652 113.47 92.1367 113.464 92.1104 113.451C92.0862 113.44 92.0644 113.424 92.0463 113.404C92.0281 113.384 92.014 113.36 92.0046 113.334C91.9953 113.309 91.9909 113.281 91.9918 113.254C91.9927 113.226 91.9988 113.199 92.0098 113.174L105.442 82.4929C106.079 81.0375 107.517 80.0971 109.106 80.0971H153.762C153.815 80.0971 153.867 80.1192 153.904 80.1585C153.942 80.1978 153.964 80.2511 153.964 80.3067C153.964 80.3623 153.942 80.4156 153.904 80.4549C153.867 80.4942 153.815 80.5163 153.762 80.5163H109.364C107.776 80.5163 106.337 81.4567 105.7 82.9121L92.376 113.348C92.3601 113.384 92.3345 113.415 92.3023 113.436C92.2701 113.458 92.2325 113.47 92.1941 113.47Z" fill="white"/>
<path d="M54.1262 115.775H6.67648C4.46734 115.775 2.67648 117.566 2.67648 119.775V124.523C2.67648 126.732 4.46735 128.523 6.67648 128.523H54.1262C56.3354 128.523 58.1262 126.732 58.1262 124.523V119.775C58.1262 117.566 56.3354 115.775 54.1262 115.775Z" fill="#596B9B"/>
<path d="M153.574 115.775H61.8094C59.6003 115.775 57.8094 117.566 57.8094 119.775V124.523C57.8094 126.732 59.6003 128.523 61.8094 128.523H153.574C155.783 128.523 157.574 126.732 157.574 124.523V119.775C157.574 117.566 155.783 115.775 153.574 115.775Z" fill="#7A89AF"/>
<g style="mix-blend-mode:multiply">
<path d="M58.1262 115.775H3.84717C3.20062 115.775 2.67648 116.3 2.67648 116.946C2.67648 117.593 3.20062 118.117 3.84717 118.117H156.403C157.05 118.117 157.574 117.593 157.574 116.946C157.574 116.3 157.05 115.775 156.403 115.775H58.1262Z" fill="#BDC4D7"/>
</g>
<path d="M58.9907 113.261H1.56092C0.698848 113.261 0 113.96 0 114.822C0 115.684 0.698848 116.383 1.56092 116.383H58.9907C59.8528 116.383 60.5516 115.684 60.5516 114.822C60.5516 113.96 59.8528 113.261 58.9907 113.261Z" fill="#6F7FA9"/>
<path d="M158.439 113.261H61.796C60.934 113.261 60.2351 113.96 60.2351 114.822C60.2351 115.684 60.934 116.383 61.796 116.383H158.439C159.301 116.383 160 115.684 160 114.822C160 113.96 159.301 113.261 158.439 113.261Z" fill="#9CA6C3"/>
<path d="M44.1268 31.6947H24.5521C23.3407 31.6947 22.3587 32.7129 22.3587 33.969V44.102C22.3587 45.3581 23.3407 46.3763 24.5521 46.3763H44.1268C45.3382 46.3763 46.3202 45.3581 46.3202 44.102V33.969C46.3202 32.7129 45.3382 31.6947 44.1268 31.6947Z" fill="white"/>
<path d="M47.4938 40.9632C49.1744 40.2279 49.1744 37.844 47.4938 37.1087C46.104 36.5006 44.547 37.5189 44.547 39.036C44.547 40.553 46.104 41.5713 47.4938 40.9632Z" fill="white"/>
<path d="M29.6958 40.4401C30.4437 40.4401 31.05 39.8115 31.05 39.036C31.05 38.2605 30.4437 37.6318 29.6958 37.6318C28.9479 37.6318 28.3416 38.2605 28.3416 39.036C28.3416 39.8115 28.9479 40.4401 29.6958 40.4401Z" fill="#223A7A"/>
<path d="M34.3396 40.4401C35.0875 40.4401 35.6938 39.8115 35.6938 39.036C35.6938 38.2605 35.0875 37.6318 34.3396 37.6318C33.5917 37.6318 32.9854 38.2605 32.9854 39.036C32.9854 39.8115 33.5917 40.4401 34.3396 40.4401Z" fill="#223A7A"/>
<path d="M38.9835 40.4401C39.7314 40.4401 40.3376 39.8115 40.3376 39.036C40.3376 38.2605 39.7314 37.6318 38.9835 37.6318C38.2356 37.6318 37.6293 38.2605 37.6293 39.036C37.6293 39.8115 38.2356 40.4401 38.9835 40.4401Z" fill="#223A7A"/>
<path d="M-nan -nanL143.783 0.523071H98.5918C97.1981 0.523071 95.8614 1.09716 94.8759 2.11904C93.8904 3.14091 93.3368 4.52688 93.3368 5.97204V28.2021C93.3368 29.6473 93.8904 31.0333 94.8759 32.0551C95.8614 33.077 97.1981 33.6511 98.5918 33.6511H100.227C101.583 33.6511 102.719 34.1075 102.632 35.4599C102.483 37.8003 104.657 40.3711 106.396 38.7978C107.492 37.8059 108.497 36.7048 109.394 35.5083C110.23 34.393 111.503 33.6511 112.897 33.6511H143.783C145.176 33.6511 146.513 33.077 147.498 32.0551C148.484 31.0333 149.038 29.6473 149.038 28.2021V5.97204C149.038 4.52688 148.484 3.14091 147.498 2.11904C146.513 1.09716 145.176 0.523071 143.783 0.523071L-nan -nanZ" fill="#7A65E1"/>
<path d="M-nan -nanL124.505 11.1179H102.091C101.795 11.1179 101.511 10.9961 101.302 10.7792C101.093 10.5623 100.975 10.2682 100.975 9.9615L-nan -nanL100.975 9.9615C100.975 9.80965 101.004 9.65929 101.06 9.51901C101.116 9.37873 101.198 9.25127 101.302 9.14392C101.406 9.03657 101.529 8.95143 101.664 8.89336C101.799 8.83529 101.944 8.80543 102.091 8.80548H124.505C124.651 8.80543 124.796 8.83529 124.931 8.89336C125.067 8.95143 125.19 9.03657 125.293 9.14392C125.397 9.25127 125.479 9.37873 125.535 9.51901C125.591 9.65929 125.62 9.80965 125.62 9.9615C125.62 10.2682 125.502 10.5623 125.293 10.7792C125.084 10.9961 124.8 11.1179 124.505 11.1179L-nan -nanZ" fill="white"/>
<path d="M-nan -nanL140.577 17.8534H101.658C101.477 17.8534 101.304 17.7789 101.176 17.6461C101.047 17.5134 100.975 17.3333 100.975 17.1455C100.975 16.9576 101.047 16.7775 101.175 16.6446C101.304 16.5118 101.477 16.4371 101.658 16.4371H140.577C140.758 16.4371 140.931 16.5118 141.06 16.6446C141.188 16.7775 141.26 16.9576 141.26 17.1455C141.26 17.3333 141.188 17.5134 141.059 17.6461C140.931 17.7789 140.758 17.8534 140.577 17.8534L-nan -nanZ" fill="#D2E6FF"/>
<path d="M-nan -nanL140.577 21.7848H101.658C101.477 21.7848 101.304 21.7102 101.175 21.5774C101.047 21.4445 100.975 21.2643 100.975 21.0765L-nan -nanL100.975 21.0765C100.975 20.8886 101.047 20.7084 101.175 20.5756C101.304 20.4427 101.477 20.3681 101.658 20.3681H140.577C140.758 20.3681 140.931 20.4427 141.06 20.5756C141.188 20.7084 141.26 20.8886 141.26 21.0765L-nan -nanL141.26 21.0765C141.26 21.2643 141.188 21.4445 141.06 21.5774C140.931 21.7102 140.758 21.7848 140.577 21.7848L-nan -nanZ" fill="#D2E6FF"/>
<path d="M-nan -nanL132.087 25.9759H101.658C101.477 25.9759 101.304 25.9013 101.176 25.7686C101.047 25.6358 100.975 25.4558 100.975 25.268C100.975 25.0801 101.047 24.8999 101.175 24.7671C101.304 24.6342 101.477 24.5596 101.658 24.5596H132.087C132.268 24.5597 132.442 24.6344 132.57 24.7672C132.698 24.9001 132.77 25.0802 132.77 25.268L-nan -nanL132.77 25.268C132.77 25.4557 132.698 25.6358 132.57 25.7686C132.442 25.9013 132.268 25.9759 132.087 25.9759L-nan -nanZ" fill="#D2E6FF"/>
<path d="M-nan -nanL140.271 11.1179H129.579C129.283 11.1179 128.999 10.9961 128.79 10.7792C128.581 10.5623 128.463 10.2682 128.463 9.9615L-nan -nanL128.463 9.9615C128.463 9.80965 128.492 9.65929 128.548 9.51901C128.604 9.37873 128.686 9.25127 128.79 9.14392C128.894 9.03657 129.017 8.95143 129.152 8.89336C129.287 8.83529 129.432 8.80543 129.579 8.80548H140.271C140.567 8.80548 140.85 8.92727 141.059 9.14407C141.268 9.36087 141.386 9.6549 141.386 9.9615L-nan -nanL141.386 9.9615C141.386 10.1133 141.357 10.2637 141.301 10.404C141.245 10.5443 141.163 10.6718 141.06 10.7792C140.956 10.8866 140.833 10.9718 140.698 11.0299C140.562 11.088 140.417 11.1179 140.271 11.1179L-nan -nanZ" fill="white"/>
<path d="M113.322 51.963H101.181C100.734 51.963 100.372 52.3383 100.372 52.8013V61.4011C100.372 61.864 100.734 62.2394 101.181 62.2394H113.322C113.768 62.2394 114.13 61.864 114.13 61.4011V52.8013C114.13 52.3383 113.768 51.963 113.322 51.963Z" fill="white"/>
<path d="M-nan -nanL107.335 58.6371C107.265 58.6372 107.196 58.6117 107.142 58.565L100.534 52.9065C100.504 52.8802 100.478 52.8479 100.46 52.8115C100.441 52.775 100.43 52.7351 100.426 52.6941C100.422 52.653 100.426 52.6116 100.438 52.5721C100.45 52.5327 100.469 52.4961 100.494 52.4643C100.519 52.4325 100.55 52.4062 100.586 52.3869C100.621 52.3675 100.659 52.3556 100.699 52.3517C100.738 52.3478 100.778 52.352 100.816 52.3642C100.854 52.3763 100.89 52.3961 100.92 52.4224L104.659 55.6253C106.187 56.9337 108.448 56.9047 109.941 55.5575L113.576 52.2782C113.637 52.2236 113.716 52.1961 113.796 52.2018C113.876 52.2076 113.951 52.246 114.004 52.3088C114.03 52.3399 114.05 52.3761 114.062 52.4152C114.075 52.4544 114.08 52.4958 114.077 52.537C114.075 52.5781 114.064 52.6184 114.046 52.6553C114.028 52.6922 114.004 52.7252 113.974 52.7522L107.534 58.5629C107.479 58.6115 107.408 58.6379 107.335 58.6371L-nan -nanZ" fill="#6F7FA9"/>
<path d="M-nan -nanL100.728 62.0052C100.65 62.0055 100.575 61.9744 100.519 61.9184C100.49 61.89 100.467 61.8559 100.451 61.8182C100.434 61.7805 100.426 61.7398 100.425 61.6985C100.424 61.6573 100.43 61.6162 100.445 61.5777C100.459 61.5392 100.481 61.504 100.508 61.4741L105.129 56.4368C105.157 56.4068 105.19 56.3827 105.226 56.3659C105.262 56.3491 105.301 56.3399 105.341 56.3388C105.381 56.3378 105.421 56.3449 105.458 56.3598C105.495 56.3746 105.529 56.397 105.558 56.4255C105.586 56.4539 105.61 56.488 105.626 56.5257C105.642 56.5635 105.651 56.6042 105.652 56.6455C105.653 56.6868 105.646 56.7279 105.632 56.7664C105.617 56.805 105.596 56.8403 105.568 56.8702L100.947 61.9075C100.919 61.9385 100.885 61.9631 100.847 61.9799C100.809 61.9967 100.769 62.0053 100.728 62.0052L-nan -nanZ" fill="#6F7FA9"/>
<path d="M113.775 61.8208C113.735 61.8209 113.695 61.8128 113.659 61.797C113.622 61.7811 113.588 61.7579 113.56 61.7286L108.957 56.9431C108.929 56.9139 108.907 56.8793 108.892 56.8411C108.876 56.8029 108.869 56.7621 108.869 56.7208C108.869 56.6795 108.876 56.6386 108.892 56.6004C108.907 56.5623 108.929 56.5276 108.957 56.4984C108.986 56.4692 109.019 56.446 109.056 56.4302C109.093 56.4144 109.132 56.4062 109.172 56.4062C109.212 56.4062 109.251 56.4144 109.288 56.4302C109.325 56.446 109.358 56.4692 109.386 56.4984L113.989 61.2839C114.017 61.313 114.04 61.3477 114.055 61.3859C114.07 61.424 114.078 61.4649 114.078 61.5062C114.078 61.5475 114.07 61.5884 114.055 61.6266C114.04 61.6647 114.017 61.6994 113.989 61.7286C113.961 61.7578 113.928 61.781 113.891 61.7968C113.854 61.8127 113.815 61.8208 113.775 61.8208Z" fill="#6F7FA9"/>
<path d="M114.761 55.8505C117.001 55.8505 118.817 53.9676 118.817 51.6448C118.817 49.322 117.001 47.439 114.761 47.439C112.521 47.439 110.705 49.322 110.705 51.6448C110.705 53.9676 112.521 55.8505 114.761 55.8505Z" fill="#FF5F42"/>
<path d="M116.518 56.1186C116.918 56.3106 117.242 56.5866 117.49 56.9466C117.746 57.2986 117.874 57.6986 117.874 58.1466C117.874 58.5706 117.758 58.9626 117.526 59.3226C117.302 59.6826 116.99 59.9666 116.59 60.1746C116.198 60.3826 115.766 60.4866 115.294 60.4866C114.822 60.4866 114.39 60.3826 113.998 60.1746C113.606 59.9666 113.294 59.6826 113.062 59.3226C112.838 58.9626 112.726 58.5706 112.726 58.1466C112.726 57.6826 112.85 57.2786 113.098 56.9346C113.346 56.5906 113.662 56.3226 114.046 56.1306C113.726 55.9626 113.458 55.7146 113.242 55.3866C113.026 55.0506 112.918 54.6786 112.918 54.2706C112.918 53.8466 113.022 53.4626 113.23 53.1186C113.446 52.7666 113.734 52.4906 114.094 52.2906C114.462 52.0906 114.862 51.9906 115.294 51.9906C115.726 51.9906 116.122 52.0906 116.482 52.2906C116.85 52.4906 117.138 52.7666 117.346 53.1186C117.554 53.4626 117.658 53.8466 117.658 54.2706C117.658 54.6866 117.546 55.0546 117.322 55.3746C117.106 55.6946 116.838 55.9426 116.518 56.1186ZM115.294 52.6746C114.806 52.6746 114.41 52.8226 114.106 53.1186C113.802 53.4146 113.65 53.7986 113.65 54.2706C113.65 54.5826 113.726 54.8626 113.878 55.1106C114.03 55.3506 114.23 55.5386 114.478 55.6746C114.734 55.8106 115.006 55.8786 115.294 55.8786C115.582 55.8786 115.85 55.8106 116.098 55.6746C116.354 55.5386 116.554 55.3506 116.698 55.1106C116.85 54.8626 116.926 54.5826 116.926 54.2706C116.926 53.7986 116.774 53.4146 116.47 53.1186C116.166 52.8226 115.774 52.6746 115.294 52.6746ZM115.294 59.7906C115.838 59.7906 116.282 59.6386 116.626 59.3346C116.97 59.0226 117.142 58.6266 117.142 58.1466C117.142 57.8346 117.058 57.5506 116.89 57.2946C116.722 57.0386 116.494 56.8386 116.206 56.6946C115.926 56.5426 115.622 56.4666 115.294 56.4666C114.966 56.4666 114.662 56.5426 114.382 56.6946C114.102 56.8386 113.878 57.0386 113.71 57.2946C113.542 57.5506 113.458 57.8346 113.458 58.1466C113.458 58.6266 113.626 59.0226 113.962 59.3346C114.306 59.6386 114.75 59.7906 115.294 59.7906ZM114.946 69.8106C115.458 69.8106 115.918 69.9266 116.326 70.1586C116.742 70.3826 117.066 70.7026 117.298 71.1186C117.538 71.5266 117.658 71.9866 117.658 72.4986C117.658 73.0586 117.526 73.5626 117.262 74.0106C117.006 74.4506 116.646 74.7946 116.182 75.0426C115.718 75.2906 115.19 75.4146 114.598 75.4146C114.262 75.4146 113.926 75.3586 113.59 75.2466C113.262 75.1346 112.974 74.9746 112.726 74.7666C112.678 74.7346 112.638 74.6906 112.606 74.6346C112.582 74.5706 112.57 74.5106 112.57 74.4546C112.57 74.3746 112.602 74.2986 112.666 74.2266C112.738 74.1466 112.822 74.1066 112.918 74.1066C113.006 74.1066 113.094 74.1426 113.182 74.2146C113.39 74.3746 113.614 74.4986 113.854 74.5866C114.102 74.6746 114.35 74.7186 114.598 74.7186C115.054 74.7186 115.458 74.6266 115.81 74.4426C116.17 74.2586 116.446 73.9986 116.638 73.6626C116.838 73.3266 116.938 72.9466 116.938 72.5226C116.938 71.9146 116.742 71.4266 116.35 71.0586C115.958 70.6826 115.434 70.4946 114.778 70.4946C114.53 70.4946 114.298 70.5306 114.082 70.6026C113.874 70.6746 113.638 70.7706 113.374 70.8906C113.182 70.9866 113.058 71.0346 113.002 71.0346C112.882 71.0346 112.782 70.9986 112.702 70.9266C112.63 70.8466 112.594 70.7546 112.594 70.6506C112.594 70.6106 112.598 70.5786 112.606 70.5546L113.122 67.2906C113.138 67.2106 113.178 67.1426 113.242 67.0866C113.314 67.0226 113.398 66.9906 113.494 66.9906H117.106C117.202 66.9906 117.282 67.0266 117.346 67.0986C117.418 67.1626 117.454 67.2466 117.454 67.3506C117.454 67.4466 117.418 67.5306 117.346 67.6026C117.282 67.6666 117.202 67.6986 117.106 67.6986H113.746L113.338 70.1826C113.546 70.0786 113.79 69.9906 114.07 69.9186C114.358 69.8466 114.65 69.8106 114.946 69.8106Z" fill="white"/>
<path d="M155.501 42.8997H131.805C130.912 42.8997 130.188 43.6504 130.188 44.5764V48.4208C130.188 49.3468 130.912 50.0974 131.805 50.0974H155.501C156.394 50.0974 157.118 49.3468 157.118 48.4208V44.5764C157.118 43.6504 156.394 42.8997 155.501 42.8997Z" fill="#223A7A"/>
<path d="M-nan -nanL133.515 48.3862C133.467 48.3881 133.419 48.3785 133.374 48.3581C133.33 48.3376 133.291 48.307 133.259 48.2684C133.227 48.2279 133.203 48.1811 133.188 48.1307C133.173 48.0803 133.168 48.0274 133.174 47.975L133.273 47.0711C133.275 47.0523 133.284 47.0301 133.279 47.0119C133.274 46.996 133.257 46.9908 133.241 46.9925C133.239 46.9927 133.237 46.993 133.235 46.9934C133.225 46.9956 133.216 47.0005 133.208 47.0076L132.469 47.5621C132.43 47.5953 132.384 47.6193 132.335 47.6324C132.286 47.6456 132.235 47.6476 132.186 47.6384C132.136 47.6277 132.088 47.6059 132.047 47.5743C132.006 47.5427 131.972 47.5023 131.947 47.4557C131.915 47.4082 131.894 47.3533 131.887 47.2957C131.88 47.2382 131.887 47.1797 131.906 47.1254C131.927 47.079 131.956 47.0373 131.992 47.0029C132.028 46.9684 132.071 46.942 132.117 46.925L132.947 46.5356C132.97 46.5281 132.982 46.5159 132.982 46.5004C132.982 46.4849 132.97 46.4728 132.947 46.4648L132.117 46.0754C132.069 46.0568 132.025 46.0269 131.99 45.9881C131.954 45.9493 131.928 45.9026 131.912 45.8516C131.897 45.8007 131.893 45.7473 131.899 45.6945C131.905 45.6417 131.921 45.5908 131.946 45.5448C131.971 45.4982 132.005 45.4578 132.047 45.4262C132.088 45.3945 132.135 45.3725 132.185 45.3616C132.234 45.3523 132.285 45.3533 132.333 45.3645C132.382 45.3756 132.428 45.3967 132.468 45.4266L133.208 45.9928C133.215 46 133.225 46.0049 133.235 46.007C133.237 46.0076 133.24 46.0079 133.242 46.0081C133.257 46.0092 133.273 46.0047 133.278 45.9903C133.285 45.9713 133.275 45.9475 133.273 45.9275L133.173 45.0259C133.168 44.9731 133.174 44.9197 133.189 44.8692C133.205 44.8187 133.231 44.7721 133.265 44.7325C133.299 44.6933 133.341 44.6624 133.388 44.642C133.436 44.6216 133.487 44.6121 133.538 44.6143C133.587 44.613 133.636 44.6229 133.681 44.6433C133.726 44.6637 133.767 44.6941 133.799 44.7325C133.833 44.7718 133.858 44.8187 133.872 44.8695C133.886 44.9203 133.889 44.9738 133.88 45.0259L133.784 45.9043C133.78 45.9398 133.758 45.9886 133.789 46.005C133.799 46.0084 133.809 46.0091 133.819 46.007C133.829 46.0048 133.839 46 133.846 45.9928L134.586 45.4387C134.626 45.405 134.673 45.3807 134.723 45.3674C134.773 45.354 134.825 45.3521 134.876 45.3616C134.926 45.371 134.973 45.3924 135.014 45.4243C135.095 45.4881 135.149 45.5859 135.167 45.6877C135.167 45.6933 135.168 45.699 135.169 45.7047C135.176 45.7623 135.169 45.8208 135.15 45.8751C135.129 45.9215 135.1 45.9631 135.064 45.9976C135.028 46.032 134.985 46.0585 134.939 46.0754L134.109 46.4648C134.086 46.4728 134.075 46.4845 134.075 46.5004C134.075 46.5164 134.086 46.5281 134.109 46.5356L134.939 46.925C134.988 46.9442 135.032 46.9742 135.068 47.0128C135.105 47.0515 135.132 47.0979 135.15 47.1489C135.166 47.1997 135.171 47.254 135.164 47.3072C135.164 47.3088 135.164 47.3103 135.164 47.3119C135.149 47.414 135.095 47.5123 135.014 47.5759C134.973 47.6077 134.926 47.6291 134.876 47.6384C134.826 47.6485 134.774 47.6479 134.725 47.6369C134.675 47.6258 134.628 47.6043 134.586 47.5739L133.846 47.0076C133.839 47.0005 133.829 46.9956 133.819 46.9935C133.817 46.993 133.815 46.9926 133.812 46.9924C133.797 46.9912 133.781 46.9959 133.776 47.0105C133.769 47.0295 133.779 47.0529 133.781 47.0729L133.88 47.975C133.889 48.0274 133.886 48.0813 133.872 48.1323C133.857 48.1833 133.831 48.2299 133.795 48.2684C133.759 48.3075 133.716 48.3382 133.667 48.3585C133.619 48.3788 133.567 48.3883 133.515 48.3862L-nan -nanZ" fill="white"/>
<path d="M-nan -nanL138.417 48.3862C138.368 48.3881 138.32 48.3785 138.275 48.358C138.231 48.3376 138.192 48.307 138.16 48.2684C138.128 48.2279 138.104 48.181 138.089 48.1306C138.075 48.0802 138.07 48.0273 138.075 47.975L138.175 47.0718C138.177 47.0525 138.186 47.0299 138.18 47.0114C138.175 46.9959 138.158 46.9909 138.142 46.9925C138.14 46.9927 138.138 46.993 138.136 46.9935C138.126 46.9956 138.117 47.0005 138.109 47.0076L137.37 47.5621C137.331 47.5953 137.285 47.6193 137.236 47.6325C137.188 47.6457 137.137 47.6477 137.087 47.6384C137.037 47.6277 136.989 47.6058 136.948 47.5742C136.907 47.5426 136.873 47.5022 136.848 47.4557C136.816 47.4082 136.795 47.3533 136.788 47.2957C136.781 47.2381 136.788 47.1796 136.808 47.1254C136.828 47.0791 136.857 47.0375 136.893 47.0031C136.93 46.9686 136.972 46.9421 137.018 46.925L137.849 46.5356C137.871 46.5281 137.883 46.5159 137.883 46.5004C137.883 46.4849 137.871 46.4728 137.849 46.4648L137.018 46.0754C136.97 46.0567 136.926 46.0269 136.891 45.9881C136.855 45.9493 136.829 45.9026 136.814 45.8516C136.799 45.8007 136.794 45.7472 136.8 45.6945C136.806 45.6417 136.822 45.5907 136.848 45.5448C136.873 45.4983 136.907 45.4579 136.948 45.4262C136.989 45.3946 137.036 45.3726 137.086 45.3616C137.135 45.3523 137.186 45.3532 137.234 45.3644C137.283 45.3755 137.329 45.3967 137.369 45.4266L138.109 45.9928C138.116 45.9999 138.126 46.0048 138.136 46.0069C138.146 46.0091 138.156 46.0084 138.166 46.005C138.197 45.9886 138.175 45.9398 138.172 45.9043L138.075 45.0258C138.07 44.9731 138.075 44.9198 138.091 44.8693C138.106 44.8188 138.132 44.7722 138.166 44.7324C138.2 44.6933 138.243 44.6624 138.29 44.642C138.337 44.6216 138.388 44.6121 138.439 44.6142C138.488 44.6129 138.537 44.6228 138.582 44.6432C138.628 44.6637 138.668 44.6941 138.701 44.7324C138.735 44.7718 138.759 44.8187 138.773 44.8695C138.787 44.9203 138.79 44.9738 138.781 45.0258L138.685 45.9043C138.681 45.9397 138.659 45.9886 138.69 46.005C138.7 46.0084 138.71 46.0091 138.721 46.0069C138.731 46.0048 138.74 45.9999 138.747 45.9928L139.487 45.4387C139.527 45.405 139.574 45.3806 139.624 45.3673C139.674 45.354 139.726 45.3521 139.777 45.3616C139.827 45.371 139.874 45.3924 139.915 45.4243C139.996 45.488 140.05 45.5859 140.067 45.6877C140.068 45.6934 140.069 45.699 140.07 45.7047C140.077 45.7623 140.07 45.8207 140.051 45.875C140.03 45.9215 140.001 45.9631 139.965 45.9976C139.929 46.032 139.886 46.0585 139.84 46.0754L139.01 46.4648C138.987 46.4728 138.976 46.4845 138.976 46.5004C138.976 46.5163 138.987 46.5281 139.01 46.5356L139.84 46.925C139.889 46.9442 139.933 46.9741 139.969 47.0128C140.006 47.0515 140.033 47.0979 140.051 47.1488C140.067 47.1997 140.072 47.2539 140.065 47.3072C140.065 47.3088 140.065 47.3103 140.065 47.3119C140.05 47.414 139.996 47.5123 139.915 47.5759C139.874 47.6077 139.827 47.6291 139.777 47.6384C139.727 47.6485 139.675 47.6479 139.626 47.6368C139.576 47.6258 139.528 47.6043 139.487 47.5739L138.747 47.0076C138.74 47.0005 138.731 46.9956 138.721 46.9935C138.718 46.993 138.716 46.9926 138.713 46.9924C138.698 46.9912 138.682 46.9959 138.677 47.0105C138.67 47.0295 138.68 47.0529 138.682 47.0729L138.781 47.975C138.79 48.0274 138.787 48.0813 138.772 48.1322C138.758 48.1832 138.731 48.2298 138.696 48.2684C138.66 48.3074 138.617 48.3381 138.569 48.3584C138.52 48.3787 138.469 48.3881 138.417 48.3862L-nan -nanZ" fill="white"/>
<path d="M-nan -nanL143.318 48.3862C143.269 48.3881 143.221 48.3785 143.177 48.3581C143.132 48.3376 143.093 48.307 143.062 48.2684C143.029 48.2279 143.005 48.1811 142.991 48.1307C142.976 48.0803 142.971 48.0273 142.977 47.975L143.076 47.0708C143.078 47.0522 143.086 47.0302 143.081 47.0122C143.077 46.9961 143.059 46.9907 143.043 46.9926C143.041 46.9928 143.039 46.9931 143.037 46.9935C143.027 46.9956 143.018 47.0005 143.011 47.0076L142.271 47.5621C142.232 47.5953 142.187 47.6193 142.138 47.6325C142.089 47.6456 142.038 47.6477 141.988 47.6384C141.938 47.6277 141.891 47.6058 141.849 47.5742C141.808 47.5427 141.774 47.5022 141.749 47.4557C141.717 47.4082 141.697 47.3533 141.69 47.2957C141.683 47.2382 141.689 47.1797 141.709 47.1254C141.729 47.079 141.758 47.0374 141.794 47.0029C141.83 46.9685 141.873 46.942 141.919 46.925L142.75 46.5356C142.772 46.5281 142.784 46.5159 142.784 46.5004C142.784 46.4849 142.772 46.4728 142.75 46.4648L141.919 46.0754C141.871 46.0568 141.827 46.027 141.792 45.9882C141.756 45.9494 141.73 45.9026 141.715 45.8516C141.7 45.8008 141.695 45.7473 141.701 45.6945C141.707 45.6417 141.723 45.5907 141.749 45.5448C141.773 45.4983 141.808 45.4578 141.849 45.4262C141.89 45.3946 141.937 45.3726 141.987 45.3616C142.036 45.3523 142.087 45.3533 142.135 45.3644C142.184 45.3756 142.23 45.3967 142.27 45.4266L143.01 45.9928C143.017 46 143.027 46.0048 143.037 46.007C143.039 46.0075 143.041 46.0078 143.044 46.008C143.059 46.0093 143.075 46.0047 143.08 45.99C143.086 45.9711 143.077 45.9476 143.075 45.9278L142.976 45.0259C142.97 44.9731 142.976 44.9197 142.991 44.8692C143.007 44.8187 143.033 44.7721 143.067 44.7325C143.101 44.6933 143.144 44.6624 143.191 44.642C143.238 44.6215 143.289 44.6121 143.34 44.6143C143.389 44.613 143.438 44.6229 143.483 44.6433C143.529 44.6637 143.569 44.6941 143.602 44.7325C143.636 44.7718 143.661 44.8187 143.675 44.8695C143.689 44.9203 143.691 44.9738 143.682 45.0259L143.586 45.904C143.583 45.9397 143.56 45.9888 143.592 46.005C143.602 46.0084 143.612 46.0091 143.622 46.007C143.632 46.0048 143.641 46 143.649 45.9928L144.388 45.4387C144.428 45.405 144.475 45.3806 144.525 45.3673C144.575 45.354 144.628 45.352 144.678 45.3616C144.728 45.3712 144.776 45.3927 144.816 45.4245C144.897 45.4883 144.952 45.5858 144.969 45.6876C144.97 45.6932 144.971 45.699 144.972 45.7047C144.979 45.7623 144.972 45.8208 144.952 45.8751C144.932 45.9214 144.903 45.9631 144.867 45.9975C144.831 46.0319 144.788 46.0584 144.742 46.0754L143.912 46.4648C143.889 46.4728 143.877 46.4845 143.877 46.5004C143.877 46.5164 143.889 46.5281 143.912 46.5356L144.742 46.925C144.791 46.9442 144.835 46.9742 144.871 47.0129C144.907 47.0515 144.935 47.0979 144.952 47.1489C144.969 47.1997 144.974 47.254 144.967 47.3072C144.967 47.3088 144.967 47.3104 144.966 47.312C144.952 47.4141 144.897 47.5123 144.816 47.5759C144.776 47.6077 144.728 47.6291 144.678 47.6384C144.628 47.6485 144.577 47.648 144.527 47.6369C144.477 47.6258 144.43 47.6043 144.388 47.5739L143.649 47.0076C143.641 47.0005 143.632 46.9956 143.622 46.9935C143.619 46.9929 143.616 46.9925 143.613 46.9923C143.599 46.9916 143.584 46.9958 143.579 47.009C143.57 47.0287 143.582 47.0536 143.584 47.075L143.682 47.975C143.691 48.0274 143.688 48.0812 143.674 48.1322C143.659 48.1831 143.633 48.2298 143.598 48.2684C143.562 48.3074 143.518 48.3381 143.47 48.3584C143.422 48.3787 143.37 48.3882 143.318 48.3862L-nan -nanZ" fill="white"/>
<path d="M-nan -nanL148.219 48.3862C148.171 48.3881 148.122 48.3785 148.078 48.3581C148.034 48.3376 147.994 48.307 147.963 48.2684C147.931 48.2279 147.907 48.1811 147.892 48.1307C147.877 48.0803 147.872 48.0274 147.878 47.975L147.977 47.0711C147.979 47.0523 147.988 47.0301 147.983 47.0119C147.978 46.996 147.961 46.9908 147.944 46.9925C147.943 46.9927 147.941 46.993 147.939 46.9934C147.929 46.9956 147.92 47.0005 147.912 47.0076L147.173 47.5621C147.134 47.5953 147.088 47.6193 147.039 47.6324C146.99 47.6456 146.939 47.6476 146.89 47.6384C146.839 47.6277 146.792 47.6059 146.751 47.5743C146.71 47.5427 146.675 47.5023 146.651 47.4557C146.619 47.4082 146.598 47.3533 146.591 47.2957C146.584 47.2382 146.591 47.1797 146.61 47.1254C146.631 47.079 146.66 47.0373 146.696 47.0029C146.732 46.9684 146.775 46.942 146.821 46.925L147.651 46.5356C147.674 46.5281 147.686 46.5159 147.686 46.5004C147.686 46.4849 147.674 46.4728 147.651 46.4648L146.821 46.0754C146.773 46.0568 146.729 46.0269 146.693 45.9881C146.658 45.9493 146.631 45.9026 146.616 45.8516C146.601 45.8007 146.597 45.7473 146.602 45.6945C146.608 45.6417 146.625 45.5908 146.65 45.5448C146.675 45.4982 146.709 45.4578 146.751 45.4262C146.792 45.3945 146.839 45.3725 146.889 45.3616C146.938 45.3523 146.988 45.3533 147.037 45.3645C147.086 45.3756 147.132 45.3967 147.172 45.4266L147.912 45.9928C147.919 46 147.928 46.0049 147.938 46.007C147.941 46.0076 147.943 46.0079 147.946 46.0081C147.961 46.0092 147.976 46.0047 147.982 45.9903C147.988 45.9713 147.979 45.9475 147.977 45.9275L147.877 45.0259C147.872 44.9731 147.877 44.9197 147.893 44.8692C147.909 44.8187 147.935 44.7721 147.969 44.7325C148.003 44.6933 148.045 44.6624 148.092 44.642C148.139 44.6216 148.19 44.6121 148.241 44.6143C148.291 44.613 148.34 44.6229 148.385 44.6433C148.43 44.6637 148.471 44.6941 148.503 44.7325C148.537 44.7718 148.562 44.8187 148.576 44.8695C148.59 44.9203 148.593 44.9738 148.584 45.0259L148.488 45.9043C148.484 45.9398 148.462 45.9886 148.493 46.005C148.503 46.0084 148.513 46.0091 148.523 46.007C148.533 46.0048 148.543 46 148.55 45.9928L149.29 45.4387C149.33 45.405 149.377 45.3807 149.427 45.3674C149.477 45.354 149.529 45.3521 149.58 45.3616C149.63 45.371 149.677 45.3924 149.718 45.4243C149.799 45.4881 149.853 45.5859 149.87 45.6877C149.871 45.6933 149.872 45.699 149.873 45.7047C149.88 45.7623 149.873 45.8208 149.853 45.8751C149.833 45.9215 149.804 45.9631 149.768 45.9976C149.732 46.032 149.689 46.0585 149.643 46.0754L148.813 46.4648C148.79 46.4728 148.779 46.4845 148.779 46.5004C148.779 46.5164 148.79 46.5281 148.813 46.5356L149.643 46.925C149.692 46.9442 149.736 46.9741 149.772 47.0128C149.808 47.0515 149.836 47.0979 149.853 47.1489C149.87 47.1997 149.875 47.254 149.868 47.3072C149.868 47.3088 149.868 47.3103 149.868 47.3119C149.853 47.414 149.799 47.5123 149.717 47.5759C149.677 47.6077 149.63 47.6291 149.58 47.6384C149.53 47.6485 149.478 47.6479 149.429 47.6368C149.379 47.6258 149.332 47.6043 149.29 47.5739L148.547 47.0072C148.539 47.0001 148.53 46.9952 148.52 46.9931C148.518 46.9926 148.515 46.9922 148.513 46.992C148.497 46.9908 148.482 46.9955 148.477 47.0101C148.47 47.0291 148.48 47.0525 148.482 47.0725L148.581 47.9746C148.59 48.027 148.587 48.0809 148.572 48.1319C148.557 48.1828 148.531 48.2295 148.496 48.268C148.46 48.3067 148.417 48.3373 148.37 48.3576C148.322 48.378 148.271 48.3877 148.219 48.3862L-nan -nanZ" fill="white"/>
<path d="M-nan -nanL153.12 48.3862C153.071 48.3881 153.023 48.3784 152.979 48.358C152.934 48.3376 152.895 48.307 152.864 48.2684C152.832 48.2279 152.807 48.181 152.793 48.1307C152.778 48.0803 152.773 48.0273 152.779 47.975L152.878 47.0718C152.88 47.0525 152.889 47.0299 152.883 47.0114C152.878 46.996 152.862 46.9909 152.846 46.9925C152.844 46.9927 152.842 46.9931 152.84 46.9935C152.83 46.9956 152.82 47.0005 152.813 47.0076L152.073 47.5621C152.034 47.5953 151.989 47.6193 151.94 47.6325C151.891 47.6457 151.84 47.6477 151.79 47.6384C151.74 47.6277 151.693 47.6058 151.652 47.5742C151.611 47.5427 151.577 47.5022 151.552 47.4557C151.52 47.4083 151.499 47.3533 151.492 47.2958C151.485 47.2382 151.492 47.1797 151.512 47.1254C151.532 47.0791 151.561 47.0375 151.597 47.0031C151.633 46.9687 151.676 46.9421 151.722 46.925L152.552 46.5356C152.575 46.5281 152.587 46.5159 152.587 46.5004C152.587 46.4849 152.575 46.4728 152.552 46.4648L151.722 46.0754C151.673 46.0568 151.63 46.0269 151.594 45.9881C151.559 45.9493 151.533 45.9026 151.517 45.8516C151.502 45.8007 151.498 45.7473 151.504 45.6945C151.509 45.6417 151.526 45.5907 151.552 45.5448C151.576 45.4983 151.61 45.4579 151.652 45.4263C151.693 45.3947 151.74 45.3726 151.79 45.3616C151.839 45.3523 151.889 45.3532 151.938 45.3644C151.986 45.3756 152.032 45.3967 152.073 45.4266L152.812 45.9928C152.82 46 152.829 46.0048 152.839 46.007C152.849 46.0091 152.86 46.0084 152.869 46.005C152.901 45.9886 152.879 45.9398 152.875 45.9043L152.778 45.0259C152.773 44.9731 152.779 44.9198 152.794 44.8693C152.81 44.8188 152.835 44.7722 152.869 44.7325C152.904 44.6933 152.946 44.6624 152.993 44.642C153.041 44.6215 153.091 44.6121 153.143 44.6143C153.192 44.6129 153.241 44.6228 153.286 44.6433C153.331 44.6637 153.371 44.6941 153.404 44.7325C153.438 44.7718 153.463 44.8187 153.477 44.8695C153.491 44.9203 153.494 44.9738 153.485 45.0259L153.389 45.9043C153.385 45.9398 153.362 45.9886 153.394 46.005C153.404 46.0084 153.414 46.0091 153.424 46.007C153.434 46.0048 153.443 46 153.451 45.9928L154.19 45.4387C154.231 45.405 154.277 45.3807 154.327 45.3673C154.377 45.354 154.43 45.3521 154.481 45.3616C154.531 45.371 154.578 45.3924 154.618 45.4243C154.7 45.4881 154.754 45.5859 154.771 45.6877C154.772 45.6934 154.773 45.699 154.773 45.7047C154.78 45.7623 154.774 45.8208 154.754 45.8751C154.734 45.9215 154.705 45.9631 154.669 45.9976C154.632 46.032 154.59 46.0585 154.544 46.0754L153.713 46.4648C153.691 46.4728 153.679 46.4845 153.679 46.5004C153.679 46.5164 153.691 46.5281 153.713 46.5356L154.544 46.925C154.592 46.9442 154.636 46.9742 154.673 47.0128C154.709 47.0515 154.737 47.0979 154.754 47.1489C154.771 47.1997 154.776 47.254 154.769 47.3072C154.769 47.3088 154.769 47.3103 154.768 47.3119C154.753 47.414 154.699 47.5123 154.618 47.5759C154.578 47.6077 154.531 47.6291 154.481 47.6384C154.43 47.6485 154.379 47.648 154.329 47.6369C154.279 47.6258 154.232 47.6044 154.19 47.5739L153.45 47.0072C153.443 47.0001 153.433 46.9952 153.423 46.9931C153.421 46.9926 153.419 46.9922 153.416 46.992C153.401 46.9908 153.385 46.9955 153.38 47.0101C153.373 47.0291 153.383 47.0525 153.385 47.0725L153.484 47.9746C153.493 48.027 153.49 48.0809 153.475 48.1318C153.46 48.1828 153.434 48.2294 153.399 48.268C153.363 48.307 153.32 48.3377 153.272 48.3581C153.224 48.3784 153.172 48.388 153.12 48.3862L-nan -nanZ" fill="#7A65E1"/>
</svg>
