<svg width="160" height="99" viewBox="0 0 160 99" fill="none" xmlns="http://www.w3.org/2000/svg">
<path d="M47.8751 87.7074H6.38867C4.17953 87.7074 2.38867 89.4983 2.38867 91.7074V94.6137C2.38867 96.8228 4.17953 98.6137 6.38867 98.6137H47.8751C50.0843 98.6137 51.8751 96.8228 51.8751 94.6137V91.7074C51.8751 89.4983 50.0843 87.7074 47.8751 87.7074Z" fill="#596B9B"/>
<path d="M136.628 87.7074H55.5923C53.3832 87.7074 51.5923 89.4983 51.5923 91.7074V94.6138C51.5923 96.8229 53.3832 98.6138 55.5923 98.6138H136.628C138.837 98.6138 140.628 96.8229 140.628 94.6138V91.7074C140.628 89.4983 138.837 87.7074 136.628 87.7074Z" fill="#7A89AF"/>
<g style="mix-blend-mode:multiply">
<path d="M51.8751 87.7074H3.39026C2.8371 87.7074 2.38867 88.1558 2.38867 88.709C2.38867 89.2621 2.8371 89.7106 3.39026 89.7106H139.626C140.18 89.7106 140.628 89.2621 140.628 88.709C140.628 88.1558 140.18 87.7074 139.626 87.7074H51.8751Z" fill="#BDC4D7"/>
</g>
<path d="M52.7042 85.556H1.33545C0.597901 85.556 0 86.1539 0 86.8915C0 87.629 0.597899 88.2269 1.33545 88.2269H52.7042C53.4417 88.2269 54.0396 87.629 54.0396 86.8915C54.0396 86.1539 53.4417 85.556 52.7042 85.556Z" fill="#6F7FA9"/>
<path d="M141.457 85.556H55.0926C54.3551 85.556 53.7572 86.1539 53.7572 86.8915C53.7572 87.629 54.3551 88.2269 55.0926 88.2269H141.457C142.195 88.2269 142.793 87.629 142.793 86.8915C142.793 86.1539 142.195 85.556 141.457 85.556Z" fill="#9CA6C3"/>
<path d="M113.613 51.1345L137.009 19.7167C137.882 18.5449 139.561 18.2867 140.761 19.1387L158.894 32.0131C160.094 32.865 160.358 34.5046 159.486 35.6765L136.09 67.0943C135.217 68.2661 133.538 68.5242 132.338 67.6735L114.207 54.7991C113.007 53.9459 112.742 52.3063 113.613 51.1345Z" fill="#223A7A"/>
<path d="M129.549 65.6956L156.103 30.0356L150.379 25.9713L123.824 61.6312L129.549 65.6956Z" fill="#223A7A"/>
<path d="M133.957 35.5419L143.046 23.3363C143.161 23.1812 143.385 23.146 143.543 23.2599L143.629 23.3205C143.788 23.4332 143.824 23.6514 143.707 23.8065L134.618 36.0121C134.503 36.1672 134.279 36.2024 134.12 36.0884L134.035 36.0279C133.876 35.9151 133.841 35.697 133.957 35.5419Z" fill="#223A7A"/>
<path d="M133.919 32.2494L141.418 22.1803C141.533 22.0252 141.756 21.99 141.915 22.1039L142.001 22.1645C142.16 22.2772 142.196 22.4954 142.079 22.6505L134.581 32.7196C134.465 32.8747 134.242 32.9099 134.083 32.796L133.999 32.7354C133.839 32.6227 133.804 32.4045 133.919 32.2494Z" fill="#223A7A"/>
<path d="M130.7 33.2298L139.789 21.0243C139.905 20.8692 140.128 20.8341 140.287 20.948L140.371 21.0086C140.53 21.1213 140.566 21.3394 140.45 21.4945L131.36 33.7C131.245 33.8551 131.021 33.8903 130.863 33.7764L130.777 33.7158C130.619 33.6031 130.585 33.385 130.7 33.2298Z" fill="#223A7A"/>
<path d="M118.098 50.1518L120.957 46.3139C121.465 45.6317 122.443 45.4802 123.143 45.9771L124.53 46.9611C125.228 47.4579 125.383 48.4128 124.875 49.0963L122.016 52.9342C121.509 53.6164 120.53 53.7679 119.83 53.271L118.443 52.287C117.745 51.7902 117.59 50.8353 118.098 50.1518Z" fill="#223A7A"/>
<path d="M133.052 85.6895H22.1646C19.6403 85.6895 17.5939 83.6912 17.5939 81.2264V4.46315C17.5939 1.9983 19.6403 0 22.1646 0H133.054C135.578 0 137.624 1.9983 137.624 4.46315V81.2276C137.623 83.6924 135.577 85.6895 133.052 85.6895Z" fill="#223A7A"/>
<path d="M129.131 82.3448H22.1646C21.3604 82.3448 20.7076 81.7086 20.7076 80.9222V4.76717C20.7076 3.9819 21.3592 3.34448 22.1646 3.34448H129.131V82.3448Z" fill="#DDE8FE"/>
<path d="M136.53 42.8455C136.53 44.4863 135.167 45.8181 133.485 45.8181C131.805 45.8181 130.442 44.4875 130.442 42.8455C130.442 41.2034 131.805 39.8729 133.485 39.8729C135.167 39.8729 136.53 41.2034 136.53 42.8455Z" fill="#4951EC"/>
<path d="M124.035 13.8197H25.0959V80.9914H124.035V13.8197Z" fill="white"/>
<path d="M84.6321 69.8826L76.0442 65.4436C75.6818 65.869 75.1419 66.1235 74.5649 66.1235C73.9878 66.1235 73.4479 65.8702 73.0855 65.4436L64.4976 69.8826V67.0602C64.4976 66.1828 67.0131 62.9921 71.9748 57.5777L70.879 46.3949L47.6555 53.8767V51.1538C47.6555 50.343 48.0762 49.605 48.7823 49.1797L60.6789 41.9887V39.9613C60.6789 39.1688 61.3391 38.5241 62.1508 38.5241H63.7852C64.3548 38.5241 64.8537 38.8464 65.097 39.3178L69.9209 36.4022C69.7149 32.4225 70.4248 28.4586 71.9773 24.9225C72.9267 22.7594 73.7483 21.7524 74.5649 21.7524C75.3802 21.7524 76.2018 22.7594 77.1524 24.9225C78.705 28.4586 79.4148 32.4237 79.2088 36.4022L84.0327 39.3178C84.2747 38.8452 84.7749 38.5241 85.3445 38.5241H86.9789C87.7906 38.5241 88.4508 39.1688 88.4508 39.9613V41.9887L100.347 49.1797C101.052 49.6063 101.474 50.3443 101.474 51.1538V53.8767L78.2507 46.3949L77.1549 57.5777C84.6321 65.7381 84.6321 66.7318 84.6321 67.0602V69.8826Z" fill="#BED1F9"/>
<path d="M76.0441 65.4448L84.632 69.8837V67.0614C84.632 66.733 84.632 65.7393 77.1548 57.5788L78.2506 46.3961L101.474 53.8779V51.1549C101.474 50.3442 101.053 49.6062 100.347 49.1809L88.4507 41.9899V39.9625C88.4507 39.1699 87.7905 38.5252 86.9788 38.5252H85.3444C84.7748 38.5252 84.2759 38.8476 84.0326 39.319L79.2087 36.4033C79.4147 32.4237 78.7049 28.4598 77.1523 24.9225C76.2029 22.7593 75.3801 21.7523 74.5648 21.7523V66.1246C75.1431 66.1234 75.6817 65.8702 76.0441 65.4448Z" fill="#92B5F9"/>
<path d="M48.7065 55.2484H48.2238V64.9031H48.7065V55.2484Z" fill="#BED1F9"/>
<path d="M57.2821 52.2661H56.7993V58.2319H57.2821V52.2661Z" fill="#BED1F9"/>
<path d="M100.907 55.2484H100.424V64.9031H100.907V55.2484Z" fill="#BED1F9"/>
<path d="M92.3314 52.2661H91.8488V58.2319H92.3314V52.2661Z" fill="#BED1F9"/>
<path d="M134.394 44.0838H132.578C132.38 44.0838 132.218 43.9263 132.218 43.7324V41.9595C132.218 41.7656 132.38 41.608 132.578 41.608H134.394C134.593 41.608 134.754 41.7656 134.754 41.9595V43.7324C134.755 43.9251 134.593 44.0838 134.394 44.0838ZM132.58 41.7026C132.434 41.7026 132.316 41.8177 132.316 41.9595V43.7324C132.316 43.8729 132.434 43.9881 132.58 43.9881H134.395C134.54 43.9881 134.657 43.8729 134.657 43.7324V41.9595C134.657 41.8177 134.539 41.7026 134.395 41.7026H132.58Z" fill="#DAEEF7"/>
<path d="M124.035 15.6628V10.6871C124.035 8.98207 122.62 7.60059 120.874 7.60059H28.2569C26.5107 7.60059 25.0959 8.98207 25.0959 10.6871V15.6628H124.035Z" fill="#7A65E1"/>
<path d="M117.872 13.5894H79.1145C78.0559 13.5894 77.1984 12.752 77.1984 11.7183V11.5438C77.1984 10.5101 78.0559 9.67273 79.1145 9.67273H117.872C118.931 9.67273 119.788 10.5101 119.788 11.5438V11.7183C119.788 12.752 118.931 13.5894 117.872 13.5894Z" fill="white"/>
<path d="M33.2706 11.6311C33.2706 12.5703 32.4913 13.3325 31.5282 13.3325C30.5664 13.3325 29.787 12.5715 29.787 11.6311C29.787 10.6919 30.5664 9.93091 31.5282 9.93091C32.49 9.93091 33.2706 10.6919 33.2706 11.6311Z" fill="white"/>
<path d="M40.8819 11.6311C40.8819 12.5703 40.1025 13.3325 39.1407 13.3325C38.1789 13.3325 37.3995 12.5715 37.3995 11.6311C37.3995 10.6919 38.1789 9.93091 39.1407 9.93091C40.1025 9.93091 40.8819 10.6919 40.8819 11.6311Z" fill="white"/>
<path d="M48.4944 11.6311C48.4944 12.5703 47.715 13.3325 46.7532 13.3325C45.7914 13.3325 45.0121 12.5715 45.0121 11.6311C45.0121 10.6919 45.7914 9.93091 46.7532 9.93091C47.7138 9.93091 48.4944 10.6919 48.4944 11.6311Z" fill="white"/>
<path d="M86.1698 77.6733H63.6698C62.301 77.6733 61.1902 76.5887 61.1902 75.2521V75.0267C61.1902 73.69 62.2997 72.6055 63.6698 72.6055H86.1698C87.5387 72.6055 88.6494 73.6888 88.6494 75.0267V75.2521C88.6494 76.5887 87.5387 77.6733 86.1698 77.6733Z" fill="#7A65E1"/>
<path d="M69.7 75.5359C69.7 75.605 69.6913 75.668 69.6727 75.7249C69.6553 75.7831 69.6292 75.8352 69.5982 75.8813C69.5659 75.9273 69.5275 75.9673 69.4815 76.0025C69.4356 76.0376 69.3847 76.0667 69.3276 76.0897C69.2706 76.1127 69.2097 76.1309 69.1452 76.143C69.0807 76.1551 69.0062 76.1612 68.9218 76.1612H68.3385C68.3125 76.1612 68.2877 76.1527 68.2628 76.1345C68.2393 76.1176 68.2281 76.0861 68.2281 76.0424V74.0987C68.2281 74.0551 68.2393 74.0248 68.2628 74.0066C68.2864 73.9896 68.3112 73.9799 68.3385 73.9799H68.8461C68.9802 73.9799 69.0894 73.992 69.1738 74.0175C69.2594 74.0417 69.3301 74.0781 69.3872 74.1253C69.4443 74.1726 69.4865 74.2308 69.5163 74.2986C69.5448 74.3677 69.5597 74.4441 69.5597 74.5313C69.5597 74.5834 69.5535 74.6331 69.5411 74.6791C69.5287 74.7264 69.5101 74.77 69.4853 74.81C69.4604 74.85 69.4294 74.8852 69.3922 74.9167C69.3549 74.9482 69.3115 74.9736 69.2631 74.9942C69.3239 75.0051 69.381 75.0257 69.4344 75.056C69.4877 75.0863 69.5337 75.1239 69.5734 75.1699C69.6131 75.216 69.6441 75.2705 69.6677 75.3323C69.6875 75.3929 69.7 75.462 69.7 75.5359ZM69.2532 74.5604C69.2532 74.5071 69.2457 74.4598 69.2308 74.4174C69.216 74.375 69.1924 74.3386 69.1601 74.3083C69.1278 74.2792 69.0856 74.2562 69.0348 74.2405C68.9826 74.2247 68.9144 74.2174 68.83 74.2174H68.5235V74.9227H68.861C68.938 74.9227 69 74.913 69.0472 74.8936C69.0943 74.8742 69.1328 74.8476 69.1638 74.8149C69.1949 74.7821 69.2172 74.7434 69.2321 74.6985C69.2457 74.6537 69.2532 74.6076 69.2532 74.5604ZM69.3872 75.5529C69.3872 75.4874 69.376 75.4305 69.3549 75.3808C69.3339 75.3311 69.3028 75.2899 69.2619 75.256C69.2209 75.222 69.17 75.1966 69.108 75.1796C69.0472 75.1627 68.969 75.153 68.8759 75.153H68.521V75.9213H68.9516C69.0199 75.9213 69.0782 75.914 69.1291 75.897C69.18 75.8813 69.2246 75.8583 69.2631 75.8267C69.3016 75.7964 69.3314 75.7577 69.3537 75.7116C69.376 75.6668 69.3872 75.6135 69.3872 75.5529Z" fill="white"/>
<path d="M71.8283 75.3553C71.8283 75.4886 71.8085 75.6061 71.7688 75.7103C71.7291 75.8145 71.672 75.9018 71.5988 75.9745C71.5255 76.046 71.4349 76.1005 71.3295 76.1381C71.224 76.1757 71.1036 76.1938 70.9683 76.1938C70.8455 76.1938 70.7325 76.1769 70.632 76.1417C70.5302 76.1066 70.4434 76.0557 70.3714 75.9878C70.2994 75.92 70.2435 75.8351 70.2038 75.7321C70.1641 75.6303 70.1455 75.5116 70.1455 75.3783V74.0258C70.1455 74.0174 70.148 74.0089 70.153 74.0028C70.1579 73.9956 70.1654 73.9907 70.1765 73.9871C70.1877 73.9834 70.2026 73.9798 70.2212 73.9774C70.2398 73.975 70.2634 73.9737 70.2932 73.9737C70.3205 73.9737 70.3441 73.975 70.3639 73.9774C70.3838 73.9798 70.3987 73.9834 70.4098 73.9871C70.421 73.9907 70.4285 73.9968 70.4334 74.0028C70.4384 74.0089 70.4409 74.0174 70.4409 74.0258V75.3431C70.4409 75.4437 70.4533 75.5322 70.4793 75.6073C70.5042 75.6824 70.5414 75.7455 70.5886 75.7952C70.6357 75.8448 70.694 75.8824 70.7611 75.9079C70.8281 75.9333 70.9038 75.9454 70.9882 75.9454C71.075 75.9454 71.1507 75.9333 71.219 75.9079C71.286 75.8836 71.3431 75.8461 71.3903 75.7964C71.4374 75.7467 71.4722 75.6861 71.497 75.6122C71.5218 75.5395 71.5342 75.4534 71.5342 75.3565V74.0234C71.5342 74.0149 71.5367 74.0065 71.5417 74.0004C71.5466 73.9931 71.5541 73.9883 71.5652 73.9846C71.5764 73.981 71.5926 73.9774 71.6112 73.975C71.6298 73.9725 71.6546 73.9713 71.6831 73.9713C71.7105 73.9713 71.734 73.9725 71.7526 73.975C71.7713 73.9774 71.7862 73.981 71.7973 73.9846C71.8085 73.9883 71.8159 73.9943 71.8221 74.0004C71.8271 74.0065 71.8296 74.0149 71.8296 74.0234V75.3553H71.8283Z" fill="white"/>
<path d="M73.6589 76.0412C73.6589 76.0618 73.6576 76.0788 73.6551 76.0946C73.6527 76.1091 73.6489 76.1224 73.6427 76.1321C73.6365 76.1418 73.6303 76.1491 73.6229 76.1539C73.6154 76.1588 73.6068 76.1612 73.5981 76.1612H72.5271C72.501 76.1612 72.4749 76.1527 72.4526 76.1345C72.429 76.1176 72.4178 76.0861 72.4178 76.0424V74.0987C72.4178 74.0551 72.429 74.0248 72.4526 74.0066C72.4762 73.9896 72.501 73.9799 72.5271 73.9799H73.5869C73.5956 73.9799 73.6043 73.9824 73.6117 73.9872C73.6192 73.992 73.6254 73.9993 73.6303 74.009C73.6353 74.0187 73.639 74.032 73.6415 74.0466C73.644 74.0623 73.6452 74.0805 73.6452 74.1035C73.6452 74.1241 73.644 74.1411 73.6415 74.1569C73.639 74.1714 73.6353 74.1847 73.6303 74.1932C73.6254 74.2029 73.6192 74.2102 73.6117 74.2138C73.6043 74.2187 73.5956 74.2211 73.5869 74.2211H72.7145V74.9045H73.4628C73.4715 74.9045 73.4802 74.907 73.4876 74.9118C73.4951 74.9167 73.5013 74.9239 73.5062 74.9324C73.5112 74.9409 73.5149 74.9542 73.5174 74.97C73.5199 74.9857 73.5211 75.0039 73.5211 75.0257C73.5211 75.0463 73.5199 75.0633 73.5174 75.0778C73.5149 75.0924 73.5112 75.1045 73.5062 75.113C73.5013 75.1215 73.4951 75.1287 73.4876 75.1324C73.4802 75.136 73.4715 75.1384 73.4628 75.1384H72.7145V75.9188H73.5993C73.608 75.9188 73.6167 75.9213 73.6241 75.9249C73.6316 75.9297 73.6378 75.937 73.644 75.9467C73.6502 75.9564 73.6539 75.9685 73.6564 75.9831C73.6576 76 73.6589 76.0182 73.6589 76.0412Z" fill="white"/>
<path d="M76.6287 76.0411C76.6287 76.0629 76.625 76.0823 76.6175 76.0981C76.6101 76.1138 76.6002 76.1271 76.5877 76.1368C76.5753 76.1465 76.5617 76.1538 76.5456 76.1586C76.5307 76.1635 76.5145 76.1647 76.4996 76.1647H76.4016C76.3706 76.1647 76.3433 76.1623 76.3209 76.155C76.2973 76.1489 76.2762 76.138 76.2551 76.1211C76.2341 76.1053 76.213 76.0823 76.1931 76.0544C76.172 76.0266 76.1497 75.9902 76.1273 75.9466L75.446 74.7068C75.41 74.6426 75.374 74.576 75.338 74.5057C75.302 74.4354 75.2685 74.3675 75.2375 74.3009H75.2338C75.2363 74.3821 75.2375 74.4645 75.2387 74.5481C75.24 74.6329 75.24 74.7165 75.24 74.7989V76.115C75.24 76.1235 75.2375 76.1308 75.2325 76.138C75.2276 76.1453 75.2189 76.1514 75.2077 76.155C75.1965 76.1586 75.1817 76.1623 75.1618 76.1647C75.1432 76.1671 75.1196 76.1683 75.0898 76.1683C75.0613 76.1683 75.0365 76.1671 75.0178 76.1647C74.9992 76.1623 74.9843 76.1586 74.9732 76.155C74.962 76.1514 74.9545 76.1453 74.9496 76.138C74.9446 76.1308 74.9421 76.1235 74.9421 76.115V74.1033C74.9421 74.0585 74.9545 74.0258 74.9818 74.0076C75.0079 73.9882 75.0365 73.9785 75.0675 73.9785H75.2139C75.2487 73.9785 75.2772 73.981 75.2995 73.987C75.3231 73.9931 75.343 74.0016 75.3616 74.0149C75.3802 74.0282 75.3976 74.0452 75.415 74.0694C75.4323 74.0925 75.4497 74.1215 75.4696 74.1555L75.9933 75.1128C76.0256 75.171 76.0566 75.2279 76.0864 75.2837C76.1162 75.3394 76.1447 75.394 76.1732 75.4485C76.2005 75.5018 76.2291 75.5551 76.2564 75.6073C76.2837 75.6594 76.311 75.7115 76.3371 75.7648H76.3383C76.3358 75.6763 76.3346 75.583 76.3333 75.4873C76.3333 75.3915 76.3321 75.2994 76.3321 75.2098V74.027C76.3321 74.0197 76.3346 74.0125 76.3395 74.0052C76.3445 73.9991 76.352 73.9931 76.3644 73.987C76.3755 73.9822 76.3904 73.9785 76.4103 73.9761C76.4289 73.9737 76.4537 73.9725 76.4835 73.9725C76.5108 73.9725 76.5331 73.9737 76.553 73.9761C76.5729 73.9785 76.5877 73.9822 76.5989 73.987C76.6101 73.9919 76.6175 73.9979 76.6225 74.0052C76.6275 74.0125 76.6299 74.0197 76.6299 74.027V76.0411H76.6287Z" fill="white"/>
<path d="M79.0921 75.045C79.0921 75.222 79.071 75.3807 79.0288 75.5213C78.9866 75.6631 78.9221 75.783 78.8377 75.8824C78.7533 75.9818 78.6466 76.0581 78.5187 76.1115C78.3909 76.1648 78.242 76.1914 78.072 76.1914C77.9044 76.1914 77.7592 76.1672 77.6364 76.1187C77.5135 76.0702 77.413 75.9987 77.3323 75.9054C77.2529 75.8121 77.1933 75.697 77.1536 75.5588C77.1139 75.4207 77.0953 75.262 77.0953 75.0826C77.0953 74.9105 77.1164 74.7542 77.1586 74.6136C77.2008 74.473 77.2653 74.3543 77.3497 74.2561C77.4341 74.158 77.5408 74.0816 77.6686 74.0283C77.7965 73.975 77.9454 73.9483 78.1154 73.9483C78.2805 73.9483 78.4232 73.9726 78.5448 74.021C78.6664 74.0695 78.7682 74.1398 78.8489 74.2331C78.9295 74.3252 78.9903 74.4403 79.0301 74.5773C79.0722 74.713 79.0921 74.8693 79.0921 75.045ZM78.7781 75.0656C78.7781 74.942 78.767 74.8269 78.7446 74.7215C78.7223 74.6148 78.685 74.5227 78.6329 74.4452C78.5808 74.3676 78.5113 74.3058 78.4232 74.2622C78.3363 74.2186 78.2283 74.1967 78.0993 74.1967C77.9702 74.1967 77.8622 74.221 77.7754 74.267C77.6885 74.3143 77.6165 74.3773 77.5631 74.4561C77.5085 74.5348 77.4701 74.6269 77.4452 74.7312C77.4217 74.8366 77.4105 74.9469 77.4105 75.062C77.4105 75.1904 77.4217 75.308 77.4428 75.4159C77.4651 75.5237 77.5011 75.617 77.5532 75.6946C77.6053 75.7721 77.6736 75.8327 77.7605 75.8763C77.8473 75.92 77.9566 75.9418 78.0869 75.9418C78.2172 75.9418 78.3251 75.9176 78.4145 75.8715C78.5026 75.8242 78.5746 75.76 78.628 75.68C78.6826 75.6 78.721 75.5067 78.7434 75.4013C78.7657 75.2947 78.7781 75.1832 78.7781 75.0656Z" fill="white"/>
<path d="M81.6611 76.0969C81.6561 76.1126 81.6499 76.1247 81.64 76.1344C81.6313 76.1441 81.6176 76.1514 81.6015 76.1562C81.5854 76.1611 81.5655 76.1647 81.5419 76.1671C81.5184 76.1696 81.4898 76.1708 81.4551 76.1708C81.4191 76.1708 81.3893 76.1696 81.3645 76.1671C81.3397 76.1647 81.3198 76.1611 81.3037 76.1562C81.2875 76.1514 81.2751 76.1441 81.2677 76.1344C81.2602 76.1247 81.2528 76.1126 81.2491 76.0969L80.7812 74.4512H80.7775L80.3456 76.0969C80.3419 76.1126 80.3369 76.1247 80.3282 76.1344C80.3208 76.1441 80.3084 76.1514 80.2935 76.1562C80.2786 76.1611 80.2587 76.1647 80.2351 76.1671C80.2116 76.1696 80.1818 76.1708 80.1446 76.1708C80.1061 76.1708 80.0751 76.1696 80.049 76.1671C80.0242 76.1647 80.0031 76.1611 79.9869 76.1562C79.9708 76.1514 79.9584 76.1441 79.9497 76.1344C79.941 76.1247 79.9348 76.1126 79.9311 76.0969L79.3416 74.084C79.3342 74.0586 79.3304 74.038 79.3304 74.0234C79.3292 74.0089 79.3342 73.998 79.3441 73.9895C79.354 73.9822 79.3689 73.9762 79.3913 73.975C79.4136 73.9725 79.4421 73.9713 79.4794 73.9713C79.5154 73.9713 79.5427 73.9725 79.5638 73.9737C79.5849 73.975 79.5998 73.9786 79.6109 73.9834C79.6221 73.9883 79.6295 73.9943 79.6333 74.0016C79.637 74.0089 79.6407 74.0198 79.6419 74.0319L80.1446 75.8581H80.1458L80.6223 74.0355C80.6261 74.0234 80.6298 74.0125 80.6348 74.004C80.6397 73.9956 80.6484 73.9895 80.6596 73.9846C80.6707 73.9798 80.6881 73.9762 80.7092 73.975C80.7303 73.9725 80.7589 73.9713 80.7924 73.9713C80.8246 73.9713 80.8495 73.9725 80.8693 73.975C80.8879 73.9774 80.9041 73.981 80.9152 73.9846C80.9264 73.9895 80.9351 73.9956 80.94 74.004C80.945 74.0125 80.95 74.0234 80.9525 74.0355L81.465 75.8581H81.4687L81.9602 74.0343C81.9639 74.0234 81.9676 74.0137 81.9701 74.0052C81.9738 73.9968 81.9813 73.9907 81.9912 73.9859C82.0024 73.981 82.0173 73.9774 82.0384 73.9762C82.0582 73.9737 82.0855 73.9725 82.119 73.9725C82.1538 73.9725 82.1811 73.9737 82.2009 73.9762C82.2208 73.9786 82.2357 73.9846 82.2444 73.9919C82.253 73.9992 82.258 74.0113 82.2568 74.0258C82.2568 74.0404 82.2531 74.061 82.2468 74.0864L81.6611 76.0969Z" fill="white"/>
<path d="M29.7213 52.7679L29.0648 55.1103C28.9841 55.3975 28.726 55.6024 28.422 55.6157C27.8523 55.6423 26.9786 55.5902 26.6957 55.0619C26.265 54.256 27.624 52.6625 28.067 52.3159C28.5113 51.9693 29.8603 52.271 29.7213 52.7679Z" fill="#7A65E1"/>
</svg>
