<svg width="17" height="19" viewBox="0 0 17 19" fill="none" xmlns="http://www.w3.org/2000/svg">
<path fill-rule="evenodd" clip-rule="evenodd" d="M8.2034 0C4.13561 0 0.0678101 0.5 0.0678101 4V13.5C0.0678101 15.43 1.66442 17 3.62713 17L2.10171 18.5V19H4.3695L6.4034 17H10.2373L12.2712 19H14.3051V18.5L12.7797 17C14.7424 17 16.339 15.43 16.339 13.5V4C16.339 0.5 12.6983 0 8.2034 0ZM3.62713 15C2.78306 15 2.10171 14.33 2.10171 13.5C2.10171 12.67 2.78306 12 3.62713 12C4.4712 12 5.15256 12.67 5.15256 13.5C5.15256 14.33 4.4712 15 3.62713 15ZM2.10171 8H7.18645V4H2.10171V8ZM9.22035 8V4H14.3051V8H9.22035ZM11.2543 13.5C11.2543 14.33 11.9356 15 12.7797 15C13.6237 15 14.3051 14.33 14.3051 13.5C14.3051 12.67 13.6237 12 12.7797 12C11.9356 12 11.2543 12.67 11.2543 13.5Z" fill="#2F0A4D" fill-opacity="0.6"/>
</svg>
