<?xml version="1.0" encoding="UTF-8"?>
<svg width="16px" height="19px" viewBox="0 0 16 19" version="1.1" xmlns="http://www.w3.org/2000/svg" xmlns:xlink="http://www.w3.org/1999/xlink">
    <!-- Generator: sketchtool 53.2 (72643) - https://sketchapp.com -->
    <title>B92A761A-235F-42CF-86EE-F4DB2AF1BED2</title>
    <desc>Created with sketchtool.</desc>
    <g id="Results" stroke="none" stroke-width="1" fill="none" fill-rule="evenodd">
        <g id="T-Results-Flight" transform="translate(-1034.000000, -1037.000000)">
            <g id="Content" transform="translate(350.000000, 254.000000)">
                <g transform="translate(0.000000, 50.000000)" id="Ticket-Round-Trip/Normal-Copy-2">
                    <g transform="translate(0.000000, 708.000000)">
                        <g id="Ticket-Round-Trip/Normal">
                            <g id="Icons" transform="translate(680.000000, 23.000000)">
                                <g id="Flight/To">
                                    <g id="baseline-train-24px">
                                        <polygon id="Shape" points="0 0 24 0 24 24 0 24"></polygon>
                                        <path d="M12,2 C8,2 4,2.5 4,6 L4,15.5 C4,17.43 5.57,19 7.5,19 L6,20.5 L6,21 L8.23,21 L10.23,19 L14,19 L16,21 L18,21 L18,20.5 L16.5,19 C18.43,19 20,17.43 20,15.5 L20,6 C20,2.5 16.42,2 12,2 Z M7.5,17 C6.67,17 6,16.33 6,15.5 C6,14.67 6.67,14 7.5,14 C8.33,14 9,14.67 9,15.5 C9,16.33 8.33,17 7.5,17 Z M11,10 L6,10 L6,6 L11,6 L11,10 Z M13,10 L13,6 L18,6 L18,10 L13,10 Z M16.5,17 C15.67,17 15,16.33 15,15.5 C15,14.67 15.67,14 16.5,14 C17.33,14 18,14.67 18,15.5 C18,16.33 17.33,17 16.5,17 Z" id="Shape" fill="#298AFF" fill-rule="nonzero"></path>
                                    </g>
                                </g>
                            </g>
                        </g>
                    </g>
                </g>
            </g>
        </g>
    </g>
</svg>