<svg width="24" height="24" viewBox="0 0 24 24" fill="none" xmlns="http://www.w3.org/2000/svg">
<path d="M12.2371 4.00782C16.457 4.00782 19.9238 7.1142 20.5096 11.1489H22.9961L18.8121 15.9097L14.628 11.1489H17.4014C17.134 9.98386 16.4777 8.94349 15.5397 8.1977C14.6017 7.45192 13.4375 7.04479 12.2371 7.04279C10.5037 7.04279 8.97358 7.88782 8.00528 9.16131L5.96107 6.84045C6.7435 5.94967 7.70843 5.23599 8.79096 4.7474C9.8735 4.25881 11.0486 4.00663 12.2371 4.00782ZM11.759 20.0039C7.55101 20.0039 4.07228 16.8975 3.48652 12.8628H2.24326H1L5.18404 8.10205C6.5827 9.685 7.96941 11.2798 9.36808 12.8628H6.59466C6.8621 14.0279 7.51839 15.0682 8.45637 15.814C9.39434 16.5598 10.5586 16.9669 11.759 16.9689C13.4923 16.9689 15.0225 16.1239 15.9908 14.8504L18.035 17.1713C17.2533 18.0629 16.2886 18.7772 15.2059 19.2659C14.1232 19.7546 12.9477 20.0062 11.759 20.0039Z" fill="#FF6767"/>
</svg>
