<svg width="68" height="15" viewBox="0 0 68 15" fill="none" xmlns="http://www.w3.org/2000/svg">
<path d="M29.055 3.19225V4.13303C28.1042 3.3262 26.8651 2.91799 25.3731 2.91799C23.8972 2.91799 22.6069 3.46651 21.5343 4.54442C21.3775 4.70068 21.2366 4.86332 21.1021 5.02916C20.3209 6.00501 19.9271 7.15307 19.9271 8.44783C19.9271 9.74897 20.3241 10.897 21.1021 11.8697C21.2366 12.0387 21.3839 12.2046 21.544 12.364C22.1074 12.938 22.735 13.3622 23.4201 13.6364C24.0284 13.8788 24.6784 14.0032 25.3699 14.0032C26.1768 14.0032 26.9067 13.8788 27.5631 13.6364C28.1138 13.4355 28.61 13.1549 29.0486 12.7882V13.6364V13.7289H31.6356V3.19225H29.5193H29.055ZM28.1041 10.6834C27.4702 11.2702 26.6794 11.5667 25.7573 11.5667C24.8449 11.5667 24.0701 11.2702 23.4585 10.6834C22.8342 10.1061 22.5173 9.35991 22.5173 8.46059C22.5173 7.55171 22.8246 6.82141 23.4585 6.22506C24.0733 5.64783 24.8449 5.35444 25.7541 5.35444C26.673 5.35444 27.4606 5.64783 28.1009 6.22506C28.7413 6.81822 29.055 7.54852 29.055 8.46059C29.055 9.37585 28.7445 10.103 28.1041 10.6834ZM18.6721 3.0615C17.1737 3.0615 15.9923 3.60045 15.1566 4.6656V3.19225H12.5697V13.7257H15.1566V9.60228C15.1566 8.63918 15.48 7.72711 16.146 6.81503C16.7831 5.93804 17.6988 5.49157 18.8514 5.49157L19.5397 5.57449V3.08702L19.4565 3.08064C19.2131 3.06788 18.957 3.0615 18.6721 3.0615ZM54.172 2.91799C52.5968 2.91799 51.281 3.45695 50.2628 4.51891C49.2447 5.58086 48.7292 6.90752 48.7292 8.4574C48.7292 10.0902 49.2607 11.436 50.314 12.4597C51.3802 13.4961 52.6897 14 54.3161 14C55.7152 14 57.0695 13.6843 58.331 13.0592L58.4271 13.0114L56.9671 10.9544L56.8967 10.9863C56.0962 11.3722 55.2574 11.5635 54.3385 11.5635C52.7793 11.5635 51.774 10.8938 51.3482 9.57357H59.6053V8.67426C59.6053 6.882 59.0642 5.45968 57.998 4.44556C56.9287 3.43143 55.6416 2.91799 54.172 2.91799ZM51.3706 7.34123C51.6555 6.47061 52.2831 5.82642 53.1539 5.52346C54.076 5.20137 55.1261 5.3385 55.8913 5.88383C56.3876 6.22506 56.7462 6.71298 56.9575 7.34123H51.3706ZM0.0480249 3.0041L0 3.02961V5.70205L4.2582 3.44738V9.64692C4.2582 11.251 4.84091 12.3736 5.34036 12.8487C5.62851 13.1198 5.96789 13.3239 6.35209 13.4515C6.78431 13.6077 7.05966 13.6843 7.23895 13.6938C7.42785 13.7066 7.61674 13.7162 7.83125 13.7162C8.52281 13.7162 9.10872 13.6938 9.57616 13.6428L9.6562 13.6333V11.3818L9.56015 11.3882C9.2752 11.4041 8.96464 11.4105 8.63167 11.4105C7.42785 11.4105 6.84194 10.846 6.84194 9.68838V3.45057L11.1001 5.70524V3.02961L5.55488 0.0669704L0.0480249 3.0041ZM67.9136 3.08383C67.6702 3.06788 67.4141 3.05831 67.1292 3.05831C65.6308 3.05831 64.4494 3.59727 63.6137 4.66241V3.18907H61.0236V13.7225H63.6137V9.60228C63.6137 8.63918 63.9371 7.72711 64.603 6.81503C65.2402 5.93804 66.1558 5.49157 67.3084 5.49157L67.9968 5.57449V3.08702L67.9136 3.08383ZM33.4701 5.61275H39.4028L33.4989 11.1968L33.4701 11.2223V13.7257H42.7613V11.302H36.8031L42.7613 5.63189V3.18907H33.4701V5.61275ZM44.5415 13.7257H47.1284V0H44.5415V13.7257Z" fill="white"/>
</svg>
