<svg width="67" height="66" viewBox="0 0 67 66" fill="none" xmlns="http://www.w3.org/2000/svg">
<g clip-path="url(#clip0_3397_205194)">
<path d="M26.1665 34.833C24.722 34.833 23.2916 35.1175 21.957 35.6703C20.6224 36.2231 19.4098 37.0334 18.3883 38.0548C17.3669 39.0763 16.5566 40.2889 16.0038 41.6235C15.451 42.9581 15.1665 44.3885 15.1665 45.833C15.1665 47.2775 15.451 48.7079 16.0038 50.0425C16.5566 51.3771 17.3669 52.5897 18.3883 53.6112C19.4098 54.6326 20.6224 55.4429 21.957 55.9957C23.2916 56.5485 24.722 56.833 26.1665 56.833C29.0839 56.833 31.8818 55.6741 33.9447 53.6112C36.0076 51.5483 37.1665 48.7504 37.1665 45.833C37.1665 42.9156 36.0076 40.1177 33.9447 38.0548C31.8818 35.9919 29.0839 34.833 26.1665 34.833ZM26.1665 53.1663C24.2216 53.1663 22.3563 52.3937 20.9811 51.0185C19.6058 49.6432 18.8332 47.7779 18.8332 45.833C18.8332 43.8881 19.6058 42.0228 20.9811 40.6476C22.3563 39.2723 24.2216 38.4997 26.1665 38.4997C28.1114 38.4997 29.9767 39.2723 31.352 40.6476C32.7272 42.0228 33.4998 43.8881 33.4998 45.833C33.4998 47.7779 32.7272 49.6432 31.352 51.0185C29.9767 52.3937 28.1114 53.1663 26.1665 53.1663Z" fill="#3B88C3"/>
<path d="M3.76883 25.7087V25.7454C1.93367 26.1487 0.5 29.2214 0.5 32.9999C0.5 36.7784 1.93367 39.851 3.76883 40.2525V40.291L56.3873 54.9063V11.1172L3.76883 25.7087Z" fill="#55ACEE"/>
<path d="M57.3332 55C62.3958 55 66.4998 45.1503 66.4998 33C66.4998 20.8497 62.3958 11 57.3332 11C52.2706 11 48.1665 20.8497 48.1665 33C48.1665 45.1503 52.2706 55 57.3332 55Z" fill="#226699"/>
</g>
<defs>
<clipPath id="clip0_3397_205194">
<rect width="66" height="66" fill="white" transform="translate(0.5)"/>
</clipPath>
</defs>
</svg>
