<svg width="91" height="92" viewBox="0 0 91 92" fill="none" xmlns="http://www.w3.org/2000/svg">
<path d="M45.5 91.3506C70.4144 91.3506 90.6115 90.1714 90.6115 88.7168C90.6115 87.2622 70.4144 86.083 45.5 86.083C20.5856 86.083 0.388428 87.2622 0.388428 88.7168C0.388428 90.1714 20.5856 91.3506 45.5 91.3506Z" fill="#F5F5F5"/>
<path d="M42.249 32.1654C42.1466 32.3492 42.0675 32.4795 41.9767 32.6331C41.8883 32.7796 41.7953 32.9216 41.7045 33.0658C41.5207 33.3497 41.3276 33.6265 41.1298 33.9011C40.732 34.4455 40.3085 34.976 39.8478 35.4832C39.3895 35.9928 38.8986 36.4814 38.3565 36.9397C37.819 37.3981 37.2327 37.8285 36.5719 38.1914C36.437 38.2705 36.1717 38.4102 35.946 38.4916C35.7134 38.58 35.4807 38.6428 35.2527 38.6847C34.7967 38.7685 34.3686 38.7731 33.9661 38.7452C33.161 38.6893 32.4561 38.4799 31.793 38.2426C31.1345 37.9914 30.5203 37.6959 29.9363 37.3585C29.3476 37.0188 28.8079 36.6628 28.2611 36.2277C27.9098 35.9485 27.8516 35.4367 28.1331 35.0854C28.3588 34.8015 28.7357 34.7108 29.0568 34.8318L29.101 34.848C30.2039 35.2668 31.3811 35.667 32.4816 35.8741C33.0307 35.9834 33.5729 36.0277 34.0312 36.0044C34.2592 35.9881 34.464 35.9532 34.6245 35.895C34.7036 35.8671 34.7757 35.8369 34.8339 35.8043C34.899 35.7671 34.9107 35.7531 35.0433 35.6647C35.8832 35.0784 36.6789 34.2571 37.4118 33.3706C37.7771 32.9239 38.1331 32.4609 38.4705 31.9816C38.6403 31.7443 38.8055 31.5 38.9707 31.258L39.2103 30.895L39.4291 30.553L39.4663 30.4949C39.9502 29.7387 40.9577 29.5177 41.7162 30.0016C42.4351 30.4646 42.6654 31.4185 42.249 32.1654Z" fill="#FF8B7B"/>
<path d="M29.4336 35.0179L27.6491 33.8359L26.8929 36.2091C26.8929 36.2091 28.0446 36.8746 29.187 36.0928L29.4336 35.0179Z" fill="#FF8B7B"/>
<path d="M26.0112 34.1949L25.8716 34.9487C25.8204 35.2233 25.9321 35.5025 26.1554 35.6677L26.893 36.2121L27.6491 33.8389L26.9325 33.6272C26.5184 33.5062 26.0903 33.7691 26.0112 34.1949Z" fill="#FF8B7B"/>
<path d="M42.3074 28.3824C40.4903 28.6709 38.6522 30.8044 37.5471 32.7914C38.7616 34.9063 40.695 35.6811 40.695 35.6811C40.695 35.6811 42.8495 33.6429 43.722 32.1376C44.5945 30.6299 44.0152 28.1125 42.3074 28.3824Z" fill="#407BFF"/>
<path opacity="0.2" d="M42.3074 28.3824C40.4903 28.6709 38.6522 30.8044 37.5471 32.7914C38.7616 34.9063 40.695 35.6811 40.695 35.6811C40.695 35.6811 42.8495 33.6429 43.722 32.1376C44.5945 30.6299 44.0152 28.1125 42.3074 28.3824Z" fill="black"/>
<path d="M37.6165 32.3359C37.6165 32.3359 37.2744 32.7385 37.2279 32.9851C37.6816 33.6831 38.7588 35.5514 40.7691 35.9423C41.1111 35.7352 41.1879 35.4467 41.1879 35.4467C41.1879 35.4467 38.8775 34.3043 37.6165 32.3359Z" fill="#263238"/>
<path d="M49.6291 28.3198C47.4886 27.9731 45.027 27.8684 42.9819 28.129C41.3299 28.3407 40.0945 29.86 40.1084 31.5236C40.1201 32.9801 40.2201 34.7786 40.5668 36.6981C39.9595 39.8996 39.7408 44.2457 40.3807 45.2043L51.8278 45.3672C52.3164 43.9968 51.7022 38.0778 52.356 31.8959C52.5374 30.1671 51.3439 28.599 49.6291 28.3198Z" fill="#407BFF"/>
<path opacity="0.2" d="M45.3084 45.2209C44.6546 40.072 45.3014 31.4611 45.3084 31.375L45.5411 31.3936C45.5341 31.4797 44.8896 40.0674 45.5411 45.193L45.3084 45.2209Z" fill="black"/>
<path d="M44.0708 28.2891C44.464 28.1425 44.3174 27.9238 44.3174 27.9238C44.3174 27.9238 42.5305 27.9238 41.2951 28.2565C41.1066 28.4566 41.309 28.7126 41.309 28.7126C41.309 28.7126 42.9005 28.7265 44.0708 28.2891Z" fill="#263238"/>
<path opacity="0.2" d="M44.8012 27.9314C44.8012 27.9314 44.0636 29.2949 45.0501 30.535C44.2684 30.5396 43.7635 31.8681 43.7635 31.8681C43.7635 31.8681 42.2372 29.7462 44.1893 28.0501C44.3009 27.8826 44.8012 27.9314 44.8012 27.9314Z" fill="black"/>
<path d="M44.0149 28.5918C43.8241 29.4247 45.4993 30.9952 45.4993 30.9952C45.4993 30.9952 48.4658 29.562 48.6543 28.7407L44.0149 28.5918Z" fill="white"/>
<path opacity="0.2" d="M50.7087 33.4668C50.3923 34.0764 50.8134 36.7311 52.0349 37.8432C52.0489 36.7497 52.0815 35.5887 52.1513 34.3951L50.7087 33.4668Z" fill="black"/>
<path d="M48.0377 23.8018L44.9758 25.812C45.3388 26.7031 45.5086 27.6291 44.4616 28.0549C43.8544 28.3015 43.8451 29.1647 44.4546 29.402C44.7013 29.4974 45.0154 29.5695 45.4132 29.6044C46.4672 29.7022 47.57 29.5044 48.2936 29.1461C48.7008 28.9437 48.8171 28.4341 48.5565 28.0619C47.7632 26.9172 47.8609 24.9441 48.0377 23.8018Z" fill="#FF8B7B"/>
<path opacity="0.2" d="M46.7883 24.6201L44.9759 25.809C45.0806 26.0626 45.1666 26.3162 45.2132 26.5629C45.9368 26.521 46.8791 25.9486 46.9 25.3507C46.9093 25.0529 46.8651 24.7644 46.7883 24.6201Z" fill="black"/>
<path d="M44.6358 19.9676C45.4176 19.9513 45.6293 21.0704 45.3431 21.4497C45.9341 21.5776 46.2179 22.2687 46.0481 22.62C45.8782 22.9713 45.1872 23.3529 44.5753 23.1993C43.5306 22.9364 43.3515 22.0709 43.6353 21.6754C43.07 21.2077 43.3538 19.7954 44.6358 19.9676Z" fill="#263238"/>
<path opacity="0.2" d="M44.6358 19.9676C45.4176 19.9513 45.6293 21.0704 45.3431 21.4497C45.9341 21.5776 46.2179 22.2687 46.0481 22.62C45.8782 22.9713 45.1872 23.3529 44.5753 23.1993C43.5306 22.9364 43.3515 22.0709 43.6353 21.6754C43.07 21.2077 43.3538 19.7954 44.6358 19.9676Z" fill="white"/>
<path d="M49.0312 21.8125C48.7962 23.6483 48.7543 24.7371 47.7585 25.6143C46.2624 26.9335 44.0382 25.9191 43.7194 24.0461C43.4309 22.3593 43.8613 19.6394 45.718 19.0391C47.5444 18.4482 49.2638 19.9768 49.0312 21.8125Z" fill="#FF8B7B"/>
<path d="M48.8196 23.218C48.0379 23.2064 47.8657 22.0803 48.1659 21.7127C47.5795 21.5638 47.319 20.8634 47.5004 20.5191C47.6819 20.1747 48.3869 19.8164 48.9918 19.9909C50.0249 20.2888 50.1761 21.1636 49.876 21.5475C50.4274 22.0337 50.0947 23.4367 48.8196 23.218Z" fill="#263238"/>
<path opacity="0.2" d="M48.8196 23.218C48.0379 23.2064 47.8657 22.0803 48.1659 21.7127C47.5795 21.5638 47.319 20.8634 47.5004 20.5191C47.6819 20.1747 48.3869 19.8164 48.9918 19.9909C50.0249 20.2888 50.1761 21.1636 49.876 21.5475C50.4274 22.0337 50.0947 23.4367 48.8196 23.218Z" fill="white"/>
<path opacity="0.2" d="M46.9442 22.1052C46.9442 22.1052 47.2722 22.0122 47.5049 22.1774C47.1955 22.2006 46.9442 22.1052 46.9442 22.1052Z" fill="black"/>
<path opacity="0.2" d="M46.9371 22.2398C46.9371 22.2398 47.2489 22.2189 47.4141 22.4306C47.1326 22.3864 46.9371 22.2398 46.9371 22.2398Z" fill="black"/>
<path opacity="0.2" d="M44.0289 21.9724C44.0289 21.9724 43.88 21.8793 43.773 22.0445C43.9172 22.0678 44.0289 21.9724 44.0289 21.9724Z" fill="black"/>
<path opacity="0.2" d="M44.0335 22.108C44.0335 22.108 43.8915 22.0871 43.8171 22.2988C43.9427 22.2546 44.0335 22.108 44.0335 22.108Z" fill="black"/>
<path d="M49.5942 23.6824C49.3499 24.1128 48.9637 24.3897 48.6101 24.4921C48.0796 24.6457 47.8702 24.1175 48.061 23.5661C48.2331 23.0705 48.7171 22.3911 49.2266 22.4819C49.7292 22.5703 49.8734 23.1915 49.5942 23.6824Z" fill="#FF8B7B"/>
<path d="M46.5741 22.1195C46.5648 22.2707 46.4764 22.3847 46.3787 22.3778C46.281 22.3708 46.2088 22.2428 46.2182 22.0916C46.2275 21.9403 46.3159 21.8263 46.4136 21.8333C46.5113 21.8426 46.5834 21.9683 46.5741 22.1195Z" fill="#263238"/>
<path d="M45.8296 24.8484C45.6365 24.8857 45.4643 24.8112 45.441 24.6856C45.4177 24.5599 45.555 24.4273 45.7481 24.3924C45.9412 24.3552 46.1134 24.4296 46.1367 24.5553C46.1576 24.6809 46.0204 24.8135 45.8296 24.8484Z" fill="#263238"/>
<path d="M44.536 21.9545C44.5267 22.1057 44.4383 22.2197 44.3406 22.2127C44.2429 22.2057 44.1707 22.0778 44.18 21.9265C44.1893 21.7753 44.2778 21.6613 44.3755 21.6683C44.4755 21.6776 44.5453 21.8032 44.536 21.9545Z" fill="#263238"/>
<path d="M45.0011 23.4524C43.9123 23.5269 43.7029 24.0573 43.8937 24.29C44.0844 24.5227 44.5498 24.2946 44.5498 24.2946C44.5498 24.2946 45.4293 24.4831 45.6898 24.2016C46.1063 24.3784 46.7392 24.048 46.5623 23.7967C46.3832 23.5455 45.9318 23.3896 45.0011 23.4524Z" fill="#263238"/>
<path opacity="0.2" d="M45.0011 23.4524C43.9123 23.5269 43.7029 24.0573 43.8937 24.29C44.0844 24.5227 44.5498 24.2946 44.5498 24.2946C44.5498 24.2946 45.4293 24.4831 45.6898 24.2016C46.1063 24.3784 46.7392 24.048 46.5623 23.7967C46.3832 23.5455 45.9318 23.3896 45.0011 23.4524Z" fill="white"/>
<path d="M45.034 22.1074C45.034 22.1074 44.6361 22.9497 44.2313 23.3382C44.4802 23.6058 44.9409 23.5267 44.9409 23.5267L45.034 22.1074Z" fill="#FF5652"/>
<path d="M46.9021 21.333C46.9161 21.333 46.9324 21.3284 46.944 21.3191C46.9859 21.2935 46.9952 21.2376 46.9696 21.1958C46.6997 20.784 46.2925 20.7793 46.2739 20.7793C46.2251 20.7793 46.1855 20.8189 46.1855 20.8677C46.1855 20.9166 46.2251 20.9561 46.2739 20.9561C46.2879 20.9561 46.6066 20.9654 46.8207 21.2935C46.8393 21.3214 46.8696 21.3354 46.9021 21.333Z" fill="#263238"/>
<path d="M43.8682 21.158C43.8961 21.158 43.924 21.144 43.9426 21.1184C44.159 20.795 44.4778 20.795 44.4917 20.795C44.5406 20.795 44.5801 20.7554 44.5801 20.7089C44.5801 20.66 44.5406 20.6205 44.494 20.6182C44.4754 20.6182 44.0683 20.6135 43.796 21.0183C43.7681 21.0579 43.7798 21.1137 43.8193 21.1417C43.8356 21.1533 43.8519 21.158 43.8682 21.158Z" fill="#263238"/>
<path d="M46.8724 64.1809C47.3936 55.7863 47.2772 47.1731 46.3722 45.2978L40.381 45.207C40.381 45.207 41.1232 59.2438 41.3582 64.8347C41.6025 70.649 42.1214 85.7653 42.1214 85.7653L45.5881 85.8072C45.5904 85.8072 47.6285 70.6746 46.8724 64.1809Z" fill="#263238"/>
<path opacity="0.2" d="M47.1305 51.3496C45.0854 53.5832 46.0416 59.7675 46.9328 63.1737C47.1701 58.9136 47.2422 54.6721 47.1305 51.3496Z" fill="black"/>
<path d="M45.5438 86.2535L42.4936 86.214C42.3075 86.2116 42.1074 86.2535 41.9538 86.3745C41.072 87.0702 40.3973 87.0934 39.3945 87.2726C38.1916 87.489 38.7872 88.6965 39.6737 88.7105C41.1395 88.7337 41.0185 88.6802 42.2679 88.6988C42.5494 88.7035 43.1358 88.7105 43.1358 88.7105L43.5266 88.3126L43.871 88.7105C43.871 88.7105 44.8319 88.7105 45.4717 88.7105C45.6485 88.7105 45.7881 88.5639 45.7695 88.3894L45.5438 86.2535Z" fill="#263238"/>
<path d="M45.7905 86.5539C45.737 86.5446 41.791 86.4283 41.791 86.4283L41.6304 85.0137L46.0069 85.1114L45.7905 86.5539Z" fill="#407BFF"/>
<path d="M53.9078 64.1808C53.2656 55.7863 52.9934 47.2428 51.8278 45.3675L44.6012 45.2744C44.6012 45.2744 47.4746 59.2413 48.4844 64.8323C49.5337 70.6466 52.3582 85.7629 52.3582 85.7629L55.8296 85.8048C55.8319 85.8071 55.562 70.6745 53.9078 64.1808Z" fill="#263238"/>
<path d="M56.0044 86.2535L52.9541 86.214C52.768 86.2116 52.5679 86.2535 52.4143 86.3745C51.5325 87.0702 51.935 87.0934 50.9322 87.2726C49.7294 87.489 50.325 88.6965 51.2114 88.7105C52.6772 88.7337 52.5562 88.6802 53.8057 88.6988C54.0872 88.7035 55.1621 88.7105 55.1621 88.7105L55.3436 88.3126L55.5832 88.7105H55.9415C56.116 88.7105 56.251 88.5592 56.2324 88.3871L56.0044 86.2535Z" fill="#263238"/>
<path d="M56.2324 86.5539C56.1766 86.5446 52.2143 86.4283 52.2143 86.4283L51.8397 85.0137L56.2301 85.1114L56.2324 86.5539Z" fill="#407BFF"/>
<path d="M44.9245 27.7682C44.9245 27.7682 44.066 29.2968 45.0525 30.5369C44.2707 30.5416 43.7589 31.3838 43.7589 31.3838C43.7589 31.3838 42.7189 29.2945 44.2545 27.9031C44.3638 27.7356 44.9245 27.7682 44.9245 27.7682Z" fill="#407BFF"/>
<path d="M52.1414 46.0067C48.0534 46.1766 43.3629 46.2278 40.4313 46.0067C40.3987 46.0044 40.3685 45.9881 40.3499 45.9625C40.1661 45.702 40.0753 45.2552 40.0963 44.883C40.0986 44.8248 40.1498 44.7829 40.208 44.7852C44.0772 44.8899 47.9232 44.883 51.9669 44.7852C52.0134 44.7852 52.0553 44.8108 52.0716 44.8527C52.2019 45.1808 52.2694 45.5344 52.2461 45.909C52.2414 45.9602 52.1949 46.0044 52.1414 46.0067Z" fill="#263238"/>
<path opacity="0.2" d="M52.1414 46.0067C48.0534 46.1766 43.3629 46.2278 40.4313 46.0067C40.3987 46.0044 40.3685 45.9881 40.3499 45.9625C40.1661 45.702 40.0753 45.2552 40.0963 44.883C40.0986 44.8248 40.1498 44.7829 40.208 44.7852C44.0772 44.8899 47.9232 44.883 51.9669 44.7852C52.0134 44.7852 52.0553 44.8108 52.0716 44.8527C52.2019 45.1808 52.2694 45.5344 52.2461 45.909C52.2414 45.9602 52.1949 46.0044 52.1414 46.0067Z" fill="black"/>
<path d="M44.1521 44.7183C44.1521 44.7183 44.0637 45.656 44.2754 46.2516C45.1619 46.3889 46.9836 46.2865 46.9836 46.2865C46.9836 46.2865 47.0325 45.421 46.9255 44.7416C45.5318 44.6741 44.1521 44.7183 44.1521 44.7183Z" fill="white"/>
<path d="M52.3284 30.6611L52.461 30.7774L52.5657 30.8751L52.7635 31.0659C52.8914 31.1915 53.0101 31.3195 53.1264 31.4475C53.3591 31.7011 53.5801 31.9617 53.7895 32.2269C54.2083 32.7574 54.5969 33.3041 54.9435 33.8719C55.2925 34.4372 55.6206 35.0142 55.9068 35.6099C56.2046 36.1985 56.4652 36.8034 56.6978 37.4177C56.7583 37.5805 56.8072 37.6806 56.8979 37.9644C56.9724 38.2064 57.0189 38.4414 57.0445 38.6648C57.0957 39.1161 57.0747 39.5256 57.0282 39.9095C56.9351 40.6796 56.7141 41.3451 56.4721 41.9826C56.2185 42.6154 55.9277 43.2087 55.5996 43.7741C55.2693 44.3441 54.9272 44.8746 54.5131 45.4097C54.2386 45.7657 53.7267 45.8285 53.3707 45.554C53.0869 45.3353 52.9891 44.9654 53.1008 44.6443L53.1148 44.6047C53.4987 43.5042 53.8826 42.3479 54.1013 41.2567C54.2153 40.7146 54.2828 40.1724 54.2781 39.7094C54.2758 39.4791 54.2479 39.2697 54.2037 39.1115C54.1525 38.9277 54.1432 38.9393 53.978 38.6066C53.4568 37.5736 52.8844 36.5731 52.2376 35.6378C51.9189 35.1678 51.5769 34.7164 51.2279 34.2813C51.0557 34.0626 50.8719 33.8556 50.6951 33.6508L50.4252 33.3577L50.2949 33.2204L50.2344 33.1576C50.2181 33.1413 50.1878 33.1134 50.1971 33.118C49.5178 32.527 49.448 31.4987 50.0366 30.8193C50.6206 30.1422 51.649 30.0701 52.3284 30.6611Z" fill="#FF8B7B"/>
<path d="M50.3204 28.644C52.1329 28.9581 53.9407 31.1173 55.0156 33.1229C53.7708 35.2215 51.8257 35.966 51.8257 35.966C51.8257 35.966 49.7015 33.8953 48.8499 32.3783C48.0007 30.859 48.6149 28.3486 50.3204 28.644Z" fill="#407BFF"/>
<path d="M54.9526 32.6641C54.9526 32.6641 55.29 33.0712 55.3319 33.3179C54.8689 34.0089 53.766 35.8609 51.7488 36.2215C51.4115 36.0098 51.337 35.719 51.337 35.719C51.337 35.719 53.6637 34.6138 54.9526 32.6641Z" fill="#263238"/>
<path d="M49.008 28.483C48.6334 28.3225 48.7824 28.1084 48.7824 28.1084C48.7824 28.1084 50.5064 28.1689 51.686 28.5435C51.8605 28.7506 51.6558 28.9995 51.6558 28.9995C51.6558 28.9995 50.1225 28.9576 49.008 28.483Z" fill="#263238"/>
<path opacity="0.2" d="M48.5568 28.0623C48.5568 28.0623 48.1659 29.4257 46.379 30.5378C47.1608 30.5425 47.6843 31.9641 47.6843 31.9641C47.6843 31.9641 49.3036 30.0516 48.936 28.1646C48.829 27.9971 48.5568 28.0623 48.5568 28.0623Z" fill="black"/>
<path d="M48.5056 27.8154C48.5056 27.8154 48.0402 29.2905 46.379 30.5376C47.1608 30.5423 47.7029 31.3822 47.7029 31.3822C47.7029 31.3822 49.3036 30.0513 48.936 28.1644C48.829 27.9969 48.5056 27.8154 48.5056 27.8154Z" fill="#407BFF"/>
<path d="M50.1808 33.4161C50.0737 35.4263 48.8011 35.9056 48.6219 35.9056C48.4428 35.9056 47.2236 35.4263 47.3306 33.4161L48.7848 32.8438L50.1808 33.4161Z" fill="white"/>
<path d="M53.3148 44.4746L51.8816 45.7077L53.7825 46.9432C53.7825 46.9432 54.9435 45.6705 54.3665 44.9423L53.3148 44.4746Z" fill="#FF8B7B"/>
<path d="M51.7186 47.6638L52.4585 47.9848C52.7516 48.1128 53.096 48.0081 53.2705 47.7382L53.7824 46.9425L51.8815 45.707L51.3836 46.7889C51.2323 47.124 51.3812 47.5172 51.7186 47.6638Z" fill="#FF8B7B"/>
<path d="M43.617 19.588C42.3397 19.7601 42.7701 20.1673 45.6179 20.5302C48.4657 20.8932 49.1777 20.607 49.1777 20.607C49.1777 20.607 45.9087 19.5786 43.617 19.588Z" fill="#263238"/>
<path d="M50.0595 21.1584C50.0595 21.1584 47.5584 20.1416 43.617 19.5856C43.5682 19.0062 44.0451 18.392 44.0451 18.392C44.0451 18.392 43.1656 17.9499 43.4402 17.11C43.7124 16.2701 44.9688 16.3818 46.4369 15.707C46.9744 16.298 48.4518 17.2589 49.4592 17.3822C49.7082 17.8964 50.3597 19.1807 51.416 19.6786C51.402 20.2394 50.3504 20.3836 50.3504 20.3836C50.3504 20.3836 50.4015 20.7629 50.0595 21.1584Z" fill="#407BFF"/>
<path opacity="0.3" d="M50.3527 20.386C49.4384 19.5554 46.1903 18.0408 44.0475 18.3944C44.0475 18.3944 43.5705 19.0086 43.6194 19.588C47.5607 20.1417 50.0619 21.1608 50.0619 21.1608C50.4016 20.7629 50.3527 20.386 50.3527 20.386Z" fill="black"/>
<path d="M46.8137 17.4242C46.5322 18.8574 45.555 19.1157 45.4224 19.1017C45.2898 19.0901 44.4475 18.6643 44.7267 17.2288L45.8505 16.917L46.8137 17.4242Z" fill="white"/>
<path d="M28.2731 40.9092C27.9823 40.9092 27.7333 40.6928 27.6961 40.3974L26.0349 26.8562C25.9953 26.5375 26.2233 26.2466 26.5421 26.2071C26.8608 26.1652 27.1517 26.3955 27.1912 26.7143L28.8524 40.2554C28.892 40.5742 28.664 40.865 28.3452 40.9046C28.322 40.9092 28.2987 40.9092 28.2731 40.9092Z" fill="#263238"/>
<path d="M27.9032 34.8206C27.7636 34.2995 28.0288 34.2204 27.7706 33.4828C27.6333 33.0896 28.0847 32.7871 28.1405 33.1012C28.3476 34.2529 29.8785 34.8974 29.348 35.6233C28.8083 36.3609 28.0451 35.3418 27.9032 34.8206Z" fill="#FF8B7B"/>
<path d="M38.2744 15.3198C38.7306 8.04727 33.2049 1.78192 25.9323 1.32574C18.6598 0.869569 12.3945 6.39532 11.9383 13.6679C11.4821 20.9404 17.0079 27.2057 24.2804 27.6619C31.5529 28.1181 37.8183 22.5923 38.2744 15.3198Z" fill="#407BFF"/>
<path d="M35.1511 18.0484C37.1168 12.5011 34.2132 6.41054 28.6658 4.44488C23.1184 2.47923 17.0279 5.38279 15.0622 10.9302C13.0966 16.4776 16.0002 22.5681 21.5475 24.5337C27.0949 26.4994 33.1855 23.5958 35.1511 18.0484Z" fill="white"/>
<path d="M32.0261 12.6892C31.1512 11.5096 29.4737 12.6892 28.9619 13.934C28.8269 14.2644 28.6943 14.6878 28.692 14.8996L28.1382 11.1024L27.6962 7.50776C27.6077 6.79115 26.9121 6.31419 26.2117 6.49334C25.6278 6.64225 25.2462 7.20064 25.3183 7.7986L25.209 6.90283C25.1205 6.18622 24.4249 5.70926 23.7246 5.88841C23.1406 6.03732 22.759 6.59571 22.8311 7.19366L22.9847 8.44308C22.8963 7.72647 22.2006 7.2495 21.5003 7.42866C20.9163 7.57756 20.5347 8.13596 20.6068 8.73391L20.7976 10.2904C20.7092 9.57384 20.0135 9.09687 19.3132 9.27602C18.7292 9.42493 18.3476 9.98333 18.4198 10.5813L18.8013 13.692L19.0759 15.9233L19.4342 18.8525C19.6901 20.9349 20.5068 22.1262 21.719 22.659C23.5826 23.4779 26.9888 23.4872 28.5198 22.2448C29.8599 21.1583 30.7208 18.5384 30.9279 16.9191C31.1419 15.309 32.3797 13.1662 32.0261 12.6892Z" fill="#263238"/>
<path d="M34.0355 5.30328L31.8632 3.60547L16.1702 23.6842L18.3425 25.382L34.0355 5.30328Z" fill="#407BFF"/>
</svg>
