<?xml version="1.0" encoding="UTF-8"?>
<svg width="20px" height="14px" viewBox="0 0 20 14" version="1.1" xmlns="http://www.w3.org/2000/svg" xmlns:xlink="http://www.w3.org/1999/xlink">
    <!-- Generator: sketchtool 53.2 (72643) - https://sketchapp.com -->
    <title>261460A8-59AD-4A6C-8AD6-9DA401FB395F</title>
    <desc>Created with sketchtool.</desc>
    <g id="Results" stroke="none" stroke-width="1" fill="none" fill-rule="evenodd">
        <g id="T-Results-Hotel-Room" transform="translate(-652.000000, -1313.000000)">
            <g id="Rooms" transform="translate(350.000000, 1114.000000)">
                <g id="Room/Foto-Alt" transform="translate(0.000000, 44.000000)">
                    <g id="Room/Selected">
                        <g id="Icons" transform="translate(300.000000, 150.000000)">
                            <g id="Icons/Hotel/Face">
                                <g id="Icons/Passagers">
                                    <polygon id="Path" points="0 0 24 0 24 24 0 24"></polygon>
                                    <path d="M16.5,12 C17.88,12 18.99,10.88 18.99,9.5 C18.99,8.12 17.88,7 16.5,7 C15.12,7 14,8.12 14,9.5 C14,10.88 15.12,12 16.5,12 Z M9,11 C10.66,11 11.99,9.66 11.99,8 C11.99,6.34 10.66,5 9,5 C7.34,5 6,6.34 6,8 C6,9.66 7.34,11 9,11 Z M16.5,14 C14.67,14 11,14.92 11,16.75 L11,19 L22,19 L22,16.75 C22,14.92 18.33,14 16.5,14 Z M9,13 C6.67,13 2,14.17 2,16.5 L2,19 L9,19 L9,16.75 C9,15.9 9.33,14.41 11.37,13.28 C10.5,13.1 9.66,13 9,13 Z" id="Shape" fill="#000000" fill-rule="nonzero"></path>
                                </g>
                            </g>
                        </g>
                    </g>
                </g>
            </g>
        </g>
    </g>
</svg>