<svg width="20" height="18" viewBox="0 0 20 18" fill="none" xmlns="http://www.w3.org/2000/svg">
    <path d="M19.3926 12.4219L11.6667 5.47003V2.38705C11.6667 1.90035 11.5467 1.40989 11.31 0.952408L11.1342 0.652445C10.9267 0.249729 10.4925 0 10 0C9.50754 0 9.07336 0.249729 8.87503 0.635185L8.68085 0.968895C8.45335 1.40986 8.33335 1.89958 8.33335 2.38701V5.46999L0.610002 12.4205C0.216681 12.7744 0 13.2446 0 13.7456V14.6245C0 14.7618 0.0833206 14.8878 0.216681 14.953C0.350001 15.019 0.513361 15.0145 0.641682 14.9395L8.49503 10.4106C8.57253 11.5453 8.67753 12.4925 8.80585 13.6451L8.93836 14.8263L6.02084 16.5609C5.90334 16.6314 5.83334 16.7484 5.83334 16.8744V17.6243C5.83334 17.7375 5.89084 17.8455 5.98916 17.9168C6.08834 17.9888 6.21749 18.0157 6.33999 17.991L10 17.2583L13.66 17.991C13.69 17.997 13.72 18 13.75 18C13.8442 18 13.9358 17.9715 14.0108 17.9175C14.1092 17.8455 14.1667 17.7375 14.1667 17.6243V16.8744C14.1667 16.7484 14.0967 16.6306 13.9792 16.5616L11.0616 14.8293L11.1941 13.6444C11.3225 12.4932 11.4275 11.5468 11.505 10.4121L19.3583 14.9395C19.4875 15.0145 19.65 15.0182 19.7825 14.953C19.9167 14.8877 20 14.7617 20 14.6245V13.7456C20.0001 13.2446 19.7843 12.7744 19.3926 12.4219Z" fill="white"/>
</svg>

