<svg width="200" height="175" viewBox="0 0 200 175" fill="none" xmlns="http://www.w3.org/2000/svg">
<g clip-path="url(#clip0_893_146241)">
<path d="M153.709 118.798L123.905 125.569L94.254 132.312L92.6817 133.692L45.4714 175L9.23935 82.5193L62.043 38.1737L63.657 37.7975L94.6575 30.5808L130.263 22.2912L153.709 118.798Z" fill="url(#paint0_linear_893_146241)"/>
<path d="M17.5451 84.637L65.2423 44.5824L125.128 30.6365L145.276 113.574L91.0111 125.917L48.3368 163.241L17.5451 84.637Z" fill="white"/>
<path d="M4.95349 125.109L4.28561 123.883L48.5739 99.8507L61.2217 28.1287L86.267 27.2092L86.4896 27.446L118.854 62.8612L159.149 73.6585L158.801 75.0099L118.102 64.1012L117.963 63.9618L85.6687 28.6303L62.4044 29.4801L49.8262 100.756L4.95349 125.109Z" fill="#EAEAEA"/>
<path d="M156.532 133.914L87.6163 106.343L17.7819 132.73L17.2949 131.435L87.6302 104.852L87.8807 104.95L157.047 132.619L156.532 133.914Z" fill="#EAEAEA"/>
<path d="M156.421 126.99L102.282 93.8878L112.648 78.1864L161.194 88.2454L160.902 89.5968L113.288 79.7329L104.244 93.442L157.145 125.792L156.421 126.99Z" fill="#D3D1D3"/>
<path d="M9.00175 103.334L8.51476 102.024L30.4711 93.8042C34.687 92.2299 37.7481 88.524 38.5134 84.0936L46.2078 39.4833L47.5853 39.7201L38.5134 92.2856L9.00175 103.334Z" fill="#D3D1D3"/>
<path d="M56.9146 117.449L55.5235 117.476L56.4318 164.821L57.8229 164.794L56.9146 117.449Z" fill="#EAEAEA"/>
<path d="M73.4515 111.154L72.0654 111.276L76.0347 156.577L77.4208 156.455L73.4515 111.154Z" fill="#EAEAEA"/>
<path d="M86.949 105.772L81.0216 82.7422L111.799 56.146L112.704 57.2048L82.58 83.2437L88.2986 105.424L86.949 105.772Z" fill="#EAEAEA"/>
<path d="M66.2766 19.5016L64.9287 19.8472L81.1224 83.1567L82.4702 82.811L66.2766 19.5016Z" fill="#EAEAEA"/>
<path d="M129.508 82.1269L116.862 101.961L118.035 102.711L130.68 82.8766L129.508 82.1269Z" fill="#D3D1D3"/>
<path d="M144.687 85.2824L130.019 110.021L131.216 110.733L145.884 85.9936L144.687 85.2824Z" fill="#D3D1D3"/>
<path d="M74.0666 127.558L56.333 132.605L56.7134 133.945L74.447 128.898L74.0666 127.558Z" fill="#EAEAEA"/>
<path d="M77.3637 27.9593L76.1135 28.5709L96.4052 70.1554L97.6553 69.5438L77.3637 27.9593Z" fill="#D3D1D3"/>
<path d="M61.9319 43.8579L53.0548 98.6386L80.3819 102.679L67.734 41.4895L61.9319 43.8579Z" fill="#F2F2F2"/>
<path d="M100.89 27.0281L112.258 49.0407L138.903 45.1676L135.703 22.2912" fill="#F2F2F2"/>
<path d="M147.071 49.0407L117.462 52.454L122.388 59.0439L153.708 66.6925" fill="#F2F2F2"/>
<path d="M113.97 82.5054L107.583 93.1355L116.113 98.6386L124.628 85.654L113.97 82.5054Z" fill="#D3D1D3"/>
<path d="M131.738 85.654L122.568 101.606L129.372 106.232L140.448 87.9667L131.738 85.654Z" fill="#D3D1D3"/>
<path d="M79.6996 140.142L77.7933 116.541L88.1593 111.512L95.8537 135.935" fill="#F2F2F2"/>
<path d="M97.8149 130.752L91.3031 113.114L92.9589 112.041L118.296 124.496V136.589" fill="#F2F2F2"/>
<path d="M32.6841 133.093L47.5304 127.171C49.5201 126.377 51.6907 127.84 51.6907 130V131.226C51.6907 132.382 51.0367 133.427 50.0071 133.942L35.787 141.034" fill="url(#paint1_linear_893_146241)"/>
<path d="M32.6841 144.168L47.5304 138.247C49.5201 137.453 51.6907 138.916 51.6907 141.076V142.302C51.6907 143.458 51.0367 144.503 50.0071 145.018L35.787 152.11" fill="url(#paint2_linear_893_146241)"/>
<path d="M32.6841 155.314L47.5304 149.393C49.5201 148.599 51.6907 150.062 51.6907 152.221V153.447C51.6907 154.604 51.0367 155.648 50.0071 156.164L35.787 163.255" fill="url(#paint3_linear_893_146241)"/>
<path d="M16.8777 93.2748L28.482 90.0287C30.5969 89.4435 31.9883 87.4094 31.7657 85.2082L30.2769 70.4681C29.9986 67.7235 27.3689 65.8705 24.6974 66.5253C16.3629 68.6291 0.584388 72.5579 0 72.8226" fill="url(#paint4_linear_893_146241)"/>
<path d="M144.038 121L94.2675 132.312L92.6952 133.692L63.6566 37.7976L110.728 26.847C117.114 48.2048 134.493 91.5612 144.038 121Z" fill="url(#paint5_linear_893_146241)"/>
<path d="M125.156 21.3299C125.156 26.7913 123.083 32.2665 118.909 36.4322L114.164 41.183L103.84 51.5206L88.771 36.4322C80.4504 28.0869 80.4504 14.5729 88.771 6.24154C92.9313 2.07587 98.3856 0 103.84 0C107.402 0 110.964 0.891649 114.164 2.67495C115.876 3.60839 117.462 4.79261 118.909 6.24154C123.083 10.4072 125.156 15.8686 125.156 21.3299Z" fill="url(#paint6_linear_893_146241)"/>
<path d="M125.156 21.3299C125.156 26.7912 123.083 32.2665 118.909 36.4322L114.164 41.183L109.419 36.4322C101.099 28.0869 101.099 14.5729 109.419 6.24152C110.866 4.79259 112.453 3.60837 114.164 2.67493C115.875 3.60837 117.462 4.79259 118.909 6.24152C123.083 10.4072 125.156 15.8685 125.156 21.3299Z" fill="url(#paint7_linear_893_146241)"/>
<path d="M111.187 21.8036C111.187 25.8717 107.903 29.1597 103.84 29.1597C99.7771 29.1597 96.4934 25.8717 96.4934 21.8036C96.4934 17.7354 99.7771 14.4475 103.84 14.4475C107.903 14.4614 111.187 17.7494 111.187 21.8036Z" fill="white"/>
<path d="M154.807 152.165L125.129 138.387C121.761 136.826 120.286 132.814 121.859 129.428L152.456 63.3489C154.014 59.9773 158.021 58.5005 161.402 60.0748L191.081 73.8536C194.448 75.414 195.923 79.4264 194.351 82.8119L163.754 148.891C162.182 152.263 158.188 153.726 154.807 152.165Z" fill="url(#paint8_linear_893_146241)"/>
<path d="M152.554 151.121L122.875 137.342C119.508 135.781 118.033 131.769 119.605 128.383L150.202 62.304C151.76 58.9324 155.768 57.4556 159.149 59.0299L188.827 72.8087C192.195 74.3691 193.669 78.3815 192.097 81.767L161.5 147.847C159.928 151.218 155.921 152.681 152.554 151.121Z" fill="url(#paint9_linear_893_146241)"/>
<path d="M186.671 85.25L160.652 141.424C159.316 144.308 155.921 145.548 153.055 144.224L127.815 132.507C124.948 131.17 123.71 127.771 125.032 124.887L151.051 68.7127C152.373 65.8427 155.782 64.6028 158.648 65.9263L183.888 77.6431C186.754 78.9806 187.993 82.38 186.671 85.25Z" fill="url(#paint10_linear_893_146241)"/>
<path d="M167.483 70.0223L162.377 81.0565C161.041 83.9404 157.646 85.1803 154.78 83.8568L145.945 79.7608L151.065 68.7127C152.387 65.8427 155.796 64.6028 158.662 65.9263L167.483 70.0223Z" fill="url(#paint11_linear_893_146241)" fill-opacity="0.3"/>
<path d="M179.227 101.314L160.652 141.424C159.316 144.308 155.921 145.548 153.055 144.224L143.857 139.947L162.447 99.8229C163.782 96.9529 167.177 95.7129 170.044 97.0365L179.227 101.314Z" fill="url(#paint12_linear_893_146241)" fill-opacity="0.6"/>
<path d="M152.554 102.247L154.154 106.622L162.21 103.668" stroke="white" stroke-width="2" stroke-miterlimit="10" stroke-linecap="round" stroke-linejoin="round"/>
<path d="M163.222 112.417C167.733 108.547 168.256 101.748 164.391 97.2321C160.525 92.7159 153.736 92.1923 149.225 96.0625C144.715 99.9328 144.192 106.731 148.057 111.247C151.922 115.764 158.712 116.287 163.222 112.417Z" stroke="white" stroke-width="2" stroke-miterlimit="10" stroke-linecap="round" stroke-linejoin="round"/>
<path d="M167.302 66.5393C167.107 66.9573 166.62 67.1384 166.203 66.9433C165.785 66.7483 165.605 66.2607 165.799 65.8427C165.994 65.4248 166.481 65.2436 166.899 65.4387C167.316 65.6337 167.483 66.1214 167.302 66.5393Z" fill="url(#paint13_linear_893_146241)"/>
<path d="M177.988 72.4186L168.944 68.2111C168.527 68.0161 168.346 67.5285 168.541 67.1105C168.736 66.6925 169.223 66.5114 169.64 66.7065L178.684 70.9139C179.102 71.109 179.282 71.5966 179.088 72.0146C178.893 72.4325 178.406 72.6136 177.988 72.4186Z" fill="url(#paint14_linear_893_146241)"/>
<path d="M50.7305 17.4986C50.7305 20.1457 48.5878 22.2912 45.9441 22.2912C43.3005 22.2912 41.1577 20.1457 41.1577 17.4986C41.1577 14.8515 43.3005 12.706 45.9441 12.706C48.5878 12.706 50.7305 14.8515 50.7305 17.4986Z" fill="url(#paint15_linear_893_146241)"/>
<path d="M200 133.692C200 136.339 197.857 138.484 195.213 138.484C192.569 138.484 190.427 136.339 190.427 133.692C190.427 131.045 192.569 128.899 195.213 128.899C197.857 128.899 200 131.045 200 133.692Z" fill="url(#paint16_linear_893_146241)"/>
<path d="M98.0238 151.594L99.1509 148.975C99.457 148.264 99.1369 147.442 98.4273 147.136C97.7177 146.829 96.8968 147.15 96.5907 147.86L95.4637 150.48L92.8478 149.351C92.1382 149.045 91.3173 149.365 91.0112 150.076C90.7051 150.786 91.0251 151.608 91.7347 151.915L94.3505 153.043L93.2235 155.662C92.9174 156.373 93.2374 157.195 93.947 157.501C94.2949 157.655 94.6845 157.655 95.0184 157.515C95.3523 157.39 95.6306 157.125 95.7837 156.777L96.9107 154.158L99.5265 155.286C99.8744 155.439 100.264 155.439 100.598 155.3C100.932 155.175 101.21 154.91 101.363 154.562C101.669 153.851 101.349 153.029 100.64 152.723L98.0238 151.594Z" fill="url(#paint17_linear_893_146241)"/>
<path d="M160.832 39.8595L163.448 38.7449C164.157 38.4384 164.477 37.6303 164.185 36.9198C163.879 36.2093 163.072 35.8888 162.363 36.1814L159.747 37.296L158.634 34.6768C158.327 33.9662 157.52 33.6458 156.811 33.9384C156.101 34.2449 155.781 35.0529 156.073 35.7634L157.186 38.3827L154.571 39.4972C153.861 39.8037 153.541 40.6118 153.833 41.3223C153.986 41.6706 154.265 41.9353 154.598 42.0746C154.932 42.214 155.308 42.214 155.67 42.0607L158.286 40.9462L159.399 43.5654C159.552 43.9137 159.83 44.1784 160.164 44.3177C160.498 44.457 160.874 44.457 161.235 44.3038C161.945 43.9973 162.265 43.1892 161.973 42.4787L160.832 39.8595Z" fill="url(#paint18_linear_893_146241)"/>
</g>
<defs>
<linearGradient id="paint0_linear_893_146241" x1="41.9886" y1="200.748" x2="109.875" y2="29.1181" gradientUnits="userSpaceOnUse">
<stop offset="6.8e-07" stop-color="#B9A5FF"/>
<stop offset="1" stop-color="#C3F1FF"/>
</linearGradient>
<linearGradient id="paint1_linear_893_146241" x1="15.5756" y1="135.159" x2="59.537" y2="133.227" gradientUnits="userSpaceOnUse">
<stop offset="5.4e-07" stop-color="#51C991"/>
<stop offset="1" stop-color="#C5FFC3"/>
</linearGradient>
<linearGradient id="paint2_linear_893_146241" x1="16.0566" y1="146.216" x2="60.018" y2="144.285" gradientUnits="userSpaceOnUse">
<stop offset="5.4e-07" stop-color="#51C991"/>
<stop offset="1" stop-color="#C5FFC3"/>
</linearGradient>
<linearGradient id="paint3_linear_893_146241" x1="16.5403" y1="157.337" x2="60.5018" y2="155.405" gradientUnits="userSpaceOnUse">
<stop offset="5.4e-07" stop-color="#51C991"/>
<stop offset="1" stop-color="#C5FFC3"/>
</linearGradient>
<linearGradient id="paint4_linear_893_146241" x1="12.2562" y1="61.2066" x2="25.7875" y2="109.572" gradientUnits="userSpaceOnUse">
<stop offset="5.4e-07" stop-color="#51C991"/>
<stop offset="1" stop-color="#C5FFC3"/>
</linearGradient>
<linearGradient id="paint5_linear_893_146241" x1="13.0596" y1="108.616" x2="122.503" y2="73.4831" gradientUnits="userSpaceOnUse">
<stop offset="5.4e-07" stop-color="#00008B"/>
<stop offset="1" stop-color="white" stop-opacity="0"/>
</linearGradient>
<linearGradient id="paint6_linear_893_146241" x1="101.818" y1="-11.8995" x2="108.584" y2="98.7149" gradientUnits="userSpaceOnUse">
<stop offset="5.4e-07" stop-color="#FF998B"/>
<stop offset="1" stop-color="#FF4B6B"/>
</linearGradient>
<linearGradient id="paint7_linear_893_146241" x1="50.8583" y1="-33.9626" x2="148.781" y2="51.7567" gradientUnits="userSpaceOnUse">
<stop offset="5.4e-07" stop-color="#FF998B"/>
<stop offset="1" stop-color="#FF4B6B"/>
</linearGradient>
<linearGradient id="paint8_linear_893_146241" x1="138.652" y1="33.5006" x2="166.124" y2="135.803" gradientUnits="userSpaceOnUse">
<stop offset="6.8e-07" stop-color="#6D5EB7"/>
<stop offset="1" stop-color="#453777"/>
</linearGradient>
<linearGradient id="paint9_linear_893_146241" x1="171.557" y1="55.1975" x2="134.837" y2="171.473" gradientUnits="userSpaceOnUse">
<stop offset="6.8e-07" stop-color="#6D5EB7"/>
<stop offset="1" stop-color="#453777"/>
</linearGradient>
<linearGradient id="paint10_linear_893_146241" x1="125.431" y1="170.251" x2="174.835" y2="64.6531" gradientUnits="userSpaceOnUse">
<stop offset="5.4e-07" stop-color="#7A65E1"/>
<stop offset="1" stop-color="#B9AAFF"/>
</linearGradient>
<linearGradient id="paint11_linear_893_146241" x1="152.461" y1="23.9019" x2="156.527" y2="72.6399" gradientUnits="userSpaceOnUse">
<stop offset="5.4e-07" stop-color="#7A65E1"/>
<stop offset="1" stop-color="#7A65E1"/>
</linearGradient>
<linearGradient id="paint12_linear_893_146241" x1="145.824" y1="170.559" x2="215.763" y2="-51.0699" gradientUnits="userSpaceOnUse">
<stop offset="5.4e-07" stop-color="#62A4F7"/>
<stop offset="1" stop-color="#7A65E1"/>
</linearGradient>
<linearGradient id="paint13_linear_893_146241" x1="167.459" y1="54.6492" x2="166.123" y2="71.479" gradientUnits="userSpaceOnUse">
<stop offset="6.8e-07" stop-color="#6D5EB7"/>
<stop offset="1" stop-color="#453777"/>
</linearGradient>
<linearGradient id="paint14_linear_893_146241" x1="176.636" y1="33.8869" x2="172.504" y2="85.9154" gradientUnits="userSpaceOnUse">
<stop offset="6.8e-07" stop-color="#6D5EB7"/>
<stop offset="1" stop-color="#453777"/>
</linearGradient>
<linearGradient id="paint15_linear_893_146241" x1="45.7532" y1="40.4559" x2="45.9907" y2="12.2362" gradientUnits="userSpaceOnUse">
<stop offset="6.8e-07" stop-color="#B9A5FF"/>
<stop offset="1" stop-color="#FFDBFF"/>
</linearGradient>
<linearGradient id="paint16_linear_893_146241" x1="198.419" y1="157.817" x2="193.611" y2="121.714" gradientUnits="userSpaceOnUse">
<stop offset="5.4e-07" stop-color="#7BB8EF"/>
<stop offset="1" stop-color="#E3FBFF"/>
</linearGradient>
<linearGradient id="paint17_linear_893_146241" x1="96.9691" y1="163.113" x2="95.9897" y2="149.419" gradientUnits="userSpaceOnUse">
<stop offset="6.8e-07" stop-color="#B9A5FF"/>
<stop offset="1" stop-color="#FFDBFF"/>
</linearGradient>
<linearGradient id="paint18_linear_893_146241" x1="154.125" y1="50.0442" x2="161.611" y2="33.3132" gradientUnits="userSpaceOnUse">
<stop offset="5.4e-07" stop-color="#7BB8EF"/>
<stop offset="1" stop-color="#E3FBFF"/>
</linearGradient>
<clipPath id="clip0_893_146241">
<rect width="200" height="175" fill="white"/>
</clipPath>
</defs>
</svg>
