<svg xmlns="http://www.w3.org/2000/svg" style="display: none;">

    <symbol id="icon-location" viewBox="0 0 512 512">
        <path d="m256 0c-99 0-179 80-179 179 0 135 179 333 179 333 0 0 179-198 179-333 0-99-80-179-179-179z m0 243c-35 0-64-28-64-64 0-35 29-64 64-64 35 0 64 29 64 64 0 36-29 64-64 64z"/>
    </symbol>

    <symbol id="icon-map-loc" viewBox="0 0 512 512">
        <path d="m512 0l-512 214 0 28 195 75 75 195 28 0z"/>
    </symbol>

    <symbol id="icon-profile" viewBox="0 0 512 512">
        <path d="m256 0c-141 0-256 115-256 256 0 141 115 256 256 256 141 0 256-115 256-256 0-141-115-256-256-256z m-126 417c11-23 78-46 126-46 48 0 115 23 126 46-35 27-78 44-126 44-48 0-91-17-126-44z m289-37c-37-45-126-60-163-60-37 0-126 15-163 60-26-35-42-77-42-124 0-113 92-205 205-205 113 0 205 92 205 205 0 47-16 89-42 124z m-163-278c-50 0-90 40-90 90 0 50 40 90 90 90 50 0 90-40 90-90 0-50-40-90-90-90z m0 128c-21 0-38-17-38-38 0-21 17-38 38-38 21 0 38 17 38 38 0 21-17 38-38 38z"/>
    </symbol>

    <symbol id="icon-bag-options" viewBox="0 0 512 512">
        <path d="m140 465c-26 0-47-20-47-46l0-279c0-26 21-47 47-47l23 0 0-46c0-26 21-47 46-47l94 0c25 0 46 21 46 47l0 46 23 0c26 0 47 21 47 47l0 279c0 26-21 46-47 46l0 47-46 0 0-47-140 0 0 47-46 0z m69-418l0 46 94 0 0-46z m24 372l46 0 0-47-46 0z m23-279c-51 0-93 41-93 93l46 0c0-26 21-47 47-47 26 0 47 21 47 47 0 46-70 40-70 116l46 0c0-52 70-58 70-116 0-52-42-93-93-93z"/>
    </symbol>

    <symbol id="icon-arrows-active" viewBox="0 0 512 512">
        <path d="m149 341l214 0-107 107z m0-170l107-107 107 107z"/>
    </symbol>

    <symbol id="icon-arrow-right-blue" viewBox="0 0 512 512">
        <path d="m110 429l180-181-180-181 56-55 236 236-236 236z"/>
    </symbol>

    <symbol id="icon-arrow-left" viewBox="0 0 512 512">
        <path d="m402 67l-180 181 180 181-56 55-236-236 236-236z"/>
    </symbol>

    <symbol id="icon-air-condition" viewBox="0 0 512 512">
        <path d="m512 224l-82 0 50-50-45-45-95 95-52 0 0-52 95-95-45-45-50 50 0-82-64 0 0 82-50-50-45 45 95 95 0 52-52 0-95-95-45 45 50 50-82 0 0 64 82 0-50 50 45 45 95-95 52 0 0 52-95 95 45 45 50-50 0 82 64 0 0-82 50 50 45-45-95-95 0-52 52 0 95 95 45-45-50-50 82 0z"/>
    </symbol>

    <symbol id="icon-add-new-card-icon" viewBox="0 0 512 512">
        <path d="m461 51l-410 0c-28 0-51 23-51 51l0 308c0 28 23 51 51 51l410 0c28 0 51-23 51-51l0-308c0-28-23-51-51-51z m0 359l-410 0 0-154 410 0z m0-256l-410 0 0-52 410 0z"/>
    </symbol>

    <symbol id="icon-adult-only" viewBox="0 0 512 512">
        <path d="m331 260c-8 0-13 4-13 11 0 6 5 10 13 10 7 0 12-4 12-10 0-7-5-11-12-11z m0-20c6 0 9-3 9-9 0-5-3-8-9-8-7 0-10 3-10 8 0 6 3 9 10 9z m-75-142c-87 0-158 71-158 158 0 87 71 158 158 158 87 0 158-71 158-158 0-87-71-158-158-158z m-42 167l-23 0 0 23-28 0 0-23-23 0 0-27 23 0 0-22 28 0 0 22 23 0z m63 36l-30 0 0-74-17 0 0-24 47 0z m54 2c-26 0-43-13-43-32 0-9 4-17 12-22-6-5-9-11-9-19 0-17 16-29 40-29 23 0 39 12 39 29 0 8-3 14-9 19 8 5 12 13 12 22 0 19-17 32-42 32z"/>
    </symbol>

    <symbol id="icon-outline" viewBox="0 0 512 512">
        <path d="m455 57l0 398-398 0 0-398z m0-57l-398 0c-31 0-57 26-57 57l0 398c0 31 26 57 57 57l398 0c31 0 57-26 57-57l0-398c0-31-26-57-57-57z"/>
    </symbol>

    <symbol id="icon-activities" viewBox="0 0 512 512">
        <path d="m461 256c0-28 23-51 51-51l0-103c0-28-23-51-51-51l-410 0c-28 0-51 23-51 51l0 103c28 0 51 23 51 51 0 28-23 51-51 51l0 103c0 28 23 51 51 51l410 0c28 0 51-23 51-51l0-103c-28 0-51-23-51-51z m-113 123l-92-59-92 59 28-106-84-68 108-7 40-101 39 101 109 7-84 69z"/>
    </symbol>

    <symbol id="icon-user" viewBox="0 0 512 512">
        <path d="m349 233c39 0 70-31 70-70 0-39-31-70-70-70-39 0-70 31-70 70 0 39 31 70 70 70z m-186 0c39 0 69-31 69-70 0-39-30-70-69-70-39 0-70 31-70 70 0 39 31 70 70 70z m0 46c-54 0-163 28-163 82l0 58 326 0 0-58c0-54-109-82-163-82z m186 0c-7 0-14 1-22 1 27 20 45 46 45 81l0 58 140 0 0-58c0-54-109-82-163-82z"/>
    </symbol>

    <symbol id="icon-24" viewBox="0 0 512 512">
        <path d="m469 235l-426 0c-24 0-43 19-43 42 0 24 19 43 43 43l426 0c24 0 43-19 43-43 0-23-19-42-43-42z m-96-43c-29 0-53 24-53 53 0 6 5 11 11 11 6 0 10-5 10-11l64 0c0 6 5 11 11 11 6 0 11-5 11-11 0-29-24-53-54-53z m-104 52l-8-69c-4-27-26-47-53-47l-16 0 0 32c0 6-5 11-11 11-6 0-10-5-10-11l0-32-16 0c-27 0-50 20-53 47l-9 69c0 6 4 11 10 12 6 1 11-3 12-9l0-2 56 0 0-42c0-6 4-11 10-11 6 0 11 5 11 11l0 42 56 0 0 2c1 5 5 9 11 9 0 0 1 0 1 0 6-1 10-6 9-12z m-34-191c0 30-24 54-54 54-29 0-53-24-53-54 0-29 24-53 53-53 30 0 54 24 54 53z m225 246c-6-1-11 3-12 9l0 1-384 0 0-1c-1-6-6-10-12-9-6 0-10 6-9 12l21 192c1 5 5 9 11 9l362 0c6 0 10-4 11-9l21-192c1-6-3-12-9-12z m-87-128c-6 0-10 4-10 10l0 22c0 6 4 10 10 10 6 0 11-4 11-10l0-22c0-6-5-10-11-10z"/>
    </symbol>

    <symbol id="icon-accessibility" viewBox="0 0 512 512">
        <path d="m307 51c0 28-23 51-51 51-28 0-51-23-51-51 0-28 23-51 51-51 28 0 51 23 51 51z m-102 410c-43 0-77-35-77-77 0-33 21-62 51-72l0-53c-58 11-102 63-102 125 0 71 57 128 128 128 62 0 113-44 125-102l-53 0c-10 29-39 51-72 51z m230-179l0-52c-39 1-79-19-104-47l-33-36c-5-5-10-9-16-12 0 0 0 0 0 0l-1 0c-8-5-19-8-30-7-27 3-46 27-46 54l0 151c0 28 23 51 51 51l128 0 0 128 51 0 0-141c0-28-23-51-51-51l-77 0 0-88c33 27 83 49 128 50z"/>
    </symbol>

    <symbol id="icon-arrow" viewBox="0 0 512 512">
        <path d="m0 128l256 256 256-256z"/>
    </symbol>

    <symbol id="icon-calendar" viewBox="0 0 512 512">
        <path d="m442 47l-23 0 0-47-47 0 0 47-232 0 0-47-47 0 0 47-23 0c-26 0-47 20-47 46l0 372c0 26 21 47 47 47l372 0c26 0 47-21 47-47l0-372c0-26-21-46-47-46z m0 418l-372 0 0-302 372 0z m-326-256l70 0 0 70-70 0z m117 0l70 0 0 70-70 0z m-117 117l70 0 0 70-70 0z"/>
    </symbol>

    <symbol id="icon-bus" viewBox="0 0 512 512">
        <path d="m85 341c0 19 9 36 22 48l0 38c0 11 9 21 21 21l21 0c12 0 22-10 22-21l0-22 170 0 0 22c0 11 10 21 22 21l21 0c12 0 21-10 21-21l0-38c13-12 22-29 22-48l0-213c0-75-77-85-171-85-94 0-171 10-171 85z m75 22c-18 0-32-15-32-32 0-18 14-32 32-32 18 0 32 14 32 32 0 17-14 32-32 32z m192 0c-18 0-32-15-32-32 0-18 14-32 32-32 18 0 32 14 32 32 0 17-14 32-32 32z m32-128l-256 0 0-107 256 0z"/>
    </symbol>

    <symbol id="icon-car" viewBox="0 0 512 512">
        <path d="m57 213l30-85c5-12 16-21 30-21l278 0c14 0 26 9 30 21l30 85 57 0c0 24-19 43-43 43l0 171c0 11-9 21-21 21l-21 0c-12 0-22-10-22-21l0-22-298 0 0 22c0 11-10 21-22 21l-21 0c-12 0-21-10-21-21l0-171c-24 0-43-19-43-43z m7 86l0 64 107 0c0-36-29-64-64-64z m341 0c-35 0-64 28-64 64l107 0 0-64z m-320-64l342 0-32-96-278 0z"/>
    </symbol>

    <symbol id="icon-compass" viewBox="0 0 512 512">
        <path d="m256 228c-16 0-28 12-28 28 0 16 12 28 28 28 16 0 28-12 28-28 0-16-12-28-28-28z m0-228c-141 0-256 115-256 256 0 141 115 256 256 256 141 0 256-115 256-256 0-141-115-256-256-256z m56 312l-210 98 98-210 210-98z"/>
    </symbol>

    <symbol id="icon-flight" viewBox="0 0 512 512">
        <path d="m499 358l0-51-205-128 0-141c0-21-17-38-38-38-21 0-38 17-38 38l0 141-205 128 0 51 205-64 0 141-52 39 0 38 90-26 90 26 0-38-52-39 0-141z"/>
    </symbol>

    <symbol id="icon-gray" viewBox="0 0 512 512">
        <path d="m461 115l-77 0 0-51c0-28-23-51-51-51l-154 0c-28 0-51 23-51 51l0 51-77 0c-28 0-51 23-51 51l0 282c0 28 23 51 51 51l410 0c28 0 51-23 51-51l0-282c0-28-23-51-51-51z m-282-51l154 0 0 51-154 0z m282 384l-410 0 0-51 410 0z m0-128l-410 0 0-154 77 0 0 52 51 0 0-52 154 0 0 52 51 0 0-52 77 0z"/>
    </symbol>

    <symbol id="icon-hotel" viewBox="0 0 512 512">
        <path d="m256 149l0-85-213 0 0 384 426 0 0-299z m-128 256l-43 0 0-42 43 0z m0-85l-43 0 0-43 43 0z m0-85l-43 0 0-43 43 0z m0-86l-43 0 0-42 43 0z m85 256l-42 0 0-42 42 0z m0-85l-42 0 0-43 42 0z m0-85l-42 0 0-43 42 0z m0-86l-42 0 0-42 42 0z m214 256l-171 0 0-42 43 0 0-43-43 0 0-43 43 0 0-42-43 0 0-43 171 0z m-43-170l-43 0 0 42 43 0z m0 85l-43 0 0 43 43 0z"/>
    </symbol>

    <symbol id="icon-arrow-up" viewBox="0 0 512 512">
        <path d="m60 111l196 195 196-195 60 60-256 256-256-256z"/>
    </symbol>

    <symbol id="icon-cafe" viewBox="0 0 512 512">
        <path d="m211 165l0 60c0 8 7 15 15 15 8 0 15-7 15-15l0-60c0-25 20-45 45-45l104 0c-9-45-56-74-101-84-15-4-27-14-34-27l-1-1c-2-5-7-8-13-8-6 0-11 3-13 8l-1 1c-7 13-19 23-34 27-45 10-92 39-101 84l74 0c25 0 45 20 45 45z m-30 0c0-8-7-15-15-15l-75 0 0 30 90 0z m105-15c-8 0-15 7-15 15l0 15 120 0 0-29z m105 30l0 30c33 0 60 27 60 60 0 33-27 60-60 60l-12 0c8-39 12-73 12-105l0-15-120 0 0 15c0 25-20 45-45 45-25 0-45-20-45-45l0-15-90 0 0 13c0 40 5 80 14 119 4 17 7 34 10 50l252 0c2-11 4-22 6-32l18 0c50 0 90-40 90-90 0-50-40-90-90-90z m45 242c-23 0-367 0-390 0-8 0-15 7-15 15 0 8 7 15 15 15l17 0c6 34 37 60 73 60l210 0c36 0 67-26 73-60l17 0c8 0 15-7 15-15 0-8-7-15-15-15z"/>
    </symbol>

    <symbol id="icon-business-friendly" viewBox="0 0 512 512">
        <path d="m461 128l-103 0 0-51-51-51-103 0-51 51 0 51-102 0c-28 0-51 23-51 51l0 77c0 28 23 51 51 51l154 0 0-51 102 0 0 51 154 0c28 0 51-23 51-51l0-77c0-28-23-51-51-51z m-154 0l-102 0 0-51 102 0z m0 230l-102 0 0-25-179 0-1 102c0 29 23 51 52 51l358 0c28 0 51-22 51-51l0-102-179 0z"/>
    </symbol>

    <symbol id="icon-business-corner" viewBox="0 0 512 512">
        <path d="m435 154l-358 0c-44 0-77 33-77 76l0 154 102 0 0 102 308 0 0-102 102 0 0-154c0-43-33-76-77-76z m-77 281l-204 0 0-128 204 0z m77-179c-15 0-25-10-25-26 0-15 10-25 25-25 16 0 26 10 26 25 0 16-10 26-26 26z m-25-230l-308 0 0 102 308 0z"/>
    </symbol>

    <symbol id="icon-breakfast-options" viewBox="0 0 512 512">
        <path d="m480 389l-124-98c43-72 34-166-28-229-74-73-192-73-266 0-73 74-73 192 0 266 62 62 157 71 229 28l98 124c12 14 29 23 47 24 19 1 37-5 50-18 13-13 19-31 18-50-1-18-10-35-24-47z m-235-76c-10-3-26-7-36-7-40 1-49 49-88-7-10-15-11-25-13-35-5-22-23-35-28-38-60-46 12-96 17-102 25-24 20-26 39-41 32-26 76 1 85 6 37 20 40-1 72 24 37 29 33 63 15 94-6 10 2 36-13 72-15 35-35 38-50 34z m213 145c-11 12-33 8-48-7-16-16-19-38-8-49 11-11 33-8 49 8 15 15 19 37 7 48z m-327-327c-23 22-23 59 0 82 22 22 59 22 82 0 22-23 22-60 0-82-23-23-60-23-82 0z"/>
    </symbol>

    <symbol id="icon-bowling" viewBox="0 0 512 512">
        <path d="m327 264c-19-31-31-67-33-104l-76 0c-2 37-14 73-33 104-36 56-58 137-15 200l28 41c3 4 8 7 13 7l90 0c5 0 10-3 13-7l28-41c43-63 21-144-15-200z m-34-248c-19-21-55-21-74 0-10 11-14 26-12 40l5 39c3 11 4 22 5 33l78 0c1-12 3-24 5-35l5-37c2-14-2-29-12-40z m155-2c-16-19-48-19-64 0-9 10-13 23-11 35l4 34c1 4 2 9 3 13l72 0c1-5 2-10 3-15l4-32c2-12-2-25-11-35z m-320 0c-16-19-48-19-64 0-9 10-12 23-11 35l5 34c1 4 1 9 2 13l72 0c1-5 2-10 3-15l4-32c2-12-2-25-11-35z m35 224c-2-2-3-5-4-7-20-30-30-66-30-103l-66 0c0 36-10 72-29 103-31 49-51 120-13 175l24 36c3 4 7 6 12 6l69 0c-26-69-3-146 32-201 1-3 3-6 5-9z m315-7c-19-30-29-66-29-103l-66 0c0 36-10 72-30 103-1 2-2 5-3 7 1 3 3 6 4 9l0 0c35 55 58 132 32 201l69 0c5 0 9-2 12-6l24-36c38-55 18-126-13-175z"/>
    </symbol>

    <symbol id="icon-booster" viewBox="0 0 512 512">
        <path d="m399 164c13-22 20-47 20-73 0-24-10-47-27-64-17-18-40-27-64-27l-144 0c-24 0-47 9-64 27-17 17-27 40-27 64 0 26 7 51 20 73-38 7-66 41-66 80l0 9c0 11 2 23 7 33l42 92c-16 8-26 22-26 39l0 22c0 28 17 53 46 66 11 4 23 7 36 7l208 0c13 0 25-3 36-7 29-13 46-38 46-66l0-22c0-20-14-36-33-42l47-86c6-12 9-26 9-39l0-6c0-39-28-73-66-80z m-196 214c-11 3-19 5-26 8-24-51-37-108-37-165 0-7 2-13 5-19 11 38 37 113 63 176-2 0-4 0-5 0z m64-6l-22 0c-15-64-30-145-36-186l94 0c-6 41-21 121-36 186z m68 14c-6-2-14-5-22-7 23-63 45-138 54-176 3 6 5 12 5 18 0 57-13 114-37 165z"/>
    </symbol>

    <symbol id="icon-bikes-friendly" viewBox="0 0 512 512">
        <path d="m442 227c-6-1-11 4-9 10l29 83c4 10-4 21-15 21-7 0-13-4-15-11-68-192-49-138-73-207l54 0c4 0 7 3 7 7l0 10c0 3-3 6-7 6-7 0-13 5-15 11-3 10 4 20 14 21 18 2 40-15 40-38l0-10c0-21-17-39-39-39l-77 0c-11 0-19 11-15 22l15 42-125 0-11-32 15 0c9 0 16-6 17-15 0-9-7-17-16-17l-39 0c-11 0-19 11-15 22l20 57-108 165c-6 9-20 9-26 1-4-5-5-13-1-19l55-83c3-5 0-11-6-11-50 1-96 43-96 99 0 54 44 99 99 99 47 0 87-34 96-80 65 0 60 1 62 0 4-1 8-3 10-6 1-1-5 8 86-131l12 32c-31 18-52 52-50 90 2 51 44 92 94 94 57 3 103-42 103-98 0-45-30-82-70-95z m-314 83l21-32c8 9 13 20 15 32z m68 0c-2-23-13-44-29-59l29-43 36 102z m63-20l-37-103 105 0z"/>
    </symbol>

    <symbol id="icon-beauty-services" viewBox="0 0 512 512">
        <path d="m122 175c18 16 30 37 34 61l5 32c1 6 5 9 11 9l168 0c6 0 10-3 11-9l5-32c4-24 16-45 34-61 2-2 4-5 4-8 0-3-2-6-4-8-8-6-17-10-27-10l-96 0 0-21 53 0c24 0 43-19 43-43l0-42c0-24-19-43-43-43l-128 0c-24 0-43 19-43 43l0 42c0 24 19 43 43 43l53 0 0 21-96 0c-10 0-19 4-27 10-2 2-4 5-4 8 0 3 2 6 4 8z m337-4c-41 0-75 29-82 69l-9 59-224 0-9-60c-7-39-41-68-82-68-17 0-32 14-32 32 0 17 15 32 32 32 9 0 17 6 18 15l10 59c6 31 32 54 63 54l100 0-6 65c-46 2-89 16-89 41 0 30 56 43 107 43 51 0 107-13 107-43 0-25-43-39-89-41l-6-65 100 0c31 0 57-23 63-54l10-59c1-9 9-15 18-15 17 0 32-15 32-32 0-18-15-32-32-32z"/>
    </symbol>

    <symbol id="icon-beach" viewBox="0 0 512 512">
        <path d="m140 425l26 18 346 0 0-18z m182 70l103 0 0 17-103 0z m-35-35l173 0 0 17-173 0z m141-193c31 30 31 80 0 110-30 30-80 30-110 0-30-30-30-80 0-110 30-31 80-31 110 0z m-344 147c51-85 82-180 90-279l93 94c15-29 9-65-14-88l-8-8c-5-6-12-10-19-14l87 0c-10-31-39-52-71-52l-12 0c-8 0-17 1-25 4l63-62c-30-15-65-9-88 14l-8 8c-6 6-11 12-14 19-4-7-8-13-14-19l-8-8c-23-24-58-29-87-15l61 63c-8-3-16-4-24-4l-12-1c-33 0-62 21-72 52l87 0c-7 4-14 9-19 14l-8 8c-24 23-30 59-15 88l92-91c-6 95-41 186-99 261-13-4-26-7-39-9l-1 113 199 1 0-1c-31-37-70-68-115-88z m-23 80l-18 0 0-18 18 0z m52-17l-18 0 0-18 18 0z"/>
    </symbol>

    <symbol id="icon-bathtub" viewBox="0 0 512 512">
        <path d="m102 224l26 0c8 0 15-6 15-15 0-8-7-15-15-15l-26 0 0-118c0-25 20-45 45-45 24 0 44 20 45 44l-7 0c-21 0-39 18-39 39l0 18c0 8 7 15 15 15l91 0c9 0 15-7 15-15l0-18c0-21-17-39-39-39l-6 0c-1-41-34-74-75-74-42 0-76 34-76 75l0 215 31 0z m-80 150c4 42 27 77 60 99l-11 15c-5 7-4 16 3 21 3 3 6 4 9 4 4 0 9-3 12-6l15-20c15 6 31 9 48 9l187 0c19 0 37-4 53-11l17 22c3 3 7 6 12 6 3 0 6-1 9-4 7-5 8-14 3-21l-14-18c22-16 40-39 49-66l10-30z m477-53l-488 0c-7 0-12 5-12 12 0 6 5 11 12 11l488 0c7 0 12-5 12-11 0-7-5-12-12-12z"/>
    </symbol>

    <symbol id="icon-bath" viewBox="0 0 512 512">
        <path d="m256 0c-142 0-256 115-256 256 0 141 114 256 256 256 141 0 256-115 256-256 0-141-115-256-256-256z m0 461c-113 0-205-92-205-205 0-113 92-205 205-205 113 0 205 92 205 205 0 113-92 205-205 205z m13-333l-39 0 0 154 135 80 19-31-115-69z"/>
    </symbol>

    <symbol id="icon-bar" viewBox="0 0 512 512">
        <path d="m512 57l0-57-512 0 0 57 228 256 0 142-143 0 0 57 342 0 0-57-143 0 0-142z m-386 57l-50-57 360 0-50 57z"/>
    </symbol>

    <symbol id="icon-train" viewBox="0 0 512 512">
        <path d="m256 0c-108 0-216 13-216 108l0 256c0 52 43 94 95 94l-41 41 0 13 60 0 54-54 102 0 54 54 54 0 0-13-41-41c52 0 95-42 95-94l0-256c0-95-97-108-216-108z m-121 404c-23 0-41-18-41-40 0-23 18-41 41-41 22 0 40 18 40 41 0 22-18 40-40 40z m94-188l-135 0 0-108 135 0z m54 0l0-108 135 0 0 108z m94 188c-22 0-40-18-40-40 0-23 18-41 40-41 23 0 41 18 41 41 0 22-18 40-41 40z"/>
    </symbol>

    <symbol id="icon-search" viewBox="0 0 512 512">
        <path d="m356 313l-23 0-8-8c28-32 45-74 45-120 0-102-83-185-185-185-102 0-185 83-185 185 0 102 83 185 185 185 46 0 88-17 120-45l8 8 0 23 142 141 42-42z m-171 0c-71 0-128-57-128-128 0-71 57-128 128-128 71 0 128 57 128 128 0 71-57 128-128 128z"/>
    </symbol>

    <symbol id="icon-balcony-terrace" viewBox="0 0 512 512">
        <path d="m121 183l114 0 0 90-114 0z m2-41l112 0 0-111c-57 9-102 54-112 111z m154-111l0 111 112 0c-10-57-55-102-112-111z m0 152l114 0 0 90-114 0z m214 132l-470 0c-12 0-21 9-21 21 0 11 9 20 21 20l7 0 0 104c0 12 9 21 20 21l416 0c11 0 20-9 20-21l0-104 7 0c12 0 21-9 21-20 0-12-9-21-21-21z m-380 57l0 67-42 0 0-83 42 0z m83 0l0 67-42 0 0-83 42 0z m83 0l0 67-42 0 0-83 42 0z m83 0l0 67-42 0 0-83 42 0z m83 67l-42 0 0-83 42 0 0 83z"/>
    </symbol>

    <symbol id="icon-cancellation-prepayment" viewBox="0 0 512 512">
        <path d="m235 320l42 0 0 43-42 0z m0-171l42 0 0 128-42 0z m21-106c-118 0-213 95-213 213 0 118 95 213 213 213 118 0 213-95 213-213 0-118-95-213-213-213z m0 384c-94 0-171-77-171-171 0-94 77-171 171-171 94 0 171 77 171 171 0 94-77 171-171 171z"/>
    </symbol>

    <symbol id="icon-car-driver-blue" viewBox="0 0 512 512">
        <path d="m405 64l-89 0c-9-25-32-43-60-43-28 0-51 18-60 43l-89 0c-24 0-43 19-43 43l0 298c0 24 19 43 43 43l298 0c24 0 43-19 43-43l0-298c0-24-19-43-43-43z m-149 0c12 0 21 10 21 21 0 12-9 22-21 22-12 0-21-10-21-22 0-11 9-21 21-21z m0 85c35 0 64 29 64 64 0 36-29 64-64 64-35 0-64-28-64-64 0-35 29-64 64-64z m128 256l-256 0 0-30c0-42 85-66 128-66 43 0 128 24 128 66z"/>
    </symbol>

    <symbol id="icon-carpeted" viewBox="0 0 512 512">
        <path d="m501 107l-103 0c1-10 0-20-2-29-9-34-33-62-66-72-9-2-24-6-37-6-33 0-65 16-83 44l-183 261c-3 4-9 13-9 13-11 20-18 42-18 66 0 71 57 128 128 128l139 0c6 0 10-5 10-11 0-6-4-10-10-10l-3 0 26-43 19 0c6 0 11-5 11-11 0-6-5-10-11-10l-6 0 27-43 22 0c6 0 11-5 11-11 0-6-5-10-11-10l-9 0 26-43 15 0c6 0 11-5 11-11 0-6-5-10-11-10l-2 0 26-43 19 0c6 0 10-5 10-11 0-6-4-10-10-10l-6 0 26-43 12 0c6 0 10-5 10-11 0-5-4-10-9-10l26-43 15 0c6 0 11-5 11-11 0-6-5-10-11-10z m-262 384l-111 0c-59 0-107-48-107-107 0-21 7-41 17-57l4-6c19-26 51-44 86-44 47 0 85 39 85 86 0 47-38 85-85 85-35 0-64-29-64-64 0-35 29-64 64-64 2 0 5 0 7 1l-47 56c-2 2-3 5-3 7 0 24 19 43 43 43 35 0 64-29 64-64 0-36-29-64-64-64-47 0-85 38-85 85 0 47 38 85 85 85 41 0 77-24 95-58l0 0 161-256c5-8 8-17 11-27l66 0z"/>
    </symbol>

    <symbol id="icon-case-small" viewBox="0 0 512 512">
        <path d="m110 146l0-73c0-40 32-73 73-73l146 0c41 0 73 33 73 73l0 73 37 0c40 0 73 33 73 73l0 220c0 40-33 73-73 73l-366 0c-40 0-73-33-73-73l0-220c0-40 33-73 73-73z m73-73l0 73 146 0 0-73z"/>
    </symbol>

    <symbol id="icon-case" viewBox="0 0 512 512">
        <path d="m149 448c-23 0-42-19-42-43l0-256c0-23 19-42 42-42l22 0 0-43c0-24 19-43 42-43l86 0c23 0 42 19 42 43l0 43 22 0c23 0 42 19 42 42l0 256c0 24-19 43-42 43l0 43-43 0 0-43-128 0 0 43-43 0z m64-384l0 43 86 0 0-43z"/>
    </symbol>

    <symbol id="icon-casino" viewBox="0 0 512 512">
        <path d="m236 239l0-188c0-13-11-24-24-24l-188 0c-13 0-24 11-24 24l0 188c0 13 11 24 24 24l188 0c13 0 24-11 24-24z m-184-4c-13 0-24-11-24-25 0-13 11-24 24-24 14 0 25 11 25 24 0 14-11 25-25 25z m0-131c-13 0-24-11-24-25 0-13 11-24 24-24 14 0 25 11 25 24 0 14-11 25-25 25z m68 64c-14 0-25-11-25-25 0-14 11-25 25-25 13 0 24 11 24 25 0 14-11 25-24 25z m63 67c-13 0-24-11-24-25 0-13 11-24 24-24 14 0 25 11 25 24 0 14-11 25-25 25z m0-131c-13 0-24-11-24-25 0-13 11-24 24-24 14 0 25 11 25 24 0 14-11 25-25 25z m328 192c-1-7-5-12-10-15l-160-99c-4-2-8-3-13-3-8 0-16 4-20 11l-99 160c-7 11-3 26 8 33l160 99c4 2 8 3 12 3 9 0 17-4 21-11l98-160c4-6 5-12 3-18z m-198-49c-1-6 0-13 3-18 5-8 13-12 21-12 5 0 9 1 13 4 12 7 16 22 8 34-4 7-12 11-21 11-4 0-9-1-13-3-5-4-9-9-11-16z m24 90c-1-7 0-13 3-19 5-7 13-12 21-12 5 0 9 2 13 4 6 4 10 9 11 15 2 7 1 14-3 19-4 8-12 12-21 12-4 0-9-1-13-4-5-3-9-9-11-15z m64 98c-4 7-12 12-21 12-4 0-9-1-13-4-5-3-9-9-11-15-1-7 0-13 3-19 5-7 13-12 21-12 5 0 9 2 13 4 12 7 15 22 8 34z"/>
    </symbol>

    <symbol id="icon-ccc" viewBox="0 0 512 512">
        <path d="m455 0l-398 0c-32 0-57 26-57 57l0 398c0 31 25 57 57 57l398 0c32 0 57-26 57-57l0-398c0-31-25-57-57-57z m-256 398l-142-142 40-40 102 102 216-216 40 40z"/>
    </symbol>

    <symbol id="icon-check-in" viewBox="0 0 512 512">
        <path d="m353 236l-23-23-104 104-45-45-23 23 68 68z m52-172l-21 0 0-43-43 0 0 43-170 0 0-43-43 0 0 43-21 0c-24 0-43 19-43 43l0 298c0 24 19 43 43 43l298 0c24 0 43-19 43-43l0-298c0-24-19-43-43-43z m0 341l-298 0 0-234 298 0z"/>
    </symbol>

    <symbol id="icon-check-out" viewBox="0 0 512 512">
        <path d="m199 363l52-52 52 52 22-23-52-52 52-52-22-23-52 52-52-52-23 23 52 52-52 52z m206-299l-21 0 0-43-43 0 0 43-170 0 0-43-43 0 0 43-21 0c-24 0-43 19-43 43l0 298c0 24 19 43 43 43l298 0c24 0 43-19 43-43l0-298c0-24-19-43-43-43z m0 341l-298 0 0-234 298 0z"/>
    </symbol>

    <symbol id="icon-child-seat" viewBox="0 0 512 512">
        <path d="m450 250l-92-14c-15-2-30 5-37 19l-10 18c20-5 38-8 54-8 37 0 63 17 68 55l7 1c19 3 37-11 40-31 3-19-10-37-30-40z m-275-80c-6 3-11 7-15 12 12 24 21 57 28 83 4 11 11 20 21 26 7 3 13 5 20 5 5 0 9-1 13-2 20-7 38-12 55-17l-33-62 76-57c16-12 19-34 7-50-11-16-34-19-50-7l-85 63c-12-2-25 0-37 6z m190 121c-30 0-72 14-114 28-7 2-14 3-22 3-11 0-22-3-32-8-17-9-29-24-34-42-17-60-35-122-67-114-53 13-78 90-58 173 11 43 33 80 58 102 3 3 6 6 9 8-1 8-7 53-8 60-1 6 4 11 9 11l199 0c6 0 10-5 9-11 0-5-6-44-6-49 68-30 110-85 98-135-5-19-20-26-41-26z m-234-150c57 9 102-51 74-103-18-35-61-48-96-30-35 19-48 62-29 96 10 20 30 34 51 37z"/>
    </symbol>

    <symbol id="icon-clear" viewBox="0 0 512 512">
        <path d="m301 256l202-201c12-13 12-33 0-46-13-12-33-12-46 0l-201 202-201-202c-13-12-33-12-46 0-12 13-12 33 0 46l202 201-202 201c-12 13-12 33 0 46 7 6 15 9 23 9 8 0 16-3 23-9l201-202 201 202c7 6 15 9 23 9 8 0 16-3 23-9 12-13 12-33 0-46z"/>
    </symbol>

    <symbol id="icon-concierge" viewBox="0 0 512 512">
        <path d="m233 512l36-36 0-43 81-80c53-53 53-138 0-191-53-53-138-53-191 0l-80 81-43 0-36 36 106 106-23 23c-17-8-37-5-51 9-18 17-18 46 0 63 17 18 46 18 63 0 14-14 17-34 9-51l23-23z m202-499c-2 2-47 55-92 105 10 7 20 14 28 23 9 8 16 18 23 28l105-92c17-18 17-46 0-64-18-17-46-18-64 0z"/>
    </symbol>

    <symbol id="icon-condition" viewBox="0 0 512 512">
        <path d="m512 230l-107 0 83-83-36-36-119 119-51 0 0-51 119-119-36-36-83 83 0-107-52 0 0 107-83-83-36 36 119 119 0 51-51 0-119-119-36 36 83 83-107 0 0 52 107 0-83 83 36 36 119-119 51 0 0 51-119 119 36 36 83-83 0 107 52 0 0-107 83 83 36-36-119-119 0-51 51 0 119 119 36-36-83-83 107 0z"/>
    </symbol>

    <symbol id="icon-flat" viewBox="0 0 512 512">
        <path d="m51 0l410 0c28 0 51 23 51 51l0 410c0 28-23 51-51 51l-410 0c-28 0-51-23-51-51l0-410c0-28 23-51 51-51z m274 403l61 0-93-301-71 0-94 301 60 0 18-70 100 0z m-107-113l38-144 38 144z"/>
    </symbol>

    <symbol id="icon-fitness" viewBox="0 0 512 512">
        <path d="m475 329l37-36-37-37-91 91-219-219 91-91-37-37-36 37-37-37-55 55-36-37-37 37 37 36-55 55 37 37-37 36 37 37 91-91 219 219-91 91 37 37 36-37 37 37 55-55 36 37 37-37-37-36 55-55z"/>
    </symbol>

    <symbol id="icon-family-friendly" viewBox="0 0 512 512">
        <path d="m308 277c0 29-23 53-53 53-29 0-53-24-53-53 0-29 24-53 53-53 30 0 53 24 53 53z m-30 57l-45 0c-38 0-69 30-69 68l0 55 0 1 4 1c36 12 67 15 93 15 50 0 79-14 81-15l4-2 0 0 0-55c0-38-31-68-68-68z m-46-212c0 47-38 86-86 86-47 0-85-39-85-86 0-48 38-86 85-86 48 0 86 38 86 86z m132 86c47 0 86-39 86-86 0-48-39-86-86-86-48 0-86 38-86 86 0 47 38 86 86 86z m-151 117c-13-11-22-29-22-48 0-24 13-45 32-56-12-5-26-7-40-7l-73 0c-61 0-110 49-110 110l0 89 0 1 6 2c57 18 107 24 148 24l0-38c0-37 25-68 59-77z m187-111l-73 0c-14 0-28 2-40 7 19 11 32 32 32 56 0 19-8 37-22 48 14 4 26 11 37 21 15 15 23 35 23 56l0 38c41 0 90-6 147-24l6-2 0-1 0-89c0-61-49-110-110-110z"/>
    </symbol>

    <symbol id="icon-facebook" viewBox="0 0 512 512">
        <path d="m484 0l-456 0c-15 0-28 13-28 28l0 456c0 15 13 28 28 28l246 0 0-198-67 0 0-78 67 0 0-57c0-66 40-102 99-102 20 0 40 1 60 3l0 69-41 0c-32 0-38 16-38 38l0 49 76 0-10 78-67 0 0 198 131 0c15 0 28-13 28-28l0-456c0-15-13-28-28-28z"/>
    </symbol>

    <symbol id="icon-face" viewBox="0 0 512 512">
        <path d="m179 250c-17 0-32 14-32 32 0 17 15 32 32 32 18 0 32-15 32-32 0-18-14-32-32-32z m154 0c-18 0-32 14-32 32 0 17 14 32 32 32 17 0 32-15 32-32 0-18-15-32-32-32z m-77-250c-141 0-256 115-256 256 0 141 115 256 256 256 141 0 256-115 256-256 0-141-115-256-256-256z m0 461c-113 0-205-92-205-205 0-7 1-15 1-22 61-27 109-76 134-137 46 65 122 108 209 108 20 0 39-3 57-7 6 18 9 38 9 58 0 113-92 205-205 205z"/>
    </symbol>

    <symbol id="icon-event-faciltiies" viewBox="0 0 512 512">
        <path d="m347 512c-4 0-8-1-12-3l-91-59c-9-6-12-20-6-30 7-9 20-12 30-6l90 59c10 6 13 19 7 29-5 7-11 10-18 10z m-182 0c-7 0-13-3-18-10-6-10-3-23 7-29l90-59c10-6 24-3 30 6 6 10 3 24-6 30l-91 59c-4 2-8 3-12 3z m70-107l0 86c0 11 9 21 21 21 12 0 21-10 21-21l0-86z m229-266l-416 0c-4 0-7-1-11-1l0 209c0 20 17 37 38 37l362 0c21 0 38-17 38-37l0-209c-4 0-7 1-11 1z m-80 67l-81 99c-7 8-19 10-28 4l-47-30-69 67c-4 4-10 6-15 6-6 0-11-2-15-6-9-9-8-22 0-31l82-79c7-7 18-8 26-2l45 29 70-85c7-9 20-10 30-2 9 7 10 20 2 30z m80-89l-416 0c-26 0-48-21-48-48 0-26 22-48 48-48l416 0c26 0 48 22 48 48 0 27-22 48-48 48z"/>
    </symbol>

    <symbol id="icon-entertainment" viewBox="0 0 512 512">
        <path d="m59 341l-55 129c-5 11-3 24 5 32 6 7 14 10 22 10 3 0 7-1 10-2l85-30z m53-122l-37 86 79 165 67-24z m372-119c-9 1-14 9-13 17 0 3 1 6 1 9 3 33-1 58-13 76-14 20-38 32-62 29-6 0-11-1-16-4 1-1 2-3 2-5 5-9 7-19 6-30-1-8-3-16-6-23-7-15-19-24-33-28-15-4-33 7-38 23-4 11-3 24 3 37 4 12 11 22 19 30-7 4-16 7-26 9-8 1-13 9-12 17 1 7 7 13 15 13 0 0 1 0 2-1 18-2 34-9 47-18 10 5 22 9 34 10 3 1 6 1 10 1 31 0 62-16 80-43 18-26 23-61 17-106-2-8-9-14-17-13z m-144 74c1-2 3-3 3-4 7 2 11 8 13 12 4 9 4 20 0 28 0 0 0 0 0 1-6-6-10-13-14-21-2-7-3-12-2-16z m63 145c0-11-8-19-18-19-11 0-19 8-19 19 0 10 8 19 19 19 10 0 18-9 18-19z m28-204c0-10-8-19-19-19-10 0-18 9-18 19 0 11 8 19 18 19 11 0 19-8 19-19z m38-30c23 0 42-19 42-42 0-24-19-43-42-43-24 0-43 19-43 43 0 23 19 42 43 42z m-199 95c0-11-8-19-19-19-10 0-18 8-18 19 0 10 8 19 18 19 11 0 19-9 19-19z m97-140c0-10-8-19-18-19-11 0-19 9-19 19 0 11 8 19 19 19 10 0 18-8 18-19z m-123 62l7 0 0 8c0 8 7 15 15 15 9 0 15-7 15-15l0-8 7 0c9 0 15-6 15-15 0-8-6-15-15-15l-7 0 0-7c0-8-6-15-15-15-8 0-15 7-15 15l0 7-7 0c-8 0-15 7-15 15 0 9 7 15 15 15z m-93 36c-5-6-15-6-21 0-6 5-6 15-1 21l6 6-7 18 121 253 102-36 4 5c3 3 7 5 11 5 4 0 7-2 10-4 6-6 7-15 1-21z"/>
    </symbol>

    <symbol id="icon-drop-up-arrow" viewBox="0 0 512 512">
        <path d="m0 341l256-256 256 256-60 60-196-196-196 196z"/>
    </symbol>

    <symbol id="icon-door" viewBox="0 0 512 512">
        <path d="m448 256l0-192-190 0c-107 0-193 86-194 192z m-192-256l256 0 0 512-512 0 0-256c0-141 115-256 256-256z m96 320l0 16c0 27 21 48 48 48 27 0 48-21 48-48l0-16z"/>
    </symbol>

    <symbol id="icon-done-passive-nobg" viewBox="0 0 512 512">
        <path d="m192 346l-90-90-29 30 119 119 256-256-30-30z"/>
    </symbol>

    <symbol id="icon-diving" viewBox="0 0 512 512">
        <path d="m314 92l-116 0c-20 0-37 13-43 30 1 0 2 0 3 0l195 0c1 0 2 0 3 0-6-17-23-30-42-30z m92 299l0 16c0 26-21 47-47 47l-16 0c0-2 0-4 0-5l0-47-15 0c-34 0-63-23-72-54-8 25-29 45-55 51l22 15c10 7 21 10 33 10 6 0 12-1 18-3l0 28c0 2 1 5 1 7-10 4-18 14-18 26-1 17 12 30 29 30l73 0c58 0 105-47 105-105l0-60c-15 20-35 35-58 44z m58-369c0-12-10-22-22-22l-15 0c-12 0-21 10-21 22l0 20 58 0z m-58 50l0 60c23 10 43 25 58 45l0-105z m-53 80l-195 0c-61 0-110 49-110 110 0 60 49 110 110 110l25 0c25 0 46-21 46-47 0-9 7-16 16-16l21 0c9 0 16 7 16 16 0 26 21 47 46 47l25 0c61 0 110-50 110-110 0-61-49-110-110-110z"/>
    </symbol>

    <symbol id="icon-direct-dial-telephone" viewBox="0 0 512 512">
        <path d="m258 138l-72-128c-4-7-11-11-19-10-16 1-32 5-47 13-34 19-53 55-53 91-3 51 39 163 80 237 0 0 1 1 1 1 0 0 0 1 0 1 25 43 53 80 81 108l30 26c10 8 20 14 29 19 31 19 71 22 105 2 15-8 27-20 36-33 5-6 6-15 2-22l-72-128c-4-7-11-10-18-10l0 0c-17 0-34 5-49 13-11 6-20 14-27 22-10-15-20-30-30-47-9-17-40-72-47-88 11-2 22-6 33-12 15-8 28-20 36-34l0-1c5-5 5-13 1-20z m35 6c-1 4-1 7 1 11 2 3 5 5 8 6 21 6 38 20 48 39 11 19 13 41 7 62-2 7 2 15 10 17 1 0 2 1 4 1 6 0 11-5 13-11 17-57-16-118-74-135-7-2-15 3-17 10z m128 148c1 0 2 0 4 0 6 0 12-4 13-10 12-41 8-85-13-123-21-38-55-66-97-78-7-2-15 2-17 9-1 4-1 8 1 11 2 3 4 5 8 7 71 20 112 95 91 166-2 8 2 16 10 18z"/>
    </symbol>

    <symbol id="icon-couple-friendly" viewBox="0 0 512 512">
        <path d="m281 129c17 0 75-43 75-82 0-21-17-47-39-47-16 0-30 10-36 24-6-14-20-24-36-24-22 0-39 26-39 47 0 38 58 82 75 82z m-142 184c-63 0-114 52-114 115l0 69c0 8 7 15 15 15l198 0c9 0 15-7 15-15l0-70c0-63-51-115-114-114z m0-20c43 0 78-35 78-78 0-43-35-77-78-77-43 0-78 34-78 77 0 43 35 78 78 78z m244 44c-57 0-102 48-102 104l0 56c0 8 7 15 15 15l176 0c8 0 15-7 15-15l0-57c0-57-46-103-104-103z m-69-88c0 39 31 71 70 71 39 0 70-32 70-71 0-38-31-70-70-70-39 0-70 32-70 70z"/>
    </symbol>

    <symbol id="icon-flight-outline" viewBox="0 0 512 512">
        <path d="m455 57l0 398-398 0 0-398z m0-57l-398 0c-31 0-57 26-57 57l0 398c0 31 26 57 57 57l398 0c31 0 57-26 57-57l0-398c0-31-26-57-57-57z"/>
    </symbol>

    <symbol id="icon-gas" viewBox="0 0 512 512">
        <path d="m463 120l0 0-106-106-30 30 60 60c-27 11-46 36-46 67 0 39 32 71 71 71 11 0 20-2 29-6l0 205c0 16-13 28-29 28-15 0-28-12-28-28l0-128c0-31-26-57-57-57l-28 0 0-199c0-31-26-57-57-57l-171 0c-31 0-57 26-57 57l0 455 285 0 0-213 42 0 0 142c0 39 32 71 71 71 40 0 72-32 72-71l0-270c0-20-8-38-21-51z m-221 79l-171 0 0-142 171 0z m170 0c-15 0-28-13-28-28 0-16 13-29 28-29 16 0 29 13 29 29 0 15-13 28-29 28z"/>
    </symbol>

    <symbol id="icon-fridge" viewBox="0 0 512 512">
        <path d="m96 224l0 224c0 18 14 32 32 32l32 0 0 16c0 9 7 16 16 16 9 0 16-7 16-16l0-16 128 0 0 16c0 9 7 16 16 16 9 0 16-7 16-16l0-16 32 0c18 0 32-14 32-32l0-224z m256 112c0 9-7 16-16 16-9 0-16-7-16-16l0-64c0-9 7-16 16-16 9 0 16 7 16 16z m32-336l-256 0c-18 0-32 14-32 32l0 160 320 0 0-160c0-18-14-32-32-32z m-32 144c0 9-7 16-16 16-9 0-16-7-16-16l0-64c0-9 7-16 16-16 9 0 16 7 16 16z"/>
    </symbol>

    <symbol id="icon-gay-friendly" viewBox="0 0 512 512">
        <path d="m115 290l-60 0 0 222 79 0 0-220c-7-1-13-2-19-2z m117-155c-26-26-61-40-98-40l-79 0 0 71 68 0c45 0 88 17 120 49 26 27 61 41 98 41l116 0 0-71-105 0c-45 0-88-18-120-50z m48-85c-32-32-75-50-120-50l-105 0 0 65 79 0c45 0 87 17 119 49 27 27 62 41 99 41l105 0 0-65-79 0c-37 0-72-14-98-40z m-165 210c37 0 72 15 98 41 32 32 75 50 120 50l124 0 0-65-116 0c-45 0-88-18-120-50-26-26-61-40-98-40l-68 0 0 64z"/>
    </symbol>

    <symbol id="icon-gear" viewBox="0 0 512 512">
        <path d="m51 0l410 0c28 0 51 23 51 51l0 410c0 28-23 51-51 51l-410 0c-28 0-51-23-51-51l0-410c0-28 23-51 51-51z m359 410l-24-308-77 0-52 216-54-216-76 0-25 308 57 0 8-127c2-28 3-56 3-83 0-10-1-25-1-45l59 222 56 0 56-221 0 16c0 27 1 63 4 109l8 129z"/>
    </symbol>

    <symbol id="icon-golf" viewBox="0 0 512 512">
        <path d="m235 112c5 1 10 2 16 2 25 0 47-17 55-41 8-30-9-62-39-71-5-1-11-2-16-2-25 0-48 17-55 41-9 30 8 62 39 71z m59 363c-3 0-6 0-9 0l0-162c4-1 6-3 8-6 3-5 4-11 3-16l-11-41 0-21c0-4-3-7-7-8l-19-72c0-1-1-3-1-4-1-1-1-1-1-2-2-4-5-6-10-8l-36-10c-1-1-3-1-4-1-7 0-13 5-15 12l-47 159c-2 8 2 16 9 20l0 171c0 14 12 26 26 26l5 0c15 0 27-12 27-26l0-171c0-1 0-1 0-1l23-79 16 64c2 9 10 15 19 17l0 179c0 3 0 4 2 6 0 0 0 0 0 0 3 4 8 5 22 5 20 0 30-5 30-15 0-9-12-16-30-16z m74 8c0 8-7 15-15 15-8 0-15-7-15-15 0-8 7-14 15-14 8 0 15 6 15 14z"/>
    </symbol>

    <symbol id="icon-guest" viewBox="0 0 512 512">
        <path d="m256 0c71 0 128 57 128 128 0 71-57 128-128 128-71 0-128-57-128-128 0-71 57-128 128-128z m256 512l-512 0 0-43c0-85 171-132 256-132 85 0 256 47 256 132z"/>
    </symbol>

    <symbol id="icon-guest-16" viewBox="0 0 512 512">
        <path d="m256 64c53 0 96 43 96 96 0 53-43 96-96 96-53 0-96-43-96-96 0-53 43-96 96-96z m192 384l-384 0 0-32c0-64 128-99 192-99 64 0 192 35 192 99z"/>
    </symbol>

    <symbol id="icon-hairdryer" viewBox="0 0 512 512">
        <path d="m170 457c0 30 24 55 55 55l27 0c30 0 55-25 55-55l0-89c0-8 6-15 15-15l32 0 0-30-32 0c-25 0-45 20-45 45l0 89c0 14-12 25-25 25l-27 0c-14 0-25-11-25-25l0-31-30 0z m19-162c-17 5-34 8-52 8-10 0-20-1-30-3l30 83c3 8 11 13 19 13l54 0c14 0 23-14 19-27l-29-78z m308 28c8 0 15-7 15-15 0-8-7-15-15-15l-23 0 0 30z m0 60c8 0 15-7 15-15 0-8-7-15-15-15l-23 0 0 30z m-108-184l0-125-209-67c-14-5-29-7-43-7-71 0-135 57-137 133 0 1 0 2 0 3 0 2 0 3 0 4 2 76 66 133 137 133 14 0 29-2 43-7z m-247-133c39 0 70 32 70 70 0 39-31 70-70 70-39 0-70-31-70-70 0-38 31-70 70-70z m359-15c-1 0-2 0-3 1l-79 23 0 123 79 23c1 1 2 1 3 1 6 0 11-5 11-11l0-149c0-6-5-11-11-11z m-319 85c0 23-18 40-40 40-22 0-40-17-40-40 0-22 18-40 40-40 22 0 40 18 40 40z m202 232c0 11 9 20 20 20l40 0 0-100-40 0c-11 0-20 9-20 20z"/>
    </symbol>

    <symbol id="icon-guest-multiple" viewBox="0 0 512 512">
        <path d="m339 128l-83 83-83-83-45 45 83 83-83 83 45 45 83-83 83 83 45-45-83-83 83-83z"/>
    </symbol>

    <symbol id="icon-heating" viewBox="0 0 512 512">
        <path d="m274 512c-15 0-29-3-43-9-13-5-25-13-35-23-10-10-18-22-23-35-6-13-9-28-9-43 0-17 5-35 13-50 6-13 16-25 28-35l0-265c0-29 23-52 52-52l34 0c28 0 52 23 52 52l0 265c12 10 21 22 28 35 8 15 12 33 12 50 0 15-2 30-8 43-6 13-14 25-24 35-10 10-21 18-34 23-14 6-28 9-43 9z m-17-490c-17 0-31 13-31 30l0 271c0 3-1 6-4 8-23 17-36 43-36 71 0 49 39 88 88 88 48 0 88-39 88-88 0-28-14-54-36-71-3-2-5-5-5-8l0-271c0-17-13-30-30-30z m40 318l0-235c0-9-8-17-17-17l-12 0c-9 0-17 8-17 17l0 235c-26 9-44 34-44 62 0 37 30 67 67 67 37 0 67-30 67-67 0-28-19-53-44-62z m-38 42c-5 4-8 10-9 17-1 3-1 6 0 10 1 4-2 9-7 9 0 1-1 1-1 1-4 0-7-3-8-7-1-5-1-11 0-16 1-10 7-20 14-26 4-3 9-3 12 0 3 4 2 9-1 12z m-95-303c0 5-4 8-8 8l-19 0c-4 0-8-3-8-8l0-10c0-5 4-9 8-9l19 0c4 0 8 4 8 9z m0 57c0 5-4 9-8 9l-19 0c-4 0-8-4-8-9l0-9c0-5 4-9 8-9l19 0c4 0 8 4 8 9z m0 58c0 4-4 8-8 8l-19 0c-4 0-8-4-8-8l0-10c0-5 4-9 8-9l19 0c4 0 8 4 8 9z m0 57c0 5-4 9-8 9l-19 0c-4 0-8-4-8-9l0-10c0-4 4-8 8-8l19 0c4 0 8 4 8 8z m0 58c0 4-4 8-8 8l-19 0c-4 0-8-4-8-8l0-10c0-5 4-9 8-9l19 0c4 0 8 4 8 9z"/>
    </symbol>

    <symbol id="icon-horse-riding" viewBox="0 0 512 512">
        <path d="m476 449c-40-14-79-32-116-54-50-30-61-49-61-54 0-41 21-294 21-297 0-6-2-11-6-16-4-4-9-7-15-7l-32 0 0 43c0 35-29 64-64 64-36 0-64-29-64-64l0-43-32 0c-6 0-12 3-16 7-4 5-6 11-6 17 14 126 26 266 23 289-14 29-22 60-23 93l0 64c0 11 10 21 22 21l85 0c8 0 15-4 19-11l8-16 22 21c4 4 10 6 15 6l213 0c12 0 22-10 22-21l0-22c0-9-6-17-15-20z m-273-342c23 0 42-19 42-43l0-53c0-6-4-11-10-11l-64 0c-6 0-11 5-11 11l0 53c0 24 19 43 43 43z m0-64c11 0 21 9 21 21 0 12-10 21-21 21-12 0-22-9-22-21 0-12 10-21 22-21z"/>
    </symbol>

    <symbol id="icon-inactive-minus" viewBox="0 0 512 512">
        <path d="m512 293l-512 0 0-74 512 0z"/>
    </symbol>

    <symbol id="icon-minibar" viewBox="0 0 512 512">
        <path d="m480 107l-32 0 0-64c0-24-19-43-43-43l-32 0c-6 0-10 5-10 11l0 16c-7-3-14-6-22-6l-277 0c-24 0-43 19-43 43l0 384c0 24 19 43 43 43l277 0c8 0 15-3 22-6l0 16c0 6 4 11 10 11l32 0c24 0 43-19 43-43l0-149 32 0c6 0 11-5 11-11l0-192c0-6-5-10-11-10z m-160 320l-235 0 0-342 235 0z m149-128l-21 0 0-171 21 0z m-352 106l32 0c6 0 11-4 11-10l0-11c0-14 4-24 8-32l0 0c2-5 3-8 3-13 0-5 0-8-3-15-3-12-8-26-8-52 0-28 13-51 21-66l3-5c1-2 2-5 1-8-2-8-2-16-2-22 0-2 0-6 1-8 1-4 0-7-2-10-2-2-5-4-8-4l-28 0c-4 0-7 2-9 6l-6 10c-1 2-1 5-1 7 0 9 0 18 5 24-2 6-6 13-10 21-8 15-18 32-18 55 0 23 4 35 7 46 2 7 4 13 4 21 0 9-2 15-5 22-3 6-6 14-6 23l0 11c0 6 4 10 10 10z m64-133c0 22 4 35 7 45 2 8 4 13 4 22 0 9-3 16-5 22-3 7-6 14-6 23l0 11c0 6 5 10 11 10l85 0c6 0 11-4 11-10l0-11c0-9-3-16-5-23-3-6-5-13-5-22 0-9 1-14 4-22 2-10 6-23 6-45 0-23-9-40-16-54-4-8-8-16-9-22 4-6 5-15 5-26 0-1-1-3-2-5l-5-10c-1-3-5-6-9-6l-34 0c-5 0-8 3-10 6l-5 10c-1 2-1 5-1 6 0 10 0 19 4 25-1 6-5 14-9 22-7 14-16 31-16 54z"/>
    </symbol>

    <symbol id="icon-humburger" viewBox="0 0 512 512">
        <path d="m491 235l-470 0c-12 0-21 10-21 21 0 11 9 21 21 21l470 0c12 0 21-10 21-21 0-11-9-21-21-21z m0-157l-470 0c-12 0-21 10-21 21 0 12 9 21 21 21l470 0c12 0 21-9 21-21 0-11-9-21-21-21z m0 314l-470 0c-12 0-21 9-21 21 0 11 9 21 21 21l470 0c12 0 21-10 21-21 0-12-9-21-21-21z"/>
    </symbol>

    <symbol id="icon-meal" viewBox="0 0 512 512">
        <path d="m230 179l-51 0 0-179-51 0 0 179-51 0 0-179-51 0 0 179c0 54 42 99 96 102l0 231 64 0 0-231c53-3 96-48 96-102l0-179-52 0z m128-77l0 205 64 0 0 205 64 0 0-512c-70 0-128 57-128 102z"/>
    </symbol>

    <symbol id="icon-mastercard-icon" viewBox="0 0 512 512">
        <path d="m512 256c0 90-73 163-163 163-90 0-163-73-163-163 0-90 73-163 163-163 90 0 163 73 163 163z m-186 0c0 90-73 163-163 163-90 0-163-73-163-163 0-90 73-163 163-163 90 0 163 73 163 163z m-140 0c0 55 28 104 70 134 42-30 70-79 70-134 0-55-28-104-70-134-42 30-70 79-70 134z"/>
    </symbol>

    <symbol id="icon-loader-blue" viewBox="0 0 512 512">
        <path d="m256 85l0-64-85 86 85 85 0-64c71 0 128 57 128 128 0 22-5 42-15 60l31 31c17-26 27-58 27-91 0-94-77-171-171-171z m0 299c-71 0-128-57-128-128 0-22 5-42 15-60l-31-31c-17 26-27 58-27 91 0 94 77 171 171 171l0 64 85-86-85-85z"/>
    </symbol>

    <symbol id="icon-linkedin" viewBox="0 0 512 512">
        <path d="m122 377l56 0 0-169-56 0z m60-221c-1-8-3-15-9-21-6-5-13-8-23-8-9 0-17 3-23 8-6 6-9 13-9 21 0 8 3 15 9 21 6 5 13 8 22 8l1 0c9 0 17-3 23-8 6-6 9-13 9-21z m83 76l0 1 0 0c0-1 0-1 0-1z m-158-168l298 0c24 0 43 19 43 43l0 298c0 24-19 43-43 43l-298 0c-24 0-43-19-43-43l0-298c0-24 19-43 43-43z m158 168l0-24-56 0c0 11 0 67 0 169l56 0 0-94c0-6 1-11 2-14 2-6 6-10 11-14 5-4 11-6 18-6 19 0 28 12 28 38l0 90 56 0 0-97c0-25-6-44-17-57-12-12-28-19-47-19-22 0-39 10-51 28z"/>
    </symbol>

    <symbol id="icon-lift" viewBox="0 0 512 512">
        <path d="m131 224l250 0c11 0 21-6 26-16 5-10 4-21-3-30l-114-160c-8-11-20-18-34-18-14 0-26 7-34 18l-114 160c-7 9-8 20-3 30 5 10 15 16 26 16z m250 64l-250 0c-11 0-21 6-26 16-5 10-4 21 3 30l114 160c8 11 20 18 34 18 14 0 26-7 34-18l114-160c7-9 8-20 3-30-5-10-15-16-26-16z"/>
    </symbol>

    <symbol id="icon-library" viewBox="0 0 512 512">
        <path d="m137 111l0-34c0-5-4-9-9-9l-119 0c-5 0-9 4-9 9l0 34z m-137 17l0 282 137 0 0-282z m102 111l-68 0c-5 0-8-4-8-9l0-68c0-5 3-8 8-8l68 0c5 0 9 3 9 8l0 68c0 5-4 9-9 9z m-102 222l0 42c0 5 4 9 9 9l119 0c5 0 9-4 9-9l0-42z m0-34l137 0 0 17-137 0z m154 0l111 0 0 17-111 0z m111-393l0-25c0-5-4-9-9-9l-94 0c-5 0-8 4-8 9l0 25z m-111 60l111 0 0 316-111 0z m0 367l0 42c0 5 3 9 8 9l94 0c5 0 9-4 9-9l0-42z m0-410l111 0 0 26-111 0z m127 126l5 17 144-38-4-18z m72 273l144-38-9-36-144 39z m131-90l-49-188-145 39 49 187z m-207-200l145-38-13-47c-1-5-6-8-10-6l-128 34c-5 1-7 6-6 10z m225 268l-145 39 10 39c1 2 2 4 4 5 1 1 3 1 4 1 1 0 2 0 3 0l128-34c4-2 7-6 6-11z"/>
    </symbol>

    <symbol id="icon-laundry" viewBox="0 0 512 512">
        <path d="m264 467l-225 0c-13 0-23 10-23 23 0 12 10 22 23 22l225 0c12 0 22-10 22-22 0-13-10-23-22-23z m163-316l-81 0 0 14-30-10 0-37c26-7 45-30 45-58 0-33-27-60-60-60-33 0-60 27-60 60l30 0c0-17 13-30 30-30 17 0 30 13 30 30 0 17-13 30-30 30l-15 0 0 65-30 10 0-14-81 0-69 69 0 111 60 0 0 31 98 0c28 0 52 24 52 53 0 14-6 27-16 37 10 10 16 23 16 38 0 8-2 15-5 22l125 0 0-181 60 0 0-111z m-126 90c-25 0-44-20-45-44l45-15 45 15c-1 24-20 44-45 44z m-37 151l-225 0c-13 0-23 10-23 23 0 12 10 22 23 22l225 0c12 0 22-10 22-22 0-13-10-23-22-23z"/>
    </symbol>

    <symbol id="icon-kitchenette" viewBox="0 0 512 512">
        <path d="m0 512l211 0 0-121-211 0z m46-90l120 0 0 30-120 0z m-46-61l211 0 0-119-211 0z m46-87l120 0 0 30-120 0z m195 238l271 0 0-270-271 0z m180-238l30 0 0 31-30 0z m-60 0l30 0 0 31-30 0z m-60 0l30 0 0 31-30 0z m0 58l150 0 0 120-150 0z m120-263l0-69-90 0 0 69-90 60 0 53 271 0 0-53z"/>
    </symbol>

    <symbol id="icon-kids-friendly" viewBox="0 0 512 512">
        <path d="m458 381l-404 0c-30 0-54 24-54 54 0 30 24 54 54 54l404 0c30 0 54-24 54-54 0-30-24-54-54-54z m-256-44c0-19 15-35 34-35l40 0c19 0 34 16 34 35l0 15 148 0 0-99-118 0 0-29 118 0 0-45c0-4-2-8-5-11l-39-35 0-27 73-26c6-2 10-8 10-14 0-6-4-12-10-14l-83-30c-12-2-18 3-20 14l0 97-39 35c-4 3-5 7-5 11l0 32-36-24c-3-2-6-3-9-3l-78 0c-3 0-6 1-9 3l-36 24 0-32c0-4-1-8-5-11l-39-35 0-27 74-26c6-2 10-8 10-14 0-6-4-12-10-14l-84-30c-11-2-18 3-20 14l0 97-39 35c-3 3-5 7-5 11l0 45 118 0 0 29-118 0 0 99 148 0z m34-94l40 0c8 0 14 7 14 15 0 8-6 15-14 15l-40 0c-8 0-14-7-14-15 0-8 6-15 14-15z"/>
    </symbol>

    <symbol id="icon-kids-friendly-1" viewBox="0 0 512 512">
        <path d="m366 249c23-25 37-58 37-94 0-18-3-35-10-51 20-8 34-27 34-50 0-30-25-54-55-54-21 0-40 13-49 31-20-10-43-15-67-15-24 0-47 5-67 15-9-18-28-31-49-31-30 0-55 24-55 54 0 23 14 42 34 50-7 16-10 33-10 51 0 36 14 69 37 94-41 39-107 101-91 164 7 29 26 41 46 42 1-37 29-67 62-67 34 0 62 31 62 70 0 22-9 41-23 54 24 0 51 0 54 0 6 0 31 0 54 0-14-13-23-32-23-54 0-39 28-70 62-70 33 0 61 30 62 67 20-1 39-13 46-42 16-63-50-125-91-164z m-232-172c-10-3-18-12-18-23 0-13 11-23 24-23 10 0 19 7 22 17-11 8-20 18-28 29z m184 67c6 0 12 5 12 11 0 7-6 12-12 12-6 0-12-5-12-12 0-6 6-11 12-11z m-124 0c6 0 12 5 12 11 0 7-6 12-12 12-6 0-12-5-12-12 0-6 6-11 12-11z m62 151c-51 0-93-28-93-62 0-35 42-62 93-62 51 0 93 27 93 62 0 34-42 62-93 62z m94-247c3-10 12-17 22-17 13 0 24 10 24 23 0 11-8 20-18 23-8-11-17-21-28-29z m-161 414c0 15-12 27-27 27-15 0-27-12-27-27 0-15 12-28 27-28 15 0 27 13 27 28z m188 0c0 15-12 27-27 27-15 0-27-12-27-27 0-15 12-28 27-28 15 0 27 13 27 28z m-121-260c-17 0-31 2-31 15 0 14 14 31 31 31 17 0 31-17 31-31 0-13-14-15-31-15z"/>
    </symbol>

    <symbol id="icon-info-opt" viewBox="0 0 512 512">
        <path d="m256 0c-141 0-256 115-256 256 0 141 115 256 256 256 141 0 256-115 256-256 0-141-115-256-256-256z m26 384l-52 0 0-154 52 0z m0-205l-52 0 0-51 52 0z"/>
    </symbol>

    <symbol id="icon-minus" viewBox="0 0 512 512">
        <path d="m512 293l-512 0 0-74 512 0z"/>
    </symbol>

    <symbol id="icon-mobile-network" viewBox="0 0 512 512">
        <path d="m233 265c-19 0-35 16-35 35l0 156c0 19 16 35 35 35 19 0 35-16 35-35l0-156c0-19-16-35-35-35z m122-122c-19 0-35 16-35 35l0 278c0 19 16 35 35 35 19 0 35-16 35-35l0-278c0-19-16-35-35-35z m122-122c-19 0-35 16-35 35l0 400c0 19 16 35 35 35 19 0 35-16 35-35l0-400c0-19-16-35-35-35z m-260 109c5-5 6-13 3-19-2-7-9-11-15-11l-188 0c-7 0-13 4-16 11-2 6-1 14 4 19l71 71 0 255c0 19 16 35 35 35 19 0 35-16 35-35l0-255z"/>
    </symbol>

    <symbol id="icon-moon" viewBox="0 0 512 512">
        <path d="m256 0c141 0 256 115 256 256 0 141-115 256-256 256-27 0-52-4-77-12 104-32 179-129 179-244 0-115-75-212-179-244 25-8 50-12 77-12z m-70 365l-32 70-32-70-71-32 71-32 32-71 32 71 70 32z m-85-187l-24 52-24-52-53-24 53-24 24-53 24 53 53 24z"/>
    </symbol>

    <symbol id="icon-naturist" viewBox="0 0 512 512">
        <path d="m505 407l-202-356c-9-16-27-26-47-26-20 0-37 10-47 26l-202 356c-9 17-9 37 0 54 9 16 27 26 46 26l404 0c20 0 37-10 47-26 11-17 11-37 1-54z m-219-4l-54 0 0-47 54 0z m0-74l-54 0 0-134 54 0z"/>
    </symbol>

    <symbol id="icon-nightclub" viewBox="0 0 512 512">
        <path d="m504 93l-36-18-18-36c-5-10-21-10-26 0l-18 36-36 18c-11 5-11 21 0 26l36 18 18 36c5 11 21 11 26 0l18-36 36-18c11-5 11-21 0-26z m-362-32l-36-18-18-35c-5-11-21-11-26 0l-18 35-36 18c-11 5-11 21 0 27l36 18 18 35c5 11 21 11 26 0l18-35 36-18c11-6 11-22 0-27z m159 65l0-20c0-20-13-36-30-42l0-49c0-8-7-15-15-15-8 0-15 7-15 15l0 49c-17 6-30 22-30 42l0 20c-87 21-150 99-150 190 0 106 87 196 195 196 108 0 195-90 195-196 0-90-63-169-150-190z m-209 175c2-21 8-42 17-60l50 0c-4 19-7 39-8 60z m37 120l38 0c6 17 13 33 21 45-23-10-43-26-59-45z m112-30l-51 0c-4-18-7-38-8-60l59 0z m0-180l-42 0c12-28 27-48 42-56z m30 266l0-56 42 0c-12 28-27 48-42 56z m0-176l0-60 51 0c4 18 7 38 8 60z m53-135c23 10 43 26 59 45l-38 0c-6-17-13-33-21-45z m29 225c4-19 7-39 8-60l59 0c-2 21-8 42-17 60z"/>
    </symbol>

    <symbol id="icon-no-bag" viewBox="0 0 512 512">
        <path d="m412 444c-9 13-23 21-40 21l0 47-46 0 0-47-140 0 0 47-46 0 0-47c-26 0-47-20-47-46l0-279c0-5 1-9 2-13l-72-72 32-32 434 434-32 32z m-249-357l0-40c0-26 21-47 46-47l94 0c25 0 46 21 46 47l0 46 23 0c26 0 47 21 47 47l0 203z m46-40l0 46 94 0 0-46z"/>
    </symbol>

    <symbol id="icon-no-insurance" viewBox="0 0 512 512">
        <path d="m256 21l-192 86 0 128c0 118 82 229 192 256 110-27 192-138 192-256l0-128z m0 235l149 0c-11 88-70 166-149 191l0-191-149 0 0-122 149-66z"/>
    </symbol>

    <symbol id="icon-non-smoking-property" viewBox="0 0 512 512">
        <path d="m398 265c0 0 0 0 1 0 0 0 0 0 1 0 0 0 1-1 0-2 0 0 0-2-1-6-1-2-1-5-2-8-1-3-1-6-1-9 0-2 0-4-1-6 0-1 0-3 1-5 0-4 1-8 2-11 1-4 3-7 5-10 1-1 1-1 2-2l2-3 2-1 1-2c1-1 2-2 3-4 3-5 5-10 7-16 1-5 2-11 2-16 0-5-1-10-2-15-1-4-2-8-4-12-3-6-6-12-9-17-3-4-5-6-5-6-1 0-1 0-2 0-1 0-1 1-1 2 0 0 1 2 2 7 1 4 2 10 3 17 1 4 1 7 1 11 0 4 0 8 0 12-1 4-2 8-3 12-1 4-3 8-5 11-1 1-1 2-2 3l-2 2-2 3c-1 1-2 2-3 3-2 3-3 6-4 8-1 3-2 6-3 9-1 5-1 10 0 15 0 5 1 9 3 13 2 6 5 12 9 17 3 4 5 6 5 6z m-13-102c0-5-1-9-2-15-1-2-1-4-2-6-1-2-2-4-2-6-2-3-4-7-5-10-2-2-4-4-5-6-3-4-5-6-5-6-1 0-1 0-2 0-1 1-1 1-1 2 0 0 1 2 2 7 1 2 1 4 2 7 1 3 1 7 2 10 0 1 0 3 1 5 0 2 0 4 0 6 0 4 0 8 0 11-1 9-4 17-8 23-1 1-2 2-2 3l-1 1-2 3c-1 0-1 1-1 1l-1 1c-1 1-1 2-2 3-3 5-5 11-6 16 0 3-1 6-1 8 0 3 0 6 1 8 0 4 1 8 2 13 1 3 3 7 4 10 2 2 3 5 4 7 3 4 5 6 5 6 0 0 0 0 1 0 0 0 0 0 1 0 0 0 1-1 0-2 0 0 0-2-1-6-1-5-2-11-2-17 0-4 0-8 0-11 1-4 1-8 2-12 2-3 3-7 5-10 1-1 1-2 2-2l3-4 2-2c1-1 2-2 2-4 4-4 6-10 8-15 1-6 2-11 2-17z m52-88c-48-48-112-75-181-75-68 0-133 27-181 75-48 48-75 113-75 181 0 69 27 133 75 181 48 49 113 75 181 75 69 0 133-26 181-75 49-48 75-112 75-181 0-68-26-133-75-181z m-181 400c-121 0-219-98-219-219 0-42 12-81 33-115l135 135-109 0c-8 0-16 7-16 16l0 35c0 9 8 16 16 16l176 0 99 99c-33 21-73 33-115 33z m168-79l-55-55c6-3 9-9 9-15l0-33c0-9-7-17-16-17l-1 0c-9 0-16 8-16 17l0 23-13-12 0-12c0-9-7-16-16-16l-11 0-189-188c38-32 87-51 140-51 121 0 219 98 219 219 0 53-19 102-51 140z m-17-120l-1 0c-9 0-16 8-16 17l0 33c0 9 7 16 16 16l1 0c9 0 16-7 16-16l0-33c0-9-7-17-16-17z"/>
    </symbol>

    <symbol id="icon-on-main-road" viewBox="0 0 512 512">
        <path d="m501 235l-158-49c-3-1-6-1-9-1l-77 22c-2 4-5 8-8 12-6 10-13 20-20 29l29-8 0 51-88 24-108-33 11-52 29 7c-4-6-8-12-12-18-5-8-9-15-13-22l-13-3c-4-1-9 0-13 2-4 3-6 6-7 11l-44 215c-1 8 4 17 13 19l161 36c3 1 5 1 8 0l124-36 175 46c1 0 2 0 4 0 3 0 7-1 9-3 4-3 7-7 7-12l11-221c0-7-4-14-11-16z m-243 186l-81 23-141-31 18-90 110 33c4 1 8 1 11 0l83-23z m211 29l-159-42c-2 0-3 0-4 0-2 0-3 0-5 0l-2 1 0-87 11-3 164 36z m7-136l-162-36c-3-1-6-1-10 0l-5 1 0-50 39-11 141 44z m-306-34c2 0 5-1 6-3 21-25 90-113 90-156 0-53-43-96-96-96-53 0-96 43-96 96 0 43 68 131 89 156 2 2 4 3 7 3z m-33-165c0-18 15-33 33-33 18 0 33 15 33 33 0 18-15 33-33 33-18 0-33-15-33-33z"/>
    </symbol>

    <symbol id="icon-on-the-beach" viewBox="0 0 512 512">
        <path d="m497 220c-16 0-31-7-45-20-8-8-22-8-31 0-13 13-29 20-45 20-15 0-31-7-44-20-9-8-23-8-31 0-14 13-29 20-45 20-16 0-31-7-45-20-8-8-22-8-31 0-13 13-29 20-44 20-16 0-32-7-45-20-9-8-23-8-31 0-14 13-29 20-45 20-8 0-15 6-15 15l0 137c0 6 3 11 7 13l3 2c29 17 59 30 90 41l0-67c0-25 15-47 37-56l101-44c6-3 12-4 18-4 6 0 12 1 18 4l101 44c22 9 37 31 37 56l0 67c32-11 63-25 93-43 4-2 7-7 7-13l0-137c0-9-7-15-15-15z m-79-164c0 20-17 37-37 37-21 0-37-17-37-37 0-21 16-37 37-37 20 0 37 16 37 37z m-286 295l247 0c0 0 1 0 1 0-2-8-9-15-17-19l-101-44c-4-1-8-1-12 0l-101 44c-8 4-14 11-17 19 0 0 0 0 0 0z m250 30c-1 0-2 0-3 0l-247 0c0 0-1 0-2 0l0 80c0 18 14 32 32 32l23 0 0-81 42 0 0 81 123 0c18 0 32-14 32-32z m-47 69l-50 0 0-38 50 0z m-320-273c22 0 42-8 60-23 18 15 39 23 61 23 21 0 42-8 60-23 18 15 38 23 60 23 22 0 42-8 60-23 18 15 39 23 60 23 22 0 43-8 61-23 18 15 38 23 60 23 8 0 15-6 15-15 0-8-7-15-15-15-16 0-31-6-45-19-8-8-22-8-31 0-13 13-29 19-45 19-15 0-31-6-44-19-9-8-23-8-31 0-14 13-29 19-45 19-16 0-31-6-45-19-8-8-22-8-31 0-13 13-29 19-44 19-16 0-32-6-45-19-9-8-23-8-31 0-14 13-29 19-45 19-8 0-15 7-15 15 0 9 7 15 15 15z"/>
    </symbol>

    <symbol id="icon-open-map" viewBox="0 0 512 512">
        <path d="m405 405l-298 0 0-298 149 0 0-43-149 0c-24 0-43 19-43 43l0 298c0 24 19 43 43 43l298 0c24 0 43-19 43-43l0-149-43 0z m-106-341l0 43 76 0-209 209 30 30 209-209 0 76 43 0 0-149z"/>
    </symbol>

    <symbol id="icon-parking" viewBox="0 0 512 512">
        <path d="m455 0l-398 0c-31 0-57 26-57 57l0 398c0 31 26 57 57 57l398 0c31 0 57-26 57-57l0-398c0-31-26-57-57-57z m-262 296l0 102-51 0 0-284 123 0c42 0 62 8 79 25 20 17 26 40 26 66 0 28-9 51-26 65-17 14-37 23-79 23l-72 0z m0-40l0-102 66 0c20 0 34 5 43 17 8 11 14 20 14 34 0 17-6 25-14 37-9 8-20 14-40 14z"/>
    </symbol>

    <symbol id="icon-pet-friendly" viewBox="0 0 512 512">
        <path d="m342 271c-23-36-62-57-105-57-42 0-82 21-105 57l-55 87c-9 14-14 31-12 48 1 17 7 33 18 46 11 13 26 22 43 25 16 4 34 3 49-4l1-1c40-17 84-16 124 1 10 4 21 6 31 6 6 0 12 0 18-2 17-3 31-12 42-25 12-13 18-29 19-46 1-17-3-34-12-48z m-250 0c16-6 29-19 35-37 6-17 6-36-1-54-7-18-19-32-35-41-17-9-35-11-52-4-33 13-48 54-34 91 12 30 39 49 66 49 7 0 14-1 21-4z m108-68c41 0 75-38 75-85 0-48-34-86-75-86-42 0-76 38-76 86 0 47 34 85 76 85z m129 21l1 0c6 3 12 4 19 4 30 0 60-22 71-56 6-20 6-40-1-58-8-19-22-33-40-39-18-6-37-3-55 7-16 10-29 27-35 46-14 41 4 84 40 96z m159-10l0 0c-29-21-72-12-95 21-24 32-21 76 8 97 10 8 23 11 35 11 22 0 45-11 60-31 24-33 20-76-8-98z"/>
    </symbol>

    <symbol id="icon-sailing" viewBox="0 0 512 512">
        <path d="m504 236c-6-6-13-9-21-9-8 0-15 3-20 9-2 1-4 3-5 5l-37 0c-3-34-17-66-38-91l24-23c2 0 4 1 6 1 16 0 29-13 29-29 0-16-13-29-29-29-15 0-28 13-28 29 0 2 0 4 0 6l-23 24c-25-21-57-35-91-38l0-37c2-1 4-3 5-5 6-5 9-12 9-20 0-8-3-15-9-21-5-5-12-8-20-8-8 0-15 3-20 8-6 6-9 13-9 21 0 8 3 15 9 20 1 2 3 4 5 5l0 37c-34 3-66 17-91 38l-23-24c0-2 1-4 1-6 0-16-13-29-29-29-16 0-29 13-29 29 0 16 13 29 29 29 2 0 4-1 6-1l24 23c-21 25-35 57-38 91l-37 0c-1-2-3-4-5-5-5-6-12-9-20-9-8 0-15 3-21 9-11 11-11 29 0 40 6 6 13 9 21 9 8 0 15-3 20-9 2-1 4-3 5-5l37 0c3 34 17 66 38 91l-24 23c-2 0-4-1-6-1-16 0-29 13-29 29 0 16 13 29 29 29 16 0 29-13 29-29 0-2-1-4-1-6l23-24c25 21 57 35 91 38l0 37c-2 1-4 3-5 5-6 5-9 12-9 20 0 8 3 15 9 21 5 5 12 8 20 8 8 0 15-3 20-8 6-6 9-13 9-21 0-8-3-15-9-20-1-2-3-4-5-5l0-37c35-3 66-17 91-38l23 24c0 2 0 4 0 6 0 16 13 29 28 29 16 0 29-13 29-29 0-16-13-29-29-29-2 0-4 1-6 1l-24-23c21-25 35-57 38-91l37 0c1 2 3 4 5 5 5 6 12 9 20 9 8 0 15-3 21-9 11-11 11-29 0-40z m-169-38c9 13 16 27 18 43l-60 0z m-64 22l0-61c16 3 31 9 43 18z m-30 0l-43-43c12-9 27-15 43-18z m-21 21l-61 0c2-16 9-30 18-43z m0 30l-43 43c-9-12-16-27-18-43z m21 22l0 60c-16-2-30-9-43-18z m30-1l43 43c-12 9-27 16-43 18z m21-21l61 0c-2 16-9 31-18 43z"/>
    </symbol>

    <symbol id="icon-safe" viewBox="0 0 512 512">
        <path d="m458 0l-404 0c-23 0-41 18-41 41l0 405c0 21 17 39 38 40l0 11c0 8 6 15 14 15l42 0c8 0 14-7 14-15l0-11 266 0 0 11c0 8 6 15 14 15l41 0c8 0 15-7 15-15l0-11 1 0c23 0 41-18 41-40l0-405c0-23-18-41-41-41z m-1 405c0 22-17 39-39 39l-329 0c-21 0-38-17-38-39l0-327c0-21 17-39 38-39l329 0c22 0 39 18 39 39z m-252-163c0 19-15 34-33 34-19 0-34-15-34-34 0-18 15-33 34-33 18 0 33 15 33 33z m213-174l-329 0c-5 0-9 5-9 10l0 327c0 6 4 10 9 10l329 0c6 0 10-4 10-10l0-327c0-5-4-10-10-10z m-246 237c-35 0-63-28-63-63 0-34 28-62 63-62 34 0 62 28 62 62 0 35-28 63-62 63z m115 0l-7 0c-8 0-15-6-15-14 0-8 7-15 15-15l7 0c8 0 15 7 15 15 0 8-7 14-15 14z m0-47l-7 0c-8 0-15-7-15-15 0-8 7-14 15-14l7 0c8 0 15 6 15 14 0 8-7 15-15 15z m0-48l-7 0c-8 0-15-6-15-14 0-8 7-15 15-15l7 0c8 0 15 7 15 15 0 8-7 14-15 14z m50 95l-7 0c-9 0-15-6-15-14 0-8 6-15 15-15l7 0c8 0 14 7 14 15 0 8-6 14-14 14z m0-47l-7 0c-9 0-15-7-15-15 0-8 6-14 15-14l7 0c8 0 14 6 14 14 0 8-6 15-14 15z m0-48l-7 0c-9 0-15-6-15-14 0-8 6-15 15-15l7 0c8 0 14 7 14 15 0 8-6 14-14 14z m49 95l-7 0c-8 0-15-6-15-14 0-8 7-15 15-15l7 0c8 0 15 7 15 15 0 8-7 14-15 14z m0-47l-7 0c-8 0-15-7-15-15 0-8 7-14 15-14l7 0c8 0 15 6 15 14 0 8-7 15-15 15z m0-48l-7 0c-8 0-15-6-15-14 0-8 7-15 15-15l7 0c8 0 15 7 15 15 0 8-7 14-15 14z"/>
    </symbol>

    <symbol id="icon-round-trip-r-active" viewBox="0 0 512 512">
        <path d="m170 256l0 64 150 0 0 43-150 0 0 64-85-86z m172-171l85 86-85 85 0-64-150 0 0-43 150 0z"/>
    </symbol>

    <symbol id="icon-round-trip-l-active" viewBox="0 0 512 512">
        <path d="m342 256l0 64-150 0 0 43 150 0 0 64 85-86z m-172-171l-85 86 85 85 0-64 150 0 0-43-150 0z"/>
    </symbol>

    <symbol id="icon-room-service" viewBox="0 0 512 512">
        <path d="m226 0l60 0 0 30-60 0z m-226 287l60 0 0 225-60 0z m420 28c5-3 8-8 8-14-1-8-7-14-15-14-2 0-4 0-6 1l0 0-134 56c-5 2-11 3-17 3l-127 0 0-30 127 0c8 0 15-7 15-15 0-8-7-15-15-15l-166 0 0 135 135 0z m92-118l-512 0c0 33 27 60 60 60l392 0c33 0 60-27 60-60z m-103-106c-10-19-30-31-52-31l-202 0c-22 0-42 12-52 31l-43 76 392 0z"/>
    </symbol>

    <symbol id="icon-road-dark" viewBox="0 0 512 512">
        <path d="m397 141c-31 0-60 12-81 33l-60 53-32 29 0 0-58 51c-13 14-31 21-51 21-40 0-72-32-72-72 0-40 32-72 72-72 20 0 38 7 52 22l24 21 33-28-27-24c-22-22-51-34-82-34-63 0-115 52-115 115 0 63 52 115 115 115 31 0 60-12 81-33l60-53 0 0 32-29 0 0 58-51c13-14 31-21 51-21 40 0 72 32 72 72 0 40-32 72-72 72-19 0-38-7-52-22l-25-21-32 28 27 24c22 22 51 34 82 34 63 0 115-52 115-115 0-64-52-115-115-115z"/>
    </symbol>

    <symbol id="icon-reviews" viewBox="0 0 512 512">
        <path d="m494 432l-59-126c-33 47-83 81-142 91l49 105c7 14 26 13 31-1l25-69 6-3 69 26c14 5 27-10 21-23z m-238-432c-101 0-184 82-184 184 0 101 83 183 184 183 101 0 184-82 184-183 0-102-83-184-184-184z m89 170l-32 32 7 45c3 13-12 24-24 17l-40-21-40 21c-12 7-27-4-24-17l7-45-32-32c-10-10-5-26 9-28l45-7 20-41c6-12 24-12 30 0l20 41 45 7c14 2 19 18 9 28z m-268 136l-59 126c-6 13 7 28 21 23l69-26 6 3 25 69c5 14 24 15 31 1l49-105c-59-10-109-44-142-91z"/>
    </symbol>

    <symbol id="icon-restaurant" viewBox="0 0 512 512">
        <path d="m256 0c-17 0-31 14-31 31l0 123c0 5-4 10-10 10-6 0-10-5-10-10l0-123c0-17-14-31-31-31-17 0-31 14-31 31l0 123c0 5-4 10-10 10-6 0-10-5-10-10l0-123c0-17-14-31-31-31-17 0-31 14-31 31l0 143c0 47 30 89 74 106 4 1 7 6 7 10l-19 165c0 4 0 8 0 12 2 14 10 28 22 36 9 6 19 9 29 9 5 0 10-1 14-2 24-7 40-31 37-57l-18-163c-1-4 2-9 6-10 44-17 74-59 74-106l0-143c0-17-14-31-31-31z m164 0c-15 0-28 11-30 26-4 21-42 209-42 230 0 25 18 45 41 50l0 175c0 17 14 31 31 31 17 0 31-14 31-31l0-450c0-17-14-31-31-31z"/>
    </symbol>

    <symbol id="icon-radio" viewBox="0 0 512 512">
        <path d="m297 104c-7 7-7 18 0 24 6 7 17 7 24 0 13-13 31-20 50-20 19 0 37 7 50 20 4 4 8 5 12 5 5 0 9-1 12-5 7-6 7-17 0-24-19-20-46-30-74-30-28 0-54 10-74 30z m-39-22c5 0 9-1 13-5 26-27 62-41 100-41 38 0 74 14 101 41 6 7 17 7 24 0 6-6 6-17 0-24-34-33-78-51-125-51-47 0-91 18-125 51-6 7-6 18 0 24 4 4 8 5 12 5z m190 119l-51 0 0-30c0-14-12-26-26-26-14 0-26 12-26 26l0 30-282 0c-35 0-63 28-63 63l0 183c0 35 28 63 63 63l385 0c35 0 64-28 64-63l0-183c0-35-29-63-64-63z m-368 196c-5-8-8-18-9-29l23 0 0 29z m40-29l29 0 0 29-29 0z m0-25l0-29 29 0 0 29z m55 25l29 0 0 29-29 0z m0-25l0-29 29 0 0 29z m54-29l14 0c5 9 8 18 10 29l-24 0z m-25-26l-29 0 0-22c10 1 20 4 29 9z m-55 0l-29 0 0-13c9-5 19-8 29-9l0 22z m-55 26l0 29-23 0c2-11 5-20 10-29z m26 109l29 0 0 24c-10-1-20-4-29-9z m55 0l29 0 0 15c-9 5-19 8-29 9z m54-26l0-29 24 0c-1 11-4 21-9 29z m178 46c-20 0-36-16-36-36 0-20 16-36 36-36 20 0 37 16 37 36 0 20-17 36-37 36z m0-102c-20 0-36-17-36-37 0-20 16-36 36-36 20 0 37 16 37 36 0 20-17 37-37 37z"/>
    </symbol>

    <symbol id="icon-pub" viewBox="0 0 512 512">
        <path d="m413 198l-54 0 0-9c18-13 29-34 29-58 0-34-25-64-58-70-9-35-42-61-80-61-21 0-41 8-57 22-5-1-11-2-16-2-27 0-51 17-61 40-1 0-3 0-4 0-40 0-72 32-72 71 0 22 10 41 25 55l0 295c0 17 15 31 32 31l231 0c17 0 31-14 31-31l0-46 54 0c32 0 59-26 59-58l0-121c0-32-27-58-59-58z m-96-35l-183 0 0 64c0 11-9 19-20 19-11 0-19-8-19-19l0-69c-9-6-15-16-15-27 0-17 14-31 32-31 4 0 8 0 11 2 6 2 13 1 18-2 5-3 9-9 9-15 1-14 13-25 27-25 4 0 8 1 12 3 9 5 20 2 26-6 8-11 21-17 35-17 23 0 42 18 43 41 1 5 3 10 7 14 4 3 9 5 15 5 1 0 1 0 2 0 17 0 32 14 32 31 0 18-15 32-32 32z m100 214c0 2-2 4-4 4l-54 0 0-129 54 0c2 0 4 2 4 4z"/>
    </symbol>

    <symbol id="icon-profile" viewBox="0 0 512 512">
        <path d="m256 0c-141 0-256 115-256 256 0 141 115 256 256 256 141 0 256-115 256-256 0-141-115-256-256-256z m-126 417c11-23 78-46 126-46 48 0 115 23 126 46-35 27-78 44-126 44-48 0-91-17-126-44z m289-37c-37-45-126-60-163-60-37 0-126 15-163 60-26-35-42-77-42-124 0-113 92-205 205-205 113 0 205 92 205 205 0 47-16 89-42 124z m-163-278c-50 0-90 40-90 90 0 50 40 90 90 90 50 0 90-40 90-90 0-50-40-90-90-90z m0 128c-21 0-38-17-38-38 0-21 17-38 38-38 21 0 38 17 38 38 0 21-17 38-38 38z"/>
    </symbol>

    <symbol id="icon-private-beach" viewBox="0 0 512 512">
        <path d="m140 425l26 18 346 0 0-18z m182 70l103 0 0 17-103 0z m-35-35l173 0 0 17-173 0z m141-193c31 30 31 80 0 110-30 30-80 30-110 0-30-30-30-80 0-110 30-31 80-31 110 0z m-344 147c51-85 82-180 90-279l93 94c15-29 9-65-14-88l-8-8c-5-6-12-10-19-14l87 0c-10-31-39-52-71-52l-12 0c-8 0-17 1-25 4l63-62c-30-15-65-9-88 14l-8 8c-6 6-11 12-14 19-4-7-8-13-14-19l-8-8c-23-24-58-29-87-15l61 63c-8-3-16-4-24-4l-12-1c-33 0-62 21-72 52l87 0c-7 4-14 9-19 14l-8 8c-24 23-30 59-15 88l92-91c-6 95-41 186-99 261-13-4-26-7-39-9l-1 113 199 1 0-1c-31-37-70-68-115-88z m-23 80l-18 0 0-18 18 0z m52-17l-18 0 0-18 18 0z"/>
    </symbol>

    <symbol id="icon-plus" viewBox="0 0 512 512">
        <path d="m512 293l-219 0 0 219-74 0 0-219-219 0 0-74 219 0 0-219 74 0 0 219 219 0z"/>
    </symbol>

    <symbol id="icon-satellite-tv" viewBox="0 0 512 512">
        <path d="m442 64c18 0 32-14 32-32 0-18-14-32-32-32-17 0-32 14-32 32 0 7 3 12 6 17l-160 107-144-144c-9-9-24-12-36-7-13 5-21 17-21 31 1 95 36 189 107 261 71 71 165 106 261 106 13 0 25-8 31-21 5-12 2-26-8-36l-128-128 107-160c5 4 11 6 17 6z m-224 335c-1-4-4-8-8-10-29-16-56-36-80-60l-1-1-1 1-88 159c-3 5-3 11 0 16 3 5 8 8 14 8l175 0c5 0 10-2 13-6 3-4 4-10 3-14z"/>
    </symbol>

    <symbol id="icon-search" viewBox="0 0 512 512">
        <path d="m356 313l-23 0-8-8c28-32 45-74 45-120 0-102-83-185-185-185-102 0-185 83-185 185 0 102 83 185 185 185 46 0 88-17 120-45l8 8 0 23 142 141 42-42z m-171 0c-71 0-128-57-128-128 0-71 57-128 128-128 71 0 128 57 128 128 0 71-57 128-128 128z"/>
    </symbol>

    <symbol id="icon-seat" viewBox="0 0 512 512">
        <path d="m114 120c-19-13-24-40-10-59 13-19 40-24 59-11 19 14 24 40 11 60-14 19-40 24-60 10z m227 285l-150 0c-32 0-59-23-64-54l-42-202-42 0 42 209c8 52 53 90 106 90l150 0z m5-85l-104 0-22-87c34 19 70 32 110 26l0-46c-35 7-73-6-100-27l-35-27c-5-3-10-6-16-8-7-2-14-2-21-1l-1 0c-26 5-44 30-39 56l29 126c6 30 32 52 63 52l146 0 81 64 32-32z"/>
    </symbol>

    <symbol id="icon-ski" viewBox="0 0 512 512">
        <path d="m480 143c25-12 35-42 23-66-12-24-42-35-66-23-25 12-35 42-23 66 12 25 42 35 66 23z m-134 64c-4 19-2 36 17 41 0 0 88 24 88 24l0 0c15 4 29-4 33-18 4-15-4-29-19-33 0 0 0 0 0 0l-44-12-18-12c5-26 3-17 8-40 3-13-7-28-12-39-11-21-36-30-57-20l-29 15 46 31c-1 4-3 17-4 21l-207-139c-9-6-22-3-28 6-6 9-3 21 6 27z m163 231c-5-9-17-12-27-7l-27 17-180-62 85-72c16-13 15-39-2-51l-47-35 17-8 2-1-100-66 0 0c-16 8-27 23-29 40-4 21 5 39 25 54l60 44-82 70-178-61c-10-4-21 2-25 12-3 11 2 22 12 25l438 151c2 1 4 1 6 1 4 0 7-1 10-3l35-21c10-5 13-18 7-27z"/>
    </symbol>

    <symbol id="icon-ski-to-door-access" viewBox="0 0 512 512">
        <path d="m499 413l-4 0 0-17c0-56-29-75-73-92 0-2 0-4-1-5-1-4-4-6-7-8l-51-20c-6-2-12 0-16 4-1-1-3-2-4-3 0-1 1-2 1-3 1-3 1-7-1-10l-25-49c-3-6-9-8-15-7 0-2-1-3-1-4 6-2 10-7 10-13l0-56c0-6-4-11-9-13 0-11 2-23 3-36 0-4-1-8-4-11-2-2-4-3-6-4l15-47c2-4 1-9-2-12-2-4-6-6-10-6 0 0-2 0-4 0-18 0-98 2-152 35-30-16-49-32-50-32-3-3-8-4-13-3-4 2-8 5-9 10-6 24-15 62-23 106-5 1-10 5-11 11l-10 55c-1 4 0 8 3 11 1 2 2 3 4 4-10 62-17 126-17 173l0 42-3 0c-7 0-14 6-14 14l0 71c0 7 7 13 14 13l191 0c4 0 9-2 11-6 9-14 24-22 40-22 16 0 30 8 39 22 3 4 7 6 12 6l192 0c7 0 13-6 13-13l0-71c0-8-6-14-13-14z m-124-57l-30 0 21-53 25 10z m-91-212l0 28-227 0 5-28z m28 115l-102 54 0-31 89-47z m-45-193c-18-1-46-3-71-9-8-2-15-4-21-7 36-16 80-20 104-21z m-69 418l-170 0 0-43 456 0 0 43-170 0c-14-18-35-28-58-28-23 0-44 10-58 28z"/>
    </symbol>

    <symbol id="icon-smoke-free" viewBox="0 0 512 512">
        <path d="m12 98l171 170-171 0 0 73 244 0 170 171 31-30-414-415z m451 170l37 0 0 73-37 0z m-61 0l37 0 0 73-37 0z m21-198c15-15 24-35 24-58l-36 0c0 25-20 45-45 45l0 37c54 0 97 44 97 99l0 51 37 0 0-51c0-54-31-101-77-123z m-106 93l37 0c26 0 48 18 48 50l0 31 37 0 0-39c0-44-39-77-85-77l-37 0c-25 0-45-24-45-49 0-25 20-42 45-42l0-37c-45 0-82 37-82 82 0 45 37 81 82 81z m61 177l0-72-72 0z"/>
    </symbol>

    <symbol id="icon-spa" viewBox="0 0 512 512">
        <path d="m345 195c-4-71-33-141-87-195-55 55-85 124-91 195 32 18 63 40 89 68 26-27 57-50 89-68z m-166 68c-4-2-8-5-12-7 4 3 8 5 12 7z m164-6c-3 2-7 4-10 6 3-2 7-4 10-6z m-87 87c-55-84-149-139-256-139 0 136 86 251 206 294 16 6 33 10 50 13 17-3 34-7 50-13 120-43 206-158 206-294-107 0-201 55-256 139z"/>
    </symbol>

    <symbol id="icon-sports" viewBox="0 0 512 512">
        <path d="m277 41c6-7 5-24 4-38 0-1 0-1 0-2-8-1-17-1-25-1-32 0-62 6-90 17 20 9 51 26 85 50 12-10 21-19 26-26z m129 146c-12 2-23 4-32 7 44 76 61 172 65 241 43-44 70-103 73-169-30-36-69-83-106-79z m-258-65c30-7 59-22 82-38-48-33-88-50-95-53-50 26-90 69-113 121 30-12 63-18 95-24 10-2 21-4 31-6z m177 7c2 3 5 6 8 9 10 10 19 22 27 34 12-5 27-8 44-10 40-5 75 27 106 62-7-53-29-101-63-139-19 3-39 6-60 13-14 4-36 15-62 31z m-34 132c11-35 23-61 46-77-7-11-14-20-23-29-3-4-7-8-11-11-95 64-224 182-236 285 39 42 93 72 154 80 22-44 43-133 55-186 6-25 11-47 15-62z m-107-56c33-30 68-58 100-79-11-10-22-18-32-26-27 19-61 39-99 47-10 2-21 4-32 6-40 8-79 15-111 33-6 22-10 46-10 70 0 54 17 105 46 146 19-74 83-146 138-197z m122-94c30-19 56-33 73-38 16-5 31-8 45-10-33-29-73-49-117-58 1 18 1 38-10 52-5 7-14 16-25 26 11 8 22 18 34 28z m10 158c-4 13-9 35-15 60-17 74-34 140-53 183 3 0 5 0 8 0 60 0 115-21 158-55-2-73-19-175-63-252-17 13-26 33-35 64z"/>
    </symbol>

    <symbol id="icon-star" viewBox="0 0 512 512">
        <path d="m256 397l158 115-60-186 158-113-194 0-62-192-62 192-194 0 158 113-60 186z"/>
    </symbol>

    <symbol id="icon-stereo" viewBox="0 0 512 512">
        <path d="m231 50l-79 0c-5 0-9 4-9 9l0 344c0 5 4 9 9 9l26 0 0 11-15 0c-2 0-4 2-5 4l-9 27c0 2 0 4 1 5 1 2 3 3 4 3l74 0c1 0 1 0 1 0 3 0 5-3 5-6 0-1 0-2 0-2l-9-27c-1-2-3-4-5-4l-16 0 0-11 27 0c4 0 9-4 9-9l0-344c0-5-5-9-9-9z m-40 262c-14 0-26-12-26-26 0-15 12-26 26-26 15 0 26 11 26 26 0 14-11 26-26 26z m0-78c-14 0-26-12-26-26 0-15 12-26 26-26 15 0 26 11 26 26 0 14-11 26-26 26z m0-78c-14 0-26-12-26-26 0-15 12-26 26-26 15 0 26 11 26 26 0 14-11 26-26 26z m169-106l-79 0c-4 0-9 4-9 9l0 344c0 5 5 9 9 9l27 0 0 11-16 0c-2 0-4 2-5 4l-9 27c0 2 0 4 1 5 1 2 3 3 5 3l74 0c0 0 0 0 0 0 3 0 5-3 5-6 0-1 0-2 0-2l-9-27c-1-2-3-4-5-4l-15 0 0-11 26 0c5 0 9-4 9-9l0-344c0-5-4-9-9-9z m-39 262c-15 0-26-12-26-26 0-15 11-26 26-26 14 0 26 11 26 26 0 14-12 26-26 26z m0-78c-15 0-26-12-26-26 0-15 11-26 26-26 14 0 26 11 26 26 0 14-12 26-26 26z m0-78c-15 0-26-12-26-26 0-15 11-26 26-26 14 0 26 11 26 26 0 14-12 26-26 26z m128 0c-5-2-11 0-13 5-2 4 0 10 5 12 32 14 52 46 52 80 0 35-20 66-52 80-5 2-7 8-5 13 2 3 5 5 9 5 1 0 3 0 4 0 38-18 63-56 63-98 0-42-25-80-63-97z m20 97c0-24-13-45-34-56-4-3-10-1-12 4-3 4-1 10 4 13 14 7 24 23 24 39 0 18-11 35-28 42-5 2-7 7-5 12 1 4 5 6 8 6 2 0 3 0 4-1 24-10 39-33 39-59z m-398 80c-32-14-52-45-52-80 0-34 20-66 52-80 5-2 7-8 5-12-2-5-8-7-13-5-38 17-63 55-63 97 0 42 25 80 63 98 1 0 3 0 4 0 4 0 7-2 9-5 2-5 0-11-5-13z m18-38c-17-7-28-24-28-42 0-16 10-32 24-39 5-3 7-9 4-13-2-5-8-7-12-4-21 11-34 32-34 56 0 26 15 49 39 59 1 1 2 1 4 1 3 0 7-2 8-6 2-5 0-10-5-12z"/>
    </symbol>

    <symbol id="icon-sugg-location" viewBox="0 0 512 512">
        <path d="m293 37c-122 0-220 98-220 219l-73 0 95 95 2 3 98-98-73 0c0-94 76-171 171-171 94 0 170 77 170 171 0 94-76 171-170 171-47 0-90-20-121-51l-34 35c39 40 94 64 155 64 121 0 219-98 219-219 0-121-98-219-219-219z m-25 121l0 122 105 62 17-29-85-51 0-104z"/>
    </symbol>

    <symbol id="icon-supermarket" viewBox="0 0 512 512">
        <path d="m360 145l45 0-67-114c-5-9-17-13-26-7-10 5-13 17-7 26z m-153-95c6-9 3-21-6-26-10-5-22-2-27 7l-66 114 44 0z m272 130l-446 0c-18 0-33 15-33 33l0 36c0 19 15 33 33 33l10 0 32 172c4 21 22 37 42 37l95 0c9 0 19 0 31 0l20 0c11 0 22 0 30 0l96 0c19 0 37-16 41-37l32-172 17 0c18 0 33-15 33-33l0-36c0-18-15-33-33-33z m-297 172l0 74c0 11-9 19-19 19-11 0-19-9-19-19l0-104c0-10 9-18 19-18 11 0 19 8 19 18z m59 0l0 74c0 11-8 19-18 19-11 0-19-9-19-19l0-104c0-10 9-18 19-18 10 0 18 8 18 18z m60 43l0 31c0 10-8 19-18 19-10 0-19-8-19-19l0-104c0-10 9-18 19-18 10 0 18 8 18 18z m60 0l0 31c0 10-8 19-19 19-10 0-18-8-18-19l0-104c0-10 8-18 18-18 10 0 19 8 19 18z"/>
    </symbol>

    <symbol id="icon-swimming-pool" viewBox="0 0 512 512">
        <path d="m205 154l-83 83c8 3 14 7 19 10 10 6 16 9 30 9 14 0 20-3 29-9 12-7 28-17 56-17 28 0 44 10 56 17 9 6 15 9 29 9 14 0 20-3 30-9 3-2 6-4 10-6l-164-164c-40-40-76-52-140-51l0 64c46-1 74 10 102 38z m277 157c-11-7-27-17-56-17-28 0-44 10-55 17-10 6-16 9-30 9-14 0-20-3-29-9-12-7-28-17-56-17-28 0-44 10-56 17-9 6-15 9-29 9-15 0-20-3-30-9-11-7-27-17-56-17-28 0-44 10-55 17-10 6-16 9-30 9l0 51c28 0 44-9 56-16 9-6 15-9 29-9 15 0 20 3 30 9 11 7 27 16 56 16 28 0 44-9 56-16 9-6 15-9 29-9 14 0 20 3 30 9 11 7 27 16 56 16 28 0 44-9 55-16 10-6 16-9 30-9 14 0 20 3 29 9 12 7 28 16 56 16l0-51c-14 0-20-3-30-9z m-56 99c-28 0-44 9-55 16-10 6-16 9-30 9-14 0-20-3-29-9-12-7-28-16-56-16-28 0-44 9-56 16-9 6-15 9-29 9-15 0-20-3-30-9-11-7-27-16-56-16-28 0-44 9-55 16-10 6-16 9-30 9l0 51c28 0 44-9 56-16 9-6 15-9 29-9 15 0 20 3 30 9 11 7 27 16 56 16 28 0 44-9 56-16 9-6 15-9 29-9 14 0 20 3 30 9 11 7 27 16 56 16 28 0 44-9 55-16 10-6 16-9 30-9 14 0 20 3 29 9 12 7 28 16 56 16l0-51c-14 0-20-3-30-9-11-7-27-16-56-16z m9-320c0 35-28 64-64 64-35 0-64-29-64-64 0-36 29-64 64-64 36 0 64 28 64 64z"/>
    </symbol>

    <symbol id="icon-veg-friendly" viewBox="0 0 512 512">
        <path d="m0 240c7 92 68 173 160 207l0 34c0 9 7 16 16 16l160 0c9 0 16-7 16-16l0-34c92-34 153-115 160-207z m393-161c-19-20-45-32-73-32-28 0-54 12-72 32-8 1-16 3-24 6l0-54c0-9-7-16-16-16-55 0-100 38-111 90l-10-11c-4-3-8-5-12-5-4 0-8 2-11 5-31 31-40 75-27 114l34 0c-12-25-10-55 5-79l22 22 57 57 117 0-26-20c-7-5-8-15-3-22 5-7 16-9 23-3l38 29 0-32c0-9 7-17 16-17 9 0 16 8 16 17l0 32 39-29c7-6 17-4 23 3 5 7 3 17-4 22l-25 20 106 0c4-11 6-21 6-32 0-51-39-93-88-97z m-201 120l-64-64c-1-2-1-5-1-8 0-39 28-71 65-78z"/>
    </symbol>

    <symbol id="icon-user" viewBox="0 0 512 512">
        <path d="m349 233c39 0 70-31 70-70 0-39-31-70-70-70-39 0-70 31-70 70 0 39 31 70 70 70z m-186 0c39 0 69-31 69-70 0-39-30-70-69-70-39 0-70 31-70 70 0 39 31 70 70 70z m0 46c-54 0-163 28-163 82l0 58 326 0 0-58c0-54-109-82-163-82z m186 0c-7 0-14 1-22 1 27 20 45 46 45 81l0 58 140 0 0-58c0-54-109-82-163-82z"/>
    </symbol>

    <symbol id="icon-transfer" viewBox="0 0 512 512">
        <path d="m154 102c42 0 76 35 76 77 0 43-34 77-76 77-43 0-77-34-77-77 0-42 34-77 77-77z m153 308l-307 0 0-26c0-51 102-79 154-79 51 0 153 28 153 79z m128-77l0 77-51 0 0-77z m77-26l-205 0 0-128 205 0z"/>
    </symbol>

    <symbol id="icon-visa-card-icon" viewBox="0 0 512 512">
        <path d="m206 171l-26 160 42 0 26-160z m-61 0l-39 110-5-24 0 0-1-5c-5-10-16-30-37-47-6-5-12-9-18-12l36 138 43 0 66-160z m163 45c0-18 40-16 58-6l6-35c0 0-18-7-37-7-21 0-70 9-70 53 0 42 58 42 58 64 0 21-52 18-69 4l-6 36c0 0 18 9 47 9 28 0 71-15 71-55 0-41-58-45-58-63z m170-45l-34 0c-15 0-19 12-19 12l-62 148 43 0 9-24 53 0 5 24 38 0z m-51 103l22-59 12 59z m-339-88c0 0-2-14-20-14l-67 0-1 3c0 0 32 6 63 31 29 23 39 52 39 52z"/>
    </symbol>

    <symbol id="icon-total" viewBox="0 0 512 512">
        <path d="m410 384l-308 0 0-51 308 0z m0-102l-308 0 0-52 308 0z m0-103l-308 0 0-51 308 0z m-384 333l38-38 38 38 39-38 38 38 39-38 38 38 38-38 39 38 38-38 39 38 38-38 38 38 0-512-38 38-38-38-39 38-38-38-39 38-38-38-38 38-39-38-38 38-39-38-38 38-38-38z"/>
    </symbol>

    <symbol id="icon-tooltip-small" viewBox="0 0 512 512">
        <path d="m256 0c-141 0-256 115-256 256 0 141 115 256 256 256 141 0 256-115 256-256 0-141-115-256-256-256z m0 449c-107 0-193-86-193-193 0-107 86-193 193-193 107 0 193 86 193 193 0 107-86 193-193 193z m-31-221l62 0 0 165-62 0z m0-109l62 0 0 61-62 0z"/>
    </symbol>

    <symbol id="icon-warning" viewBox="0 0 512 512">
        <path d="m21 448l470 0-235-405z m256-64l-42 0 0-43 42 0z m0-85l-42 0 0-86 42 0z"/>
    </symbol>

    <symbol id="icon-to" viewBox="0 0 512 512">
        <path d="m96 352l160 160 160-160z m0-192l160-160 160 160z"/>
    </symbol>

    <symbol id="icon-timeline-start-icon" viewBox="0 0 512 512">
        <path d="m427 256l-30-30-120 119 0-260-42 0 0 260-119-119-31 30 171 171z"/>
    </symbol>

    <symbol id="icon-timeline-end-icon" viewBox="0 0 512 512">
        <path d="m307 128l-8-43-192 0 0 363 42 0 0-149 120 0 8 42 150 0 0-213z"/>
    </symbol>

    <symbol id="icon-tiled" viewBox="0 0 512 512">
        <path d="m507 268l-126-76 0 0-20-11 18-12c3-2 5-5 5-9 0-4-2-7-5-9l-117-75c-4-2-8-2-12 0l-117 75c-3 2-5 5-5 9 0 4 2 7 5 9l18 12-20 11 0 0-126 76c-3 2-5 6-5 9 0 4 2 8 5 9l245 150c2 1 4 1 6 1 2 0 4 0 6-1l245-150c3-1 5-5 5-9 0-3-2-7-5-9z m-371 73l-105-64 106-63 99 63z m120-76l-99-63 14-9 79 51c2 1 4 1 6 1 2 0 4 0 6-1l79-51 14 9z m120 76l-100-64 99-63 106 63z"/>
    </symbol>

    <symbol id="icon-tennis" viewBox="0 0 512 512">
        <path d="m352 129c0 22-18 40-40 40-22 0-40-18-40-40 0-23 18-41 40-41 22 0 40 18 40 41z m50-104c0 13-11 25-25 25-13 0-25-12-25-25 0-14 12-25 25-25 14 0 25 11 25 25z m30 135l13-91c1-9-5-17-15-19-9-1-17 6-18 15l-12 83-55 30-64 17-66 29-40-23-26-60 3-26 0 0c6-14 5-32-2-50-13-28-40-44-61-35-21 9-28 40-16 69 8 17 21 30 35 35l0 0 21 16 19 44c-3 1-6 4-8 7-4 8-1 18 7 22l18 11 14 31c2 6 9 9 14 6 6-2 9-9 6-15l-2-4 8 5c3 1 6 2 9 2 2 0 4-1 6-1l55-24 24 117-12 63-37 65c-6 10-2 24 8 30 11 6 25 2 31-8l38-68c2-2 3-4 3-7l15-78 10-2 38 56-14 84c-1 12 7 24 19 26 12 2 24-7 25-19l15-93c1-6-1-11-4-16l-33-50-28-133 51-28c5-3 8-7 8-13z m-290-18l-7 3-17-13c0 0 15 0 26-11z"/>
    </symbol>

    <symbol id="icon-tea-coffee-maker" viewBox="0 0 512 512">
        <path d="m491 427l-284 0c-15-25-54-43-100-43-59 0-107 29-107 64 0 35 48 64 107 64 46 0 85-18 100-43l284 0c11 0 21-9 21-21 0-12-10-21-21-21z m-363-171l0 21c0 36 29 64 64 64l128 0c35 0 64-28 64-64l0-21z m320-256l-320 0 0 213 320 0c35 0 64-28 64-64l0-85c0-35-29-64-64-64z m21 149c0 12-9 22-21 22l-64 0 0-128 64 0c12 0 21 9 21 21z"/>
    </symbol>

    <symbol id="icon-washing-machine" viewBox="0 0 512 512">
        <path d="m422 0l-332 0c-31 0-57 26-57 57l0 398c0 31 26 57 57 57l332 0c31 0 57-26 57-57l0-398c0-31-26-57-57-57z m-53 36c15 0 27 12 27 27 0 15-12 27-27 27-15 0-27-12-27-27 0-15 12-27 27-27z m-86 0c15 0 27 12 27 27 0 15-12 27-27 27-14 0-26-12-26-27 0-15 12-27 26-27z m-27 416c-74 0-135-60-135-135 0-74 61-134 135-134 74 0 135 60 135 134 0 75-61 135-135 135z m154-304l-308 0c-9 0-17-8-17-17 0-10 8-17 17-17l308 0c9 0 17 7 17 17 0 9-8 17-17 17z m-154 72c-54 0-97 44-97 97 0 54 43 98 97 98 54 0 97-44 97-98 0-53-43-97-97-97z m0 30c37 0 67 30 67 67 0 10-2 19-5 27-19-4-36-3-57 0-11 2-25-1-35-6-15-9-25-14-37-15 0-2 0-4 0-6 0-37 30-67 67-67z"/>
    </symbol>

    <symbol id="icon-water-sports" viewBox="0 0 512 512">
        <path d="m434 263c50-61 45-140 40-174-2-9-9-23-16-29-34-35-60-50-76-56-9-4-11 0-5 8 11 14 25 41 27 88 3 54-18 119-30 148-3 9 0 22 9 26 32 15 51-11 51-11z m-119-261c-48 9-72 44-76 70 0 3 1 9 2 12 4 9 13 24 27 25 4 1 9-2 11-4 14-14 58-54 100-67 0 0-12-47-64-36z m-157 188c0 19-16 34-35 34-19 0-34-15-34-34 0-19 15-34 34-34 19 0 35 15 35 34z m-74 42l-46 82c-7 13-2 29 10 36l93 56c3 2 8 6 10 9l7 10 0 0c-57 5-81 15-92 23-4 4-6 10-6 14l0 11c0 4 2 11 6 14 11 8 41 23 127 25 3 0 7 0 11 0 86 0 125-25 138-36 3-2 4-5 4-8 0-4-1-7-4-9-12-10-49-34-130-35l-6 0-14-29c-3-5-8-11-12-14l-68-56c-1-1-2-3-1-5l5-7c3 4 8 6 12 6l102 0c0 0 2 0 3 0l33 43c2 2 5 3 7 3 2 0 4-1 6-2 3-3 4-8 1-12l-77-99c-3-4-9-4-12-1-4 2-5 8-2 12l25 31c-3-1-6-1-10-1l-55 0c-7 0-16-2-17-3l-18-40c0 0-2-3-5-6l11 4c0 1 1 2 1 2l13 30 3-4c3-3 3-7 2-11l39-18c4-2 9-8 10-12l26-69c3-9 0-18-7-21-7-2-15 3-18 12l-24 62c-1 4-6 8-10 9l-35 11-17-10c-8-5-15-4-19 3z"/>
    </symbol>

    <symbol id="icon-wellness" viewBox="0 0 512 512">
        <path d="m414 153l-55-55c-6 4-13 7-20 9-20 8-38 20-54 35l-26 26 148 0c2-5 4-10 7-15z m50 31l-352 0c0 0 0 0 0 0l-64 0c-13 0-24 11-24 24 0 13 11 24 24 24l416 0c13 0 24-11 24-24 0-13-11-24-24-24z m-296-16c42-4 76-38 80-80l-32 0c-2 25-13 48-30 66-6 5-12 10-18 14z m269-48l-45-45c-6 6-12 10-19 15l49 49c5-7 10-13 15-19z m17-5c3 3 8 6 14 6 5 0 10-3 14-6 8-8 8-21 0-29l-56-56c-3-4-8-6-14-6-5 0-10 2-14 6-8 8-8 21 0 29z m-286-60c1-5 5-8 9-7 5 1 8 5 7 9-6 33-19 64-40 90l-14 19c16-3 32-11 44-24 17-16 26-38 26-62l0-56c-45 4-80 42-80 88l0 41 12-16c19-24 31-52 36-82z m-64 106l0-37c-26-16-46-39-60-66l-3-6 14-8 3 7c11 21 27 40 46 54 1-11 4-23 8-33-21-28-53-45-88-48l0 24c0 51 32 96 80 113z m49 268c7 3 11 9 13 16 1 7 0 13-3 18-2 3-3 7-3 10 1 8 8 15 17 15l158 0c9 0 16-7 17-15 0-3-1-7-3-10-3-5-4-11-3-18 2-7 6-13 13-16 65-37 105-106 105-181l-416 0c0 75 40 144 105 181z m276-150l16 2c-11 61-50 113-106 140l-6-14c50-25 87-73 96-128z m-157-15l16 0 0 16-16 0z m-16 0l0 16-192 0 0-16z"/>
    </symbol>

    <symbol id="icon-wifi" viewBox="0 0 512 512">
        <path d="m468 195c-117-118-307-118-424 0-11 10-26 10-36 0-11-11-11-26 0-36 138-139 361-139 496 0 11 10 11 25 0 36-10 10-25 10-36 0z m-74 71c-77-74-199-74-274 0-10 10-25 10-36 0-10-10-10-25 0-36 95-97 251-97 346 0 10 11 10 26 0 36-10 10-26 10-36 0z m-71 77c-36-36-93-36-126 0-10 10-25 10-36 0-10-10-10-28 0-38 54-59 144-59 197 0 11 10 11 28 0 38-10 10-25 10-35 0z m-16 67c0 26-22 48-48 48-27 0-49-22-49-48 0-27 22-49 49-49 26 0 48 22 48 49z"/>
    </symbol>

    <symbol id="icon-assignment" viewBox="0 0 512 512">
        <path d="m405 64l-89 0c-9-25-32-43-60-43-28 0-51 18-60 43l-89 0c-24 0-43 19-43 43l0 298c0 24 19 43 43 43l298 0c24 0 43-19 43-43l0-298c0-24-19-43-43-43z m-149 0c12 0 21 10 21 21 0 12-9 22-21 22-12 0-21-10-21-22 0-11 9-21 21-21z m43 299l-150 0 0-43 150 0z m64-86l-214 0 0-42 214 0z m0-85l-214 0 0-43 214 0z"/>
    </symbol>
    <symbol id="icon-trip-bag" viewBox="0 0 512 512">
      <path d="m461 115l-77 0 0-51c0-28-23-51-51-51l-154 0c-28 0-51 23-51 51l0 51-77 0c-28 0-51 23-51 51l0 282c0 28 23 51 51 51l410 0c28 0 51-23 51-51l0-282c0-28-23-51-51-51z m-282-51l154 0 0 51-154 0z m282 384l-410 0 0-51 410 0z m0-128l-410 0 0-154 77 0 0 52 51 0 0-52 154 0 0 52 51 0 0-52 77 0z"/>
    </symbol>
    <symbol id="icon-flight-takeoff" viewBox="0 0 512 512">
      <path d="m53 405l406 0 0 43-406 0z m418-199c-5-17-22-28-39-23l-114 30-147-137-41 11 88 153-106 28-42-32-31 8 56 96c0 0 151-41 353-95 17-5 27-22 23-39z"/>
    </symbol>
  
    <symbol id="icon-flight-land" viewBox="0 0 512 512">
      <path d="m53 405l406 0 0 43-406 0z m360-67c17 5 34-5 39-22 4-18-6-35-23-40l-113-30-59-192-41-11 0 176-106-28-20-50-31-8 0 110z"/>
    </symbol>
    <symbol id="humburger" viewBox="0 0 24 24"  fill="#000000">
        <path d="M0 0h24v24H0z" fill="none"/>
        <path d="M3 18h18v-2H3v2zm0-5h18v-2H3v2zm0-7v2h18V6H3z"/>
    </symbol>
</svg>
