<?xml version="1.0" encoding="utf-8"?>
<!-- Generator: Adobe Illustrator 21.0.0, SVG Export Plug-In . SVG Version: 6.00 Build 0)  -->
<svg version="1.1" id="Слой_1" xmlns="http://www.w3.org/2000/svg" xmlns:xlink="http://www.w3.org/1999/xlink" x="0px" y="0px"
	 viewBox="0 0 93.5 93.5" style="enable-background:new 0 0 93.5 93.5;" xml:space="preserve">
<style type="text/css">
	.st0{fill:#7A65E1;}
	.st1{fill:#FFFFFF;}
</style>
<!-- <rect x="-97.1" y="198.4" class="st0" width="288" height="263.1"/> -->
<rect x="-97.1" y="198.4" class="st0" width="38" height="33.1"/>

<g>
	<path class="st1" d="M59.7,348.1c-3.2-3.6-3.8-8.4-3.8-14.2v-1.8V331v-7.2v-15.8v-2.4H36.7v2.4v4.2v5.9v4.2v3.6v2v0.7v2.4v1.2v1.8
		c0,12.5,2.9,20.4,8.8,27c3.2,3.6,7.2,6.4,11.9,8.2c4.6,1.7,9.6,2.5,15.4,2.5H79v-19.2h-6.4C66.7,352.5,62.2,351,59.7,348.1z"/>
	<polygon class="st1" points="77.8,302.9 68.5,298.6 46.3,288.3 24.1,298.6 14.7,302.9 14.7,323.5 46.3,308.9 77.8,323.5 	"/>
</g>
<g>
	<path class="st0" d="M60.3,64.5c-3.2-3.6-3.8-8.4-3.8-14.2v-1.8v-1.2v-7.2V24.3v-2.4H37.2v2.4v4.2v5.9v4.2v3.6v2v0.7v2.4v1.2v1.8
		c0,12.5,2.9,20.4,8.8,27c3.2,3.6,7.2,6.4,11.9,8.2c4.6,1.7,9.6,2.5,15.4,2.5h6.4V68.8h-6.4C67.2,68.8,62.8,67.3,60.3,64.5z"/>
	<polygon class="st0" points="78.4,19.2 69,14.9 46.8,4.6 24.6,14.9 15.3,19.2 15.3,39.9 46.8,25.2 78.4,39.9 	"/>
</g>
</svg>
