<svg id="Слой_1" data-name="Слой 1"
    xmlns="http://www.w3.org/2000/svg" viewBox="0 0 1366 284">
    <defs>
        <style>.cls-1{fill:#fff;}</style>
    </defs>
    <title>Монтажная область 1</title>
    <path class="cls-1" d="M583.92,67.82v18.9c-19.07-16.2-43.85-24.41-73.75-24.41-29.56,0-55.42,11-76.86,32.69a119.11,119.11,0,0,0-8.64,9.76c-15.62,19.64-23.55,42.7-23.55,68.76s7.93,49.24,23.55,68.8a119.29,119.29,0,0,0,8.87,9.95,109.37,109.37,0,0,0,37.56,25.58,104.17,104.17,0,0,0,39.07,7.36,126.69,126.69,0,0,0,44-7.36,98.66,98.66,0,0,0,29.79-17.09v18.92h51.84V67.82H583.92ZM564.85,218.47h0c-12.7,11.78-28.5,17.76-47,17.76-18.31,0-33.78-6-46-17.76C459.32,206.9,453,191.85,453,173.75c0-18.28,6.17-33,18.87-45,12.3-11.61,27.78-17.5,46-17.5,18.39,0,34.21,5.89,47,17.51,12.85,11.91,19.09,26.63,19.09,45S577.68,206.8,564.85,218.47ZM375.92,65.19c-30,0-53.69,10.85-70.39,32.26V67.82H253.68V279.68h51.85v-82.9c0-19.38,6.48-37.71,19.81-56,12.77-17.65,31.08-26.6,54.21-26.62l13.79,1.69v-50l-1.69-.12C386.75,65.34,381.61,65.19,375.92,65.19ZM1087,62.31c-31.55,0-57.9,10.84-78.32,32.23S978,142.55,978,173.75c0,32.82,10.67,59.89,31.73,80.47,21.34,20.85,47.57,31,80.2,31a179.77,179.77,0,0,0,80.45-18.9l1.89-.94L1143,224l-1.38.67a114.81,114.81,0,0,1-51.26,11.58c-31.21,0-51.36-13.48-59.92-40H1195.8V178.07c0-36-10.84-64.62-32.23-85S1116.45,62.31,1087,62.31Zm-56.09,89a56.24,56.24,0,0,1,35.73-36.58c18.5-6.47,39.51-3.7,54.83,7.26,9.93,6.84,17.1,16.68,21.34,29.32ZM2.84,64.09l-1,.51v53.76L87.21,73V197.74c0,32.27,11.67,54.86,21.68,64.41a54,54,0,0,0,20.3,12.15c8.67,3.14,14.14,4.66,17.77,4.9,3.8.26,7.56.48,11.88.48,13.84,0,25.61-.48,35-1.44l1.63-.17v-45.3l-1.92.11c-5.69.32-12,.48-18.61.48-24.12,0-35.85-11.33-35.85-34.66V73l85.33,45.33V64.61L113.14,5Zm1359.46,1.58c-4.85-.33-10-.48-15.71-.48-30,0-53.68,10.85-70.39,32.26V67.82h-51.85V279.68h51.85v-82.9c0-19.38,6.48-37.71,19.81-56,12.77-17.65,31.08-26.6,54.2-26.62l13.79,1.69v-50Zm-690,50.88H791.14L672.9,228.82l-.57.53v50.33H858.45V231H739.12L858.45,117V67.82H672.33ZM894.11,279.68H946V3.65H894.11Z"/>
</svg>