<?xml version="1.0" standalone="no"?>
<!DOCTYPE svg PUBLIC "-//W3C//DTD SVG 1.1//EN" "http://www.w3.org/Graphics/SVG/1.1/DTD/svg11.dtd" >
<svg xmlns="http://www.w3.org/2000/svg">
<metadata>Generated by IcoMoon</metadata>
<defs>
<font id="trazler" horiz-adv-x="1024">
<font-face units-per-em="1024" ascent="960" descent="-64" />
<missing-glyph horiz-adv-x="1024" />
<glyph unicode="&#x20;" horiz-adv-x="512" d="" />
<glyph unicode="&#xe900;" glyph-name="24" d="M810.667 640v128h-597.333v-128h-128v-554.667h341.333v170.667h170.667v-170.667h341.333v554.667h-128zM469.333 512h-85.333v-42.667h85.333v-42.667h-128v128h85.333v42.667h-85.333v42.667h128v-128zM682.667 426.667h-42.667v85.333h-85.333v128h42.667v-85.333h42.667v85.333h42.667v-213.333z" />
<glyph unicode="&#xe901;" glyph-name="accessibility" d="M503.893 639.147c18.773 1.707 35.84-2.56 50.773-11.093v0h0.427l0.853-0.427c9.813-4.693 18.773-11.093 26.027-19.2v0l55.040-61.013c41.813-46.080 107.947-78.933 173.653-78.080v0-85.333c-74.667 0.427-158.293 37.547-213.333 83.2v0-147.2h128c46.933 0 85.333-38.4 85.333-85.333v0-234.667h-85.333v213.333h-213.333c-46.933 0-85.333 38.4-85.333 85.333v0 252.16c0 44.8 32.427 84.48 77.227 88.32zM384 422.4v-88.32c-49.493-17.92-85.333-64.853-85.333-120.747 0-70.827 57.173-128 128-128 55.893 0 103.253 35.84 120.747 85.333v0h88.32c-19.627-97.28-105.813-170.667-209.067-170.667-117.76 0-213.333 95.573-213.333 213.333 0 103.253 73.387 189.44 170.667 209.067v0zM512 853.334c47.128 0 85.333-38.205 85.333-85.333s-38.205-85.333-85.333-85.333c-47.128 0-85.333 38.205-85.333 85.333s38.205 85.333 85.333 85.333z" />
<glyph unicode="&#xe902;" glyph-name="activities" d="M853.333 426.667c0 46.933 38.4 85.333 85.333 85.333v170.667c0 46.933-38.4 85.333-85.333 85.333h-682.667c-46.933 0-84.907-38.4-84.907-85.333v-170.667c46.933 0 84.907-38.4 84.907-85.333s-37.973-85.333-85.333-85.333v-170.667c0-46.933 38.4-85.333 85.333-85.333h682.667c46.933 0 85.333 38.4 85.333 85.333v170.667c-46.933 0-85.333 38.4-85.333 85.333zM664.747 221.867l-152.747 98.133-152.747-98.133 46.080 175.787-140.373 114.773 180.907 10.667 66.133 168.107 65.707-168.533 180.907-10.667-140.373-114.773 46.507-175.36z" />
<glyph unicode="&#xe903;" glyph-name="add-new-card-icon" d="M853.333 768h-682.667c-47.36 0-84.907-37.973-84.907-85.333l-0.427-512c0-47.36 37.973-85.333 85.333-85.333h682.667c47.36 0 85.333 37.973 85.333 85.333v512c0 47.36-37.973 85.333-85.333 85.333zM853.333 170.667h-682.667v256h682.667v-256zM853.333 597.334h-682.667v85.333h682.667v-85.333z" />
<glyph unicode="&#xe904;" glyph-name="adult-only" d="M554.667 640v-426.667h-85.333v341.333h-42.667v85.333h128zM810.667 640c47.128 0 85.333-38.205 85.333-85.333v-50.393c0-22.983-9.271-44.994-25.713-61.051l-16.953-16.556 18.345-18.761c15.591-15.945 24.322-37.359 24.322-59.66v-50.062c0-46.861-37.989-84.85-84.85-84.85h-86.007c-47.023 0-85.143 38.12-85.143 85.143v50.020c0 22.5 8.886 44.089 24.724 60.069l17.942 18.104-17.036 16.682c-16.392 16.052-25.63 38.028-25.63 60.97v50.344c0 47.128 38.205 85.333 85.333 85.333h85.333zM810.667 384h-85.333v-85.333h85.333v85.333zM298.667 554.667v-85.333h85.333v-85.333h-85.333v-85.333h-85.333v85.333h-85.333v85.333h85.333v85.333h85.333zM810.667 554.667h-85.333v-85.333h85.333v85.333z" />
<glyph unicode="&#xe905;" glyph-name="arrow" d="M298.667 512l213.333-213.333 213.333 213.333z" />
<glyph unicode="&#xe906;" glyph-name="arrow-left" d="M627.413 609.92l-195.413-195.84 195.413-195.84-60.16-60.16-256 256 256 256z" />
<glyph unicode="&#xe907;" glyph-name="assignment" d="M807.346 767.668h-177.307c-17.93 49.805-63.751 85.665-119.533 85.665s-101.603-35.86-119.533-85.665h-177.307c-47.813 0-85.665-37.852-85.665-85.665v-593.681c0-47.813 37.852-85.665 85.665-85.665h593.681c47.813 0 85.665 37.852 85.665 85.665v593.681c0 47.813-37.852 85.665-85.665 85.665zM510.506 767.668c23.907 0 41.837-19.922 41.837-41.837 0-23.907-17.93-43.829-41.837-43.829s-41.837 19.922-41.837 43.829c0 21.914 17.93 41.837 41.837 41.837zM596.171 171.995h-298.833v85.665h298.833v-85.665zM723.673 343.326h-426.335v83.673h426.335v-83.673zM723.673 512.664h-426.335v85.665h426.335v-85.665z" />
<glyph unicode="&#xe908;" glyph-name="bag-options" d="M597.333 896c47.128 0 85.333-38.205 85.333-85.333v-85.333h42.667c47.128 0 85.333-38.205 85.333-85.333v-512c0-47.128-38.205-85.333-85.333-85.333v-85.333h-85.333v85.333h-256v-85.333h-85.333v85.333c-47.128 0-85.333 38.205-85.333 85.333v512c0 47.128 38.205 85.333 85.333 85.333h42.667v85.333c0 47.128 38.205 85.333 85.333 85.333h170.667zM554.667 213.334h-85.333v-85.333h85.333v85.333zM512 640c-94.293 0-170.667-76.373-170.667-170.667h85.333c0 46.933 38.4 85.333 85.333 85.333s85.333-38.4 85.333-85.333c0-85.333-128-74.667-128-213.333h85.333c0 96 128 106.667 128 213.333 0 94.293-76.373 170.667-170.667 170.667zM597.333 810.667h-170.667v-85.333h170.667v85.333z" />
<glyph unicode="&#xe909;" glyph-name="balcony-terrace" d="M288.992 536.249h190v-150h-190v150zM292.326 604.583h186.667v185c-95-15-170-90-186.667-185zM548.992 789.583v-185h186.667c-16.667 95-91.667 170-186.667 185zM548.992 536.249h190v-150h-190v150zM905.659 316.249h-783.333c-20 0-35-15-35-35 0-18.333 15-33.333 35-33.333h11.667v-173.333c0-20 15-35 33.333-35h693.333c18.333 0 33.333 15 33.333 35v173.333h11.667c20 0 35 15 35 33.333 0 20-15 35-35 35zM272.326 221.249v-111.667h-70v138.333h70v-26.667zM410.659 221.249v-111.667h-70v138.333h70v-26.667zM548.992 221.249v-111.667h-70v138.333h70v-26.667zM687.326 221.249v-111.667h-70v138.333h70v-26.667zM825.659 109.583h-70v138.333h70v-138.333z" />
<glyph unicode="&#xe90a;" glyph-name="bar" d="M896 725.334v85.333h-768v-85.333l341.333-384v-213.333h-213.333v-85.333h512v85.333h-213.333v213.333l341.333 384zM317.013 640l-75.52 85.333h541.44l-75.947-85.333h-389.973z" />
<glyph unicode="&#xe90b;" glyph-name="bath" d="M511.573 853.334c235.947 0 427.093-191.147 427.093-426.667s-191.147-426.667-427.093-426.667c-235.52 0-426.24 191.147-426.24 426.667s190.72 426.667 426.24 426.667zM512 768c-188.587 0-341.333-152.747-341.333-341.333s152.747-341.333 341.333-341.333c188.587 0 341.333 152.747 341.333 341.333s-152.747 341.333-341.333 341.333zM533.333 640v-224l192-113.92-32-52.48-224 134.4v256h64z" />
<glyph unicode="&#xe90c;" glyph-name="bathtub" d="M732.587 853.334c66.56 0 120.747-54.187 120.747-120.747v0-348.587h85.333v-256c0-46.933-38.4-85.333-85.333-85.333 0-23.467-19.2-42.667-42.667-42.667v0h-597.333c-23.467 0-42.667 19.2-42.667 42.667-46.933 0-85.333 38.4-85.333 85.333v0 256h128v32c0 52.907 42.667 95.573 95.573 96 14.933 0 29.44-3.413 42.667-9.813 11.093-5.12 21.333-12.373 29.44-21.333v0l59.733-66.133c10.667-11.52 22.187-21.76 34.987-30.72v0h292.267v348.587c0 19.627-15.787 35.413-35.413 35.413-9.387 0-18.347-3.84-24.747-10.24v0l-53.333-53.333c1.707-7.253 2.987-14.080 2.987-21.76 0-17.067-5.12-32.853-13.653-46.080v0l-117.76 117.76c13.227 8.533 29.013 13.653 46.080 13.653 7.68 0 14.933-1.28 21.76-3.413v0l53.333 53.333c22.613 22.613 53.333 35.413 85.333 35.413zM298.667 725.334c47.128 0 85.333-38.205 85.333-85.333s-38.205-85.333-85.333-85.333c-47.128 0-85.333 38.205-85.333 85.333s38.205 85.333 85.333 85.333z" />
<glyph unicode="&#xe90d;" glyph-name="beauty-services" d="M341.333 42.667v85.333h128v85.333h-298.667v128h682.667v-128h-298.667v-85.333h128v-85.333h-341.333zM938.667 512v-128h-128v128h128zM213.333 512v-128h-128v128h128zM640 810.667c46.933 0 85.333-38.4 85.333-85.333v-341.333h-426.667v341.333c0 46.933 38.4 85.333 85.333 85.333h256z" />
<glyph unicode="&#xe90e;" glyph-name="bikes-friendly" d="M661.333 704c46.933 0 85.333 38.4 85.333 85.333s-38.4 85.333-85.333 85.333c-46.933 0-85.333-38.4-85.333-85.333s38.4-85.333 85.333-85.333zM213.333 426.667c-119.467 0-213.333-93.867-213.333-213.333s93.867-213.333 213.333-213.333c119.467 0 213.333 93.867 213.333 213.333s-93.867 213.333-213.333 213.333zM213.333 64c-81.067 0-149.333 68.267-149.333 149.333s68.267 149.333 149.333 149.333c81.067 0 149.333-68.267 149.333-149.333s-68.267-149.333-149.333-149.333zM460.8 490.667l102.4 102.4 34.133-34.133c55.467-55.467 128-89.6 217.6-89.6v85.333c-64 0-115.2 25.6-153.6 64l-81.067 81.067c-21.333 17.067-42.667 25.6-68.267 25.6s-46.933-8.533-59.733-25.6l-119.467-119.467c-17.067-17.067-25.6-38.4-25.6-59.733 0-25.6 8.533-46.933 25.6-59.733l136.533-119.467v-213.333h85.333v264.533l-93.867 98.133zM810.667 426.667c-119.467 0-213.333-93.867-213.333-213.333s93.867-213.333 213.333-213.333c119.467 0 213.333 93.867 213.333 213.333s-93.867 213.333-213.333 213.333zM810.667 64c-81.067 0-149.333 68.267-149.333 149.333s68.267 149.333 149.333 149.333c81.067 0 149.333-68.267 149.333-149.333s-68.267-149.333-149.333-149.333z" />
<glyph unicode="&#xe90f;" glyph-name="booster" d="M767.626 578.008c21.667 36.667 33.333 78.333 33.333 121.667 0 40-16.667 78.333-45 106.667-28.333 30-66.667 45-106.667 45h-240c-40 0-78.333-15-106.667-45-28.333-28.333-45-66.667-45-106.667 0-43.333 11.667-85 33.333-121.667-63.333-11.667-110-68.333-110-133.333v-15c0-18.333 3.333-38.333 11.667-55l70-153.333c-26.667-13.333-43.333-36.667-43.333-65v-36.667c0-46.667 28.333-88.333 76.667-110 18.333-6.667 38.333-11.667 60-11.667h346.667c21.667 0 41.667 5 60 11.667 48.333 21.667 76.667 63.333 76.667 110v36.667c0 33.333-23.333 60-55 70l78.333 143.333c10 20 15 43.333 15 65v10c0 65-46.667 121.667-110 133.333zM440.96 221.341c-18.333-5-31.667-8.333-43.333-13.333-40 85-61.667 180-61.667 275 0 11.667 3.333 21.667 8.333 31.667 18.333-63.333 61.667-188.333 105-293.333-3.333 0-6.667 0-8.333 0zM547.626 231.341h-36.667c-25 106.667-50 241.667-60 310h156.667c-10-68.333-35-201.667-60-310zM660.96 208.008c-10 3.333-23.333 8.333-36.667 11.667 38.333 105 75 230 90 293.333 5-10 8.333-20 8.333-30 0-95-21.667-190-61.667-275z" />
<glyph unicode="&#xe910;" glyph-name="bowling" d="M631.698 413.132c-31.651 51.641-51.641 111.612-54.973 173.249h-126.605c-3.332-61.637-23.322-121.607-54.973-173.249-59.971-93.288-96.619-228.222-24.988-333.171l46.644-68.3c4.998-6.663 13.327-11.661 21.656-11.661h149.927c8.329 0 16.659 4.998 21.656 11.661l46.644 68.3c71.632 104.949 34.983 239.883-24.988 333.171zM575.059 826.264c-31.651 34.983-91.622 34.983-123.273 0-16.659-18.324-23.322-43.312-19.99-66.634l8.329-64.968c4.998-18.324 6.663-36.649 8.329-54.973h129.937c1.666 19.99 4.998 39.98 8.329 58.305l8.329 61.637c3.332 23.322-3.332 48.31-19.99 66.634zM833.266 829.595c-26.654 31.651-79.961 31.651-106.615 0-14.993-16.659-21.656-38.315-18.324-58.305l6.663-56.639c1.666-6.663 3.332-14.993 4.998-21.656h119.941c1.666 8.329 3.332 16.659 4.998 24.988l6.663 53.307c3.332 19.99-3.332 41.646-18.324 58.305zM300.193 829.595c-26.654 31.651-79.961 31.651-106.615 0-14.993-16.659-19.99-38.315-18.324-58.305l8.329-56.639c1.666-6.663 1.666-14.993 3.332-21.656h119.941c1.666 8.329 3.332 16.659 4.998 24.988l6.663 53.307c3.332 19.99-3.332 41.646-18.324 58.305zM358.498 456.444c-3.332 3.332-4.998 8.329-6.663 11.661-33.317 49.976-49.976 109.946-49.976 171.583h-109.946c0-59.971-16.659-119.941-48.31-171.583-51.641-81.627-84.959-199.902-21.656-291.524l39.98-59.971c4.998-6.663 11.661-9.995 19.99-9.995h114.944c-43.312 114.944-4.998 243.215 53.307 334.837 1.666 4.998 4.998 9.995 8.329 14.993zM883.242 468.105c-31.651 49.976-48.31 109.946-48.31 171.583h-109.946c0-59.971-16.659-119.941-49.976-171.583-1.666-3.332-3.332-8.329-4.998-11.661 1.666-4.998 4.998-9.995 6.663-14.993v0c58.305-91.622 96.619-219.893 53.307-334.837h114.944c8.329 0 14.993 3.332 19.99 9.995l39.98 59.971c63.302 91.622 29.985 209.898-21.656 291.524z" />
<glyph unicode="&#xe911;" glyph-name="breakfast-options" d="M913.201 181.755l-212.965 168.311c73.851 123.657 58.394 285.099-48.089 393.299-127.092 125.375-329.753 125.375-456.845 0-125.375-127.092-125.375-329.753 0-456.845 106.483-106.483 269.642-121.94 393.299-48.089l168.311-212.965c20.61-24.044 49.806-39.502 80.721-41.219 32.632-1.717 63.546 8.587 85.873 30.914s32.632 53.241 30.914 85.873c-1.717 30.914-17.175 60.111-41.219 80.721zM509.598 312.282c-17.175 5.152-44.654 12.022-61.829 12.022-68.698-1.717-84.156-84.156-151.137 12.022-17.175 25.762-18.892 42.937-22.327 60.111-8.587 37.784-39.502 60.111-48.089 65.264-103.048 79.003 20.61 164.876 29.197 175.181 42.937 41.219 34.349 44.654 66.981 70.416 54.959 44.654 130.527-1.717 145.984-10.305 63.546-34.349 68.698 1.717 123.657-41.219 63.546-49.806 56.676-108.2 25.762-161.441-10.305-17.175 3.435-61.829-22.327-123.657-25.762-60.111-60.111-65.264-85.873-58.394zM875.417 63.25c-18.892-20.61-56.676-13.74-82.438 12.022-27.479 27.479-32.632 65.264-13.74 84.156s56.676 13.74 84.156-13.74c25.762-25.762 32.632-63.546 12.022-82.438zM313.807 624.86c-39.502-37.784-39.502-101.33 0-140.832 37.784-37.784 101.33-37.784 140.832 0 37.784 39.502 37.784 103.048 0 140.832-39.502 39.502-103.048 39.502-140.832 0z" />
<glyph unicode="&#xe912;" glyph-name="bus" d="M170.667 256c0-37.547 16.64-71.253 42.667-94.72v-75.947c0-23.467 19.2-42.667 42.667-42.667h42.667c23.467 0 42.667 19.2 42.667 42.667v42.667h341.333v-42.667c0-23.467 19.2-42.667 42.667-42.667h42.667c23.467 0 42.667 19.2 42.667 42.667v75.947c26.027 23.467 42.667 57.173 42.667 94.72v426.667c0 149.333-152.747 170.667-341.333 170.667s-341.333-21.333-341.333-170.667v-426.667zM320 213.334c-35.413 0-64 28.587-64 64s28.587 64 64 64c35.413 0 64-28.587 64-64s-28.587-64-64-64zM704 213.334c-35.413 0-64 28.587-64 64s28.587 64 64 64c35.413 0 64-28.587 64-64s-28.587-64-64-64zM768 469.334h-512v213.333h512v-213.333z" />
<glyph unicode="&#xe913;" glyph-name="business-corner" d="M810.667 597.334h-597.333c-70.827 0-128-57.173-128-128v-256h170.667v-170.667h512v170.667h170.667v256c0 70.827-57.173 128-128 128zM682.667 128h-341.333v213.333h341.333v-213.333zM810.667 426.667c-23.467 0-42.667 19.2-42.667 42.667s19.2 42.667 42.667 42.667c23.467 0 42.667-19.2 42.667-42.667s-19.2-42.667-42.667-42.667zM768 810.667h-512v-170.667h512v170.667z" />
<glyph unicode="&#xe914;" glyph-name="business-friendly" d="M426.667 256v42.667h-298.24l-0.427-170.667c0-47.36 37.973-85.333 85.333-85.333h597.333c47.36 0 85.333 37.973 85.333 85.333v170.667h-298.667v-42.667h-170.667zM853.333 640h-171.093v85.333l-85.333 85.333h-170.667l-85.333-85.333v-85.333h-170.24c-46.933 0-85.333-38.4-85.333-85.333v-128c0-47.36 37.973-85.333 85.333-85.333h256v85.333h170.667v-85.333h256c46.933 0 85.333 38.4 85.333 85.333v128c0 46.933-38.4 85.333-85.333 85.333zM597.333 640h-170.667v85.333h170.667v-85.333z" />
<glyph unicode="&#xe915;" glyph-name="cafe" d="M853.333 810.667h-682.667v-426.667c0-94.293 76.373-170.667 170.667-170.667h256c94.293 0 170.667 76.373 170.667 170.667v128h85.333c47.36 0 85.333 38.4 85.333 85.333v128c0 47.36-37.973 85.333-85.333 85.333zM853.333 597.334h-85.333v128h85.333v-128zM170.667 128h682.667v-85.333h-682.667v85.333z" />
<glyph unicode="&#xe916;" glyph-name="calendar" d="M298.667 896v-85.333h426.667v85.333h85.333v-85.333h42.667c46.933 0 85.333-38.4 85.333-85.333v0-682.667c0-46.933-38.4-85.333-85.333-85.333v0h-682.667c-46.933 0-85.333 38.4-85.333 85.333v0 682.667c0 46.933 38.4 85.333 85.333 85.333v0h42.667v85.333h85.333zM853.333 597.334h-682.667v-554.667h682.667v554.667zM384 298.667v-128h-128v128h128zM384 512v-128h-128v128h128zM597.333 512v-128h-128v128h128z" />
<glyph unicode="&#xe917;" glyph-name="cancellation-prepayment" d="M469.333 298.667h85.333v-85.333h-85.333v85.333zM469.333 640h85.333v-256h-85.333v256zM511.573 853.334c-235.52 0-426.24-191.147-426.24-426.667s190.72-426.667 426.24-426.667c235.947 0 427.093 191.147 427.093 426.667s-191.147 426.667-427.093 426.667zM512 85.334c-188.587 0-341.333 152.747-341.333 341.333s152.747 341.333 341.333 341.333c188.587 0 341.333-152.747 341.333-341.333s-152.747-341.333-341.333-341.333z" />
<glyph unicode="&#xe918;" glyph-name="car" d="M789.333 725.334c26.149 0 48.618-15.451 58.527-37.814l2.060-5.279 59.093-170.24h114.987c0-47.128-38.205-85.333-85.333-85.333v0-341.333c0-21.79-16.555-39.902-37.709-42.378l-4.958-0.288h-42.667c-21.79 0-39.902 16.555-42.378 37.709l-0.288 4.958v42.667h-597.333v-42.667c0-21.79-16.555-39.902-37.709-42.378l-4.958-0.288h-42.667c-21.79 0-39.902 16.555-42.378 37.709l-0.288 4.958v341.333l-6.369 0.234c-41.946 3.095-75.46 36.512-78.707 78.416l-0.258 6.684h114.944l59.136 170.24c8.32 23.375 29.148 40.496 54.628 42.823l5.959 0.27h554.667zM213.333 341.334h-85.333v-128h213.333l-0.217 7.521c-3.893 67.192-59.615 120.479-127.783 120.479v0zM896 341.334h-85.333c-70.692 0-128-57.308-128-128v0h213.333v128zM789.333 661.334h-554.667l-64-192h682.667l-64 192z" />
<glyph unicode="&#xe919;" glyph-name="car-driver-blue" d="M810.667 810.667h-178.347c-17.92 49.493-64.853 85.333-120.32 85.333s-102.4-35.84-120.32-85.333h-178.347c-46.933 0-85.333-38.4-85.333-85.333v-597.333c0-46.933 38.4-85.333 85.333-85.333h597.333c46.933 0 85.333 38.4 85.333 85.333v597.333c0 46.933-38.4 85.333-85.333 85.333zM512 810.667c23.467 0 42.667-19.2 42.667-42.667s-19.2-42.667-42.667-42.667c-23.467 0-42.667 19.2-42.667 42.667s19.2 42.667 42.667 42.667zM512 640c70.827 0 128-57.173 128-128s-57.173-128-128-128c-70.827 0-128 57.173-128 128s57.173 128 128 128zM768 128h-512v59.733c0 85.333 170.667 132.267 256 132.267s256-46.933 256-132.267v-59.733z" />
<glyph unicode="&#xe91a;" glyph-name="carpeted" d="M922.326 673.008h-171.667c1.667 16.667 0 33.333-3.333 48.333-15 56.667-55 103.333-110 120-15 3.333-40 10-61.667 10-55 0-108.333-26.667-138.333-73.333l-305-435c-5-6.667-15-21.667-15-21.667-18.333-33.333-30-70-30-110 0-118.333 95-213.333 213.333-213.333h231.667c10 0 16.667 8.333 16.667 18.333s-6.667 16.667-16.667 16.667h-5l43.333 71.667h31.667c10 0 18.333 8.333 18.333 18.333s-8.333 16.667-18.333 16.667h-10l45 71.667h36.667c10 0 18.333 8.333 18.333 18.333s-8.333 16.667-18.333 16.667h-15l43.333 71.667h25c10 0 18.333 8.333 18.333 18.333s-8.333 16.667-18.333 16.667h-3.333l43.333 71.667h31.667c10 0 16.667 8.333 16.667 18.333s-6.667 16.667-16.667 16.667h-10l43.333 71.667h20c10 0 16.667 8.333 16.667 18.333 0 8.333-6.667 16.667-15 16.667l43.333 71.667h25c10 0 18.333 8.333 18.333 18.333s-8.333 16.667-18.333 16.667zM485.659 33.008h-185c-98.333 0-178.333 80-178.333 178.333 0 35 11.667 68.333 28.333 95l6.667 10c31.667 43.333 85 73.333 143.333 73.333 78.333 0 141.667-65 141.667-143.333s-63.333-141.667-141.667-141.667c-58.333 0-106.667 48.333-106.667 106.667s48.333 106.667 106.667 106.667c3.333 0 8.333 0 11.667-1.667l-78.333-93.333c-3.333-3.333-5-8.333-5-11.667 0-40 31.667-71.667 71.667-71.667 58.333 0 106.667 48.333 106.667 106.667 0 60-48.333 106.667-106.667 106.667-78.333 0-141.667-63.333-141.667-141.667s63.333-141.667 141.667-141.667c68.333 0 128.333 40 158.333 96.667v0l268.333 426.667c8.333 13.333 13.333 28.333 18.333 45h110l-370-605z" />
<glyph unicode="&#xe91b;" glyph-name="case" d="M597.333 896c47.128 0 85.333-38.205 85.333-85.333v-85.333h42.667c47.128 0 85.333-38.205 85.333-85.333v-512c0-47.128-38.205-85.333-85.333-85.333v-85.333h-85.333v85.333h-256v-85.333h-85.333v85.333c-47.128 0-85.333 38.205-85.333 85.333v512c0 47.128 38.205 85.333 85.333 85.333h42.667v85.333c0 47.128 38.205 85.333 85.333 85.333h170.667zM597.333 810.667h-170.667v-85.333h170.667v85.333z" />
<glyph unicode="&#xe91c;" glyph-name="case-small" d="M597.333 640c47.128 0 85.333-38.205 85.333-85.333v-85.333h42.667c47.128 0 85.333-38.205 85.333-85.333v-256c0-47.128-38.205-85.333-85.333-85.333h-426.667c-47.128 0-85.333 38.205-85.333 85.333v256c0 47.128 38.205 85.333 85.333 85.333h42.667v85.333c0 47.128 38.205 85.333 85.333 85.333h170.667zM597.333 554.667h-170.667v-85.333h170.667v85.333z" />
<glyph unicode="&#xe91d;" glyph-name="casino" d="M810.667 810.667h-597.333c-46.933 0-85.333-38.4-85.333-85.333v-597.333c0-46.933 38.4-85.333 85.333-85.333h597.333c46.933 0 85.333 38.4 85.333 85.333v597.333c0 46.933-38.4 85.333-85.333 85.333zM320 170.667c-35.413 0-64 28.587-64 64s28.587 64 64 64c35.413 0 64-28.587 64-64s-28.587-64-64-64zM320 554.667c-35.413 0-64 28.587-64 64s28.587 64 64 64c35.413 0 64-28.587 64-64s-28.587-64-64-64zM512 362.667c-35.413 0-64 28.587-64 64s28.587 64 64 64c35.413 0 64-28.587 64-64s-28.587-64-64-64zM704 170.667c-35.413 0-64 28.587-64 64s28.587 64 64 64c35.413 0 64-28.587 64-64s-28.587-64-64-64zM704 554.667c-35.413 0-64 28.587-64 64s28.587 64 64 64c35.413 0 64-28.587 64-64s-28.587-64-64-64z" />
<glyph unicode="&#xe91e;" glyph-name="ccc" d="M810.667 810.667h-597.333c-47.36 0-85.333-38.4-85.333-85.333v-597.333c0-46.933 37.973-85.333 85.333-85.333h597.333c47.36 0 85.333 38.4 85.333 85.333v597.333c0 46.933-37.973 85.333-85.333 85.333zM426.667 213.334l-213.333 213.333 60.16 60.16 153.173-152.747 323.84 323.84 60.16-60.587-384-384z" />
<glyph unicode="&#xe91f;" glyph-name="check-in" d="M705.28 466.774l-45.227 45.227-208.213-208.213-90.453 90.453-45.227-45.227 135.68-135.68 253.44 253.44zM810.667 810.667h-42.667v85.333h-85.333v-85.333h-341.333v85.333h-85.333v-85.333h-42.667c-47.36 0-84.907-38.4-84.907-85.333l-0.427-597.333c0-46.933 37.973-85.333 85.333-85.333h597.333c46.933 0 85.333 38.4 85.333 85.333v597.333c0 46.933-38.4 85.333-85.333 85.333zM810.667 128h-597.333v469.333h597.333v-469.333z" />
<glyph unicode="&#xe920;" glyph-name="check-out" d="M397.227 213.334l104.107 104.107 104.107-104.107 45.227 45.227-104.107 104.107 104.107 104.107-45.227 45.227-104.107-104.107-104.107 104.107-45.227-45.227 104.107-104.107-104.107-104.107 45.227-45.227zM810.667 810.667h-42.667v85.333h-85.333v-85.333h-341.333v85.333h-85.333v-85.333h-42.667c-47.36 0-84.907-38.4-84.907-85.333l-0.427-597.333c0-46.933 37.973-85.333 85.333-85.333h597.333c46.933 0 85.333 38.4 85.333 85.333v597.333c0 46.933-38.4 85.333-85.333 85.333zM810.667 128h-597.333v469.333h597.333v-469.333z" />
<glyph unicode="&#xe921;" glyph-name="child-seat" d="M847.093 436.604l-153.311 23.33c-24.996 3.333-49.993-8.332-61.658-31.662l-16.664-29.996c33.329 8.332 63.324 13.331 89.987 13.331 61.658 0 104.985-28.329 113.317-91.653l11.665-1.666c31.662-4.999 61.658 18.331 66.657 51.659 4.999 31.662-16.664 61.658-49.993 66.657zM388.826 569.918c-9.999-4.999-18.331-11.665-24.996-19.997 19.997-39.994 34.995-94.986 46.66-138.313 6.666-18.331 18.331-33.329 34.995-43.327 11.665-4.999 21.664-8.332 33.329-8.332 8.332 0 14.998 1.666 21.664 3.333 33.329 11.665 63.324 19.997 91.653 28.329l-54.992 103.318 126.648 94.986c26.663 19.997 31.662 56.658 11.665 83.321-18.331 26.663-56.658 31.662-83.321 11.665l-141.646-104.985c-19.997 3.333-41.661 0-61.658-9.999zM705.447 368.28c-49.993 0-119.983-23.33-189.972-46.66-11.665-3.333-23.33-4.999-36.661-4.999-18.331 0-36.661 4.999-53.326 13.331-28.329 14.998-48.326 39.994-56.658 69.99-28.329 99.986-58.325 203.304-111.65 189.972-88.321-21.664-129.981-149.978-96.653-288.292 18.331-71.656 54.992-133.314 96.653-169.975 4.999-4.999 9.999-9.999 14.998-13.331-1.666-13.331-11.665-88.321-13.331-99.986-1.666-9.999 6.666-18.331 14.998-18.331h331.619c9.999 0 16.664 8.332 14.998 18.331 0 8.332-9.999 73.323-9.999 81.655 113.317 49.993 183.307 141.646 163.31 224.967-8.332 31.662-33.329 43.327-68.323 43.327zM315.504 618.244c94.986-14.998 169.975 84.988 123.315 171.642-29.996 58.325-101.652 79.988-159.977 49.993-58.325-31.662-79.988-103.318-48.326-159.977 16.664-33.329 49.993-56.658 84.988-61.658z" />
<glyph unicode="&#xe922;" glyph-name="clear" d="M810.667 665.174l-60.16 60.16-238.507-238.507-238.507 238.507-60.16-60.16 238.507-238.507-238.507-238.507 60.16-60.16 238.507 238.507 238.507-238.507 60.16 60.16-238.507 238.507z" />
<glyph unicode="&#xe923;" glyph-name="compass" d="M512 473.6c-26.027 0-46.933-20.907-46.933-46.933s20.907-46.933 46.933-46.933c26.027 0 46.933 20.907 46.933 46.933s-20.907 46.933-46.933 46.933zM512 853.334c-235.52 0-426.667-191.147-426.667-426.667s191.147-426.667 426.667-426.667c235.52 0 426.667 191.147 426.667 426.667s-191.147 426.667-426.667 426.667zM605.44 333.227l-349.44-162.56 162.56 349.44 349.44 162.56-162.56-349.44z" />
<glyph unicode="&#xe924;" glyph-name="concierge" d="M475.562-0l59.985 59.985v71.649l134.966 133.3c88.311 88.311 88.311 229.943 0 318.254s-229.943 88.311-318.254 0l-133.3-134.966h-71.649l-59.985-59.985 176.623-176.623-38.324-38.324c-28.326 13.33-61.651 8.331-84.979-14.996-29.993-28.326-29.993-76.648 0-104.974 28.326-29.993 76.648-29.993 104.974 0 23.328 23.328 28.326 56.653 14.996 84.979l38.324 38.324 176.623-176.623zM812.145 831.46c-3.333-3.333-78.314-91.644-153.295-174.956 16.663-11.664 33.325-23.328 46.655-38.324 14.996-13.33 26.66-29.993 38.324-46.655l174.956 153.295c28.326 29.993 28.326 76.648 0 106.64-29.993 28.326-76.648 29.993-106.64 0z" />
<glyph unicode="&#xe925;" glyph-name="condition" d="M938.667 469.334h-177.92l138.24 138.24-60.16 60.587-198.827-198.827h-85.333v85.333l198.827 198.827-60.587 60.16-138.24-138.24v177.92h-85.333v-177.92l-138.24 138.24-60.587-60.16 198.827-198.827v-85.333h-85.333l-198.827 198.827-60.16-60.587 138.24-138.24h-177.92v-85.333h177.92l-138.24-138.24 60.16-60.587 198.827 198.827h85.333v-85.333l-198.827-198.827 60.587-60.16 138.24 138.24v-177.92h85.333v177.92l138.24-138.24 60.587 60.16-198.827 198.827v85.333h85.333l198.827-198.827 60.16 60.587-138.24 138.24h177.92z" />
<glyph unicode="&#xe926;" glyph-name="couple-friendly" d="M768 469.334c70.827 0 127.573 57.173 127.573 128s-56.747 128-127.573 128c-13.653 0-26.88-2.133-38.827-5.973 24.32-34.56 38.4-76.373 38.4-122.027s-14.507-87.040-38.4-122.027c11.947-3.84 25.173-5.973 38.827-5.973zM554.667 469.334c70.827 0 127.573 57.173 127.573 128s-56.747 128-127.573 128c-70.827 0-128-57.173-128-128s57.173-128 128-128zM837.12 377.174c35.413-31.147 58.88-70.827 58.88-121.173v-85.333h128v85.333c0 65.707-101.12 106.24-186.88 121.173zM554.667 384c85.333 0 256-42.667 256-128v0-85.333h-512v85.333c0 85.333 170.667 128 256 128zM256 597.334c47.104 0 85.333-38.229 85.333-85.333 0-23.552-9.557-45.056-24.917-60.416l-145.749-145.749-145.749 145.749c-15.36 15.701-24.917 36.864-24.917 60.416 0 47.104 38.229 85.333 85.333 85.333 23.552 0 45.056-9.557 60.416-25.259l24.917-24.576 24.917 24.917c15.36 15.36 36.864 24.917 60.416 24.917z" />
<glyph unicode="&#xe927;" glyph-name="direct-dial-telephone" d="M853.333 277.334c-53.333 0-104.533 8.533-152.32 24.32-14.933 4.693-31.573 1.28-43.52-10.24l-93.867-93.867c-120.747 61.44-219.733 160-281.173 281.173l93.867 94.293c11.947 11.093 15.36 27.733 10.667 42.667-15.787 47.787-24.32 98.987-24.32 152.32 0 23.467-19.2 42.667-42.667 42.667h-149.333c-23.467 0-42.667-19.2-42.667-42.667 0-400.64 324.693-725.333 725.333-725.333 23.467 0 42.667 19.2 42.667 42.667v149.333c0 23.467-19.2 42.667-42.667 42.667zM810.667 426.667h85.333c0 212.053-171.947 384-384 384v-85.333c165.12 0 298.667-133.547 298.667-298.667zM640 426.667h85.333c0 117.76-95.573 213.333-213.333 213.333v-85.333c70.827 0 128-57.173 128-128z" />
<glyph unicode="&#xe928;" glyph-name="diving" d="M626.285 698.008h-193.333c-33.333 0-61.667-21.667-71.667-50 1.667 0 3.333 0 5 0h325c1.667 0 3.333 0 5 0-10 28.333-38.333 50-70 50zM779.619 199.675v-26.667c0-43.333-35-78.333-78.333-78.333h-26.667c0 3.333 0 6.667 0 8.333v78.333h-25c-56.667 0-105 38.333-120 90-13.333-41.667-48.333-75-91.667-85l36.667-25c16.667-11.667 35-16.667 55-16.667 10 0 20 1.667 30 5v-46.667c0-3.333 1.667-8.333 1.667-11.667-16.667-6.667-30-23.333-30-43.333-1.667-28.333 20-50 48.333-50h121.667c96.667 0 175 78.333 175 175v100c-25-33.333-58.333-58.333-96.667-73.333zM876.285 814.675c0 20-16.667 36.667-36.667 36.667h-25c-20 0-35-16.667-35-36.667v-33.333h96.667v33.333zM779.619 731.341v-100c38.333-16.667 71.667-41.667 96.667-75v175h-96.667zM691.285 598.008h-325c-101.667 0-183.333-81.667-183.333-183.333 0-100 81.667-183.333 183.333-183.333h41.667c41.667 0 76.667 35 76.667 78.333 0 15 11.667 26.667 26.667 26.667h35c15 0 26.667-11.667 26.667-26.667 0-43.333 35-78.333 76.667-78.333h41.667c101.667 0 183.333 83.333 183.333 183.333 0 101.667-81.667 183.333-183.333 183.333z" />
<glyph unicode="&#xe929;" glyph-name="done-passive-nobg" d="M384 247.467l-179.2 179.2-59.733-59.733 238.933-238.933 512 512-59.733 59.733z" />
<glyph unicode="&#xe92a;" glyph-name="door" d="M853.333 768v-682.667h-682.667v341.333c0 188.513 152.82 341.333 341.333 341.333h341.333zM768 341.334h-128v-21.333c0-35.346 28.654-64 64-64s64 28.654 64 64v0 21.333zM768 682.667h-253.431c-139.558 0-253.293-110.563-258.39-248.875l-0.136-7.125h511.957v256z" />
<glyph unicode="&#xe92b;" glyph-name="drop-up-arrow" d="M316.16 256l195.84 195.413 195.84-195.413 60.16 60.16-256 256-256-256z" />
<glyph unicode="&#xe92c;" glyph-name="entertainment" d="M185.528 283.008l-91.667-215c-8.333-18.333-5-40 8.333-53.333 10-11.667 23.333-16.667 36.667-16.667 5 0 11.667 1.667 16.667 3.333l141.667 50-111.667 231.667zM273.861 486.341l-61.667-143.333 131.667-275 111.667 40-181.667 378.333zM893.861 684.675c-15-1.667-23.333-15-21.667-28.333 0-5 1.667-10 1.667-15 5-55-1.667-96.667-21.667-126.667-23.333-33.333-63.333-53.333-103.333-48.333-10 0-18.333 1.667-26.667 6.667 1.667 1.667 3.333 5 3.333 8.333 8.333 15 11.667 31.667 10 50-1.667 13.333-5 26.667-10 38.333-11.667 25-31.667 40-55 46.667-25 6.667-55-11.667-63.333-38.333-6.667-18.333-5-40 5-61.667 6.667-20 18.333-36.667 31.667-50-11.667-6.667-26.667-11.667-43.333-15-13.333-1.667-21.667-15-20-28.333 1.667-11.667 11.667-21.667 25-21.667 0 0 1.667 0 3.333 1.667 30 3.333 56.667 15 78.333 30 16.667-8.333 36.667-15 56.667-16.667 5-1.667 10-1.667 16.667-1.667 51.667 0 103.333 26.667 133.333 71.667 30 43.333 38.333 101.667 28.333 176.667-3.333 13.333-15 23.333-28.333 21.667zM653.861 561.341c1.667 3.333 5 5 5 6.667 11.667-3.333 18.333-13.333 21.667-20 6.667-15 6.667-33.333 0-46.667 0 0 0 0 0-1.667-10 10-16.667 21.667-23.333 35-3.333 11.667-5 20-3.333 26.667zM758.861 319.675c0 18.333-13.333 31.667-30 31.667-18.333 0-31.667-13.333-31.667-31.667 0-16.667 13.333-31.667 31.667-31.667 16.667 0 30 15 30 31.667zM805.528 659.675c0 16.667-13.333 31.667-31.667 31.667-16.667 0-30-15-30-31.667 0-18.333 13.333-31.667 30-31.667 18.333 0 31.667 13.333 31.667 31.667zM868.861 709.675c38.333 0 70 31.667 70 70 0 40-31.667 71.667-70 71.667-40 0-71.667-31.667-71.667-71.667 0-38.333 31.667-70 71.667-70zM537.194 551.341c0 18.333-13.333 31.667-31.667 31.667-16.667 0-30-13.333-30-31.667 0-16.667 13.333-31.667 30-31.667 18.333 0 31.667 15 31.667 31.667zM698.861 784.675c0 16.667-13.333 31.667-30 31.667-18.333 0-31.667-15-31.667-31.667 0-18.333 13.333-31.667 31.667-31.667 16.667 0 30 13.333 30 31.667zM493.861 681.341h11.667v-13.333c0-13.333 11.667-25 25-25 15 0 25 11.667 25 25v13.333h11.667c15 0 25 10 25 25 0 13.333-10 25-25 25h-11.667v11.667c0 13.333-10 25-25 25-13.333 0-25-11.667-25-25v-11.667h-11.667c-13.333 0-25-11.667-25-25 0-15 11.667-25 25-25zM338.861 621.341c-8.333 10-25 10-35 0-10-8.333-10-25-1.667-35l10-10-11.667-30 201.667-421.667 170 60 6.667-8.333c5-5 11.667-8.333 18.333-8.333s11.667 3.333 16.667 6.667c10 10 11.667 25 1.667 35l-376.667 411.667z" />
<glyph unicode="&#xe92d;" glyph-name="event-faciltiies" d="M256-0h512l-256 256zM896 810.667h-768c-46.933 0-85.333-38.4-85.333-85.333v-512c0-46.933 38.4-85.333 85.333-85.333h170.667v85.333h-170.667v512h768v-512h-170.667v-85.333h170.667c46.933 0 85.333 38.4 85.333 85.333v512c0 46.933-38.4 85.333-85.333 85.333z" />
<glyph unicode="&#xe92e;" glyph-name="face" d="M384 437.334c-29.44 0-53.333-23.893-53.333-53.333s23.893-53.333 53.333-53.333c29.44 0 53.333 23.893 53.333 53.333s-23.893 53.333-53.333 53.333zM640 437.334c-29.44 0-53.333-23.893-53.333-53.333s23.893-53.333 53.333-53.333c29.44 0 53.333 23.893 53.333 53.333s-23.893 53.333-53.333 53.333zM512 853.334c-235.52 0-426.667-191.147-426.667-426.667s191.147-426.667 426.667-426.667c235.52 0 426.667 191.147 426.667 426.667s-191.147 426.667-426.667 426.667zM512 85.334c-188.16 0-341.333 153.173-341.333 341.333 0 12.373 0.853 24.747 2.133 36.693 100.693 44.8 180.48 127.147 222.293 229.12 77.227-109.227 204.373-180.48 348.16-180.48 33.28 0 65.28 3.84 96 11.093 8.96-30.293 14.080-62.72 14.080-96.427 0-188.16-153.173-341.333-341.333-341.333z" />
<glyph unicode="&#xe92f;" glyph-name="facebook" d="M853.628 810.667h-683.255c-23.402 0-42.372-18.971-42.372-42.372v-683.255c0-23.402 18.971-42.372 42.372-42.372h368.11v297.004h-99.972v116.259h99.972v85.539c0 99.178 60.646 153.203 149.098 153.203 29.807 0.065 59.597-1.438 89.247-4.502v-103.68h-60.91c-48.199 0-57.6-22.775-57.6-56.408v-74.019h115.2l-14.963-116.259h-100.899v-297.137h195.972c23.402 0 42.372 18.971 42.372 42.372v683.255c0 23.402-18.971 42.372-42.372 42.372z" />
<glyph unicode="&#xe930;" glyph-name="family-friendly" d="M682.667 768c0 47.36 37.973 85.333 85.333 85.333s85.333-37.973 85.333-85.333c0-47.36-37.973-85.333-85.333-85.333s-85.333 37.973-85.333 85.333zM853.333-0v256h106.667l-108.373 325.547c-11.947 34.987-44.373 58.453-81.067 58.453h-5.12c-36.693 0-69.547-23.467-81.067-58.453l-36.693-110.080c46.080-25.6 77.653-73.813 77.653-130.133v-341.333h128zM533.333 448c35.413 0 64 28.587 64 64s-28.587 64-64 64c-35.413 0-64-28.587-64-64s28.587-64 64-64zM234.667 682.667c47.36 0 85.333 37.973 85.333 85.333s-37.973 85.333-85.333 85.333c-47.36 0-85.333-37.973-85.333-85.333s37.973-85.333 85.333-85.333zM320-0v298.667h64v256c0 46.933-38.4 85.333-85.333 85.333h-128c-46.933 0-85.333-38.4-85.333-85.333v-256h64v-298.667h170.667zM597.333-0v170.667h42.667v170.667c0 34.987-29.013 64-64 64h-85.333c-34.987 0-64-29.013-64-64v-170.667h42.667v-170.667h128z" />
<glyph unicode="&#xe931;" glyph-name="fitness" d="M877.653 304.64l61.013 61.013-61.013 61.013-152.32-152.32-365.653 365.653 152.32 152.32-61.013 61.013-61.013-61.013-61.013 61.013-91.307-91.307-61.013 61.013-61.013-61.013 61.013-61.013-91.307-91.307 61.013-61.013-61.013-61.013 61.013-61.013 152.32 152.32 365.653-365.653-152.32-152.32 61.013-61.013 61.013 61.013 61.013-61.013 91.307 91.307 61.013-61.013 61.013 61.013-61.013 61.013 91.307 91.307z" />
<glyph unicode="&#xe932;" glyph-name="flat" d="M170.333 853.334h683.333c46.667 0 85-38.333 85-85v-683.333c0-46.667-38.333-85-85-85h-683.333c-46.667 0-85 38.333-85 85v683.333c0 46.667 38.333 85 85 85zM627 181.667h101.667l-155 501.667h-118.333l-156.667-501.667h100l30 116.667h166.667l31.667-116.667zM448.667 370l63.333 240 63.333-240h-126.667z" />
<glyph unicode="&#xe933;" glyph-name="flight" d="M896 256v85.333l-341.333 213.333v234.667c0 35.413-28.587 64-64 64s-64-28.587-64-64v-234.667l-341.333-213.333v-85.333l341.333 106.667v-234.667l-85.333-64v-64l149.333 42.667 149.333-42.667v64l-85.333 64v234.667l341.333-106.667z" />
<glyph unicode="&#xe934;" glyph-name="flight-outline" d="M810.667 725.334v-597.333h-597.333v597.333h597.333zM810.667 810.667h-597.333c-46.933 0-85.333-38.4-85.333-85.333v-597.333c0-46.933 38.4-85.333 85.333-85.333h597.333c46.933 0 85.333 38.4 85.333 85.333v597.333c0 46.933-38.4 85.333-85.333 85.333z" />
<glyph unicode="&#xe935;" glyph-name="fridge" d="M768 852.907l-512 0.427c-46.933 0-85.333-37.973-85.333-85.333v-682.667c0-46.933 38.4-85.333 85.333-85.333h512c46.933 0 85.333 38.4 85.333 85.333v682.667c0 47.36-38.4 84.907-85.333 84.907zM768 85.334h-512v384.853h512v-384.853zM768 554.667h-512v213.333h512v-213.333zM341.333 725.334h85.333v-128h-85.333v128zM341.333 426.667h85.333v-213.333h-85.333v213.333z" />
<glyph unicode="&#xe936;" glyph-name="gas" d="M843.52 630.187l0.427 0.427-158.72 158.72-45.227-45.227 90.027-90.027c-40.107-15.36-68.693-53.76-68.693-99.413 0-58.88 47.787-106.667 106.667-106.667 15.36 0 29.44 3.413 42.667 8.96v-307.627c0-23.467-19.2-42.667-42.667-42.667s-42.667 19.2-42.667 42.667v192c0 46.933-38.4 85.333-85.333 85.333h-42.667v298.667c0 46.933-38.4 85.333-85.333 85.333h-256c-46.933 0-85.333-38.4-85.333-85.333v-682.667h426.667v320h64v-213.333c0-58.88 47.787-106.667 106.667-106.667s106.667 47.787 106.667 106.667v405.333c0 29.44-11.947 56.32-31.147 75.52zM512 512h-256v213.333h256v-213.333zM768 512c-23.467 0-42.667 19.2-42.667 42.667s19.2 42.667 42.667 42.667c23.467 0 42.667-19.2 42.667-42.667s-19.2-42.667-42.667-42.667z" />
<glyph unicode="&#xe937;" glyph-name="gay-friendly" d="M296.898 368.008h-100v-370h131.667v366.667c-11.667 1.667-21.667 3.333-31.667 3.333zM491.898 626.341c-43.333 43.333-101.667 66.667-163.333 66.667h-131.667v-118.333h113.333c75 0 146.667-28.333 200-81.667 43.333-45 101.667-68.333 163.333-68.333h193.333v118.333h-175c-75 0-146.667 30-200 83.333zM571.898 768.008c-53.333 53.333-125 83.333-200 83.333h-175v-108.333h131.667c75 0 145-28.333 198.333-81.667 45-45 103.333-68.333 165-68.333h175v108.333h-131.667c-61.667 0-120 23.333-163.333 66.667zM296.898 418.008c61.667 0 120-25 163.333-68.333 53.333-53.333 125-83.333 200-83.333h206.667v108.333h-193.333c-75 0-146.667 30-200 83.333-43.333 43.333-101.667 66.667-163.333 66.667h-113.333v-106.667h100z" />
<glyph unicode="&#xe938;" glyph-name="gear" d="M853.333 853.334c47.128 0 85.333-38.205 85.333-85.333v-682.667c0-47.128-38.205-85.333-85.333-85.333h-682.667c-47.128 0-85.333 38.205-85.333 85.333v682.667c0 47.128 38.205 85.333 85.333 85.333h682.667zM422.957 682.667h-126.145l-40.812-512.742h94.98l12.614 211.478c2.968 47.49 4.452 93.743 4.452 138.759 0 16.819-0.495 41.553-1.484 74.203v0l99.432-368.788h92.754l93.496 368.046v-26.713c0-45.017 2.226-105.862 6.678-182.539v0l13.357-214.446h95.722l-40.070 512.742h-127.629l-86.075-359.142-91.27 359.142z" />
<glyph unicode="&#xe939;" glyph-name="golf" d="M384 853.334l341.333-167.253-256-130.56v-386.133c121.173-6.827 213.333-41.813 213.333-84.053 0-46.933-114.773-85.333-256-85.333s-256 38.4-256 85.333c0 31.573 51.627 58.88 128 73.813v0-73.813h85.333v768zM832 170.667c35.346 0 64-28.654 64-64s-28.654-64-64-64c-35.346 0-64 28.654-64 64s28.654 64 64 64z" />
<glyph unicode="&#xe93a;" glyph-name="gray" d="M853.333 682.667h-128v85.333c0 47.36-37.973 85.333-85.333 85.333h-256c-47.36 0-85.333-37.973-85.333-85.333v-85.333h-128c-47.36 0-85.333-37.973-85.333-85.333v-469.333c0-47.36 37.973-85.333 85.333-85.333h682.667c47.36 0 85.333 37.973 85.333 85.333v469.333c0 47.36-37.973 85.333-85.333 85.333zM384 768h256v-85.333h-256v85.333zM853.333 128h-682.667v85.333h682.667v-85.333zM853.333 341.334h-682.667v256h128v-85.333h85.333v85.333h256v-85.333h85.333v85.333h128v-256z" />
<glyph unicode="&#xe93b;" glyph-name="guest-16" d="M512 682.667c70.827 0 128-57.173 128-128s-57.173-128-128-128c-70.827 0-128 57.173-128 128s57.173 128 128 128zM768 170.667h-512v42.667c0 85.333 170.667 132.267 256 132.267s256-46.933 256-132.267v-42.667z" />
<glyph unicode="&#xe93c;" glyph-name="hairdryer" d="M368.667 91.667c0-50 40-91.667 91.667-91.667h45c50 0 91.667 41.667 91.667 91.667v148.333c0 13.333 10 25 25 25h53.333v50h-53.333c-41.667 0-75-33.333-75-75v-148.333c0-23.333-20-41.667-41.667-41.667h-45c-23.333 0-41.667 18.333-41.667 41.667v51.667h-50v-51.667zM400.333 361.667c-28.333-8.333-56.667-13.333-86.667-13.333-16.667 0-33.333 1.667-50 5l50-138.333c5-13.333 18.333-21.667 31.667-21.667h90c23.333 0 38.333 23.333 31.667 45l-48.333 130-18.333-6.667zM913.667 315c13.333 0 25 11.667 25 25s-11.667 25-25 25h-38.333v-50h38.333zM913.667 215c13.333 0 25 11.667 25 25s-11.667 25-25 25h-38.333v-50h38.333zM733.667 521.667v208.333l-348.333 111.667c-23.333 8.333-48.333 11.667-71.667 11.667-118.333 0-225-95-228.333-221.667 0-1.667 0-3.333 0-5 0-3.333 0-5 0-6.667 3.333-126.667 110-221.667 228.333-221.667 23.333 0 48.333 3.333 71.667 11.667l348.333 111.667zM322 743.334c65 0 116.667-53.333 116.667-116.667 0-65-51.667-116.667-116.667-116.667s-116.667 51.667-116.667 116.667c0 63.333 51.667 116.667 116.667 116.667zM920.333 768.334c-1.667 0-3.333 0-5-1.667l-131.667-38.333v-205l131.667-38.333c1.667-1.667 3.333-1.667 5-1.667 10 0 18.333 8.333 18.333 18.333v248.333c0 10-8.333 18.333-18.333 18.333zM388.667 626.667c0-38.333-30-66.667-66.667-66.667s-66.667 28.333-66.667 66.667c0 36.667 30 66.667 66.667 66.667s66.667-30 66.667-66.667zM725.333 240c0-18.333 15-33.333 33.333-33.333h66.667v166.667h-66.667c-18.333 0-33.333-15-33.333-33.333v-100z" />
<glyph unicode="&#xe93d;" glyph-name="heating" d="M543.322-1.992c-25 0-48.333 5-71.667 15-21.667 8.333-41.667 21.667-58.333 38.333s-30 36.667-38.333 58.333c-10 21.667-15 46.667-15 71.667 0 28.333 8.333 58.333 21.667 83.333 10 21.667 26.667 41.667 46.667 58.333v441.667c0 48.333 38.333 86.667 86.667 86.667h56.667c46.667 0 86.667-38.333 86.667-86.667v-441.667c20-16.667 35-36.667 46.667-58.333 13.333-25 20-55 20-83.333 0-25-3.333-50-13.333-71.667s-23.333-41.667-40-58.333c-16.667-16.667-35-30-56.667-38.333-23.333-10-46.667-15-71.667-15zM514.988 814.675c-28.333 0-51.667-21.667-51.667-50v-451.667c0-5-1.667-10-6.667-13.333-38.333-28.333-60-71.667-60-118.333 0-81.667 65-146.667 146.667-146.667 80 0 146.667 65 146.667 146.667 0 46.667-23.333 90-60 118.333-5 3.333-8.333 8.333-8.333 13.333v451.667c0 28.333-21.667 50-50 50h-56.667zM581.655 284.675v391.667c0 15-13.333 28.333-28.333 28.333h-20c-15 0-28.333-13.333-28.333-28.333v-391.667c-43.333-15-73.333-56.667-73.333-103.333 0-61.667 50-111.667 111.667-111.667s111.667 50 111.667 111.667c0 46.667-31.667 88.333-73.333 103.333zM518.322 214.675c-8.333-6.667-13.333-16.667-15-28.333-1.667-5-1.667-10 0-16.667s-3.333-15-11.667-15c0-1.667-1.667-1.667-1.667-1.667-6.667 0-11.667 5-13.333 11.667-1.667 8.333-1.667 18.333 0 26.667 1.667 16.667 11.667 33.333 23.333 43.333 6.667 5 15 5 20 0 5-6.667 3.333-15-1.667-20zM359.988 719.675c0-8.333-6.667-13.333-13.333-13.333h-31.667c-6.667 0-13.333 5-13.333 13.333v16.667c0 8.333 6.667 15 13.333 15h31.667c6.667 0 13.333-6.667 13.333-15v-16.667zM359.988 624.675c0-8.333-6.667-15-13.333-15h-31.667c-6.667 0-13.333 6.667-13.333 15v15c0 8.333 6.667 15 13.333 15h31.667c6.667 0 13.333-6.667 13.333-15v-15zM359.988 528.008c0-6.667-6.667-13.333-13.333-13.333h-31.667c-6.667 0-13.333 6.667-13.333 13.333v16.667c0 8.333 6.667 15 13.333 15h31.667c6.667 0 13.333-6.667 13.333-15v-16.667zM359.988 433.008c0-8.333-6.667-15-13.333-15h-31.667c-6.667 0-13.333 6.667-13.333 15v16.667c0 6.667 6.667 13.333 13.333 13.333h31.667c6.667 0 13.333-6.667 13.333-13.333v-16.667zM359.988 336.341c0-6.667-6.667-13.333-13.333-13.333h-31.667c-6.667 0-13.333 6.667-13.333 13.333v16.667c0 8.333 6.667 15 13.333 15h31.667c6.667 0 13.333-6.667 13.333-15v-16.667z" />
<glyph unicode="&#xe93e;" glyph-name="horse-riding" d="M822.997 103.008c-66.667 23.333-131.667 53.333-193.333 90-83.333 50-101.667 81.667-101.667 90 0 68.333 35 490 35 495 0 10-3.333 18.333-10 26.667-6.667 6.667-15 11.667-25 11.667h-53.333v-71.667c0-58.333-48.333-106.667-106.667-106.667-60 0-106.667 48.333-106.667 106.667v71.667h-53.333c-10 0-20-5-26.667-11.667-6.667-8.333-10-18.333-10-28.333 23.333-210 43.333-443.333 38.333-481.667-23.333-48.333-36.667-100-38.333-155v-106.667c0-18.333 16.667-35 36.667-35h141.667c13.333 0 25 6.667 31.667 18.333l13.333 26.667 36.667-35c6.667-6.667 16.667-10 25-10h355c20 0 36.667 16.667 36.667 35v36.667c0 15-10 28.333-25 33.333zM367.997 673.008c38.333 0 70 31.667 70 71.667v88.333c0 10-6.667 18.333-16.667 18.333h-106.667c-10 0-18.333-8.333-18.333-18.333v-88.333c0-40 31.667-71.667 71.667-71.667zM367.997 779.675c18.333 0 35-15 35-35s-16.667-35-35-35c-20 0-36.667 15-36.667 35s16.667 35 36.667 35z" />
<glyph unicode="&#xe93f;" glyph-name="hotel" d="M512 640v170.667h-426.667v-768h853.333v597.333h-426.667zM256 128h-85.333v85.333h85.333v-85.333zM256 298.667h-85.333v85.333h85.333v-85.333zM256 469.334h-85.333v85.333h85.333v-85.333zM256 640h-85.333v85.333h85.333v-85.333zM426.667 128h-85.333v85.333h85.333v-85.333zM426.667 298.667h-85.333v85.333h85.333v-85.333zM426.667 469.334h-85.333v85.333h85.333v-85.333zM426.667 640h-85.333v85.333h85.333v-85.333zM853.333 128h-341.333v85.333h85.333v85.333h-85.333v85.333h85.333v85.333h-85.333v85.333h341.333v-426.667zM768 469.334h-85.333v-85.333h85.333v85.333zM768 298.667h-85.333v-85.333h85.333v85.333z" />
<glyph unicode="&#xe940;" glyph-name="kids-friendly" d="M768 85.334c0-47.128-38.205-85.333-85.333-85.333s-85.333 38.205-85.333 85.333c0 47.128 38.205 85.333 85.333 85.333s85.333-38.205 85.333-85.333zM341.333 85.334c0-47.128-38.205-85.333-85.333-85.333s-85.333 38.205-85.333 85.333c0 47.128 38.205 85.333 85.333 85.333s85.333-38.205 85.333-85.333zM938.667 640v22.187c0 81.92-63.147 148.48-142.933 148.48-70.827 0-108.373-54.187-135.68-86.613l-375.467-440.32c-23.467-27.733-3.84-70.4 32.427-70.4h322.987c46.933 0 85.333 38.4 85.333 85.333v372.48c24.747 29.013 41.387 54.187 70.4 54.187 32.853 0 57.6-28.16 57.6-63.147v-22.187h85.333zM610.133 763.734c-54.187 29.867-116.907 46.933-183.467 46.933-84.053 0-161.707-27.307-225.28-73.387l208.64-208.64 200.107 235.093z" />
<glyph unicode="&#xe941;" glyph-name="kids-friendly-1" d="M713.34 436.341c38.333 41.667 61.667 96.667 61.667 156.667 0 30-5 58.333-16.667 85 33.333 13.333 56.667 45 56.667 83.333 0 50-41.667 90-91.667 90-35 0-66.667-21.667-81.667-51.667-33.333 16.667-71.667 25-111.667 25s-78.333-8.333-111.667-25c-15 30-46.667 51.667-81.667 51.667-50 0-91.667-40-91.667-90 0-38.333 23.333-70 56.667-83.333-11.667-26.667-16.667-55-16.667-85 0-60 23.333-115 61.667-156.667-68.333-65-178.333-168.333-151.667-273.333 11.667-48.333 43.333-68.333 76.667-70 1.667 61.667 48.333 111.667 103.333 111.667 56.667 0 103.333-51.667 103.333-116.667 0-36.667-15-68.333-38.333-90 40 0 85 0 90 0 10 0 51.667 0 90 0-23.333 21.667-38.333 53.333-38.333 90 0 65 46.667 116.667 103.333 116.667 55 0 101.667-50 103.333-111.667 33.333 1.667 65 21.667 76.667 70 26.667 105-83.333 208.333-151.667 273.333zM326.674 723.008c-16.667 5-30 20-30 38.333 0 21.667 18.333 38.333 40 38.333 16.667 0 31.667-11.667 36.667-28.333-18.333-13.333-33.333-30-46.667-48.333zM633.34 611.341c10 0 20-8.333 20-18.333 0-11.667-10-20-20-20s-20 8.333-20 20c0 10 10 18.333 20 18.333zM426.674 611.341c10 0 20-8.333 20-18.333 0-11.667-10-20-20-20s-20 8.333-20 20c0 10 10 18.333 20 18.333zM530.007 359.675c-85 0-155 46.667-155 103.333 0 58.333 70 103.333 155 103.333s155-45 155-103.333c0-56.667-70-103.333-155-103.333zM686.674 771.341c5 16.667 20 28.333 36.667 28.333 21.667 0 40-16.667 40-38.333 0-18.333-13.333-33.333-30-38.333-13.333 18.333-28.333 35-46.667 48.333zM418.34 81.341c0-25-20-45-45-45s-45 20-45 45c0 25 20 46.667 45 46.667s45-21.667 45-46.667zM731.674 81.341c0-25-20-45-45-45s-45 20-45 45c0 25 20 46.667 45 46.667s45-21.667 45-46.667zM530.007 514.675c-28.333 0-51.667-3.333-51.667-25 0-23.333 23.333-51.667 51.667-51.667s51.667 28.333 51.667 51.667c0 21.667-23.333 25-51.667 25z" />
<glyph unicode="&#xe942;" glyph-name="kitchenette" d="M768 512v128c0 70.827-57.173 128-128 128s-128-57.173-128-128h85.333c0 23.467 19.2 42.667 42.667 42.667s42.667-19.2 42.667-42.667v-128h-341.333c46.933 0 85.333 38.4 85.333 85.333v170.667h-256v-170.667c0-46.933 38.4-85.333 85.333-85.333h-170.667v-85.333h85.333v-341.333h682.667v341.333h85.333v85.333h-170.667zM554.667 170.667h-85.333v256h85.333v-256z" />
<glyph unicode="&#xe943;" glyph-name="laundry" d="M921.6 162.134l-366.933 275.2v38.827c70.4 20.907 119.467 92.587 103.68 172.8-11.093 55.893-55.467 102.4-111.36 115.2-97.28 22.187-184.32-51.627-184.32-145.493h85.333c0 35.413 28.587 64 64 64s64-28.587 64-64c0-35.84-29.44-64.853-65.28-64-23.040 0.427-41.387-19.2-41.387-42.24v-75.093l-366.933-275.2c-32.853-24.747-15.36-76.8 25.6-76.8h768c40.96 0 58.453 52.053 25.6 76.8zM256 170.667l256 192 256-192h-512z" />
<glyph unicode="&#xe944;" glyph-name="library" d="M512 445.867c-100.693 93.867-235.52 151.467-384 151.467v-469.333c148.48 0 283.307-57.6 384-151.467 100.693 93.44 235.52 151.467 384 151.467v469.333c-148.48 0-283.307-57.6-384-151.467zM512 597.334c70.827 0 128 57.173 128 128s-57.173 128-128 128c-70.827 0-128-57.173-128-128s57.173-128 128-128z" />
<glyph unicode="&#xe945;" glyph-name="lift" d="M810.667 810.667h-597.333c-46.933 0-85.333-38.4-85.333-85.333v-597.333c0-46.933 38.4-85.333 85.333-85.333h597.333c46.933 0 85.333 38.4 85.333 85.333v597.333c0 46.933-38.4 85.333-85.333 85.333zM362.667 682.667c29.44 0 53.333-23.893 53.333-53.333s-23.893-53.333-53.333-53.333c-29.44 0-53.333 23.893-53.333 53.333s23.893 53.333 53.333 53.333zM469.333 341.334h-42.667v-170.667h-128v170.667h-42.667v106.667c0 46.933 38.4 85.333 85.333 85.333h42.667c46.933 0 85.333-38.4 85.333-85.333v-106.667zM661.333 213.334l-106.667 170.667h213.333l-106.667-170.667zM554.667 469.334l106.667 170.667 106.667-170.667h-213.333z" />
<glyph unicode="&#xe946;" glyph-name="linkedin" d="M243.422 184.368h112.5v337.987h-112.5v-337.987zM363.227 626.576c-0.325 16.883-6.169 30.844-17.532 41.883s-26.461 16.558-45.292 16.558c-18.831 0-34.172-5.519-46.023-16.558s-17.776-25-17.776-41.883c0-16.559 5.763-30.438 17.289-41.64s26.542-16.802 45.049-16.802h0.487c19.156 0 34.578 5.601 46.266 16.802s17.532 25.081 17.532 41.64zM530.273 474.708v-1.541h-0.974c0.323 0.517 0.647 1.031 0.974 1.541v0zM810.667 810.667c47.128 0 85.333-38.205 85.333-85.333v-597.333c0-47.128-38.205-85.333-85.333-85.333h-597.333c-47.128 0-85.333 38.205-85.333 85.333v597.333c0 47.128 38.205 85.333 85.333 85.333h597.333zM631.084 530.148c-43.555 0-77.158-18.48-100.812-55.439v47.647h-112.5c0.417-9.184 0.656-35.124 0.716-77.822v-48.284c-0.060-53.87-0.298-124.496-0.716-211.881h112.5v188.961c0 12.338 1.136 21.429 3.409 27.273 4.87 11.364 12.175 21.023 21.916 28.977s21.753 11.932 36.039 11.932c37.663 0 56.494-25.487 56.494-76.461v-180.682h112.5v193.831c0 50-11.851 87.825-35.552 113.474s-55.032 38.474-93.994 38.474z" />
<glyph unicode="&#xe947;" glyph-name="loader-blue" d="M682.667 128l-170.667 170.667v-128c-141.227 0-256 114.773-256 256 0 43.093 10.667 84.053 29.867 119.467l-62.293 62.293c-33.28-52.48-52.907-114.773-52.907-181.76 0-188.587 152.747-341.333 341.333-341.333v-128l170.667 170.667zM512 682.667c141.227 0 256-114.773 256-256 0-43.093-10.667-84.053-29.867-119.467l62.293-62.293c33.28 52.48 52.907 114.773 52.907 181.76 0 188.587-152.747 341.333-341.333 341.333v128l-170.667-170.667 170.667-170.667v128z" />
<glyph unicode="&#xe948;" glyph-name="location" d="M512 853.334c-165.12 0-298.667-133.547-298.667-298.667 0-224 298.667-554.667 298.667-554.667s298.667 330.667 298.667 554.667c0 165.12-133.547 298.667-298.667 298.667zM512 448c-58.88 0-106.667 47.787-106.667 106.667s47.787 106.667 106.667 106.667c58.88 0 106.667-47.787 106.667-106.667s-47.787-106.667-106.667-106.667z" />
<glyph unicode="&#xe949;" glyph-name="map-loc" d="M896 810.667l-768-321.28v-41.813l291.84-113.067 112.64-291.84h41.813z" />
<glyph unicode="&#xe94a;" d="M981.333 426.667c0-164.949-133.718-298.667-298.667-298.667s-298.667 133.718-298.667 298.667c0 164.949 133.718 298.667 298.667 298.667s298.667-133.718 298.667-298.667z" />
<glyph unicode="&#xe94b;" d="M640 426.667c0-164.949-133.718-298.667-298.667-298.667s-298.667 133.718-298.667 298.667c0 164.949 133.718 298.667 298.667 298.667s298.667-133.718 298.667-298.667z" />
<glyph unicode="&#xe94c;" d="M384 426.667c0-101.44 50.688-190.933 128-244.907 77.312 53.973 128 143.467 128 244.907s-50.688 190.933-128 244.907c-77.312-53.973-128-143.467-128-244.907z" />
<glyph unicode="&#xe94d;" glyph-name="meal" d="M770.56-42.24h70.827c35.84 0 65.28 27.307 69.547 62.293l70.4 703.147h-213.333v172.8h-84.053v-172.8h-212.053l12.8-99.84c72.96-20.053 141.227-56.32 182.187-96.427 61.44-60.587 103.68-123.307 103.68-225.707v-343.467zM42.667 0.427v42.24h641.28v-42.24c0-23.467-19.2-42.667-43.093-42.667h-555.093c-23.893 0-43.093 19.2-43.093 42.667zM683.947 299.094c0 341.333-641.28 341.333-641.28 0h641.28zM43.52 213.334h640v-85.333h-640v85.333z" />
<glyph unicode="&#xe94e;" glyph-name="menu" d="M746.667 746.667c49.92 0 101.973-6.4 149.333-21.333 32-10.667 59.733-23.467 85.333-42.667v0-622.933c0-10.667-10.667-21.333-21.333-21.333-4.267 0-6.4 0-10.667 2.133-59.733 32-132.267 44.8-202.667 44.8-72.533 0-177.067-27.733-234.667-64-61.867 46.933-151.467 64-234.667 64-61.867 0-145.067-19.2-202.667-46.933-4.267 0-6.4-2.133-10.667-2.133-10.667 0-21.333 10.667-21.333 21.333v0 625.067c61.867 46.933 151.467 64 234.667 64s172.8-17.067 234.667-64c61.867 46.933 151.467 64 234.667 64zM746.667 661.334c-72.533 0-177.067-27.733-234.667-64v0-490.667c57.6 36.267 162.133 64 234.667 64 51.2 0 102.4-6.4 149.333-21.333v0 490.667c-46.933 14.933-98.133 21.333-149.333 21.333zM746.667 327.254c30.578 0 60.859-2.37 89.61-7.111l17.057-3.129v-64.853c-32.853 7.253-69.12 11.093-106.667 11.093-71.68 0-134.811-13.009-182.11-36.944l-9.89-5.296v70.827c53.76 23.040 119.467 35.413 192 35.413zM746.667 441.174c30.578 0 60.859-2.667 89.61-7.259l17.057-2.981v-64.853c-32.853 7.253-69.12 11.093-106.667 11.093-71.68 0-134.811-13.009-182.11-36.944l-9.89-5.296v70.827c53.76 22.613 119.467 35.413 192 35.413zM746.667 554.667c30.578 0 60.859-2.667 89.61-7.259l17.057-2.981v-64.853c-32.853 7.253-69.12 11.093-106.667 11.093-71.68 0-134.811-13.009-182.11-36.944l-9.89-5.296v70.827c53.76 23.040 119.467 35.413 192 35.413z" />
<glyph unicode="&#xe94f;" glyph-name="minibar" d="M919.857 699.739h-58.099v116.199c0 43.574-34.496 78.071-78.071 78.071h-58.099c-10.894 0-18.156-9.078-18.156-19.972v-29.050c-12.709 5.447-25.418 10.894-39.943 10.894h-502.922c-43.574 0-78.071-34.496-78.071-78.071v-697.191c0-43.574 34.496-78.071 78.071-78.071h502.922c14.525 0 27.234 5.447 39.943 10.894v-29.050c0-10.894 7.262-19.972 18.156-19.972h58.099c43.574 0 78.071 34.496 78.071 78.071v270.525h58.099c10.894 0 19.972 9.078 19.972 19.972v348.596c0 10.894-9.078 18.156-19.972 18.156zM629.361 118.746h-426.667v620.936h426.667v-620.936zM899.886 351.143h-38.128v310.468h38.128v-310.468zM260.793 158.689h58.099c10.894 0 19.972 7.262 19.972 18.156v19.972c0 25.418 7.262 43.574 14.525 58.099v0c3.631 9.078 5.447 14.525 5.447 23.603s0 14.525-5.447 27.234c-5.447 21.787-14.525 47.206-14.525 94.411 0 50.837 23.603 92.596 38.128 119.83l5.447 9.078c1.816 3.631 3.631 9.078 1.816 14.525-3.631 14.525-3.631 29.050-3.631 39.943 0 3.631 0 10.894 1.816 14.525 1.816 7.262 0 12.709-3.631 18.156-3.631 3.631-9.078 7.262-14.525 7.262h-50.837c-7.262 0-12.709-3.631-16.34-10.894l-10.894-18.156c-1.816-3.631-1.816-9.078-1.816-12.709 0-16.34 0-32.681 9.078-43.574-3.631-10.894-10.894-23.603-18.156-38.128-14.525-27.234-32.681-58.099-32.681-99.858s7.262-63.546 12.709-83.518c3.631-12.709 7.262-23.603 7.262-38.128 0-16.34-3.631-27.234-9.078-39.943-5.447-10.894-10.894-25.418-10.894-41.759v-19.972c0-10.894 7.262-18.156 18.156-18.156zM376.992 400.164c0-39.943 7.262-63.546 12.709-81.702 3.631-14.525 7.262-23.603 7.262-39.943s-5.447-29.050-9.078-39.943c-5.447-12.709-10.894-25.418-10.894-41.759v-19.972c0-10.894 9.078-18.156 19.972-18.156h154.326c10.894 0 19.972 7.262 19.972 18.156v19.972c0 16.34-5.447 29.050-9.078 41.759-5.447 10.894-9.078 23.603-9.078 39.943s1.816 25.418 7.262 39.943c3.631 18.156 10.894 41.759 10.894 81.702 0 41.759-16.34 72.624-29.050 98.043-7.262 14.525-14.525 29.050-16.34 39.943 7.262 10.894 9.078 27.234 9.078 47.206 0 1.816-1.816 5.447-3.631 9.078l-9.078 18.156c-1.816 5.447-9.078 10.894-16.34 10.894h-61.73c-9.078 0-14.525-5.447-18.156-10.894l-9.078-18.156c-1.816-3.631-1.816-9.078-1.816-10.894 0-18.156 0-34.496 7.262-45.39-1.816-10.894-9.078-25.418-16.34-39.943-12.709-25.418-29.050-56.284-29.050-98.043z" />
<glyph unicode="&#xe950;" glyph-name="minus" d="M213.333 469.334h597.333v-85.333h-597.333v85.333z" />
<glyph unicode="&#xe951;" glyph-name="mobile-network" d="M725.333 768h128v-682.667h-128v682.667zM213.333 341.334h128v-256h-128v256zM469.333 554.667h128v-469.333h-128v469.333z" />
<glyph unicode="&#xe952;" glyph-name="moon" d="M513.992 851.341c235 0 426.667-191.667 426.667-426.667s-191.667-426.667-426.667-426.667c-45 0-86.667 6.667-128.333 20 173.333 53.333 298.333 215 298.333 406.667s-125 353.333-298.333 406.667c41.667 13.333 83.333 20 128.333 20zM397.326 243.008l-53.333-116.667-53.333 116.667-118.333 53.333 118.333 53.333 53.333 118.333 53.333-118.333 116.667-53.333-116.667-53.333zM255.659 554.675l-40-86.667-40 86.667-88.333 40 88.333 40 40 88.333 40-88.333 88.333-40-88.333-40z" />
<glyph unicode="&#xe953;" glyph-name="nightclub" d="M924.93 698.069l-59.941 29.971-29.971 59.941c-8.325 16.65-34.966 16.65-43.291 0l-29.971-59.941-59.941-29.971c-18.315-8.325-18.315-34.966 0-43.291l59.941-29.971 29.971-59.941c8.325-18.315 34.966-18.315 43.291 0l29.971 59.941 59.941 29.971c18.315 8.325 18.315 34.966 0 43.291zM322.185 751.35l-59.941 29.971-29.971 58.276c-8.325 18.315-34.966 18.315-43.291 0l-29.971-58.276-59.941-29.971c-18.315-8.325-18.315-34.966 0-44.956l59.941-29.971 29.971-58.276c8.325-18.315 34.966-18.315 43.291 0l29.971 58.276 59.941 29.971c18.315 9.99 18.315 36.631 0 44.956zM586.927 643.122v33.301c0 33.301-21.646 59.941-49.951 69.932v81.587c0 13.32-11.655 24.976-24.976 24.976s-24.976-11.655-24.976-24.976v-81.587c-28.306-9.99-49.951-36.631-49.951-69.932v-33.301c-144.859-34.966-249.756-164.839-249.756-316.358 0-176.494 144.859-326.348 324.683-326.348s324.683 149.854 324.683 326.348c0 149.854-104.898 281.392-249.756 316.358zM238.933 351.74c3.33 34.966 13.32 69.932 28.306 99.902h83.252c-6.66-31.636-11.655-64.937-13.32-99.902h-98.237zM300.54 151.935h63.272c9.99-28.306 21.646-54.946 34.966-74.927-38.296 16.65-71.597 43.291-98.237 74.927zM487.024 201.887h-84.917c-6.66 29.971-11.655 63.272-13.32 99.902h98.237v-99.902zM487.024 501.594h-69.932c19.98 46.621 44.956 79.922 69.932 93.242v-93.242zM536.976 58.693v93.242h69.932c-19.98-46.621-44.956-79.922-69.932-93.242zM536.976 351.74v99.902h84.917c6.66-29.971 11.655-63.272 13.32-99.902h-98.237zM625.223 576.521c38.296-16.65 71.597-43.291 98.237-74.927h-63.272c-9.99 28.306-21.646 54.946-34.966 74.927zM673.509 201.887c6.66 31.636 11.655 64.937 13.32 99.902h98.237c-3.33-34.966-13.32-69.932-28.306-99.902h-83.252z" />
<glyph unicode="&#xe954;" glyph-name="no-bag" d="M143.781 853.334l794.886-794.886-58.915-58.447-82.325 82.325c-15.134-23.838-41.766-39.659-72.093-39.659v-85.333h-85.333v85.333h-256v-85.333h-85.333v85.333c-47.128 0-85.333 38.205-85.333 85.333v512c0 8.123 1.135 15.981 3.255 23.424l-131.255 131.462 58.447 58.447zM597.333 896c47.128 0 85.333-38.205 85.333-85.333v-85.333h42.667c47.128 0 85.333-38.205 85.333-85.333v-373.333l-469.333 469.333v74.667c0 47.128 38.205 85.333 85.333 85.333h170.667zM597.333 810.667h-170.667v-85.333h170.667v85.333z" />
<glyph unicode="&#xe955;" glyph-name="no-insurance" d="M512 896l-384-170.667v-256c0-236.8 163.84-458.24 384-512 220.16 53.76 384 275.2 384 512v256l-384 170.667zM512 427.094h298.667c-22.613-175.787-139.947-332.373-298.667-381.44v381.013h-298.667v243.2l298.667 132.693v-375.467z" />
<glyph unicode="&#xe956;" glyph-name="on-main-road" d="M920.338 451.622l-263.268 81.647c-4.999 1.666-9.998 1.666-14.996 1.666l-128.302-36.658c-3.333-6.665-8.331-13.33-13.33-19.995-9.998-16.663-21.661-33.325-33.325-48.321l48.321 13.33v-84.979l-146.631-39.99-179.956 54.986 18.329 86.645 48.321-11.664c-6.665 9.998-13.33 19.995-19.995 29.993-8.331 13.33-14.996 24.994-21.661 36.658l-21.661 4.999c-6.665 1.666-14.996 0-21.661-3.333-6.665-4.999-9.998-9.998-11.664-18.329l-73.315-358.245c-1.666-13.33 6.665-28.326 21.661-31.659l268.267-59.985c4.999-1.666 8.331-1.666 13.33 0l206.616 59.985 291.595-76.648c1.666 0 3.333 0 6.665 0 4.999 0 11.664 1.666 14.996 4.999 6.665 4.999 11.664 11.664 11.664 19.995l18.329 368.243c0 11.664-6.665 23.328-18.329 26.66zM515.438 141.699l-134.967-38.324-234.942 51.654 29.993 149.963 183.288-54.986c6.665-1.666 13.33-1.666 18.329 0l138.299 38.324v-146.631zM867.018 93.377l-264.935 69.983c-3.333 0-4.999 0-6.665 0-3.333 0-4.999 0-8.331 0l-3.333-1.666v144.964l18.329 4.999 273.266-59.985-8.331-158.294zM878.681 319.988l-269.933 59.985c-4.999 1.666-9.998 1.666-16.663 0l-8.331-1.666v83.313l64.984 18.329 234.942-73.315-4.999-86.645zM368.807 376.641c3.333 0 8.331 1.666 9.998 4.999 34.991 41.656 149.963 188.287 149.963 259.936 0 88.312-71.649 159.961-159.961 159.961s-159.961-71.649-159.961-159.961c0-71.649 113.305-218.28 148.297-259.936 3.333-3.333 6.665-4.999 11.664-4.999zM313.821 651.573c0 29.993 24.994 54.986 54.986 54.986s54.986-24.994 54.986-54.986c0-29.993-24.994-54.986-54.986-54.986s-54.986 24.994-54.986 54.986z" />
<glyph unicode="&#xe957;" glyph-name="on-the-beach" d="M915.659 478.489c-26.667 0-51.667 11.667-75 33.333-13.333 13.333-36.667 13.333-51.667 0-21.667-21.667-48.333-33.333-75-33.333-25 0-51.667 11.667-73.333 33.333-15 13.333-38.333 13.333-51.667 0-23.333-21.667-48.333-33.333-75-33.333s-51.667 11.667-75 33.333c-13.333 13.333-36.667 13.333-51.667 0-21.667-21.667-48.333-33.333-73.333-33.333-26.667 0-53.333 11.667-75 33.333-15 13.333-38.333 13.333-51.667 0-23.333-21.667-48.333-33.333-75-33.333-13.333 0-25-10-25-25v-228.333c0-10 5-18.333 11.667-21.667l5-3.333c48.333-28.333 98.333-50 150-68.333v111.667c0 41.667 25 78.333 61.667 93.333l168.333 73.333c10 5 20 6.667 30 6.667s20-1.667 30-6.667l168.333-73.333c36.667-15 61.667-51.667 61.667-93.333v-111.667c53.333 18.333 105 41.667 155 71.667 6.667 3.333 11.667 11.667 11.667 21.667v228.333c0 15-11.667 25-25 25zM783.992 751.823c0-33.333-28.333-61.667-61.667-61.667-35 0-61.667 28.333-61.667 61.667 0 35 26.667 61.667 61.667 61.667 33.333 0 61.667-26.667 61.667-61.667zM307.326 260.156h411.667c0 0 1.667 0 1.667 0-3.333 13.333-15 25-28.333 31.667l-168.333 73.333c-6.667 1.667-13.333 1.667-20 0l-168.333-73.333c-13.333-6.667-23.333-18.333-28.333-31.667 0 0 0 0 0 0zM723.992 210.156c-1.667 0-3.333 0-5 0h-411.667c0 0-1.667 0-3.333 0v-133.333c0-30 23.333-53.333 53.333-53.333h38.333v135h70v-135h205c30 0 53.333 23.333 53.333 53.333v133.333zM645.659 95.156h-83.333v63.333h83.333v-63.333zM112.326 550.156c36.667 0 70 13.333 100 38.333 30-25 65-38.333 101.667-38.333 35 0 70 13.333 100 38.333 30-25 63.333-38.333 100-38.333s70 13.333 100 38.333c30-25 65-38.333 100-38.333 36.667 0 71.667 13.333 101.667 38.333 30-25 63.333-38.333 100-38.333 13.333 0 25 10 25 25 0 13.333-11.667 25-25 25-26.667 0-51.667 10-75 31.667-13.333 13.333-36.667 13.333-51.667 0-21.667-21.667-48.333-31.667-75-31.667-25 0-51.667 10-73.333 31.667-15 13.333-38.333 13.333-51.667 0-23.333-21.667-48.333-31.667-75-31.667s-51.667 10-75 31.667c-13.333 13.333-36.667 13.333-51.667 0-21.667-21.667-48.333-31.667-73.333-31.667-26.667 0-53.333 10-75 31.667-15 13.333-38.333 13.333-51.667 0-23.333-21.667-48.333-31.667-75-31.667-13.333 0-25-11.667-25-25 0-15 11.667-25 25-25z" />
<glyph unicode="&#xe958;" glyph-name="open-map" d="M810.667 128h-597.333v597.333h298.667v85.333h-298.667c-47.36 0-85.333-38.4-85.333-85.333v-597.333c0-46.933 37.973-85.333 85.333-85.333h597.333c46.933 0 85.333 38.4 85.333 85.333v298.667h-85.333v-298.667zM597.333 810.667v-85.333h153.173l-419.413-419.413 60.16-60.16 419.413 419.413v-153.173h85.333v298.667h-298.667z" />
<glyph unicode="&#xe959;" glyph-name="opt" d="M512 853.334c-235.52 0-426.667-191.147-426.667-426.667s191.147-426.667 426.667-426.667c235.52 0 426.667 191.147 426.667 426.667s-191.147 426.667-426.667 426.667zM554.667 213.334h-85.333v256h85.333v-256zM554.667 554.667h-85.333v85.333h85.333v-85.333z" />
<glyph unicode="&#xe95a;" glyph-name="parking" d="M810.5 810.667h-597c-46.5 0-85.5-39-85.5-85.5v-597c0-46.5 39-85.5 85.5-85.5h597c46.5 0 85.5 39 85.5 85.5v597c0 46.5-39 85.5-85.5 85.5zM417.5 366.667v-153h-76.5v426h184.5c63 0 93-12 118.5-37.5 30-25.5 39-60 39-99 0-42-13.5-76.5-39-97.5s-55.5-34.5-118.5-34.5h-108v-4.5zM417.5 426.667v153h99c30 0 51-7.5 64.5-25.5 12-16.5 21-30 21-51 0-25.5-9-37.5-21-55.5-13.5-12-30-21-60-21h-103.5z" />
<glyph unicode="&#xe95b;" glyph-name="pet-friendly" d="M512 490.667c11.093 0 22.613 0 33.28-1.707 4.693-0.853 9.387-2.133 14.080-3.84 29.867-10.24 55.040-33.28 74.667-56.32 37.547-43.52 68.693-80.64 105.813-124.16 55.893-55.893 124.587-117.76 111.36-204.8-12.373-43.093-43.52-86.613-99.413-98.987-31.147-5.973-130.56 18.773-236.373 18.773v0h-7.68c-105.813 0-205.227-25.173-236.373-18.773-55.893 12.373-87.040 55.467-99.413 98.987-12.8 86.613 55.893 148.48 111.787 204.373 37.547 43.52 68.693 80.64 105.813 124.16 20.053 23.040 44.8 46.080 74.667 56.32 4.693 1.707 9.387 2.987 14.080 3.84 11.093 2.133 22.613 2.133 33.707 2.133zM192 640c58.91 0 106.667-47.756 106.667-106.667s-47.756-106.667-106.667-106.667c-58.91 0-106.667 47.756-106.667 106.667s47.756 106.667 106.667 106.667zM832 640c58.91 0 106.667-47.756 106.667-106.667s-47.756-106.667-106.667-106.667c-58.91 0-106.667 47.756-106.667 106.667s47.756 106.667 106.667 106.667zM384 810.667c58.91 0 106.667-47.756 106.667-106.667s-47.756-106.667-106.667-106.667c-58.91 0-106.667 47.756-106.667 106.667s47.756 106.667 106.667 106.667zM640 810.667c58.91 0 106.667-47.756 106.667-106.667s-47.756-106.667-106.667-106.667c-58.91 0-106.667 47.756-106.667 106.667s47.756 106.667 106.667 106.667z" />
<glyph unicode="&#xe95c;" glyph-name="plus" d="M810.667 384h-256v-256h-85.333v256h-256v85.333h256v256h85.333v-256h256z" />
<glyph unicode="&#xe95d;" glyph-name="private-beach" d="M318.667 145.439l43.333-30h576.667v30h-620zM622 28.772h171.667v-28.333h-171.667v28.333zM563.667 87.106h288.333v-28.333h-288.333v28.333zM798.667 408.772c51.667-50 51.667-133.333 0-183.333-50-50-133.333-50-183.333 0s-50 133.333 0 183.333c50 51.667 133.333 51.667 183.333 0zM225.333 163.772c85 141.667 136.667 300 150 465l155-156.667c25 48.333 15 108.333-23.333 146.667l-13.333 13.333c-8.333 10-20 16.667-31.667 23.333h145c-16.667 51.667-65 86.667-118.333 86.667h-20c-13.333 0-28.333-1.667-41.667-6.667l105 103.333c-50 25-108.333 15-146.667-23.333l-13.333-13.333c-10-10-18.333-20-23.333-31.667-6.667 11.667-13.333 21.667-23.333 31.667l-13.333 13.333c-38.333 40-96.667 48.333-145 25l101.667-105c-13.333 5-26.667 6.667-40 6.667l-20 1.667c-55 0-103.333-35-120-86.667h145c-11.667-6.667-23.333-15-31.667-23.333l-13.333-13.333c-40-38.333-50-98.333-25-146.667l153.333 151.667c-10-158.333-68.333-310-165-435-21.667 6.667-43.333 11.667-65 15l-1.667-188.333 331.667-1.667v1.667c-51.667 61.667-116.667 113.333-191.667 146.667zM187 30.439h-30v30h30v-30zM273.667 58.772h-30v30h30v-30z" />
<glyph unicode="&#xe95e;" glyph-name="profile" d="M512 853.334c-235.52 0-426.667-191.147-426.667-426.667s191.147-426.667 426.667-426.667c235.52 0 426.667 191.147 426.667 426.667s-191.147 426.667-426.667 426.667zM301.653 158.72c18.347 38.4 130.133 75.947 210.347 75.947s192.427-37.547 210.347-75.947c-58.027-46.080-130.987-73.387-210.347-73.387s-152.32 27.307-210.347 73.387zM783.36 220.587c-61.013 74.24-209.067 99.413-271.36 99.413s-210.347-25.173-271.36-99.413c-43.52 57.173-69.973 128.427-69.973 206.080 0 188.16 153.173 341.333 341.333 341.333s341.333-153.173 341.333-341.333c0-77.653-26.453-148.907-69.973-206.080v0zM512 682.667c-82.773 0-149.333-66.56-149.333-149.333s66.56-149.333 149.333-149.333c82.773 0 149.333 66.56 149.333 149.333s-66.56 149.333-149.333 149.333zM512 469.334c-35.413 0-64 28.587-64 64s28.587 64 64 64c35.413 0 64-28.587 64-64s-28.587-64-64-64z" />
<glyph unicode="&#xe95f;" glyph-name="pub" d="M810.667 554.667h-66.56c14.933 25.173 23.893 54.187 23.893 85.333 0 94.293-76.373 170.667-170.667 170.667-14.507 0-28.16-2.133-41.813-5.547-34.987 29.013-79.36 47.36-128.853 47.36-80.64 0-149.76-47.36-182.187-115.627-67.413-22.613-116.48-85.76-116.48-160.853 0-79.36 54.613-145.493 128-164.693v-368.64h469.333v85.333h85.333c46.933 0 85.333 38.4 85.333 85.333v256c0 46.933-38.4 85.333-85.333 85.333zM298.667 490.667c-46.933 0-85.333 38.4-85.333 85.333 0 36.267 23.467 68.267 58.453 80.213l34.133 11.52 15.36 32.427c20.053 41.387 60.16 66.987 105.387 66.987 33.707 0 59.307-14.933 74.24-27.733l33.28-27.733c0 0 27.307 13.653 62.72 13.653 46.933 0 85.333-38.4 85.333-85.333 0 0-128 0-128 0-141.653 0-163.84-149.333-255.573-149.333zM810.667 213.334h-85.333v256h85.333v-256z" />
<glyph unicode="&#xe960;" glyph-name="radio" d="M138.24 676.267c-31.147-11.947-52.907-43.52-52.907-78.933v-512c0-46.933 37.973-85.333 85.333-85.333h682.667c47.36 0 85.333 38.4 85.333 85.333v512c0 47.36-37.973 85.333-85.333 85.333h-499.2l352.427 142.507-29.013 70.827-539.307-219.733zM298.667 85.334c-70.827 0-128 57.173-128 128s57.173 128 128 128c70.827 0 128-57.173 128-128s-57.173-128-128-128zM853.333 426.667h-85.333v85.333h-85.333v-85.333h-512v170.667h682.667v-170.667z" />
<glyph unicode="&#xe961;" glyph-name="restaurant" d="M469.333 554.667h-85.333v298.667h-85.333v-298.667h-85.333v298.667h-85.333v-298.667c0-90.453 70.827-163.84 160-169.387v-385.28h106.667v385.28c89.173 5.547 160 78.933 160 169.387v298.667h-85.333v-298.667zM682.667 682.667v-341.333h106.667v-341.333h106.667v853.333c-117.76 0-213.333-95.573-213.333-170.667z" />
<glyph unicode="&#xe962;" glyph-name="reviews" d="M725.333 578.987v189.013h-426.667v-189.013c0-14.933 7.68-29.013 20.907-36.693l178.347-107.093-42.24-99.84-145.493-12.373 110.507-95.573-33.707-142.080 125.013 75.52 125.013-75.52-33.28 142.080 110.507 95.573-145.493 12.373-42.24 99.84 178.347 107.093c12.8 7.68 20.48 21.333 20.48 36.693zM554.667 502.187l-42.667-25.6-42.667 25.6v180.48h85.333v-180.48z" />
<glyph unicode="&#xe963;" glyph-name="road-dark" d="M793.6 656.214c-61.44 0-119.467-23.893-160.853-65.28l-120.747-107.093-64.853-57.173h0.427l-114.773-101.973c-27.307-27.307-63.573-42.24-102.4-42.24-79.787 0-144.64 64.427-144.64 144.213s64.853 144.213 144.64 144.213c38.827 0 75.093-14.933 104.107-43.947l48.213-42.667 64.427 57.173-53.76 47.36c-43.52 43.52-101.547 67.413-162.987 67.413-127.147 0-230.4-103.253-230.4-229.547s103.253-229.547 230.4-229.547c61.44 0 119.467 23.893 160.853 65.28l120.747 106.667 0.427-0.427 64.427 58.027h-0.427l114.773 101.973c27.307 27.307 63.573 42.24 102.4 42.24 79.787 0 144.64-64.427 144.64-144.213s-64.853-144.213-144.64-144.213c-38.4 0-75.093 14.933-104.107 43.947l-48.64 43.093-64.427-57.173 54.187-47.787c43.52-43.093 101.12-66.987 162.987-66.987 127.147 0 230.4 102.827 230.4 229.547s-103.253 229.12-230.4 229.12v0z" />
<glyph unicode="&#xe964;" glyph-name="room-service" d="M462 853.334h100v-50h-100v50zM85.333 375h100v-375h-100v375zM785.333 328.334c8.333 5 13.333 13.333 13.333 23.333-1.667 13.333-11.667 23.333-25 23.333-3.333 0-6.667 0-10-1.667v0l-223.333-93.333c-8.333-3.333-18.333-5-28.333-5h-211.667v50h211.667c13.333 0 25 11.667 25 25s-11.667 25-25 25h-276.667v-225h225l325 178.333zM938.667 525h-853.333c0-55 45-100 100-100h653.333c55 0 100 45 100 100zM767 701.667c-16.667 31.667-50 51.667-86.667 51.667h-336.667c-36.667 0-70-20-86.667-51.667l-71.667-126.667h653.333l-71.667 126.667z" />
<glyph unicode="&#xe965;" glyph-name="round-trip-l-active" d="M683.093 426.667v-128h-299.093v-85.333h299.093v-128l170.24 170.667-170.24 170.667zM340.907 768l-170.24-170.667 170.24-170.667v128h299.093v85.333h-299.093v128z" />
<glyph unicode="&#xe966;" glyph-name="round-trip-r-active" d="M340.907 426.667v-128h299.093v-85.333h-299.093v-128l-170.24 170.667 170.24 170.667zM683.093 768l170.24-170.667-170.24-170.667v128h-299.093v85.333h299.093v128z" />
<glyph unicode="&#xe967;" glyph-name="safe" d="M831.21 810.667h-638.42c-36.346 0-64.79-28.444-64.79-64.79v-640c0-33.185 26.864-61.63 60.049-63.21v-17.383c0-12.642 9.481-23.704 22.123-23.704h66.37c12.642 0 22.123 11.062 22.123 23.704v17.383h420.346v-17.383c0-12.642 9.481-23.704 22.123-23.704h64.79c12.642 0 23.704 11.062 23.704 23.704v17.383h1.58c36.346 0 64.79 28.444 64.79 63.21v640c0 36.346-28.444 64.79-64.79 64.79zM829.63 170.667c0-34.765-26.864-61.63-61.63-61.63h-519.901c-33.185 0-60.049 26.864-60.049 61.63v516.741c0 33.185 26.864 61.63 60.049 61.63h519.901c34.765 0 61.63-28.444 61.63-61.63v-516.741zM431.407 428.247c0-30.025-23.704-53.728-52.148-53.728-30.025 0-53.728 23.704-53.728 53.728 0 28.444 23.704 52.148 53.728 52.148 28.444 0 52.148-23.704 52.148-52.148zM768 703.21h-519.901c-7.901 0-14.222-7.901-14.222-15.802v-516.741c0-9.481 6.321-15.802 14.222-15.802h519.901c9.481 0 15.802 6.321 15.802 15.802v516.741c0 7.901-6.321 15.802-15.802 15.802zM379.259 328.692c-55.309 0-99.556 44.247-99.556 99.556 0 53.728 44.247 97.975 99.556 97.975 53.728 0 97.975-44.247 97.975-97.975 0-55.309-44.247-99.556-97.975-99.556zM560.988 328.692h-11.062c-12.642 0-23.704 9.481-23.704 22.123s11.062 23.704 23.704 23.704h11.062c12.642 0 23.704-11.062 23.704-23.704s-11.062-22.123-23.704-22.123zM560.988 402.963h-11.062c-12.642 0-23.704 11.062-23.704 23.704s11.062 22.123 23.704 22.123h11.062c12.642 0 23.704-9.481 23.704-22.123s-11.062-23.704-23.704-23.704zM560.988 478.815h-11.062c-12.642 0-23.704 9.481-23.704 22.123s11.062 23.704 23.704 23.704h11.062c12.642 0 23.704-11.062 23.704-23.704s-11.062-22.123-23.704-22.123zM640 328.692h-11.062c-14.222 0-23.704 9.481-23.704 22.123s9.481 23.704 23.704 23.704h11.062c12.642 0 22.123-11.062 22.123-23.704s-9.481-22.123-22.123-22.123zM640 402.963h-11.062c-14.222 0-23.704 11.062-23.704 23.704s9.481 22.123 23.704 22.123h11.062c12.642 0 22.123-9.481 22.123-22.123s-9.481-23.704-22.123-23.704zM640 478.815h-11.062c-14.222 0-23.704 9.481-23.704 22.123s9.481 23.704 23.704 23.704h11.062c12.642 0 22.123-11.062 22.123-23.704s-9.481-22.123-22.123-22.123zM717.432 328.692h-11.062c-12.642 0-23.704 9.481-23.704 22.123s11.062 23.704 23.704 23.704h11.062c12.642 0 23.704-11.062 23.704-23.704s-11.062-22.123-23.704-22.123zM717.432 402.963h-11.062c-12.642 0-23.704 11.062-23.704 23.704s11.062 22.123 23.704 22.123h11.062c12.642 0 23.704-9.481 23.704-22.123s-11.062-23.704-23.704-23.704zM717.432 478.815h-11.062c-12.642 0-23.704 9.481-23.704 22.123s11.062 23.704 23.704 23.704h11.062c12.642 0 23.704-11.062 23.704-23.704s-11.062-22.123-23.704-22.123z" />
<glyph unicode="&#xe968;" glyph-name="sailing" d="M883.637 456.667c-8.991 9-19.481 13.5-31.469 13.5s-22.478-4.5-29.971-13.5c-2.997-1.5-5.994-4.5-7.493-7.5h-55.446c-4.496 51-25.475 99-56.944 136.5l35.965 34.5c2.997 0 5.994-1.5 8.991-1.5 23.977 0 43.458 19.5 43.458 43.5s-19.481 43.5-43.458 43.5c-22.478 0-41.959-19.5-41.959-43.5 0-3 0-6 0-9l-34.466-36c-37.463 31.5-85.417 52.5-136.367 57v55.5c2.997 1.5 5.994 4.5 7.493 7.5 8.991 7.5 13.487 18 13.487 30s-4.496 22.5-13.487 31.5c-7.493 7.5-17.982 12-29.971 12s-22.478-4.5-29.971-12c-8.991-9-13.487-19.5-13.487-31.5s4.496-22.5 13.487-30c1.499-3 4.496-6 7.493-7.5v-55.5c-50.95-4.5-98.903-25.5-136.367-57l-34.466 36c0 3 1.499 6 1.499 9 0 24-19.481 43.5-43.458 43.5s-43.458-19.5-43.458-43.5c0-24 19.481-43.5 43.458-43.5 2.997 0 5.994 1.5 8.991 1.5l35.965-34.5c-31.469-37.5-52.449-85.5-56.944-136.5h-55.446c-1.499 3-4.496 6-7.493 7.5-7.493 9-17.982 13.5-29.971 13.5s-22.478-4.5-31.469-13.5c-16.484-16.5-16.484-43.5 0-60 8.991-9 19.481-13.5 31.469-13.5s22.478 4.5 29.971 13.5c2.997 1.5 5.994 4.5 7.493 7.5h55.446c4.496-51 25.475-99 56.944-136.5l-35.965-34.5c-2.997 0-5.994 1.5-8.991 1.5-23.977 0-43.458-19.5-43.458-43.5s19.481-43.5 43.458-43.5c23.977 0 43.458 19.5 43.458 43.5 0 3-1.499 6-1.499 9l34.466 36c37.463-31.5 85.417-52.5 136.367-57v-55.5c-2.997-1.5-5.994-4.5-7.493-7.5-8.991-7.5-13.487-18-13.487-30s4.496-22.5 13.487-31.5c7.493-7.5 17.982-12 29.971-12s22.478 4.5 29.971 12c8.991 9 13.487 19.5 13.487 31.5s-4.496 22.5-13.487 30c-1.499 3-4.496 6-7.493 7.5v55.5c52.449 4.5 98.903 25.5 136.367 57l34.466-36c0-3 0-6 0-9 0-24 19.481-43.5 41.959-43.5 23.977 0 43.458 19.5 43.458 43.5s-19.481 43.5-43.458 43.5c-2.997 0-5.994-1.5-8.991-1.5l-35.965 34.5c31.469 37.5 52.449 85.5 56.944 136.5h55.446c1.499-3 4.496-6 7.493-7.5 7.493-9 17.982-13.5 29.971-13.5s22.478 4.5 31.469 13.5c16.484 16.5 16.484 43.5 0 60zM630.384 513.667c13.487-19.5 23.977-40.5 26.974-64.5h-89.912l62.939 64.5zM534.478 480.667v91.5c23.977-4.5 46.455-13.5 64.437-27l-64.437-64.5zM489.522 480.667l-64.437 64.5c17.982 13.5 40.46 22.5 64.437 27v-91.5zM458.053 449.167h-91.411c2.997 24 13.487 45 26.974 64.5l64.437-64.5zM458.053 404.167l-64.437-64.5c-13.487 18-23.977 40.5-26.974 64.5h91.411zM489.522 371.167v-90c-23.977 3-44.956 13.5-64.437 27l64.437 63zM534.478 372.667l64.437-64.5c-17.982-13.5-40.46-24-64.437-27v91.5zM565.947 404.167h91.411c-2.997-24-13.487-46.5-26.974-64.5l-64.437 64.5z" />
<glyph unicode="&#xe969;" glyph-name="satellite-tv" d="M896 810.667c46.933 0 85.333-38.4 85.333-85.333v0l-0.427-512c0-46.933-37.973-85.333-84.907-85.333v0h-213.333v-85.333h-341.333v85.333h-213.333c-46.933 0-85.333 38.4-85.333 85.333v0 512c0 46.933 38.4 85.333 85.333 85.333v0zM896 725.334h-768v-512h768v512zM170.667 384c70.827 0 128-57.173 128-128v0h-128zM170.667 554.667c165.12 0 298.667-133.547 298.667-298.667v0h-85.333c0 117.76-95.573 213.333-213.333 213.333v0z" />
<glyph unicode="&#xe96a;" glyph-name="search" d="M661.333 341.334h-33.707l-11.947 11.52c41.813 48.64 66.987 111.787 66.987 180.48 0 153.173-124.16 277.333-277.333 277.333s-277.333-124.16-277.333-277.333c0-153.173 124.16-277.333 277.333-277.333 68.693 0 131.84 25.173 180.48 66.987l11.52-11.947v-33.707l213.333-212.907 63.573 63.573-212.907 213.333zM405.333 341.334c-106.24 0-192 85.76-192 192s85.76 192 192 192c106.24 0 192-85.76 192-192s-85.76-192-192-192z" />
<glyph unicode="&#xe96b;" glyph-name="seat" d="M228.267 698.027c-38.4 27.307-47.787 80.213-20.907 119.040 26.88 38.4 80.213 47.787 119.040 20.907 38.4-27.307 47.787-80.213 20.907-119.040-27.307-38.4-80.213-47.787-119.040-20.907v0zM682.667 128h-301.653c-63.147 0-116.907 46.080-126.293 108.373l-84.053 403.627h-85.333l84.907-416.427c16.213-104.107 105.813-180.907 211.2-180.907h301.227v85.333zM692.48 298.667h-208.213l-43.947 174.933c67.413-37.973 139.947-65.707 219.733-52.053v90.88c-69.547-13.227-146.773 11.52-200.107 53.333l-69.973 54.187c-9.813 7.68-20.907 12.8-32.427 16.213-13.653 3.84-28.16 5.12-42.24 2.56h-0.853c-52.48-9.387-87.467-59.307-78.507-111.36l57.6-252.587c11.947-60.587 64.427-104.107 125.867-104.107h292.267l162.987-128 64 64-246.187 192z" />
<glyph unicode="&#xe96c;" glyph-name="ski" d="M887.189 607.288c41.671 20.002 58.34 70.008 38.338 110.012s-70.008 58.34-110.012 38.338c-41.671-20.002-58.34-70.008-38.338-110.012 20.002-41.671 70.008-58.34 110.012-38.338zM663.831 500.609c-6.667-31.67-3.334-60.007 28.336-68.341 0 0 146.683-40.004 146.683-40.004v0c25.003-6.667 48.339 6.667 55.006 30.003 6.667 25.003-6.667 48.339-31.67 55.006 0 0 0 0 0 0l-73.341 20.002-30.003 20.002c8.334 43.338 5.001 28.336 13.335 66.674 5.001 21.669-11.668 46.672-20.002 65.007-18.335 35.004-60.007 50.006-95.011 33.337l-48.339-25.003 76.675-51.672c-1.667-6.667-5.001-28.336-6.667-35.004l-345.038 231.692c-15.002 10.001-36.671 5.001-46.672-10.001s-5.001-35.004 10.001-45.005l366.707-246.694zM935.527 115.567c-8.334 15.002-28.336 20.002-45.005 11.668l-45.005-28.336-300.033 103.345 141.682 120.013c26.67 21.669 25.003 65.007-3.334 85.009l-78.342 58.34 28.336 13.335 3.334 1.667-166.685 110.012c-26.67-13.335-45.005-38.338-48.339-66.674-6.667-35.004 8.334-65.007 41.671-90.010l100.011-73.341-136.682-116.68-296.7 101.678c-16.669 6.667-35.004-3.334-41.671-20.002-5.001-18.335 3.334-36.671 20.002-41.671l730.081-251.695c3.334-1.667 6.667-1.667 10.001-1.667 6.667 0 11.668 1.667 16.669 5.001l58.34 35.004c16.669 8.334 21.669 30.003 11.668 45.005z" />
<glyph unicode="&#xe96d;" glyph-name="ski-to-door-access" d="M918.992 164.050h-6.667v28.333c0 93.333-48.333 125-121.667 153.333 0 3.333 0 6.667-1.667 8.333-1.667 6.667-6.667 10-11.667 13.333l-85 33.333c-10 3.333-20 0-26.667-6.667-1.667 1.667-5 3.333-6.667 5 0 1.667 1.667 3.333 1.667 5 1.667 5 1.667 11.667-1.667 16.667l-41.667 81.667c-5 10-15 13.333-25 11.667 0 3.333-1.667 5-1.667 6.667 10 3.333 16.667 11.667 16.667 21.667v93.333c0 10-6.667 18.333-15 21.667 0 18.333 3.333 38.333 5 60 0 6.667-1.667 13.333-6.667 18.333-3.333 3.333-6.667 5-10 6.667l25 78.333c3.333 6.667 1.667 15-3.333 20-3.333 6.667-10 10-16.667 10 0 0-3.333 0-6.667 0-30 0-163.333-3.333-253.333-58.333-50 26.667-81.667 53.333-83.333 53.333-5 5-13.333 6.667-21.667 5-6.667-3.333-13.333-8.333-15-16.667-10-40-25-103.333-38.333-176.667-8.333-1.667-16.667-8.333-18.333-18.333l-16.667-91.667c-1.667-6.667 0-13.333 5-18.333 1.667-3.333 3.333-5 6.667-6.667-16.667-103.333-28.333-210-28.333-288.333v-70h-5c-11.667 0-23.333-10-23.333-23.333v-118.333c0-11.667 11.667-21.667 23.333-21.667h318.333c6.667 0 15 3.333 18.333 10 15 23.333 40 36.667 66.667 36.667s50-13.333 65-36.667c5-6.667 11.667-10 20-10h320c11.667 0 21.667 10 21.667 21.667v118.333c0 13.333-10 23.333-21.667 23.333zM712.326 259.050h-50l35 88.333 41.667-16.667-26.667-71.667zM560.659 612.383v-46.667h-378.333l8.333 46.667h370zM607.326 420.716l-170-90v51.667l148.333 78.333 21.667-40zM532.326 742.383c-30 1.667-76.667 5-118.333 15-13.333 3.333-25 6.667-35 11.667 60 26.667 133.333 33.333 173.333 35l-20-61.667zM417.326 45.716h-283.333v71.667h760v-71.667h-283.333c-23.333 30-58.333 46.667-96.667 46.667s-73.333-16.667-96.667-46.667z" />
<glyph unicode="&#xe96e;" glyph-name="smoke-free" d="M85.333 682.667l298.24-298.667h-298.24v-128h426.24l298.667-298.667 53.76 53.333-725.333 725.333-53.333-53.333zM874.667 384h64v-128h-64v128zM768 384h64v-128h-64v128zM804.267 730.454c26.453 26.027 42.667 61.867 42.667 101.547h-64c0-43.52-35.413-78.933-78.933-78.933v-64c95.573 0 170.667-78.080 170.667-173.653v-88.747h64v88.747c0 95.147-54.613 177.067-134.4 215.040zM618.667 567.467h65.28c44.8 0 84.053-31.573 84.053-87.467v-53.333h64v67.84c0 76.8-68.267 134.827-148.053 134.827h-65.28c-43.52 0-78.933 41.813-78.933 85.333s35.413 74.667 78.933 74.667v64c-78.933 0-142.933-64-142.933-142.933s64-142.933 142.933-142.933zM725.333 258.987v125.013h-125.013l125.013-125.013z" />
<glyph unicode="&#xe96f;" glyph-name="spa" d="M660.907 527.787c-7.68 119.040-55.893 235.093-146.347 325.547-91.307-91.307-141.653-207.36-151.467-325.547 54.613-29.013 104.96-66.56 148.907-112.213 43.947 45.227 94.293 82.773 148.907 112.213v0zM383.573 414.72c-5.973 4.267-12.8 8.107-19.2 12.373 6.4-4.693 13.227-8.107 19.2-12.373zM657.493 425.387c-5.547-3.84-11.52-6.827-17.067-11.093 5.547 4.267 11.52 7.253 17.067 11.093zM512 279.467c-91.733 139.947-248.32 232.533-426.667 232.533 0-226.987 143.36-418.987 342.613-490.24 26.88-9.813 55.040-17.067 84.053-21.76 29.013 5.12 56.747 12.373 84.053 21.76 199.253 71.253 342.613 263.253 342.613 490.24-178.347 0-334.933-92.587-426.667-232.533z" />
<glyph unicode="&#xe970;" glyph-name="sports" d="M729.173 469.334h207.36c-6.827 68.693-30.293 132.693-65.707 187.733-73.813-35.413-127.573-104.533-141.653-187.733zM294.827 469.334c-14.080 83.2-67.84 152.32-141.653 187.733-35.413-55.040-58.88-119.040-65.707-187.733h207.36zM642.987 469.334c13.653 110.507 80.213 204.373 173.227 256-68.267 69.547-159.573 115.627-261.547 125.867v-381.867h88.32zM381.013 469.334h88.32v381.867c-101.973-10.24-193.707-56.32-261.547-125.867 93.013-51.627 159.573-145.493 173.227-256zM642.987 384h-88.32v-381.867c101.973 10.24 193.707 56.32 261.547 125.867-93.013 51.627-159.573 145.493-173.227 256zM153.173 196.267c73.387 35.413 127.573 104.96 141.653 187.733h-207.36c6.827-68.693 30.293-132.693 65.707-187.733zM729.173 384c14.080-83.2 67.84-152.32 141.653-187.733 35.413 55.040 58.88 119.040 65.707 187.733h-207.36zM381.013 384c-13.653-110.507-80.213-204.373-173.227-256 68.267-69.547 159.573-115.627 261.547-125.867v381.867h-88.32z" />
<glyph unicode="&#xe971;" glyph-name="star" d="M615.68 512l-103.68 341.333-103.68-341.333h-322.987l263.68-188.16-100.267-323.84 263.253 200.107 263.68-200.107-100.267 323.84 263.253 188.16z" />
<glyph unicode="&#xe972;" glyph-name="stereo" d="M853.333 768h-682.667c-46.933 0-85.333-38.4-85.333-85.333v-512c0-46.933 38.4-85.333 85.333-85.333h682.667c46.933 0 85.333 38.4 85.333 85.333v512c0 46.933-38.4 85.333-85.333 85.333zM331.093 245.76l-60.16-60.16c-66.987 66.133-100.267 153.6-100.267 241.067s33.28 174.933 99.84 241.493l60.16-60.16c-49.493-50.347-74.667-115.627-74.667-181.333s25.173-130.987 75.093-180.907v0zM512 256c-94.293 0-170.667 76.373-170.667 170.667s76.373 170.667 170.667 170.667c94.293 0 170.667-76.373 170.667-170.667s-76.373-170.667-170.667-170.667zM753.493 185.174l-60.16 60.16c49.493 50.347 74.667 115.627 74.667 181.333s-25.173 130.987-75.093 180.907l60.16 60.16c66.987-66.133 100.267-153.6 100.267-241.067s-33.28-174.933-99.84-241.493zM512 512c-46.933 0-85.333-38.4-85.333-85.333s38.4-85.333 85.333-85.333c46.933 0 85.333 38.4 85.333 85.333s-38.4 85.333-85.333 85.333z" />
<glyph unicode="&#xe973;" glyph-name="sugg-location" d="M554.667 810.667c-212.053 0-384-171.947-384-384h-128l165.973-165.973 2.987-5.973 172.373 171.947h-128c0 165.12 133.547 298.667 298.667 298.667s298.667-133.547 298.667-298.667c0-165.12-133.547-298.667-298.667-298.667-82.347 0-157.013 33.707-210.773 87.893l-60.587-60.587c69.547-69.547 165.12-112.64 271.36-112.64 212.053 0 384 171.947 384 384s-171.947 384-384 384zM512 597.334v-213.333l182.613-108.373 30.72 51.627-149.333 88.747v181.333h-64z" />
<glyph unicode="&#xe974;" glyph-name="supermarket" d="M734.293 554.667l-186.88 279.893c-8.107 11.947-21.76 17.92-35.413 17.92s-27.307-5.973-35.413-18.347l-186.88-279.467h-204.373c-23.467 0-42.667-19.2-42.667-42.667 0-3.84 0.427-7.68 1.707-11.52l108.373-395.52c9.813-35.84 42.667-62.293 81.92-62.293h554.667c39.253 0 72.107 26.453 82.347 62.293l108.373 395.52 1.28 11.52c0 23.467-19.2 42.667-42.667 42.667h-204.373zM384 554.667l128 187.733 128-187.733h-256zM512 213.334c-46.933 0-85.333 38.4-85.333 85.333s38.4 85.333 85.333 85.333c46.933 0 85.333-38.4 85.333-85.333s-38.4-85.333-85.333-85.333z" />
<glyph unicode="&#xe975;" glyph-name="swimming-pool" d="M796.587 170.667c47.36 0 73.813-15.787 93.013-27.307 15.787-9.813 25.173-15.36 49.067-15.36v-85.333c-47.36 0-73.813 15.787-93.013 27.307-15.787 9.387-25.6 15.36-49.067 15.36-23.893 0-33.28-5.547-49.067-15.36-19.627-11.52-45.653-27.307-93.013-27.307s-73.813 15.787-93.013 27.307c-15.787 9.387-25.6 15.36-49.067 15.36-23.893 0-33.28-5.547-49.067-15.36-19.627-11.52-46.080-27.307-93.44-27.307s-73.813 15.787-93.013 27.307c-15.787 9.813-25.6 15.36-49.067 15.36s-33.28-5.547-49.067-15.36c-19.627-11.52-46.080-27.307-93.44-27.307v85.333c23.893 0 33.28 5.547 49.067 15.36 19.627 11.52 46.080 27.307 93.44 27.307s73.813-15.787 93.013-27.307c15.787-9.813 25.173-15.36 49.067-15.36s33.28 5.547 49.067 15.36c19.627 11.52 46.080 27.307 93.44 27.307s73.813-15.787 93.013-27.307c15.787-9.387 25.6-15.36 49.067-15.36s33.28 5.547 49.067 15.36c19.2 11.52 45.653 27.307 93.013 27.307zM795.733 362.667c47.36 0 73.813-15.787 93.013-27.307 15.787-9.387 25.6-15.36 49.067-15.36v-85.284l-8.98 0.185c-41.268 1.999-65.351 16.375-83.18 27.072-15.787 9.387-25.6 15.36-49.067 15.36-23.893 0-33.28-5.547-49.067-15.36-19.2-11.52-45.653-27.307-93.013-27.307s-73.813 15.787-93.013 27.307c-15.787 9.387-25.6 15.36-49.067 15.36-23.893 0-33.28-5.547-49.067-15.36-19.2-11.52-45.653-27.307-93.013-27.307s-73.813 15.787-93.013 27.307c-15.787 9.387-25.6 15.36-49.067 15.36s-33.28-5.547-49.067-15.36c-20.053-11.52-46.507-27.307-93.867-27.307v85.333c23.893 0 33.28 5.547 49.067 15.36 19.2 11.52 45.653 27.307 93.013 27.307s73.813-15.787 93.013-27.307c15.787-9.387 25.6-15.36 49.067-15.36 23.893 0 33.28 5.547 49.067 15.36 19.2 11.52 45.653 27.307 93.013 27.307s73.813-15.787 93.013-27.307c15.787-9.387 25.6-15.36 49.067-15.36s33.28 5.547 49.067 15.36c19.2 11.52 45.653 27.307 93.013 27.307zM213.333 810.667c106.667 0.427 167.68-19.2 233.813-85.333v0l273.92-273.493c-6.4-3.413-12.373-6.827-17.493-9.813-15.787-9.813-25.6-15.36-49.067-15.36s-33.28 5.973-49.067 15.36c-19.2 11.52-45.653 27.307-93.013 27.307s-73.813-15.787-93.44-27.307c-15.787-9.813-25.173-15.36-49.067-15.36s-33.28 5.547-49.067 15.36c-8.96 5.12-19.627 11.52-32.853 16.64v0l138.667 138.667-42.667 42.667c-47.36 47.36-93.013 64.427-170.667 64v0zM704 810.667c58.91 0 106.667-47.756 106.667-106.667s-47.756-106.667-106.667-106.667c-58.91 0-106.667 47.756-106.667 106.667s47.756 106.667 106.667 106.667z" />
<glyph unicode="&#xe976;" glyph-name="tea-coffee-maker" d="M853.333 128v-85.333h-682.667v85.333h682.667zM341.333 810.667v-102.4l-77.227-61.867c-5.12-3.84-8.107-10.24-8.107-16.64v0-181.76c0-11.947 9.387-21.333 21.333-21.333v0h170.667c11.947 0 21.333 9.387 21.333 21.333v0 181.76c0 6.4-2.987 12.8-8.107 16.64v0l-77.227 61.867v102.4h469.333c47.36 0 85.333-37.973 85.333-85.333v0-128c0-46.933-37.973-85.333-85.333-85.333v0h-85.333v-128c0-94.293-76.373-170.667-170.667-170.667v0h-256c-94.293 0-170.667 76.373-170.667 170.667v0 426.667h170.667zM853.333 725.334h-85.333v-128h85.333v128z" />
<glyph unicode="&#xe977;" glyph-name="tennis" d="M832.853 832.427c-99.84 99.84-282.453 79.787-407.467-45.227-68.267-68.267-107.52-165.12-108.373-232.96-0.853-67.413 11.093-165.973-57.6-234.667l-180.907-180.907 60.587-60.587 180.907 180.907c68.693 68.693 167.253 56.747 234.667 57.6s164.693 40.107 232.96 108.373c124.587 125.013 145.067 307.627 45.227 407.467zM440.32 440.32c-65.28 65.28-44.8 196.693 45.227 286.72s221.013 110.507 286.72 45.227c65.28-65.28 44.8-196.693-45.227-286.72s-221.013-110.507-286.72-45.227zM768 213.334c22.613 0 44.373-8.96 60.16-25.173 33.28-33.28 33.28-87.467 0-120.747-15.787-15.787-37.547-24.747-60.16-24.747s-44.373 8.96-60.16 25.173c-33.28 33.28-33.28 87.467 0 120.747 15.787 15.787 37.547 24.747 60.16 24.747zM768 298.667c-43.52 0-87.467-16.64-120.747-49.92-66.56-66.56-66.56-174.507 0-241.493 33.28-33.28 77.227-49.92 120.747-49.92s87.467 16.64 120.747 49.92c66.56 66.56 66.56 174.507 0 241.493-33.28 33.28-77.227 49.92-120.747 49.92v0z" />
<glyph unicode="&#xe978;" glyph-name="tiled" d="M1010.054 382.506l-251.019 151.409-39.844 21.914 35.86 23.907c5.977 3.984 9.961 9.961 9.961 17.93s-3.984 13.946-9.961 17.93l-233.089 149.416c-7.969 3.984-15.938 3.984-23.907 0l-233.089-149.416c-5.977-3.984-9.961-9.961-9.961-17.93s3.984-13.946 9.961-17.93l35.86-23.907-39.844-21.914-251.019-151.409c-5.977-3.984-9.961-11.953-9.961-17.93 0-7.969 3.984-15.938 9.961-17.93l488.093-298.833c3.984-1.992 7.969-1.992 11.953-1.992s7.969 0 11.953 1.992l488.093 298.833c5.977 1.992 9.961 9.961 9.961 17.93 0 5.977-3.984 13.946-9.961 17.93zM270.942 237.074l-209.183 127.502 211.175 125.51 197.23-125.51-199.222-127.502zM510.008 388.483l-197.23 125.51 27.891 17.93 157.385-101.603c3.984-1.992 7.969-1.992 11.953-1.992s7.969 0 11.953 1.992l157.385 101.603 27.891-17.93-197.23-125.51zM749.074 237.074l-199.222 127.502 197.23 125.51 211.175-125.51-209.183-127.502z" />
<glyph unicode="&#xe979;" glyph-name="timeline-end-icon" d="M569.11 682.335l-15.938 85.665h-382.506v-723.175h83.673v296.84h239.066l15.938-83.673h298.833v424.342z" />
<glyph unicode="&#xe97a;" glyph-name="timeline-start-icon" d="M512.664 86.662l59.767 59.767-237.074 239.066h517.977v83.673h-517.977l237.074 237.074-59.767 61.759-340.669-340.669z" />
<glyph unicode="&#xe97b;" glyph-name="flight-land" d="M106.667 128h810.667v-85.333h-810.667v85.333zM825.173 262.4c34.133-8.96 69.12 11.093 78.507 45.227 8.96 34.133-11.093 69.12-45.227 78.507l-226.56 60.587-117.76 384.853-82.347 21.76v-353.28l-212.053 56.747-39.68 98.987-61.867 16.64v-220.587l706.987-189.44z" />
<glyph unicode="&#xe97c;" glyph-name="tooltip-small" d="M469.333 640h85.333v-85.333h-85.333v85.333zM469.333 469.334h85.333v-256h-85.333v256zM511.573 853.334c-235.52 0-426.24-191.147-426.24-426.667s190.72-426.667 426.24-426.667c235.947 0 427.093 191.147 427.093 426.667s-191.147 426.667-427.093 426.667zM512 85.334c-188.587 0-341.333 152.747-341.333 341.333s152.747 341.333 341.333 341.333c188.587 0 341.333-152.747 341.333-341.333s-152.747-341.333-341.333-341.333z" />
<glyph unicode="&#xe97d;" glyph-name="total" d="M768 213.334h-512v85.333h512v-85.333zM768 384h-512v85.333h512v-85.333zM768 554.667h-512v85.333h512v-85.333zM128-0l64 64 64-64 64 64 64-64 64 64 64-64 64 64 64-64 64 64 64-64 64 64 64-64v853.333l-64-64-64 64-64-64-64 64-64-64-64 64-64-64-64 64-64-64-64 64-64-64-64 64v-853.333z" />
<glyph unicode="&#xe97e;" glyph-name="train" d="M512 853.334c-170.667 0-341.333-21.333-341.333-170.667v-405.333c0-82.347 66.987-149.333 149.333-149.333l-64-64v-21.333h95.147l85.333 85.333h160.853l85.333-85.333h85.333v21.333l-64 64c82.347 0 149.333 66.987 149.333 149.333v405.333c0 149.333-152.747 170.667-341.333 170.667zM320 213.334c-35.413 0-64 28.587-64 64s28.587 64 64 64c35.413 0 64-28.587 64-64s-28.587-64-64-64zM469.333 512h-213.333v170.667h213.333v-170.667zM554.667 512v170.667h213.333v-170.667h-213.333zM704 213.334c-35.413 0-64 28.587-64 64s28.587 64 64 64c35.413 0 64-28.587 64-64s-28.587-64-64-64z" />
<glyph unicode="&#xe97f;" glyph-name="transfer" d="M341.333 682.667c70.827 0 128-57.173 128-128s-57.173-128-128-128c-70.827 0-128 57.173-128 128s57.173 128 128 128zM810.667 298.667v-128h-85.333v128h85.333zM341.333 345.6c85.333 0 256-46.933 256-132.267v-42.667h-512v42.667c0 85.333 170.667 132.267 256 132.267zM938.667 341.334h-341.333v213.333h341.333v-213.333z" />
<glyph unicode="&#xe980;" glyph-name="user" d="M682.667 469.334c70.827 0 127.573 57.173 127.573 128s-56.747 128-127.573 128c-70.827 0-128-57.173-128-128s57.173-128 128-128zM341.333 469.334c70.827 0 127.573 57.173 127.573 128s-56.747 128-127.573 128c-70.827 0-128-57.173-128-128s57.173-128 128-128zM341.333 384c-99.413 0-298.667-49.92-298.667-149.333v-106.667h597.333v106.667c0 99.413-199.253 149.333-298.667 149.333zM682.667 384c-12.373 0-26.453-0.853-41.387-2.133 49.493-35.84 84.053-84.053 84.053-147.2v-106.667h256v106.667c0 99.413-199.253 149.333-298.667 149.333z" />
<glyph unicode="&#xe981;" glyph-name="veg-friendly" d="M87.326 446.458c11.667-153.333 113.333-288.333 266.667-345v-56.667c0-15 11.667-26.667 26.667-26.667h266.667c15 0 26.667 11.667 26.667 26.667v56.667c153.333 56.667 255 191.667 266.667 345h-853.333zM742.326 714.792c-31.667 33.333-75 53.333-121.667 53.333s-90-20-120-53.333c-13.333-1.667-26.667-5-40-10v90c0 15-11.667 26.667-26.667 26.667-91.667 0-166.667-63.333-185-150l-16.667 18.333c-6.667 5-13.333 8.333-20 8.333s-13.333-3.333-18.333-8.333c-51.667-51.667-66.667-125-45-190h56.667c-20 41.667-16.667 91.667 8.333 131.667l131.667-131.667h195l-43.333 33.333c-11.667 8.333-13.333 25-5 36.667s26.667 15 38.333 5l63.333-48.333v53.333c0 15 11.667 28.333 26.667 28.333s26.667-13.333 26.667-28.333v-53.333l65 48.333c11.667 10 28.333 6.667 38.333-5 8.333-11.667 5-28.333-6.667-36.667l-41.667-33.333h176.667c6.667 18.333 10 35 10 53.333 0 85-65 155-146.667 161.667zM407.326 514.792l-106.667 106.667c-1.667 3.333-1.667 8.333-1.667 13.333 0 65 46.667 118.333 108.333 130v-250z" />
<glyph unicode="&#xe982;" d="M403.756 554.086l-45.323-278.911h73.214l45.323 278.911h-73.214zM297.422 554.086l-67.984-191.751-8.716 41.837-1.743 8.716c-8.716 17.432-27.891 52.296-64.498 81.93-10.459 8.716-20.918 15.689-31.377 20.918l62.755-240.56h74.957l115.051 278.911h-78.444zM581.562 475.642c0 31.377 69.728 27.891 101.105 10.459l10.459 61.012c0 0-31.377 12.202-64.498 12.202-36.607 0-122.023-15.689-122.023-92.389 0-73.214 101.105-73.214 101.105-111.564 0-36.607-90.646-31.377-120.28-6.973l-10.459-62.755c0 0 31.377-15.689 81.93-15.689 48.809 0 123.767 26.148 123.767 95.875 0 71.471-101.105 78.444-101.105 109.821zM877.904 554.086h-59.268c-26.148 0-33.121-20.918-33.121-20.918l-108.078-257.992h74.957l15.689 41.837h92.389l8.716-41.837h66.241l-57.525 278.911zM789.001 374.537l38.35 102.848 20.918-102.848h-59.268z" />
<glyph unicode="&#xe983;" d="M198.060 527.938c0 0-3.486 24.405-34.864 24.405h-116.794l-1.743-5.23c0 0 55.782-10.459 109.821-54.039 50.553-40.093 67.984-90.646 67.984-90.646l-24.405 125.51z" />
<glyph unicode="&#xe984;" glyph-name="warning" d="M42.667 42.667h938.667l-469.333 810.667-469.333-810.667zM554.667 170.667h-85.333v85.333h85.333v-85.333zM554.667 341.334h-85.333v170.667h85.333v-170.667z" />
<glyph unicode="&#xe985;" glyph-name="washing-machine" d="M391.253 220.587c66.56-66.56 174.933-66.56 241.493 0s66.56 174.933 0 241.493l-241.493-241.493zM768 852.907l-512 0.427c-47.36 0-85.333-37.973-85.333-85.333v-682.667c0-47.36 37.973-85.333 85.333-85.333h512c47.36 0 85.333 37.973 85.333 85.333v682.667c0 47.36-37.973 84.907-85.333 84.907zM426.667 768c23.467 0 42.667-19.2 42.667-42.667s-19.2-42.667-42.667-42.667c-23.467 0-42.667 19.2-42.667 42.667s19.2 42.667 42.667 42.667zM298.667 768c23.467 0 42.667-19.2 42.667-42.667s-19.2-42.667-42.667-42.667c-23.467 0-42.667 19.2-42.667 42.667s19.2 42.667 42.667 42.667zM512 85.334c-141.227 0-256 114.773-256 256s114.773 256 256 256c141.227 0 256-114.773 256-256s-114.773-256-256-256z" />
<glyph unicode="&#xe986;" glyph-name="water-sports" d="M796.587 170.667c47.36 0 73.813-15.787 93.013-27.307 15.787-9.813 25.173-15.36 49.067-15.36v-85.333c-47.36 0-73.813 15.787-93.013 27.307-15.787 9.387-25.6 15.36-49.067 15.36-23.893 0-33.28-5.547-49.067-15.36-19.627-11.52-45.653-27.307-93.013-27.307s-73.813 15.787-93.013 27.307c-15.787 9.387-25.6 15.36-49.067 15.36-23.893 0-33.28-5.547-49.067-15.36-19.627-11.52-46.080-27.307-93.44-27.307s-73.813 15.787-93.013 27.307c-15.787 9.813-25.6 15.36-49.067 15.36s-33.28-5.547-49.067-15.36c-19.627-11.52-46.080-27.307-93.44-27.307v85.333c23.893 0 33.28 5.547 49.067 15.36 19.627 11.52 46.080 27.307 93.44 27.307s73.813-15.787 93.013-27.307c15.787-9.813 25.173-15.36 49.067-15.36s33.28 5.547 49.067 15.36c19.627 11.52 46.080 27.307 93.44 27.307s73.813-15.787 93.013-27.307c15.787-9.387 25.6-15.36 49.067-15.36s33.28 5.547 49.067 15.36c19.2 11.52 45.653 27.307 93.013 27.307zM795.733 362.667c47.36 0 73.813-15.787 93.013-27.307 15.787-9.387 25.6-15.36 49.067-15.36l-0.043-85.284-8.938 0.185c-41.268 1.999-65.351 16.375-83.18 27.072-15.787 9.387-25.6 15.36-49.067 15.36-23.893 0-33.28-5.547-49.067-15.36-19.2-11.52-45.653-27.307-93.013-27.307s-73.813 15.787-93.013 27.307c-15.787 9.387-25.6 15.36-49.067 15.36-23.893 0-33.28-5.547-49.067-15.36-19.2-11.52-45.653-27.307-93.013-27.307s-73.813 15.787-93.013 27.307c-15.787 9.387-25.6 15.36-49.067 15.36s-33.28-5.547-49.067-15.36c-20.053-11.52-46.507-27.307-93.867-27.307v85.333c23.893 0 33.28 5.547 49.067 15.36 19.2 11.52 45.653 27.307 93.013 27.307s73.813-15.787 93.013-27.307c15.787-9.387 25.6-15.36 49.067-15.36 23.893 0 33.28 5.547 49.067 15.36 19.2 11.52 45.653 27.307 93.013 27.307s73.813-15.787 93.013-27.307c15.787-9.387 25.6-15.36 49.067-15.36s33.28 5.547 49.067 15.36c19.2 11.52 45.653 27.307 93.013 27.307zM213.333 810.667c106.667 0.427 167.68-19.2 233.813-85.333v0l273.92-273.493c-6.4-3.413-12.373-6.827-17.493-9.813-15.787-9.813-25.6-15.36-49.067-15.36s-33.28 5.973-49.067 15.36c-19.2 11.52-45.653 27.307-93.013 27.307s-73.813-15.787-93.44-27.307c-15.787-9.813-25.173-15.36-49.067-15.36s-33.28 5.547-49.067 15.36c-8.96 5.12-19.627 11.52-32.853 16.64v0l138.667 138.667-42.667 42.667c-47.36 47.36-93.013 64.427-170.667 64v0zM704 810.667c58.91 0 106.667-47.756 106.667-106.667s-47.756-106.667-106.667-106.667c-58.91 0-106.667 47.756-106.667 106.667s47.756 106.667 106.667 106.667z" />
<glyph unicode="&#xe987;" glyph-name="wellness" d="M819.632 639.004l-109.572 109.572c-11.953-7.969-25.899-13.946-39.844-17.93-39.844-15.938-75.704-39.844-107.58-69.728l-51.798-51.798h294.848c3.984 9.961 7.969 19.922 13.946 29.883zM919.243 577.245h-701.261c0 0 0 0 0 0h-127.502c-25.899 0-47.813-21.914-47.813-47.813s21.914-47.813 47.813-47.813h828.763c25.899 0 47.813 21.914 47.813 47.813s-21.914 47.813-47.813 47.813zM329.546 609.121c83.673 7.969 151.409 75.704 159.377 159.377h-63.751c-3.984-49.805-25.899-95.626-59.767-131.486-11.953-9.961-23.907-19.922-35.86-27.891zM865.453 704.747l-89.65 89.65c-11.953-11.953-23.907-19.922-37.852-29.883l97.619-97.619c9.961 13.946 19.922 25.899 29.883 37.852zM899.32 714.709c5.977-5.977 15.938-11.953 27.891-11.953 9.961 0 19.922 5.977 27.891 11.953 15.938 15.938 15.938 41.837 0 57.774l-111.564 111.564c-5.977 7.969-15.938 11.953-27.891 11.953-9.961 0-19.922-3.984-27.891-11.953-15.938-15.938-15.938-41.837 0-57.774l111.564-111.564zM329.546 834.242c1.992 9.961 9.961 15.938 17.93 13.946 9.961-1.992 15.938-9.961 13.946-17.93-11.953-65.743-37.852-127.502-79.689-179.3l-27.891-37.852c31.875 5.977 63.751 21.914 87.658 47.813 33.868 31.875 51.798 75.704 51.798 123.518v111.564c-89.65-7.969-159.377-83.673-159.377-175.315v-81.681l23.907 31.875c37.852 47.813 61.759 103.595 71.72 163.362zM202.044 623.066v73.712c-51.798 31.875-91.642 77.696-119.533 131.486l-5.977 11.953 27.891 15.938 5.977-13.946c21.914-41.837 53.79-79.689 91.642-107.58 1.992 21.914 7.969 45.821 15.938 65.743-41.837 55.782-105.588 89.65-175.315 95.626v-47.813c0-101.603 63.751-191.253 159.377-225.121zM299.663 89.152c13.946-5.977 21.914-17.93 25.899-31.875 1.992-13.946 0-25.899-5.977-35.86-3.984-5.977-5.977-13.946-5.977-19.922 1.992-15.938 15.938-29.883 33.868-29.883h314.77c17.93 0 31.875 13.946 33.868 29.883 0 5.977-1.992 13.946-5.977 19.922-5.977 9.961-7.969 21.914-5.977 35.86 3.984 13.946 11.953 25.899 25.899 31.875 129.494 73.712 209.183 211.175 209.183 360.591h-828.763c0-149.416 79.689-286.879 209.183-360.591zM849.515 387.985l31.875-3.984c-21.914-121.525-99.611-225.121-211.175-278.911l-11.953 27.891c99.611 49.805 173.323 145.432 191.253 255.004zM536.737 417.868h31.875v-31.875h-31.875v31.875zM504.861 417.868v-31.875h-382.506v31.875h382.506z" />
</font>
</defs>
</svg>
