<?xml version="1.0" standalone="no"?>
<!DOCTYPE svg PUBLIC "-//W3C//DTD SVG 20010904//EN"
 "http://www.w3.org/TR/2001/REC-SVG-20010904/DTD/svg10.dtd">
<svg version="1.0" xmlns="http://www.w3.org/2000/svg"
 width="872.000000pt" height="872.000000pt" viewBox="0 0 872.000000 872.000000"
 preserveAspectRatio="xMidYMid meet">
<metadata>
Created by potrace 1.14, written by Peter Selinger 2001-2017
</metadata>
<g transform="translate(0.000000,872.000000) scale(0.100000,-0.100000)"
fill="#000000" stroke="none">
<path d="M4287 8671 c-37 -22 -67 -37 -67 -35 0 3 -12 -3 -27 -14 -16 -10 -57
-33 -93 -52 -71 -36 -145 -76 -229 -122 -30 -17 -88 -48 -130 -70 -42 -22
-101 -53 -131 -70 -30 -16 -93 -50 -140 -75 -47 -24 -112 -59 -145 -77 -33
-18 -94 -50 -135 -71 -41 -21 -87 -47 -102 -58 -16 -10 -28 -15 -28 -10 0 4
-4 3 -8 -3 -7 -9 -97 -59 -169 -93 -18 -8 -33 -19 -33 -23 0 -4 -8 -8 -19 -8
-10 0 -24 -7 -31 -15 -7 -8 -18 -15 -25 -15 -7 0 -24 -9 -38 -20 -14 -11 -30
-20 -36 -20 -5 0 -36 -15 -68 -34 -32 -18 -111 -61 -176 -95 -65 -34 -133 -70
-150 -80 -18 -10 -90 -48 -162 -86 -71 -38 -132 -71 -135 -75 -3 -4 -16 -11
-30 -15 -14 -4 -30 -11 -36 -16 -6 -5 -37 -23 -70 -40 -32 -17 -90 -48 -129
-69 -38 -21 -104 -56 -145 -78 -41 -22 -100 -53 -130 -69 -30 -16 -100 -54
-155 -83 -55 -29 -113 -60 -130 -70 -31 -18 -148 -81 -275 -147 l-75 -40 -3
-851 c-1 -469 0 -852 3 -852 3 0 36 16 73 36 37 20 123 66 192 102 69 37 161
85 205 109 78 41 117 62 295 156 47 25 117 62 155 82 39 20 114 60 167 88 53
29 137 73 185 98 48 25 122 64 163 86 255 137 398 212 510 269 41 22 78 43 82
49 5 7 8 7 8 0 0 -7 3 -7 8 0 4 6 54 34 112 64 58 30 128 66 155 81 28 15 95
51 150 80 55 29 133 70 173 92 l72 39 1 -2048 c1 -1126 3 -2075 4 -2108 5
-107 19 -252 31 -335 3 -19 7 -50 9 -69 4 -36 16 -96 50 -256 2 -11 8 -35 14
-52 5 -18 8 -33 6 -33 -3 0 0 -12 6 -27 6 -16 12 -35 14 -43 10 -47 83 -258
116 -335 22 -49 39 -95 39 -101 0 -6 7 -17 15 -24 8 -6 14 -15 13 -18 -3 -15
98 -202 115 -213 5 -3 8 -9 8 -13 -1 -9 61 -104 109 -166 62 -80 204 -218 290
-282 83 -62 223 -148 239 -148 6 0 11 -5 11 -10 0 -6 3 -9 8 -8 4 1 27 -7 52
-19 25 -11 77 -32 115 -47 39 -15 81 -32 95 -38 94 -40 320 -108 409 -123 19
-3 37 -8 41 -10 23 -14 198 -20 610 -20 475 0 722 9 885 31 22 3 59 6 83 6 24
0 42 5 43 12 1 6 2 328 3 714 1 639 0 705 -15 713 -9 4 -18 6 -21 4 -6 -7
-322 -17 -528 -18 -252 0 -344 8 -520 48 -192 43 -386 163 -494 304 -62 81
-139 233 -150 296 -1 6 -4 15 -8 20 -3 6 -9 30 -14 55 -9 50 -11 59 -13 63 -1
1 -4 16 -6 32 -2 17 -7 55 -10 85 -10 75 -12 4161 -3 4166 4 3 51 -18 105 -47
54 -28 130 -68 168 -88 39 -20 72 -39 73 -43 2 -5 12 -8 22 -8 10 0 20 -3 22
-7 2 -5 23 -19 48 -31 158 -82 342 -180 385 -204 28 -15 93 -49 145 -75 52
-26 97 -50 100 -53 3 -3 43 -25 90 -49 47 -25 126 -66 175 -92 50 -27 120 -64
157 -83 36 -19 101 -54 145 -77 43 -23 116 -62 163 -87 107 -56 235 -124 325
-172 39 -20 113 -60 165 -87 52 -28 140 -74 195 -103 55 -29 125 -66 155 -82
l55 -28 3 847 2 848 -22 17 c-13 10 -38 23 -55 30 -18 7 -33 16 -33 20 0 4 -9
8 -20 8 -11 0 -20 3 -20 8 0 4 -15 13 -32 21 -18 8 -45 23 -60 33 -16 11 -28
16 -28 11 0 -4 -4 -3 -8 2 -4 6 -34 24 -67 41 -72 38 -201 107 -270 144 -52
29 -131 71 -300 160 -55 29 -154 82 -220 118 -178 96 -253 136 -325 173 -36
19 -67 36 -70 39 -5 5 -59 34 -230 121 -36 19 -67 37 -70 41 -3 3 -12 8 -20
10 -8 2 -34 16 -57 31 -24 15 -43 25 -43 21 0 -3 -6 -2 -12 4 -13 11 -108 62
-213 116 -33 16 -62 33 -65 36 -3 3 -45 25 -95 50 -49 25 -92 47 -95 50 -6 5
-21 14 -190 103 -154 80 -203 107 -217 119 -7 6 -13 7 -13 3 0 -5 -8 -1 -17 7
-10 8 -76 46 -148 83 -71 37 -150 79 -175 93 -25 14 -83 45 -130 70 -47 24
-113 60 -147 78 -33 19 -63 34 -65 34 -2 0 -34 -18 -71 -39z"/>
</g>
</svg>
